<svg width="1880" height="771" viewBox="0 0 1880 771" fill="none" xmlns="http://www.w3.org/2000/svg">
<rect width="1880" height="771" fill="#22313F"/>
<circle cx="195.5" cy="409.5" r="118.5" fill="#1E90FF"/>
<circle cx="698.5" cy="409.5" r="118.5" fill="#FF6384"/>
<path d="M139.966 430.685H132.231V444H118.96V430.685H91.5381V421.236L119.707 379.752H132.231V420.138H139.966V430.685ZM118.96 420.138V409.239C118.96 407.423 119.033 404.786 119.18 401.329C119.326 397.872 119.443 395.865 119.531 395.309H119.18C118.096 397.711 116.792 400.055 115.269 402.34L103.491 420.138H118.96ZM161.587 434.552C160.063 440.47 157.485 447.486 153.853 455.602H144.185C146.089 447.809 147.568 440.455 148.623 433.541H160.928L161.587 434.552ZM194.502 402.955C200.713 402.955 205.649 404.698 209.312 408.185C213.003 411.671 214.849 416.446 214.849 422.511C214.849 429.688 212.637 435.211 208.213 439.078C203.789 442.945 197.461 444.879 189.229 444.879C182.08 444.879 176.309 443.722 171.914 441.407V429.674C174.229 430.904 176.924 431.915 180 432.706C183.076 433.468 185.991 433.849 188.745 433.849C197.036 433.849 201.182 430.45 201.182 423.653C201.182 417.179 196.89 413.941 188.306 413.941C186.753 413.941 185.039 414.103 183.164 414.425C181.289 414.718 179.766 415.04 178.594 415.392L173.188 412.491L175.605 379.752H210.454V391.266H187.515L186.328 403.878L187.866 403.57C189.653 403.16 191.865 402.955 194.502 402.955ZM232.778 399C232.778 402.721 233.101 405.504 233.745 407.35C234.419 409.166 235.488 410.074 236.953 410.074C239.766 410.074 241.172 406.383 241.172 399C241.172 391.676 239.766 388.014 236.953 388.014C235.488 388.014 234.419 388.922 233.745 390.738C233.101 392.525 232.778 395.279 232.778 399ZM252.246 398.912C252.246 405.65 250.942 410.719 248.335 414.117C245.728 417.486 241.904 419.171 236.865 419.171C232.031 419.171 228.296 417.442 225.659 413.985C223.022 410.499 221.704 405.475 221.704 398.912C221.704 385.523 226.758 378.829 236.865 378.829C241.816 378.829 245.61 380.572 248.247 384.059C250.913 387.516 252.246 392.467 252.246 398.912ZM282.48 379.752L246.841 444H236.294L271.934 379.752H282.48ZM277.778 424.664C277.778 428.385 278.101 431.168 278.745 433.014C279.419 434.83 280.488 435.738 281.953 435.738C284.766 435.738 286.172 432.047 286.172 424.664C286.172 417.34 284.766 413.678 281.953 413.678C280.488 413.678 279.419 414.586 278.745 416.402C278.101 418.189 277.778 420.943 277.778 424.664ZM297.246 424.576C297.246 431.285 295.942 436.339 293.335 439.737C290.728 443.106 286.904 444.791 281.865 444.791C277.031 444.791 273.296 443.062 270.659 439.605C268.022 436.119 266.704 431.109 266.704 424.576C266.704 411.188 271.758 404.493 281.865 404.493C286.816 404.493 290.61 406.236 293.247 409.723C295.913 413.18 297.246 418.131 297.246 424.576Z" fill="white"/>
<path d="M645.011 394.122C645.011 398.136 643.795 401.549 641.363 404.361C638.932 407.174 635.519 409.107 631.124 410.162V410.426C636.31 411.07 640.235 412.652 642.901 415.172C645.567 417.662 646.9 421.031 646.9 425.279C646.9 431.461 644.659 436.28 640.177 439.737C635.694 443.165 629.293 444.879 620.973 444.879C614 444.879 607.818 443.722 602.428 441.407V429.85C604.918 431.109 607.657 432.135 610.646 432.926C613.634 433.717 616.593 434.112 619.522 434.112C624.005 434.112 627.315 433.351 629.454 431.827C631.593 430.304 632.662 427.857 632.662 424.488C632.662 421.471 631.432 419.332 628.971 418.072C626.51 416.812 622.584 416.183 617.193 416.183H612.315V405.768H617.281C622.262 405.768 625.895 405.123 628.18 403.834C630.494 402.516 631.651 400.274 631.651 397.11C631.651 392.247 628.604 389.815 622.511 389.815C620.401 389.815 618.248 390.167 616.051 390.87C613.883 391.573 611.466 392.789 608.8 394.518L602.516 385.157C608.375 380.938 615.362 378.829 623.478 378.829C630.128 378.829 635.372 380.177 639.21 382.872C643.077 385.567 645.011 389.317 645.011 394.122ZM670.587 434.552C669.063 440.47 666.485 447.486 662.853 455.602H653.185C655.089 447.809 656.568 440.455 657.623 433.541H669.928L670.587 434.552ZM722.53 394.122C722.53 398.136 721.314 401.549 718.883 404.361C716.451 407.174 713.038 409.107 708.644 410.162V410.426C713.829 411.07 717.755 412.652 720.421 415.172C723.087 417.662 724.42 421.031 724.42 425.279C724.42 431.461 722.179 436.28 717.696 439.737C713.214 443.165 706.812 444.879 698.492 444.879C691.52 444.879 685.338 443.722 679.947 441.407V429.85C682.438 431.109 685.177 432.135 688.165 432.926C691.153 433.717 694.112 434.112 697.042 434.112C701.524 434.112 704.835 433.351 706.974 431.827C709.112 430.304 710.182 427.857 710.182 424.488C710.182 421.471 708.951 419.332 706.49 418.072C704.029 416.812 700.104 416.183 694.713 416.183H689.835V405.768H694.801C699.781 405.768 703.414 405.123 705.699 403.834C708.014 402.516 709.171 400.274 709.171 397.11C709.171 392.247 706.124 389.815 700.03 389.815C697.921 389.815 695.768 390.167 693.57 390.87C691.402 391.573 688.985 392.789 686.319 394.518L680.035 385.157C685.895 380.938 692.882 378.829 700.997 378.829C707.647 378.829 712.892 380.177 716.729 382.872C720.597 385.567 722.53 389.317 722.53 394.122ZM741.778 399C741.778 402.721 742.101 405.504 742.745 407.35C743.419 409.166 744.488 410.074 745.953 410.074C748.766 410.074 750.172 406.383 750.172 399C750.172 391.676 748.766 388.014 745.953 388.014C744.488 388.014 743.419 388.922 742.745 390.738C742.101 392.525 741.778 395.279 741.778 399ZM761.246 398.912C761.246 405.65 759.942 410.719 757.335 414.117C754.728 417.486 750.904 419.171 745.865 419.171C741.031 419.171 737.296 417.442 734.659 413.985C732.022 410.499 730.704 405.475 730.704 398.912C730.704 385.523 735.758 378.829 745.865 378.829C750.816 378.829 754.61 380.572 757.247 384.059C759.913 387.516 761.246 392.467 761.246 398.912ZM791.48 379.752L755.841 444H745.294L780.934 379.752H791.48ZM786.778 424.664C786.778 428.385 787.101 431.168 787.745 433.014C788.419 434.83 789.488 435.738 790.953 435.738C793.766 435.738 795.172 432.047 795.172 424.664C795.172 417.34 793.766 413.678 790.953 413.678C789.488 413.678 788.419 414.586 787.745 416.402C787.101 418.189 786.778 420.943 786.778 424.664ZM806.246 424.576C806.246 431.285 804.942 436.339 802.335 439.737C799.728 443.106 795.904 444.791 790.865 444.791C786.031 444.791 782.296 443.062 779.659 439.605C777.022 436.119 775.704 431.109 775.704 424.576C775.704 411.188 780.758 404.493 790.865 404.493C795.816 404.493 799.61 406.236 802.247 409.723C804.913 413.18 806.246 418.131 806.246 424.576Z" fill="white"/>
<path d="M67.32 584.64C70.48 584.64 73.3 585.32 75.78 586.68C78.3 588.04 80.26 590 81.66 592.56C83.1 595.12 83.82 598.12 83.82 601.56C83.82 605 83.1 608 81.66 610.56C80.26 613.08 78.3 615.02 75.78 616.38C73.3 617.74 70.48 618.42 67.32 618.42C64.16 618.42 61.32 617.74 58.8 616.38C56.32 615.02 54.36 613.08 52.92 610.56C51.48 608 50.76 605 50.76 601.56C50.76 598.12 51.48 595.12 52.92 592.56C54.36 590 56.32 588.04 58.8 586.68C61.32 585.32 64.16 584.64 67.32 584.64ZM67.32 589.44C65.36 589.44 63.54 589.88 61.86 590.76C60.22 591.64 58.88 593 57.84 594.84C56.84 596.64 56.34 598.88 56.34 601.56C56.34 604.2 56.84 606.44 57.84 608.28C58.88 610.08 60.22 611.42 61.86 612.3C63.54 613.18 65.36 613.62 67.32 613.62C69.28 613.62 71.08 613.18 72.72 612.3C74.4 611.42 75.74 610.08 76.74 608.28C77.78 606.44 78.3 604.2 78.3 601.56C78.3 598.88 77.78 596.64 76.74 594.84C75.74 593 74.4 591.64 72.72 590.76C71.08 589.88 69.28 589.44 67.32 589.44ZM105.515 577.26C102.595 577.22 100.555 577.72 99.3947 578.76C98.2747 579.8 97.7147 581.6 97.7147 584.16V585.06H105.515V589.86H97.7147V618H92.2547V589.86H87.5147V585.06H92.2547V583.74C92.2547 575.86 96.6747 572.1 105.515 572.46V577.26ZM139.767 584.64C142.967 584.64 145.667 585.44 147.867 587.04C150.107 588.64 151.667 590.78 152.547 593.46V585.06H158.007V618H152.547V609.6C151.667 612.28 150.107 614.42 147.867 616.02C145.667 617.62 142.967 618.42 139.767 618.42C136.847 618.42 134.247 617.74 131.967 616.38C129.687 615.02 127.887 613.08 126.567 610.56C125.287 608 124.647 605 124.647 601.56C124.647 598.12 125.287 595.12 126.567 592.56C127.887 590 129.687 588.04 131.967 586.68C134.247 585.32 136.847 584.64 139.767 584.64ZM141.327 589.5C137.967 589.5 135.267 590.58 133.227 592.74C131.227 594.86 130.227 597.8 130.227 601.56C130.227 605.32 131.227 608.28 133.227 610.44C135.267 612.56 137.967 613.62 141.327 613.62C143.487 613.62 145.407 613.12 147.087 612.12C148.807 611.12 150.147 609.72 151.107 607.92C152.067 606.08 152.547 603.96 152.547 601.56C152.547 599.16 152.067 597.04 151.107 595.2C150.147 593.36 148.807 591.96 147.087 591C145.407 590 143.487 589.5 141.327 589.5ZM172.156 573.6V618H166.696V573.6H172.156ZM186.395 573.6V618H180.935V573.6H186.395ZM250.497 584.52C254.337 584.52 257.417 585.76 259.737 588.24C262.097 590.68 263.277 594.22 263.277 598.86V618H257.817V599.34C257.817 596.1 257.017 593.62 255.417 591.9C253.857 590.18 251.697 589.32 248.937 589.32C246.057 589.32 243.737 590.28 241.977 592.2C240.257 594.08 239.397 596.86 239.397 600.54V618H233.937V599.34C233.937 596.1 233.137 593.62 231.537 591.9C229.937 590.18 227.777 589.32 225.057 589.32C222.137 589.32 219.797 590.28 218.037 592.2C216.317 594.08 215.457 596.86 215.457 600.54V618H209.997V585.06H215.457V592.56C216.257 589.96 217.677 587.98 219.717 586.62C221.797 585.22 224.177 584.52 226.857 584.52C229.657 584.52 232.077 585.24 234.117 586.68C236.197 588.08 237.677 590.16 238.557 592.92C239.477 590.24 241.017 588.18 243.177 586.74C245.337 585.26 247.777 584.52 250.497 584.52ZM302.055 599.7C302.055 600.86 301.975 601.86 301.815 602.7H275.475C275.595 606.46 276.655 609.28 278.655 611.16C280.695 613.04 283.175 613.98 286.095 613.98C288.735 613.98 290.935 613.32 292.695 612C294.495 610.64 295.595 608.84 295.995 606.6H301.815C301.415 608.88 300.515 610.92 299.115 612.72C297.755 614.52 295.975 615.92 293.775 616.92C291.575 617.92 289.095 618.42 286.335 618.42C283.175 618.42 280.375 617.74 277.935 616.38C275.495 615.02 273.575 613.08 272.175 610.56C270.815 608 270.135 605 270.135 601.56C270.135 598.12 270.815 595.12 272.175 592.56C273.575 590 275.495 588.04 277.935 586.68C280.375 585.32 283.175 584.64 286.335 584.64C289.535 584.64 292.315 585.32 294.675 586.68C297.075 588.04 298.895 589.86 300.135 592.14C301.415 594.42 302.055 596.94 302.055 599.7ZM296.535 600.06C296.655 597.62 296.255 595.58 295.335 593.94C294.415 592.3 293.155 591.08 291.555 590.28C289.955 589.48 288.215 589.08 286.335 589.08C283.335 589.08 280.815 590.02 278.775 591.9C276.735 593.74 275.635 596.46 275.475 600.06H296.535ZM326.536 584.52C330.376 584.52 333.476 585.76 335.836 588.24C338.196 590.68 339.376 594.22 339.376 598.86V618H333.916V599.34C333.916 596.06 333.076 593.54 331.396 591.78C329.716 590.02 327.436 589.14 324.556 589.14C321.556 589.14 319.156 590.12 317.356 592.08C315.556 594 314.656 596.82 314.656 600.54V618H309.196V585.06H314.656V592.86C315.496 590.18 316.976 588.12 319.096 586.68C321.256 585.24 323.736 584.52 326.536 584.52Z" fill="white"/>
<path d="M525.32 584.64C528.48 584.64 531.3 585.32 533.78 586.68C536.3 588.04 538.26 590 539.66 592.56C541.1 595.12 541.82 598.12 541.82 601.56C541.82 605 541.1 608 539.66 610.56C538.26 613.08 536.3 615.02 533.78 616.38C531.3 617.74 528.48 618.42 525.32 618.42C522.16 618.42 519.32 617.74 516.8 616.38C514.32 615.02 512.36 613.08 510.92 610.56C509.48 608 508.76 605 508.76 601.56C508.76 598.12 509.48 595.12 510.92 592.56C512.36 590 514.32 588.04 516.8 586.68C519.32 585.32 522.16 584.64 525.32 584.64ZM525.32 589.44C523.36 589.44 521.54 589.88 519.86 590.76C518.22 591.64 516.88 593 515.84 594.84C514.84 596.64 514.34 598.88 514.34 601.56C514.34 604.2 514.84 606.44 515.84 608.28C516.88 610.08 518.22 611.42 519.86 612.3C521.54 613.18 523.36 613.62 525.32 613.62C527.28 613.62 529.08 613.18 530.72 612.3C532.4 611.42 533.74 610.08 534.74 608.28C535.78 606.44 536.3 604.2 536.3 601.56C536.3 598.88 535.78 596.64 534.74 594.84C533.74 593 532.4 591.64 530.72 590.76C529.08 589.88 527.28 589.44 525.32 589.44ZM563.515 577.26C560.595 577.22 558.555 577.72 557.395 578.76C556.275 579.8 555.715 581.6 555.715 584.16V585.06H563.515V589.86H555.715V618H550.255V589.86H545.515V585.06H550.255V583.74C550.255 575.86 554.675 572.1 563.515 572.46V577.26ZM597.767 584.64C600.967 584.64 603.667 585.44 605.867 587.04C608.107 588.64 609.667 590.78 610.547 593.46V585.06H616.007V618H610.547V609.6C609.667 612.28 608.107 614.42 605.867 616.02C603.667 617.62 600.967 618.42 597.767 618.42C594.847 618.42 592.247 617.74 589.967 616.38C587.687 615.02 585.887 613.08 584.567 610.56C583.287 608 582.647 605 582.647 601.56C582.647 598.12 583.287 595.12 584.567 592.56C585.887 590 587.687 588.04 589.967 586.68C592.247 585.32 594.847 584.64 597.767 584.64ZM599.327 589.5C595.967 589.5 593.267 590.58 591.227 592.74C589.227 594.86 588.227 597.8 588.227 601.56C588.227 605.32 589.227 608.28 591.227 610.44C593.267 612.56 595.967 613.62 599.327 613.62C601.487 613.62 603.407 613.12 605.087 612.12C606.807 611.12 608.147 609.72 609.107 607.92C610.067 606.08 610.547 603.96 610.547 601.56C610.547 599.16 610.067 597.04 609.107 595.2C608.147 593.36 606.807 591.96 605.087 591C603.407 590 601.487 589.5 599.327 589.5ZM630.156 573.6V618H624.696V573.6H630.156ZM644.395 573.6V618H638.935V573.6H644.395ZM713.237 585.06L703.757 618H697.877L688.817 591.18L679.697 618H673.757L664.397 585.06H669.917L676.937 612.78L686.057 585.06H691.757L700.937 612.72L708.017 585.06H713.237ZM733.269 584.64C736.429 584.64 739.249 585.32 741.729 586.68C744.249 588.04 746.209 590 747.609 592.56C749.049 595.12 749.769 598.12 749.769 601.56C749.769 605 749.049 608 747.609 610.56C746.209 613.08 744.249 615.02 741.729 616.38C739.249 617.74 736.429 618.42 733.269 618.42C730.109 618.42 727.269 617.74 724.749 616.38C722.269 615.02 720.309 613.08 718.869 610.56C717.429 608 716.709 605 716.709 601.56C716.709 598.12 717.429 595.12 718.869 592.56C720.309 590 722.269 588.04 724.749 586.68C727.269 585.32 730.109 584.64 733.269 584.64ZM733.269 589.44C731.309 589.44 729.489 589.88 727.809 590.76C726.169 591.64 724.829 593 723.789 594.84C722.789 596.64 722.289 598.88 722.289 601.56C722.289 604.2 722.789 606.44 723.789 608.28C724.829 610.08 726.169 611.42 727.809 612.3C729.489 613.18 731.309 613.62 733.269 613.62C735.229 613.62 737.029 613.18 738.669 612.3C740.349 611.42 741.689 610.08 742.689 608.28C743.729 606.44 744.249 604.2 744.249 601.56C744.249 598.88 743.729 596.64 742.689 594.84C741.689 593 740.349 591.64 738.669 590.76C737.029 589.88 735.229 589.44 733.269 589.44ZM797.384 584.52C801.224 584.52 804.304 585.76 806.624 588.24C808.984 590.68 810.164 594.22 810.164 598.86V618H804.704V599.34C804.704 596.1 803.904 593.62 802.304 591.9C800.744 590.18 798.584 589.32 795.824 589.32C792.944 589.32 790.624 590.28 788.864 592.2C787.144 594.08 786.284 596.86 786.284 600.54V618H780.824V599.34C780.824 596.1 780.024 593.62 778.424 591.9C776.824 590.18 774.664 589.32 771.944 589.32C769.024 589.32 766.684 590.28 764.924 592.2C763.204 594.08 762.344 596.86 762.344 600.54V618H756.884V585.06H762.344V592.56C763.144 589.96 764.564 587.98 766.604 586.62C768.684 585.22 771.064 584.52 773.744 584.52C776.544 584.52 778.964 585.24 781.004 586.68C783.084 588.08 784.564 590.16 785.444 592.92C786.364 590.24 787.904 588.18 790.064 586.74C792.224 585.26 794.664 584.52 797.384 584.52ZM848.942 599.7C848.942 600.86 848.862 601.86 848.702 602.7H822.362C822.482 606.46 823.542 609.28 825.542 611.16C827.582 613.04 830.062 613.98 832.982 613.98C835.622 613.98 837.822 613.32 839.582 612C841.382 610.64 842.482 608.84 842.882 606.6H848.702C848.302 608.88 847.402 610.92 846.002 612.72C844.642 614.52 842.862 615.92 840.662 616.92C838.462 617.92 835.982 618.42 833.222 618.42C830.062 618.42 827.262 617.74 824.822 616.38C822.382 615.02 820.462 613.08 819.062 610.56C817.702 608 817.022 605 817.022 601.56C817.022 598.12 817.702 595.12 819.062 592.56C820.462 590 822.382 588.04 824.822 586.68C827.262 585.32 830.062 584.64 833.222 584.64C836.422 584.64 839.202 585.32 841.562 586.68C843.962 588.04 845.782 589.86 847.022 592.14C848.302 594.42 848.942 596.94 848.942 599.7ZM843.422 600.06C843.542 597.62 843.142 595.58 842.222 593.94C841.302 592.3 840.042 591.08 838.442 590.28C836.842 589.48 835.102 589.08 833.222 589.08C830.222 589.08 827.702 590.02 825.662 591.9C823.622 593.74 822.522 596.46 822.362 600.06H843.422ZM873.423 584.52C877.263 584.52 880.363 585.76 882.723 588.24C885.083 590.68 886.263 594.22 886.263 598.86V618H880.803V599.34C880.803 596.06 879.963 593.54 878.283 591.78C876.603 590.02 874.323 589.14 871.443 589.14C868.443 589.14 866.043 590.12 864.243 592.08C862.443 594 861.543 596.82 861.543 600.54V618H856.083V585.06H861.543V592.86C862.383 590.18 863.863 588.12 865.983 586.68C868.143 585.24 870.623 584.52 873.423 584.52Z" fill="white"/>
<path d="M1046.98 335.16C1049.54 335.76 1051.56 337 1053.04 338.88C1054.56 340.76 1055.32 342.94 1055.32 345.42C1055.32 349.06 1054.1 351.9 1051.66 353.94C1049.26 355.98 1045.8 357 1041.28 357H1021.54V314.58H1040.8C1045.12 314.58 1048.46 315.52 1050.82 317.4C1053.18 319.28 1054.36 321.96 1054.36 325.44C1054.36 328 1053.68 330.14 1052.32 331.86C1050.96 333.54 1049.18 334.64 1046.98 335.16ZM1031.8 331.92H1038.52C1042.08 331.92 1043.86 330.4 1043.86 327.36C1043.86 324.32 1042.04 322.8 1038.4 322.8H1031.8V331.92ZM1039.12 348.66C1042.92 348.66 1044.82 347.1 1044.82 343.98C1044.82 342.46 1044.32 341.28 1043.32 340.44C1042.32 339.56 1040.9 339.12 1039.06 339.12H1031.8V348.66H1039.12ZM1092.54 339.36C1092.54 340.2 1092.44 341.12 1092.24 342.12H1069.02C1069.14 344.64 1069.78 346.46 1070.94 347.58C1072.1 348.66 1073.58 349.2 1075.38 349.2C1076.9 349.2 1078.16 348.82 1079.16 348.06C1080.16 347.3 1080.82 346.32 1081.14 345.12H1092C1091.56 347.48 1090.6 349.6 1089.12 351.48C1087.64 353.32 1085.76 354.78 1083.48 355.86C1081.2 356.9 1078.66 357.42 1075.86 357.42C1072.58 357.42 1069.66 356.74 1067.1 355.38C1064.58 353.98 1062.6 351.98 1061.16 349.38C1059.72 346.78 1059 343.74 1059 340.26C1059 336.74 1059.7 333.7 1061.1 331.14C1062.54 328.54 1064.54 326.56 1067.1 325.2C1069.66 323.8 1072.58 323.1 1075.86 323.1C1079.18 323.1 1082.1 323.78 1084.62 325.14C1087.14 326.5 1089.08 328.42 1090.44 330.9C1091.84 333.34 1092.54 336.16 1092.54 339.36ZM1082.16 337.8C1082.2 335.6 1081.6 333.96 1080.36 332.88C1079.16 331.76 1077.66 331.2 1075.86 331.2C1073.98 331.2 1072.42 331.76 1071.18 332.88C1069.94 334 1069.24 335.64 1069.08 337.8H1082.16ZM1116.85 348.18V357H1112.23C1108.31 357 1105.25 356.04 1103.05 354.12C1100.89 352.16 1099.81 348.94 1099.81 344.46V332.16H1095.31V323.52H1099.81V315.3H1110.07V323.52H1116.79V332.16H1110.07V344.64C1110.07 345.96 1110.33 346.88 1110.85 347.4C1111.41 347.92 1112.33 348.18 1113.61 348.18H1116.85ZM1171.57 323.52L1162.99 357H1151.53L1145.47 334.56L1139.35 357H1127.89L1119.31 323.52H1129.57L1134.01 347.64L1140.25 323.52H1151.17L1157.59 347.7L1162.03 323.52H1171.57ZM1207.09 339.36C1207.09 340.2 1206.99 341.12 1206.79 342.12H1183.57C1183.69 344.64 1184.33 346.46 1185.49 347.58C1186.65 348.66 1188.13 349.2 1189.93 349.2C1191.45 349.2 1192.71 348.82 1193.71 348.06C1194.71 347.3 1195.37 346.32 1195.69 345.12H1206.55C1206.11 347.48 1205.15 349.6 1203.67 351.48C1202.19 353.32 1200.31 354.78 1198.03 355.86C1195.75 356.9 1193.21 357.42 1190.41 357.42C1187.13 357.42 1184.21 356.74 1181.65 355.38C1179.13 353.98 1177.15 351.98 1175.71 349.38C1174.27 346.78 1173.55 343.74 1173.55 340.26C1173.55 336.74 1174.25 333.7 1175.65 331.14C1177.09 328.54 1179.09 326.56 1181.65 325.2C1184.21 323.8 1187.13 323.1 1190.41 323.1C1193.73 323.1 1196.65 323.78 1199.17 325.14C1201.69 326.5 1203.63 328.42 1204.99 330.9C1206.39 333.34 1207.09 336.16 1207.09 339.36ZM1196.71 337.8C1196.75 335.6 1196.15 333.96 1194.91 332.88C1193.71 331.76 1192.21 331.2 1190.41 331.2C1188.53 331.2 1186.97 331.76 1185.73 332.88C1184.49 334 1183.79 335.64 1183.63 337.8H1196.71ZM1244.24 339.36C1244.24 340.2 1244.14 341.12 1243.94 342.12H1220.72C1220.84 344.64 1221.48 346.46 1222.64 347.58C1223.8 348.66 1225.28 349.2 1227.08 349.2C1228.6 349.2 1229.86 348.82 1230.86 348.06C1231.86 347.3 1232.52 346.32 1232.84 345.12H1243.7C1243.26 347.48 1242.3 349.6 1240.82 351.48C1239.34 353.32 1237.46 354.78 1235.18 355.86C1232.9 356.9 1230.36 357.42 1227.56 357.42C1224.28 357.42 1221.36 356.74 1218.8 355.38C1216.28 353.98 1214.3 351.98 1212.86 349.38C1211.42 346.78 1210.7 343.74 1210.7 340.26C1210.7 336.74 1211.4 333.7 1212.8 331.14C1214.24 328.54 1216.24 326.56 1218.8 325.2C1221.36 323.8 1224.28 323.1 1227.56 323.1C1230.88 323.1 1233.8 323.78 1236.32 325.14C1238.84 326.5 1240.78 328.42 1242.14 330.9C1243.54 333.34 1244.24 336.16 1244.24 339.36ZM1233.86 337.8C1233.9 335.6 1233.3 333.96 1232.06 332.88C1230.86 331.76 1229.36 331.2 1227.56 331.2C1225.68 331.2 1224.12 331.76 1222.88 332.88C1221.64 334 1220.94 335.64 1220.78 337.8H1233.86ZM1270.83 323.16C1274.67 323.16 1277.71 324.44 1279.95 327C1282.23 329.56 1283.37 333.08 1283.37 337.56V357H1273.11V338.76C1273.11 336.52 1272.51 334.78 1271.31 333.54C1270.15 332.26 1268.59 331.62 1266.63 331.62C1264.55 331.62 1262.89 332.28 1261.65 333.6C1260.45 334.92 1259.85 336.8 1259.85 339.24V357H1249.59V323.52H1259.85V329.64C1260.81 327.64 1262.23 326.06 1264.11 324.9C1266.03 323.74 1268.27 323.16 1270.83 323.16ZM1300.65 348.84C1313.37 339.76 1319.73 332.54 1319.73 327.18C1319.73 323.9 1318.31 322.26 1315.47 322.26C1313.87 322.26 1312.69 322.82 1311.93 323.94C1311.21 325.06 1310.81 326.8 1310.73 329.16H1300.71C1300.95 324 1302.51 320.12 1305.39 317.52C1308.27 314.92 1311.91 313.62 1316.31 313.62C1320.91 313.62 1324.37 314.78 1326.69 317.1C1329.05 319.42 1330.23 322.44 1330.23 326.16C1330.23 330.28 1328.65 334.32 1325.49 338.28C1322.33 342.2 1318.55 345.52 1314.15 348.24H1330.89V356.52H1300.65V348.84ZM1335.11 335.34C1335.11 341.98 1336.45 347.24 1339.13 351.12C1341.81 355 1346.09 356.94 1351.97 356.94C1357.81 356.94 1362.07 355 1364.75 351.12C1367.47 347.24 1368.83 341.98 1368.83 335.34C1368.83 328.74 1367.47 323.52 1364.75 319.68C1362.07 315.8 1357.81 313.86 1351.97 313.86C1346.09 313.86 1341.81 315.8 1339.13 319.68C1336.45 323.52 1335.11 328.74 1335.11 335.34ZM1358.63 335.34C1358.63 339.14 1358.17 342.08 1357.25 344.16C1356.37 346.2 1354.61 347.22 1351.97 347.22C1349.29 347.22 1347.49 346.2 1346.57 344.16C1345.65 342.08 1345.19 339.14 1345.19 335.34C1345.19 331.58 1345.65 328.68 1346.57 326.64C1347.49 324.6 1349.29 323.58 1351.97 323.58C1354.61 323.58 1356.37 324.6 1357.25 326.64C1358.17 328.64 1358.63 331.54 1358.63 335.34ZM1373.72 335.34C1373.72 341.98 1375.06 347.24 1377.74 351.12C1380.42 355 1384.7 356.94 1390.58 356.94C1396.42 356.94 1400.68 355 1403.36 351.12C1406.08 347.24 1407.44 341.98 1407.44 335.34C1407.44 328.74 1406.08 323.52 1403.36 319.68C1400.68 315.8 1396.42 313.86 1390.58 313.86C1384.7 313.86 1380.42 315.8 1377.74 319.68C1375.06 323.52 1373.72 328.74 1373.72 335.34ZM1397.24 335.34C1397.24 339.14 1396.78 342.08 1395.86 344.16C1394.98 346.2 1393.22 347.22 1390.58 347.22C1387.9 347.22 1386.1 346.2 1385.18 344.16C1384.26 342.08 1383.8 339.14 1383.8 335.34C1383.8 331.58 1384.26 328.68 1385.18 326.64C1386.1 324.6 1387.9 323.58 1390.58 323.58C1393.22 323.58 1394.98 324.6 1395.86 326.64C1396.78 328.64 1397.24 331.54 1397.24 335.34ZM1439.34 321.78L1424.16 357H1413.54L1428.9 322.98H1410.9V314.16H1439.34V321.78ZM1467.22 331.68V340.2H1440.76V331.68H1467.22ZM1475.02 348.84C1487.74 339.76 1494.1 332.54 1494.1 327.18C1494.1 323.9 1492.68 322.26 1489.84 322.26C1488.24 322.26 1487.06 322.82 1486.3 323.94C1485.58 325.06 1485.18 326.8 1485.1 329.16H1475.08C1475.32 324 1476.88 320.12 1479.76 317.52C1482.64 314.92 1486.28 313.62 1490.68 313.62C1495.28 313.62 1498.74 314.78 1501.06 317.1C1503.42 319.42 1504.6 322.44 1504.6 326.16C1504.6 330.28 1503.02 334.32 1499.86 338.28C1496.7 342.2 1492.92 345.52 1488.52 348.24H1505.26V356.52H1475.02V348.84ZM1509.48 335.34C1509.48 341.98 1510.82 347.24 1513.5 351.12C1516.18 355 1520.46 356.94 1526.34 356.94C1532.18 356.94 1536.44 355 1539.12 351.12C1541.84 347.24 1543.2 341.98 1543.2 335.34C1543.2 328.74 1541.84 323.52 1539.12 319.68C1536.44 315.8 1532.18 313.86 1526.34 313.86C1520.46 313.86 1516.18 315.8 1513.5 319.68C1510.82 323.52 1509.48 328.74 1509.48 335.34ZM1533 335.34C1533 339.14 1532.54 342.08 1531.62 344.16C1530.74 346.2 1528.98 347.22 1526.34 347.22C1523.66 347.22 1521.86 346.2 1520.94 344.16C1520.02 342.08 1519.56 339.14 1519.56 335.34C1519.56 331.58 1520.02 328.68 1520.94 326.64C1521.86 324.6 1523.66 323.58 1526.34 323.58C1528.98 323.58 1530.74 324.6 1531.62 326.64C1532.54 328.64 1533 331.54 1533 335.34ZM1546.24 324.18V314.58H1563.4V357H1552.6V324.18H1546.24ZM1585.08 312.72C1588.04 312.72 1590.58 313.24 1592.7 314.28C1594.82 315.28 1596.42 316.68 1597.5 318.48C1598.62 320.24 1599.18 322.24 1599.18 324.48C1599.18 327.24 1598.46 329.46 1597.02 331.14C1595.62 332.82 1593.86 333.88 1591.74 334.32V334.62C1597.22 336.38 1599.96 339.8 1599.96 344.88C1599.96 347.32 1599.4 349.5 1598.28 351.42C1597.16 353.3 1595.52 354.78 1593.36 355.86C1591.24 356.9 1588.68 357.42 1585.68 357.42C1580.8 357.42 1576.92 356.22 1574.04 353.82C1571.2 351.42 1569.66 347.76 1569.42 342.84H1579.44C1579.52 344.72 1580.04 346.2 1581 347.28C1581.96 348.36 1583.36 348.9 1585.2 348.9C1586.68 348.9 1587.84 348.46 1588.68 347.58C1589.56 346.7 1590 345.56 1590 344.16C1590 340.68 1587.48 338.94 1582.44 338.94H1580.52V330.6H1582.38C1586.9 330.68 1589.16 329.06 1589.16 325.74C1589.16 324.3 1588.76 323.2 1587.96 322.44C1587.2 321.64 1586.16 321.24 1584.84 321.24C1583.4 321.24 1582.26 321.74 1581.42 322.74C1580.58 323.7 1580.1 325 1579.98 326.64H1569.96C1570.16 322.16 1571.56 318.72 1574.16 316.32C1576.76 313.92 1580.4 312.72 1585.08 312.72ZM1615.65 346.74V357H1605.03V346.74H1615.65ZM1629.83 346.74V357H1619.21V346.74H1629.83ZM1644.01 346.74V357H1633.39V346.74H1644.01Z" fill="white"/>
<path d="M1023.88 428.506V433H1019.26V428.506H1023.88ZM1031.06 428.506V433H1026.44V428.506H1031.06ZM1038.24 428.506V433H1033.62V428.506H1038.24ZM1053.6 429.64V433H1050.75C1048.4 433 1046.63 432.44 1045.46 431.32C1044.31 430.2 1043.73 428.324 1043.73 425.692V413.26H1040.29V409.942H1043.73V404.188H1047.6V409.942H1053.56V413.26H1047.6V425.776C1047.6 427.26 1047.86 428.282 1048.4 428.842C1048.96 429.374 1049.91 429.64 1051.25 429.64H1053.6ZM1070.41 409.564C1073.09 409.564 1075.26 410.432 1076.92 412.168C1078.57 413.876 1079.39 416.354 1079.39 419.602V433H1075.57V419.938C1075.57 417.642 1074.98 415.878 1073.81 414.646C1072.63 413.414 1071.04 412.798 1069.02 412.798C1066.92 412.798 1065.24 413.484 1063.98 414.856C1062.72 416.2 1062.09 418.174 1062.09 420.778V433H1058.27V401.92H1062.09V415.402C1062.68 413.526 1063.71 412.084 1065.2 411.076C1066.71 410.068 1068.45 409.564 1070.41 409.564ZM1106.47 420.19C1106.47 421.002 1106.41 421.702 1106.3 422.29H1087.86C1087.94 424.922 1088.69 426.896 1090.09 428.212C1091.51 429.528 1093.25 430.186 1095.29 430.186C1097.14 430.186 1098.68 429.724 1099.91 428.8C1101.17 427.848 1101.94 426.588 1102.22 425.02H1106.3C1106.02 426.616 1105.39 428.044 1104.41 429.304C1103.46 430.564 1102.21 431.544 1100.67 432.244C1099.13 432.944 1097.39 433.294 1095.46 433.294C1093.25 433.294 1091.29 432.818 1089.58 431.866C1087.87 430.914 1086.53 429.556 1085.55 427.792C1084.6 426 1084.12 423.9 1084.12 421.492C1084.12 419.084 1084.6 416.984 1085.55 415.192C1086.53 413.4 1087.87 412.028 1089.58 411.076C1091.29 410.124 1093.25 409.648 1095.46 409.648C1097.7 409.648 1099.65 410.124 1101.3 411.076C1102.98 412.028 1104.25 413.302 1105.12 414.898C1106.02 416.494 1106.47 418.258 1106.47 420.19ZM1102.6 420.442C1102.69 418.734 1102.41 417.306 1101.76 416.158C1101.12 415.01 1100.24 414.156 1099.12 413.596C1098 413.036 1096.78 412.756 1095.46 412.756C1093.36 412.756 1091.6 413.414 1090.17 414.73C1088.74 416.018 1087.97 417.922 1087.86 420.442H1102.6ZM1133.98 409.564C1136.67 409.564 1138.84 410.432 1140.49 412.168C1142.14 413.876 1142.97 416.354 1142.97 419.602V433H1139.15V419.938C1139.15 417.642 1138.56 415.878 1137.38 414.646C1136.21 413.414 1134.61 412.798 1132.59 412.798C1130.49 412.798 1128.81 413.484 1127.55 414.856C1126.29 416.2 1125.66 418.174 1125.66 420.778V433H1121.84V409.942H1125.66V415.402C1126.25 413.526 1127.29 412.084 1128.77 411.076C1130.28 410.068 1132.02 409.564 1133.98 409.564ZM1169.33 409.942V433H1165.5V427.582C1164.92 429.458 1163.87 430.9 1162.35 431.908C1160.87 432.888 1159.13 433.378 1157.15 433.378C1154.49 433.378 1152.33 432.524 1150.68 430.816C1149.03 429.08 1148.2 426.602 1148.2 423.382V409.942H1152.02V423.004C1152.02 425.3 1152.61 427.078 1153.79 428.338C1154.96 429.57 1156.56 430.186 1158.57 430.186C1160.67 430.186 1162.35 429.514 1163.61 428.17C1164.87 426.798 1165.5 424.81 1165.5 422.206V409.942H1169.33ZM1203.8 409.564C1206.49 409.564 1208.64 410.432 1210.27 412.168C1211.92 413.876 1212.74 416.354 1212.74 419.602V433H1208.92V419.938C1208.92 417.67 1208.36 415.934 1207.24 414.73C1206.15 413.526 1204.64 412.924 1202.71 412.924C1200.69 412.924 1199.07 413.596 1197.83 414.94C1196.63 416.256 1196.03 418.202 1196.03 420.778V433H1192.21V419.938C1192.21 417.67 1191.65 415.934 1190.53 414.73C1189.41 413.526 1187.89 412.924 1185.99 412.924C1183.95 412.924 1182.31 413.596 1181.08 414.94C1179.87 416.256 1179.27 418.202 1179.27 420.778V433H1175.45V409.942H1179.27V415.192C1179.83 413.372 1180.82 411.986 1182.25 411.034C1183.71 410.054 1185.37 409.564 1187.25 409.564C1189.21 409.564 1190.9 410.068 1192.33 411.076C1193.79 412.056 1194.82 413.512 1195.44 415.444C1196.08 413.568 1197.16 412.126 1198.67 411.118C1200.19 410.082 1201.89 409.564 1203.8 409.564ZM1231.41 409.648C1233.45 409.648 1235.27 410.124 1236.87 411.076C1238.46 412.028 1239.71 413.4 1240.6 415.192C1241.53 416.984 1241.99 419.084 1241.99 421.492C1241.99 423.9 1241.53 426 1240.6 427.792C1239.71 429.556 1238.46 430.914 1236.87 431.866C1235.27 432.818 1233.45 433.294 1231.41 433.294C1229.17 433.294 1227.26 432.734 1225.69 431.614C1224.15 430.466 1223.09 428.968 1222.5 427.12V433H1218.68V401.92H1222.5V415.822C1223.09 413.974 1224.15 412.49 1225.69 411.37C1227.26 410.222 1229.17 409.648 1231.41 409.648ZM1230.31 413.05C1228.83 413.05 1227.49 413.4 1226.28 414.1C1225.08 414.772 1224.14 415.752 1223.47 417.04C1222.8 418.328 1222.46 419.812 1222.46 421.492C1222.46 423.172 1222.8 424.656 1223.47 425.944C1224.14 427.204 1225.08 428.184 1226.28 428.884C1227.49 429.584 1228.83 429.934 1230.31 429.934C1232.69 429.934 1234.58 429.192 1235.98 427.708C1237.41 426.196 1238.13 424.124 1238.13 421.492C1238.13 418.86 1237.41 416.802 1235.98 415.318C1234.58 413.806 1232.69 413.05 1230.31 413.05ZM1268.19 420.19C1268.19 421.002 1268.13 421.702 1268.02 422.29H1249.58C1249.67 424.922 1250.41 426.896 1251.81 428.212C1253.24 429.528 1254.97 430.186 1257.02 430.186C1258.87 430.186 1260.41 429.724 1261.64 428.8C1262.9 427.848 1263.67 426.588 1263.95 425.02H1268.02C1267.74 426.616 1267.11 428.044 1266.13 429.304C1265.18 430.564 1263.93 431.544 1262.39 432.244C1260.85 432.944 1259.12 433.294 1257.19 433.294C1254.97 433.294 1253.01 432.818 1251.31 431.866C1249.6 430.914 1248.25 429.556 1247.27 427.792C1246.32 426 1245.85 423.9 1245.85 421.492C1245.85 419.084 1246.32 416.984 1247.27 415.192C1248.25 413.4 1249.6 412.028 1251.31 411.076C1253.01 410.124 1254.97 409.648 1257.19 409.648C1259.43 409.648 1261.37 410.124 1263.02 411.076C1264.7 412.028 1265.98 413.302 1266.85 414.898C1267.74 416.494 1268.19 418.258 1268.19 420.19ZM1264.33 420.442C1264.41 418.734 1264.13 417.306 1263.49 416.158C1262.84 415.01 1261.96 414.156 1260.84 413.596C1259.72 413.036 1258.5 412.756 1257.19 412.756C1255.09 412.756 1253.32 413.414 1251.89 414.73C1250.47 416.018 1249.7 417.922 1249.58 420.442H1264.33ZM1277.01 414.604C1277.77 413.008 1278.87 411.776 1280.33 410.908C1281.79 410.012 1283.52 409.564 1285.54 409.564V413.722H1284.36C1282.21 413.722 1280.44 414.282 1279.07 415.402C1277.7 416.494 1277.01 418.314 1277.01 420.862V433H1273.19V409.942H1277.01V414.604ZM1310.14 409.648C1312.36 409.648 1314.33 410.124 1316.07 411.076C1317.83 412.028 1319.2 413.4 1320.18 415.192C1321.19 416.984 1321.69 419.084 1321.69 421.492C1321.69 423.9 1321.19 426 1320.18 427.792C1319.2 429.556 1317.83 430.914 1316.07 431.866C1314.33 432.818 1312.36 433.294 1310.14 433.294C1307.93 433.294 1305.94 432.818 1304.18 431.866C1302.44 430.914 1301.07 429.556 1300.06 427.792C1299.06 426 1298.55 423.9 1298.55 421.492C1298.55 419.084 1299.06 416.984 1300.06 415.192C1301.07 413.4 1302.44 412.028 1304.18 411.076C1305.94 410.124 1307.93 409.648 1310.14 409.648ZM1310.14 413.008C1308.77 413.008 1307.5 413.316 1306.32 413.932C1305.17 414.548 1304.24 415.5 1303.51 416.788C1302.81 418.048 1302.46 419.616 1302.46 421.492C1302.46 423.34 1302.81 424.908 1303.51 426.196C1304.24 427.456 1305.17 428.394 1306.32 429.01C1307.5 429.626 1308.77 429.934 1310.14 429.934C1311.52 429.934 1312.78 429.626 1313.92 429.01C1315.1 428.394 1316.04 427.456 1316.74 426.196C1317.47 424.908 1317.83 423.34 1317.83 421.492C1317.83 419.616 1317.47 418.048 1316.74 416.788C1316.04 415.5 1315.1 414.548 1313.92 413.932C1312.78 413.316 1311.52 413.008 1310.14 413.008ZM1336.88 404.482C1334.84 404.454 1333.41 404.804 1332.6 405.532C1331.81 406.26 1331.42 407.52 1331.42 409.312V409.942H1336.88V413.302H1331.42V433H1327.6V413.302H1324.28V409.942H1327.6V409.018C1327.6 403.502 1330.69 400.87 1336.88 401.122V404.482ZM1364.13 409.648C1366.18 409.648 1368 410.124 1369.59 411.076C1371.19 412.028 1372.43 413.4 1373.33 415.192C1374.25 416.984 1374.72 419.084 1374.72 421.492C1374.72 423.9 1374.25 426 1373.33 427.792C1372.43 429.556 1371.19 430.914 1369.59 431.866C1368 432.818 1366.18 433.294 1364.13 433.294C1361.89 433.294 1359.99 432.734 1358.42 431.614C1356.88 430.466 1355.82 428.968 1355.23 427.12V443.92H1351.41V409.942H1355.23V415.822C1355.82 413.974 1356.88 412.49 1358.42 411.37C1359.99 410.222 1361.89 409.648 1364.13 409.648ZM1363.04 413.05C1361.56 413.05 1360.21 413.4 1359.01 414.1C1357.8 414.772 1356.87 415.752 1356.19 417.04C1355.52 418.328 1355.19 419.812 1355.19 421.492C1355.19 423.172 1355.52 424.656 1356.19 425.944C1356.87 427.204 1357.8 428.184 1359.01 428.884C1360.21 429.584 1361.56 429.934 1363.04 429.934C1365.42 429.934 1367.31 429.192 1368.71 427.708C1370.14 426.196 1370.85 424.124 1370.85 421.492C1370.85 418.86 1370.14 416.802 1368.71 415.318C1367.31 413.806 1365.42 413.05 1363.04 413.05ZM1400.92 420.19C1400.92 421.002 1400.86 421.702 1400.75 422.29H1382.31C1382.39 424.922 1383.14 426.896 1384.54 428.212C1385.96 429.528 1387.7 430.186 1389.74 430.186C1391.59 430.186 1393.13 429.724 1394.36 428.8C1395.62 427.848 1396.39 426.588 1396.67 425.02H1400.75C1400.47 426.616 1399.84 428.044 1398.86 429.304C1397.91 430.564 1396.66 431.544 1395.12 432.244C1393.58 432.944 1391.84 433.294 1389.91 433.294C1387.7 433.294 1385.74 432.818 1384.03 431.866C1382.32 430.914 1380.98 429.556 1380 427.792C1379.05 426 1378.57 423.9 1378.57 421.492C1378.57 419.084 1379.05 416.984 1380 415.192C1380.98 413.4 1382.32 412.028 1384.03 411.076C1385.74 410.124 1387.7 409.648 1389.91 409.648C1392.15 409.648 1394.1 410.124 1395.75 411.076C1397.43 412.028 1398.7 413.302 1399.57 414.898C1400.47 416.494 1400.92 418.258 1400.92 420.19ZM1397.05 420.442C1397.14 418.734 1396.86 417.306 1396.21 416.158C1395.57 415.01 1394.69 414.156 1393.57 413.596C1392.45 413.036 1391.23 412.756 1389.91 412.756C1387.81 412.756 1386.05 413.414 1384.62 414.73C1383.19 416.018 1382.42 417.922 1382.31 420.442H1397.05ZM1416.37 409.648C1418.59 409.648 1420.56 410.124 1422.3 411.076C1424.06 412.028 1425.43 413.4 1426.41 415.192C1427.42 416.984 1427.92 419.084 1427.92 421.492C1427.92 423.9 1427.42 426 1426.41 427.792C1425.43 429.556 1424.06 430.914 1422.3 431.866C1420.56 432.818 1418.59 433.294 1416.37 433.294C1414.16 433.294 1412.17 432.818 1410.41 431.866C1408.67 430.914 1407.3 429.556 1406.29 427.792C1405.29 426 1404.78 423.9 1404.78 421.492C1404.78 419.084 1405.29 416.984 1406.29 415.192C1407.3 413.4 1408.67 412.028 1410.41 411.076C1412.17 410.124 1414.16 409.648 1416.37 409.648ZM1416.37 413.008C1415 413.008 1413.73 413.316 1412.55 413.932C1411.4 414.548 1410.47 415.5 1409.74 416.788C1409.04 418.048 1408.69 419.616 1408.69 421.492C1408.69 423.34 1409.04 424.908 1409.74 426.196C1410.47 427.456 1411.4 428.394 1412.55 429.01C1413.73 429.626 1415 429.934 1416.37 429.934C1417.75 429.934 1419.01 429.626 1420.15 429.01C1421.33 428.394 1422.27 427.456 1422.97 426.196C1423.7 424.908 1424.06 423.34 1424.06 421.492C1424.06 419.616 1423.7 418.048 1422.97 416.788C1422.27 415.5 1421.33 414.548 1420.15 413.932C1419.01 413.316 1417.75 413.008 1416.37 413.008ZM1445.63 409.648C1447.67 409.648 1449.49 410.124 1451.09 411.076C1452.69 412.028 1453.93 413.4 1454.83 415.192C1455.75 416.984 1456.21 419.084 1456.21 421.492C1456.21 423.9 1455.75 426 1454.83 427.792C1453.93 429.556 1452.69 430.914 1451.09 431.866C1449.49 432.818 1447.67 433.294 1445.63 433.294C1443.39 433.294 1441.49 432.734 1439.92 431.614C1438.38 430.466 1437.31 428.968 1436.73 427.12V443.92H1432.9V409.942H1436.73V415.822C1437.31 413.974 1438.38 412.49 1439.92 411.37C1441.49 410.222 1443.39 409.648 1445.63 409.648ZM1444.54 413.05C1443.05 413.05 1441.71 413.4 1440.51 414.1C1439.3 414.772 1438.36 415.752 1437.69 417.04C1437.02 418.328 1436.68 419.812 1436.68 421.492C1436.68 423.172 1437.02 424.656 1437.69 425.944C1438.36 427.204 1439.3 428.184 1440.51 428.884C1441.71 429.584 1443.05 429.934 1444.54 429.934C1446.92 429.934 1448.81 429.192 1450.21 427.708C1451.64 426.196 1452.35 424.124 1452.35 421.492C1452.35 418.86 1451.64 416.802 1450.21 415.318C1448.81 413.806 1446.92 413.05 1444.54 413.05ZM1465.03 401.92V433H1461.2V401.92H1465.03ZM1492.38 420.19C1492.38 421.002 1492.33 421.702 1492.21 422.29H1473.78C1473.86 424.922 1474.6 426.896 1476 428.212C1477.43 429.528 1479.17 430.186 1481.21 430.186C1483.06 430.186 1484.6 429.724 1485.83 428.8C1487.09 427.848 1487.86 426.588 1488.14 425.02H1492.21C1491.93 426.616 1491.3 428.044 1490.32 429.304C1489.37 430.564 1488.13 431.544 1486.59 432.244C1485.05 432.944 1483.31 433.294 1481.38 433.294C1479.17 433.294 1477.21 432.818 1475.5 431.866C1473.79 430.914 1472.45 429.556 1471.47 427.792C1470.51 426 1470.04 423.9 1470.04 421.492C1470.04 419.084 1470.51 416.984 1471.47 415.192C1472.45 413.4 1473.79 412.028 1475.5 411.076C1477.21 410.124 1479.17 409.648 1481.38 409.648C1483.62 409.648 1485.56 410.124 1487.22 411.076C1488.9 412.028 1490.17 413.302 1491.04 414.898C1491.93 416.494 1492.38 418.258 1492.38 420.19ZM1488.52 420.442C1488.6 418.734 1488.32 417.306 1487.68 416.158C1487.03 415.01 1486.15 414.156 1485.03 413.596C1483.91 413.036 1482.69 412.756 1481.38 412.756C1479.28 412.756 1477.51 413.414 1476.09 414.73C1474.66 416.018 1473.89 417.922 1473.78 420.442H1488.52ZM1517.21 409.648C1519.45 409.648 1521.34 410.208 1522.88 411.328C1524.45 412.448 1525.54 413.946 1526.15 415.822V401.92H1529.98V433H1526.15V427.12C1525.54 428.996 1524.45 430.494 1522.88 431.614C1521.34 432.734 1519.45 433.294 1517.21 433.294C1515.16 433.294 1513.34 432.818 1511.75 431.866C1510.15 430.914 1508.89 429.556 1507.97 427.792C1507.07 426 1506.62 423.9 1506.62 421.492C1506.62 419.084 1507.07 416.984 1507.97 415.192C1508.89 413.4 1510.15 412.028 1511.75 411.076C1513.34 410.124 1515.16 409.648 1517.21 409.648ZM1518.3 413.05C1515.95 413.05 1514.06 413.806 1512.63 415.318C1511.23 416.802 1510.53 418.86 1510.53 421.492C1510.53 424.124 1511.23 426.196 1512.63 427.708C1514.06 429.192 1515.95 429.934 1518.3 429.934C1519.81 429.934 1521.16 429.584 1522.33 428.884C1523.54 428.184 1524.47 427.204 1525.15 425.944C1525.82 424.656 1526.15 423.172 1526.15 421.492C1526.15 419.812 1525.82 418.328 1525.15 417.04C1524.47 415.752 1523.54 414.772 1522.33 414.1C1521.16 413.4 1519.81 413.05 1518.3 413.05ZM1535.39 403.18C1535.39 402.48 1535.62 401.92 1536.1 401.5C1536.58 401.052 1537.21 400.828 1537.99 400.828C1538.77 400.828 1539.4 401.052 1539.88 401.5C1540.36 401.92 1540.59 402.48 1540.59 403.18C1540.59 403.88 1540.36 404.454 1539.88 404.902C1539.4 405.322 1538.77 405.532 1537.99 405.532C1537.21 405.532 1536.58 405.322 1536.1 404.902C1535.62 404.454 1535.39 403.88 1535.39 403.18ZM1539.88 409.942V433H1536.06V409.942H1539.88ZM1555.47 409.648C1557.71 409.648 1559.6 410.208 1561.14 411.328C1562.71 412.448 1563.8 413.946 1564.42 415.822V409.942H1568.24V433H1564.42V427.12C1563.8 428.996 1562.71 430.494 1561.14 431.614C1559.6 432.734 1557.71 433.294 1555.47 433.294C1553.43 433.294 1551.61 432.818 1550.01 431.866C1548.42 430.914 1547.16 429.556 1546.23 427.792C1545.34 426 1544.89 423.9 1544.89 421.492C1544.89 419.084 1545.34 416.984 1546.23 415.192C1547.16 413.4 1548.42 412.028 1550.01 411.076C1551.61 410.124 1553.43 409.648 1555.47 409.648ZM1556.57 413.05C1554.21 413.05 1552.32 413.806 1550.9 415.318C1549.5 416.802 1548.8 418.86 1548.8 421.492C1548.8 424.124 1549.5 426.196 1550.9 427.708C1552.32 429.192 1554.21 429.934 1556.57 429.934C1558.08 429.934 1559.42 429.584 1560.6 428.884C1561.8 428.184 1562.74 427.204 1563.41 425.944C1564.08 424.656 1564.42 423.172 1564.42 421.492C1564.42 419.812 1564.08 418.328 1563.41 417.04C1562.74 415.752 1561.8 414.772 1560.6 414.1C1559.42 413.4 1558.08 413.05 1556.57 413.05ZM1583.78 409.648C1586.02 409.648 1587.91 410.208 1589.45 411.328C1591.01 412.448 1592.11 413.946 1592.72 415.822V409.942H1596.54V433.378C1596.54 435.506 1596.1 437.396 1595.2 439.048C1594.3 440.7 1593.04 441.988 1591.42 442.912C1589.8 443.836 1587.91 444.298 1585.75 444.298C1582.64 444.298 1580.11 443.542 1578.15 442.03C1576.19 440.546 1574.94 438.53 1574.41 435.982H1578.19C1578.64 437.522 1579.48 438.726 1580.71 439.594C1581.97 440.49 1583.58 440.938 1585.54 440.938C1587.61 440.938 1589.32 440.266 1590.66 438.922C1592.04 437.606 1592.72 435.758 1592.72 433.378V427.12C1592.11 428.996 1591.01 430.494 1589.45 431.614C1587.91 432.734 1586.02 433.294 1583.78 433.294C1581.73 433.294 1579.91 432.818 1578.32 431.866C1576.72 430.914 1575.46 429.556 1574.54 427.792C1573.64 426 1573.19 423.9 1573.19 421.492C1573.19 419.084 1573.64 416.984 1574.54 415.192C1575.46 413.4 1576.72 412.028 1578.32 411.076C1579.91 410.124 1581.73 409.648 1583.78 409.648ZM1584.87 413.05C1582.52 413.05 1580.63 413.806 1579.2 415.318C1577.8 416.802 1577.1 418.86 1577.1 421.492C1577.1 424.124 1577.8 426.196 1579.2 427.708C1580.63 429.192 1582.52 429.934 1584.87 429.934C1586.38 429.934 1587.72 429.584 1588.9 428.884C1590.1 428.184 1591.04 427.204 1591.71 425.944C1592.39 424.656 1592.72 423.172 1592.72 421.492C1592.72 419.812 1592.39 418.328 1591.71 417.04C1591.04 415.752 1590.1 414.772 1588.9 414.1C1587.72 413.4 1586.38 413.05 1584.87 413.05ZM1614.76 409.564C1617.45 409.564 1619.62 410.432 1621.27 412.168C1622.93 413.876 1623.75 416.354 1623.75 419.602V433H1619.93V419.938C1619.93 417.642 1619.34 415.878 1618.17 414.646C1616.99 413.414 1615.39 412.798 1613.38 412.798C1611.28 412.798 1609.6 413.484 1608.34 414.856C1607.08 416.2 1606.45 418.174 1606.45 420.778V433H1602.63V409.942H1606.45V415.402C1607.04 413.526 1608.07 412.084 1609.56 411.076C1611.07 410.068 1612.8 409.564 1614.76 409.564ZM1640.07 409.648C1642.28 409.648 1644.26 410.124 1645.99 411.076C1647.76 412.028 1649.13 413.4 1650.11 415.192C1651.12 416.984 1651.62 419.084 1651.62 421.492C1651.62 423.9 1651.12 426 1650.11 427.792C1649.13 429.556 1647.76 430.914 1645.99 431.866C1644.26 432.818 1642.28 433.294 1640.07 433.294C1637.86 433.294 1635.87 432.818 1634.11 431.866C1632.37 430.914 1631 429.556 1629.99 427.792C1628.98 426 1628.48 423.9 1628.48 421.492C1628.48 419.084 1628.98 416.984 1629.99 415.192C1631 413.4 1632.37 412.028 1634.11 411.076C1635.87 410.124 1637.86 409.648 1640.07 409.648ZM1640.07 413.008C1638.7 413.008 1637.43 413.316 1636.25 413.932C1635.1 414.548 1634.16 415.5 1633.44 416.788C1632.74 418.048 1632.39 419.616 1632.39 421.492C1632.39 423.34 1632.74 424.908 1633.44 426.196C1634.16 427.456 1635.1 428.394 1636.25 429.01C1637.43 429.626 1638.7 429.934 1640.07 429.934C1641.44 429.934 1642.7 429.626 1643.85 429.01C1645.03 428.394 1645.97 427.456 1646.67 426.196C1647.39 424.908 1647.76 423.34 1647.76 421.492C1647.76 419.616 1647.39 418.048 1646.67 416.788C1645.97 415.5 1645.03 414.548 1643.85 413.932C1642.7 413.316 1641.44 413.008 1640.07 413.008ZM1663.83 409.648C1666.43 409.648 1668.52 410.334 1670.09 411.706C1671.68 413.05 1672.65 414.87 1672.98 417.166H1669.33C1669.16 415.794 1668.59 414.674 1667.61 413.806C1666.66 412.91 1665.37 412.462 1663.74 412.462C1662.37 412.462 1661.29 412.798 1660.51 413.47C1659.75 414.114 1659.38 414.996 1659.38 416.116C1659.38 416.956 1659.63 417.642 1660.13 418.174C1660.66 418.678 1661.31 419.07 1662.06 419.35C1662.85 419.602 1663.91 419.882 1665.26 420.19C1666.96 420.582 1668.34 420.988 1669.37 421.408C1670.44 421.8 1671.33 422.444 1672.06 423.34C1672.82 424.236 1673.19 425.44 1673.19 426.952C1673.19 428.828 1672.48 430.354 1671.05 431.53C1669.65 432.706 1667.78 433.294 1665.42 433.294C1662.68 433.294 1660.44 432.636 1658.7 431.32C1656.97 430.004 1655.95 428.17 1655.64 425.818H1659.33C1659.47 427.218 1660.08 428.352 1661.14 429.22C1662.23 430.088 1663.66 430.522 1665.42 430.522C1666.74 430.522 1667.76 430.186 1668.49 429.514C1669.25 428.842 1669.62 427.96 1669.62 426.868C1669.62 425.972 1669.36 425.258 1668.83 424.726C1668.29 424.194 1667.64 423.788 1666.85 423.508C1666.07 423.228 1664.99 422.934 1663.62 422.626C1661.91 422.234 1660.54 421.842 1659.5 421.45C1658.49 421.058 1657.63 420.442 1656.9 419.602C1656.2 418.734 1655.85 417.572 1655.85 416.116C1655.85 414.184 1656.56 412.63 1657.99 411.454C1659.42 410.25 1661.36 409.648 1663.83 409.648ZM1699.51 420.19C1699.51 421.002 1699.45 421.702 1699.34 422.29H1680.9C1680.99 424.922 1681.73 426.896 1683.13 428.212C1684.56 429.528 1686.29 430.186 1688.34 430.186C1690.19 430.186 1691.73 429.724 1692.96 428.8C1694.22 427.848 1694.99 426.588 1695.27 425.02H1699.34C1699.06 426.616 1698.43 428.044 1697.45 429.304C1696.5 430.564 1695.25 431.544 1693.71 432.244C1692.17 432.944 1690.44 433.294 1688.51 433.294C1686.29 433.294 1684.33 432.818 1682.63 431.866C1680.92 430.914 1679.57 429.556 1678.59 427.792C1677.64 426 1677.17 423.9 1677.17 421.492C1677.17 419.084 1677.64 416.984 1678.59 415.192C1679.57 413.4 1680.92 412.028 1682.63 411.076C1684.33 410.124 1686.29 409.648 1688.51 409.648C1690.75 409.648 1692.69 410.124 1694.34 411.076C1696.02 412.028 1697.3 413.302 1698.17 414.898C1699.06 416.494 1699.51 418.258 1699.51 420.19ZM1695.65 420.442C1695.73 418.734 1695.45 417.306 1694.81 416.158C1694.16 415.01 1693.28 414.156 1692.16 413.596C1691.04 413.036 1689.82 412.756 1688.51 412.756C1686.41 412.756 1684.64 413.414 1683.21 414.73C1681.79 416.018 1681.02 417.922 1680.9 420.442H1695.65ZM1713.96 409.648C1716.2 409.648 1718.09 410.208 1719.63 411.328C1721.2 412.448 1722.29 413.946 1722.91 415.822V401.92H1726.73V433H1722.91V427.12C1722.29 428.996 1721.2 430.494 1719.63 431.614C1718.09 432.734 1716.2 433.294 1713.96 433.294C1711.92 433.294 1710.1 432.818 1708.5 431.866C1706.9 430.914 1705.64 429.556 1704.72 427.792C1703.82 426 1703.38 423.9 1703.38 421.492C1703.38 419.084 1703.82 416.984 1704.72 415.192C1705.64 413.4 1706.9 412.028 1708.5 411.076C1710.1 410.124 1711.92 409.648 1713.96 409.648ZM1715.05 413.05C1712.7 413.05 1710.81 413.806 1709.38 415.318C1707.98 416.802 1707.28 418.86 1707.28 421.492C1707.28 424.124 1707.98 426.196 1709.38 427.708C1710.81 429.192 1712.7 429.934 1715.05 429.934C1716.56 429.934 1717.91 429.584 1719.08 428.884C1720.29 428.184 1721.23 427.204 1721.9 425.944C1722.57 424.656 1722.91 423.172 1722.91 421.492C1722.91 419.812 1722.57 418.328 1721.9 417.04C1721.23 415.752 1720.29 414.772 1719.08 414.1C1717.91 413.4 1716.56 413.05 1715.05 413.05ZM1774.86 409.942L1768.22 433H1764.1L1757.76 414.226L1751.38 433H1747.22L1740.67 409.942H1744.53L1749.45 429.346L1755.83 409.942H1759.82L1766.25 429.304L1771.2 409.942H1774.86ZM1777.75 403.18C1777.75 402.48 1777.99 401.92 1778.46 401.5C1778.94 401.052 1779.57 400.828 1780.35 400.828C1781.14 400.828 1781.77 401.052 1782.24 401.5C1782.72 401.92 1782.96 402.48 1782.96 403.18C1782.96 403.88 1782.72 404.454 1782.24 404.902C1781.77 405.322 1781.14 405.532 1780.35 405.532C1779.57 405.532 1778.94 405.322 1778.46 404.902C1777.99 404.454 1777.75 403.88 1777.75 403.18ZM1782.24 409.942V433H1778.42V409.942H1782.24ZM1799.39 429.64V433H1796.53C1794.18 433 1792.42 432.44 1791.24 431.32C1790.09 430.2 1789.52 428.324 1789.52 425.692V413.26H1786.08V409.942H1789.52V404.188H1793.38V409.942H1799.35V413.26H1793.38V425.776C1793.38 427.26 1793.65 428.282 1794.18 428.842C1794.74 429.374 1795.69 429.64 1797.04 429.64H1799.39ZM1816.19 409.564C1818.88 409.564 1821.05 410.432 1822.7 412.168C1824.35 413.876 1825.18 416.354 1825.18 419.602V433H1821.36V419.938C1821.36 417.642 1820.77 415.878 1819.59 414.646C1818.42 413.414 1816.82 412.798 1814.81 412.798C1812.71 412.798 1811.03 413.484 1809.77 414.856C1808.51 416.2 1807.88 418.174 1807.88 420.778V433H1804.05V401.92H1807.88V415.402C1808.46 413.526 1809.5 412.084 1810.98 411.076C1812.5 410.068 1814.23 409.564 1816.19 409.564ZM1030.52 472.648C1032.76 472.648 1034.65 473.208 1036.19 474.328C1037.75 475.448 1038.85 476.946 1039.46 478.822V464.92H1043.28V496H1039.46V490.12C1038.85 491.996 1037.75 493.494 1036.19 494.614C1034.65 495.734 1032.76 496.294 1030.52 496.294C1028.47 496.294 1026.65 495.818 1025.06 494.866C1023.46 493.914 1022.2 492.556 1021.28 490.792C1020.38 489 1019.93 486.9 1019.93 484.492C1019.93 482.084 1020.38 479.984 1021.28 478.192C1022.2 476.4 1023.46 475.028 1025.06 474.076C1026.65 473.124 1028.47 472.648 1030.52 472.648ZM1031.61 476.05C1029.26 476.05 1027.37 476.806 1025.94 478.318C1024.54 479.802 1023.84 481.86 1023.84 484.492C1023.84 487.124 1024.54 489.196 1025.94 490.708C1027.37 492.192 1029.26 492.934 1031.61 492.934C1033.12 492.934 1034.46 492.584 1035.64 491.884C1036.84 491.184 1037.78 490.204 1038.45 488.944C1039.13 487.656 1039.46 486.172 1039.46 484.492C1039.46 482.812 1039.13 481.328 1038.45 480.04C1037.78 478.752 1036.84 477.772 1035.64 477.1C1034.46 476.4 1033.12 476.05 1031.61 476.05ZM1048.69 466.18C1048.69 465.48 1048.93 464.92 1049.41 464.5C1049.88 464.052 1050.51 463.828 1051.3 463.828C1052.08 463.828 1052.71 464.052 1053.19 464.5C1053.66 464.92 1053.9 465.48 1053.9 466.18C1053.9 466.88 1053.66 467.454 1053.19 467.902C1052.71 468.322 1052.08 468.532 1051.3 468.532C1050.51 468.532 1049.88 468.322 1049.41 467.902C1048.93 467.454 1048.69 466.88 1048.69 466.18ZM1053.19 472.942V496H1049.37V472.942H1053.19ZM1068.78 472.648C1071.02 472.648 1072.91 473.208 1074.45 474.328C1076.02 475.448 1077.11 476.946 1077.73 478.822V472.942H1081.55V496H1077.73V490.12C1077.11 491.996 1076.02 493.494 1074.45 494.614C1072.91 495.734 1071.02 496.294 1068.78 496.294C1066.74 496.294 1064.92 495.818 1063.32 494.866C1061.73 493.914 1060.47 492.556 1059.54 490.792C1058.65 489 1058.2 486.9 1058.2 484.492C1058.2 482.084 1058.65 479.984 1059.54 478.192C1060.47 476.4 1061.73 475.028 1063.32 474.076C1064.92 473.124 1066.74 472.648 1068.78 472.648ZM1069.88 476.05C1067.52 476.05 1065.63 476.806 1064.21 478.318C1062.81 479.802 1062.11 481.86 1062.11 484.492C1062.11 487.124 1062.81 489.196 1064.21 490.708C1065.63 492.192 1067.52 492.934 1069.88 492.934C1071.39 492.934 1072.73 492.584 1073.91 491.884C1075.11 491.184 1076.05 490.204 1076.72 488.944C1077.39 487.656 1077.73 486.172 1077.73 484.492C1077.73 482.812 1077.39 481.328 1076.72 480.04C1076.05 478.752 1075.11 477.772 1073.91 477.1C1072.73 476.4 1071.39 476.05 1069.88 476.05ZM1100.36 472.648C1102.4 472.648 1104.22 473.124 1105.82 474.076C1107.42 475.028 1108.66 476.4 1109.56 478.192C1110.48 479.984 1110.94 482.084 1110.94 484.492C1110.94 486.9 1110.48 489 1109.56 490.792C1108.66 492.556 1107.42 493.914 1105.82 494.866C1104.22 495.818 1102.4 496.294 1100.36 496.294C1098.12 496.294 1096.22 495.734 1094.65 494.614C1093.11 493.466 1092.04 491.968 1091.46 490.12V496H1087.63V464.92H1091.46V478.822C1092.04 476.974 1093.11 475.49 1094.65 474.37C1096.22 473.222 1098.12 472.648 1100.36 472.648ZM1099.27 476.05C1097.78 476.05 1096.44 476.4 1095.24 477.1C1094.03 477.772 1093.09 478.752 1092.42 480.04C1091.75 481.328 1091.41 482.812 1091.41 484.492C1091.41 486.172 1091.75 487.656 1092.42 488.944C1093.09 490.204 1094.03 491.184 1095.24 491.884C1096.44 492.584 1097.78 492.934 1099.27 492.934C1101.65 492.934 1103.54 492.192 1104.94 490.708C1106.37 489.196 1107.08 487.124 1107.08 484.492C1107.08 481.86 1106.37 479.802 1104.94 478.318C1103.54 476.806 1101.65 476.05 1099.27 476.05ZM1137.15 483.19C1137.15 484.002 1137.09 484.702 1136.98 485.29H1118.54C1118.62 487.922 1119.37 489.896 1120.77 491.212C1122.19 492.528 1123.93 493.186 1125.97 493.186C1127.82 493.186 1129.36 492.724 1130.59 491.8C1131.85 490.848 1132.62 489.588 1132.9 488.02H1136.98C1136.7 489.616 1136.07 491.044 1135.09 492.304C1134.14 493.564 1132.89 494.544 1131.35 495.244C1129.81 495.944 1128.07 496.294 1126.14 496.294C1123.93 496.294 1121.97 495.818 1120.26 494.866C1118.55 493.914 1117.21 492.556 1116.23 490.792C1115.28 489 1114.8 486.9 1114.8 484.492C1114.8 482.084 1115.28 479.984 1116.23 478.192C1117.21 476.4 1118.55 475.028 1120.26 474.076C1121.97 473.124 1123.93 472.648 1126.14 472.648C1128.38 472.648 1130.33 473.124 1131.98 474.076C1133.66 475.028 1134.93 476.302 1135.8 477.898C1136.7 479.494 1137.15 481.258 1137.15 483.19ZM1133.28 483.442C1133.37 481.734 1133.09 480.306 1132.44 479.158C1131.8 478.01 1130.92 477.156 1129.8 476.596C1128.68 476.036 1127.46 475.756 1126.14 475.756C1124.04 475.756 1122.28 476.414 1120.85 477.73C1119.42 479.018 1118.65 480.922 1118.54 483.442H1133.28ZM1153.15 492.64V496H1150.29C1147.94 496 1146.18 495.44 1145 494.32C1143.85 493.2 1143.28 491.324 1143.28 488.692V476.26H1139.83V472.942H1143.28V467.188H1147.14V472.942H1153.11V476.26H1147.14V488.776C1147.14 490.26 1147.41 491.282 1147.94 491.842C1148.5 492.374 1149.45 492.64 1150.8 492.64H1153.15ZM1179.02 483.19C1179.02 484.002 1178.97 484.702 1178.85 485.29H1160.42C1160.5 487.922 1161.24 489.896 1162.64 491.212C1164.07 492.528 1165.81 493.186 1167.85 493.186C1169.7 493.186 1171.24 492.724 1172.47 491.8C1173.73 490.848 1174.5 489.588 1174.78 488.02H1178.85C1178.57 489.616 1177.94 491.044 1176.96 492.304C1176.01 493.564 1174.77 494.544 1173.23 495.244C1171.69 495.944 1169.95 496.294 1168.02 496.294C1165.81 496.294 1163.85 495.818 1162.14 494.866C1160.43 493.914 1159.09 492.556 1158.11 490.792C1157.15 489 1156.68 486.9 1156.68 484.492C1156.68 482.084 1157.15 479.984 1158.11 478.192C1159.09 476.4 1160.43 475.028 1162.14 474.076C1163.85 473.124 1165.81 472.648 1168.02 472.648C1170.26 472.648 1172.2 473.124 1173.86 474.076C1175.54 475.028 1176.81 476.302 1177.68 477.898C1178.57 479.494 1179.02 481.258 1179.02 483.19ZM1175.16 483.442C1175.24 481.734 1174.96 480.306 1174.32 479.158C1173.67 478.01 1172.79 477.156 1171.67 476.596C1170.55 476.036 1169.33 475.756 1168.02 475.756C1165.92 475.756 1164.15 476.414 1162.73 477.73C1161.3 479.018 1160.53 480.922 1160.42 483.442H1175.16ZM1191.25 472.648C1193.85 472.648 1195.94 473.334 1197.5 474.706C1199.1 476.05 1200.07 477.87 1200.4 480.166H1196.75C1196.58 478.794 1196.01 477.674 1195.03 476.806C1194.07 475.91 1192.79 475.462 1191.16 475.462C1189.79 475.462 1188.71 475.798 1187.93 476.47C1187.17 477.114 1186.79 477.996 1186.79 479.116C1186.79 479.956 1187.05 480.642 1187.55 481.174C1188.08 481.678 1188.73 482.07 1189.48 482.35C1190.27 482.602 1191.33 482.882 1192.67 483.19C1194.38 483.582 1195.75 483.988 1196.79 484.408C1197.85 484.8 1198.75 485.444 1199.48 486.34C1200.23 487.236 1200.61 488.44 1200.61 489.952C1200.61 491.828 1199.9 493.354 1198.47 494.53C1197.07 495.706 1195.19 496.294 1192.84 496.294C1190.1 496.294 1187.86 495.636 1186.12 494.32C1184.39 493.004 1183.36 491.17 1183.06 488.818H1186.75C1186.89 490.218 1187.49 491.352 1188.56 492.22C1189.65 493.088 1191.08 493.522 1192.84 493.522C1194.16 493.522 1195.18 493.186 1195.91 492.514C1196.66 491.842 1197.04 490.96 1197.04 489.868C1197.04 488.972 1196.78 488.258 1196.24 487.726C1195.71 487.194 1195.05 486.788 1194.27 486.508C1193.49 486.228 1192.41 485.934 1191.04 485.626C1189.33 485.234 1187.96 484.842 1186.92 484.45C1185.91 484.058 1185.04 483.442 1184.32 482.602C1183.62 481.734 1183.27 480.572 1183.27 479.116C1183.27 477.184 1183.98 475.63 1185.41 474.454C1186.84 473.25 1188.78 472.648 1191.25 472.648ZM1215.42 466.18C1215.42 465.48 1215.66 464.92 1216.14 464.5C1216.61 464.052 1217.24 463.828 1218.03 463.828C1218.81 463.828 1219.44 464.052 1219.92 464.5C1220.39 464.92 1220.63 465.48 1220.63 466.18C1220.63 466.88 1220.39 467.454 1219.92 467.902C1219.44 468.322 1218.81 468.532 1218.03 468.532C1217.24 468.532 1216.61 468.322 1216.14 467.902C1215.66 467.454 1215.42 466.88 1215.42 466.18ZM1219.92 472.942V496H1216.1V472.942H1219.92ZM1238.2 472.564C1240.89 472.564 1243.06 473.432 1244.71 475.168C1246.36 476.876 1247.19 479.354 1247.19 482.602V496H1243.37V482.938C1243.37 480.642 1242.78 478.878 1241.6 477.646C1240.43 476.414 1238.83 475.798 1236.81 475.798C1234.71 475.798 1233.03 476.484 1231.77 477.856C1230.51 479.2 1229.88 481.174 1229.88 483.778V496H1226.06V472.942H1229.88V478.402C1230.47 476.526 1231.51 475.084 1232.99 474.076C1234.5 473.068 1236.24 472.564 1238.2 472.564ZM1263.26 472.648C1266.2 472.648 1268.63 473.432 1270.56 475C1272.5 476.568 1273.69 478.668 1274.13 481.3H1270.1C1269.82 479.648 1269.05 478.36 1267.79 477.436C1266.56 476.484 1265.02 476.008 1263.17 476.008C1261.83 476.008 1260.6 476.316 1259.48 476.932C1258.38 477.548 1257.5 478.5 1256.83 479.788C1256.16 481.048 1255.82 482.616 1255.82 484.492C1255.82 486.368 1256.16 487.95 1256.83 489.238C1257.5 490.498 1258.38 491.436 1259.48 492.052C1260.6 492.668 1261.83 492.976 1263.17 492.976C1265.02 492.976 1266.56 492.5 1267.79 491.548C1269.05 490.596 1269.82 489.294 1270.1 487.642H1274.13C1273.69 490.302 1272.5 492.416 1270.56 493.984C1268.63 495.524 1266.2 496.294 1263.26 496.294C1261.04 496.294 1259.08 495.818 1257.38 494.866C1255.67 493.914 1254.32 492.556 1253.34 490.792C1252.39 489 1251.92 486.9 1251.92 484.492C1251.92 482.084 1252.39 479.984 1253.34 478.192C1254.32 476.4 1255.67 475.028 1257.38 474.076C1259.08 473.124 1261.04 472.648 1263.26 472.648ZM1282.96 477.604C1283.71 476.008 1284.82 474.776 1286.28 473.908C1287.73 473.012 1289.47 472.564 1291.48 472.564V476.722H1290.31C1288.15 476.722 1286.39 477.282 1285.02 478.402C1283.64 479.494 1282.96 481.314 1282.96 483.862V496H1279.14V472.942H1282.96V477.604ZM1316.47 483.19C1316.47 484.002 1316.41 484.702 1316.3 485.29H1297.86C1297.94 487.922 1298.69 489.896 1300.09 491.212C1301.51 492.528 1303.25 493.186 1305.29 493.186C1307.14 493.186 1308.68 492.724 1309.91 491.8C1311.17 490.848 1311.94 489.588 1312.22 488.02H1316.3C1316.02 489.616 1315.39 491.044 1314.41 492.304C1313.46 493.564 1312.21 494.544 1310.67 495.244C1309.13 495.944 1307.39 496.294 1305.46 496.294C1303.25 496.294 1301.29 495.818 1299.58 494.866C1297.87 493.914 1296.53 492.556 1295.55 490.792C1294.6 489 1294.12 486.9 1294.12 484.492C1294.12 482.084 1294.6 479.984 1295.55 478.192C1296.53 476.4 1297.87 475.028 1299.58 474.076C1301.29 473.124 1303.25 472.648 1305.46 472.648C1307.7 472.648 1309.65 473.124 1311.3 474.076C1312.98 475.028 1314.25 476.302 1315.12 477.898C1316.02 479.494 1316.47 481.258 1316.47 483.19ZM1312.6 483.442C1312.69 481.734 1312.41 480.306 1311.76 479.158C1311.12 478.01 1310.24 477.156 1309.12 476.596C1308 476.036 1306.78 475.756 1305.46 475.756C1303.36 475.756 1301.6 476.414 1300.17 477.73C1298.74 479.018 1297.97 480.922 1297.86 483.442H1312.6ZM1330.91 472.648C1333.15 472.648 1335.04 473.208 1336.58 474.328C1338.15 475.448 1339.24 476.946 1339.86 478.822V472.942H1343.68V496H1339.86V490.12C1339.24 491.996 1338.15 493.494 1336.58 494.614C1335.04 495.734 1333.15 496.294 1330.91 496.294C1328.87 496.294 1327.05 495.818 1325.45 494.866C1323.86 493.914 1322.6 492.556 1321.67 490.792C1320.78 489 1320.33 486.9 1320.33 484.492C1320.33 482.084 1320.78 479.984 1321.67 478.192C1322.6 476.4 1323.86 475.028 1325.45 474.076C1327.05 473.124 1328.87 472.648 1330.91 472.648ZM1332.01 476.05C1329.65 476.05 1327.76 476.806 1326.34 478.318C1324.94 479.802 1324.24 481.86 1324.24 484.492C1324.24 487.124 1324.94 489.196 1326.34 490.708C1327.76 492.192 1329.65 492.934 1332.01 492.934C1333.52 492.934 1334.86 492.584 1336.04 491.884C1337.24 491.184 1338.18 490.204 1338.85 488.944C1339.52 487.656 1339.86 486.172 1339.86 484.492C1339.86 482.812 1339.52 481.328 1338.85 480.04C1338.18 478.752 1337.24 477.772 1336.04 477.1C1334.86 476.4 1333.52 476.05 1332.01 476.05ZM1356.99 472.648C1359.59 472.648 1361.68 473.334 1363.25 474.706C1364.84 476.05 1365.81 477.87 1366.15 480.166H1362.49C1362.32 478.794 1361.75 477.674 1360.77 476.806C1359.82 475.91 1358.53 475.462 1356.91 475.462C1355.53 475.462 1354.46 475.798 1353.67 476.47C1352.92 477.114 1352.54 477.996 1352.54 479.116C1352.54 479.956 1352.79 480.642 1353.29 481.174C1353.83 481.678 1354.47 482.07 1355.23 482.35C1356.01 482.602 1357.07 482.882 1358.42 483.19C1360.13 483.582 1361.5 483.988 1362.53 484.408C1363.6 484.8 1364.49 485.444 1365.22 486.34C1365.98 487.236 1366.36 488.44 1366.36 489.952C1366.36 491.828 1365.64 493.354 1364.21 494.53C1362.81 495.706 1360.94 496.294 1358.59 496.294C1355.84 496.294 1353.6 495.636 1351.87 494.32C1350.13 493.004 1349.11 491.17 1348.8 488.818H1352.5C1352.64 490.218 1353.24 491.352 1354.3 492.22C1355.39 493.088 1356.82 493.522 1358.59 493.522C1359.9 493.522 1360.92 493.186 1361.65 492.514C1362.41 491.842 1362.79 490.96 1362.79 489.868C1362.79 488.972 1362.52 488.258 1361.99 487.726C1361.46 487.194 1360.8 486.788 1360.01 486.508C1359.23 486.228 1358.15 485.934 1356.78 485.626C1355.07 485.234 1353.7 484.842 1352.66 484.45C1351.66 484.058 1350.79 483.442 1350.06 482.602C1349.36 481.734 1349.01 480.572 1349.01 479.116C1349.01 477.184 1349.72 475.63 1351.15 474.454C1352.58 473.25 1354.53 472.648 1356.99 472.648ZM1392.67 483.19C1392.67 484.002 1392.62 484.702 1392.5 485.29H1374.07C1374.15 487.922 1374.89 489.896 1376.29 491.212C1377.72 492.528 1379.46 493.186 1381.5 493.186C1383.35 493.186 1384.89 492.724 1386.12 491.8C1387.38 490.848 1388.15 489.588 1388.43 488.02H1392.5C1392.22 489.616 1391.59 491.044 1390.61 492.304C1389.66 493.564 1388.42 494.544 1386.88 495.244C1385.34 495.944 1383.6 496.294 1381.67 496.294C1379.46 496.294 1377.5 495.818 1375.79 494.866C1374.08 493.914 1372.74 492.556 1371.76 490.792C1370.8 489 1370.33 486.9 1370.33 484.492C1370.33 482.084 1370.8 479.984 1371.76 478.192C1372.74 476.4 1374.08 475.028 1375.79 474.076C1377.5 473.124 1379.46 472.648 1381.67 472.648C1383.91 472.648 1385.85 473.124 1387.51 474.076C1389.19 475.028 1390.46 476.302 1391.33 477.898C1392.22 479.494 1392.67 481.258 1392.67 483.19ZM1388.81 483.442C1388.89 481.734 1388.61 480.306 1387.97 479.158C1387.32 478.01 1386.44 477.156 1385.32 476.596C1384.2 476.036 1382.98 475.756 1381.67 475.756C1379.57 475.756 1377.8 476.414 1376.38 477.73C1374.95 479.018 1374.18 480.922 1374.07 483.442H1388.81ZM1407.12 472.648C1409.36 472.648 1411.25 473.208 1412.79 474.328C1414.36 475.448 1415.45 476.946 1416.07 478.822V464.92H1419.89V496H1416.07V490.12C1415.45 491.996 1414.36 493.494 1412.79 494.614C1411.25 495.734 1409.36 496.294 1407.12 496.294C1405.08 496.294 1403.26 495.818 1401.66 494.866C1400.07 493.914 1398.81 492.556 1397.88 490.792C1396.99 489 1396.54 486.9 1396.54 484.492C1396.54 482.084 1396.99 479.984 1397.88 478.192C1398.81 476.4 1400.07 475.028 1401.66 474.076C1403.26 473.124 1405.08 472.648 1407.12 472.648ZM1408.21 476.05C1405.86 476.05 1403.97 476.806 1402.54 478.318C1401.14 479.802 1400.44 481.86 1400.44 484.492C1400.44 487.124 1401.14 489.196 1402.54 490.708C1403.97 492.192 1405.86 492.934 1408.21 492.934C1409.73 492.934 1411.07 492.584 1412.25 491.884C1413.45 491.184 1414.39 490.204 1415.06 488.944C1415.73 487.656 1416.07 486.172 1416.07 484.492C1416.07 482.812 1415.73 481.328 1415.06 480.04C1414.39 478.752 1413.45 477.772 1412.25 477.1C1411.07 476.4 1409.73 476.05 1408.21 476.05ZM1435.68 466.18C1435.68 465.48 1435.92 464.92 1436.39 464.5C1436.87 464.052 1437.5 463.828 1438.28 463.828C1439.07 463.828 1439.7 464.052 1440.17 464.5C1440.65 464.92 1440.89 465.48 1440.89 466.18C1440.89 466.88 1440.65 467.454 1440.17 467.902C1439.7 468.322 1439.07 468.532 1438.28 468.532C1437.5 468.532 1436.87 468.322 1436.39 467.902C1435.92 467.454 1435.68 466.88 1435.68 466.18ZM1440.17 472.942V496H1436.35V472.942H1440.17ZM1458.45 472.564C1461.14 472.564 1463.31 473.432 1464.96 475.168C1466.62 476.876 1467.44 479.354 1467.44 482.602V496H1463.62V482.938C1463.62 480.642 1463.03 478.878 1461.86 477.646C1460.68 476.414 1459.08 475.798 1457.07 475.798C1454.97 475.798 1453.29 476.484 1452.03 477.856C1450.77 479.2 1450.14 481.174 1450.14 483.778V496H1446.32V472.942H1450.14V478.402C1450.73 476.526 1451.76 475.084 1453.25 474.076C1454.76 473.068 1456.49 472.564 1458.45 472.564ZM1493.13 472.648C1495.37 472.648 1497.26 473.208 1498.8 474.328C1500.37 475.448 1501.46 476.946 1502.08 478.822V472.942H1505.9V496H1502.08V490.12C1501.46 491.996 1500.37 493.494 1498.8 494.614C1497.26 495.734 1495.37 496.294 1493.13 496.294C1491.09 496.294 1489.27 495.818 1487.67 494.866C1486.08 493.914 1484.82 492.556 1483.89 490.792C1483 489 1482.55 486.9 1482.55 484.492C1482.55 482.084 1483 479.984 1483.89 478.192C1484.82 476.4 1486.08 475.028 1487.67 474.076C1489.27 473.124 1491.09 472.648 1493.13 472.648ZM1494.22 476.05C1491.87 476.05 1489.98 476.806 1488.55 478.318C1487.15 479.802 1486.45 481.86 1486.45 484.492C1486.45 487.124 1487.15 489.196 1488.55 490.708C1489.98 492.192 1491.87 492.934 1494.22 492.934C1495.74 492.934 1497.08 492.584 1498.26 491.884C1499.46 491.184 1500.4 490.204 1501.07 488.944C1501.74 487.656 1502.08 486.172 1502.08 484.492C1502.08 482.812 1501.74 481.328 1501.07 480.04C1500.4 478.752 1499.46 477.772 1498.26 477.1C1497.08 476.4 1495.74 476.05 1494.22 476.05ZM1515.8 464.92V496H1511.98V464.92H1515.8ZM1525.77 464.92V496H1521.95V464.92H1525.77ZM1551.74 472.648C1553.98 472.648 1555.87 473.208 1557.41 474.328C1558.98 475.448 1560.07 476.946 1560.69 478.822V472.942H1564.51V496H1560.69V490.12C1560.07 491.996 1558.98 493.494 1557.41 494.614C1555.87 495.734 1553.98 496.294 1551.74 496.294C1549.7 496.294 1547.88 495.818 1546.28 494.866C1544.69 493.914 1543.43 492.556 1542.5 490.792C1541.61 489 1541.16 486.9 1541.16 484.492C1541.16 482.084 1541.61 479.984 1542.5 478.192C1543.43 476.4 1544.69 475.028 1546.28 474.076C1547.88 473.124 1549.7 472.648 1551.74 472.648ZM1552.83 476.05C1550.48 476.05 1548.59 476.806 1547.16 478.318C1545.76 479.802 1545.06 481.86 1545.06 484.492C1545.06 487.124 1545.76 489.196 1547.16 490.708C1548.59 492.192 1550.48 492.934 1552.83 492.934C1554.35 492.934 1555.69 492.584 1556.87 491.884C1558.07 491.184 1559.01 490.204 1559.68 488.944C1560.35 487.656 1560.69 486.172 1560.69 484.492C1560.69 482.812 1560.35 481.328 1559.68 480.04C1559.01 478.752 1558.07 477.772 1556.87 477.1C1555.69 476.4 1554.35 476.05 1552.83 476.05ZM1580.04 472.648C1582.28 472.648 1584.17 473.208 1585.71 474.328C1587.28 475.448 1588.37 476.946 1588.99 478.822V472.942H1592.81V496.378C1592.81 498.506 1592.36 500.396 1591.47 502.048C1590.57 503.7 1589.31 504.988 1587.69 505.912C1586.06 506.836 1584.17 507.298 1582.02 507.298C1578.91 507.298 1576.38 506.542 1574.42 505.03C1572.46 503.546 1571.21 501.53 1570.68 498.982H1574.46C1574.91 500.522 1575.75 501.726 1576.98 502.594C1578.24 503.49 1579.85 503.938 1581.81 503.938C1583.88 503.938 1585.59 503.266 1586.93 501.922C1588.3 500.606 1588.99 498.758 1588.99 496.378V490.12C1588.37 491.996 1587.28 493.494 1585.71 494.614C1584.17 495.734 1582.28 496.294 1580.04 496.294C1578 496.294 1576.18 495.818 1574.58 494.866C1572.99 493.914 1571.73 492.556 1570.8 490.792C1569.91 489 1569.46 486.9 1569.46 484.492C1569.46 482.084 1569.91 479.984 1570.8 478.192C1571.73 476.4 1572.99 475.028 1574.58 474.076C1576.18 473.124 1578 472.648 1580.04 472.648ZM1581.14 476.05C1578.78 476.05 1576.89 476.806 1575.47 478.318C1574.07 479.802 1573.37 481.86 1573.37 484.492C1573.37 487.124 1574.07 489.196 1575.47 490.708C1576.89 492.192 1578.78 492.934 1581.14 492.934C1582.65 492.934 1583.99 492.584 1585.17 491.884C1586.37 491.184 1587.31 490.204 1587.98 488.944C1588.65 487.656 1588.99 486.172 1588.99 484.492C1588.99 482.812 1588.65 481.328 1587.98 480.04C1587.31 478.752 1586.37 477.772 1585.17 477.1C1583.99 476.4 1582.65 476.05 1581.14 476.05ZM1620.1 483.19C1620.1 484.002 1620.05 484.702 1619.94 485.29H1601.5C1601.58 487.922 1602.32 489.896 1603.72 491.212C1605.15 492.528 1606.89 493.186 1608.93 493.186C1610.78 493.186 1612.32 492.724 1613.55 491.8C1614.81 490.848 1615.58 489.588 1615.86 488.02H1619.94C1619.66 489.616 1619.03 491.044 1618.05 492.304C1617.09 493.564 1615.85 494.544 1614.31 495.244C1612.77 495.944 1611.03 496.294 1609.1 496.294C1606.89 496.294 1604.93 495.818 1603.22 494.866C1601.51 493.914 1600.17 492.556 1599.19 490.792C1598.24 489 1597.76 486.9 1597.76 484.492C1597.76 482.084 1598.24 479.984 1599.19 478.192C1600.17 476.4 1601.51 475.028 1603.22 474.076C1604.93 473.124 1606.89 472.648 1609.1 472.648C1611.34 472.648 1613.29 473.124 1614.94 474.076C1616.62 475.028 1617.89 476.302 1618.76 477.898C1619.66 479.494 1620.1 481.258 1620.1 483.19ZM1616.24 483.442C1616.32 481.734 1616.04 480.306 1615.4 479.158C1614.76 478.01 1613.87 477.156 1612.75 476.596C1611.63 476.036 1610.42 475.756 1609.1 475.756C1607 475.756 1605.24 476.414 1603.81 477.73C1602.38 479.018 1601.61 480.922 1601.5 483.442H1616.24ZM1644.93 472.648C1647.17 472.648 1649.06 473.208 1650.6 474.328C1652.17 475.448 1653.26 476.946 1653.88 478.822V472.942H1657.7V496.378C1657.7 498.506 1657.25 500.396 1656.35 502.048C1655.46 503.7 1654.2 504.988 1652.57 505.912C1650.95 506.836 1649.06 507.298 1646.9 507.298C1643.8 507.298 1641.26 506.542 1639.3 505.03C1637.34 503.546 1636.1 501.53 1635.56 498.982H1639.34C1639.79 500.522 1640.63 501.726 1641.86 502.594C1643.12 503.49 1644.73 503.938 1646.69 503.938C1648.77 503.938 1650.47 503.266 1651.82 501.922C1653.19 500.606 1653.88 498.758 1653.88 496.378V490.12C1653.26 491.996 1652.17 493.494 1650.6 494.614C1649.06 495.734 1647.17 496.294 1644.93 496.294C1642.89 496.294 1641.07 495.818 1639.47 494.866C1637.87 493.914 1636.61 492.556 1635.69 490.792C1634.79 489 1634.35 486.9 1634.35 484.492C1634.35 482.084 1634.79 479.984 1635.69 478.192C1636.61 476.4 1637.87 475.028 1639.47 474.076C1641.07 473.124 1642.89 472.648 1644.93 472.648ZM1646.02 476.05C1643.67 476.05 1641.78 476.806 1640.35 478.318C1638.95 479.802 1638.25 481.86 1638.25 484.492C1638.25 487.124 1638.95 489.196 1640.35 490.708C1641.78 492.192 1643.67 492.934 1646.02 492.934C1647.53 492.934 1648.88 492.584 1650.05 491.884C1651.26 491.184 1652.2 490.204 1652.87 488.944C1653.54 487.656 1653.88 486.172 1653.88 484.492C1653.88 482.812 1653.54 481.328 1652.87 480.04C1652.2 478.752 1651.26 477.772 1650.05 477.1C1648.88 476.4 1647.53 476.05 1646.02 476.05ZM1667.6 477.604C1668.36 476.008 1669.46 474.776 1670.92 473.908C1672.38 473.012 1674.11 472.564 1676.13 472.564V476.722H1674.95C1672.8 476.722 1671.03 477.282 1669.66 478.402C1668.29 479.494 1667.6 481.314 1667.6 483.862V496H1663.78V472.942H1667.6V477.604ZM1690.36 472.648C1692.57 472.648 1694.54 473.124 1696.28 474.076C1698.04 475.028 1699.42 476.4 1700.4 478.192C1701.4 479.984 1701.91 482.084 1701.91 484.492C1701.91 486.9 1701.4 489 1700.4 490.792C1699.42 492.556 1698.04 493.914 1696.28 494.866C1694.54 495.818 1692.57 496.294 1690.36 496.294C1688.15 496.294 1686.16 495.818 1684.39 494.866C1682.66 493.914 1681.29 492.556 1680.28 490.792C1679.27 489 1678.77 486.9 1678.77 484.492C1678.77 482.084 1679.27 479.984 1680.28 478.192C1681.29 476.4 1682.66 475.028 1684.39 474.076C1686.16 473.124 1688.15 472.648 1690.36 472.648ZM1690.36 476.008C1688.99 476.008 1687.71 476.316 1686.54 476.932C1685.39 477.548 1684.45 478.5 1683.72 479.788C1683.02 481.048 1682.67 482.616 1682.67 484.492C1682.67 486.34 1683.02 487.908 1683.72 489.196C1684.45 490.456 1685.39 491.394 1686.54 492.01C1687.71 492.626 1688.99 492.934 1690.36 492.934C1691.73 492.934 1692.99 492.626 1694.14 492.01C1695.31 491.394 1696.25 490.456 1696.95 489.196C1697.68 487.908 1698.04 486.34 1698.04 484.492C1698.04 482.616 1697.68 481.048 1696.95 479.788C1696.25 478.5 1695.31 477.548 1694.14 476.932C1692.99 476.316 1691.73 476.008 1690.36 476.008ZM1727.38 472.942V496H1723.56V490.582C1722.97 492.458 1721.92 493.9 1720.41 494.908C1718.93 495.888 1717.19 496.378 1715.2 496.378C1712.54 496.378 1710.39 495.524 1708.74 493.816C1707.08 492.08 1706.26 489.602 1706.26 486.382V472.942H1710.08V486.004C1710.08 488.3 1710.67 490.078 1711.84 491.338C1713.02 492.57 1714.62 493.186 1716.63 493.186C1718.73 493.186 1720.41 492.514 1721.67 491.17C1722.93 489.798 1723.56 487.81 1723.56 485.206V472.942H1727.38ZM1746.23 472.648C1748.28 472.648 1750.1 473.124 1751.69 474.076C1753.29 475.028 1754.54 476.4 1755.43 478.192C1756.36 479.984 1756.82 482.084 1756.82 484.492C1756.82 486.9 1756.36 489 1755.43 490.792C1754.54 492.556 1753.29 493.914 1751.69 494.866C1750.1 495.818 1748.28 496.294 1746.23 496.294C1743.99 496.294 1742.09 495.734 1740.52 494.614C1738.98 493.466 1737.92 491.968 1737.33 490.12V506.92H1733.51V472.942H1737.33V478.822C1737.92 476.974 1738.98 475.49 1740.52 474.37C1742.09 473.222 1743.99 472.648 1746.23 472.648ZM1745.14 476.05C1743.66 476.05 1742.31 476.4 1741.11 477.1C1739.91 477.772 1738.97 478.752 1738.3 480.04C1737.62 481.328 1737.29 482.812 1737.29 484.492C1737.29 486.172 1737.62 487.656 1738.3 488.944C1738.97 490.204 1739.91 491.184 1741.11 491.884C1742.31 492.584 1743.66 492.934 1745.14 492.934C1747.52 492.934 1749.41 492.192 1750.81 490.708C1752.24 489.196 1752.95 487.124 1752.95 484.492C1752.95 481.86 1752.24 479.802 1750.81 478.318C1749.41 476.806 1747.52 476.05 1745.14 476.05ZM1769.03 472.648C1771.64 472.648 1773.72 473.334 1775.29 474.706C1776.89 476.05 1777.85 477.87 1778.19 480.166H1774.53C1774.37 478.794 1773.79 477.674 1772.81 476.806C1771.86 475.91 1770.57 475.462 1768.95 475.462C1767.58 475.462 1766.5 475.798 1765.71 476.47C1764.96 477.114 1764.58 477.996 1764.58 479.116C1764.58 479.956 1764.83 480.642 1765.34 481.174C1765.87 481.678 1766.51 482.07 1767.27 482.35C1768.05 482.602 1769.12 482.882 1770.46 483.19C1772.17 483.582 1773.54 483.988 1774.58 484.408C1775.64 484.8 1776.54 485.444 1777.26 486.34C1778.02 487.236 1778.4 488.44 1778.4 489.952C1778.4 491.828 1777.68 493.354 1776.26 494.53C1774.86 495.706 1772.98 496.294 1770.63 496.294C1767.88 496.294 1765.64 495.636 1763.91 494.32C1762.17 493.004 1761.15 491.17 1760.84 488.818H1764.54C1764.68 490.218 1765.28 491.352 1766.34 492.22C1767.44 493.088 1768.86 493.522 1770.63 493.522C1771.94 493.522 1772.97 493.186 1773.69 492.514C1774.45 491.842 1774.83 490.96 1774.83 489.868C1774.83 488.972 1774.56 488.258 1774.03 487.726C1773.5 487.194 1772.84 486.788 1772.06 486.508C1771.27 486.228 1770.19 485.934 1768.82 485.626C1767.11 485.234 1765.74 484.842 1764.71 484.45C1763.7 484.058 1762.83 483.442 1762.1 482.602C1761.4 481.734 1761.05 480.572 1761.05 479.116C1761.05 477.184 1761.77 475.63 1763.19 474.454C1764.62 473.25 1766.57 472.648 1769.03 472.648Z" fill="white"/>
<path d="M113.85 159.115V198H104.39V181.775H89.65V198H80.245V159.115H89.65V174.185H104.39V159.115H113.85ZM134.668 166.925C137.712 166.925 140.425 167.567 142.808 168.85C145.228 170.097 147.117 171.912 148.473 174.295C149.867 176.678 150.563 179.465 150.563 182.655C150.563 185.845 149.867 188.632 148.473 191.015C147.117 193.398 145.228 195.232 142.808 196.515C140.425 197.762 137.712 198.385 134.668 198.385C131.625 198.385 128.893 197.762 126.473 196.515C124.053 195.232 122.147 193.398 120.753 191.015C119.397 188.632 118.718 185.845 118.718 182.655C118.718 179.465 119.397 176.678 120.753 174.295C122.147 171.912 124.053 170.097 126.473 168.85C128.893 167.567 131.625 166.925 134.668 166.925ZM134.668 175.065C132.872 175.065 131.35 175.725 130.103 177.045C128.893 178.328 128.288 180.198 128.288 182.655C128.288 185.112 128.893 186.982 130.103 188.265C131.35 189.548 132.872 190.19 134.668 190.19C136.465 190.19 137.968 189.548 139.178 188.265C140.388 186.982 140.993 185.112 140.993 182.655C140.993 180.198 140.388 178.328 139.178 177.045C137.968 175.725 136.465 175.065 134.668 175.065ZM200.32 167.31L192.455 198H181.95L176.395 177.43L170.785 198H160.28L152.415 167.31H161.82L165.89 189.42L171.61 167.31H181.62L187.505 189.475L191.575 167.31H200.32ZM228.597 166.925C232.557 166.925 235.876 168.025 238.552 170.225C241.229 172.388 242.916 175.377 243.612 179.19H233.657C233.364 177.87 232.759 176.843 231.842 176.11C230.926 175.377 229.771 175.01 228.377 175.01C226.727 175.01 225.371 175.67 224.307 176.99C223.244 178.273 222.712 180.162 222.712 182.655C222.712 185.148 223.244 187.055 224.307 188.375C225.371 189.658 226.727 190.3 228.377 190.3C229.771 190.3 230.926 189.933 231.842 189.2C232.759 188.467 233.364 187.44 233.657 186.12H243.612C242.916 189.933 241.229 192.94 238.552 195.14C235.876 197.303 232.557 198.385 228.597 198.385C225.591 198.385 222.914 197.762 220.567 196.515C218.257 195.232 216.442 193.398 215.122 191.015C213.802 188.632 213.142 185.845 213.142 182.655C213.142 179.428 213.784 176.642 215.067 174.295C216.387 171.912 218.221 170.097 220.567 168.85C222.914 167.567 225.591 166.925 228.597 166.925ZM262.876 166.925C265.92 166.925 268.633 167.567 271.016 168.85C273.436 170.097 275.325 171.912 276.681 174.295C278.075 176.678 278.771 179.465 278.771 182.655C278.771 185.845 278.075 188.632 276.681 191.015C275.325 193.398 273.436 195.232 271.016 196.515C268.633 197.762 265.92 198.385 262.876 198.385C259.833 198.385 257.101 197.762 254.681 196.515C252.261 195.232 250.355 193.398 248.961 191.015C247.605 188.632 246.926 185.845 246.926 182.655C246.926 179.465 247.605 176.678 248.961 174.295C250.355 171.912 252.261 170.097 254.681 168.85C257.101 167.567 259.833 166.925 262.876 166.925ZM262.876 175.065C261.08 175.065 259.558 175.725 258.311 177.045C257.101 178.328 256.496 180.198 256.496 182.655C256.496 185.112 257.101 186.982 258.311 188.265C259.558 189.548 261.08 190.19 262.876 190.19C264.673 190.19 266.176 189.548 267.386 188.265C268.596 186.982 269.201 185.112 269.201 182.655C269.201 180.198 268.596 178.328 267.386 177.045C266.176 175.725 264.673 175.065 262.876 175.065ZM323.413 166.98C327.19 166.98 330.16 168.153 332.323 170.5C334.487 172.81 335.568 176.037 335.568 180.18V198H326.218V181.28C326.218 179.337 325.687 177.833 324.623 176.77C323.597 175.67 322.185 175.12 320.388 175.12C318.518 175.12 317.033 175.707 315.933 176.88C314.87 178.017 314.338 179.63 314.338 181.72V198H304.933V181.28C304.933 179.337 304.42 177.833 303.393 176.77C302.367 175.67 300.955 175.12 299.158 175.12C297.288 175.12 295.803 175.688 294.703 176.825C293.603 177.962 293.053 179.593 293.053 181.72V198H283.648V167.31H293.053V172.535C293.86 170.812 295.088 169.455 296.738 168.465C298.425 167.475 300.387 166.98 302.623 166.98C304.97 166.98 307.042 167.53 308.838 168.63C310.635 169.693 311.992 171.233 312.908 173.25C313.972 171.343 315.42 169.822 317.253 168.685C319.123 167.548 321.177 166.98 323.413 166.98ZM381.582 166.98C385.359 166.98 388.329 168.153 390.492 170.5C392.656 172.81 393.737 176.037 393.737 180.18V198H384.387V181.28C384.387 179.337 383.856 177.833 382.792 176.77C381.766 175.67 380.354 175.12 378.557 175.12C376.687 175.12 375.202 175.707 374.102 176.88C373.039 178.017 372.507 179.63 372.507 181.72V198H363.102V181.28C363.102 179.337 362.589 177.833 361.562 176.77C360.536 175.67 359.124 175.12 357.327 175.12C355.457 175.12 353.972 175.688 352.872 176.825C351.772 177.962 351.222 179.593 351.222 181.72V198H341.817V167.31H351.222V172.535C352.029 170.812 353.257 169.455 354.907 168.465C356.594 167.475 358.556 166.98 360.792 166.98C363.139 166.98 365.211 167.53 367.007 168.63C368.804 169.693 370.161 171.233 371.077 173.25C372.141 171.343 373.589 169.822 375.422 168.685C377.292 167.548 379.346 166.98 381.582 166.98ZM414.341 166.925C417.385 166.925 420.098 167.567 422.481 168.85C424.901 170.097 426.79 171.912 428.146 174.295C429.54 176.678 430.236 179.465 430.236 182.655C430.236 185.845 429.54 188.632 428.146 191.015C426.79 193.398 424.901 195.232 422.481 196.515C420.098 197.762 417.385 198.385 414.341 198.385C411.298 198.385 408.566 197.762 406.146 196.515C403.726 195.232 401.82 193.398 400.426 191.015C399.07 188.632 398.391 185.845 398.391 182.655C398.391 179.465 399.07 176.678 400.426 174.295C401.82 171.912 403.726 170.097 406.146 168.85C408.566 167.567 411.298 166.925 414.341 166.925ZM414.341 175.065C412.545 175.065 411.023 175.725 409.776 177.045C408.566 178.328 407.961 180.198 407.961 182.655C407.961 185.112 408.566 186.982 409.776 188.265C411.023 189.548 412.545 190.19 414.341 190.19C416.138 190.19 417.641 189.548 418.851 188.265C420.061 186.982 420.666 185.112 420.666 182.655C420.666 180.198 420.061 178.328 418.851 177.045C417.641 175.725 416.138 175.065 414.341 175.065ZM454.583 166.98C458.103 166.98 460.89 168.153 462.943 170.5C465.033 172.847 466.078 176.073 466.078 180.18V198H456.673V181.28C456.673 179.227 456.123 177.632 455.023 176.495C453.96 175.322 452.53 174.735 450.733 174.735C448.826 174.735 447.305 175.34 446.168 176.55C445.068 177.76 444.518 179.483 444.518 181.72V198H435.113V167.31H444.518V172.92C445.398 171.087 446.7 169.638 448.423 168.575C450.183 167.512 452.236 166.98 454.583 166.98ZM482.412 158.675C482.412 157.245 482.925 156.072 483.952 155.155C484.979 154.202 486.335 153.725 488.022 153.725C489.709 153.725 491.065 154.202 492.092 155.155C493.119 156.072 493.632 157.245 493.632 158.675C493.632 160.068 493.119 161.242 492.092 162.195C491.065 163.112 489.709 163.57 488.022 163.57C486.335 163.57 484.979 163.112 483.952 162.195C482.925 161.242 482.412 160.068 482.412 158.675ZM492.697 167.31V198H483.292V167.31H492.697ZM510.355 166.925C514.242 166.925 517.34 167.897 519.65 169.84C521.997 171.783 523.464 174.35 524.05 177.54H515.25C514.994 176.293 514.407 175.322 513.49 174.625C512.61 173.892 511.492 173.525 510.135 173.525C509.072 173.525 508.265 173.763 507.715 174.24C507.165 174.68 506.89 175.322 506.89 176.165C506.89 177.118 507.385 177.833 508.375 178.31C509.402 178.787 510.997 179.263 513.16 179.74C515.507 180.29 517.432 180.858 518.935 181.445C520.439 181.995 521.74 182.912 522.84 184.195C523.94 185.478 524.49 187.202 524.49 189.365C524.49 191.125 524.014 192.683 523.06 194.04C522.107 195.397 520.732 196.46 518.935 197.23C517.139 198 515.012 198.385 512.555 198.385C508.412 198.385 505.094 197.468 502.6 195.635C500.107 193.802 498.585 191.18 498.035 187.77H507.11C507.257 189.09 507.807 190.098 508.76 190.795C509.75 191.492 511.015 191.84 512.555 191.84C513.619 191.84 514.425 191.602 514.975 191.125C515.525 190.612 515.8 189.952 515.8 189.145C515.8 188.082 515.287 187.33 514.26 186.89C513.27 186.413 511.639 185.918 509.365 185.405C507.092 184.928 505.222 184.415 503.755 183.865C502.289 183.315 501.024 182.435 499.96 181.225C498.897 179.978 498.365 178.292 498.365 176.165C498.365 173.415 499.41 171.197 501.5 169.51C503.59 167.787 506.542 166.925 510.355 166.925ZM552.369 166.925C554.716 166.925 556.732 167.457 558.419 168.52C560.106 169.583 561.334 171.032 562.104 172.865V157.3H571.509V198H562.104V192.445C561.334 194.278 560.106 195.727 558.419 196.79C556.732 197.853 554.716 198.385 552.369 198.385C549.839 198.385 547.566 197.762 545.549 196.515C543.569 195.232 541.992 193.398 540.819 191.015C539.682 188.632 539.114 185.845 539.114 182.655C539.114 179.428 539.682 176.642 540.819 174.295C541.992 171.912 543.569 170.097 545.549 168.85C547.566 167.567 549.839 166.925 552.369 166.925ZM555.394 175.175C553.377 175.175 551.746 175.835 550.499 177.155C549.289 178.475 548.684 180.308 548.684 182.655C548.684 185.002 549.289 186.835 550.499 188.155C551.746 189.475 553.377 190.135 555.394 190.135C557.374 190.135 558.987 189.457 560.234 188.1C561.517 186.743 562.159 184.928 562.159 182.655C562.159 180.345 561.517 178.53 560.234 177.21C558.987 175.853 557.374 175.175 555.394 175.175ZM577.104 158.675C577.104 157.245 577.618 156.072 578.644 155.155C579.671 154.202 581.028 153.725 582.714 153.725C584.401 153.725 585.758 154.202 586.784 155.155C587.811 156.072 588.324 157.245 588.324 158.675C588.324 160.068 587.811 161.242 586.784 162.195C585.758 163.112 584.401 163.57 582.714 163.57C581.028 163.57 579.671 163.112 578.644 162.195C577.618 161.242 577.104 160.068 577.104 158.675ZM587.389 167.31V198H577.984V167.31H587.389ZM605.543 166.925C607.889 166.925 609.906 167.457 611.593 168.52C613.279 169.583 614.526 171.032 615.333 172.865V167.31H624.683V198H615.333V192.445C614.526 194.278 613.279 195.727 611.593 196.79C609.906 197.853 607.889 198.385 605.543 198.385C603.013 198.385 600.739 197.762 598.723 196.515C596.743 195.232 595.166 193.398 593.993 191.015C592.856 188.632 592.288 185.845 592.288 182.655C592.288 179.428 592.856 176.642 593.993 174.295C595.166 171.912 596.743 170.097 598.723 168.85C600.739 167.567 603.013 166.925 605.543 166.925ZM608.568 175.175C606.551 175.175 604.919 175.835 603.673 177.155C602.463 178.475 601.858 180.308 601.858 182.655C601.858 185.002 602.463 186.835 603.673 188.155C604.919 189.475 606.551 190.135 608.568 190.135C610.548 190.135 612.161 189.457 613.408 188.1C614.691 186.743 615.333 184.928 615.333 182.655C615.333 180.345 614.691 178.53 613.408 177.21C612.161 175.853 610.548 175.175 608.568 175.175ZM650.298 166.925C652.828 166.925 655.083 167.567 657.063 168.85C659.08 170.097 660.656 171.912 661.793 174.295C662.966 176.642 663.553 179.428 663.553 182.655C663.553 185.845 662.966 188.632 661.793 191.015C660.656 193.398 659.08 195.232 657.063 196.515C655.083 197.762 652.828 198.385 650.298 198.385C647.951 198.385 645.935 197.853 644.248 196.79C642.561 195.727 641.333 194.278 640.563 192.445V198H631.158V157.3H640.563V172.865C641.333 171.032 642.561 169.583 644.248 168.52C645.935 167.457 647.951 166.925 650.298 166.925ZM647.273 175.175C645.293 175.175 643.661 175.853 642.378 177.21C641.131 178.53 640.508 180.345 640.508 182.655C640.508 184.928 641.131 186.743 642.378 188.1C643.661 189.457 645.293 190.135 647.273 190.135C649.29 190.135 650.903 189.475 652.113 188.155C653.36 186.835 653.983 185.002 653.983 182.655C653.983 180.308 653.36 178.475 652.113 177.155C650.903 175.835 649.29 175.175 647.273 175.175ZM697.583 181.83C697.583 182.6 697.492 183.443 697.308 184.36H676.023C676.133 186.67 676.72 188.338 677.783 189.365C678.847 190.355 680.203 190.85 681.853 190.85C683.247 190.85 684.402 190.502 685.318 189.805C686.235 189.108 686.84 188.21 687.133 187.11H697.088C696.685 189.273 695.805 191.217 694.448 192.94C693.092 194.627 691.368 195.965 689.278 196.955C687.188 197.908 684.86 198.385 682.293 198.385C679.287 198.385 676.61 197.762 674.263 196.515C671.953 195.232 670.138 193.398 668.818 191.015C667.498 188.632 666.838 185.845 666.838 182.655C666.838 179.428 667.48 176.642 668.763 174.295C670.083 171.912 671.917 170.097 674.263 168.85C676.61 167.567 679.287 166.925 682.293 166.925C685.337 166.925 688.013 167.548 690.323 168.795C692.633 170.042 694.412 171.802 695.658 174.075C696.942 176.312 697.583 178.897 697.583 181.83ZM688.068 180.4C688.105 178.383 687.555 176.88 686.418 175.89C685.318 174.863 683.943 174.35 682.293 174.35C680.57 174.35 679.14 174.863 678.003 175.89C676.867 176.917 676.225 178.42 676.078 180.4H688.068ZM719.866 189.915V198H715.631C712.038 198 709.233 197.12 707.216 195.36C705.236 193.563 704.246 190.612 704.246 186.505V175.23H700.121V167.31H704.246V159.775H713.651V167.31H719.811V175.23H713.651V186.67C713.651 187.88 713.89 188.723 714.366 189.2C714.88 189.677 715.723 189.915 716.896 189.915H719.866ZM754.302 181.83C754.302 182.6 754.211 183.443 754.027 184.36H732.742C732.852 186.67 733.439 188.338 734.502 189.365C735.566 190.355 736.922 190.85 738.572 190.85C739.966 190.85 741.121 190.502 742.037 189.805C742.954 189.108 743.559 188.21 743.852 187.11H753.807C753.404 189.273 752.524 191.217 751.167 192.94C749.811 194.627 748.087 195.965 745.997 196.955C743.907 197.908 741.579 198.385 739.012 198.385C736.006 198.385 733.329 197.762 730.982 196.515C728.672 195.232 726.857 193.398 725.537 191.015C724.217 188.632 723.557 185.845 723.557 182.655C723.557 179.428 724.199 176.642 725.482 174.295C726.802 171.912 728.636 170.097 730.982 168.85C733.329 167.567 736.006 166.925 739.012 166.925C742.056 166.925 744.732 167.548 747.042 168.795C749.352 170.042 751.131 171.802 752.377 174.075C753.661 176.312 754.302 178.897 754.302 181.83ZM744.787 180.4C744.824 178.383 744.274 176.88 743.137 175.89C742.037 174.863 740.662 174.35 739.012 174.35C737.289 174.35 735.859 174.863 734.722 175.89C733.586 176.917 732.944 178.42 732.797 180.4H744.787ZM770.37 166.925C774.257 166.925 777.355 167.897 779.665 169.84C782.012 171.783 783.478 174.35 784.065 177.54H775.265C775.008 176.293 774.422 175.322 773.505 174.625C772.625 173.892 771.507 173.525 770.15 173.525C769.087 173.525 768.28 173.763 767.73 174.24C767.18 174.68 766.905 175.322 766.905 176.165C766.905 177.118 767.4 177.833 768.39 178.31C769.417 178.787 771.012 179.263 773.175 179.74C775.522 180.29 777.447 180.858 778.95 181.445C780.453 181.995 781.755 182.912 782.855 184.195C783.955 185.478 784.505 187.202 784.505 189.365C784.505 191.125 784.028 192.683 783.075 194.04C782.122 195.397 780.747 196.46 778.95 197.23C777.153 198 775.027 198.385 772.57 198.385C768.427 198.385 765.108 197.468 762.615 195.635C760.122 193.802 758.6 191.18 758.05 187.77H767.125C767.272 189.09 767.822 190.098 768.775 190.795C769.765 191.492 771.03 191.84 772.57 191.84C773.633 191.84 774.44 191.602 774.99 191.125C775.54 190.612 775.815 189.952 775.815 189.145C775.815 188.082 775.302 187.33 774.275 186.89C773.285 186.413 771.653 185.918 769.38 185.405C767.107 184.928 765.237 184.415 763.77 183.865C762.303 183.315 761.038 182.435 759.975 181.225C758.912 179.978 758.38 178.292 758.38 176.165C758.38 173.415 759.425 171.197 761.515 169.51C763.605 167.787 766.557 166.925 770.37 166.925ZM801.153 156.31C805.039 156.31 808.138 157.318 810.448 159.335C812.758 161.315 813.913 164.175 813.913 167.915C813.913 171.398 812.776 174.13 810.503 176.11C808.266 178.09 805.259 179.117 801.483 179.19V184.085H792.628V173.14H796.313C798.953 173.14 801.006 172.773 802.473 172.04C803.939 171.27 804.673 169.913 804.673 167.97C804.673 166.723 804.324 165.752 803.628 165.055C802.931 164.358 801.996 164.01 800.823 164.01C799.503 164.01 798.458 164.413 797.688 165.22C796.954 165.99 796.588 166.98 796.588 168.19H787.733C787.659 165.99 788.118 163.992 789.108 162.195C790.134 160.362 791.674 158.932 793.728 157.905C795.781 156.842 798.256 156.31 801.153 156.31ZM801.978 188.595V198H792.188V188.595H801.978Z" fill="white"/>
<rect width="1880" height="36" fill="#194166"/>
</svg>
