<svg width="937" height="1173" viewBox="0 0 937 1173" fill="none" xmlns="http://www.w3.org/2000/svg">
<rect width="937" height="1173" fill="#22313F"/>
<circle cx="195.5" cy="303.5" r="118.5" fill="#1E90FF"/>
<circle cx="698.5" cy="303.5" r="118.5" fill="#FF6384"/>
<path d="M139.966 324.685H132.231V338H118.96V324.685H91.5381V315.236L119.707 273.752H132.231V314.138H139.966V324.685ZM118.96 314.138V303.239C118.96 301.423 119.033 298.786 119.18 295.329C119.326 291.872 119.443 289.865 119.531 289.309H119.18C118.096 291.711 116.792 294.055 115.269 296.34L103.491 314.138H118.96ZM161.587 328.552C160.063 334.47 157.485 341.486 153.853 349.602H144.185C146.089 341.809 147.568 334.455 148.623 327.541H160.928L161.587 328.552ZM194.502 296.955C200.713 296.955 205.649 298.698 209.312 302.185C213.003 305.671 214.849 310.446 214.849 316.511C214.849 323.688 212.637 329.211 208.213 333.078C203.789 336.945 197.461 338.879 189.229 338.879C182.08 338.879 176.309 337.722 171.914 335.407V323.674C174.229 324.904 176.924 325.915 180 326.706C183.076 327.468 185.991 327.849 188.745 327.849C197.036 327.849 201.182 324.45 201.182 317.653C201.182 311.179 196.89 307.941 188.306 307.941C186.753 307.941 185.039 308.103 183.164 308.425C181.289 308.718 179.766 309.04 178.594 309.392L173.188 306.491L175.605 273.752H210.454V285.266H187.515L186.328 297.878L187.866 297.57C189.653 297.16 191.865 296.955 194.502 296.955ZM232.778 293C232.778 296.721 233.101 299.504 233.745 301.35C234.419 303.166 235.488 304.074 236.953 304.074C239.766 304.074 241.172 300.383 241.172 293C241.172 285.676 239.766 282.014 236.953 282.014C235.488 282.014 234.419 282.922 233.745 284.738C233.101 286.525 232.778 289.279 232.778 293ZM252.246 292.912C252.246 299.65 250.942 304.719 248.335 308.117C245.728 311.486 241.904 313.171 236.865 313.171C232.031 313.171 228.296 311.442 225.659 307.985C223.022 304.499 221.704 299.475 221.704 292.912C221.704 279.523 226.758 272.829 236.865 272.829C241.816 272.829 245.61 274.572 248.247 278.059C250.913 281.516 252.246 286.467 252.246 292.912ZM282.48 273.752L246.841 338H236.294L271.934 273.752H282.48ZM277.778 318.664C277.778 322.385 278.101 325.168 278.745 327.014C279.419 328.83 280.488 329.738 281.953 329.738C284.766 329.738 286.172 326.047 286.172 318.664C286.172 311.34 284.766 307.678 281.953 307.678C280.488 307.678 279.419 308.586 278.745 310.402C278.101 312.189 277.778 314.943 277.778 318.664ZM297.246 318.576C297.246 325.285 295.942 330.339 293.335 333.737C290.728 337.106 286.904 338.791 281.865 338.791C277.031 338.791 273.296 337.062 270.659 333.605C268.022 330.119 266.704 325.109 266.704 318.576C266.704 305.188 271.758 298.493 281.865 298.493C286.816 298.493 290.61 300.236 293.247 303.723C295.913 307.18 297.246 312.131 297.246 318.576Z" fill="white"/>
<path d="M645.011 288.122C645.011 292.136 643.795 295.549 641.363 298.361C638.932 301.174 635.519 303.107 631.124 304.162V304.426C636.31 305.07 640.235 306.652 642.901 309.172C645.567 311.662 646.9 315.031 646.9 319.279C646.9 325.461 644.659 330.28 640.177 333.737C635.694 337.165 629.293 338.879 620.973 338.879C614 338.879 607.818 337.722 602.428 335.407V323.85C604.918 325.109 607.657 326.135 610.646 326.926C613.634 327.717 616.593 328.112 619.522 328.112C624.005 328.112 627.315 327.351 629.454 325.827C631.593 324.304 632.662 321.857 632.662 318.488C632.662 315.471 631.432 313.332 628.971 312.072C626.51 310.812 622.584 310.183 617.193 310.183H612.315V299.768H617.281C622.262 299.768 625.895 299.123 628.18 297.834C630.494 296.516 631.651 294.274 631.651 291.11C631.651 286.247 628.604 283.815 622.511 283.815C620.401 283.815 618.248 284.167 616.051 284.87C613.883 285.573 611.466 286.789 608.8 288.518L602.516 279.157C608.375 274.938 615.362 272.829 623.478 272.829C630.128 272.829 635.372 274.177 639.21 276.872C643.077 279.567 645.011 283.317 645.011 288.122ZM670.587 328.552C669.063 334.47 666.485 341.486 662.853 349.602H653.185C655.089 341.809 656.568 334.455 657.623 327.541H669.928L670.587 328.552ZM722.53 288.122C722.53 292.136 721.314 295.549 718.883 298.361C716.451 301.174 713.038 303.107 708.644 304.162V304.426C713.829 305.07 717.755 306.652 720.421 309.172C723.087 311.662 724.42 315.031 724.42 319.279C724.42 325.461 722.179 330.28 717.696 333.737C713.214 337.165 706.812 338.879 698.492 338.879C691.52 338.879 685.338 337.722 679.947 335.407V323.85C682.438 325.109 685.177 326.135 688.165 326.926C691.153 327.717 694.112 328.112 697.042 328.112C701.524 328.112 704.835 327.351 706.974 325.827C709.112 324.304 710.182 321.857 710.182 318.488C710.182 315.471 708.951 313.332 706.49 312.072C704.029 310.812 700.104 310.183 694.713 310.183H689.835V299.768H694.801C699.781 299.768 703.414 299.123 705.699 297.834C708.014 296.516 709.171 294.274 709.171 291.11C709.171 286.247 706.124 283.815 700.03 283.815C697.921 283.815 695.768 284.167 693.57 284.87C691.402 285.573 688.985 286.789 686.319 288.518L680.035 279.157C685.895 274.938 692.882 272.829 700.997 272.829C707.647 272.829 712.892 274.177 716.729 276.872C720.597 279.567 722.53 283.317 722.53 288.122ZM741.778 293C741.778 296.721 742.101 299.504 742.745 301.35C743.419 303.166 744.488 304.074 745.953 304.074C748.766 304.074 750.172 300.383 750.172 293C750.172 285.676 748.766 282.014 745.953 282.014C744.488 282.014 743.419 282.922 742.745 284.738C742.101 286.525 741.778 289.279 741.778 293ZM761.246 292.912C761.246 299.65 759.942 304.719 757.335 308.117C754.728 311.486 750.904 313.171 745.865 313.171C741.031 313.171 737.296 311.442 734.659 307.985C732.022 304.499 730.704 299.475 730.704 292.912C730.704 279.523 735.758 272.829 745.865 272.829C750.816 272.829 754.61 274.572 757.247 278.059C759.913 281.516 761.246 286.467 761.246 292.912ZM791.48 273.752L755.841 338H745.294L780.934 273.752H791.48ZM786.778 318.664C786.778 322.385 787.101 325.168 787.745 327.014C788.419 328.83 789.488 329.738 790.953 329.738C793.766 329.738 795.172 326.047 795.172 318.664C795.172 311.34 793.766 307.678 790.953 307.678C789.488 307.678 788.419 308.586 787.745 310.402C787.101 312.189 786.778 314.943 786.778 318.664ZM806.246 318.576C806.246 325.285 804.942 330.339 802.335 333.737C799.728 337.106 795.904 338.791 790.865 338.791C786.031 338.791 782.296 337.062 779.659 333.605C777.022 330.119 775.704 325.109 775.704 318.576C775.704 305.188 780.758 298.493 790.865 298.493C795.816 298.493 799.61 300.236 802.247 303.723C804.913 307.18 806.246 312.131 806.246 318.576Z" fill="white"/>
<path d="M67.32 478.64C70.48 478.64 73.3 479.32 75.78 480.68C78.3 482.04 80.26 484 81.66 486.56C83.1 489.12 83.82 492.12 83.82 495.56C83.82 499 83.1 502 81.66 504.56C80.26 507.08 78.3 509.02 75.78 510.38C73.3 511.74 70.48 512.42 67.32 512.42C64.16 512.42 61.32 511.74 58.8 510.38C56.32 509.02 54.36 507.08 52.92 504.56C51.48 502 50.76 499 50.76 495.56C50.76 492.12 51.48 489.12 52.92 486.56C54.36 484 56.32 482.04 58.8 480.68C61.32 479.32 64.16 478.64 67.32 478.64ZM67.32 483.44C65.36 483.44 63.54 483.88 61.86 484.76C60.22 485.64 58.88 487 57.84 488.84C56.84 490.64 56.34 492.88 56.34 495.56C56.34 498.2 56.84 500.44 57.84 502.28C58.88 504.08 60.22 505.42 61.86 506.3C63.54 507.18 65.36 507.62 67.32 507.62C69.28 507.62 71.08 507.18 72.72 506.3C74.4 505.42 75.74 504.08 76.74 502.28C77.78 500.44 78.3 498.2 78.3 495.56C78.3 492.88 77.78 490.64 76.74 488.84C75.74 487 74.4 485.64 72.72 484.76C71.08 483.88 69.28 483.44 67.32 483.44ZM105.515 471.26C102.595 471.22 100.555 471.72 99.3947 472.76C98.2747 473.8 97.7147 475.6 97.7147 478.16V479.06H105.515V483.86H97.7147V512H92.2547V483.86H87.5147V479.06H92.2547V477.74C92.2547 469.86 96.6747 466.1 105.515 466.46V471.26ZM139.767 478.64C142.967 478.64 145.667 479.44 147.867 481.04C150.107 482.64 151.667 484.78 152.547 487.46V479.06H158.007V512H152.547V503.6C151.667 506.28 150.107 508.42 147.867 510.02C145.667 511.62 142.967 512.42 139.767 512.42C136.847 512.42 134.247 511.74 131.967 510.38C129.687 509.02 127.887 507.08 126.567 504.56C125.287 502 124.647 499 124.647 495.56C124.647 492.12 125.287 489.12 126.567 486.56C127.887 484 129.687 482.04 131.967 480.68C134.247 479.32 136.847 478.64 139.767 478.64ZM141.327 483.5C137.967 483.5 135.267 484.58 133.227 486.74C131.227 488.86 130.227 491.8 130.227 495.56C130.227 499.32 131.227 502.28 133.227 504.44C135.267 506.56 137.967 507.62 141.327 507.62C143.487 507.62 145.407 507.12 147.087 506.12C148.807 505.12 150.147 503.72 151.107 501.92C152.067 500.08 152.547 497.96 152.547 495.56C152.547 493.16 152.067 491.04 151.107 489.2C150.147 487.36 148.807 485.96 147.087 485C145.407 484 143.487 483.5 141.327 483.5ZM172.156 467.6V512H166.696V467.6H172.156ZM186.395 467.6V512H180.935V467.6H186.395ZM250.497 478.52C254.337 478.52 257.417 479.76 259.737 482.24C262.097 484.68 263.277 488.22 263.277 492.86V512H257.817V493.34C257.817 490.1 257.017 487.62 255.417 485.9C253.857 484.18 251.697 483.32 248.937 483.32C246.057 483.32 243.737 484.28 241.977 486.2C240.257 488.08 239.397 490.86 239.397 494.54V512H233.937V493.34C233.937 490.1 233.137 487.62 231.537 485.9C229.937 484.18 227.777 483.32 225.057 483.32C222.137 483.32 219.797 484.28 218.037 486.2C216.317 488.08 215.457 490.86 215.457 494.54V512H209.997V479.06H215.457V486.56C216.257 483.96 217.677 481.98 219.717 480.62C221.797 479.22 224.177 478.52 226.857 478.52C229.657 478.52 232.077 479.24 234.117 480.68C236.197 482.08 237.677 484.16 238.557 486.92C239.477 484.24 241.017 482.18 243.177 480.74C245.337 479.26 247.777 478.52 250.497 478.52ZM302.055 493.7C302.055 494.86 301.975 495.86 301.815 496.7H275.475C275.595 500.46 276.655 503.28 278.655 505.16C280.695 507.04 283.175 507.98 286.095 507.98C288.735 507.98 290.935 507.32 292.695 506C294.495 504.64 295.595 502.84 295.995 500.6H301.815C301.415 502.88 300.515 504.92 299.115 506.72C297.755 508.52 295.975 509.92 293.775 510.92C291.575 511.92 289.095 512.42 286.335 512.42C283.175 512.42 280.375 511.74 277.935 510.38C275.495 509.02 273.575 507.08 272.175 504.56C270.815 502 270.135 499 270.135 495.56C270.135 492.12 270.815 489.12 272.175 486.56C273.575 484 275.495 482.04 277.935 480.68C280.375 479.32 283.175 478.64 286.335 478.64C289.535 478.64 292.315 479.32 294.675 480.68C297.075 482.04 298.895 483.86 300.135 486.14C301.415 488.42 302.055 490.94 302.055 493.7ZM296.535 494.06C296.655 491.62 296.255 489.58 295.335 487.94C294.415 486.3 293.155 485.08 291.555 484.28C289.955 483.48 288.215 483.08 286.335 483.08C283.335 483.08 280.815 484.02 278.775 485.9C276.735 487.74 275.635 490.46 275.475 494.06H296.535ZM326.536 478.52C330.376 478.52 333.476 479.76 335.836 482.24C338.196 484.68 339.376 488.22 339.376 492.86V512H333.916V493.34C333.916 490.06 333.076 487.54 331.396 485.78C329.716 484.02 327.436 483.14 324.556 483.14C321.556 483.14 319.156 484.12 317.356 486.08C315.556 488 314.656 490.82 314.656 494.54V512H309.196V479.06H314.656V486.86C315.496 484.18 316.976 482.12 319.096 480.68C321.256 479.24 323.736 478.52 326.536 478.52Z" fill="white"/>
<path d="M525.32 478.64C528.48 478.64 531.3 479.32 533.78 480.68C536.3 482.04 538.26 484 539.66 486.56C541.1 489.12 541.82 492.12 541.82 495.56C541.82 499 541.1 502 539.66 504.56C538.26 507.08 536.3 509.02 533.78 510.38C531.3 511.74 528.48 512.42 525.32 512.42C522.16 512.42 519.32 511.74 516.8 510.38C514.32 509.02 512.36 507.08 510.92 504.56C509.48 502 508.76 499 508.76 495.56C508.76 492.12 509.48 489.12 510.92 486.56C512.36 484 514.32 482.04 516.8 480.68C519.32 479.32 522.16 478.64 525.32 478.64ZM525.32 483.44C523.36 483.44 521.54 483.88 519.86 484.76C518.22 485.64 516.88 487 515.84 488.84C514.84 490.64 514.34 492.88 514.34 495.56C514.34 498.2 514.84 500.44 515.84 502.28C516.88 504.08 518.22 505.42 519.86 506.3C521.54 507.18 523.36 507.62 525.32 507.62C527.28 507.62 529.08 507.18 530.72 506.3C532.4 505.42 533.74 504.08 534.74 502.28C535.78 500.44 536.3 498.2 536.3 495.56C536.3 492.88 535.78 490.64 534.74 488.84C533.74 487 532.4 485.64 530.72 484.76C529.08 483.88 527.28 483.44 525.32 483.44ZM563.515 471.26C560.595 471.22 558.555 471.72 557.395 472.76C556.275 473.8 555.715 475.6 555.715 478.16V479.06H563.515V483.86H555.715V512H550.255V483.86H545.515V479.06H550.255V477.74C550.255 469.86 554.675 466.1 563.515 466.46V471.26ZM597.767 478.64C600.967 478.64 603.667 479.44 605.867 481.04C608.107 482.64 609.667 484.78 610.547 487.46V479.06H616.007V512H610.547V503.6C609.667 506.28 608.107 508.42 605.867 510.02C603.667 511.62 600.967 512.42 597.767 512.42C594.847 512.42 592.247 511.74 589.967 510.38C587.687 509.02 585.887 507.08 584.567 504.56C583.287 502 582.647 499 582.647 495.56C582.647 492.12 583.287 489.12 584.567 486.56C585.887 484 587.687 482.04 589.967 480.68C592.247 479.32 594.847 478.64 597.767 478.64ZM599.327 483.5C595.967 483.5 593.267 484.58 591.227 486.74C589.227 488.86 588.227 491.8 588.227 495.56C588.227 499.32 589.227 502.28 591.227 504.44C593.267 506.56 595.967 507.62 599.327 507.62C601.487 507.62 603.407 507.12 605.087 506.12C606.807 505.12 608.147 503.72 609.107 501.92C610.067 500.08 610.547 497.96 610.547 495.56C610.547 493.16 610.067 491.04 609.107 489.2C608.147 487.36 606.807 485.96 605.087 485C603.407 484 601.487 483.5 599.327 483.5ZM630.156 467.6V512H624.696V467.6H630.156ZM644.395 467.6V512H638.935V467.6H644.395ZM713.237 479.06L703.757 512H697.877L688.817 485.18L679.697 512H673.757L664.397 479.06H669.917L676.937 506.78L686.057 479.06H691.757L700.937 506.72L708.017 479.06H713.237ZM733.269 478.64C736.429 478.64 739.249 479.32 741.729 480.68C744.249 482.04 746.209 484 747.609 486.56C749.049 489.12 749.769 492.12 749.769 495.56C749.769 499 749.049 502 747.609 504.56C746.209 507.08 744.249 509.02 741.729 510.38C739.249 511.74 736.429 512.42 733.269 512.42C730.109 512.42 727.269 511.74 724.749 510.38C722.269 509.02 720.309 507.08 718.869 504.56C717.429 502 716.709 499 716.709 495.56C716.709 492.12 717.429 489.12 718.869 486.56C720.309 484 722.269 482.04 724.749 480.68C727.269 479.32 730.109 478.64 733.269 478.64ZM733.269 483.44C731.309 483.44 729.489 483.88 727.809 484.76C726.169 485.64 724.829 487 723.789 488.84C722.789 490.64 722.289 492.88 722.289 495.56C722.289 498.2 722.789 500.44 723.789 502.28C724.829 504.08 726.169 505.42 727.809 506.3C729.489 507.18 731.309 507.62 733.269 507.62C735.229 507.62 737.029 507.18 738.669 506.3C740.349 505.42 741.689 504.08 742.689 502.28C743.729 500.44 744.249 498.2 744.249 495.56C744.249 492.88 743.729 490.64 742.689 488.84C741.689 487 740.349 485.64 738.669 484.76C737.029 483.88 735.229 483.44 733.269 483.44ZM797.384 478.52C801.224 478.52 804.304 479.76 806.624 482.24C808.984 484.68 810.164 488.22 810.164 492.86V512H804.704V493.34C804.704 490.1 803.904 487.62 802.304 485.9C800.744 484.18 798.584 483.32 795.824 483.32C792.944 483.32 790.624 484.28 788.864 486.2C787.144 488.08 786.284 490.86 786.284 494.54V512H780.824V493.34C780.824 490.1 780.024 487.62 778.424 485.9C776.824 484.18 774.664 483.32 771.944 483.32C769.024 483.32 766.684 484.28 764.924 486.2C763.204 488.08 762.344 490.86 762.344 494.54V512H756.884V479.06H762.344V486.56C763.144 483.96 764.564 481.98 766.604 480.62C768.684 479.22 771.064 478.52 773.744 478.52C776.544 478.52 778.964 479.24 781.004 480.68C783.084 482.08 784.564 484.16 785.444 486.92C786.364 484.24 787.904 482.18 790.064 480.74C792.224 479.26 794.664 478.52 797.384 478.52ZM848.942 493.7C848.942 494.86 848.862 495.86 848.702 496.7H822.362C822.482 500.46 823.542 503.28 825.542 505.16C827.582 507.04 830.062 507.98 832.982 507.98C835.622 507.98 837.822 507.32 839.582 506C841.382 504.64 842.482 502.84 842.882 500.6H848.702C848.302 502.88 847.402 504.92 846.002 506.72C844.642 508.52 842.862 509.92 840.662 510.92C838.462 511.92 835.982 512.42 833.222 512.42C830.062 512.42 827.262 511.74 824.822 510.38C822.382 509.02 820.462 507.08 819.062 504.56C817.702 502 817.022 499 817.022 495.56C817.022 492.12 817.702 489.12 819.062 486.56C820.462 484 822.382 482.04 824.822 480.68C827.262 479.32 830.062 478.64 833.222 478.64C836.422 478.64 839.202 479.32 841.562 480.68C843.962 482.04 845.782 483.86 847.022 486.14C848.302 488.42 848.942 490.94 848.942 493.7ZM843.422 494.06C843.542 491.62 843.142 489.58 842.222 487.94C841.302 486.3 840.042 485.08 838.442 484.28C836.842 483.48 835.102 483.08 833.222 483.08C830.222 483.08 827.702 484.02 825.662 485.9C823.622 487.74 822.522 490.46 822.362 494.06H843.422ZM873.423 478.52C877.263 478.52 880.363 479.76 882.723 482.24C885.083 484.68 886.263 488.22 886.263 492.86V512H880.803V493.34C880.803 490.06 879.963 487.54 878.283 485.78C876.603 484.02 874.323 483.14 871.443 483.14C868.443 483.14 866.043 484.12 864.243 486.08C862.443 488 861.543 490.82 861.543 494.54V512H856.083V479.06H861.543V486.86C862.383 484.18 863.863 482.12 865.983 480.68C868.143 479.24 870.623 478.52 873.423 478.52Z" fill="white"/>
<path d="M156.32 1064.64C159.48 1064.64 162.3 1065.32 164.78 1066.68C167.3 1068.04 169.26 1070 170.66 1072.56C172.1 1075.12 172.82 1078.12 172.82 1081.56C172.82 1085 172.1 1088 170.66 1090.56C169.26 1093.08 167.3 1095.02 164.78 1096.38C162.3 1097.74 159.48 1098.42 156.32 1098.42C153.16 1098.42 150.32 1097.74 147.8 1096.38C145.32 1095.02 143.36 1093.08 141.92 1090.56C140.48 1088 139.76 1085 139.76 1081.56C139.76 1078.12 140.48 1075.12 141.92 1072.56C143.36 1070 145.32 1068.04 147.8 1066.68C150.32 1065.32 153.16 1064.64 156.32 1064.64ZM156.32 1069.44C154.36 1069.44 152.54 1069.88 150.86 1070.76C149.22 1071.64 147.88 1073 146.84 1074.84C145.84 1076.64 145.34 1078.88 145.34 1081.56C145.34 1084.2 145.84 1086.44 146.84 1088.28C147.88 1090.08 149.22 1091.42 150.86 1092.3C152.54 1093.18 154.36 1093.62 156.32 1093.62C158.28 1093.62 160.08 1093.18 161.72 1092.3C163.4 1091.42 164.74 1090.08 165.74 1088.28C166.78 1086.44 167.3 1084.2 167.3 1081.56C167.3 1078.88 166.78 1076.64 165.74 1074.84C164.74 1073 163.4 1071.64 161.72 1070.76C160.08 1069.88 158.28 1069.44 156.32 1069.44ZM194.515 1057.26C191.595 1057.22 189.555 1057.72 188.395 1058.76C187.275 1059.8 186.715 1061.6 186.715 1064.16V1065.06H194.515V1069.86H186.715V1098H181.255V1069.86H176.515V1065.06H181.255V1063.74C181.255 1055.86 185.675 1052.1 194.515 1052.46V1057.26ZM229.847 1064.64C234.047 1064.64 237.527 1065.76 240.287 1068C243.047 1070.24 244.747 1073.24 245.387 1077H239.627C239.227 1074.64 238.127 1072.8 236.327 1071.48C234.567 1070.12 232.367 1069.44 229.727 1069.44C227.807 1069.44 226.047 1069.88 224.447 1070.76C222.887 1071.64 221.627 1073 220.667 1074.84C219.707 1076.64 219.227 1078.88 219.227 1081.56C219.227 1084.24 219.707 1086.5 220.667 1088.34C221.627 1090.14 222.887 1091.48 224.447 1092.36C226.047 1093.24 227.807 1093.68 229.727 1093.68C232.367 1093.68 234.567 1093 236.327 1091.64C238.127 1090.28 239.227 1088.42 239.627 1086.06H245.387C244.747 1089.86 243.047 1092.88 240.287 1095.12C237.527 1097.32 234.047 1098.42 229.847 1098.42C226.687 1098.42 223.887 1097.74 221.447 1096.38C219.007 1095.02 217.087 1093.08 215.687 1090.56C214.327 1088 213.647 1085 213.647 1081.56C213.647 1078.12 214.327 1075.12 215.687 1072.56C217.087 1070 219.007 1068.04 221.447 1066.68C223.887 1065.32 226.687 1064.64 229.847 1064.64ZM266.032 1064.64C269.232 1064.64 271.932 1065.44 274.132 1067.04C276.372 1068.64 277.932 1070.78 278.812 1073.46V1065.06H284.272V1098H278.812V1089.6C277.932 1092.28 276.372 1094.42 274.132 1096.02C271.932 1097.62 269.232 1098.42 266.032 1098.42C263.112 1098.42 260.512 1097.74 258.232 1096.38C255.952 1095.02 254.152 1093.08 252.832 1090.56C251.552 1088 250.912 1085 250.912 1081.56C250.912 1078.12 251.552 1075.12 252.832 1072.56C254.152 1070 255.952 1068.04 258.232 1066.68C260.512 1065.32 263.112 1064.64 266.032 1064.64ZM267.592 1069.5C264.232 1069.5 261.532 1070.58 259.492 1072.74C257.492 1074.86 256.492 1077.8 256.492 1081.56C256.492 1085.32 257.492 1088.28 259.492 1090.44C261.532 1092.56 264.232 1093.62 267.592 1093.62C269.752 1093.62 271.672 1093.12 273.352 1092.12C275.072 1091.12 276.412 1089.72 277.372 1087.92C278.332 1086.08 278.812 1083.96 278.812 1081.56C278.812 1079.16 278.332 1077.04 277.372 1075.2C276.412 1073.36 275.072 1071.96 273.352 1071C271.672 1070 269.752 1069.5 267.592 1069.5ZM303.282 1064.64C307.002 1064.64 309.982 1065.62 312.222 1067.58C314.502 1069.5 315.882 1072.1 316.362 1075.38H311.142C310.902 1073.42 310.082 1071.82 308.682 1070.58C307.322 1069.3 305.482 1068.66 303.162 1068.66C301.202 1068.66 299.662 1069.14 298.542 1070.1C297.462 1071.02 296.922 1072.28 296.922 1073.88C296.922 1075.08 297.282 1076.06 298.002 1076.82C298.762 1077.54 299.682 1078.1 300.762 1078.5C301.882 1078.86 303.402 1079.26 305.322 1079.7C307.762 1080.26 309.722 1080.84 311.202 1081.44C312.722 1082 314.002 1082.92 315.042 1084.2C316.122 1085.48 316.662 1087.2 316.662 1089.36C316.662 1092.04 315.642 1094.22 313.602 1095.9C311.602 1097.58 308.922 1098.42 305.562 1098.42C301.642 1098.42 298.442 1097.48 295.962 1095.6C293.482 1093.72 292.022 1091.1 291.582 1087.74H296.862C297.062 1089.74 297.922 1091.36 299.442 1092.6C301.002 1093.84 303.042 1094.46 305.562 1094.46C307.442 1094.46 308.902 1093.98 309.942 1093.02C311.022 1092.06 311.562 1090.8 311.562 1089.24C311.562 1087.96 311.182 1086.94 310.422 1086.18C309.662 1085.42 308.722 1084.84 307.602 1084.44C306.482 1084.04 304.942 1083.62 302.982 1083.18C300.542 1082.62 298.582 1082.06 297.102 1081.5C295.662 1080.94 294.422 1080.06 293.382 1078.86C292.382 1077.62 291.882 1075.96 291.882 1073.88C291.882 1071.12 292.902 1068.9 294.942 1067.22C296.982 1065.5 299.762 1064.64 303.282 1064.64ZM354.258 1079.7C354.258 1080.86 354.178 1081.86 354.018 1082.7H327.678C327.798 1086.46 328.858 1089.28 330.858 1091.16C332.898 1093.04 335.378 1093.98 338.298 1093.98C340.938 1093.98 343.138 1093.32 344.898 1092C346.698 1090.64 347.798 1088.84 348.198 1086.6H354.018C353.618 1088.88 352.718 1090.92 351.318 1092.72C349.958 1094.52 348.178 1095.92 345.978 1096.92C343.778 1097.92 341.298 1098.42 338.538 1098.42C335.378 1098.42 332.578 1097.74 330.138 1096.38C327.698 1095.02 325.778 1093.08 324.378 1090.56C323.018 1088 322.338 1085 322.338 1081.56C322.338 1078.12 323.018 1075.12 324.378 1072.56C325.778 1070 327.698 1068.04 330.138 1066.68C332.578 1065.32 335.378 1064.64 338.538 1064.64C341.738 1064.64 344.518 1065.32 346.878 1066.68C349.278 1068.04 351.098 1069.86 352.338 1072.14C353.618 1074.42 354.258 1076.94 354.258 1079.7ZM348.738 1080.06C348.858 1077.62 348.458 1075.58 347.538 1073.94C346.618 1072.3 345.358 1071.08 343.758 1070.28C342.158 1069.48 340.418 1069.08 338.538 1069.08C335.538 1069.08 333.018 1070.02 330.978 1071.9C328.938 1073.74 327.838 1076.46 327.678 1080.06H348.738ZM371.72 1064.64C375.44 1064.64 378.42 1065.62 380.66 1067.58C382.94 1069.5 384.32 1072.1 384.8 1075.38H379.58C379.34 1073.42 378.52 1071.82 377.12 1070.58C375.76 1069.3 373.92 1068.66 371.6 1068.66C369.64 1068.66 368.1 1069.14 366.98 1070.1C365.9 1071.02 365.36 1072.28 365.36 1073.88C365.36 1075.08 365.72 1076.06 366.44 1076.82C367.2 1077.54 368.12 1078.1 369.2 1078.5C370.32 1078.86 371.84 1079.26 373.76 1079.7C376.2 1080.26 378.16 1080.84 379.64 1081.44C381.16 1082 382.44 1082.92 383.48 1084.2C384.56 1085.48 385.1 1087.2 385.1 1089.36C385.1 1092.04 384.08 1094.22 382.04 1095.9C380.04 1097.58 377.36 1098.42 374 1098.42C370.08 1098.42 366.88 1097.48 364.4 1095.6C361.92 1093.72 360.46 1091.1 360.02 1087.74H365.3C365.5 1089.74 366.36 1091.36 367.88 1092.6C369.44 1093.84 371.48 1094.46 374 1094.46C375.88 1094.46 377.34 1093.98 378.38 1093.02C379.46 1092.06 380 1090.8 380 1089.24C380 1087.96 379.62 1086.94 378.86 1086.18C378.1 1085.42 377.16 1084.84 376.04 1084.44C374.92 1084.04 373.38 1083.62 371.42 1083.18C368.98 1082.62 367.02 1082.06 365.54 1081.5C364.1 1080.94 362.86 1080.06 361.82 1078.86C360.82 1077.62 360.32 1075.96 360.32 1073.88C360.32 1071.12 361.34 1068.9 363.38 1067.22C365.42 1065.5 368.2 1064.64 371.72 1064.64ZM436.5 1065.06V1098H431.04V1090.26C430.2 1092.94 428.7 1095 426.54 1096.44C424.42 1097.84 421.94 1098.54 419.1 1098.54C415.3 1098.54 412.22 1097.32 409.86 1094.88C407.5 1092.4 406.32 1088.86 406.32 1084.26V1065.06H411.78V1083.72C411.78 1087 412.62 1089.54 414.3 1091.34C415.98 1093.1 418.26 1093.98 421.14 1093.98C424.14 1093.98 426.54 1093.02 428.34 1091.1C430.14 1089.14 431.04 1086.3 431.04 1082.58V1065.06H436.5ZM462.587 1064.52C466.427 1064.52 469.527 1065.76 471.887 1068.24C474.247 1070.68 475.427 1074.22 475.427 1078.86V1098H469.967V1079.34C469.967 1076.06 469.127 1073.54 467.447 1071.78C465.767 1070.02 463.487 1069.14 460.607 1069.14C457.607 1069.14 455.207 1070.12 453.407 1072.08C451.607 1074 450.707 1076.82 450.707 1080.54V1098H445.247V1065.06H450.707V1072.86C451.547 1070.18 453.027 1068.12 455.147 1066.68C457.307 1065.24 459.787 1064.52 462.587 1064.52ZM497.302 1064.64C500.502 1064.64 503.202 1065.44 505.402 1067.04C507.642 1068.64 509.202 1070.78 510.082 1073.46V1053.6H515.542V1098H510.082V1089.6C509.202 1092.28 507.642 1094.42 505.402 1096.02C503.202 1097.62 500.502 1098.42 497.302 1098.42C494.382 1098.42 491.782 1097.74 489.502 1096.38C487.222 1095.02 485.422 1093.08 484.102 1090.56C482.822 1088 482.182 1085 482.182 1081.56C482.182 1078.12 482.822 1075.12 484.102 1072.56C485.422 1070 487.222 1068.04 489.502 1066.68C491.782 1065.32 494.382 1064.64 497.302 1064.64ZM498.862 1069.5C495.502 1069.5 492.802 1070.58 490.762 1072.74C488.762 1074.86 487.762 1077.8 487.762 1081.56C487.762 1085.32 488.762 1088.28 490.762 1090.44C492.802 1092.56 495.502 1093.62 498.862 1093.62C501.022 1093.62 502.942 1093.12 504.622 1092.12C506.342 1091.12 507.682 1089.72 508.642 1087.92C509.602 1086.08 510.082 1083.96 510.082 1081.56C510.082 1079.16 509.602 1077.04 508.642 1075.2C507.682 1073.36 506.342 1071.96 504.622 1071C502.942 1070 501.022 1069.5 498.862 1069.5ZM523.272 1055.4C523.272 1054.4 523.612 1053.6 524.292 1053C524.972 1052.36 525.872 1052.04 526.992 1052.04C528.112 1052.04 529.012 1052.36 529.692 1053C530.372 1053.6 530.712 1054.4 530.712 1055.4C530.712 1056.4 530.372 1057.22 529.692 1057.86C529.012 1058.46 528.112 1058.76 526.992 1058.76C525.872 1058.76 524.972 1058.46 524.292 1057.86C523.612 1057.22 523.272 1056.4 523.272 1055.4ZM529.692 1065.06V1098H524.232V1065.06H529.692ZM551.97 1064.64C555.17 1064.64 557.87 1065.44 560.07 1067.04C562.31 1068.64 563.87 1070.78 564.75 1073.46V1065.06H570.21V1098H564.75V1089.6C563.87 1092.28 562.31 1094.42 560.07 1096.02C557.87 1097.62 555.17 1098.42 551.97 1098.42C549.05 1098.42 546.45 1097.74 544.17 1096.38C541.89 1095.02 540.09 1093.08 538.77 1090.56C537.49 1088 536.85 1085 536.85 1081.56C536.85 1078.12 537.49 1075.12 538.77 1072.56C540.09 1070 541.89 1068.04 544.17 1066.68C546.45 1065.32 549.05 1064.64 551.97 1064.64ZM553.53 1069.5C550.17 1069.5 547.47 1070.58 545.43 1072.74C543.43 1074.86 542.43 1077.8 542.43 1081.56C542.43 1085.32 543.43 1088.28 545.43 1090.44C547.47 1092.56 550.17 1093.62 553.53 1093.62C555.69 1093.62 557.61 1093.12 559.29 1092.12C561.01 1091.12 562.35 1089.72 563.31 1087.92C564.27 1086.08 564.75 1083.96 564.75 1081.56C564.75 1079.16 564.27 1077.04 563.31 1075.2C562.35 1073.36 561.01 1071.96 559.29 1071C557.61 1070 555.69 1069.5 553.53 1069.5ZM592.4 1064.64C595.6 1064.64 598.3 1065.44 600.5 1067.04C602.74 1068.64 604.3 1070.78 605.18 1073.46V1065.06H610.64V1098.54C610.64 1101.58 610 1104.28 608.72 1106.64C607.44 1109 605.64 1110.84 603.32 1112.16C601 1113.48 598.3 1114.14 595.22 1114.14C590.78 1114.14 587.16 1113.06 584.36 1110.9C581.56 1108.78 579.78 1105.9 579.02 1102.26H584.42C585.06 1104.46 586.26 1106.18 588.02 1107.42C589.82 1108.7 592.12 1109.34 594.92 1109.34C597.88 1109.34 600.32 1108.38 602.24 1106.46C604.2 1104.58 605.18 1101.94 605.18 1098.54V1089.6C604.3 1092.28 602.74 1094.42 600.5 1096.02C598.3 1097.62 595.6 1098.42 592.4 1098.42C589.48 1098.42 586.88 1097.74 584.6 1096.38C582.32 1095.02 580.52 1093.08 579.2 1090.56C577.92 1088 577.28 1085 577.28 1081.56C577.28 1078.12 577.92 1075.12 579.2 1072.56C580.52 1070 582.32 1068.04 584.6 1066.68C586.88 1065.32 589.48 1064.64 592.4 1064.64ZM593.96 1069.5C590.6 1069.5 587.9 1070.58 585.86 1072.74C583.86 1074.86 582.86 1077.8 582.86 1081.56C582.86 1085.32 583.86 1088.28 585.86 1090.44C587.9 1092.56 590.6 1093.62 593.96 1093.62C596.12 1093.62 598.04 1093.12 599.72 1092.12C601.44 1091.12 602.78 1089.72 603.74 1087.92C604.7 1086.08 605.18 1083.96 605.18 1081.56C605.18 1079.16 604.7 1077.04 603.74 1075.2C602.78 1073.36 601.44 1071.96 599.72 1071C598.04 1070 596.12 1069.5 593.96 1069.5ZM636.669 1064.52C640.509 1064.52 643.609 1065.76 645.969 1068.24C648.329 1070.68 649.509 1074.22 649.509 1078.86V1098H644.049V1079.34C644.049 1076.06 643.209 1073.54 641.529 1071.78C639.849 1070.02 637.569 1069.14 634.689 1069.14C631.689 1069.14 629.289 1070.12 627.489 1072.08C625.689 1074 624.789 1076.82 624.789 1080.54V1098H619.329V1065.06H624.789V1072.86C625.629 1070.18 627.109 1068.12 629.229 1066.68C631.389 1065.24 633.869 1064.52 636.669 1064.52ZM672.824 1064.64C675.984 1064.64 678.804 1065.32 681.284 1066.68C683.804 1068.04 685.764 1070 687.164 1072.56C688.604 1075.12 689.324 1078.12 689.324 1081.56C689.324 1085 688.604 1088 687.164 1090.56C685.764 1093.08 683.804 1095.02 681.284 1096.38C678.804 1097.74 675.984 1098.42 672.824 1098.42C669.664 1098.42 666.824 1097.74 664.304 1096.38C661.824 1095.02 659.864 1093.08 658.424 1090.56C656.984 1088 656.264 1085 656.264 1081.56C656.264 1078.12 656.984 1075.12 658.424 1072.56C659.864 1070 661.824 1068.04 664.304 1066.68C666.824 1065.32 669.664 1064.64 672.824 1064.64ZM672.824 1069.44C670.864 1069.44 669.044 1069.88 667.364 1070.76C665.724 1071.64 664.384 1073 663.344 1074.84C662.344 1076.64 661.844 1078.88 661.844 1081.56C661.844 1084.2 662.344 1086.44 663.344 1088.28C664.384 1090.08 665.724 1091.42 667.364 1092.3C669.044 1093.18 670.864 1093.62 672.824 1093.62C674.784 1093.62 676.584 1093.18 678.224 1092.3C679.904 1091.42 681.244 1090.08 682.244 1088.28C683.284 1086.44 683.804 1084.2 683.804 1081.56C683.804 1078.88 683.284 1076.64 682.244 1074.84C681.244 1073 679.904 1071.64 678.224 1070.76C676.584 1069.88 674.784 1069.44 672.824 1069.44ZM706.759 1064.64C710.479 1064.64 713.459 1065.62 715.699 1067.58C717.979 1069.5 719.359 1072.1 719.839 1075.38H714.619C714.379 1073.42 713.559 1071.82 712.159 1070.58C710.799 1069.3 708.959 1068.66 706.639 1068.66C704.679 1068.66 703.139 1069.14 702.019 1070.1C700.939 1071.02 700.399 1072.28 700.399 1073.88C700.399 1075.08 700.759 1076.06 701.479 1076.82C702.239 1077.54 703.159 1078.1 704.239 1078.5C705.359 1078.86 706.879 1079.26 708.799 1079.7C711.239 1080.26 713.199 1080.84 714.679 1081.44C716.199 1082 717.479 1082.92 718.519 1084.2C719.599 1085.48 720.139 1087.2 720.139 1089.36C720.139 1092.04 719.119 1094.22 717.079 1095.9C715.079 1097.58 712.399 1098.42 709.039 1098.42C705.119 1098.42 701.919 1097.48 699.439 1095.6C696.959 1093.72 695.499 1091.1 695.059 1087.74H700.339C700.539 1089.74 701.399 1091.36 702.919 1092.6C704.479 1093.84 706.519 1094.46 709.039 1094.46C710.919 1094.46 712.379 1093.98 713.419 1093.02C714.499 1092.06 715.039 1090.8 715.039 1089.24C715.039 1087.96 714.659 1086.94 713.899 1086.18C713.139 1085.42 712.199 1084.84 711.079 1084.44C709.959 1084.04 708.419 1083.62 706.459 1083.18C704.019 1082.62 702.059 1082.06 700.579 1081.5C699.139 1080.94 697.899 1080.06 696.859 1078.86C695.859 1077.62 695.359 1075.96 695.359 1073.88C695.359 1071.12 696.379 1068.9 698.419 1067.22C700.459 1065.5 703.239 1064.64 706.759 1064.64ZM757.735 1079.7C757.735 1080.86 757.655 1081.86 757.495 1082.7H731.155C731.275 1086.46 732.335 1089.28 734.335 1091.16C736.375 1093.04 738.855 1093.98 741.775 1093.98C744.415 1093.98 746.615 1093.32 748.375 1092C750.175 1090.64 751.275 1088.84 751.675 1086.6H757.495C757.095 1088.88 756.195 1090.92 754.795 1092.72C753.435 1094.52 751.655 1095.92 749.455 1096.92C747.255 1097.92 744.775 1098.42 742.015 1098.42C738.855 1098.42 736.055 1097.74 733.615 1096.38C731.175 1095.02 729.255 1093.08 727.855 1090.56C726.495 1088 725.815 1085 725.815 1081.56C725.815 1078.12 726.495 1075.12 727.855 1072.56C729.255 1070 731.175 1068.04 733.615 1066.68C736.055 1065.32 738.855 1064.64 742.015 1064.64C745.215 1064.64 747.995 1065.32 750.355 1066.68C752.755 1068.04 754.575 1069.86 755.815 1072.14C757.095 1074.42 757.735 1076.94 757.735 1079.7ZM752.215 1080.06C752.335 1077.62 751.935 1075.58 751.015 1073.94C750.095 1072.3 748.835 1071.08 747.235 1070.28C745.635 1069.48 743.895 1069.08 742.015 1069.08C739.015 1069.08 736.495 1070.02 734.455 1071.9C732.415 1073.74 731.315 1076.46 731.155 1080.06H752.215ZM778.376 1064.64C781.576 1064.64 784.276 1065.44 786.476 1067.04C788.716 1068.64 790.276 1070.78 791.156 1073.46V1053.6H796.616V1098H791.156V1089.6C790.276 1092.28 788.716 1094.42 786.476 1096.02C784.276 1097.62 781.576 1098.42 778.376 1098.42C775.456 1098.42 772.856 1097.74 770.576 1096.38C768.296 1095.02 766.496 1093.08 765.176 1090.56C763.896 1088 763.256 1085 763.256 1081.56C763.256 1078.12 763.896 1075.12 765.176 1072.56C766.496 1070 768.296 1068.04 770.576 1066.68C772.856 1065.32 775.456 1064.64 778.376 1064.64ZM779.936 1069.5C776.576 1069.5 773.876 1070.58 771.836 1072.74C769.836 1074.86 768.836 1077.8 768.836 1081.56C768.836 1085.32 769.836 1088.28 771.836 1090.44C773.876 1092.56 776.576 1093.62 779.936 1093.62C782.096 1093.62 784.016 1093.12 785.696 1092.12C787.416 1091.12 788.756 1089.72 789.716 1087.92C790.676 1086.08 791.156 1083.96 791.156 1081.56C791.156 1079.16 790.676 1077.04 789.716 1075.2C788.756 1073.36 787.416 1071.96 785.696 1071C784.016 1070 782.096 1069.5 779.936 1069.5Z" fill="white"/>
<path d="M140.85 53.115V92H131.39V75.775H116.65V92H107.245V53.115H116.65V68.185H131.39V53.115H140.85ZM161.668 60.925C164.712 60.925 167.425 61.5667 169.808 62.85C172.228 64.0967 174.117 65.9117 175.473 68.295C176.867 70.6783 177.563 73.465 177.563 76.655C177.563 79.845 176.867 82.6317 175.473 85.015C174.117 87.3983 172.228 89.2317 169.808 90.515C167.425 91.7617 164.712 92.385 161.668 92.385C158.625 92.385 155.893 91.7617 153.473 90.515C151.053 89.2317 149.147 87.3983 147.753 85.015C146.397 82.6317 145.718 79.845 145.718 76.655C145.718 73.465 146.397 70.6783 147.753 68.295C149.147 65.9117 151.053 64.0967 153.473 62.85C155.893 61.5667 158.625 60.925 161.668 60.925ZM161.668 69.065C159.872 69.065 158.35 69.725 157.103 71.045C155.893 72.3283 155.288 74.1983 155.288 76.655C155.288 79.1117 155.893 80.9817 157.103 82.265C158.35 83.5483 159.872 84.19 161.668 84.19C163.465 84.19 164.968 83.5483 166.178 82.265C167.388 80.9817 167.993 79.1117 167.993 76.655C167.993 74.1983 167.388 72.3283 166.178 71.045C164.968 69.725 163.465 69.065 161.668 69.065ZM227.32 61.31L219.455 92H208.95L203.395 71.43L197.785 92H187.28L179.415 61.31H188.82L192.89 83.42L198.61 61.31H208.62L214.505 83.475L218.575 61.31H227.32ZM255.597 60.925C259.557 60.925 262.876 62.025 265.552 64.225C268.229 66.3883 269.916 69.3767 270.612 73.19H260.657C260.364 71.87 259.759 70.8433 258.842 70.11C257.926 69.3767 256.771 69.01 255.377 69.01C253.727 69.01 252.371 69.67 251.307 70.99C250.244 72.2733 249.712 74.1617 249.712 76.655C249.712 79.1483 250.244 81.055 251.307 82.375C252.371 83.6583 253.727 84.3 255.377 84.3C256.771 84.3 257.926 83.9333 258.842 83.2C259.759 82.4667 260.364 81.44 260.657 80.12H270.612C269.916 83.9333 268.229 86.94 265.552 89.14C262.876 91.3033 259.557 92.385 255.597 92.385C252.591 92.385 249.914 91.7617 247.567 90.515C245.257 89.2317 243.442 87.3983 242.122 85.015C240.802 82.6317 240.142 79.845 240.142 76.655C240.142 73.4283 240.784 70.6417 242.067 68.295C243.387 65.9117 245.221 64.0967 247.567 62.85C249.914 61.5667 252.591 60.925 255.597 60.925ZM289.876 60.925C292.92 60.925 295.633 61.5667 298.016 62.85C300.436 64.0967 302.325 65.9117 303.681 68.295C305.075 70.6783 305.771 73.465 305.771 76.655C305.771 79.845 305.075 82.6317 303.681 85.015C302.325 87.3983 300.436 89.2317 298.016 90.515C295.633 91.7617 292.92 92.385 289.876 92.385C286.833 92.385 284.101 91.7617 281.681 90.515C279.261 89.2317 277.355 87.3983 275.961 85.015C274.605 82.6317 273.926 79.845 273.926 76.655C273.926 73.465 274.605 70.6783 275.961 68.295C277.355 65.9117 279.261 64.0967 281.681 62.85C284.101 61.5667 286.833 60.925 289.876 60.925ZM289.876 69.065C288.08 69.065 286.558 69.725 285.311 71.045C284.101 72.3283 283.496 74.1983 283.496 76.655C283.496 79.1117 284.101 80.9817 285.311 82.265C286.558 83.5483 288.08 84.19 289.876 84.19C291.673 84.19 293.176 83.5483 294.386 82.265C295.596 80.9817 296.201 79.1117 296.201 76.655C296.201 74.1983 295.596 72.3283 294.386 71.045C293.176 69.725 291.673 69.065 289.876 69.065ZM350.413 60.98C354.19 60.98 357.16 62.1533 359.323 64.5C361.487 66.81 362.568 70.0367 362.568 74.18V92H353.218V75.28C353.218 73.3367 352.687 71.8333 351.623 70.77C350.597 69.67 349.185 69.12 347.388 69.12C345.518 69.12 344.033 69.7067 342.933 70.88C341.87 72.0167 341.338 73.63 341.338 75.72V92H331.933V75.28C331.933 73.3367 331.42 71.8333 330.393 70.77C329.367 69.67 327.955 69.12 326.158 69.12C324.288 69.12 322.803 69.6883 321.703 70.825C320.603 71.9617 320.053 73.5933 320.053 75.72V92H310.648V61.31H320.053V66.535C320.86 64.8117 322.088 63.455 323.738 62.465C325.425 61.475 327.387 60.98 329.623 60.98C331.97 60.98 334.042 61.53 335.838 62.63C337.635 63.6933 338.992 65.2333 339.908 67.25C340.972 65.3433 342.42 63.8217 344.253 62.685C346.123 61.5483 348.177 60.98 350.413 60.98ZM408.582 60.98C412.359 60.98 415.329 62.1533 417.492 64.5C419.656 66.81 420.737 70.0367 420.737 74.18V92H411.387V75.28C411.387 73.3367 410.856 71.8333 409.792 70.77C408.766 69.67 407.354 69.12 405.557 69.12C403.687 69.12 402.202 69.7067 401.102 70.88C400.039 72.0167 399.507 73.63 399.507 75.72V92H390.102V75.28C390.102 73.3367 389.589 71.8333 388.562 70.77C387.536 69.67 386.124 69.12 384.327 69.12C382.457 69.12 380.972 69.6883 379.872 70.825C378.772 71.9617 378.222 73.5933 378.222 75.72V92H368.817V61.31H378.222V66.535C379.029 64.8117 380.257 63.455 381.907 62.465C383.594 61.475 385.556 60.98 387.792 60.98C390.139 60.98 392.211 61.53 394.007 62.63C395.804 63.6933 397.161 65.2333 398.077 67.25C399.141 65.3433 400.589 63.8217 402.422 62.685C404.292 61.5483 406.346 60.98 408.582 60.98ZM441.341 60.925C444.385 60.925 447.098 61.5667 449.481 62.85C451.901 64.0967 453.79 65.9117 455.146 68.295C456.54 70.6783 457.236 73.465 457.236 76.655C457.236 79.845 456.54 82.6317 455.146 85.015C453.79 87.3983 451.901 89.2317 449.481 90.515C447.098 91.7617 444.385 92.385 441.341 92.385C438.298 92.385 435.566 91.7617 433.146 90.515C430.726 89.2317 428.82 87.3983 427.426 85.015C426.07 82.6317 425.391 79.845 425.391 76.655C425.391 73.465 426.07 70.6783 427.426 68.295C428.82 65.9117 430.726 64.0967 433.146 62.85C435.566 61.5667 438.298 60.925 441.341 60.925ZM441.341 69.065C439.545 69.065 438.023 69.725 436.776 71.045C435.566 72.3283 434.961 74.1983 434.961 76.655C434.961 79.1117 435.566 80.9817 436.776 82.265C438.023 83.5483 439.545 84.19 441.341 84.19C443.138 84.19 444.641 83.5483 445.851 82.265C447.061 80.9817 447.666 79.1117 447.666 76.655C447.666 74.1983 447.061 72.3283 445.851 71.045C444.641 69.725 443.138 69.065 441.341 69.065ZM481.583 60.98C485.103 60.98 487.89 62.1533 489.943 64.5C492.033 66.8467 493.078 70.0733 493.078 74.18V92H483.673V75.28C483.673 73.2267 483.123 71.6317 482.023 70.495C480.96 69.3217 479.53 68.735 477.733 68.735C475.826 68.735 474.305 69.34 473.168 70.55C472.068 71.76 471.518 73.4833 471.518 75.72V92H462.113V61.31H471.518V66.92C472.398 65.0867 473.7 63.6383 475.423 62.575C477.183 61.5117 479.236 60.98 481.583 60.98ZM509.412 52.675C509.412 51.245 509.925 50.0717 510.952 49.155C511.979 48.2017 513.335 47.725 515.022 47.725C516.709 47.725 518.065 48.2017 519.092 49.155C520.119 50.0717 520.632 51.245 520.632 52.675C520.632 54.0683 520.119 55.2417 519.092 56.195C518.065 57.1117 516.709 57.57 515.022 57.57C513.335 57.57 511.979 57.1117 510.952 56.195C509.925 55.2417 509.412 54.0683 509.412 52.675ZM519.697 61.31V92H510.292V61.31H519.697ZM537.355 60.925C541.242 60.925 544.34 61.8967 546.65 63.84C548.997 65.7833 550.464 68.35 551.05 71.54H542.25C541.994 70.2933 541.407 69.3217 540.49 68.625C539.61 67.8917 538.492 67.525 537.135 67.525C536.072 67.525 535.265 67.7633 534.715 68.24C534.165 68.68 533.89 69.3217 533.89 70.165C533.89 71.1183 534.385 71.8333 535.375 72.31C536.402 72.7867 537.997 73.2633 540.16 73.74C542.507 74.29 544.432 74.8583 545.935 75.445C547.439 75.995 548.74 76.9117 549.84 78.195C550.94 79.4783 551.49 81.2017 551.49 83.365C551.49 85.125 551.014 86.6833 550.06 88.04C549.107 89.3967 547.732 90.46 545.935 91.23C544.139 92 542.012 92.385 539.555 92.385C535.412 92.385 532.094 91.4683 529.6 89.635C527.107 87.8017 525.585 85.18 525.035 81.77H534.11C534.257 83.09 534.807 84.0983 535.76 84.795C536.75 85.4917 538.015 85.84 539.555 85.84C540.619 85.84 541.425 85.6017 541.975 85.125C542.525 84.6117 542.8 83.9517 542.8 83.145C542.8 82.0817 542.287 81.33 541.26 80.89C540.27 80.4133 538.639 79.9183 536.365 79.405C534.092 78.9283 532.222 78.415 530.755 77.865C529.289 77.315 528.024 76.435 526.96 75.225C525.897 73.9783 525.365 72.2917 525.365 70.165C525.365 67.415 526.41 65.1967 528.5 63.51C530.59 61.7867 533.542 60.925 537.355 60.925ZM579.369 60.925C581.716 60.925 583.732 61.4567 585.419 62.52C587.106 63.5833 588.334 65.0317 589.104 66.865V51.3H598.509V92H589.104V86.445C588.334 88.2783 587.106 89.7267 585.419 90.79C583.732 91.8533 581.716 92.385 579.369 92.385C576.839 92.385 574.566 91.7617 572.549 90.515C570.569 89.2317 568.992 87.3983 567.819 85.015C566.682 82.6317 566.114 79.845 566.114 76.655C566.114 73.4283 566.682 70.6417 567.819 68.295C568.992 65.9117 570.569 64.0967 572.549 62.85C574.566 61.5667 576.839 60.925 579.369 60.925ZM582.394 69.175C580.377 69.175 578.746 69.835 577.499 71.155C576.289 72.475 575.684 74.3083 575.684 76.655C575.684 79.0017 576.289 80.835 577.499 82.155C578.746 83.475 580.377 84.135 582.394 84.135C584.374 84.135 585.987 83.4567 587.234 82.1C588.517 80.7433 589.159 78.9283 589.159 76.655C589.159 74.345 588.517 72.53 587.234 71.21C585.987 69.8533 584.374 69.175 582.394 69.175ZM604.104 52.675C604.104 51.245 604.618 50.0717 605.644 49.155C606.671 48.2017 608.028 47.725 609.714 47.725C611.401 47.725 612.758 48.2017 613.784 49.155C614.811 50.0717 615.324 51.245 615.324 52.675C615.324 54.0683 614.811 55.2417 613.784 56.195C612.758 57.1117 611.401 57.57 609.714 57.57C608.028 57.57 606.671 57.1117 605.644 56.195C604.618 55.2417 604.104 54.0683 604.104 52.675ZM614.389 61.31V92H604.984V61.31H614.389ZM632.543 60.925C634.889 60.925 636.906 61.4567 638.593 62.52C640.279 63.5833 641.526 65.0317 642.333 66.865V61.31H651.683V92H642.333V86.445C641.526 88.2783 640.279 89.7267 638.593 90.79C636.906 91.8533 634.889 92.385 632.543 92.385C630.013 92.385 627.739 91.7617 625.723 90.515C623.743 89.2317 622.166 87.3983 620.993 85.015C619.856 82.6317 619.288 79.845 619.288 76.655C619.288 73.4283 619.856 70.6417 620.993 68.295C622.166 65.9117 623.743 64.0967 625.723 62.85C627.739 61.5667 630.013 60.925 632.543 60.925ZM635.568 69.175C633.551 69.175 631.919 69.835 630.673 71.155C629.463 72.475 628.858 74.3083 628.858 76.655C628.858 79.0017 629.463 80.835 630.673 82.155C631.919 83.475 633.551 84.135 635.568 84.135C637.548 84.135 639.161 83.4567 640.408 82.1C641.691 80.7433 642.333 78.9283 642.333 76.655C642.333 74.345 641.691 72.53 640.408 71.21C639.161 69.8533 637.548 69.175 635.568 69.175ZM677.298 60.925C679.828 60.925 682.083 61.5667 684.063 62.85C686.08 64.0967 687.656 65.9117 688.793 68.295C689.966 70.6417 690.553 73.4283 690.553 76.655C690.553 79.845 689.966 82.6317 688.793 85.015C687.656 87.3983 686.08 89.2317 684.063 90.515C682.083 91.7617 679.828 92.385 677.298 92.385C674.951 92.385 672.935 91.8533 671.248 90.79C669.561 89.7267 668.333 88.2783 667.563 86.445V92H658.158V51.3H667.563V66.865C668.333 65.0317 669.561 63.5833 671.248 62.52C672.935 61.4567 674.951 60.925 677.298 60.925ZM674.273 69.175C672.293 69.175 670.661 69.8533 669.378 71.21C668.131 72.53 667.508 74.345 667.508 76.655C667.508 78.9283 668.131 80.7433 669.378 82.1C670.661 83.4567 672.293 84.135 674.273 84.135C676.29 84.135 677.903 83.475 679.113 82.155C680.36 80.835 680.983 79.0017 680.983 76.655C680.983 74.3083 680.36 72.475 679.113 71.155C677.903 69.835 676.29 69.175 674.273 69.175ZM724.583 75.83C724.583 76.6 724.492 77.4433 724.308 78.36H703.023C703.133 80.67 703.72 82.3383 704.783 83.365C705.847 84.355 707.203 84.85 708.853 84.85C710.247 84.85 711.402 84.5017 712.318 83.805C713.235 83.1083 713.84 82.21 714.133 81.11H724.088C723.685 83.2733 722.805 85.2167 721.448 86.94C720.092 88.6267 718.368 89.965 716.278 90.955C714.188 91.9083 711.86 92.385 709.293 92.385C706.287 92.385 703.61 91.7617 701.263 90.515C698.953 89.2317 697.138 87.3983 695.818 85.015C694.498 82.6317 693.838 79.845 693.838 76.655C693.838 73.4283 694.48 70.6417 695.763 68.295C697.083 65.9117 698.917 64.0967 701.263 62.85C703.61 61.5667 706.287 60.925 709.293 60.925C712.337 60.925 715.013 61.5483 717.323 62.795C719.633 64.0417 721.412 65.8017 722.658 68.075C723.942 70.3117 724.583 72.8967 724.583 75.83ZM715.068 74.4C715.105 72.3833 714.555 70.88 713.418 69.89C712.318 68.8633 710.943 68.35 709.293 68.35C707.57 68.35 706.14 68.8633 705.003 69.89C703.867 70.9167 703.225 72.42 703.078 74.4H715.068ZM746.866 83.915V92H742.631C739.038 92 736.233 91.12 734.216 89.36C732.236 87.5633 731.246 84.6117 731.246 80.505V69.23H727.121V61.31H731.246V53.775H740.651V61.31H746.811V69.23H740.651V80.67C740.651 81.88 740.89 82.7233 741.366 83.2C741.88 83.6767 742.723 83.915 743.896 83.915H746.866ZM781.302 75.83C781.302 76.6 781.211 77.4433 781.027 78.36H759.742C759.852 80.67 760.439 82.3383 761.502 83.365C762.566 84.355 763.922 84.85 765.572 84.85C766.966 84.85 768.121 84.5017 769.037 83.805C769.954 83.1083 770.559 82.21 770.852 81.11H780.807C780.404 83.2733 779.524 85.2167 778.167 86.94C776.811 88.6267 775.087 89.965 772.997 90.955C770.907 91.9083 768.579 92.385 766.012 92.385C763.006 92.385 760.329 91.7617 757.982 90.515C755.672 89.2317 753.857 87.3983 752.537 85.015C751.217 82.6317 750.557 79.845 750.557 76.655C750.557 73.4283 751.199 70.6417 752.482 68.295C753.802 65.9117 755.636 64.0967 757.982 62.85C760.329 61.5667 763.006 60.925 766.012 60.925C769.056 60.925 771.732 61.5483 774.042 62.795C776.352 64.0417 778.131 65.8017 779.377 68.075C780.661 70.3117 781.302 72.8967 781.302 75.83ZM771.787 74.4C771.824 72.3833 771.274 70.88 770.137 69.89C769.037 68.8633 767.662 68.35 766.012 68.35C764.289 68.35 762.859 68.8633 761.722 69.89C760.586 70.9167 759.944 72.42 759.797 74.4H771.787ZM797.37 60.925C801.257 60.925 804.355 61.8967 806.665 63.84C809.012 65.7833 810.478 68.35 811.065 71.54H802.265C802.008 70.2933 801.422 69.3217 800.505 68.625C799.625 67.8917 798.507 67.525 797.15 67.525C796.087 67.525 795.28 67.7633 794.73 68.24C794.18 68.68 793.905 69.3217 793.905 70.165C793.905 71.1183 794.4 71.8333 795.39 72.31C796.417 72.7867 798.012 73.2633 800.175 73.74C802.522 74.29 804.447 74.8583 805.95 75.445C807.453 75.995 808.755 76.9117 809.855 78.195C810.955 79.4783 811.505 81.2017 811.505 83.365C811.505 85.125 811.028 86.6833 810.075 88.04C809.122 89.3967 807.747 90.46 805.95 91.23C804.153 92 802.027 92.385 799.57 92.385C795.427 92.385 792.108 91.4683 789.615 89.635C787.122 87.8017 785.6 85.18 785.05 81.77H794.125C794.272 83.09 794.822 84.0983 795.775 84.795C796.765 85.4917 798.03 85.84 799.57 85.84C800.633 85.84 801.44 85.6017 801.99 85.125C802.54 84.6117 802.815 83.9517 802.815 83.145C802.815 82.0817 802.302 81.33 801.275 80.89C800.285 80.4133 798.653 79.9183 796.38 79.405C794.107 78.9283 792.237 78.415 790.77 77.865C789.303 77.315 788.038 76.435 786.975 75.225C785.912 73.9783 785.38 72.2917 785.38 70.165C785.38 67.415 786.425 65.1967 788.515 63.51C790.605 61.7867 793.557 60.925 797.37 60.925ZM828.153 50.31C832.039 50.31 835.138 51.3183 837.448 53.335C839.758 55.315 840.913 58.175 840.913 61.915C840.913 65.3983 839.776 68.13 837.503 70.11C835.266 72.09 832.259 73.1167 828.483 73.19V78.085H819.628V67.14H823.313C825.953 67.14 828.006 66.7733 829.473 66.04C830.939 65.27 831.673 63.9133 831.673 61.97C831.673 60.7233 831.324 59.7517 830.628 59.055C829.931 58.3583 828.996 58.01 827.823 58.01C826.503 58.01 825.458 58.4133 824.688 59.22C823.954 59.99 823.588 60.98 823.588 62.19H814.733C814.659 59.99 815.118 57.9917 816.108 56.195C817.134 54.3617 818.674 52.9317 820.728 51.905C822.781 50.8417 825.256 50.31 828.153 50.31ZM828.978 82.595V92H819.188V82.595H828.978Z" fill="white"/>
<path d="M114.785 678H105.38L89.65 654.13V678H80.245V639.115H89.65L105.38 663.205V639.115H114.785V678ZM135.635 646.925C138.678 646.925 141.392 647.567 143.775 648.85C146.195 650.097 148.083 651.912 149.44 654.295C150.833 656.678 151.53 659.465 151.53 662.655C151.53 665.845 150.833 668.632 149.44 671.015C148.083 673.398 146.195 675.232 143.775 676.515C141.392 677.762 138.678 678.385 135.635 678.385C132.592 678.385 129.86 677.762 127.44 676.515C125.02 675.232 123.113 673.398 121.72 671.015C120.363 668.632 119.685 665.845 119.685 662.655C119.685 659.465 120.363 656.678 121.72 654.295C123.113 651.912 125.02 650.097 127.44 648.85C129.86 647.567 132.592 646.925 135.635 646.925ZM135.635 655.065C133.838 655.065 132.317 655.725 131.07 657.045C129.86 658.328 129.255 660.198 129.255 662.655C129.255 665.112 129.86 666.982 131.07 668.265C132.317 669.548 133.838 670.19 135.635 670.19C137.432 670.19 138.935 669.548 140.145 668.265C141.355 666.982 141.96 665.112 141.96 662.655C141.96 660.198 141.355 658.328 140.145 657.045C138.935 655.725 137.432 655.065 135.635 655.065ZM173.787 669.915V678H169.552C165.959 678 163.154 677.12 161.137 675.36C159.157 673.563 158.167 670.612 158.167 666.505V655.23H154.042V647.31H158.167V639.775H167.572V647.31H173.732V655.23H167.572V666.67C167.572 667.88 167.81 668.723 168.287 669.2C168.8 669.677 169.644 669.915 170.817 669.915H173.787ZM219.234 661.83C219.234 662.6 219.142 663.443 218.959 664.36H197.674C197.784 666.67 198.371 668.338 199.434 669.365C200.497 670.355 201.854 670.85 203.504 670.85C204.897 670.85 206.052 670.502 206.969 669.805C207.886 669.108 208.491 668.21 208.784 667.11H218.739C218.336 669.273 217.456 671.217 216.099 672.94C214.742 674.627 213.019 675.965 210.929 676.955C208.839 677.908 206.511 678.385 203.944 678.385C200.937 678.385 198.261 677.762 195.914 676.515C193.604 675.232 191.789 673.398 190.469 671.015C189.149 668.632 188.489 665.845 188.489 662.655C188.489 659.428 189.131 656.642 190.414 654.295C191.734 651.912 193.567 650.097 195.914 648.85C198.261 647.567 200.937 646.925 203.944 646.925C206.987 646.925 209.664 647.548 211.974 648.795C214.284 650.042 216.062 651.802 217.309 654.075C218.592 656.312 219.234 658.897 219.234 661.83ZM209.719 660.4C209.756 658.383 209.206 656.88 208.069 655.89C206.969 654.863 205.594 654.35 203.944 654.35C202.221 654.35 200.791 654.863 199.654 655.89C198.517 656.917 197.876 658.42 197.729 660.4H209.719ZM238.327 668.815L244.982 647.31H254.992L244.102 678H232.442L221.552 647.31H231.562L238.327 668.815ZM288.038 661.83C288.038 662.6 287.946 663.443 287.763 664.36H266.478C266.588 666.67 267.174 668.338 268.238 669.365C269.301 670.355 270.658 670.85 272.308 670.85C273.701 670.85 274.856 670.502 275.773 669.805C276.689 669.108 277.294 668.21 277.588 667.11H287.543C287.139 669.273 286.259 671.217 284.903 672.94C283.546 674.627 281.823 675.965 279.733 676.955C277.643 677.908 275.314 678.385 272.748 678.385C269.741 678.385 267.064 677.762 264.718 676.515C262.408 675.232 260.593 673.398 259.273 671.015C257.953 668.632 257.293 665.845 257.293 662.655C257.293 659.428 257.934 656.642 259.218 654.295C260.538 651.912 262.371 650.097 264.718 648.85C267.064 647.567 269.741 646.925 272.748 646.925C275.791 646.925 278.468 647.548 280.778 648.795C283.088 650.042 284.866 651.802 286.113 654.075C287.396 656.312 288.038 658.897 288.038 661.83ZM278.523 660.4C278.559 658.383 278.009 656.88 276.873 655.89C275.773 654.863 274.398 654.35 272.748 654.35C271.024 654.35 269.594 654.863 268.458 655.89C267.321 656.917 266.679 658.42 266.533 660.4H278.523ZM302.345 653.085C303.519 651.215 305.022 649.73 306.855 648.63C308.725 647.53 310.742 646.98 312.905 646.98V657.045H310.21C307.717 657.045 305.774 657.577 304.38 658.64C303.024 659.703 302.345 661.5 302.345 664.03V678H292.94V647.31H302.345V653.085ZM323.937 647.31L331.307 666.12L338.182 647.31H348.577L329.437 692.63H319.097L326.302 676.845L313.432 647.31H323.937ZM366.055 646.925C369.098 646.925 371.812 647.567 374.195 648.85C376.615 650.097 378.503 651.912 379.86 654.295C381.253 656.678 381.95 659.465 381.95 662.655C381.95 665.845 381.253 668.632 379.86 671.015C378.503 673.398 376.615 675.232 374.195 676.515C371.812 677.762 369.098 678.385 366.055 678.385C363.012 678.385 360.28 677.762 357.86 676.515C355.44 675.232 353.533 673.398 352.14 671.015C350.783 668.632 350.105 665.845 350.105 662.655C350.105 659.465 350.783 656.678 352.14 654.295C353.533 651.912 355.44 650.097 357.86 648.85C360.28 647.567 363.012 646.925 366.055 646.925ZM366.055 655.065C364.258 655.065 362.737 655.725 361.49 657.045C360.28 658.328 359.675 660.198 359.675 662.655C359.675 665.112 360.28 666.982 361.49 668.265C362.737 669.548 364.258 670.19 366.055 670.19C367.852 670.19 369.355 669.548 370.565 668.265C371.775 666.982 372.38 665.112 372.38 662.655C372.38 660.198 371.775 658.328 370.565 657.045C369.355 655.725 367.852 655.065 366.055 655.065ZM406.297 646.98C409.817 646.98 412.604 648.153 414.657 650.5C416.747 652.847 417.792 656.073 417.792 660.18V678H408.387V661.28C408.387 659.227 407.837 657.632 406.737 656.495C405.674 655.322 404.244 654.735 402.447 654.735C400.54 654.735 399.019 655.34 397.882 656.55C396.782 657.76 396.232 659.483 396.232 661.72V678H386.827V647.31H396.232V652.92C397.112 651.087 398.414 649.638 400.137 648.575C401.897 647.512 403.95 646.98 406.297 646.98ZM453.145 661.83C453.145 662.6 453.053 663.443 452.87 664.36H431.585C431.695 666.67 432.282 668.338 433.345 669.365C434.408 670.355 435.765 670.85 437.415 670.85C438.808 670.85 439.963 670.502 440.88 669.805C441.797 669.108 442.402 668.21 442.695 667.11H452.65C452.247 669.273 451.367 671.217 450.01 672.94C448.653 674.627 446.93 675.965 444.84 676.955C442.75 677.908 440.422 678.385 437.855 678.385C434.848 678.385 432.172 677.762 429.825 676.515C427.515 675.232 425.7 673.398 424.38 671.015C423.06 668.632 422.4 665.845 422.4 662.655C422.4 659.428 423.042 656.642 424.325 654.295C425.645 651.912 427.478 650.097 429.825 648.85C432.172 647.567 434.848 646.925 437.855 646.925C440.898 646.925 443.575 647.548 445.885 648.795C448.195 650.042 449.973 651.802 451.22 654.075C452.503 656.312 453.145 658.897 453.145 661.83ZM443.63 660.4C443.667 658.383 443.117 656.88 441.98 655.89C440.88 654.863 439.505 654.35 437.855 654.35C436.132 654.35 434.702 654.863 433.565 655.89C432.428 656.917 431.787 658.42 431.64 660.4H443.63ZM487.648 678L478.463 664.965V678H469.058V637.3H478.463V659.63L487.648 647.31H498.703L486.328 662.655L498.978 678H487.648ZM521.883 646.98C525.403 646.98 528.19 648.153 530.243 650.5C532.333 652.847 533.378 656.073 533.378 660.18V678H523.973V661.28C523.973 659.227 523.423 657.632 522.323 656.495C521.26 655.322 519.83 654.735 518.033 654.735C516.126 654.735 514.605 655.34 513.468 656.55C512.368 657.76 511.818 659.483 511.818 661.72V678H502.413V647.31H511.818V652.92C512.698 651.087 514 649.638 515.723 648.575C517.483 647.512 519.536 646.98 521.883 646.98ZM553.936 646.925C556.979 646.925 559.693 647.567 562.076 648.85C564.496 650.097 566.384 651.912 567.741 654.295C569.134 656.678 569.831 659.465 569.831 662.655C569.831 665.845 569.134 668.632 567.741 671.015C566.384 673.398 564.496 675.232 562.076 676.515C559.693 677.762 556.979 678.385 553.936 678.385C550.893 678.385 548.161 677.762 545.741 676.515C543.321 675.232 541.414 673.398 540.021 671.015C538.664 668.632 537.986 665.845 537.986 662.655C537.986 659.465 538.664 656.678 540.021 654.295C541.414 651.912 543.321 650.097 545.741 648.85C548.161 647.567 550.893 646.925 553.936 646.925ZM553.936 655.065C552.139 655.065 550.618 655.725 549.371 657.045C548.161 658.328 547.556 660.198 547.556 662.655C547.556 665.112 548.161 666.982 549.371 668.265C550.618 669.548 552.139 670.19 553.936 670.19C555.733 670.19 557.236 669.548 558.446 668.265C559.656 666.982 560.261 665.112 560.261 662.655C560.261 660.198 559.656 658.328 558.446 657.045C557.236 655.725 555.733 655.065 553.936 655.065ZM619.588 647.31L611.723 678H601.218L595.663 657.43L590.053 678H579.548L571.683 647.31H581.088L585.158 669.42L590.878 647.31H600.888L606.773 669.475L610.843 647.31H619.588ZM634.159 646.925C638.046 646.925 641.144 647.897 643.454 649.84C645.801 651.783 647.267 654.35 647.854 657.54H639.054C638.797 656.293 638.211 655.322 637.294 654.625C636.414 653.892 635.296 653.525 633.939 653.525C632.876 653.525 632.069 653.763 631.519 654.24C630.969 654.68 630.694 655.322 630.694 656.165C630.694 657.118 631.189 657.833 632.179 658.31C633.206 658.787 634.801 659.263 636.964 659.74C639.311 660.29 641.236 660.858 642.739 661.445C644.242 661.995 645.544 662.912 646.644 664.195C647.744 665.478 648.294 667.202 648.294 669.365C648.294 671.125 647.817 672.683 646.864 674.04C645.911 675.397 644.536 676.46 642.739 677.23C640.942 678 638.816 678.385 636.359 678.385C632.216 678.385 628.897 677.468 626.404 675.635C623.911 673.802 622.389 671.18 621.839 667.77H630.914C631.061 669.09 631.611 670.098 632.564 670.795C633.554 671.492 634.819 671.84 636.359 671.84C637.422 671.84 638.229 671.602 638.779 671.125C639.329 670.612 639.604 669.952 639.604 669.145C639.604 668.082 639.091 667.33 638.064 666.89C637.074 666.413 635.442 665.918 633.169 665.405C630.896 664.928 629.026 664.415 627.559 663.865C626.092 663.315 624.827 662.435 623.764 661.225C622.701 659.978 622.169 658.292 622.169 656.165C622.169 653.415 623.214 651.197 625.304 649.51C627.394 647.787 630.346 646.925 634.159 646.925ZM681.893 669.915V678H677.658C674.064 678 671.259 677.12 669.243 675.36C667.263 673.563 666.273 670.612 666.273 666.505V655.23H662.148V647.31H666.273V639.775H675.678V647.31H681.838V655.23H675.678V666.67C675.678 667.88 675.916 668.723 676.393 669.2C676.906 669.677 677.749 669.915 678.923 669.915H681.893ZM706.649 646.98C710.169 646.98 712.955 648.153 715.009 650.5C717.099 652.847 718.144 656.073 718.144 660.18V678H708.739V661.28C708.739 659.227 708.189 657.632 707.089 656.495C706.025 655.322 704.595 654.735 702.799 654.735C700.892 654.735 699.37 655.34 698.234 656.55C697.134 657.76 696.584 659.483 696.584 661.72V678H687.179V637.3H696.584V652.92C697.464 651.087 698.765 649.638 700.489 648.575C702.249 647.512 704.302 646.98 706.649 646.98ZM753.497 661.83C753.497 662.6 753.405 663.443 753.222 664.36H731.937C732.047 666.67 732.633 668.338 733.697 669.365C734.76 670.355 736.117 670.85 737.767 670.85C739.16 670.85 740.315 670.502 741.232 669.805C742.148 669.108 742.753 668.21 743.047 667.11H753.002C752.598 669.273 751.718 671.217 750.362 672.94C749.005 674.627 747.282 675.965 745.192 676.955C743.102 677.908 740.773 678.385 738.207 678.385C735.2 678.385 732.523 677.762 730.177 676.515C727.867 675.232 726.052 673.398 724.732 671.015C723.412 668.632 722.752 665.845 722.752 662.655C722.752 659.428 723.393 656.642 724.677 654.295C725.997 651.912 727.83 650.097 730.177 648.85C732.523 647.567 735.2 646.925 738.207 646.925C741.25 646.925 743.927 647.548 746.237 648.795C748.547 650.042 750.325 651.802 751.572 654.075C752.855 656.312 753.497 658.897 753.497 661.83ZM743.982 660.4C744.018 658.383 743.468 656.88 742.332 655.89C741.232 654.863 739.857 654.35 738.207 654.35C736.483 654.35 735.053 654.863 733.917 655.89C732.78 656.917 732.138 658.42 731.992 660.4H743.982ZM765.494 647.31L772.864 666.12L779.739 647.31H790.134L770.994 692.63H760.654L767.859 676.845L754.989 647.31H765.494ZM99.715 729.98C103.235 729.98 106.022 731.153 108.075 733.5C110.165 735.847 111.21 739.073 111.21 743.18V761H101.805V744.28C101.805 742.227 101.255 740.632 100.155 739.495C99.0917 738.322 97.6617 737.735 95.865 737.735C93.9583 737.735 92.4367 738.34 91.3 739.55C90.2 740.76 89.65 742.483 89.65 744.72V761H80.245V720.3H89.65V735.92C90.53 734.087 91.8317 732.638 93.555 731.575C95.315 730.512 97.3683 729.98 99.715 729.98ZM129.073 729.925C131.42 729.925 133.436 730.457 135.123 731.52C136.81 732.583 138.056 734.032 138.863 735.865V730.31H148.213V761H138.863V755.445C138.056 757.278 136.81 758.727 135.123 759.79C133.436 760.853 131.42 761.385 129.073 761.385C126.543 761.385 124.27 760.762 122.253 759.515C120.273 758.232 118.696 756.398 117.523 754.015C116.386 751.632 115.818 748.845 115.818 745.655C115.818 742.428 116.386 739.642 117.523 737.295C118.696 734.912 120.273 733.097 122.253 731.85C124.27 730.567 126.543 729.925 129.073 729.925ZM132.098 738.175C130.081 738.175 128.45 738.835 127.203 740.155C125.993 741.475 125.388 743.308 125.388 745.655C125.388 748.002 125.993 749.835 127.203 751.155C128.45 752.475 130.081 753.135 132.098 753.135C134.078 753.135 135.691 752.457 136.938 751.1C138.221 749.743 138.863 747.928 138.863 745.655C138.863 743.345 138.221 741.53 136.938 740.21C135.691 738.853 134.078 738.175 132.098 738.175ZM168.878 751.815L175.533 730.31H185.543L174.653 761H162.993L152.103 730.31H162.113L168.878 751.815ZM218.589 744.83C218.589 745.6 218.498 746.443 218.314 747.36H197.029C197.139 749.67 197.726 751.338 198.789 752.365C199.853 753.355 201.209 753.85 202.859 753.85C204.253 753.85 205.408 753.502 206.324 752.805C207.241 752.108 207.846 751.21 208.139 750.11H218.094C217.691 752.273 216.811 754.217 215.454 755.94C214.098 757.627 212.374 758.965 210.284 759.955C208.194 760.908 205.866 761.385 203.299 761.385C200.293 761.385 197.616 760.762 195.269 759.515C192.959 758.232 191.144 756.398 189.824 754.015C188.504 751.632 187.844 748.845 187.844 745.655C187.844 742.428 188.486 739.642 189.769 737.295C191.089 734.912 192.923 733.097 195.269 731.85C197.616 730.567 200.293 729.925 203.299 729.925C206.343 729.925 209.019 730.548 211.329 731.795C213.639 733.042 215.418 734.802 216.664 737.075C217.948 739.312 218.589 741.897 218.589 744.83ZM209.074 743.4C209.111 741.383 208.561 739.88 207.424 738.89C206.324 737.863 204.949 737.35 203.299 737.35C201.576 737.35 200.146 737.863 199.009 738.89C197.873 739.917 197.231 741.42 197.084 743.4H209.074ZM233.623 721.675C233.623 720.245 234.136 719.072 235.163 718.155C236.189 717.202 237.546 716.725 239.233 716.725C240.919 716.725 242.276 717.202 243.303 718.155C244.329 719.072 244.843 720.245 244.843 721.675C244.843 723.068 244.329 724.242 243.303 725.195C242.276 726.112 240.919 726.57 239.233 726.57C237.546 726.57 236.189 726.112 235.163 725.195C234.136 724.242 233.623 723.068 233.623 721.675ZM243.908 730.31V761H234.503V730.31H243.908ZM267.781 752.915V761H263.546C259.953 761 257.148 760.12 255.131 758.36C253.151 756.563 252.161 753.612 252.161 749.505V738.23H248.036V730.31H252.161V722.775H261.566V730.31H267.726V738.23H261.566V749.67C261.566 750.88 261.805 751.723 262.281 752.2C262.795 752.677 263.638 752.915 264.811 752.915H267.781Z" fill="white"/>
<circle cx="468.5" cy="865.5" r="118.5" fill="#802525"/>
<circle cx="468.5" cy="865.5" r="118.5" stroke="white"/>
<path d="M423.011 850.122C423.011 854.136 421.795 857.549 419.363 860.361C416.932 863.174 413.519 865.107 409.124 866.162V866.426C414.31 867.07 418.235 868.652 420.901 871.172C423.567 873.662 424.9 877.031 424.9 881.279C424.9 887.461 422.659 892.28 418.177 895.737C413.694 899.165 407.293 900.879 398.973 900.879C392 900.879 385.818 899.722 380.428 897.407V885.85C382.918 887.109 385.657 888.135 388.646 888.926C391.634 889.717 394.593 890.112 397.522 890.112C402.005 890.112 405.315 889.351 407.454 887.827C409.593 886.304 410.662 883.857 410.662 880.488C410.662 877.471 409.432 875.332 406.971 874.072C404.51 872.812 400.584 872.183 395.193 872.183H390.315V861.768H395.281C400.262 861.768 403.895 861.123 406.18 859.834C408.494 858.516 409.651 856.274 409.651 853.11C409.651 848.247 406.604 845.815 400.511 845.815C398.401 845.815 396.248 846.167 394.051 846.87C391.883 847.573 389.466 848.789 386.8 850.518L380.516 841.157C386.375 836.938 393.362 834.829 401.478 834.829C408.128 834.829 413.372 836.177 417.21 838.872C421.077 841.567 423.011 845.317 423.011 850.122ZM474.427 850.122C474.427 854.136 473.211 857.549 470.779 860.361C468.348 863.174 464.935 865.107 460.54 866.162V866.426C465.726 867.07 469.651 868.652 472.317 871.172C474.983 873.662 476.316 877.031 476.316 881.279C476.316 887.461 474.075 892.28 469.593 895.737C465.11 899.165 458.709 900.879 450.389 900.879C443.416 900.879 437.234 899.722 431.844 897.407V885.85C434.334 887.109 437.073 888.135 440.062 888.926C443.05 889.717 446.009 890.112 448.938 890.112C453.421 890.112 456.731 889.351 458.87 887.827C461.009 886.304 462.078 883.857 462.078 880.488C462.078 877.471 460.848 875.332 458.387 874.072C455.926 872.812 452 872.183 446.609 872.183H441.731V861.768H446.697C451.678 861.768 455.311 861.123 457.596 859.834C459.91 858.516 461.067 856.274 461.067 853.11C461.067 848.247 458.021 845.815 451.927 845.815C449.817 845.815 447.664 846.167 445.467 846.87C443.299 847.573 440.882 848.789 438.216 850.518L431.932 841.157C437.791 836.938 444.778 834.829 452.894 834.829C459.544 834.829 464.788 836.177 468.626 838.872C472.493 841.567 474.427 845.317 474.427 850.122ZM493.675 855C493.675 858.721 493.997 861.504 494.642 863.35C495.315 865.166 496.385 866.074 497.85 866.074C500.662 866.074 502.068 862.383 502.068 855C502.068 847.676 500.662 844.014 497.85 844.014C496.385 844.014 495.315 844.922 494.642 846.738C493.997 848.525 493.675 851.279 493.675 855ZM513.143 854.912C513.143 861.65 511.839 866.719 509.231 870.117C506.624 873.486 502.801 875.171 497.762 875.171C492.928 875.171 489.192 873.442 486.556 869.985C483.919 866.499 482.601 861.475 482.601 854.912C482.601 841.523 487.654 834.829 497.762 834.829C502.713 834.829 506.507 836.572 509.144 840.059C511.81 843.516 513.143 848.467 513.143 854.912ZM543.377 835.752L507.737 900H497.19L532.83 835.752H543.377ZM538.675 880.664C538.675 884.385 538.997 887.168 539.642 889.014C540.315 890.83 541.385 891.738 542.85 891.738C545.662 891.738 547.068 888.047 547.068 880.664C547.068 873.34 545.662 869.678 542.85 869.678C541.385 869.678 540.315 870.586 539.642 872.402C538.997 874.189 538.675 876.943 538.675 880.664ZM558.143 880.576C558.143 887.285 556.839 892.339 554.231 895.737C551.624 899.106 547.801 900.791 542.762 900.791C537.928 900.791 534.192 899.062 531.556 895.605C528.919 892.119 527.601 887.109 527.601 880.576C527.601 867.188 532.654 860.493 542.762 860.493C547.713 860.493 551.507 862.236 554.144 865.723C556.81 869.18 558.143 874.131 558.143 880.576Z" fill="white"/>
</svg>
