<svg width="1129" height="809" viewBox="0 0 1129 809" fill="none" xmlns="http://www.w3.org/2000/svg">
<g clip-path="url(#clip0)">
<rect width="1129" height="809" fill="#DEDEDE"/>
<path d="M104.137 248H98.4414V211.367C98.4414 208.484 98.5352 205.602 98.7227 202.719C98.2305 203.234 97.75 203.691 97.2812 204.09C96.8359 204.488 93.9766 206.832 88.7031 211.121L85.6094 207.113L99.2148 196.602H104.137V248ZM138.766 228.629C134.219 228.629 130.609 227.281 127.938 224.586C125.266 221.867 123.93 218.07 123.93 213.195C123.93 207.805 125.418 203.574 128.395 200.504C131.371 197.41 135.309 195.863 140.207 195.863C140.324 195.863 140.441 195.863 140.559 195.863C145.645 195.863 149.734 197.879 152.828 201.91C155.945 205.941 157.504 211.379 157.504 218.223C157.504 218.34 157.504 218.445 157.504 218.539C157.504 238.648 149.723 248.703 134.16 248.703C131.465 248.703 129.309 248.469 127.691 248V242.973C129.59 243.582 131.723 243.887 134.09 243.887C139.715 243.887 143.957 242.152 146.816 238.684C149.699 235.191 151.27 229.848 151.527 222.652H151.105C149.84 224.598 148.141 226.086 146.008 227.117C143.875 228.125 141.461 228.629 138.766 228.629ZM140.207 200.855C136.855 200.855 134.266 201.934 132.438 204.09C130.609 206.223 129.695 209.117 129.695 212.773C129.695 216.43 130.551 219.207 132.262 221.105C133.996 223.004 136.551 223.953 139.926 223.953C140.066 223.953 140.207 223.953 140.348 223.953C143.324 223.953 145.938 223.004 148.188 221.105C150.461 219.184 151.598 217.016 151.598 214.602C151.598 214.531 151.598 214.461 151.598 214.391C151.621 211.953 151.152 209.691 150.191 207.605C149.23 205.52 147.883 203.879 146.148 202.684C144.414 201.465 142.516 200.855 140.453 200.855C140.359 200.855 140.277 200.855 140.207 200.855ZM179.969 228.629C175.422 228.629 171.812 227.281 169.141 224.586C166.469 221.867 165.133 218.07 165.133 213.195C165.133 207.805 166.621 203.574 169.598 200.504C172.574 197.41 176.512 195.863 181.41 195.863C181.527 195.863 181.645 195.863 181.762 195.863C186.848 195.863 190.938 197.879 194.031 201.91C197.148 205.941 198.707 211.379 198.707 218.223C198.707 218.34 198.707 218.445 198.707 218.539C198.707 238.648 190.926 248.703 175.363 248.703C172.668 248.703 170.512 248.469 168.895 248V242.973C170.793 243.582 172.926 243.887 175.293 243.887C180.918 243.887 185.16 242.152 188.02 238.684C190.902 235.191 192.473 229.848 192.73 222.652H192.309C191.043 224.598 189.344 226.086 187.211 227.117C185.078 228.125 182.664 228.629 179.969 228.629ZM181.41 200.855C178.059 200.855 175.469 201.934 173.641 204.09C171.812 206.223 170.898 209.117 170.898 212.773C170.898 216.43 171.754 219.207 173.465 221.105C175.199 223.004 177.754 223.953 181.129 223.953C181.27 223.953 181.41 223.953 181.551 223.953C184.527 223.953 187.141 223.004 189.391 221.105C191.664 219.184 192.801 217.016 192.801 214.602C192.801 214.531 192.801 214.461 192.801 214.391C192.824 211.953 192.355 209.691 191.395 207.605C190.434 205.52 189.086 203.879 187.352 202.684C185.617 201.465 183.719 200.855 181.656 200.855C181.562 200.855 181.48 200.855 181.41 200.855ZM225.355 215.973C229.973 215.973 233.605 217.367 236.254 220.156C238.926 222.922 240.262 226.707 240.262 231.512C240.262 236.855 238.797 241.062 235.867 244.133C232.961 247.18 228.941 248.703 223.809 248.703C218.676 248.703 214.539 246.711 211.398 242.727C208.281 238.742 206.723 233.176 206.723 226.027C206.723 205.918 214.492 195.863 230.031 195.863C232.727 195.863 234.812 196.086 236.289 196.531V201.559C234.531 200.973 232.469 200.68 230.102 200.68C224.547 200.68 220.328 202.414 217.445 205.883C214.562 209.352 212.98 214.73 212.699 222.02H213.121C215.676 217.988 219.754 215.973 225.355 215.973ZM223.844 220.578C220.961 220.578 218.371 221.551 216.074 223.496C213.777 225.441 212.652 227.68 212.699 230.211C212.676 232.602 213.133 234.84 214.07 236.926C215.031 239.012 216.367 240.676 218.078 241.918C219.812 243.137 221.699 243.746 223.738 243.746C223.832 243.746 223.914 243.746 223.984 243.746C227.336 243.746 229.926 242.691 231.754 240.582C233.582 238.473 234.496 235.578 234.496 231.898C234.496 228.195 233.629 225.383 231.895 223.461C230.16 221.539 227.617 220.578 224.266 220.578C224.125 220.578 223.984 220.578 223.844 220.578Z" fill="black"/>
<path d="M91.6523 457.863C96.5039 457.863 100.289 459.105 103.008 461.59C105.727 464.027 107.086 467.344 107.086 471.539C107.086 474.773 106.184 477.984 104.379 481.172C102.574 484.359 99.1523 488.402 94.1133 493.301L82.8633 504.305V504.586H109.301V510H75.4805V504.973L89.0508 491.367C93.3164 487.031 96.0703 484.008 97.3125 482.297C98.5547 480.586 99.5039 478.91 100.16 477.27C100.816 475.629 101.145 473.801 101.145 471.785C101.145 469.02 100.301 466.84 98.6133 465.246C96.9492 463.652 94.6523 462.855 91.7227 462.855C89.5898 462.855 87.5625 463.207 85.6406 463.91C83.7422 464.613 81.6211 465.891 79.2773 467.742L76.1836 463.77C80.918 459.832 86.0742 457.863 91.6523 457.863ZM116.789 484.055C116.789 475.242 118.184 468.668 120.973 464.332C123.762 459.973 127.969 457.793 133.594 457.793C139.242 457.793 143.52 460.055 146.426 464.578C149.332 469.078 150.785 475.711 150.785 484.477C150.785 493.219 149.379 499.781 146.566 504.164C143.754 508.523 139.523 510.703 133.875 510.703C128.25 510.703 123.996 508.465 121.113 503.988C118.23 499.488 116.789 492.844 116.789 484.055ZM142.172 468.023C140.438 464.578 137.637 462.855 133.77 462.855C129.902 462.855 127.09 464.555 125.332 467.953C123.574 471.328 122.695 476.754 122.695 484.23C122.695 491.707 123.574 497.156 125.332 500.578C127.09 503.977 129.902 505.676 133.77 505.676C137.637 505.676 140.438 503.953 142.172 500.508C143.93 497.039 144.809 491.613 144.809 484.23C144.809 476.848 143.93 471.445 142.172 468.023ZM187.805 463.98H167.238L165.938 479.414C168.703 478.875 171.387 478.605 173.988 478.605C179.426 478.605 183.68 479.953 186.75 482.648C189.867 485.32 191.426 488.988 191.426 493.652C191.426 498.973 189.727 503.145 186.328 506.168C182.953 509.191 178.324 510.703 172.441 510.703C166.582 510.703 162.129 509.777 159.082 507.926V502.301C160.77 503.379 162.797 504.211 165.164 504.797C167.555 505.383 169.969 505.676 172.406 505.676C176.555 505.676 179.766 504.703 182.039 502.758C184.312 500.789 185.449 497.977 185.449 494.32C185.449 487.148 181.055 483.562 172.266 483.562C170.109 483.562 167.133 483.902 163.336 484.582L160.312 482.648L162.246 458.602H187.805V463.98ZM199.195 484.055C199.195 475.242 200.59 468.668 203.379 464.332C206.168 459.973 210.375 457.793 216 457.793C221.648 457.793 225.926 460.055 228.832 464.578C231.738 469.078 233.191 475.711 233.191 484.477C233.191 493.219 231.785 499.781 228.973 504.164C226.16 508.523 221.93 510.703 216.281 510.703C210.656 510.703 206.402 508.465 203.52 503.988C200.637 499.488 199.195 492.844 199.195 484.055ZM224.578 468.023C222.844 464.578 220.043 462.855 216.176 462.855C212.309 462.855 209.496 464.555 207.738 467.953C205.98 471.328 205.102 476.754 205.102 484.23C205.102 491.707 205.98 497.156 207.738 500.578C209.496 503.977 212.309 505.676 216.176 505.676C220.043 505.676 222.844 503.953 224.578 500.508C226.336 497.039 227.215 491.613 227.215 484.23C227.215 476.848 226.336 471.445 224.578 468.023Z" fill="black"/>
<path d="M906.652 195.863C911.504 195.863 915.289 197.105 918.008 199.59C920.727 202.027 922.086 205.344 922.086 209.539C922.086 212.773 921.184 215.984 919.379 219.172C917.574 222.359 914.152 226.402 909.113 231.301L897.863 242.305V242.586H924.301V248H890.48V242.973L904.051 229.367C908.316 225.031 911.07 222.008 912.312 220.297C913.555 218.586 914.504 216.91 915.16 215.27C915.816 213.629 916.145 211.801 916.145 209.785C916.145 207.02 915.301 204.84 913.613 203.246C911.949 201.652 909.652 200.855 906.723 200.855C904.59 200.855 902.562 201.207 900.641 201.91C898.742 202.613 896.621 203.891 894.277 205.742L891.184 201.77C895.918 197.832 901.074 195.863 906.652 195.863ZM931.789 222.055C931.789 213.242 933.184 206.668 935.973 202.332C938.762 197.973 942.969 195.793 948.594 195.793C954.242 195.793 958.52 198.055 961.426 202.578C964.332 207.078 965.785 213.711 965.785 222.477C965.785 231.219 964.379 237.781 961.566 242.164C958.754 246.523 954.523 248.703 948.875 248.703C943.25 248.703 938.996 246.465 936.113 241.988C933.23 237.488 931.789 230.844 931.789 222.055ZM957.172 206.023C955.438 202.578 952.637 200.855 948.77 200.855C944.902 200.855 942.09 202.555 940.332 205.953C938.574 209.328 937.695 214.754 937.695 222.23C937.695 229.707 938.574 235.156 940.332 238.578C942.09 241.977 944.902 243.676 948.77 243.676C952.637 243.676 955.438 241.953 957.172 238.508C958.93 235.039 959.809 229.613 959.809 222.23C959.809 214.848 958.93 209.445 957.172 206.023ZM994.543 248H988.848V211.367C988.848 208.484 988.941 205.602 989.129 202.719C988.637 203.234 988.156 203.691 987.688 204.09C987.242 204.488 984.383 206.832 979.109 211.121L976.016 207.113L989.621 196.602H994.543V248ZM1015.95 208.098C1015.95 204.371 1017.34 201.406 1020.1 199.203C1022.87 196.977 1026.57 195.863 1031.21 195.863C1035.85 195.863 1039.54 196.965 1042.29 199.168C1045.03 201.348 1046.4 204.348 1046.4 208.168C1046.4 210.746 1045.6 213.078 1044.01 215.164C1042.41 217.227 1039.92 219.102 1036.52 220.789C1040.74 222.805 1043.69 224.902 1045.38 227.082C1047.16 229.238 1048.05 231.77 1048.05 234.676C1048.05 238.941 1046.56 242.352 1043.59 244.906C1040.59 247.438 1036.43 248.703 1031.11 248.703C1025.79 248.703 1021.65 247.508 1018.7 245.117C1015.74 242.703 1014.27 239.293 1014.27 234.887C1014.27 229.004 1017.85 224.422 1025.02 221.141C1021.84 219.336 1019.53 217.391 1018.1 215.305C1016.67 213.195 1015.95 210.793 1015.95 208.098ZM1038.07 202.719C1036.38 201.312 1034.05 200.609 1031.07 200.609C1028.12 200.609 1025.81 201.312 1024.14 202.719C1022.5 204.125 1021.68 205.953 1021.68 208.203C1021.68 210.43 1022.38 212.34 1023.76 213.934C1025.14 215.457 1027.7 216.992 1031.42 218.539C1034.8 217.109 1037.18 215.598 1038.56 214.004C1039.94 212.387 1040.63 210.441 1040.63 208.168C1040.63 205.895 1039.78 204.078 1038.07 202.719ZM1029.98 223.531C1026.49 225.031 1023.96 226.695 1022.39 228.523C1020.82 230.328 1020.03 232.566 1020.03 235.238C1020.03 237.91 1021 240.031 1022.95 241.602C1024.92 243.172 1027.66 243.957 1031.18 243.957C1034.69 243.957 1037.42 243.148 1039.37 241.531C1041.31 239.891 1042.29 237.629 1042.29 234.746C1042.29 232.473 1041.37 230.457 1039.54 228.699C1037.71 226.918 1034.53 225.195 1029.98 223.531Z" fill="black"/>
<path d="M127.164 320.876C127.164 332.097 125.318 340.402 121.627 345.793C117.965 351.184 112.311 353.879 104.664 353.879C97.252 353.879 91.6562 351.096 87.877 345.529C84.127 339.963 82.252 331.745 82.252 320.876C82.252 309.538 84.083 301.188 87.7451 295.827C91.4072 290.437 97.0469 287.741 104.664 287.741C112.076 287.741 117.672 290.554 121.451 296.179C125.26 301.804 127.164 310.036 127.164 320.876ZM95.7432 320.876C95.7432 328.757 96.417 334.411 97.7646 337.839C99.1416 341.237 101.441 342.937 104.664 342.937C107.828 342.937 110.113 341.208 111.52 337.751C112.926 334.294 113.629 328.669 113.629 320.876C113.629 312.995 112.911 307.341 111.476 303.913C110.069 300.456 107.799 298.728 104.664 298.728C101.471 298.728 99.1855 300.456 97.8086 303.913C96.4316 307.341 95.7432 312.995 95.7432 320.876ZM150.587 343.552C149.063 349.47 146.485 356.486 142.853 364.602H133.185C135.089 356.809 136.568 349.455 137.623 342.541H149.928L150.587 343.552ZM193.697 353H180.118V315.822L180.25 309.714L180.47 303.034C178.214 305.29 176.646 306.77 175.768 307.473L168.385 313.405L161.837 305.231L182.535 288.752H193.697V353ZM256.451 353H211.539V343.552L227.667 327.248C232.442 322.355 235.562 318.972 237.027 317.097C238.492 315.192 239.547 313.435 240.191 311.823C240.836 310.212 241.158 308.542 241.158 306.813C241.158 304.235 240.44 302.316 239.005 301.057C237.599 299.797 235.709 299.167 233.336 299.167C230.846 299.167 228.429 299.738 226.085 300.881C223.741 302.023 221.295 303.649 218.746 305.759L211.363 297.014C214.527 294.318 217.149 292.414 219.229 291.301C221.31 290.188 223.58 289.338 226.041 288.752C228.502 288.137 231.256 287.829 234.303 287.829C238.316 287.829 241.861 288.562 244.938 290.026C248.014 291.491 250.401 293.542 252.101 296.179C253.8 298.815 254.649 301.833 254.649 305.231C254.649 308.19 254.122 310.974 253.067 313.581C252.042 316.159 250.431 318.811 248.233 321.535C246.065 324.26 242.228 328.142 236.72 333.181L228.458 340.959V341.574H256.451V353ZM273.194 308C273.194 311.721 273.517 314.504 274.161 316.35C274.835 318.166 275.904 319.074 277.369 319.074C280.182 319.074 281.588 315.383 281.588 308C281.588 300.676 280.182 297.014 277.369 297.014C275.904 297.014 274.835 297.922 274.161 299.738C273.517 301.525 273.194 304.279 273.194 308ZM292.662 307.912C292.662 314.65 291.358 319.719 288.751 323.117C286.144 326.486 282.32 328.171 277.281 328.171C272.447 328.171 268.712 326.442 266.075 322.985C263.438 319.499 262.12 314.475 262.12 307.912C262.12 294.523 267.174 287.829 277.281 287.829C282.232 287.829 286.026 289.572 288.663 293.059C291.329 296.516 292.662 301.467 292.662 307.912ZM322.896 288.752L287.257 353H276.71L312.35 288.752H322.896ZM318.194 333.664C318.194 337.385 318.517 340.168 319.161 342.014C319.835 343.83 320.904 344.738 322.369 344.738C325.182 344.738 326.588 341.047 326.588 333.664C326.588 326.34 325.182 322.678 322.369 322.678C320.904 322.678 319.835 323.586 319.161 325.402C318.517 327.189 318.194 329.943 318.194 333.664ZM337.662 333.576C337.662 340.285 336.358 345.339 333.751 348.737C331.144 352.106 327.32 353.791 322.281 353.791C317.447 353.791 313.712 352.062 311.075 348.605C308.438 345.119 307.12 340.109 307.12 333.576C307.12 320.188 312.174 313.493 322.281 313.493C327.232 313.493 331.026 315.236 333.663 318.723C336.329 322.18 337.662 327.131 337.662 333.576Z" fill="#19ADB7"/>
<path d="M936.966 330.685H929.231V344H915.96V330.685H888.538V321.236L916.707 279.752H929.231V320.138H936.966V330.685ZM915.96 320.138V309.239C915.96 307.423 916.033 304.786 916.18 301.329C916.326 297.872 916.443 295.865 916.531 295.309H916.18C915.096 297.711 913.792 300.055 912.269 302.34L900.491 320.138H915.96ZM952.259 299C952.259 302.721 952.581 305.504 953.226 307.35C953.899 309.166 954.969 310.074 956.434 310.074C959.246 310.074 960.652 306.383 960.652 299C960.652 291.676 959.246 288.014 956.434 288.014C954.969 288.014 953.899 288.922 953.226 290.738C952.581 292.525 952.259 295.279 952.259 299ZM971.727 298.912C971.727 305.65 970.423 310.719 967.815 314.117C965.208 317.486 961.385 319.171 956.346 319.171C951.512 319.171 947.776 317.442 945.14 313.985C942.503 310.499 941.185 305.475 941.185 298.912C941.185 285.523 946.238 278.829 956.346 278.829C961.297 278.829 965.091 280.572 967.728 284.059C970.394 287.516 971.727 292.467 971.727 298.912ZM1001.96 279.752L966.321 344H955.774L991.414 279.752H1001.96ZM997.259 324.664C997.259 328.385 997.581 331.168 998.226 333.014C998.899 334.83 999.969 335.738 1001.43 335.738C1004.25 335.738 1005.65 332.047 1005.65 324.664C1005.65 317.34 1004.25 313.678 1001.43 313.678C999.969 313.678 998.899 314.586 998.226 316.402C997.581 318.189 997.259 320.943 997.259 324.664ZM1016.73 324.576C1016.73 331.285 1015.42 336.339 1012.82 339.737C1010.21 343.106 1006.38 344.791 1001.35 344.791C996.512 344.791 992.776 343.062 990.14 339.605C987.503 336.119 986.185 331.109 986.185 324.576C986.185 311.188 991.238 304.493 1001.35 304.493C1006.3 304.493 1010.09 306.236 1012.73 309.723C1015.39 313.18 1016.73 318.131 1016.73 324.576Z" fill="#E97E00"/>
<path d="M868.011 526.122C868.011 530.136 866.795 533.549 864.363 536.361C861.932 539.174 858.519 541.107 854.124 542.162V542.426C859.31 543.07 863.235 544.652 865.901 547.172C868.567 549.662 869.9 553.031 869.9 557.279C869.9 563.461 867.659 568.28 863.177 571.737C858.694 575.165 852.293 576.879 843.973 576.879C837 576.879 830.818 575.722 825.428 573.407V561.85C827.918 563.109 830.657 564.135 833.646 564.926C836.634 565.717 839.593 566.112 842.522 566.112C847.005 566.112 850.315 565.351 852.454 563.827C854.593 562.304 855.662 559.857 855.662 556.488C855.662 553.471 854.432 551.332 851.971 550.072C849.51 548.812 845.584 548.183 840.193 548.183H835.315V537.768H840.281C845.262 537.768 848.895 537.123 851.18 535.834C853.494 534.516 854.651 532.274 854.651 529.11C854.651 524.247 851.604 521.815 845.511 521.815C843.401 521.815 841.248 522.167 839.051 522.87C836.883 523.573 834.466 524.789 831.8 526.518L825.516 517.157C831.375 512.938 838.362 510.829 846.478 510.829C853.128 510.829 858.372 512.177 862.21 514.872C866.077 517.567 868.011 521.317 868.011 526.122ZM919.427 526.122C919.427 530.136 918.211 533.549 915.779 536.361C913.348 539.174 909.935 541.107 905.54 542.162V542.426C910.726 543.07 914.651 544.652 917.317 547.172C919.983 549.662 921.316 553.031 921.316 557.279C921.316 563.461 919.075 568.28 914.593 571.737C910.11 575.165 903.709 576.879 895.389 576.879C888.416 576.879 882.234 575.722 876.844 573.407V561.85C879.334 563.109 882.073 564.135 885.062 564.926C888.05 565.717 891.009 566.112 893.938 566.112C898.421 566.112 901.731 565.351 903.87 563.827C906.009 562.304 907.078 559.857 907.078 556.488C907.078 553.471 905.848 551.332 903.387 550.072C900.926 548.812 897 548.183 891.609 548.183H886.731V537.768H891.697C896.678 537.768 900.311 537.123 902.596 535.834C904.91 534.516 906.067 532.274 906.067 529.11C906.067 524.247 903.021 521.815 896.927 521.815C894.817 521.815 892.664 522.167 890.467 522.87C888.299 523.573 885.882 524.789 883.216 526.518L876.932 517.157C882.791 512.938 889.778 510.829 897.894 510.829C904.544 510.829 909.788 512.177 913.626 514.872C917.493 517.567 919.427 521.317 919.427 526.122ZM938.675 531C938.675 534.721 938.997 537.504 939.642 539.35C940.315 541.166 941.385 542.074 942.85 542.074C945.662 542.074 947.068 538.383 947.068 531C947.068 523.676 945.662 520.014 942.85 520.014C941.385 520.014 940.315 520.922 939.642 522.738C938.997 524.525 938.675 527.279 938.675 531ZM958.143 530.912C958.143 537.65 956.839 542.719 954.231 546.117C951.624 549.486 947.801 551.171 942.762 551.171C937.928 551.171 934.192 549.442 931.556 545.985C928.919 542.499 927.601 537.475 927.601 530.912C927.601 517.523 932.654 510.829 942.762 510.829C947.713 510.829 951.507 512.572 954.144 516.059C956.81 519.516 958.143 524.467 958.143 530.912ZM988.377 511.752L952.737 576H942.19L977.83 511.752H988.377ZM983.675 556.664C983.675 560.385 983.997 563.168 984.642 565.014C985.315 566.83 986.385 567.738 987.85 567.738C990.662 567.738 992.068 564.047 992.068 556.664C992.068 549.34 990.662 545.678 987.85 545.678C986.385 545.678 985.315 546.586 984.642 548.402C983.997 550.189 983.675 552.943 983.675 556.664ZM1003.14 556.576C1003.14 563.285 1001.84 568.339 999.231 571.737C996.624 575.106 992.801 576.791 987.762 576.791C982.928 576.791 979.192 575.062 976.556 571.605C973.919 568.119 972.601 563.109 972.601 556.576C972.601 543.188 977.654 536.493 987.762 536.493C992.713 536.493 996.507 538.236 999.144 541.723C1001.81 545.18 1003.14 550.131 1003.14 556.576Z" fill="#E97E00"/>
<path d="M97.752 558.917C103.904 558.917 108.855 560.323 112.605 563.136C116.385 565.919 118.274 569.684 118.274 574.43C118.274 577.711 117.366 580.641 115.55 583.219C113.733 585.768 110.804 588.053 106.761 590.074C111.565 592.652 115.008 595.348 117.088 598.16C119.197 600.943 120.252 604.005 120.252 607.345C120.252 612.618 118.187 616.866 114.056 620.089C109.925 623.282 104.49 624.879 97.752 624.879C90.7207 624.879 85.1982 623.385 81.1846 620.396C77.1709 617.408 75.1641 613.175 75.1641 607.696C75.1641 604.034 76.1309 600.782 78.0645 597.94C80.0273 595.099 83.1621 592.594 87.4688 590.426C83.8066 588.111 81.1699 585.636 79.5586 582.999C77.9473 580.362 77.1416 577.477 77.1416 574.342C77.1416 569.742 79.0459 566.021 82.8545 563.18C86.6631 560.338 91.6289 558.917 97.752 558.917ZM87.7324 606.905C87.7324 609.425 88.6113 611.388 90.3691 612.794C92.127 614.2 94.5293 614.903 97.5762 614.903C100.945 614.903 103.465 614.186 105.135 612.75C106.805 611.285 107.64 609.366 107.64 606.993C107.64 605.03 106.805 603.199 105.135 601.5C103.494 599.771 100.813 597.94 97.0928 596.007C90.8525 598.878 87.7324 602.511 87.7324 606.905ZM97.6641 568.849C95.3496 568.849 93.4746 569.449 92.0391 570.65C90.6328 571.822 89.9297 573.404 89.9297 575.396C89.9297 577.154 90.4863 578.736 91.5996 580.143C92.7422 581.52 94.793 582.94 97.752 584.405C100.623 583.058 102.63 581.681 103.772 580.274C104.915 578.868 105.486 577.242 105.486 575.396C105.486 573.375 104.754 571.778 103.289 570.606C101.824 569.435 99.9492 568.849 97.6641 568.849ZM143.587 614.552C142.063 620.47 139.485 627.486 135.853 635.602H126.185C128.089 627.809 129.568 620.455 130.623 613.541H142.928L143.587 614.552ZM195.53 574.122C195.53 578.136 194.314 581.549 191.883 584.361C189.451 587.174 186.038 589.107 181.644 590.162V590.426C186.829 591.07 190.755 592.652 193.421 595.172C196.087 597.662 197.42 601.031 197.42 605.279C197.42 611.461 195.179 616.28 190.696 619.737C186.214 623.165 179.812 624.879 171.492 624.879C164.52 624.879 158.338 623.722 152.947 621.407V609.85C155.438 611.109 158.177 612.135 161.165 612.926C164.153 613.717 167.112 614.112 170.042 614.112C174.524 614.112 177.835 613.351 179.974 611.827C182.112 610.304 183.182 607.857 183.182 604.488C183.182 601.471 181.951 599.332 179.49 598.072C177.029 596.812 173.104 596.183 167.713 596.183H162.835V585.768H167.801C172.781 585.768 176.414 585.123 178.699 583.834C181.014 582.516 182.171 580.274 182.171 577.11C182.171 572.247 179.124 569.815 173.03 569.815C170.921 569.815 168.768 570.167 166.57 570.87C164.402 571.573 161.985 572.789 159.319 574.518L153.035 565.157C158.895 560.938 165.882 558.829 173.997 558.829C180.647 558.829 185.892 560.177 189.729 562.872C193.597 565.567 195.53 569.317 195.53 574.122ZM214.778 579C214.778 582.721 215.101 585.504 215.745 587.35C216.419 589.166 217.488 590.074 218.953 590.074C221.766 590.074 223.172 586.383 223.172 579C223.172 571.676 221.766 568.014 218.953 568.014C217.488 568.014 216.419 568.922 215.745 570.738C215.101 572.525 214.778 575.279 214.778 579ZM234.246 578.912C234.246 585.65 232.942 590.719 230.335 594.117C227.728 597.486 223.904 599.171 218.865 599.171C214.031 599.171 210.296 597.442 207.659 593.985C205.022 590.499 203.704 585.475 203.704 578.912C203.704 565.523 208.758 558.829 218.865 558.829C223.816 558.829 227.61 560.572 230.247 564.059C232.913 567.516 234.246 572.467 234.246 578.912ZM264.48 559.752L228.841 624H218.294L253.934 559.752H264.48ZM259.778 604.664C259.778 608.385 260.101 611.168 260.745 613.014C261.419 614.83 262.488 615.738 263.953 615.738C266.766 615.738 268.172 612.047 268.172 604.664C268.172 597.34 266.766 593.678 263.953 593.678C262.488 593.678 261.419 594.586 260.745 596.402C260.101 598.189 259.778 600.943 259.778 604.664ZM279.246 604.576C279.246 611.285 277.942 616.339 275.335 619.737C272.728 623.106 268.904 624.791 263.865 624.791C259.031 624.791 255.296 623.062 252.659 619.605C250.022 616.119 248.704 611.109 248.704 604.576C248.704 591.188 253.758 584.493 263.865 584.493C268.816 584.493 272.61 586.236 275.247 589.723C277.913 593.18 279.246 598.131 279.246 604.576Z" fill="#FF3D00"/>
<path d="M83.8516 64.7344H92.2422C100.398 64.7344 104.477 68.0156 104.477 74.5781C104.477 77.8906 103.344 80.4297 101.078 82.1953C98.8281 83.9609 95.6484 84.8438 91.5391 84.8438H86.2422V99H83.8516V64.7344ZM86.2422 66.8906V82.7812H90.9531C94.8281 82.7812 97.6172 82.1484 99.3203 80.8828C101.023 79.6016 101.875 77.5859 101.875 74.8359C101.875 72.0859 101.062 70.0781 99.4375 68.8125C97.8281 67.5312 95.3203 66.8906 91.9141 66.8906H86.2422ZM121.633 99.4688C117.945 99.4688 115.055 98.3281 112.961 96.0469C110.898 93.7656 109.867 90.5859 109.867 86.5078C109.867 82.4297 110.859 79.1641 112.844 76.7109C114.844 74.2578 117.547 73.0312 120.953 73.0312C123.953 73.0312 126.32 74.0859 128.055 76.1953C129.789 78.2891 130.656 81.125 130.656 84.7031V86.5781H112.305C112.336 90.0781 113.148 92.75 114.742 94.5938C116.352 96.4375 118.648 97.3594 121.633 97.3594C123.117 97.3594 124.422 97.25 125.547 97.0312C126.672 96.8125 128.039 96.3828 129.648 95.7422V97.8516C128.227 98.4766 126.898 98.8984 125.664 99.1172C124.445 99.3516 123.102 99.4688 121.633 99.4688ZM128.195 84.5156C128.195 81.5625 127.547 79.2578 126.25 77.6016C124.953 75.9297 123.125 75.0938 120.766 75.0938C118.422 75.0938 116.508 75.9062 115.023 77.5312C113.555 79.1562 112.695 81.4844 112.445 84.5156H128.195ZM147.719 73.0312C148.75 73.0312 149.906 73.1406 151.188 73.3594L150.742 75.6094C149.695 75.3281 148.594 75.1875 147.438 75.1875C145.266 75.1875 143.484 76.1172 142.094 77.9766C140.703 79.8203 140.008 82.1406 140.008 84.9375V99H137.688V73.5234H139.656L139.891 78.1172H140.055C141.133 76.2109 142.25 74.8984 143.406 74.1797C144.594 73.4141 146.031 73.0312 147.719 73.0312ZM166.562 99.4688C162.922 99.4688 160.07 98.3203 158.008 96.0234C155.945 93.7266 154.914 90.5 154.914 86.3438C154.914 82.1875 155.977 78.9297 158.102 76.5703C160.242 74.2109 163.18 73.0312 166.914 73.0312C169.133 73.0312 171.242 73.4141 173.242 74.1797L172.609 76.2656C170.406 75.5156 168.492 75.1406 166.867 75.1406C163.758 75.1406 161.391 76.1016 159.766 78.0234C158.156 79.9453 157.352 82.6797 157.352 86.2266C157.352 89.7734 158.156 92.5156 159.766 94.4531C161.375 96.3906 163.625 97.3594 166.516 97.3594C168.797 97.3594 170.945 96.9453 172.961 96.1172V98.2734C171.352 99.0703 169.219 99.4688 166.562 99.4688ZM189.461 99.4688C185.773 99.4688 182.883 98.3281 180.789 96.0469C178.727 93.7656 177.695 90.5859 177.695 86.5078C177.695 82.4297 178.688 79.1641 180.672 76.7109C182.672 74.2578 185.375 73.0312 188.781 73.0312C191.781 73.0312 194.148 74.0859 195.883 76.1953C197.617 78.2891 198.484 81.125 198.484 84.7031V86.5781H180.133C180.164 90.0781 180.977 92.75 182.57 94.5938C184.18 96.4375 186.477 97.3594 189.461 97.3594C190.945 97.3594 192.25 97.25 193.375 97.0312C194.5 96.8125 195.867 96.3828 197.477 95.7422V97.8516C196.055 98.4766 194.727 98.8984 193.492 99.1172C192.273 99.3516 190.93 99.4688 189.461 99.4688ZM196.023 84.5156C196.023 81.5625 195.375 79.2578 194.078 77.6016C192.781 75.9297 190.953 75.0938 188.594 75.0938C186.25 75.0938 184.336 75.9062 182.852 77.5312C181.383 79.1562 180.523 81.4844 180.273 84.5156H196.023ZM216.906 73.0312C222.688 73.0312 225.578 76.1328 225.578 82.3359V99H223.281V82.4766C223.281 79.9297 222.742 78.0703 221.664 76.8984C220.602 75.7266 218.93 75.1406 216.648 75.1406C213.633 75.1406 211.406 75.9062 209.969 77.4375C208.547 78.9688 207.836 81.4688 207.836 84.9375V99H205.516V73.5234H207.484L207.93 77.0156H208.07C209.742 74.3594 212.688 73.0312 216.906 73.0312ZM236.289 73.5234H243.766V75.5391H236.289V91.6641C236.289 93.6172 236.633 95.0625 237.32 96C238.008 96.9375 239.094 97.4062 240.578 97.4062C242.062 97.4062 243.336 97.2812 244.398 97.0312V98.9062C243.273 99.2812 241.977 99.4688 240.508 99.4688C238.258 99.4688 236.594 98.8672 235.516 97.6641C234.453 96.4609 233.922 94.5703 233.922 91.9922V75.5391H230.148V74.1797L233.922 73.125L235.094 67.3594H236.289V73.5234ZM250.445 75.0469C253.242 73.7344 256.023 73.0781 258.789 73.0781C261.57 73.0781 263.648 73.8125 265.023 75.2812C266.398 76.7344 267.086 78.9922 267.086 82.0547V99H265.375L264.789 94.9688H264.602C263.305 96.625 261.984 97.7891 260.641 98.4609C259.312 99.1328 257.719 99.4688 255.859 99.4688C253.359 99.4688 251.406 98.8359 250 97.5703C248.609 96.2891 247.914 94.4609 247.914 92.0859C247.914 89.6953 248.953 87.8125 251.031 86.4375C253.109 85.0625 256.109 84.3359 260.031 84.2578L264.883 84.1172V82.4297C264.883 79.9609 264.383 78.125 263.383 76.9219C262.383 75.7031 260.766 75.0938 258.531 75.0938C256.297 75.0938 253.891 75.75 251.312 77.0625L250.445 75.0469ZM250.398 92.3203C250.398 93.9141 250.883 95.1562 251.852 96.0469C252.836 96.9219 254.219 97.3594 256 97.3594C258.719 97.3594 260.859 96.5781 262.422 95.0156C264 93.4531 264.789 91.2969 264.789 88.5469V86.0391L260.336 86.2266C256.758 86.3984 254.203 86.9609 252.672 87.9141C251.156 88.8516 250.398 90.3203 250.398 92.3203ZM281.805 95.4844H286.258C289.039 95.4844 291.156 96.0469 292.609 97.1719C294.078 98.2812 294.812 99.9297 294.812 102.117C294.812 104.805 293.719 106.875 291.531 108.328C289.359 109.797 286.258 110.531 282.227 110.531C279.039 110.531 276.562 109.914 274.797 108.68C273.031 107.445 272.148 105.727 272.148 103.523C272.148 101.805 272.68 100.359 273.742 99.1875C274.82 98.0312 276.305 97.2422 278.195 96.8203C277.414 96.4766 276.797 96 276.344 95.3906C275.891 94.7812 275.664 94.0938 275.664 93.3281C275.664 91.6094 276.75 90.1094 278.922 88.8281C277.438 88.2188 276.281 87.2656 275.453 85.9688C274.625 84.6562 274.211 83.1562 274.211 81.4688C274.211 78.9062 275.016 76.8594 276.625 75.3281C278.25 73.7969 280.438 73.0312 283.188 73.0312C284.875 73.0312 286.172 73.1953 287.078 73.5234H295.234V75.1406L289.961 75.4688C291.367 77.2188 292.07 79.1406 292.07 81.2344C292.07 83.7031 291.258 85.6953 289.633 87.2109C288.008 88.7266 285.812 89.4844 283.047 89.4844C281.891 89.4844 281.078 89.4375 280.609 89.3438C278.719 90.3281 277.773 91.5938 277.773 93.1406C277.773 93.9531 278.086 94.5469 278.711 94.9219C279.336 95.2969 280.367 95.4844 281.805 95.4844ZM289.727 81.3047C289.727 79.2109 289.148 77.6172 287.992 76.5234C286.852 75.4141 285.242 74.8594 283.164 74.8594C281.086 74.8594 279.461 75.4453 278.289 76.6172C277.133 77.7891 276.555 79.3828 276.555 81.3984C276.555 83.4141 277.148 84.9688 278.336 86.0625C279.539 87.1406 281.172 87.6797 283.234 87.6797C285.297 87.6797 286.891 87.1406 288.016 86.0625C289.156 84.9844 289.727 83.3984 289.727 81.3047ZM285.789 97.8047H281.617C276.945 97.8047 274.609 99.6406 274.609 103.312C274.609 106.812 277.211 108.562 282.414 108.562C289.102 108.562 292.445 106.43 292.445 102.164C292.445 100.633 291.922 99.5234 290.875 98.8359C289.828 98.1484 288.133 97.8047 285.789 97.8047ZM310.773 99.4688C307.086 99.4688 304.195 98.3281 302.102 96.0469C300.039 93.7656 299.008 90.5859 299.008 86.5078C299.008 82.4297 300 79.1641 301.984 76.7109C303.984 74.2578 306.688 73.0312 310.094 73.0312C313.094 73.0312 315.461 74.0859 317.195 76.1953C318.93 78.2891 319.797 81.125 319.797 84.7031V86.5781H301.445C301.477 90.0781 302.289 92.75 303.883 94.5938C305.492 96.4375 307.789 97.3594 310.773 97.3594C312.258 97.3594 313.562 97.25 314.688 97.0312C315.812 96.8125 317.18 96.3828 318.789 95.7422V97.8516C317.367 98.4766 316.039 98.8984 314.805 99.1172C313.586 99.3516 312.242 99.4688 310.773 99.4688ZM317.336 84.5156C317.336 81.5625 316.688 79.2578 315.391 77.6016C314.094 75.9297 312.266 75.0938 309.906 75.0938C307.562 75.0938 305.648 75.9062 304.164 77.5312C302.695 79.1562 301.836 81.4844 301.586 84.5156H317.336ZM337.797 86.2266C337.797 82.0859 338.805 78.8516 340.82 76.5234C342.836 74.1953 345.594 73.0312 349.094 73.0312C352.609 73.0312 355.359 74.2109 357.344 76.5703C359.344 78.9297 360.344 82.1719 360.344 86.2969C360.344 90.4062 359.336 93.6328 357.32 95.9766C355.305 98.3047 352.523 99.4688 348.977 99.4688C348.898 99.4688 348.812 99.4688 348.719 99.4688C345.484 99.4688 342.852 98.2734 340.82 95.8828C338.805 93.4922 337.797 90.3906 337.797 86.5781C337.797 86.4531 337.797 86.3359 337.797 86.2266ZM349.07 97.3594C351.883 97.3594 354.055 96.3828 355.586 94.4297C357.117 92.4766 357.883 89.7422 357.883 86.2266C357.883 82.6953 357.102 79.9688 355.539 78.0469C353.992 76.1094 351.812 75.1406 349 75.1406C346.203 75.1406 344.039 76.1094 342.508 78.0469C340.992 79.9688 340.234 82.6875 340.234 86.2031C340.234 89.7031 341 92.4453 342.531 94.4297C344.078 96.3828 346.258 97.3594 349.07 97.3594ZM368.57 71.3438C368.57 68.1875 369.148 65.8906 370.305 64.4531C371.461 63 373.336 62.2734 375.93 62.2734C377.336 62.2734 378.742 62.4844 380.148 62.9062L379.609 64.9219C378.391 64.5312 377.148 64.3359 375.883 64.3359C374.086 64.3359 372.805 64.875 372.039 65.9531C371.273 67.0156 370.891 68.75 370.891 71.1562V73.5234H376.891V75.5391H370.891V99H368.57V75.5391H363.836V74.1797L368.57 73.3125V71.3438ZM405.227 73.0312C408.664 73.0312 411.281 74.1641 413.078 76.4297C414.891 78.6797 415.797 81.9297 415.797 86.1797C415.797 90.4141 414.844 93.6875 412.938 96C411.047 98.3125 408.461 99.4688 405.18 99.4688C401.273 99.4688 398.414 98 396.602 95.0625H396.438L396.508 97.0312C396.57 98.0469 396.602 99.3125 396.602 100.828V110.531H394.281V73.5234H396.25L396.695 77.1562H396.836C398.602 74.4062 401.398 73.0312 405.227 73.0312ZM396.602 85.5703V86.3203C396.602 90.3047 397.266 93.1484 398.594 94.8516C399.922 96.5547 402.102 97.4062 405.133 97.4062C407.742 97.4062 409.758 96.4375 411.18 94.5C412.602 92.5625 413.312 89.8516 413.312 86.3672C413.312 78.8828 410.617 75.1406 405.227 75.1406C402.273 75.1406 400.094 75.9609 398.688 77.6016C397.297 79.2266 396.602 81.8828 396.602 85.5703ZM421.375 86.2266C421.375 82.0859 422.383 78.8516 424.398 76.5234C426.414 74.1953 429.172 73.0312 432.672 73.0312C436.188 73.0312 438.938 74.2109 440.922 76.5703C442.922 78.9297 443.922 82.1719 443.922 86.2969C443.922 90.4062 442.914 93.6328 440.898 95.9766C438.883 98.3047 436.102 99.4688 432.555 99.4688C432.477 99.4688 432.391 99.4688 432.297 99.4688C429.062 99.4688 426.43 98.2734 424.398 95.8828C422.383 93.4922 421.375 90.3906 421.375 86.5781C421.375 86.4531 421.375 86.3359 421.375 86.2266ZM432.648 97.3594C435.461 97.3594 437.633 96.3828 439.164 94.4297C440.695 92.4766 441.461 89.7422 441.461 86.2266C441.461 82.6953 440.68 79.9688 439.117 78.0469C437.57 76.1094 435.391 75.1406 432.578 75.1406C429.781 75.1406 427.617 76.1094 426.086 78.0469C424.57 79.9688 423.812 82.6875 423.812 86.2031C423.812 89.7031 424.578 92.4453 426.109 94.4297C427.656 96.3828 429.836 97.3594 432.648 97.3594ZM461.945 73.0312C465.383 73.0312 468 74.1641 469.797 76.4297C471.609 78.6797 472.516 81.9297 472.516 86.1797C472.516 90.4141 471.562 93.6875 469.656 96C467.766 98.3125 465.18 99.4688 461.898 99.4688C457.992 99.4688 455.133 98 453.32 95.0625H453.156L453.227 97.0312C453.289 98.0469 453.32 99.3125 453.32 100.828V110.531H451V73.5234H452.969L453.414 77.1562H453.555C455.32 74.4062 458.117 73.0312 461.945 73.0312ZM453.32 85.5703V86.3203C453.32 90.3047 453.984 93.1484 455.312 94.8516C456.641 96.5547 458.82 97.4062 461.852 97.4062C464.461 97.4062 466.477 96.4375 467.898 94.5C469.32 92.5625 470.031 89.8516 470.031 86.3672C470.031 78.8828 467.336 75.1406 461.945 75.1406C458.992 75.1406 456.812 75.9609 455.406 77.6016C454.016 79.2266 453.32 81.8828 453.32 85.5703ZM499.375 99H497.406L496.984 95.4844H496.844C495.172 98.1406 492.227 99.4688 488.008 99.4688C482.211 99.4688 479.312 96.3672 479.312 90.1641V73.5234H481.609V90.0234C481.609 92.5703 482.141 94.4297 483.203 95.6016C484.281 96.7734 485.961 97.3594 488.242 97.3594C491.258 97.3594 493.484 96.5938 494.922 95.0625C496.359 93.5312 497.078 91.0391 497.078 87.5859V73.5234H499.375V99ZM510.227 99H507.906V62.5312H510.227V99ZM519.32 75.0469C522.117 73.7344 524.898 73.0781 527.664 73.0781C530.445 73.0781 532.523 73.8125 533.898 75.2812C535.273 76.7344 535.961 78.9922 535.961 82.0547V99H534.25L533.664 94.9688H533.477C532.18 96.625 530.859 97.7891 529.516 98.4609C528.188 99.1328 526.594 99.4688 524.734 99.4688C522.234 99.4688 520.281 98.8359 518.875 97.5703C517.484 96.2891 516.789 94.4609 516.789 92.0859C516.789 89.6953 517.828 87.8125 519.906 86.4375C521.984 85.0625 524.984 84.3359 528.906 84.2578L533.758 84.1172V82.4297C533.758 79.9609 533.258 78.125 532.258 76.9219C531.258 75.7031 529.641 75.0938 527.406 75.0938C525.172 75.0938 522.766 75.75 520.188 77.0625L519.32 75.0469ZM519.273 92.3203C519.273 93.9141 519.758 95.1562 520.727 96.0469C521.711 96.9219 523.094 97.3594 524.875 97.3594C527.594 97.3594 529.734 96.5781 531.297 95.0156C532.875 93.4531 533.664 91.2969 533.664 88.5469V86.0391L529.211 86.2266C525.633 86.3984 523.078 86.9609 521.547 87.9141C520.031 88.8516 519.273 90.3203 519.273 92.3203ZM546.695 73.5234H554.172V75.5391H546.695V91.6641C546.695 93.6172 547.039 95.0625 547.727 96C548.414 96.9375 549.5 97.4062 550.984 97.4062C552.469 97.4062 553.742 97.2812 554.805 97.0312V98.9062C553.68 99.2812 552.383 99.4688 550.914 99.4688C548.664 99.4688 547 98.8672 545.922 97.6641C544.859 96.4609 544.328 94.5703 544.328 91.9922V75.5391H540.555V74.1797L544.328 73.125L545.5 67.3594H546.695V73.5234ZM561.461 64.1953C561.945 64.1953 562.32 64.3906 562.586 64.7812C562.867 65.1719 563.008 65.7266 563.008 66.4453C563.008 67.1484 562.867 67.7031 562.586 68.1094C562.32 68.5156 561.945 68.7188 561.461 68.7188C560.477 68.7188 559.984 67.9688 559.984 66.4688C559.984 64.9531 560.477 64.1953 561.461 64.1953ZM562.633 99H560.312V73.5234H562.633V99ZM569.688 86.2266C569.688 82.0859 570.695 78.8516 572.711 76.5234C574.727 74.1953 577.484 73.0312 580.984 73.0312C584.5 73.0312 587.25 74.2109 589.234 76.5703C591.234 78.9297 592.234 82.1719 592.234 86.2969C592.234 90.4062 591.227 93.6328 589.211 95.9766C587.195 98.3047 584.414 99.4688 580.867 99.4688C580.789 99.4688 580.703 99.4688 580.609 99.4688C577.375 99.4688 574.742 98.2734 572.711 95.8828C570.695 93.4922 569.688 90.3906 569.688 86.5781C569.688 86.4531 569.688 86.3359 569.688 86.2266ZM580.961 97.3594C583.773 97.3594 585.945 96.3828 587.477 94.4297C589.008 92.4766 589.773 89.7422 589.773 86.2266C589.773 82.6953 588.992 79.9688 587.43 78.0469C585.883 76.1094 583.703 75.1406 580.891 75.1406C578.094 75.1406 575.93 76.1094 574.398 78.0469C572.883 79.9688 572.125 82.6875 572.125 86.2031C572.125 89.7031 572.891 92.4453 574.422 94.4297C575.969 96.3828 578.148 97.3594 580.961 97.3594ZM610.703 73.0312C616.484 73.0312 619.375 76.1328 619.375 82.3359V99H617.078V82.4766C617.078 79.9297 616.539 78.0703 615.461 76.8984C614.398 75.7266 612.727 75.1406 610.445 75.1406C607.43 75.1406 605.203 75.9062 603.766 77.4375C602.344 78.9688 601.633 81.4688 601.633 84.9375V99H599.312V73.5234H601.281L601.727 77.0156H601.867C603.539 74.3594 606.484 73.0312 610.703 73.0312ZM642.555 73.5234H650.031V75.5391H642.555V91.6641C642.555 93.6172 642.898 95.0625 643.586 96C644.273 96.9375 645.359 97.4062 646.844 97.4062C648.328 97.4062 649.602 97.2812 650.664 97.0312V98.9062C649.539 99.2812 648.242 99.4688 646.773 99.4688C644.523 99.4688 642.859 98.8672 641.781 97.6641C640.719 96.4609 640.188 94.5703 640.188 91.9922V75.5391H636.414V74.1797L640.188 73.125L641.359 67.3594H642.555V73.5234ZM666.203 73.0312C667.234 73.0312 668.391 73.1406 669.672 73.3594L669.227 75.6094C668.18 75.3281 667.078 75.1875 665.922 75.1875C663.75 75.1875 661.969 76.1172 660.578 77.9766C659.188 79.8203 658.492 82.1406 658.492 84.9375V99H656.172V73.5234H658.141L658.375 78.1172H658.539C659.617 76.2109 660.734 74.8984 661.891 74.1797C663.078 73.4141 664.516 73.0312 666.203 73.0312ZM685.164 99.4688C681.477 99.4688 678.586 98.3281 676.492 96.0469C674.43 93.7656 673.398 90.5859 673.398 86.5078C673.398 82.4297 674.391 79.1641 676.375 76.7109C678.375 74.2578 681.078 73.0312 684.484 73.0312C687.484 73.0312 689.852 74.0859 691.586 76.1953C693.32 78.2891 694.188 81.125 694.188 84.7031V86.5781H675.836C675.867 90.0781 676.68 92.75 678.273 94.5938C679.883 96.4375 682.18 97.3594 685.164 97.3594C686.648 97.3594 687.953 97.25 689.078 97.0312C690.203 96.8125 691.57 96.3828 693.18 95.7422V97.8516C691.758 98.4766 690.43 98.8984 689.195 99.1172C687.977 99.3516 686.633 99.4688 685.164 99.4688ZM691.727 84.5156C691.727 81.5625 691.078 79.2578 689.781 77.6016C688.484 75.9297 686.656 75.0938 684.297 75.0938C681.953 75.0938 680.039 75.9062 678.555 77.5312C677.086 79.1562 676.227 81.4844 675.977 84.5156H691.727ZM701.758 75.0469C704.555 73.7344 707.336 73.0781 710.102 73.0781C712.883 73.0781 714.961 73.8125 716.336 75.2812C717.711 76.7344 718.398 78.9922 718.398 82.0547V99H716.688L716.102 94.9688H715.914C714.617 96.625 713.297 97.7891 711.953 98.4609C710.625 99.1328 709.031 99.4688 707.172 99.4688C704.672 99.4688 702.719 98.8359 701.312 97.5703C699.922 96.2891 699.227 94.4609 699.227 92.0859C699.227 89.6953 700.266 87.8125 702.344 86.4375C704.422 85.0625 707.422 84.3359 711.344 84.2578L716.195 84.1172V82.4297C716.195 79.9609 715.695 78.125 714.695 76.9219C713.695 75.7031 712.078 75.0938 709.844 75.0938C707.609 75.0938 705.203 75.75 702.625 77.0625L701.758 75.0469ZM701.711 92.3203C701.711 93.9141 702.195 95.1562 703.164 96.0469C704.148 96.9219 705.531 97.3594 707.312 97.3594C710.031 97.3594 712.172 96.5781 713.734 95.0156C715.312 93.4531 716.102 91.2969 716.102 88.5469V86.0391L711.648 86.2266C708.07 86.3984 705.516 86.9609 703.984 87.9141C702.469 88.8516 701.711 90.3203 701.711 92.3203ZM729.133 73.5234H736.609V75.5391H729.133V91.6641C729.133 93.6172 729.477 95.0625 730.164 96C730.852 96.9375 731.938 97.4062 733.422 97.4062C734.906 97.4062 736.18 97.2812 737.242 97.0312V98.9062C736.117 99.2812 734.82 99.4688 733.352 99.4688C731.102 99.4688 729.438 98.8672 728.359 97.6641C727.297 96.4609 726.766 94.5703 726.766 91.9922V75.5391H722.992V74.1797L726.766 73.125L727.938 67.3594H729.133V73.5234ZM753.039 99.4688C749.352 99.4688 746.461 98.3281 744.367 96.0469C742.305 93.7656 741.273 90.5859 741.273 86.5078C741.273 82.4297 742.266 79.1641 744.25 76.7109C746.25 74.2578 748.953 73.0312 752.359 73.0312C755.359 73.0312 757.727 74.0859 759.461 76.1953C761.195 78.2891 762.062 81.125 762.062 84.7031V86.5781H743.711C743.742 90.0781 744.555 92.75 746.148 94.5938C747.758 96.4375 750.055 97.3594 753.039 97.3594C754.523 97.3594 755.828 97.25 756.953 97.0312C758.078 96.8125 759.445 96.3828 761.055 95.7422V97.8516C759.633 98.4766 758.305 98.8984 757.07 99.1172C755.852 99.3516 754.508 99.4688 753.039 99.4688ZM759.602 84.5156C759.602 81.5625 758.953 79.2578 757.656 77.6016C756.359 75.9297 754.531 75.0938 752.172 75.0938C749.828 75.0938 747.914 75.9062 746.43 77.5312C744.961 79.1562 744.102 81.4844 743.852 84.5156H759.602ZM789.109 99H787.562L787 95.1094H786.812C784.875 98.0156 782.117 99.4688 778.539 99.4688C774.977 99.4688 772.266 98.375 770.406 96.1875C768.547 93.9844 767.617 90.7422 767.617 86.4609C767.617 82.1641 768.539 78.8516 770.383 76.5234C772.227 74.1953 774.906 73.0312 778.422 73.0312C780.297 73.0312 781.898 73.375 783.227 74.0625C784.57 74.75 785.766 75.8906 786.812 77.4844H786.953C786.859 75.5156 786.812 73.5859 786.812 71.6953V62.5312H789.109V99ZM786.812 86.625V86.2266C786.812 82.2734 786.148 79.4375 784.82 77.7188C783.492 76 781.398 75.1406 778.539 75.1406C775.695 75.1406 773.57 76.1172 772.164 78.0703C770.758 80.0078 770.055 82.8438 770.055 86.5781C770.055 93.7969 772.859 97.4062 778.469 97.4062C781.344 97.4062 783.453 96.5703 784.797 94.8984C786.141 93.2266 786.812 90.4688 786.812 86.625ZM811.305 71.3438C811.305 68.1875 811.883 65.8906 813.039 64.4531C814.195 63 816.07 62.2734 818.664 62.2734C820.07 62.2734 821.477 62.4844 822.883 62.9062L822.344 64.9219C821.125 64.5312 819.883 64.3359 818.617 64.3359C816.82 64.3359 815.539 64.875 814.773 65.9531C814.008 67.0156 813.625 68.75 813.625 71.1562V73.5234H819.625V75.5391H813.625V99H811.305V75.5391H806.57V74.1797L811.305 73.3125V71.3438ZM823.047 86.2266C823.047 82.0859 824.055 78.8516 826.07 76.5234C828.086 74.1953 830.844 73.0312 834.344 73.0312C837.859 73.0312 840.609 74.2109 842.594 76.5703C844.594 78.9297 845.594 82.1719 845.594 86.2969C845.594 90.4062 844.586 93.6328 842.57 95.9766C840.555 98.3047 837.773 99.4688 834.227 99.4688C834.148 99.4688 834.062 99.4688 833.969 99.4688C830.734 99.4688 828.102 98.2734 826.07 95.8828C824.055 93.4922 823.047 90.3906 823.047 86.5781C823.047 86.4531 823.047 86.3359 823.047 86.2266ZM834.32 97.3594C837.133 97.3594 839.305 96.3828 840.836 94.4297C842.367 92.4766 843.133 89.7422 843.133 86.2266C843.133 82.6953 842.352 79.9688 840.789 78.0469C839.242 76.1094 837.062 75.1406 834.25 75.1406C831.453 75.1406 829.289 76.1094 827.758 78.0469C826.242 79.9688 825.484 82.6875 825.484 86.2031C825.484 89.7031 826.25 92.4453 827.781 94.4297C829.328 96.3828 831.508 97.3594 834.32 97.3594ZM862.703 73.0312C863.734 73.0312 864.891 73.1406 866.172 73.3594L865.727 75.6094C864.68 75.3281 863.578 75.1875 862.422 75.1875C860.25 75.1875 858.469 76.1172 857.078 77.9766C855.688 79.8203 854.992 82.1406 854.992 84.9375V99H852.672V73.5234H854.641L854.875 78.1172H855.039C856.117 76.2109 857.234 74.8984 858.391 74.1797C859.578 73.4141 861.016 73.0312 862.703 73.0312ZM903.859 99H902.312L901.75 95.1094H901.562C899.625 98.0156 896.867 99.4688 893.289 99.4688C889.727 99.4688 887.016 98.375 885.156 96.1875C883.297 93.9844 882.367 90.7422 882.367 86.4609C882.367 82.1641 883.289 78.8516 885.133 76.5234C886.977 74.1953 889.656 73.0312 893.172 73.0312C895.047 73.0312 896.648 73.375 897.977 74.0625C899.32 74.75 900.516 75.8906 901.562 77.4844H901.703C901.609 75.5156 901.562 73.5859 901.562 71.6953V62.5312H903.859V99ZM901.562 86.625V86.2266C901.562 82.2734 900.898 79.4375 899.57 77.7188C898.242 76 896.148 75.1406 893.289 75.1406C890.445 75.1406 888.32 76.1172 886.914 78.0703C885.508 80.0078 884.805 82.8438 884.805 86.5781C884.805 93.7969 887.609 97.4062 893.219 97.4062C896.094 97.4062 898.203 96.5703 899.547 94.8984C900.891 93.2266 901.562 90.4688 901.562 86.625ZM913.586 64.1953C914.07 64.1953 914.445 64.3906 914.711 64.7812C914.992 65.1719 915.133 65.7266 915.133 66.4453C915.133 67.1484 914.992 67.7031 914.711 68.1094C914.445 68.5156 914.07 68.7188 913.586 68.7188C912.602 68.7188 912.109 67.9688 912.109 66.4688C912.109 64.9531 912.602 64.1953 913.586 64.1953ZM914.758 99H912.438V73.5234H914.758V99ZM923.852 75.0469C926.648 73.7344 929.43 73.0781 932.195 73.0781C934.977 73.0781 937.055 73.8125 938.43 75.2812C939.805 76.7344 940.492 78.9922 940.492 82.0547V99H938.781L938.195 94.9688H938.008C936.711 96.625 935.391 97.7891 934.047 98.4609C932.719 99.1328 931.125 99.4688 929.266 99.4688C926.766 99.4688 924.812 98.8359 923.406 97.5703C922.016 96.2891 921.32 94.4609 921.32 92.0859C921.32 89.6953 922.359 87.8125 924.438 86.4375C926.516 85.0625 929.516 84.3359 933.438 84.2578L938.289 84.1172V82.4297C938.289 79.9609 937.789 78.125 936.789 76.9219C935.789 75.7031 934.172 75.0938 931.938 75.0938C929.703 75.0938 927.297 75.75 924.719 77.0625L923.852 75.0469ZM923.805 92.3203C923.805 93.9141 924.289 95.1562 925.258 96.0469C926.242 96.9219 927.625 97.3594 929.406 97.3594C932.125 97.3594 934.266 96.5781 935.828 95.0156C937.406 93.4531 938.195 91.2969 938.195 88.5469V86.0391L933.742 86.2266C930.164 86.3984 927.609 86.9609 926.078 87.9141C924.562 88.8516 923.805 90.3203 923.805 92.3203ZM951.086 62.5312V71.6953C951.086 73.2109 951.055 74.4766 950.992 75.4922L950.922 77.4844H951.086C952.055 75.9531 953.219 74.8281 954.578 74.1094C955.953 73.3906 957.602 73.0312 959.523 73.0312C963.07 73.0312 965.75 74.1484 967.562 76.3828C969.375 78.6172 970.281 81.875 970.281 86.1562C970.281 90.4375 969.32 93.7266 967.398 96.0234C965.523 98.3203 962.867 99.4688 959.43 99.4688C957.617 99.4688 955.984 99.0938 954.531 98.3438C953.078 97.5938 951.93 96.5312 951.086 95.1562H950.875L950.219 99H948.766V62.5312H951.086ZM951.086 86.2266V86.625C951.086 90.4688 951.758 93.2266 953.102 94.8984C954.461 96.5703 956.539 97.4062 959.336 97.4062C962.148 97.4062 964.258 96.4453 965.664 94.5234C967.086 92.5859 967.797 89.8047 967.797 86.1797C967.797 78.8203 965.023 75.1406 959.477 75.1406C956.492 75.1406 954.344 76 953.031 77.7188C951.734 79.4375 951.086 82.2734 951.086 86.2266ZM987.648 99.4688C983.961 99.4688 981.07 98.3281 978.977 96.0469C976.914 93.7656 975.883 90.5859 975.883 86.5078C975.883 82.4297 976.875 79.1641 978.859 76.7109C980.859 74.2578 983.562 73.0312 986.969 73.0312C989.969 73.0312 992.336 74.0859 994.07 76.1953C995.805 78.2891 996.672 81.125 996.672 84.7031V86.5781H978.32C978.352 90.0781 979.164 92.75 980.758 94.5938C982.367 96.4375 984.664 97.3594 987.648 97.3594C989.133 97.3594 990.438 97.25 991.562 97.0312C992.688 96.8125 994.055 96.3828 995.664 95.7422V97.8516C994.242 98.4766 992.914 98.8984 991.68 99.1172C990.461 99.3516 989.117 99.4688 987.648 99.4688ZM994.211 84.5156C994.211 81.5625 993.562 79.2578 992.266 77.6016C990.969 75.9297 989.141 75.0938 986.781 75.0938C984.438 75.0938 982.523 75.9062 981.039 77.5312C979.57 79.1562 978.711 81.4844 978.461 84.5156H994.211ZM1006.16 73.5234H1013.64V75.5391H1006.16V91.6641C1006.16 93.6172 1006.51 95.0625 1007.2 96C1007.88 96.9375 1008.97 97.4062 1010.45 97.4062C1011.94 97.4062 1013.21 97.2812 1014.27 97.0312V98.9062C1013.15 99.2812 1011.85 99.4688 1010.38 99.4688C1008.13 99.4688 1006.47 98.8672 1005.39 97.6641C1004.33 96.4609 1003.8 94.5703 1003.8 91.9922V75.5391H1000.02V74.1797L1003.8 73.125L1004.97 67.3594H1006.16V73.5234ZM1030.07 99.4688C1026.38 99.4688 1023.49 98.3281 1021.4 96.0469C1019.34 93.7656 1018.3 90.5859 1018.3 86.5078C1018.3 82.4297 1019.3 79.1641 1021.28 76.7109C1023.28 74.2578 1025.98 73.0312 1029.39 73.0312C1032.39 73.0312 1034.76 74.0859 1036.49 76.1953C1038.23 78.2891 1039.09 81.125 1039.09 84.7031V86.5781H1020.74C1020.77 90.0781 1021.59 92.75 1023.18 94.5938C1024.79 96.4375 1027.09 97.3594 1030.07 97.3594C1031.55 97.3594 1032.86 97.25 1033.98 97.0312C1035.11 96.8125 1036.48 96.3828 1038.09 95.7422V97.8516C1036.66 98.4766 1035.34 98.8984 1034.1 99.1172C1032.88 99.3516 1031.54 99.4688 1030.07 99.4688ZM1036.63 84.5156C1036.63 81.5625 1035.98 79.2578 1034.69 77.6016C1033.39 75.9297 1031.56 75.0938 1029.2 75.0938C1026.86 75.0938 1024.95 75.9062 1023.46 77.5312C1021.99 79.1562 1021.13 81.4844 1020.88 84.5156H1036.63ZM1043.83 95.3906C1046.33 96.6719 1048.92 97.3125 1051.61 97.3125C1054.3 97.3125 1056.3 96.9062 1057.63 96.0938C1058.96 95.2656 1059.62 94.1719 1059.62 92.8125C1059.62 91.4531 1059.1 90.3438 1058.05 89.4844C1057.01 88.6094 1055.27 87.7422 1052.83 86.8828C1050.39 86.0078 1048.64 85.2266 1047.58 84.5391C1046.52 83.8516 1045.73 83.0859 1045.21 82.2422C1044.71 81.3984 1044.46 80.3906 1044.46 79.2188C1044.46 77.3281 1045.26 75.8203 1046.85 74.6953C1048.48 73.5859 1050.69 73.0312 1053.48 73.0312C1056.3 73.0312 1058.94 73.5469 1061.41 74.5781L1060.54 76.6875C1057.98 75.6562 1055.66 75.1406 1053.58 75.1406C1051.5 75.1406 1049.85 75.4844 1048.63 76.1719C1047.41 76.8594 1046.8 77.8438 1046.8 79.125C1046.8 80.3906 1047.27 81.4219 1048.21 82.2188C1049.16 83.0156 1050.9 83.8672 1053.41 84.7734C1055.93 85.6641 1057.72 86.4531 1058.78 87.1406C1060.88 88.4531 1061.92 90.2266 1061.92 92.4609C1061.92 94.6797 1061.05 96.4062 1059.32 97.6406C1057.59 98.8594 1055.06 99.4688 1051.75 99.4688C1048.45 99.4688 1045.81 98.9453 1043.83 97.8984V95.3906Z" fill="black"/>
<path d="M803.901 629.218C803.901 626.372 804.594 624.148 805.98 622.547C807.366 620.947 809.262 620.146 811.668 620.146C814.085 620.146 815.976 620.958 817.34 622.58C818.715 624.202 819.402 626.431 819.402 629.267C819.402 632.092 818.709 634.31 817.324 635.921C815.938 637.522 814.026 638.322 811.587 638.322C811.534 638.322 811.475 638.322 811.41 638.322C809.187 638.322 807.376 637.5 805.98 635.857C804.594 634.213 803.901 632.081 803.901 629.46C803.901 629.374 803.901 629.293 803.901 629.218ZM811.652 636.872C813.585 636.872 815.079 636.201 816.131 634.858C817.184 633.515 817.71 631.635 817.71 629.218C817.71 626.791 817.173 624.916 816.099 623.595C815.036 622.263 813.537 621.597 811.604 621.597C809.681 621.597 808.193 622.263 807.14 623.595C806.098 624.916 805.577 626.785 805.577 629.202C805.577 631.608 806.104 633.494 807.156 634.858C808.22 636.201 809.718 636.872 811.652 636.872ZM825.058 618.986C825.058 616.816 825.456 615.237 826.25 614.249C827.045 613.25 828.334 612.75 830.118 612.75C831.084 612.75 832.051 612.896 833.018 613.186L832.647 614.571C831.81 614.303 830.956 614.168 830.085 614.168C828.85 614.168 827.969 614.539 827.443 615.28C826.917 616.011 826.653 617.203 826.653 618.857V620.485H830.778V621.871H826.653V638H825.058V621.871H821.803V620.936L825.058 620.34V618.986ZM849.728 638.322C847.225 638.322 845.264 637.533 843.846 635.954C842.428 634.375 841.719 632.156 841.719 629.299C841.719 626.441 842.45 624.202 843.911 622.58C845.382 620.958 847.402 620.146 849.969 620.146C851.495 620.146 852.945 620.41 854.32 620.936L853.885 622.37C852.37 621.854 851.054 621.597 849.937 621.597C847.799 621.597 846.172 622.257 845.055 623.579C843.948 624.9 843.395 626.78 843.395 629.218C843.395 631.657 843.948 633.542 845.055 634.874C846.161 636.206 847.708 636.872 849.695 636.872C851.264 636.872 852.741 636.587 854.126 636.018V637.5C853.02 638.048 851.554 638.322 849.728 638.322ZM858.767 621.532C860.69 620.63 862.602 620.179 864.503 620.179C866.416 620.179 867.844 620.684 868.79 621.693C869.735 622.692 870.208 624.245 870.208 626.35V638H869.031L868.628 635.229H868.5C867.608 636.367 866.7 637.167 865.776 637.629C864.863 638.091 863.768 638.322 862.489 638.322C860.771 638.322 859.428 637.887 858.461 637.017C857.505 636.136 857.027 634.879 857.027 633.247C857.027 631.603 857.741 630.309 859.17 629.363C860.599 628.418 862.661 627.918 865.357 627.865L868.693 627.768V626.608C868.693 624.911 868.349 623.648 867.662 622.821C866.974 621.983 865.862 621.564 864.326 621.564C862.79 621.564 861.136 622.016 859.363 622.918L858.767 621.532ZM858.735 633.408C858.735 634.503 859.068 635.357 859.734 635.97C860.411 636.571 861.361 636.872 862.586 636.872C864.455 636.872 865.927 636.335 867.001 635.261C868.086 634.187 868.628 632.704 868.628 630.813V629.089L865.567 629.218C863.107 629.336 861.351 629.723 860.298 630.378C859.256 631.023 858.735 632.033 858.735 633.408ZM874.316 635.519C876.035 636.399 877.818 636.84 879.666 636.84C881.514 636.84 882.894 636.561 883.807 636.002C884.72 635.433 885.177 634.681 885.177 633.746C885.177 632.812 884.817 632.049 884.097 631.458C883.377 630.856 882.18 630.26 880.504 629.669C878.828 629.068 877.625 628.531 876.895 628.058C876.164 627.585 875.622 627.059 875.267 626.479C874.923 625.899 874.751 625.206 874.751 624.4C874.751 623.101 875.299 622.064 876.395 621.291C877.512 620.528 879.032 620.146 880.955 620.146C882.889 620.146 884.704 620.501 886.401 621.21L885.805 622.66C884.043 621.951 882.448 621.597 881.02 621.597C879.591 621.597 878.458 621.833 877.62 622.306C876.782 622.778 876.363 623.455 876.363 624.336C876.363 625.206 876.685 625.915 877.33 626.463C877.985 627.011 879.177 627.596 880.907 628.219C882.636 628.832 883.866 629.374 884.597 629.847C886.036 630.749 886.756 631.968 886.756 633.504C886.756 635.03 886.16 636.217 884.967 637.065C883.775 637.903 882.04 638.322 879.763 638.322C877.496 638.322 875.681 637.962 874.316 637.243V635.519ZM898.341 638.322C895.806 638.322 893.819 637.538 892.379 635.97C890.961 634.401 890.252 632.215 890.252 629.412C890.252 626.608 890.935 624.363 892.299 622.676C893.674 620.99 895.532 620.146 897.874 620.146C899.937 620.146 901.564 620.872 902.756 622.322C903.949 623.761 904.545 625.711 904.545 628.171V629.46H891.928C891.95 631.866 892.508 633.703 893.604 634.971C894.71 636.238 896.29 636.872 898.341 636.872C899.362 636.872 900.259 636.797 901.032 636.646C901.806 636.496 902.746 636.201 903.852 635.76V637.21C902.875 637.64 901.961 637.93 901.113 638.081C900.275 638.242 899.351 638.322 898.341 638.322ZM902.853 628.042C902.853 626.012 902.407 624.427 901.516 623.289C900.624 622.139 899.367 621.564 897.745 621.564C896.134 621.564 894.818 622.123 893.797 623.24C892.788 624.357 892.197 625.958 892.025 628.042H902.853ZM907.8 635.519C909.519 636.399 911.302 636.84 913.149 636.84C914.997 636.84 916.377 636.561 917.291 636.002C918.204 635.433 918.66 634.681 918.66 633.746C918.66 632.812 918.3 632.049 917.581 631.458C916.861 630.856 915.663 630.26 913.987 629.669C912.312 629.068 911.108 628.531 910.378 628.058C909.647 627.585 909.105 627.059 908.75 626.479C908.407 625.899 908.235 625.206 908.235 624.4C908.235 623.101 908.783 622.064 909.878 621.291C910.996 620.528 912.516 620.146 914.438 620.146C916.372 620.146 918.188 620.501 919.885 621.21L919.289 622.66C917.527 621.951 915.932 621.597 914.503 621.597C913.074 621.597 911.941 621.833 911.103 622.306C910.265 622.778 909.846 623.455 909.846 624.336C909.846 625.206 910.168 625.915 910.813 626.463C911.468 627.011 912.661 627.596 914.39 628.219C916.12 628.832 917.35 629.374 918.08 629.847C919.52 630.749 920.239 631.968 920.239 633.504C920.239 635.03 919.643 636.217 918.451 637.065C917.258 637.903 915.523 638.322 913.246 638.322C910.979 638.322 909.164 637.962 907.8 637.243V635.519ZM935.015 620.485H940.155V621.871H935.015V632.957C935.015 634.299 935.251 635.293 935.724 635.938C936.197 636.582 936.943 636.904 937.964 636.904C938.984 636.904 939.86 636.818 940.59 636.646V637.936C939.817 638.193 938.925 638.322 937.916 638.322C936.369 638.322 935.225 637.909 934.483 637.082C933.753 636.254 933.388 634.955 933.388 633.182V621.871H930.793V620.936L933.388 620.211L934.193 616.247H935.015V620.485ZM943.346 629.218C943.346 626.372 944.039 624.148 945.424 622.547C946.81 620.947 948.706 620.146 951.112 620.146C953.529 620.146 955.42 620.958 956.784 622.58C958.159 624.202 958.847 626.431 958.847 629.267C958.847 632.092 958.154 634.31 956.768 635.921C955.382 637.522 953.47 638.322 951.032 638.322C950.978 638.322 950.919 638.322 950.854 638.322C948.631 638.322 946.821 637.5 945.424 635.857C944.039 634.213 943.346 632.081 943.346 629.46C943.346 629.374 943.346 629.293 943.346 629.218ZM951.096 636.872C953.03 636.872 954.523 636.201 955.576 634.858C956.628 633.515 957.155 631.635 957.155 629.218C957.155 626.791 956.618 624.916 955.543 623.595C954.48 622.263 952.981 621.597 951.048 621.597C949.125 621.597 947.637 622.263 946.584 623.595C945.542 624.916 945.021 626.785 945.021 629.202C945.021 631.608 945.548 633.494 946.601 634.858C947.664 636.201 949.163 636.872 951.096 636.872ZM977.474 638H976.41L976.023 635.325H975.895C974.562 637.323 972.667 638.322 970.207 638.322C967.757 638.322 965.894 637.57 964.615 636.066C963.337 634.552 962.698 632.323 962.698 629.379C962.698 626.425 963.332 624.148 964.599 622.547C965.867 620.947 967.709 620.146 970.126 620.146C971.415 620.146 972.516 620.383 973.429 620.855C974.353 621.328 975.175 622.112 975.895 623.208H975.991C975.927 621.854 975.895 620.528 975.895 619.228V612.928H977.474V638ZM975.895 629.492V629.218C975.895 626.5 975.438 624.551 974.525 623.369C973.612 622.188 972.172 621.597 970.207 621.597C968.251 621.597 966.791 622.268 965.824 623.611C964.857 624.943 964.374 626.893 964.374 629.46C964.374 634.423 966.302 636.904 970.158 636.904C972.135 636.904 973.585 636.33 974.509 635.18C975.433 634.031 975.895 632.135 975.895 629.492ZM983.742 621.532C985.665 620.63 987.577 620.179 989.478 620.179C991.39 620.179 992.819 620.684 993.764 621.693C994.709 622.692 995.182 624.245 995.182 626.35V638H994.006L993.603 635.229H993.474C992.583 636.367 991.675 637.167 990.751 637.629C989.838 638.091 988.742 638.322 987.464 638.322C985.745 638.322 984.402 637.887 983.436 637.017C982.479 636.136 982.001 634.879 982.001 633.247C982.001 631.603 982.716 630.309 984.145 629.363C985.573 628.418 987.636 627.918 990.332 627.865L993.667 627.768V626.608C993.667 624.911 993.324 623.648 992.636 622.821C991.949 621.983 990.837 621.564 989.301 621.564C987.765 621.564 986.11 622.016 984.338 622.918L983.742 621.532ZM983.709 633.408C983.709 634.503 984.042 635.357 984.708 635.97C985.385 636.571 986.336 636.872 987.561 636.872C989.43 636.872 990.901 636.335 991.976 635.261C993.061 634.187 993.603 632.704 993.603 630.813V629.089L990.542 629.218C988.082 629.336 986.325 629.723 985.272 630.378C984.23 631.023 983.709 632.033 983.709 633.408ZM1000.05 645.928C999.436 645.928 998.754 645.815 998.002 645.589V644.204C998.614 644.375 999.286 644.461 1000.02 644.461C1001.09 644.461 1001.95 643.93 1002.59 642.866C1002.95 642.308 1003.34 641.448 1003.77 640.288L1004.64 638L997.938 620.485H999.581L1003.29 630.314C1004.38 633.247 1005.1 635.288 1005.43 636.437H1005.53C1005.91 635.234 1006.65 633.161 1007.73 630.217L1011.44 620.485H1013.08L1005.24 640.836C1004.61 642.479 1004.08 643.597 1003.64 644.188C1002.78 645.348 1001.58 645.928 1000.05 645.928ZM1024.96 621.532C1026.88 620.63 1028.79 620.179 1030.7 620.179C1032.61 620.179 1034.04 620.684 1034.98 621.693C1035.93 622.692 1036.4 624.245 1036.4 626.35V638H1035.22L1034.82 635.229H1034.69C1033.8 636.367 1032.89 637.167 1031.97 637.629C1031.06 638.091 1029.96 638.322 1028.68 638.322C1026.96 638.322 1025.62 637.887 1024.65 637.017C1023.7 636.136 1023.22 634.879 1023.22 633.247C1023.22 631.603 1023.93 630.309 1025.36 629.363C1026.79 628.418 1028.85 627.918 1031.55 627.865L1034.89 627.768V626.608C1034.89 624.911 1034.54 623.648 1033.85 622.821C1033.17 621.983 1032.05 621.564 1030.52 621.564C1028.98 621.564 1027.33 622.016 1025.56 622.918L1024.96 621.532ZM1024.93 633.408C1024.93 634.503 1025.26 635.357 1025.93 635.97C1026.6 636.571 1027.55 636.872 1028.78 636.872C1030.65 636.872 1032.12 636.335 1033.19 635.261C1034.28 634.187 1034.82 632.704 1034.82 630.813V629.089L1031.76 629.218C1029.3 629.336 1027.54 629.723 1026.49 630.378C1025.45 631.023 1024.93 632.033 1024.93 633.408ZM1048.98 620.146C1049.69 620.146 1050.49 620.222 1051.37 620.372L1051.06 621.919C1050.34 621.726 1049.59 621.629 1048.79 621.629C1047.3 621.629 1046.07 622.268 1045.12 623.546C1044.16 624.814 1043.68 626.409 1043.68 628.332V638H1042.09V620.485H1043.44L1043.6 623.643H1043.72C1044.46 622.333 1045.22 621.43 1046.02 620.936C1046.84 620.41 1047.82 620.146 1048.98 620.146ZM1062.02 638.322C1059.48 638.322 1057.5 637.538 1056.06 635.97C1054.64 634.401 1053.93 632.215 1053.93 629.412C1053.93 626.608 1054.61 624.363 1055.98 622.676C1057.35 620.99 1059.21 620.146 1061.55 620.146C1063.62 620.146 1065.24 620.872 1066.44 622.322C1067.63 623.761 1068.22 625.711 1068.22 628.171V629.46H1055.61C1055.63 631.866 1056.19 633.703 1057.28 634.971C1058.39 636.238 1059.97 636.872 1062.02 636.872C1063.04 636.872 1063.94 636.797 1064.71 636.646C1065.48 636.496 1066.42 636.201 1067.53 635.76V637.21C1066.55 637.64 1065.64 637.93 1064.79 638.081C1063.95 638.242 1063.03 638.322 1062.02 638.322ZM1066.53 628.042C1066.53 626.012 1066.09 624.427 1065.19 623.289C1064.3 622.139 1063.05 621.564 1061.42 621.564C1059.81 621.564 1058.5 622.123 1057.48 623.24C1056.47 624.357 1055.88 625.958 1055.7 628.042H1066.53ZM806.528 657.928V664.228C806.528 665.27 806.506 666.14 806.463 666.838L806.415 668.208H806.528C807.194 667.155 807.994 666.382 808.929 665.888C809.874 665.394 811.007 665.146 812.329 665.146C814.767 665.146 816.609 665.915 817.855 667.451C819.102 668.987 819.725 671.227 819.725 674.17C819.725 677.113 819.064 679.375 817.743 680.954C816.454 682.533 814.627 683.322 812.264 683.322C811.018 683.322 809.896 683.064 808.896 682.549C807.897 682.033 807.108 681.303 806.528 680.357H806.383L805.932 683H804.933V657.928H806.528ZM806.528 674.218V674.492C806.528 677.135 806.99 679.031 807.914 680.18C808.848 681.33 810.277 681.904 812.2 681.904C814.133 681.904 815.583 681.244 816.55 679.922C817.528 678.59 818.017 676.678 818.017 674.186C818.017 669.126 816.11 666.597 812.296 666.597C810.245 666.597 808.768 667.188 807.865 668.369C806.974 669.551 806.528 671.5 806.528 674.218ZM831.665 683.322C829.129 683.322 827.142 682.538 825.703 680.97C824.285 679.401 823.576 677.215 823.576 674.412C823.576 671.608 824.258 669.363 825.622 667.676C826.997 665.99 828.855 665.146 831.197 665.146C833.26 665.146 834.887 665.872 836.08 667.322C837.272 668.761 837.868 670.711 837.868 673.171V674.46H825.251C825.273 676.866 825.832 678.703 826.927 679.971C828.034 681.238 829.613 681.872 831.665 681.872C832.685 681.872 833.582 681.797 834.355 681.646C835.129 681.496 836.069 681.201 837.175 680.76V682.21C836.198 682.64 835.285 682.93 834.436 683.081C833.598 683.242 832.674 683.322 831.665 683.322ZM836.176 673.042C836.176 671.012 835.73 669.427 834.839 668.289C833.947 667.139 832.69 666.564 831.068 666.564C829.457 666.564 828.141 667.123 827.121 668.24C826.111 669.357 825.52 670.958 825.348 673.042H836.176ZM844.297 683H842.702V657.928H844.297V683ZM850.968 659.072C851.301 659.072 851.559 659.206 851.742 659.475C851.935 659.743 852.032 660.125 852.032 660.619C852.032 661.102 851.935 661.483 851.742 661.763C851.559 662.042 851.301 662.182 850.968 662.182C850.292 662.182 849.953 661.666 849.953 660.635C849.953 659.593 850.292 659.072 850.968 659.072ZM851.774 683H850.179V665.485H851.774V683ZM864.729 683.322C862.194 683.322 860.207 682.538 858.767 680.97C857.349 679.401 856.64 677.215 856.64 674.412C856.64 671.608 857.322 669.363 858.687 667.676C860.062 665.99 861.92 665.146 864.262 665.146C866.324 665.146 867.952 665.872 869.144 667.322C870.336 668.761 870.933 670.711 870.933 673.171V674.46H858.316C858.337 676.866 858.896 678.703 859.992 679.971C861.098 681.238 862.677 681.872 864.729 681.872C865.75 681.872 866.646 681.797 867.42 681.646C868.193 681.496 869.133 681.201 870.24 680.76V682.21C869.262 682.64 868.349 682.93 867.5 683.081C866.663 683.242 865.739 683.322 864.729 683.322ZM869.241 673.042C869.241 671.012 868.795 669.427 867.903 668.289C867.012 667.139 865.755 666.564 864.133 666.564C862.521 666.564 861.206 667.123 860.185 668.24C859.175 669.357 858.584 670.958 858.413 673.042H869.241ZM881.213 683H879.602L872.834 665.485H874.478L879.005 677.393C879.618 678.961 880.069 680.298 880.359 681.405H880.456C880.875 679.965 881.326 678.617 881.809 677.36L886.337 665.485H887.98L881.213 683ZM897.987 683.322C895.452 683.322 893.464 682.538 892.025 680.97C890.607 679.401 889.898 677.215 889.898 674.412C889.898 671.608 890.58 669.363 891.944 667.676C893.319 665.99 895.178 665.146 897.52 665.146C899.582 665.146 901.209 665.872 902.402 667.322C903.594 668.761 904.19 670.711 904.19 673.171V674.46H891.574C891.595 676.866 892.154 678.703 893.25 679.971C894.356 681.238 895.935 681.872 897.987 681.872C899.007 681.872 899.904 681.797 900.678 681.646C901.451 681.496 902.391 681.201 903.498 680.76V682.21C902.52 682.64 901.607 682.93 900.758 683.081C899.92 683.242 898.997 683.322 897.987 683.322ZM902.499 673.042C902.499 671.012 902.053 669.427 901.161 668.289C900.27 667.139 899.013 666.564 897.391 666.564C895.779 666.564 894.463 667.123 893.443 668.24C892.433 669.357 891.842 670.958 891.67 673.042H902.499ZM922.785 683H921.722L921.335 680.325H921.206C919.874 682.323 917.978 683.322 915.518 683.322C913.069 683.322 911.205 682.57 909.927 681.066C908.648 679.552 908.009 677.323 908.009 674.379C908.009 671.425 908.643 669.148 909.911 667.547C911.178 665.947 913.021 665.146 915.438 665.146C916.727 665.146 917.828 665.383 918.741 665.855C919.665 666.328 920.486 667.112 921.206 668.208H921.303C921.238 666.854 921.206 665.528 921.206 664.228V657.928H922.785V683ZM921.206 674.492V674.218C921.206 671.5 920.75 669.551 919.836 668.369C918.923 667.188 917.484 666.597 915.518 666.597C913.563 666.597 912.102 667.268 911.135 668.611C910.168 669.943 909.685 671.893 909.685 674.46C909.685 679.423 911.613 681.904 915.47 681.904C917.446 681.904 918.896 681.33 919.82 680.18C920.744 679.031 921.206 677.135 921.206 674.492ZM938.947 665.485H944.087V666.871H938.947V677.957C938.947 679.299 939.183 680.293 939.656 680.938C940.128 681.582 940.875 681.904 941.896 681.904C942.916 681.904 943.792 681.818 944.522 681.646V682.936C943.749 683.193 942.857 683.322 941.847 683.322C940.3 683.322 939.156 682.909 938.415 682.082C937.685 681.254 937.319 679.955 937.319 678.182V666.871H934.725V665.936L937.319 665.211L938.125 661.247H938.947V665.485ZM947.277 674.218C947.277 671.372 947.97 669.148 949.356 667.547C950.742 665.947 952.638 665.146 955.044 665.146C957.461 665.146 959.352 665.958 960.716 667.58C962.091 669.202 962.778 671.431 962.778 674.267C962.778 677.092 962.085 679.31 960.7 680.921C959.314 682.522 957.402 683.322 954.963 683.322C954.91 683.322 954.851 683.322 954.786 683.322C952.562 683.322 950.752 682.5 949.356 680.857C947.97 679.213 947.277 677.081 947.277 674.46C947.277 674.374 947.277 674.293 947.277 674.218ZM955.028 681.872C956.961 681.872 958.455 681.201 959.507 679.858C960.56 678.515 961.086 676.635 961.086 674.218C961.086 671.791 960.549 669.916 959.475 668.595C958.412 667.263 956.913 666.597 954.979 666.597C953.057 666.597 951.569 667.263 950.516 668.595C949.474 669.916 948.953 671.785 948.953 674.202C948.953 676.608 949.479 678.494 950.532 679.858C951.596 681.201 953.094 681.872 955.028 681.872ZM977.812 657.928V664.228C977.812 665.27 977.791 666.14 977.748 666.838L977.699 668.208H977.812C978.478 667.155 979.278 666.382 980.213 665.888C981.158 665.394 982.292 665.146 983.613 665.146C986.051 665.146 987.894 665.915 989.14 667.451C990.386 668.987 991.009 671.227 991.009 674.17C991.009 677.113 990.348 679.375 989.027 680.954C987.738 682.533 985.912 683.322 983.548 683.322C982.302 683.322 981.18 683.064 980.181 682.549C979.182 682.033 978.392 681.303 977.812 680.357H977.667L977.216 683H976.217V657.928H977.812ZM977.812 674.218V674.492C977.812 677.135 978.274 679.031 979.198 680.18C980.132 681.33 981.561 681.904 983.484 681.904C985.417 681.904 986.868 681.244 987.834 679.922C988.812 678.59 989.301 676.678 989.301 674.186C989.301 669.126 987.394 666.597 983.581 666.597C981.529 666.597 980.052 667.188 979.149 668.369C978.258 669.551 977.812 671.5 977.812 674.218ZM1002.95 683.322C1000.41 683.322 998.426 682.538 996.987 680.97C995.569 679.401 994.86 677.215 994.86 674.412C994.86 671.608 995.542 669.363 996.906 667.676C998.281 665.99 1000.14 665.146 1002.48 665.146C1004.54 665.146 1006.17 665.872 1007.36 667.322C1008.56 668.761 1009.15 670.711 1009.15 673.171V674.46H996.536C996.557 676.866 997.116 678.703 998.211 679.971C999.318 681.238 1000.9 681.872 1002.95 681.872C1003.97 681.872 1004.87 681.797 1005.64 681.646C1006.41 681.496 1007.35 681.201 1008.46 680.76V682.21C1007.48 682.64 1006.57 682.93 1005.72 683.081C1004.88 683.242 1003.96 683.322 1002.95 683.322ZM1007.46 673.042C1007.46 671.012 1007.01 669.427 1006.12 668.289C1005.23 667.139 1003.97 666.564 1002.35 666.564C1000.74 666.564 999.425 667.123 998.405 668.24C997.395 669.357 996.804 670.958 996.632 673.042H1007.46ZM818.532 728H817.179L816.889 725.583H816.792C815.643 727.409 813.618 728.322 810.717 728.322C806.732 728.322 804.739 726.19 804.739 721.925V710.485H806.318V721.829C806.318 723.58 806.684 724.858 807.414 725.664C808.155 726.469 809.31 726.872 810.878 726.872C812.952 726.872 814.482 726.346 815.471 725.293C816.459 724.24 816.953 722.527 816.953 720.153V710.485H818.532V728ZM832.229 710.146C836.203 710.146 838.19 712.279 838.19 716.543V728H836.611V716.64C836.611 714.889 836.241 713.611 835.5 712.805C834.769 712 833.62 711.597 832.051 711.597C829.978 711.597 828.447 712.123 827.459 713.176C826.481 714.229 825.993 715.947 825.993 718.332V728H824.397V710.485H825.751L826.057 712.886H826.154C827.303 711.06 829.328 710.146 832.229 710.146ZM857.623 728H856.56L856.173 725.325H856.044C854.712 727.323 852.816 728.322 850.356 728.322C847.907 728.322 846.043 727.57 844.765 726.066C843.486 724.552 842.847 722.323 842.847 719.379C842.847 716.425 843.481 714.148 844.749 712.547C846.016 710.947 847.858 710.146 850.275 710.146C851.564 710.146 852.666 710.383 853.579 710.855C854.502 711.328 855.324 712.112 856.044 713.208H856.141C856.076 711.854 856.044 710.528 856.044 709.228V702.928H857.623V728ZM856.044 719.492V719.218C856.044 716.5 855.587 714.551 854.674 713.369C853.761 712.188 852.322 711.597 850.356 711.597C848.401 711.597 846.94 712.268 845.973 713.611C845.006 714.943 844.523 716.893 844.523 719.46C844.523 724.423 846.451 726.904 850.308 726.904C852.284 726.904 853.734 726.33 854.658 725.18C855.582 724.031 856.044 722.135 856.044 719.492ZM864.31 704.072C864.643 704.072 864.901 704.206 865.083 704.475C865.277 704.743 865.374 705.125 865.374 705.619C865.374 706.102 865.277 706.483 865.083 706.763C864.901 707.042 864.643 707.182 864.31 707.182C863.633 707.182 863.295 706.666 863.295 705.635C863.295 704.593 863.633 704.072 864.31 704.072ZM865.116 728H863.521V710.485H865.116V728ZM871.368 711.532C873.291 710.63 875.203 710.179 877.104 710.179C879.016 710.179 880.445 710.684 881.39 711.693C882.335 712.692 882.808 714.245 882.808 716.35V728H881.632L881.229 725.229H881.1C880.208 726.367 879.301 727.167 878.377 727.629C877.464 728.091 876.368 728.322 875.09 728.322C873.371 728.322 872.028 727.887 871.062 727.017C870.105 726.136 869.627 724.879 869.627 723.247C869.627 721.603 870.342 720.309 871.771 719.363C873.199 718.418 875.262 717.918 877.958 717.865L881.293 717.768V716.608C881.293 714.911 880.95 713.648 880.262 712.821C879.575 711.983 878.463 711.564 876.927 711.564C875.391 711.564 873.736 712.016 871.964 712.918L871.368 711.532ZM871.335 723.408C871.335 724.503 871.668 725.357 872.334 725.97C873.011 726.571 873.962 726.872 875.187 726.872C877.056 726.872 878.527 726.335 879.602 725.261C880.687 724.187 881.229 722.704 881.229 720.813V719.089L878.167 719.218C875.708 719.336 873.951 719.723 872.898 720.378C871.856 721.023 871.335 722.033 871.335 723.408ZM892.927 725.583H895.989C897.901 725.583 899.356 725.97 900.355 726.743C901.365 727.506 901.87 728.639 901.87 730.143C901.87 731.991 901.118 733.414 899.614 734.413C898.121 735.423 895.989 735.928 893.217 735.928C891.026 735.928 889.323 735.503 888.109 734.655C886.896 733.806 886.289 732.625 886.289 731.11C886.289 729.928 886.654 728.935 887.384 728.129C888.125 727.334 889.146 726.792 890.446 726.501C889.909 726.265 889.484 725.938 889.173 725.519C888.861 725.1 888.706 724.627 888.706 724.101C888.706 722.919 889.452 721.888 890.945 721.007C889.925 720.588 889.13 719.933 888.561 719.041C887.991 718.139 887.707 717.107 887.707 715.947C887.707 714.186 888.26 712.778 889.366 711.726C890.483 710.673 891.987 710.146 893.878 710.146C895.038 710.146 895.93 710.259 896.553 710.485H902.16V711.597L898.535 711.822C899.501 713.025 899.985 714.347 899.985 715.786C899.985 717.483 899.426 718.853 898.309 719.895C897.192 720.937 895.683 721.458 893.781 721.458C892.986 721.458 892.428 721.426 892.105 721.361C890.806 722.038 890.156 722.908 890.156 723.972C890.156 724.53 890.371 724.938 890.8 725.196C891.23 725.454 891.939 725.583 892.927 725.583ZM898.374 715.834C898.374 714.395 897.976 713.299 897.181 712.547C896.397 711.785 895.291 711.403 893.862 711.403C892.433 711.403 891.316 711.806 890.51 712.612C889.715 713.417 889.318 714.513 889.318 715.899C889.318 717.285 889.726 718.354 890.542 719.105C891.37 719.847 892.492 720.217 893.91 720.217C895.328 720.217 896.424 719.847 897.197 719.105C897.981 718.364 898.374 717.274 898.374 715.834ZM895.667 727.178H892.798C889.586 727.178 887.98 728.44 887.98 730.965C887.98 733.371 889.769 734.574 893.346 734.574C897.944 734.574 900.243 733.108 900.243 730.175C900.243 729.123 899.883 728.36 899.163 727.887C898.443 727.415 897.278 727.178 895.667 727.178ZM913.601 710.146C917.575 710.146 919.562 712.279 919.562 716.543V728H917.983V716.64C917.983 714.889 917.613 713.611 916.872 712.805C916.141 712 914.992 711.597 913.423 711.597C911.35 711.597 909.819 712.123 908.831 713.176C907.854 714.229 907.365 715.947 907.365 718.332V728H905.77V710.485H907.123L907.429 712.886H907.526C908.675 711.06 910.7 710.146 913.601 710.146ZM924.203 719.218C924.203 716.372 924.896 714.148 926.282 712.547C927.667 710.947 929.563 710.146 931.97 710.146C934.387 710.146 936.277 710.958 937.642 712.58C939.017 714.202 939.704 716.431 939.704 719.267C939.704 722.092 939.011 724.31 937.625 725.921C936.24 727.522 934.328 728.322 931.889 728.322C931.835 728.322 931.776 728.322 931.712 728.322C929.488 728.322 927.678 727.5 926.282 725.857C924.896 724.213 924.203 722.081 924.203 719.46C924.203 719.374 924.203 719.293 924.203 719.218ZM931.954 726.872C933.887 726.872 935.38 726.201 936.433 724.858C937.486 723.515 938.012 721.635 938.012 719.218C938.012 716.791 937.475 714.916 936.401 713.595C935.337 712.263 933.839 711.597 931.905 711.597C929.982 711.597 928.495 712.263 927.442 713.595C926.4 714.916 925.879 716.785 925.879 719.202C925.879 721.608 926.405 723.494 927.458 724.858C928.521 726.201 930.02 726.872 931.954 726.872ZM942.991 725.519C944.71 726.399 946.493 726.84 948.341 726.84C950.188 726.84 951.569 726.561 952.482 726.002C953.395 725.433 953.852 724.681 953.852 723.746C953.852 722.812 953.492 722.049 952.772 721.458C952.052 720.856 950.854 720.26 949.179 719.669C947.503 719.068 946.3 718.531 945.569 718.058C944.839 717.585 944.296 717.059 943.942 716.479C943.598 715.899 943.426 715.206 943.426 714.4C943.426 713.101 943.974 712.064 945.07 711.291C946.187 710.528 947.707 710.146 949.63 710.146C951.563 710.146 953.379 710.501 955.076 711.21L954.48 712.66C952.718 711.951 951.123 711.597 949.694 711.597C948.266 711.597 947.132 711.833 946.294 712.306C945.457 712.778 945.038 713.455 945.038 714.336C945.038 715.206 945.36 715.915 946.004 716.463C946.66 717.011 947.852 717.596 949.582 718.219C951.311 718.832 952.541 719.374 953.271 719.847C954.711 720.749 955.431 721.968 955.431 723.504C955.431 725.03 954.834 726.217 953.642 727.065C952.45 727.903 950.715 728.322 948.438 728.322C946.171 728.322 944.355 727.962 942.991 727.243V725.519ZM967.016 728.322C964.481 728.322 962.494 727.538 961.054 725.97C959.636 724.401 958.927 722.215 958.927 719.412C958.927 716.608 959.609 714.363 960.974 712.676C962.349 710.99 964.207 710.146 966.549 710.146C968.611 710.146 970.239 710.872 971.431 712.322C972.624 713.761 973.22 715.711 973.22 718.171V719.46H960.603C960.625 721.866 961.183 723.703 962.279 724.971C963.385 726.238 964.964 726.872 967.016 726.872C968.037 726.872 968.934 726.797 969.707 726.646C970.48 726.496 971.42 726.201 972.527 725.76V727.21C971.549 727.64 970.636 727.93 969.788 728.081C968.95 728.242 968.026 728.322 967.016 728.322ZM971.528 718.042C971.528 716.012 971.082 714.427 970.19 713.289C969.299 712.139 968.042 711.564 966.42 711.564C964.809 711.564 963.493 712.123 962.472 713.24C961.462 714.357 960.872 715.958 960.7 718.042H971.528ZM991.814 728H990.751L990.364 725.325H990.235C988.903 727.323 987.007 728.322 984.547 728.322C982.098 728.322 980.234 727.57 978.956 726.066C977.678 724.552 977.039 722.323 977.039 719.379C977.039 716.425 977.672 714.148 978.94 712.547C980.208 710.947 982.05 710.146 984.467 710.146C985.756 710.146 986.857 710.383 987.77 710.855C988.694 711.328 989.516 712.112 990.235 713.208H990.332C990.268 711.854 990.235 710.528 990.235 709.228V702.928H991.814V728ZM990.235 719.492V719.218C990.235 716.5 989.779 714.551 988.866 713.369C987.953 712.188 986.513 711.597 984.547 711.597C982.592 711.597 981.131 712.268 980.165 713.611C979.198 714.943 978.714 716.893 978.714 719.46C978.714 724.423 980.643 726.904 984.499 726.904C986.476 726.904 987.926 726.33 988.85 725.18C989.773 724.031 990.235 722.135 990.235 719.492Z" fill="black"/>
<path d="M75.6035 663.035C77.7012 662.051 79.7871 661.559 81.8613 661.559C83.9473 661.559 85.5059 662.109 86.5371 663.211C87.5684 664.301 88.084 665.994 88.084 668.291V681H86.8008L86.3613 677.977H86.2207C85.248 679.219 84.2578 680.092 83.25 680.596C82.2539 681.1 81.0586 681.352 79.6641 681.352C77.7891 681.352 76.3242 680.877 75.2695 679.928C74.2266 678.967 73.7051 677.596 73.7051 675.814C73.7051 674.021 74.4844 672.609 76.043 671.578C77.6016 670.547 79.8516 670.002 82.793 669.943L86.4316 669.838V668.572C86.4316 666.721 86.0566 665.344 85.3066 664.441C84.5566 663.527 83.3438 663.07 81.668 663.07C79.9922 663.07 78.1875 663.562 76.2539 664.547L75.6035 663.035ZM75.5684 675.99C75.5684 677.186 75.9316 678.117 76.6582 678.785C77.3965 679.441 78.4336 679.77 79.7695 679.77C81.8086 679.77 83.4141 679.184 84.5859 678.012C85.7695 676.84 86.3613 675.223 86.3613 673.16V671.279L83.0215 671.42C80.3379 671.549 78.4219 671.971 77.2734 672.686C76.1367 673.389 75.5684 674.49 75.5684 675.99ZM101.918 681.352C99.1875 681.352 97.0488 680.49 95.502 678.768C93.9551 677.045 93.1816 674.625 93.1816 671.508C93.1816 668.391 93.9785 665.947 95.5723 664.178C97.1777 662.408 99.3809 661.523 102.182 661.523C103.846 661.523 105.428 661.811 106.928 662.385L106.453 663.949C104.801 663.387 103.365 663.105 102.146 663.105C99.8145 663.105 98.0391 663.826 96.8203 665.268C95.6133 666.709 95.0098 668.76 95.0098 671.42C95.0098 674.08 95.6133 676.137 96.8203 677.59C98.0273 679.043 99.7148 679.77 101.883 679.77C103.594 679.77 105.205 679.459 106.717 678.838V680.455C105.51 681.053 103.91 681.352 101.918 681.352ZM119.004 681.352C116.273 681.352 114.135 680.49 112.588 678.768C111.041 677.045 110.268 674.625 110.268 671.508C110.268 668.391 111.064 665.947 112.658 664.178C114.264 662.408 116.467 661.523 119.268 661.523C120.932 661.523 122.514 661.811 124.014 662.385L123.539 663.949C121.887 663.387 120.451 663.105 119.232 663.105C116.9 663.105 115.125 663.826 113.906 665.268C112.699 666.709 112.096 668.76 112.096 671.42C112.096 674.08 112.699 676.137 113.906 677.59C115.113 679.043 116.801 679.77 118.969 679.77C120.68 679.77 122.291 679.459 123.803 678.838V680.455C122.596 681.053 120.996 681.352 119.004 681.352ZM127.336 671.42C127.336 668.314 128.092 665.889 129.604 664.143C131.115 662.396 133.184 661.523 135.809 661.523C138.445 661.523 140.508 662.408 141.996 664.178C143.496 665.947 144.246 668.379 144.246 671.473C144.246 674.555 143.49 676.975 141.979 678.732C140.467 680.479 138.381 681.352 135.721 681.352C135.662 681.352 135.598 681.352 135.527 681.352C133.102 681.352 131.127 680.455 129.604 678.662C128.092 676.869 127.336 674.543 127.336 671.684C127.336 671.59 127.336 671.502 127.336 671.42ZM135.791 679.77C137.9 679.77 139.529 679.037 140.678 677.572C141.826 676.107 142.4 674.057 142.4 671.42C142.4 668.771 141.814 666.727 140.643 665.285C139.482 663.832 137.848 663.105 135.738 663.105C133.641 663.105 132.018 663.832 130.869 665.285C129.732 666.727 129.164 668.766 129.164 671.402C129.164 674.027 129.738 676.084 130.887 677.572C132.047 679.037 133.682 679.77 135.791 679.77ZM157.078 661.523C157.852 661.523 158.719 661.605 159.68 661.77L159.346 663.457C158.561 663.246 157.734 663.141 156.867 663.141C155.238 663.141 153.902 663.838 152.859 665.232C151.816 666.615 151.295 668.355 151.295 670.453V681H149.555V661.893H151.031L151.207 665.338H151.33C152.139 663.908 152.977 662.924 153.844 662.385C154.734 661.811 155.812 661.523 157.078 661.523ZM178.594 681H177.434L177.012 678.082H176.871C175.418 680.262 173.35 681.352 170.666 681.352C167.994 681.352 165.961 680.531 164.566 678.891C163.172 677.238 162.475 674.807 162.475 671.596C162.475 668.373 163.166 665.889 164.549 664.143C165.932 662.396 167.941 661.523 170.578 661.523C171.984 661.523 173.186 661.781 174.182 662.297C175.189 662.812 176.086 663.668 176.871 664.863H176.977C176.906 663.387 176.871 661.939 176.871 660.521V653.648H178.594V681ZM176.871 671.719V671.42C176.871 668.455 176.373 666.328 175.377 665.039C174.381 663.75 172.811 663.105 170.666 663.105C168.533 663.105 166.939 663.838 165.885 665.303C164.83 666.756 164.303 668.883 164.303 671.684C164.303 677.098 166.406 679.805 170.613 679.805C172.77 679.805 174.352 679.178 175.359 677.924C176.367 676.67 176.871 674.602 176.871 671.719ZM185.889 654.896C186.252 654.896 186.533 655.043 186.732 655.336C186.943 655.629 187.049 656.045 187.049 656.584C187.049 657.111 186.943 657.527 186.732 657.832C186.533 658.137 186.252 658.289 185.889 658.289C185.15 658.289 184.781 657.727 184.781 656.602C184.781 655.465 185.15 654.896 185.889 654.896ZM186.768 681H185.027V661.893H186.768V681ZM201.727 661.523C206.062 661.523 208.23 663.85 208.23 668.502V681H206.508V668.607C206.508 666.697 206.104 665.303 205.295 664.424C204.498 663.545 203.244 663.105 201.533 663.105C199.271 663.105 197.602 663.68 196.523 664.828C195.457 665.977 194.924 667.852 194.924 670.453V681H193.184V661.893H194.66L194.994 664.512H195.1C196.354 662.52 198.562 661.523 201.727 661.523ZM219.252 678.363H222.592C224.678 678.363 226.266 678.785 227.355 679.629C228.457 680.461 229.008 681.697 229.008 683.338C229.008 685.354 228.188 686.906 226.547 687.996C224.918 689.098 222.592 689.648 219.568 689.648C217.178 689.648 215.32 689.186 213.996 688.26C212.672 687.334 212.01 686.045 212.01 684.393C212.01 683.104 212.408 682.02 213.205 681.141C214.014 680.273 215.127 679.682 216.545 679.365C215.959 679.107 215.496 678.75 215.156 678.293C214.816 677.836 214.646 677.32 214.646 676.746C214.646 675.457 215.461 674.332 217.09 673.371C215.977 672.914 215.109 672.199 214.488 671.227C213.867 670.242 213.557 669.117 213.557 667.852C213.557 665.93 214.16 664.395 215.367 663.246C216.586 662.098 218.227 661.523 220.289 661.523C221.555 661.523 222.527 661.646 223.207 661.893H229.324V663.105L225.369 663.352C226.424 664.664 226.951 666.105 226.951 667.676C226.951 669.527 226.342 671.021 225.123 672.158C223.904 673.295 222.258 673.863 220.184 673.863C219.316 673.863 218.707 673.828 218.355 673.758C216.938 674.496 216.229 675.445 216.229 676.605C216.229 677.215 216.463 677.66 216.932 677.941C217.4 678.223 218.174 678.363 219.252 678.363ZM225.193 667.729C225.193 666.158 224.76 664.963 223.893 664.143C223.037 663.311 221.83 662.895 220.271 662.895C218.713 662.895 217.494 663.334 216.615 664.213C215.748 665.092 215.314 666.287 215.314 667.799C215.314 669.311 215.76 670.477 216.65 671.297C217.553 672.105 218.777 672.51 220.324 672.51C221.871 672.51 223.066 672.105 223.91 671.297C224.766 670.488 225.193 669.299 225.193 667.729ZM222.24 680.104H219.111C215.607 680.104 213.855 681.48 213.855 684.234C213.855 686.859 215.807 688.172 219.709 688.172C224.725 688.172 227.232 686.572 227.232 683.373C227.232 682.225 226.84 681.393 226.055 680.877C225.27 680.361 223.998 680.104 222.24 680.104ZM244.459 661.893H250.066V663.404H244.459V675.498C244.459 676.963 244.717 678.047 245.232 678.75C245.748 679.453 246.562 679.805 247.676 679.805C248.789 679.805 249.744 679.711 250.541 679.523V680.93C249.697 681.211 248.725 681.352 247.623 681.352C245.936 681.352 244.688 680.9 243.879 679.998C243.082 679.096 242.684 677.678 242.684 675.744V663.404H239.854V662.385L242.684 661.594L243.562 657.27H244.459V661.893ZM253.547 671.42C253.547 668.314 254.303 665.889 255.814 664.143C257.326 662.396 259.395 661.523 262.02 661.523C264.656 661.523 266.719 662.408 268.207 664.178C269.707 665.947 270.457 668.379 270.457 671.473C270.457 674.555 269.701 676.975 268.189 678.732C266.678 680.479 264.592 681.352 261.932 681.352C261.873 681.352 261.809 681.352 261.738 681.352C259.312 681.352 257.338 680.455 255.814 678.662C254.303 676.869 253.547 674.543 253.547 671.684C253.547 671.59 253.547 671.502 253.547 671.42ZM262.002 679.77C264.111 679.77 265.74 679.037 266.889 677.572C268.037 676.107 268.611 674.057 268.611 671.42C268.611 668.771 268.025 666.727 266.854 665.285C265.693 663.832 264.059 663.105 261.949 663.105C259.852 663.105 258.229 663.832 257.08 665.285C255.943 666.727 255.375 668.766 255.375 671.402C255.375 674.027 255.949 676.084 257.098 677.572C258.258 679.037 259.893 679.77 262.002 679.77ZM293.326 661.523C295.904 661.523 297.867 662.373 299.215 664.072C300.574 665.76 301.254 668.197 301.254 671.385C301.254 674.561 300.539 677.016 299.109 678.75C297.691 680.484 295.752 681.352 293.291 681.352C290.361 681.352 288.217 680.25 286.857 678.047H286.734L286.787 679.523C286.834 680.285 286.857 681.234 286.857 682.371V689.648H285.117V661.893H286.594L286.928 664.617H287.033C288.357 662.555 290.455 661.523 293.326 661.523ZM286.857 670.928V671.49C286.857 674.479 287.355 676.611 288.352 677.889C289.348 679.166 290.982 679.805 293.256 679.805C295.213 679.805 296.725 679.078 297.791 677.625C298.857 676.172 299.391 674.139 299.391 671.525C299.391 665.912 297.369 663.105 293.326 663.105C291.111 663.105 289.477 663.721 288.422 664.951C287.379 666.17 286.857 668.162 286.857 670.928ZM314.086 661.523C314.859 661.523 315.727 661.605 316.688 661.77L316.354 663.457C315.568 663.246 314.742 663.141 313.875 663.141C312.246 663.141 310.91 663.838 309.867 665.232C308.824 666.615 308.303 668.355 308.303 670.453V681H306.562V661.893H308.039L308.215 665.338H308.338C309.146 663.908 309.984 662.924 310.852 662.385C311.742 661.811 312.82 661.523 314.086 661.523ZM319.465 671.42C319.465 668.314 320.221 665.889 321.732 664.143C323.244 662.396 325.312 661.523 327.938 661.523C330.574 661.523 332.637 662.408 334.125 664.178C335.625 665.947 336.375 668.379 336.375 671.473C336.375 674.555 335.619 676.975 334.107 678.732C332.596 680.479 330.51 681.352 327.85 681.352C327.791 681.352 327.727 681.352 327.656 681.352C325.23 681.352 323.256 680.455 321.732 678.662C320.221 676.869 319.465 674.543 319.465 671.684C319.465 671.59 319.465 671.502 319.465 671.42ZM327.92 679.77C330.029 679.77 331.658 679.037 332.807 677.572C333.955 676.107 334.529 674.057 334.529 671.42C334.529 668.771 333.943 666.727 332.771 665.285C331.611 663.832 329.977 663.105 327.867 663.105C325.77 663.105 324.146 663.832 322.998 665.285C321.861 666.727 321.293 668.766 321.293 671.402C321.293 674.027 321.867 676.084 323.016 677.572C324.176 679.037 325.811 679.77 327.92 679.77ZM342.545 654.896C342.908 654.896 343.189 655.043 343.389 655.336C343.6 655.629 343.705 656.045 343.705 656.584C343.705 657.111 343.6 657.527 343.389 657.832C343.189 658.137 342.908 658.289 342.545 658.289C341.807 658.289 341.438 657.727 341.438 656.602C341.438 655.465 341.807 654.896 342.545 654.896ZM343.424 661.893V684.709C343.424 686.291 343.049 687.51 342.299 688.365C341.561 689.221 340.506 689.648 339.135 689.648C338.186 689.648 337.4 689.502 336.779 689.209V687.697C337.588 687.932 338.338 688.049 339.029 688.049C340.799 688.049 341.684 687.018 341.684 684.955V661.893H343.424ZM357.557 681.352C354.791 681.352 352.623 680.496 351.053 678.785C349.506 677.074 348.732 674.689 348.732 671.631C348.732 668.572 349.477 666.123 350.965 664.283C352.465 662.443 354.492 661.523 357.047 661.523C359.297 661.523 361.072 662.314 362.373 663.896C363.674 665.467 364.324 667.594 364.324 670.277V671.684H350.561C350.584 674.309 351.193 676.312 352.389 677.695C353.596 679.078 355.318 679.77 357.557 679.77C358.67 679.77 359.648 679.688 360.492 679.523C361.336 679.359 362.361 679.037 363.568 678.557V680.139C362.502 680.607 361.506 680.924 360.58 681.088C359.666 681.264 358.658 681.352 357.557 681.352ZM362.479 670.137C362.479 667.922 361.992 666.193 361.02 664.951C360.047 663.697 358.676 663.07 356.906 663.07C355.148 663.07 353.713 663.68 352.6 664.898C351.498 666.117 350.854 667.863 350.666 670.137H362.479ZM377.227 681.352C374.496 681.352 372.357 680.49 370.811 678.768C369.264 677.045 368.49 674.625 368.49 671.508C368.49 668.391 369.287 665.947 370.881 664.178C372.486 662.408 374.689 661.523 377.49 661.523C379.154 661.523 380.736 661.811 382.236 662.385L381.762 663.949C380.109 663.387 378.674 663.105 377.455 663.105C375.123 663.105 373.348 663.826 372.129 665.268C370.922 666.709 370.318 668.76 370.318 671.42C370.318 674.08 370.922 676.137 372.129 677.59C373.336 679.043 375.023 679.77 377.191 679.77C378.902 679.77 380.514 679.459 382.025 678.838V680.455C380.818 681.053 379.219 681.352 377.227 681.352ZM388.529 661.893H394.137V663.404H388.529V675.498C388.529 676.963 388.787 678.047 389.303 678.75C389.818 679.453 390.633 679.805 391.746 679.805C392.859 679.805 393.814 679.711 394.611 679.523V680.93C393.768 681.211 392.795 681.352 391.693 681.352C390.006 681.352 388.758 680.9 387.949 679.998C387.152 679.096 386.754 677.678 386.754 675.744V663.404H383.924V662.385L386.754 661.594L387.633 657.27H388.529V661.893ZM399.604 654.896C399.967 654.896 400.248 655.043 400.447 655.336C400.658 655.629 400.764 656.045 400.764 656.584C400.764 657.111 400.658 657.527 400.447 657.832C400.248 658.137 399.967 658.289 399.604 658.289C398.865 658.289 398.496 657.727 398.496 656.602C398.496 655.465 398.865 654.896 399.604 654.896ZM400.482 681H398.742V661.893H400.482V681ZM405.773 671.42C405.773 668.314 406.529 665.889 408.041 664.143C409.553 662.396 411.621 661.523 414.246 661.523C416.883 661.523 418.945 662.408 420.434 664.178C421.934 665.947 422.684 668.379 422.684 671.473C422.684 674.555 421.928 676.975 420.416 678.732C418.904 680.479 416.818 681.352 414.158 681.352C414.1 681.352 414.035 681.352 413.965 681.352C411.539 681.352 409.564 680.455 408.041 678.662C406.529 676.869 405.773 674.543 405.773 671.684C405.773 671.59 405.773 671.502 405.773 671.42ZM414.229 679.77C416.338 679.77 417.967 679.037 419.115 677.572C420.264 676.107 420.838 674.057 420.838 671.42C420.838 668.771 420.252 666.727 419.08 665.285C417.92 663.832 416.285 663.105 414.176 663.105C412.078 663.105 410.455 663.832 409.307 665.285C408.17 666.727 407.602 668.766 407.602 671.402C407.602 674.027 408.176 676.084 409.324 677.572C410.484 679.037 412.119 679.77 414.229 679.77ZM436.535 661.523C440.871 661.523 443.039 663.85 443.039 668.502V681H441.316V668.607C441.316 666.697 440.912 665.303 440.104 664.424C439.307 663.545 438.053 663.105 436.342 663.105C434.08 663.105 432.41 663.68 431.332 664.828C430.266 665.977 429.732 667.852 429.732 670.453V681H427.992V661.893H429.469L429.803 664.512H429.908C431.162 662.52 433.371 661.523 436.535 661.523ZM447.504 678.293C449.379 679.254 451.324 679.734 453.34 679.734C455.355 679.734 456.861 679.43 457.857 678.82C458.854 678.199 459.352 677.379 459.352 676.359C459.352 675.34 458.959 674.508 458.174 673.863C457.389 673.207 456.082 672.557 454.254 671.912C452.426 671.256 451.113 670.67 450.316 670.154C449.52 669.639 448.928 669.064 448.541 668.432C448.166 667.799 447.979 667.043 447.979 666.164C447.979 664.746 448.576 663.615 449.771 662.771C450.99 661.939 452.648 661.523 454.746 661.523C456.855 661.523 458.836 661.91 460.688 662.684L460.037 664.266C458.115 663.492 456.375 663.105 454.816 663.105C453.258 663.105 452.021 663.363 451.107 663.879C450.193 664.395 449.736 665.133 449.736 666.094C449.736 667.043 450.088 667.816 450.791 668.414C451.506 669.012 452.807 669.65 454.693 670.33C456.58 670.998 457.922 671.59 458.719 672.105C460.289 673.09 461.074 674.42 461.074 676.096C461.074 677.76 460.424 679.055 459.123 679.98C457.822 680.895 455.93 681.352 453.445 681.352C450.973 681.352 448.992 680.959 447.504 680.174V678.293Z" fill="black"/>
<rect x="726.5" y="459.5" width="402" height="349" stroke="black"/>
</g>
<defs>
<clipPath id="clip0">
<rect width="1129" height="809" fill="white"/>
</clipPath>
</defs>
</svg>
