<svg width="1277" height="771" viewBox="0 0 1277 771" fill="none" xmlns="http://www.w3.org/2000/svg">
<g clip-path="url(#clip0)">
<rect width="1277" height="771" fill="#22313F"/>
<path d="M64.8 102.12V117H54.54V74.58H71.16C76.2 74.58 80.04 75.84 82.68 78.36C85.32 80.84 86.64 84.2 86.64 88.44C86.64 91.08 86.04 93.44 84.84 95.52C83.68 97.56 81.94 99.18 79.62 100.38C77.3 101.54 74.48 102.12 71.16 102.12H64.8ZM70.02 93.9C74.14 93.9 76.2 92.08 76.2 88.44C76.2 84.72 74.14 82.86 70.02 82.86H64.8V93.9H70.02ZM123.488 99.36C123.488 100.2 123.388 101.12 123.188 102.12H99.9684C100.088 104.64 100.728 106.46 101.888 107.58C103.048 108.66 104.528 109.2 106.328 109.2C107.848 109.2 109.108 108.82 110.108 108.06C111.108 107.3 111.768 106.32 112.088 105.12H122.948C122.508 107.48 121.548 109.6 120.068 111.48C118.588 113.32 116.708 114.78 114.428 115.86C112.148 116.9 109.608 117.42 106.808 117.42C103.528 117.42 100.608 116.74 98.0484 115.38C95.5284 113.98 93.5484 111.98 92.1084 109.38C90.6684 106.78 89.9484 103.74 89.9484 100.26C89.9484 96.74 90.6484 93.7 92.0484 91.14C93.4884 88.54 95.4884 86.56 98.0484 85.2C100.608 83.8 103.528 83.1 106.808 83.1C110.128 83.1 113.048 83.78 115.568 85.14C118.088 86.5 120.028 88.42 121.388 90.9C122.788 93.34 123.488 96.16 123.488 99.36ZM113.108 97.8C113.148 95.6 112.548 93.96 111.308 92.88C110.108 91.76 108.608 91.2 106.808 91.2C104.928 91.2 103.368 91.76 102.128 92.88C100.888 94 100.188 95.64 100.028 97.8H113.108ZM139.097 89.82C140.377 87.78 142.017 86.16 144.017 84.96C146.057 83.76 148.257 83.16 150.617 83.16V94.14H147.677C144.957 94.14 142.837 94.72 141.317 95.88C139.837 97.04 139.097 99 139.097 101.76V117H128.837V83.52H139.097V89.82ZM170.031 83.1C174.351 83.1 177.971 84.3 180.891 86.7C183.811 89.06 185.651 92.32 186.411 96.48H175.551C175.231 95.04 174.571 93.92 173.571 93.12C172.571 92.32 171.311 91.92 169.791 91.92C167.991 91.92 166.511 92.64 165.351 94.08C164.191 95.48 163.611 97.54 163.611 100.26C163.611 102.98 164.191 105.06 165.351 106.5C166.511 107.9 167.991 108.6 169.791 108.6C171.311 108.6 172.571 108.2 173.571 107.4C174.571 106.6 175.231 105.48 175.551 104.04H186.411C185.651 108.2 183.811 111.48 180.891 113.88C177.971 116.24 174.351 117.42 170.031 117.42C166.751 117.42 163.831 116.74 161.271 115.38C158.751 113.98 156.771 111.98 155.331 109.38C153.891 106.78 153.171 103.74 153.171 100.26C153.171 96.74 153.871 93.7 155.271 91.14C156.711 88.54 158.711 86.56 161.271 85.2C163.831 83.8 166.751 83.1 170.031 83.1ZM223.567 99.36C223.567 100.2 223.467 101.12 223.267 102.12H200.047C200.167 104.64 200.807 106.46 201.967 107.58C203.127 108.66 204.607 109.2 206.407 109.2C207.927 109.2 209.187 108.82 210.187 108.06C211.187 107.3 211.847 106.32 212.167 105.12H223.027C222.587 107.48 221.627 109.6 220.147 111.48C218.667 113.32 216.787 114.78 214.507 115.86C212.227 116.9 209.687 117.42 206.887 117.42C203.607 117.42 200.687 116.74 198.127 115.38C195.607 113.98 193.627 111.98 192.187 109.38C190.747 106.78 190.027 103.74 190.027 100.26C190.027 96.74 190.727 93.7 192.127 91.14C193.567 88.54 195.567 86.56 198.127 85.2C200.687 83.8 203.607 83.1 206.887 83.1C210.207 83.1 213.127 83.78 215.647 85.14C218.167 86.5 220.107 88.42 221.467 90.9C222.867 93.34 223.567 96.16 223.567 99.36ZM213.187 97.8C213.227 95.6 212.627 93.96 211.387 92.88C210.187 91.76 208.687 91.2 206.887 91.2C205.007 91.2 203.447 91.76 202.207 92.88C200.967 94 200.267 95.64 200.107 97.8H213.187ZM250.155 83.16C253.995 83.16 257.035 84.44 259.275 87C261.555 89.56 262.695 93.08 262.695 97.56V117H252.435V98.76C252.435 96.52 251.835 94.78 250.635 93.54C249.475 92.26 247.915 91.62 245.955 91.62C243.875 91.62 242.215 92.28 240.975 93.6C239.775 94.92 239.175 96.8 239.175 99.24V117H228.915V83.52H239.175V89.64C240.135 87.64 241.555 86.06 243.435 84.9C245.355 83.74 247.595 83.16 250.155 83.16ZM288.422 108.18V117H283.802C279.882 117 276.822 116.04 274.622 114.12C272.462 112.16 271.382 108.94 271.382 104.46V92.16H266.882V83.52H271.382V75.3H281.642V83.52H288.362V92.16H281.642V104.64C281.642 105.96 281.902 106.88 282.422 107.4C282.982 107.92 283.902 108.18 285.182 108.18H288.422ZM306.908 83.1C309.468 83.1 311.668 83.68 313.508 84.84C315.348 86 316.708 87.58 317.588 89.58V83.52H327.788V117H317.588V110.94C316.708 112.94 315.348 114.52 313.508 115.68C311.668 116.84 309.468 117.42 306.908 117.42C304.148 117.42 301.668 116.74 299.468 115.38C297.308 113.98 295.588 111.98 294.308 109.38C293.068 106.78 292.448 103.74 292.448 100.26C292.448 96.74 293.068 93.7 294.308 91.14C295.588 88.54 297.308 86.56 299.468 85.2C301.668 83.8 304.148 83.1 306.908 83.1ZM310.208 92.1C308.008 92.1 306.228 92.82 304.868 94.26C303.548 95.7 302.888 97.7 302.888 100.26C302.888 102.82 303.548 104.82 304.868 106.26C306.228 107.7 308.008 108.42 310.208 108.42C312.368 108.42 314.128 107.68 315.488 106.2C316.888 104.72 317.588 102.74 317.588 100.26C317.588 97.74 316.888 95.76 315.488 94.32C314.128 92.84 312.368 92.1 310.208 92.1ZM347.573 83.1C350.133 83.1 352.333 83.68 354.173 84.84C356.013 86 357.373 87.58 358.253 89.58V83.52H368.453V116.82C368.453 119.94 367.853 122.74 366.653 125.22C365.453 127.74 363.613 129.74 361.133 131.22C358.653 132.7 355.573 133.44 351.893 133.44C346.853 133.44 342.813 132.24 339.773 129.84C336.773 127.48 334.973 124.26 334.373 120.18H344.513C344.833 121.54 345.553 122.6 346.673 123.36C347.833 124.12 349.333 124.5 351.173 124.5C353.293 124.5 354.993 123.88 356.273 122.64C357.593 121.44 358.253 119.5 358.253 116.82V110.94C357.373 112.94 356.013 114.52 354.173 115.68C352.333 116.84 350.133 117.42 347.573 117.42C344.813 117.42 342.333 116.74 340.132 115.38C337.973 113.98 336.253 111.98 334.973 109.38C333.733 106.78 333.113 103.74 333.113 100.26C333.113 96.74 333.733 93.7 334.973 91.14C336.253 88.54 337.973 86.56 340.132 85.2C342.333 83.8 344.813 83.1 347.573 83.1ZM350.873 92.1C348.673 92.1 346.893 92.82 345.533 94.26C344.213 95.7 343.553 97.7 343.553 100.26C343.553 102.82 344.213 104.82 345.533 106.26C346.893 107.7 348.673 108.42 350.873 108.42C353.033 108.42 354.793 107.68 356.153 106.2C357.553 104.72 358.253 102.74 358.253 100.26C358.253 97.74 357.553 95.76 356.153 94.32C354.793 92.84 353.033 92.1 350.873 92.1ZM407.317 99.36C407.317 100.2 407.217 101.12 407.017 102.12H383.797C383.917 104.64 384.557 106.46 385.717 107.58C386.877 108.66 388.357 109.2 390.157 109.2C391.677 109.2 392.937 108.82 393.937 108.06C394.937 107.3 395.597 106.32 395.917 105.12H406.777C406.337 107.48 405.377 109.6 403.897 111.48C402.417 113.32 400.537 114.78 398.257 115.86C395.977 116.9 393.437 117.42 390.637 117.42C387.357 117.42 384.437 116.74 381.877 115.38C379.357 113.98 377.377 111.98 375.937 109.38C374.497 106.78 373.777 103.74 373.777 100.26C373.777 96.74 374.477 93.7 375.877 91.14C377.317 88.54 379.317 86.56 381.877 85.2C384.437 83.8 387.357 83.1 390.637 83.1C393.957 83.1 396.877 83.78 399.397 85.14C401.917 86.5 403.857 88.42 405.217 90.9C406.617 93.34 407.317 96.16 407.317 99.36ZM396.937 97.8C396.977 95.6 396.377 93.96 395.137 92.88C393.937 91.76 392.437 91.2 390.637 91.2C388.757 91.2 387.197 91.76 385.957 92.88C384.717 94 384.017 95.64 383.857 97.8H396.937ZM440.337 83.1C443.657 83.1 446.617 83.8 449.217 85.2C451.857 86.56 453.917 88.54 455.397 91.14C456.917 93.74 457.677 96.78 457.677 100.26C457.677 103.74 456.917 106.78 455.397 109.38C453.917 111.98 451.857 113.98 449.217 115.38C446.617 116.74 443.657 117.42 440.337 117.42C437.017 117.42 434.037 116.74 431.397 115.38C428.757 113.98 426.677 111.98 425.157 109.38C423.677 106.78 422.937 103.74 422.937 100.26C422.937 96.78 423.677 93.74 425.157 91.14C426.677 88.54 428.757 86.56 431.397 85.2C434.037 83.8 437.017 83.1 440.337 83.1ZM440.337 91.98C438.377 91.98 436.717 92.7 435.357 94.14C434.037 95.54 433.377 97.58 433.377 100.26C433.377 102.94 434.037 104.98 435.357 106.38C436.717 107.78 438.377 108.48 440.337 108.48C442.297 108.48 443.937 107.78 445.257 106.38C446.577 104.98 447.237 102.94 447.237 100.26C447.237 97.58 446.577 95.54 445.257 94.14C443.937 92.7 442.297 91.98 440.337 91.98ZM479.437 78.96C477.757 78.96 476.537 79.32 475.777 80.04C475.017 80.76 474.597 81.92 474.517 83.52H480.577V92.16H474.517V117H464.257V92.16H460.237V83.52H464.257V83.16C464.257 79 465.457 75.8 467.857 73.56C470.297 71.28 473.817 70.14 478.417 70.14C479.377 70.14 480.097 70.16 480.577 70.2V79.02L479.437 78.96ZM517.979 83.1C520.739 83.1 523.199 83.8 525.359 85.2C527.559 86.56 529.279 88.54 530.519 91.14C531.799 93.7 532.439 96.74 532.439 100.26C532.439 103.74 531.799 106.78 530.519 109.38C529.279 111.98 527.559 113.98 525.359 115.38C523.199 116.74 520.739 117.42 517.979 117.42C515.419 117.42 513.219 116.84 511.379 115.68C509.539 114.52 508.199 112.94 507.359 110.94V132.96H497.099V83.52H507.359V89.58C508.199 87.58 509.539 86 511.379 84.84C513.219 83.68 515.419 83.1 517.979 83.1ZM514.679 92.1C512.519 92.1 510.739 92.84 509.339 94.32C507.979 95.76 507.299 97.74 507.299 100.26C507.299 102.74 507.979 104.72 509.339 106.2C510.739 107.68 512.519 108.42 514.679 108.42C516.879 108.42 518.639 107.7 519.959 106.26C521.319 104.82 521.999 102.82 521.999 100.26C521.999 97.7 521.319 95.7 519.959 94.26C518.639 92.82 516.879 92.1 514.679 92.1ZM553.423 83.1C556.743 83.1 559.703 83.8 562.303 85.2C564.943 86.56 567.003 88.54 568.483 91.14C570.003 93.74 570.763 96.78 570.763 100.26C570.763 103.74 570.003 106.78 568.483 109.38C567.003 111.98 564.943 113.98 562.303 115.38C559.703 116.74 556.743 117.42 553.423 117.42C550.103 117.42 547.123 116.74 544.483 115.38C541.843 113.98 539.763 111.98 538.243 109.38C536.763 106.78 536.023 103.74 536.023 100.26C536.023 96.78 536.763 93.74 538.243 91.14C539.763 88.54 541.843 86.56 544.483 85.2C547.123 83.8 550.103 83.1 553.423 83.1ZM553.423 91.98C551.463 91.98 549.803 92.7 548.443 94.14C547.123 95.54 546.463 97.58 546.463 100.26C546.463 102.94 547.123 104.98 548.443 106.38C549.803 107.78 551.463 108.48 553.423 108.48C555.383 108.48 557.023 107.78 558.343 106.38C559.663 104.98 560.323 102.94 560.323 100.26C560.323 97.58 559.663 95.54 558.343 94.14C557.023 92.7 555.383 91.98 553.423 91.98ZM596.963 83.1C599.723 83.1 602.183 83.8 604.343 85.2C606.543 86.56 608.263 88.54 609.503 91.14C610.783 93.7 611.423 96.74 611.423 100.26C611.423 103.74 610.783 106.78 609.503 109.38C608.263 111.98 606.543 113.98 604.343 115.38C602.183 116.74 599.723 117.42 596.963 117.42C594.403 117.42 592.203 116.84 590.363 115.68C588.523 114.52 587.183 112.94 586.343 110.94V132.96H576.083V83.52H586.343V89.58C587.183 87.58 588.523 86 590.363 84.84C592.203 83.68 594.403 83.1 596.963 83.1ZM593.663 92.1C591.503 92.1 589.723 92.84 588.323 94.32C586.963 95.76 586.283 97.74 586.283 100.26C586.283 102.74 586.963 104.72 588.323 106.2C589.723 107.68 591.503 108.42 593.663 108.42C595.863 108.42 597.623 107.7 598.943 106.26C600.303 104.82 600.983 102.82 600.983 100.26C600.983 97.7 600.303 95.7 598.943 94.26C597.623 92.82 595.863 92.1 593.663 92.1ZM650.047 83.52V117H639.727V110.94C638.767 112.9 637.327 114.46 635.407 115.62C633.527 116.78 631.327 117.36 628.807 117.36C624.967 117.36 621.907 116.08 619.627 113.52C617.387 110.96 616.267 107.44 616.267 102.96V83.52H626.467V101.7C626.467 103.98 627.047 105.76 628.207 107.04C629.407 108.28 631.007 108.9 633.007 108.9C635.087 108.9 636.727 108.24 637.927 106.92C639.127 105.6 639.727 103.72 639.727 101.28V83.52H650.047ZM667.378 72.6V117H657.118V72.6H667.378ZM687.182 83.1C689.742 83.1 691.942 83.68 693.782 84.84C695.622 86 696.982 87.58 697.862 89.58V83.52H708.062V117H697.862V110.94C696.982 112.94 695.622 114.52 693.782 115.68C691.942 116.84 689.742 117.42 687.182 117.42C684.422 117.42 681.942 116.74 679.742 115.38C677.582 113.98 675.862 111.98 674.582 109.38C673.342 106.78 672.722 103.74 672.722 100.26C672.722 96.74 673.342 93.7 674.582 91.14C675.862 88.54 677.582 86.56 679.742 85.2C681.942 83.8 684.422 83.1 687.182 83.1ZM690.482 92.1C688.282 92.1 686.502 92.82 685.142 94.26C683.822 95.7 683.162 97.7 683.162 100.26C683.162 102.82 683.822 104.82 685.142 106.26C686.502 107.7 688.282 108.42 690.482 108.42C692.642 108.42 694.402 107.68 695.762 106.2C697.162 104.72 697.862 102.74 697.862 100.26C697.862 97.74 697.162 95.76 695.762 94.32C694.402 92.84 692.642 92.1 690.482 92.1ZM734.086 108.18V117H729.466C725.546 117 722.486 116.04 720.286 114.12C718.126 112.16 717.046 108.94 717.046 104.46V92.16H712.546V83.52H717.046V75.3H727.306V83.52H734.026V92.16H727.306V104.64C727.306 105.96 727.566 106.88 728.086 107.4C728.646 107.92 729.566 108.18 730.846 108.18H734.086ZM738.893 74.1C738.893 72.54 739.453 71.26 740.573 70.26C741.693 69.22 743.173 68.7 745.013 68.7C746.853 68.7 748.333 69.22 749.453 70.26C750.573 71.26 751.133 72.54 751.133 74.1C751.133 75.62 750.573 76.9 749.453 77.94C748.333 78.94 746.853 79.44 745.013 79.44C743.173 79.44 741.693 78.94 740.573 77.94C739.453 76.9 738.893 75.62 738.893 74.1ZM750.113 83.52V117H739.853V83.52H750.113ZM772.856 83.1C776.176 83.1 779.136 83.8 781.736 85.2C784.376 86.56 786.436 88.54 787.916 91.14C789.436 93.74 790.196 96.78 790.196 100.26C790.196 103.74 789.436 106.78 787.916 109.38C786.436 111.98 784.376 113.98 781.736 115.38C779.136 116.74 776.176 117.42 772.856 117.42C769.536 117.42 766.556 116.74 763.916 115.38C761.276 113.98 759.196 111.98 757.676 109.38C756.196 106.78 755.456 103.74 755.456 100.26C755.456 96.78 756.196 93.74 757.676 91.14C759.196 88.54 761.276 86.56 763.916 85.2C766.556 83.8 769.536 83.1 772.856 83.1ZM772.856 91.98C770.896 91.98 769.236 92.7 767.876 94.14C766.556 95.54 765.896 97.58 765.896 100.26C765.896 102.94 766.556 104.98 767.876 106.38C769.236 107.78 770.896 108.48 772.856 108.48C774.816 108.48 776.456 107.78 777.776 106.38C779.096 104.98 779.756 102.94 779.756 100.26C779.756 97.58 779.096 95.54 777.776 94.14C776.456 92.7 774.816 91.98 772.856 91.98ZM816.757 83.16C820.597 83.16 823.637 84.44 825.877 87C828.157 89.56 829.297 93.08 829.297 97.56V117H819.037V98.76C819.037 96.52 818.437 94.78 817.237 93.54C816.077 92.26 814.517 91.62 812.557 91.62C810.477 91.62 808.817 92.28 807.577 93.6C806.377 94.92 805.777 96.8 805.777 99.24V117H795.517V83.52H805.777V89.64C806.737 87.64 808.157 86.06 810.037 84.9C811.957 83.74 814.197 83.16 816.757 83.16ZM867.035 108.18V117H862.415C858.495 117 855.435 116.04 853.235 114.12C851.075 112.16 849.995 108.94 849.995 104.46V92.16H845.495V83.52H849.995V75.3H860.255V83.52H866.975V92.16H860.255V104.64C860.255 105.96 860.515 106.88 861.035 107.4C861.595 107.92 862.515 108.18 863.795 108.18H867.035ZM883.062 89.82C884.342 87.78 885.982 86.16 887.982 84.96C890.022 83.76 892.222 83.16 894.582 83.16V94.14H891.642C888.922 94.14 886.802 94.72 885.282 95.88C883.802 97.04 883.062 99 883.062 101.76V117H872.802V83.52H883.062V89.82ZM930.676 99.36C930.676 100.2 930.576 101.12 930.376 102.12H907.156C907.276 104.64 907.916 106.46 909.076 107.58C910.236 108.66 911.716 109.2 913.516 109.2C915.036 109.2 916.296 108.82 917.296 108.06C918.296 107.3 918.956 106.32 919.276 105.12H930.136C929.696 107.48 928.736 109.6 927.256 111.48C925.776 113.32 923.896 114.78 921.616 115.86C919.336 116.9 916.796 117.42 913.996 117.42C910.716 117.42 907.796 116.74 905.236 115.38C902.716 113.98 900.736 111.98 899.296 109.38C897.856 106.78 897.136 103.74 897.136 100.26C897.136 96.74 897.836 93.7 899.236 91.14C900.676 88.54 902.676 86.56 905.236 85.2C907.796 83.8 910.716 83.1 913.996 83.1C917.316 83.1 920.236 83.78 922.756 85.14C925.276 86.5 927.216 88.42 928.576 90.9C929.976 93.34 930.676 96.16 930.676 99.36ZM920.296 97.8C920.336 95.6 919.736 93.96 918.496 92.88C917.296 91.76 915.796 91.2 913.996 91.2C912.116 91.2 910.556 91.76 909.316 92.88C908.076 94 907.376 95.64 907.216 97.8H920.296ZM948.744 83.1C951.304 83.1 953.504 83.68 955.344 84.84C957.184 86 958.544 87.58 959.424 89.58V83.52H969.624V117H959.424V110.94C958.544 112.94 957.184 114.52 955.344 115.68C953.504 116.84 951.304 117.42 948.744 117.42C945.984 117.42 943.504 116.74 941.304 115.38C939.144 113.98 937.424 111.98 936.144 109.38C934.904 106.78 934.284 103.74 934.284 100.26C934.284 96.74 934.904 93.7 936.144 91.14C937.424 88.54 939.144 86.56 941.304 85.2C943.504 83.8 945.984 83.1 948.744 83.1ZM952.044 92.1C949.844 92.1 948.064 92.82 946.704 94.26C945.384 95.7 944.724 97.7 944.724 100.26C944.724 102.82 945.384 104.82 946.704 106.26C948.064 107.7 949.844 108.42 952.044 108.42C954.204 108.42 955.964 107.68 957.324 106.2C958.724 104.72 959.424 102.74 959.424 100.26C959.424 97.74 958.724 95.76 957.324 94.32C955.964 92.84 954.204 92.1 952.044 92.1ZM995.648 108.18V117H991.028C987.108 117 984.048 116.04 981.848 114.12C979.688 112.16 978.608 108.94 978.608 104.46V92.16H974.108V83.52H978.608V75.3H988.868V83.52H995.588V92.16H988.868V104.64C988.868 105.96 989.128 106.88 989.648 107.4C990.208 107.92 991.128 108.18 992.408 108.18H995.648ZM1033.22 99.36C1033.22 100.2 1033.12 101.12 1032.92 102.12H1009.7C1009.82 104.64 1010.46 106.46 1011.62 107.58C1012.78 108.66 1014.26 109.2 1016.06 109.2C1017.58 109.2 1018.84 108.82 1019.84 108.06C1020.84 107.3 1021.5 106.32 1021.82 105.12H1032.68C1032.24 107.48 1031.28 109.6 1029.8 111.48C1028.32 113.32 1026.44 114.78 1024.16 115.86C1021.88 116.9 1019.34 117.42 1016.54 117.42C1013.26 117.42 1010.34 116.74 1007.78 115.38C1005.26 113.98 1003.28 111.98 1001.83 109.38C1000.4 106.78 999.675 103.74 999.675 100.26C999.675 96.74 1000.38 93.7 1001.78 91.14C1003.22 88.54 1005.22 86.56 1007.78 85.2C1010.34 83.8 1013.26 83.1 1016.54 83.1C1019.86 83.1 1022.78 83.78 1025.3 85.14C1027.82 86.5 1029.76 88.42 1031.12 90.9C1032.52 93.34 1033.22 96.16 1033.22 99.36ZM1022.84 97.8C1022.88 95.6 1022.28 93.96 1021.04 92.88C1019.84 91.76 1018.34 91.2 1016.54 91.2C1014.66 91.2 1013.1 91.76 1011.86 92.88C1010.62 94 1009.92 95.64 1009.76 97.8H1022.84ZM1051.28 83.1C1053.84 83.1 1056.04 83.68 1057.88 84.84C1059.72 86 1061.06 87.58 1061.9 89.58V72.6H1072.16V117H1061.9V110.94C1061.06 112.94 1059.72 114.52 1057.88 115.68C1056.04 116.84 1053.84 117.42 1051.28 117.42C1048.52 117.42 1046.04 116.74 1043.84 115.38C1041.68 113.98 1039.96 111.98 1038.68 109.38C1037.44 106.78 1036.82 103.74 1036.82 100.26C1036.82 96.74 1037.44 93.7 1038.68 91.14C1039.96 88.54 1041.68 86.56 1043.84 85.2C1046.04 83.8 1048.52 83.1 1051.28 83.1ZM1054.58 92.1C1052.38 92.1 1050.6 92.82 1049.24 94.26C1047.92 95.7 1047.26 97.7 1047.26 100.26C1047.26 102.82 1047.92 104.82 1049.24 106.26C1050.6 107.7 1052.38 108.42 1054.58 108.42C1056.74 108.42 1058.5 107.68 1059.86 106.2C1061.26 104.72 1061.96 102.74 1061.96 100.26C1061.96 97.74 1061.26 95.76 1059.86 94.32C1058.5 92.84 1056.74 92.1 1054.58 92.1ZM1107.68 78.96C1106 78.96 1104.78 79.32 1104.02 80.04C1103.26 80.76 1102.84 81.92 1102.76 83.52H1108.82V92.16H1102.76V117H1092.5V92.16H1088.48V83.52H1092.5V83.16C1092.5 79 1093.7 75.8 1096.1 73.56C1098.54 71.28 1102.06 70.14 1106.66 70.14C1107.62 70.14 1108.34 70.16 1108.82 70.2V79.02L1107.68 78.96ZM1128.99 83.1C1132.31 83.1 1135.27 83.8 1137.87 85.2C1140.51 86.56 1142.57 88.54 1144.05 91.14C1145.57 93.74 1146.33 96.78 1146.33 100.26C1146.33 103.74 1145.57 106.78 1144.05 109.38C1142.57 111.98 1140.51 113.98 1137.87 115.38C1135.27 116.74 1132.31 117.42 1128.99 117.42C1125.67 117.42 1122.69 116.74 1120.05 115.38C1117.41 113.98 1115.33 111.98 1113.81 109.38C1112.33 106.78 1111.59 103.74 1111.59 100.26C1111.59 96.78 1112.33 93.74 1113.81 91.14C1115.33 88.54 1117.41 86.56 1120.05 85.2C1122.69 83.8 1125.67 83.1 1128.99 83.1ZM1128.99 91.98C1127.03 91.98 1125.37 92.7 1124.01 94.14C1122.69 95.54 1122.03 97.58 1122.03 100.26C1122.03 102.94 1122.69 104.98 1124.01 106.38C1125.37 107.78 1127.03 108.48 1128.99 108.48C1130.95 108.48 1132.59 107.78 1133.91 106.38C1135.23 104.98 1135.89 102.94 1135.89 100.26C1135.89 97.58 1135.23 95.54 1133.91 94.14C1132.59 92.7 1130.95 91.98 1128.99 91.98ZM1161.91 89.82C1163.19 87.78 1164.83 86.16 1166.83 84.96C1168.87 83.76 1171.07 83.16 1173.43 83.16V94.14H1170.49C1167.77 94.14 1165.65 94.72 1164.13 95.88C1162.65 97.04 1161.91 99 1161.91 101.76V117H1151.65V83.52H1161.91V89.82ZM67.26 173.1C69.82 173.1 72.02 173.68 73.86 174.84C75.7 176 77.04 177.58 77.88 179.58V162.6H88.14V207H77.88V200.94C77.04 202.94 75.7 204.52 73.86 205.68C72.02 206.84 69.82 207.42 67.26 207.42C64.5 207.42 62.02 206.74 59.82 205.38C57.66 203.98 55.94 201.98 54.66 199.38C53.42 196.78 52.8 193.74 52.8 190.26C52.8 186.74 53.42 183.7 54.66 181.14C55.94 178.54 57.66 176.56 59.82 175.2C62.02 173.8 64.5 173.1 67.26 173.1ZM70.56 182.1C68.36 182.1 66.58 182.82 65.22 184.26C63.9 185.7 63.24 187.7 63.24 190.26C63.24 192.82 63.9 194.82 65.22 196.26C66.58 197.7 68.36 198.42 70.56 198.42C72.72 198.42 74.48 197.68 75.84 196.2C77.24 194.72 77.94 192.74 77.94 190.26C77.94 187.74 77.24 185.76 75.84 184.32C74.48 182.84 72.72 182.1 70.56 182.1ZM94.2441 164.1C94.2441 162.54 94.8041 161.26 95.9241 160.26C97.0441 159.22 98.5241 158.7 100.364 158.7C102.204 158.7 103.684 159.22 104.804 160.26C105.924 161.26 106.484 162.54 106.484 164.1C106.484 165.62 105.924 166.9 104.804 167.94C103.684 168.94 102.204 169.44 100.364 169.44C98.5241 169.44 97.0441 168.94 95.9241 167.94C94.8041 166.9 94.2441 165.62 94.2441 164.1ZM105.464 173.52V207H95.2041V173.52H105.464ZM125.268 173.1C127.828 173.1 130.028 173.68 131.868 174.84C133.708 176 135.068 177.58 135.948 179.58V173.52H146.148V207H135.948V200.94C135.068 202.94 133.708 204.52 131.868 205.68C130.028 206.84 127.828 207.42 125.268 207.42C122.508 207.42 120.028 206.74 117.828 205.38C115.668 203.98 113.948 201.98 112.668 199.38C111.428 196.78 110.808 193.74 110.808 190.26C110.808 186.74 111.428 183.7 112.668 181.14C113.948 178.54 115.668 176.56 117.828 175.2C120.028 173.8 122.508 173.1 125.268 173.1ZM128.568 182.1C126.368 182.1 124.588 182.82 123.228 184.26C121.908 185.7 121.248 187.7 121.248 190.26C121.248 192.82 121.908 194.82 123.228 196.26C124.588 197.7 126.368 198.42 128.568 198.42C130.728 198.42 132.488 197.68 133.848 196.2C135.248 194.72 135.948 192.74 135.948 190.26C135.948 187.74 135.248 185.76 133.848 184.32C132.488 182.84 130.728 182.1 128.568 182.1ZM174.092 173.1C176.852 173.1 179.312 173.8 181.472 175.2C183.672 176.56 185.392 178.54 186.632 181.14C187.912 183.7 188.552 186.74 188.552 190.26C188.552 193.74 187.912 196.78 186.632 199.38C185.392 201.98 183.672 203.98 181.472 205.38C179.312 206.74 176.852 207.42 174.092 207.42C171.532 207.42 169.332 206.84 167.492 205.68C165.652 204.52 164.312 202.94 163.472 200.94V207H153.212V162.6H163.472V179.58C164.312 177.58 165.652 176 167.492 174.84C169.332 173.68 171.532 173.1 174.092 173.1ZM170.792 182.1C168.632 182.1 166.852 182.84 165.452 184.32C164.092 185.76 163.412 187.74 163.412 190.26C163.412 192.74 164.092 194.72 165.452 196.2C166.852 197.68 168.632 198.42 170.792 198.42C172.992 198.42 174.752 197.7 176.072 196.26C177.432 194.82 178.112 192.82 178.112 190.26C178.112 187.7 177.432 185.7 176.072 184.26C174.752 182.82 172.992 182.1 170.792 182.1ZM225.676 189.36C225.676 190.2 225.576 191.12 225.376 192.12H202.156C202.276 194.64 202.916 196.46 204.076 197.58C205.236 198.66 206.716 199.2 208.516 199.2C210.036 199.2 211.296 198.82 212.296 198.06C213.296 197.3 213.956 196.32 214.276 195.12H225.136C224.696 197.48 223.736 199.6 222.256 201.48C220.776 203.32 218.896 204.78 216.616 205.86C214.336 206.9 211.796 207.42 208.996 207.42C205.716 207.42 202.796 206.74 200.236 205.38C197.716 203.98 195.736 201.98 194.296 199.38C192.856 196.78 192.136 193.74 192.136 190.26C192.136 186.74 192.836 183.7 194.236 181.14C195.676 178.54 197.676 176.56 200.236 175.2C202.796 173.8 205.716 173.1 208.996 173.1C212.316 173.1 215.236 173.78 217.756 175.14C220.276 176.5 222.216 178.42 223.576 180.9C224.976 183.34 225.676 186.16 225.676 189.36ZM215.296 187.8C215.336 185.6 214.736 183.96 213.496 182.88C212.296 181.76 210.796 181.2 208.996 181.2C207.116 181.2 205.556 181.76 204.316 182.88C203.076 184 202.376 185.64 202.216 187.8H215.296ZM249.984 198.18V207H245.364C241.444 207 238.384 206.04 236.184 204.12C234.024 202.16 232.944 198.94 232.944 194.46V182.16H228.444V173.52H232.944V165.3H243.204V173.52H249.924V182.16H243.204V194.64C243.204 195.96 243.464 196.88 243.984 197.4C244.544 197.92 245.464 198.18 246.744 198.18H249.984ZM287.551 189.36C287.551 190.2 287.451 191.12 287.251 192.12H264.031C264.151 194.64 264.791 196.46 265.951 197.58C267.111 198.66 268.591 199.2 270.391 199.2C271.911 199.2 273.171 198.82 274.171 198.06C275.171 197.3 275.831 196.32 276.151 195.12H287.011C286.571 197.48 285.611 199.6 284.131 201.48C282.651 203.32 280.771 204.78 278.491 205.86C276.211 206.9 273.671 207.42 270.871 207.42C267.591 207.42 264.671 206.74 262.111 205.38C259.591 203.98 257.611 201.98 256.171 199.38C254.731 196.78 254.011 193.74 254.011 190.26C254.011 186.74 254.711 183.7 256.111 181.14C257.551 178.54 259.551 176.56 262.111 175.2C264.671 173.8 267.591 173.1 270.871 173.1C274.191 173.1 277.111 173.78 279.631 175.14C282.151 176.5 284.091 178.42 285.451 180.9C286.851 183.34 287.551 186.16 287.551 189.36ZM277.171 187.8C277.211 185.6 276.611 183.96 275.371 182.88C274.171 181.76 272.671 181.2 270.871 181.2C268.991 181.2 267.431 181.76 266.191 182.88C264.951 184 264.251 185.64 264.091 187.8H277.171ZM305.079 173.1C309.319 173.1 312.699 174.16 315.219 176.28C317.779 178.4 319.379 181.2 320.019 184.68H310.419C310.139 183.32 309.499 182.26 308.499 181.5C307.539 180.7 306.319 180.3 304.839 180.3C303.679 180.3 302.799 180.56 302.199 181.08C301.599 181.56 301.299 182.26 301.299 183.18C301.299 184.22 301.839 185 302.919 185.52C304.039 186.04 305.779 186.56 308.139 187.08C310.699 187.68 312.799 188.3 314.439 188.94C316.079 189.54 317.499 190.54 318.699 191.94C319.899 193.34 320.499 195.22 320.499 197.58C320.499 199.5 319.979 201.2 318.939 202.68C317.899 204.16 316.399 205.32 314.439 206.16C312.479 207 310.159 207.42 307.479 207.42C302.959 207.42 299.339 206.42 296.619 204.42C293.899 202.42 292.239 199.56 291.639 195.84H301.539C301.699 197.28 302.299 198.38 303.339 199.14C304.419 199.9 305.799 200.28 307.479 200.28C308.639 200.28 309.519 200.02 310.119 199.5C310.719 198.94 311.019 198.22 311.019 197.34C311.019 196.18 310.459 195.36 309.339 194.88C308.259 194.36 306.479 193.82 303.999 193.26C301.519 192.74 299.479 192.18 297.879 191.58C296.279 190.98 294.899 190.02 293.739 188.7C292.579 187.34 291.999 185.5 291.999 183.18C291.999 180.18 293.139 177.76 295.419 175.92C297.699 174.04 300.919 173.1 305.079 173.1Z" fill="white"/>
<path d="M82.936 323.36V317.24H97.48V368H90.568V323.36H82.936ZM114.192 353.744C114.624 356.768 115.68 359.096 117.36 360.728C119.04 362.36 121.344 363.176 124.272 363.176C128.304 363.176 131.352 361.616 133.416 358.496C135.48 355.376 136.512 350.432 136.512 343.664C136.512 342.368 136.488 341.384 136.44 340.712C135.768 343.592 134.136 345.896 131.544 347.624C128.952 349.352 125.904 350.216 122.4 350.216C117.36 350.216 113.4 348.704 110.52 345.68C107.64 342.656 106.2 338.432 106.2 333.008C106.2 329.84 106.824 326.96 108.072 324.368C109.32 321.776 111.216 319.736 113.76 318.248C116.352 316.712 119.544 315.944 123.336 315.944C130.632 315.944 135.624 318.2 138.312 322.712C141.048 327.176 142.416 333.32 142.416 341.144C142.416 350.072 141.024 356.888 138.24 361.592C135.456 366.248 130.8 368.576 124.272 368.576C119.424 368.576 115.608 367.208 112.824 364.472C110.088 361.688 108.48 358.112 108 353.744H114.192ZM135.792 334.016C135.792 330.56 134.76 327.632 132.696 325.232C130.68 322.832 127.632 321.632 123.552 321.632C120.192 321.632 117.504 322.64 115.488 324.656C113.472 326.672 112.464 329.48 112.464 333.08C112.464 336.92 113.472 339.872 115.488 341.936C117.504 344 120.264 345.032 123.768 345.032C125.784 345.032 127.704 344.624 129.528 343.808C131.4 342.992 132.912 341.744 134.064 340.064C135.216 338.384 135.792 336.368 135.792 334.016ZM157.997 353.744C158.429 356.768 159.485 359.096 161.165 360.728C162.845 362.36 165.149 363.176 168.077 363.176C172.109 363.176 175.157 361.616 177.221 358.496C179.285 355.376 180.317 350.432 180.317 343.664C180.317 342.368 180.293 341.384 180.245 340.712C179.573 343.592 177.941 345.896 175.349 347.624C172.757 349.352 169.709 350.216 166.205 350.216C161.165 350.216 157.205 348.704 154.325 345.68C151.445 342.656 150.005 338.432 150.005 333.008C150.005 329.84 150.629 326.96 151.877 324.368C153.125 321.776 155.021 319.736 157.565 318.248C160.157 316.712 163.349 315.944 167.141 315.944C174.437 315.944 179.429 318.2 182.117 322.712C184.853 327.176 186.221 333.32 186.221 341.144C186.221 350.072 184.829 356.888 182.045 361.592C179.261 366.248 174.605 368.576 168.077 368.576C163.229 368.576 159.413 367.208 156.629 364.472C153.893 361.688 152.285 358.112 151.805 353.744H157.997ZM179.597 334.016C179.597 330.56 178.565 327.632 176.501 325.232C174.485 322.832 171.437 321.632 167.357 321.632C163.997 321.632 161.309 322.64 159.293 324.656C157.277 326.672 156.269 329.48 156.269 333.08C156.269 336.92 157.277 339.872 159.293 341.936C161.309 344 164.069 345.032 167.573 345.032C169.589 345.032 171.509 344.624 173.333 343.808C175.205 342.992 176.717 341.744 177.869 340.064C179.021 338.384 179.597 336.368 179.597 334.016ZM223.041 330.776C222.657 327.752 221.625 325.424 219.945 323.792C218.313 322.112 216.033 321.272 213.105 321.272C209.025 321.272 205.929 322.856 203.817 326.024C201.753 329.192 200.721 334.208 200.721 341.072L200.793 343.736C201.513 340.856 203.169 338.576 205.761 336.896C208.353 335.168 211.401 334.304 214.905 334.304C219.945 334.304 223.881 335.816 226.713 338.84C229.593 341.864 231.033 346.088 231.033 351.512C231.033 354.68 230.409 357.56 229.161 360.152C227.913 362.696 225.993 364.736 223.401 366.272C220.857 367.76 217.689 368.504 213.897 368.504C206.649 368.504 201.657 366.224 198.921 361.664C196.233 357.104 194.889 350.912 194.889 343.088C194.889 334.064 196.329 327.296 199.209 322.784C202.137 318.224 206.889 315.944 213.465 315.944C218.313 315.944 222.033 317.312 224.625 320.048C227.265 322.784 228.825 326.36 229.305 330.776H223.041ZM201.513 350.432C201.513 353.936 202.521 356.888 204.537 359.288C206.601 361.64 209.673 362.816 213.753 362.816C217.113 362.816 219.801 361.832 221.817 359.864C223.833 357.848 224.841 355.04 224.841 351.44C224.841 347.552 223.833 344.6 221.817 342.584C219.801 340.52 217.017 339.488 213.465 339.488C211.449 339.488 209.529 339.896 207.705 340.712C205.881 341.528 204.393 342.776 203.241 344.456C202.089 346.088 201.513 348.08 201.513 350.432Z" fill="white"/>
<path d="M499.024 362.96C507.184 357.488 513.712 352.064 518.608 346.688C523.504 341.264 525.952 336.224 525.952 331.568C525.952 328.688 525.208 326.384 523.72 324.656C522.28 322.88 519.928 321.992 516.664 321.992C513.304 321.992 510.76 323.072 509.032 325.232C507.304 327.344 506.344 330.272 506.152 334.016H499.672C500.008 328.352 501.76 324.008 504.928 320.984C508.096 317.912 512.176 316.376 517.168 316.376C521.92 316.376 525.688 317.648 528.472 320.192C531.256 322.736 532.648 326.336 532.648 330.992C532.648 334.832 531.4 338.744 528.904 342.728C526.456 346.664 523.36 350.336 519.616 353.744C515.92 357.104 512.104 359.96 508.168 362.312H533.944V367.712H499.024V362.96ZM540.956 342.296C540.956 350.456 542.3 356.816 544.988 361.376C547.676 365.936 552.332 368.216 558.956 368.216C565.58 368.216 570.236 365.936 572.924 361.376C575.66 356.816 577.028 350.456 577.028 342.296C577.028 334.232 575.66 327.92 572.924 323.36C570.236 318.8 565.58 316.52 558.956 316.52C552.332 316.52 547.676 318.8 544.988 323.36C542.3 327.872 540.956 334.184 540.956 342.296ZM570.548 342.296C570.548 346.472 570.236 349.976 569.612 352.808C569.036 355.592 567.908 357.824 566.228 359.504C564.548 361.184 562.124 362.024 558.956 362.024C555.836 362.024 553.436 361.184 551.756 359.504C550.076 357.824 548.924 355.592 548.3 352.808C547.724 349.976 547.436 346.472 547.436 342.296C547.436 338.168 547.724 334.712 548.3 331.928C548.924 329.144 550.076 326.936 551.756 325.304C553.436 323.624 555.836 322.784 558.956 322.784C562.124 322.784 564.548 323.624 566.228 325.304C567.908 326.936 569.036 329.144 569.612 331.928C570.236 334.712 570.548 338.168 570.548 342.296ZM582.014 323.36V317.24H596.558V368H589.646V323.36H582.014ZM606.862 329.192C606.862 326.696 607.534 324.416 608.878 322.352C610.222 320.288 612.214 318.656 614.854 317.456C617.494 316.256 620.638 315.656 624.286 315.656C627.934 315.656 631.054 316.256 633.646 317.456C636.286 318.656 638.278 320.288 639.622 322.352C640.966 324.416 641.638 326.696 641.638 329.192C641.638 332.024 640.87 334.472 639.334 336.536C637.798 338.6 635.47 340.064 632.35 340.928C635.71 341.84 638.326 343.424 640.198 345.68C642.07 347.936 643.006 350.72 643.006 354.032C643.006 358.832 641.302 362.6 637.894 365.336C634.486 368.072 629.95 369.44 624.286 369.44C618.622 369.44 614.086 368.072 610.678 365.336C607.27 362.6 605.566 358.832 605.566 354.032C605.566 350.72 606.478 347.936 608.302 345.68C610.174 343.424 612.79 341.84 616.15 340.928C613.03 340.064 610.702 338.6 609.166 336.536C607.63 334.472 606.862 332.024 606.862 329.192ZM613.342 330.128C613.342 333.008 614.326 335.24 616.294 336.824C618.262 338.36 620.926 339.128 624.286 339.128C627.646 339.128 630.286 338.36 632.206 336.824C634.174 335.24 635.158 333.008 635.158 330.128C635.158 327.248 634.174 325.04 632.206 323.504C630.238 321.92 627.598 321.128 624.286 321.128C620.974 321.128 618.31 321.92 616.294 323.504C614.326 325.04 613.342 327.248 613.342 330.128ZM611.974 353.672C611.974 356.936 613.078 359.48 615.286 361.304C617.494 363.08 620.494 363.968 624.286 363.968C628.03 363.968 631.006 363.056 633.214 361.232C635.422 359.408 636.526 356.888 636.526 353.672C636.526 350.408 635.374 347.936 633.07 346.256C630.766 344.576 627.838 343.736 624.286 343.736C620.686 343.736 617.734 344.576 615.43 346.256C613.126 347.936 611.974 350.408 611.974 353.672Z" fill="white"/>
<path d="M956.024 362.96C964.184 357.488 970.712 352.064 975.608 346.688C980.504 341.264 982.952 336.224 982.952 331.568C982.952 328.688 982.208 326.384 980.72 324.656C979.28 322.88 976.928 321.992 973.664 321.992C970.304 321.992 967.76 323.072 966.032 325.232C964.304 327.344 963.344 330.272 963.152 334.016H956.672C957.008 328.352 958.76 324.008 961.928 320.984C965.096 317.912 969.176 316.376 974.168 316.376C978.92 316.376 982.688 317.648 985.472 320.192C988.256 322.736 989.648 326.336 989.648 330.992C989.648 334.832 988.4 338.744 985.904 342.728C983.456 346.664 980.36 350.336 976.616 353.744C972.92 357.104 969.104 359.96 965.168 362.312H990.944V367.712H956.024V362.96ZM997.956 342.296C997.956 350.456 999.3 356.816 1001.99 361.376C1004.68 365.936 1009.33 368.216 1015.96 368.216C1022.58 368.216 1027.24 365.936 1029.92 361.376C1032.66 356.816 1034.03 350.456 1034.03 342.296C1034.03 334.232 1032.66 327.92 1029.92 323.36C1027.24 318.8 1022.58 316.52 1015.96 316.52C1009.33 316.52 1004.68 318.8 1001.99 323.36C999.3 327.872 997.956 334.184 997.956 342.296ZM1027.55 342.296C1027.55 346.472 1027.24 349.976 1026.61 352.808C1026.04 355.592 1024.91 357.824 1023.23 359.504C1021.55 361.184 1019.12 362.024 1015.96 362.024C1012.84 362.024 1010.44 361.184 1008.76 359.504C1007.08 357.824 1005.92 355.592 1005.3 352.808C1004.72 349.976 1004.44 346.472 1004.44 342.296C1004.44 338.168 1004.72 334.712 1005.3 331.928C1005.92 329.144 1007.08 326.936 1008.76 325.304C1010.44 323.624 1012.84 322.784 1015.96 322.784C1019.12 322.784 1021.55 323.624 1023.23 325.304C1024.91 326.936 1026.04 329.144 1026.61 331.928C1027.24 334.712 1027.55 338.168 1027.55 342.296ZM1076.38 322.424H1050.32V339.416C1051.52 337.784 1053.25 336.488 1055.5 335.528C1057.76 334.568 1060.23 334.088 1062.92 334.088C1066.52 334.088 1069.49 334.856 1071.85 336.392C1074.25 337.88 1076 339.872 1077.1 342.368C1078.25 344.816 1078.83 347.552 1078.83 350.576C1078.83 355.808 1077.37 360.08 1074.44 363.392C1071.51 366.704 1067.21 368.36 1061.55 368.36C1056.46 368.36 1052.31 366.992 1049.09 364.256C1045.88 361.472 1044.08 357.752 1043.69 353.096H1050.17C1050.7 356.072 1051.93 358.4 1053.85 360.08C1055.81 361.712 1058.29 362.528 1061.26 362.528C1064.96 362.528 1067.74 361.424 1069.61 359.216C1071.49 357.008 1072.42 354.104 1072.42 350.504C1072.42 347 1071.46 344.264 1069.54 342.296C1067.62 340.328 1064.91 339.344 1061.41 339.344C1058.91 339.344 1056.73 339.896 1054.85 341C1052.98 342.056 1051.57 343.496 1050.61 345.32H1044.27V316.592H1076.38V322.424ZM1086.55 342.296C1086.55 350.456 1087.89 356.816 1090.58 361.376C1093.27 365.936 1097.93 368.216 1104.55 368.216C1111.17 368.216 1115.83 365.936 1118.52 361.376C1121.25 356.816 1122.62 350.456 1122.62 342.296C1122.62 334.232 1121.25 327.92 1118.52 323.36C1115.83 318.8 1111.17 316.52 1104.55 316.52C1097.93 316.52 1093.27 318.8 1090.58 323.36C1087.89 327.872 1086.55 334.184 1086.55 342.296ZM1116.14 342.296C1116.14 346.472 1115.83 349.976 1115.21 352.808C1114.63 355.592 1113.5 357.824 1111.82 359.504C1110.14 361.184 1107.72 362.024 1104.55 362.024C1101.43 362.024 1099.03 361.184 1097.35 359.504C1095.67 357.824 1094.52 355.592 1093.89 352.808C1093.32 349.976 1093.03 346.472 1093.03 342.296C1093.03 338.168 1093.32 334.712 1093.89 331.928C1094.52 329.144 1095.67 326.936 1097.35 325.304C1099.03 323.624 1101.43 322.784 1104.55 322.784C1107.72 322.784 1110.14 323.624 1111.82 325.304C1113.5 326.936 1114.63 329.144 1115.21 331.928C1115.83 334.712 1116.14 338.168 1116.14 342.296Z" fill="white"/>
<path d="M54.78 592.51C54.78 602.47 56.79 610.36 60.81 616.18C64.83 622 71.25 624.91 80.07 624.91C88.83 624.91 95.22 622 99.24 616.18C103.32 610.36 105.36 602.47 105.36 592.51C105.36 582.61 103.32 574.78 99.24 569.02C95.22 563.2 88.83 560.29 80.07 560.29C71.25 560.29 64.83 563.2 60.81 569.02C56.79 574.78 54.78 582.61 54.78 592.51ZM90.06 592.51C90.06 598.21 89.37 602.62 87.99 605.74C86.67 608.8 84.03 610.33 80.07 610.33C76.05 610.33 73.35 608.8 71.97 605.74C70.59 602.62 69.9 598.21 69.9 592.51C69.9 586.87 70.59 582.52 71.97 579.46C73.35 576.4 76.05 574.87 80.07 574.87C84.03 574.87 86.67 576.4 87.99 579.46C89.37 582.46 90.06 586.81 90.06 592.51ZM124.13 615.46C125.93 618.94 126.83 622.72 126.83 626.8C126.83 630.94 125.72 634.36 123.5 637.06C121.34 639.76 117.95 641.11 113.33 641.11V635.44C114.95 635.44 116.12 635.08 116.84 634.36C117.62 633.64 118.01 632.26 118.01 630.22V629.32H111.44V615.46H124.13ZM131.267 575.77V561.37H157.007V625H140.807V575.77H131.267ZM165.417 612.76C184.497 599.14 194.037 588.31 194.037 580.27C194.037 575.35 191.907 572.89 187.647 572.89C185.247 572.89 183.477 573.73 182.337 575.41C181.257 577.09 180.657 579.7 180.537 583.24H165.507C165.867 575.5 168.207 569.68 172.527 565.78C176.847 561.88 182.307 559.93 188.907 559.93C195.807 559.93 200.997 561.67 204.477 565.15C208.017 568.63 209.787 573.16 209.787 578.74C209.787 584.92 207.417 590.98 202.677 596.92C197.937 602.8 192.267 607.78 185.667 611.86H210.777V624.28H165.417V612.76ZM230.704 560.29C235.084 560.29 238.654 561.61 241.414 564.25C244.234 566.89 245.644 570.61 245.644 575.41C245.644 580.21 244.234 583.93 241.414 586.57C238.654 589.21 235.084 590.53 230.704 590.53C226.204 590.53 222.544 589.21 219.724 586.57C216.964 583.93 215.584 580.21 215.584 575.41C215.584 570.61 216.964 566.89 219.724 564.25C222.544 561.61 226.204 560.29 230.704 560.29ZM274.354 561.19L239.614 625H224.764L259.504 561.19H274.354ZM225.844 575.41C225.844 577.27 226.264 578.74 227.104 579.82C227.944 580.84 229.084 581.35 230.524 581.35C232.024 581.35 233.224 580.84 234.124 579.82C235.024 578.74 235.474 577.27 235.474 575.41C235.474 573.55 235.024 572.11 234.124 571.09C233.224 570.01 232.024 569.47 230.524 569.47C229.084 569.47 227.944 570.01 227.104 571.09C226.264 572.11 225.844 573.55 225.844 575.41ZM268.504 595.57C272.944 595.57 276.544 596.89 279.304 599.53C282.064 602.17 283.444 605.89 283.444 610.69C283.444 615.49 282.064 619.24 279.304 621.94C276.544 624.58 272.944 625.9 268.504 625.9C264.124 625.9 260.524 624.58 257.704 621.94C254.944 619.24 253.564 615.49 253.564 610.69C253.564 605.89 254.944 602.17 257.704 599.53C260.524 596.89 264.124 595.57 268.504 595.57ZM263.734 610.69C263.734 612.61 264.154 614.11 264.994 615.19C265.834 616.21 267.004 616.72 268.504 616.72C269.944 616.72 271.084 616.21 271.924 615.19C272.824 614.11 273.274 612.61 273.274 610.69C273.274 608.83 272.824 607.39 271.924 606.37C271.084 605.29 269.944 604.75 268.504 604.75C267.004 604.75 265.834 605.29 264.994 606.37C264.154 607.39 263.734 608.83 263.734 610.69Z" fill="#19ADB7"/>
<line x1="144" y1="453.5" x2="1044" y2="453.5" stroke="#DADADA" stroke-width="3"/>
<circle cx="156" cy="455" r="30" fill="#19ADB7"/>
<circle cx="578" cy="455" r="47" fill="#E97E00"/>
<circle cx="1034.5" cy="454.5" r="70.5" fill="#FF3D00"/>
<path d="M514.96 613.3V600.43L544.03 560.56H560.59V599.89H568.24V613.3H560.59V625H545.02V613.3H514.96ZM546.28 578.38L530.62 599.89H546.28V578.38ZM588.839 560.29C593.219 560.29 596.789 561.61 599.549 564.25C602.369 566.89 603.779 570.61 603.779 575.41C603.779 580.21 602.369 583.93 599.549 586.57C596.789 589.21 593.219 590.53 588.839 590.53C584.339 590.53 580.679 589.21 577.859 586.57C575.099 583.93 573.719 580.21 573.719 575.41C573.719 570.61 575.099 566.89 577.859 564.25C580.679 561.61 584.339 560.29 588.839 560.29ZM632.489 561.19L597.749 625H582.899L617.639 561.19H632.489ZM583.979 575.41C583.979 577.27 584.399 578.74 585.239 579.82C586.079 580.84 587.219 581.35 588.659 581.35C590.159 581.35 591.359 580.84 592.259 579.82C593.159 578.74 593.609 577.27 593.609 575.41C593.609 573.55 593.159 572.11 592.259 571.09C591.359 570.01 590.159 569.47 588.659 569.47C587.219 569.47 586.079 570.01 585.239 571.09C584.399 572.11 583.979 573.55 583.979 575.41ZM626.639 595.57C631.079 595.57 634.679 596.89 637.439 599.53C640.199 602.17 641.579 605.89 641.579 610.69C641.579 615.49 640.199 619.24 637.439 621.94C634.679 624.58 631.079 625.9 626.639 625.9C622.259 625.9 618.659 624.58 615.839 621.94C613.079 619.24 611.699 615.49 611.699 610.69C611.699 605.89 613.079 602.17 615.839 599.53C618.659 596.89 622.259 595.57 626.639 595.57ZM621.869 610.69C621.869 612.61 622.289 614.11 623.129 615.19C623.969 616.21 625.139 616.72 626.639 616.72C628.079 616.72 629.219 616.21 630.059 615.19C630.959 614.11 631.409 612.61 631.409 610.69C631.409 608.83 630.959 607.39 630.059 606.37C629.219 605.29 628.079 604.75 626.639 604.75C625.139 604.75 623.969 605.29 623.129 606.37C622.289 607.39 621.869 608.83 621.869 610.69Z" fill="#E97E00"/>
<path d="M951.03 575.68C951.03 572.62 951.9 569.74 953.64 567.04C955.38 564.34 957.96 562.15 961.38 560.47C964.86 558.79 969.06 557.95 973.98 557.95C978.96 557.95 983.16 558.79 986.58 560.47C990.06 562.15 992.64 564.34 994.32 567.04C996.06 569.74 996.93 572.62 996.93 575.68C996.93 579.04 996.15 581.92 994.59 584.32C993.03 586.66 990.75 588.46 987.75 589.72C994.89 592.9 998.46 598.27 998.46 605.83C998.46 610.15 997.38 613.87 995.22 616.99C993.06 620.05 990.12 622.39 986.4 624.01C982.74 625.57 978.6 626.35 973.98 626.35C969.42 626.35 965.28 625.57 961.56 624.01C957.84 622.39 954.9 620.05 952.74 616.99C950.58 613.87 949.5 610.15 949.5 605.83C949.5 598.27 953.07 592.9 960.21 589.72C957.21 588.46 954.93 586.66 953.37 584.32C951.81 581.92 951.03 579.04 951.03 575.68ZM966.15 578.29C966.15 580.75 966.84 582.64 968.22 583.96C969.66 585.22 971.58 585.85 973.98 585.85C976.38 585.85 978.27 585.22 979.65 583.96C981.09 582.64 981.81 580.75 981.81 578.29C981.81 575.89 981.09 574 979.65 572.62C978.21 571.24 976.32 570.55 973.98 570.55C971.64 570.55 969.75 571.24 968.31 572.62C966.87 574 966.15 575.89 966.15 578.29ZM964.44 604.93C964.44 607.63 965.28 609.76 966.96 611.32C968.7 612.88 971.04 613.66 973.98 613.66C976.92 613.66 979.23 612.88 980.91 611.32C982.65 609.76 983.52 607.63 983.52 604.93C983.52 602.23 982.62 600.13 980.82 598.63C979.08 597.07 976.8 596.29 973.98 596.29C971.16 596.29 968.85 597.07 967.05 598.63C965.31 600.13 964.44 602.23 964.44 604.93ZM1018.22 615.46C1020.02 618.94 1020.92 622.72 1020.92 626.8C1020.92 630.94 1019.81 634.36 1017.59 637.06C1015.43 639.76 1012.04 641.11 1007.42 641.11V635.44C1009.04 635.44 1010.21 635.08 1010.93 634.36C1011.71 633.64 1012.1 632.26 1012.1 630.22V629.32H1005.53V615.46H1018.22ZM1051.55 558.58C1055.99 558.58 1059.8 559.36 1062.98 560.92C1066.16 562.42 1068.56 564.52 1070.18 567.22C1071.86 569.86 1072.7 572.86 1072.7 576.22C1072.7 580.36 1071.62 583.69 1069.46 586.21C1067.36 588.73 1064.72 590.32 1061.54 590.98V591.43C1069.76 594.07 1073.87 599.2 1073.87 606.82C1073.87 610.48 1073.03 613.75 1071.35 616.63C1069.67 619.45 1067.21 621.67 1063.97 623.29C1060.79 624.85 1056.95 625.63 1052.45 625.63C1045.13 625.63 1039.31 623.83 1034.99 620.23C1030.73 616.63 1028.42 611.14 1028.06 603.76H1043.09C1043.21 606.58 1043.99 608.8 1045.43 610.42C1046.87 612.04 1048.97 612.85 1051.73 612.85C1053.95 612.85 1055.69 612.19 1056.95 610.87C1058.27 609.55 1058.93 607.84 1058.93 605.74C1058.93 600.52 1055.15 597.91 1047.59 597.91H1044.71V585.4H1047.5C1054.28 585.52 1057.67 583.09 1057.67 578.11C1057.67 575.95 1057.07 574.3 1055.87 573.16C1054.73 571.96 1053.17 571.36 1051.19 571.36C1049.03 571.36 1047.32 572.11 1046.06 573.61C1044.8 575.05 1044.08 577 1043.9 579.46H1028.87C1029.17 572.74 1031.27 567.58 1035.17 563.98C1039.07 560.38 1044.53 558.58 1051.55 558.58ZM1096.23 560.29C1100.61 560.29 1104.18 561.61 1106.94 564.25C1109.76 566.89 1111.17 570.61 1111.17 575.41C1111.17 580.21 1109.76 583.93 1106.94 586.57C1104.18 589.21 1100.61 590.53 1096.23 590.53C1091.73 590.53 1088.07 589.21 1085.25 586.57C1082.49 583.93 1081.11 580.21 1081.11 575.41C1081.11 570.61 1082.49 566.89 1085.25 564.25C1088.07 561.61 1091.73 560.29 1096.23 560.29ZM1139.88 561.19L1105.14 625H1090.29L1125.03 561.19H1139.88ZM1091.37 575.41C1091.37 577.27 1091.79 578.74 1092.63 579.82C1093.47 580.84 1094.61 581.35 1096.05 581.35C1097.55 581.35 1098.75 580.84 1099.65 579.82C1100.55 578.74 1101 577.27 1101 575.41C1101 573.55 1100.55 572.11 1099.65 571.09C1098.75 570.01 1097.55 569.47 1096.05 569.47C1094.61 569.47 1093.47 570.01 1092.63 571.09C1091.79 572.11 1091.37 573.55 1091.37 575.41ZM1134.03 595.57C1138.47 595.57 1142.07 596.89 1144.83 599.53C1147.59 602.17 1148.97 605.89 1148.97 610.69C1148.97 615.49 1147.59 619.24 1144.83 621.94C1142.07 624.58 1138.47 625.9 1134.03 625.9C1129.65 625.9 1126.05 624.58 1123.23 621.94C1120.47 619.24 1119.09 615.49 1119.09 610.69C1119.09 605.89 1120.47 602.17 1123.23 599.53C1126.05 596.89 1129.65 595.57 1134.03 595.57ZM1129.26 610.69C1129.26 612.61 1129.68 614.11 1130.52 615.19C1131.36 616.21 1132.53 616.72 1134.03 616.72C1135.47 616.72 1136.61 616.21 1137.45 615.19C1138.35 614.11 1138.8 612.61 1138.8 610.69C1138.8 608.83 1138.35 607.39 1137.45 606.37C1136.61 605.29 1135.47 604.75 1134.03 604.75C1132.53 604.75 1131.36 605.29 1130.52 606.37C1129.68 607.39 1129.26 608.83 1129.26 610.69Z" fill="#FF3D00"/>
</g>
<defs>
<clipPath id="clip0">
<rect width="1277" height="771" fill="white"/>
</clipPath>
</defs>
</svg>
