<svg width="1197" height="884" viewBox="0 0 1197 884" fill="none" xmlns="http://www.w3.org/2000/svg">
<g clip-path="url(#clip0)">
<rect width="1197" height="884" fill="#22313F"/>
<rect x="192.5" y="5.5" width="999" height="868" stroke="#FF4D00" stroke-width="11" stroke-dasharray="15 10"/>
<path d="M236.936 249.36V243.24H251.48V294H244.568V249.36H236.936ZM268.192 279.744C268.624 282.768 269.68 285.096 271.36 286.728C273.04 288.36 275.344 289.176 278.272 289.176C282.304 289.176 285.352 287.616 287.416 284.496C289.48 281.376 290.512 276.432 290.512 269.664C290.512 268.368 290.488 267.384 290.44 266.712C289.768 269.592 288.136 271.896 285.544 273.624C282.952 275.352 279.904 276.216 276.4 276.216C271.36 276.216 267.4 274.704 264.52 271.68C261.64 268.656 260.2 264.432 260.2 259.008C260.2 255.84 260.824 252.96 262.072 250.368C263.32 247.776 265.216 245.736 267.76 244.248C270.352 242.712 273.544 241.944 277.336 241.944C284.632 241.944 289.624 244.2 292.312 248.712C295.048 253.176 296.416 259.32 296.416 267.144C296.416 276.072 295.024 282.888 292.24 287.592C289.456 292.248 284.8 294.576 278.272 294.576C273.424 294.576 269.608 293.208 266.824 290.472C264.088 287.688 262.48 284.112 262 279.744H268.192ZM289.792 260.016C289.792 256.56 288.76 253.632 286.696 251.232C284.68 248.832 281.632 247.632 277.552 247.632C274.192 247.632 271.504 248.64 269.488 250.656C267.472 252.672 266.464 255.48 266.464 259.08C266.464 262.92 267.472 265.872 269.488 267.936C271.504 270 274.264 271.032 277.768 271.032C279.784 271.032 281.704 270.624 283.528 269.808C285.4 268.992 286.912 267.744 288.064 266.064C289.216 264.384 289.792 262.368 289.792 260.016ZM311.997 279.744C312.429 282.768 313.485 285.096 315.165 286.728C316.845 288.36 319.149 289.176 322.077 289.176C326.109 289.176 329.157 287.616 331.221 284.496C333.285 281.376 334.317 276.432 334.317 269.664C334.317 268.368 334.293 267.384 334.245 266.712C333.573 269.592 331.941 271.896 329.349 273.624C326.757 275.352 323.709 276.216 320.205 276.216C315.165 276.216 311.205 274.704 308.325 271.68C305.445 268.656 304.005 264.432 304.005 259.008C304.005 255.84 304.629 252.96 305.877 250.368C307.125 247.776 309.021 245.736 311.565 244.248C314.157 242.712 317.349 241.944 321.141 241.944C328.437 241.944 333.429 244.2 336.117 248.712C338.853 253.176 340.221 259.32 340.221 267.144C340.221 276.072 338.829 282.888 336.045 287.592C333.261 292.248 328.605 294.576 322.077 294.576C317.229 294.576 313.413 293.208 310.629 290.472C307.893 287.688 306.285 284.112 305.805 279.744H311.997ZM333.597 260.016C333.597 256.56 332.565 253.632 330.501 251.232C328.485 248.832 325.437 247.632 321.357 247.632C317.997 247.632 315.309 248.64 313.293 250.656C311.277 252.672 310.269 255.48 310.269 259.08C310.269 262.92 311.277 265.872 313.293 267.936C315.309 270 318.069 271.032 321.573 271.032C323.589 271.032 325.509 270.624 327.333 269.808C329.205 268.992 330.717 267.744 331.869 266.064C333.021 264.384 333.597 262.368 333.597 260.016ZM377.041 256.776C376.657 253.752 375.625 251.424 373.945 249.792C372.313 248.112 370.033 247.272 367.105 247.272C363.025 247.272 359.929 248.856 357.817 252.024C355.753 255.192 354.721 260.208 354.721 267.072L354.793 269.736C355.513 266.856 357.169 264.576 359.761 262.896C362.353 261.168 365.401 260.304 368.905 260.304C373.945 260.304 377.881 261.816 380.713 264.84C383.593 267.864 385.033 272.088 385.033 277.512C385.033 280.68 384.409 283.56 383.161 286.152C381.913 288.696 379.993 290.736 377.401 292.272C374.857 293.76 371.689 294.504 367.897 294.504C360.649 294.504 355.657 292.224 352.921 287.664C350.233 283.104 348.889 276.912 348.889 269.088C348.889 260.064 350.329 253.296 353.209 248.784C356.137 244.224 360.889 241.944 367.465 241.944C372.313 241.944 376.033 243.312 378.625 246.048C381.265 248.784 382.825 252.36 383.305 256.776H377.041ZM355.513 276.432C355.513 279.936 356.521 282.888 358.537 285.288C360.601 287.64 363.673 288.816 367.753 288.816C371.113 288.816 373.801 287.832 375.817 285.864C377.833 283.848 378.841 281.04 378.841 277.44C378.841 273.552 377.833 270.6 375.817 268.584C373.801 266.52 371.017 265.488 367.465 265.488C365.449 265.488 363.529 265.896 361.705 266.712C359.881 267.528 358.393 268.776 357.241 270.456C356.089 272.088 355.513 274.08 355.513 276.432Z" fill="white"/>
<path d="M239.024 498.96C247.184 493.488 253.712 488.064 258.608 482.688C263.504 477.264 265.952 472.224 265.952 467.568C265.952 464.688 265.208 462.384 263.72 460.656C262.28 458.88 259.928 457.992 256.664 457.992C253.304 457.992 250.76 459.072 249.032 461.232C247.304 463.344 246.344 466.272 246.152 470.016H239.672C240.008 464.352 241.76 460.008 244.928 456.984C248.096 453.912 252.176 452.376 257.168 452.376C261.92 452.376 265.688 453.648 268.472 456.192C271.256 458.736 272.648 462.336 272.648 466.992C272.648 470.832 271.4 474.744 268.904 478.728C266.456 482.664 263.36 486.336 259.616 489.744C255.92 493.104 252.104 495.96 248.168 498.312H273.944V503.712H239.024V498.96ZM280.956 478.296C280.956 486.456 282.3 492.816 284.988 497.376C287.676 501.936 292.332 504.216 298.956 504.216C305.58 504.216 310.236 501.936 312.924 497.376C315.66 492.816 317.028 486.456 317.028 478.296C317.028 470.232 315.66 463.92 312.924 459.36C310.236 454.8 305.58 452.52 298.956 452.52C292.332 452.52 287.676 454.8 284.988 459.36C282.3 463.872 280.956 470.184 280.956 478.296ZM310.548 478.296C310.548 482.472 310.236 485.976 309.612 488.808C309.036 491.592 307.908 493.824 306.228 495.504C304.548 497.184 302.124 498.024 298.956 498.024C295.836 498.024 293.436 497.184 291.756 495.504C290.076 493.824 288.924 491.592 288.3 488.808C287.724 485.976 287.436 482.472 287.436 478.296C287.436 474.168 287.724 470.712 288.3 467.928C288.924 465.144 290.076 462.936 291.756 461.304C293.436 459.624 295.836 458.784 298.956 458.784C302.124 458.784 304.548 459.624 306.228 461.304C307.908 462.936 309.036 465.144 309.612 467.928C310.236 470.712 310.548 474.168 310.548 478.296ZM322.014 459.36V453.24H336.558V504H329.646V459.36H322.014ZM346.862 465.192C346.862 462.696 347.534 460.416 348.878 458.352C350.222 456.288 352.214 454.656 354.854 453.456C357.494 452.256 360.638 451.656 364.286 451.656C367.934 451.656 371.054 452.256 373.646 453.456C376.286 454.656 378.278 456.288 379.622 458.352C380.966 460.416 381.638 462.696 381.638 465.192C381.638 468.024 380.87 470.472 379.334 472.536C377.798 474.6 375.47 476.064 372.35 476.928C375.71 477.84 378.326 479.424 380.198 481.68C382.07 483.936 383.006 486.72 383.006 490.032C383.006 494.832 381.302 498.6 377.894 501.336C374.486 504.072 369.95 505.44 364.286 505.44C358.622 505.44 354.086 504.072 350.678 501.336C347.27 498.6 345.566 494.832 345.566 490.032C345.566 486.72 346.478 483.936 348.302 481.68C350.174 479.424 352.79 477.84 356.15 476.928C353.03 476.064 350.702 474.6 349.166 472.536C347.63 470.472 346.862 468.024 346.862 465.192ZM353.342 466.128C353.342 469.008 354.326 471.24 356.294 472.824C358.262 474.36 360.926 475.128 364.286 475.128C367.646 475.128 370.286 474.36 372.206 472.824C374.174 471.24 375.158 469.008 375.158 466.128C375.158 463.248 374.174 461.04 372.206 459.504C370.238 457.92 367.598 457.128 364.286 457.128C360.974 457.128 358.31 457.92 356.294 459.504C354.326 461.04 353.342 463.248 353.342 466.128ZM351.974 489.672C351.974 492.936 353.078 495.48 355.286 497.304C357.494 499.08 360.494 499.968 364.286 499.968C368.03 499.968 371.006 499.056 373.214 497.232C375.422 495.408 376.526 492.888 376.526 489.672C376.526 486.408 375.374 483.936 373.07 482.256C370.766 480.576 367.838 479.736 364.286 479.736C360.686 479.736 357.734 480.576 355.43 482.256C353.126 483.936 351.974 486.408 351.974 489.672Z" fill="white"/>
<path d="M239.024 721.96C247.184 716.488 253.712 711.064 258.608 705.688C263.504 700.264 265.952 695.224 265.952 690.568C265.952 687.688 265.208 685.384 263.72 683.656C262.28 681.88 259.928 680.992 256.664 680.992C253.304 680.992 250.76 682.072 249.032 684.232C247.304 686.344 246.344 689.272 246.152 693.016H239.672C240.008 687.352 241.76 683.008 244.928 679.984C248.096 676.912 252.176 675.376 257.168 675.376C261.92 675.376 265.688 676.648 268.472 679.192C271.256 681.736 272.648 685.336 272.648 689.992C272.648 693.832 271.4 697.744 268.904 701.728C266.456 705.664 263.36 709.336 259.616 712.744C255.92 716.104 252.104 718.96 248.168 721.312H273.944V726.712H239.024V721.96ZM280.956 701.296C280.956 709.456 282.3 715.816 284.988 720.376C287.676 724.936 292.332 727.216 298.956 727.216C305.58 727.216 310.236 724.936 312.924 720.376C315.66 715.816 317.028 709.456 317.028 701.296C317.028 693.232 315.66 686.92 312.924 682.36C310.236 677.8 305.58 675.52 298.956 675.52C292.332 675.52 287.676 677.8 284.988 682.36C282.3 686.872 280.956 693.184 280.956 701.296ZM310.548 701.296C310.548 705.472 310.236 708.976 309.612 711.808C309.036 714.592 307.908 716.824 306.228 718.504C304.548 720.184 302.124 721.024 298.956 721.024C295.836 721.024 293.436 720.184 291.756 718.504C290.076 716.824 288.924 714.592 288.3 711.808C287.724 708.976 287.436 705.472 287.436 701.296C287.436 697.168 287.724 693.712 288.3 690.928C288.924 688.144 290.076 685.936 291.756 684.304C293.436 682.624 295.836 681.784 298.956 681.784C302.124 681.784 304.548 682.624 306.228 684.304C307.908 685.936 309.036 688.144 309.612 690.928C310.236 693.712 310.548 697.168 310.548 701.296ZM359.382 681.424H333.318V698.416C334.518 696.784 336.246 695.488 338.502 694.528C340.758 693.568 343.23 693.088 345.918 693.088C349.518 693.088 352.494 693.856 354.846 695.392C357.246 696.88 358.998 698.872 360.102 701.368C361.254 703.816 361.83 706.552 361.83 709.576C361.83 714.808 360.366 719.08 357.438 722.392C354.51 725.704 350.214 727.36 344.55 727.36C339.462 727.36 335.31 725.992 332.094 723.256C328.878 720.472 327.078 716.752 326.694 712.096H333.174C333.702 715.072 334.926 717.4 336.846 719.08C338.814 720.712 341.286 721.528 344.262 721.528C347.958 721.528 350.742 720.424 352.614 718.216C354.486 716.008 355.422 713.104 355.422 709.504C355.422 706 354.462 703.264 352.542 701.296C350.622 699.328 347.91 698.344 344.406 698.344C341.91 698.344 339.726 698.896 337.854 700C335.982 701.056 334.566 702.496 333.606 704.32H327.27V675.592H359.382V681.424ZM369.549 701.296C369.549 709.456 370.893 715.816 373.581 720.376C376.269 724.936 380.925 727.216 387.549 727.216C394.173 727.216 398.829 724.936 401.517 720.376C404.253 715.816 405.621 709.456 405.621 701.296C405.621 693.232 404.253 686.92 401.517 682.36C398.829 677.8 394.173 675.52 387.549 675.52C380.925 675.52 376.269 677.8 373.581 682.36C370.893 686.872 369.549 693.184 369.549 701.296ZM399.141 701.296C399.141 705.472 398.829 708.976 398.205 711.808C397.629 714.592 396.501 716.824 394.821 718.504C393.141 720.184 390.717 721.024 387.549 721.024C384.429 721.024 382.029 720.184 380.349 718.504C378.669 716.824 377.517 714.592 376.893 711.808C376.317 708.976 376.029 705.472 376.029 701.296C376.029 697.168 376.317 693.712 376.893 690.928C377.517 688.144 378.669 685.936 380.349 684.304C382.029 682.624 384.429 681.784 387.549 681.784C390.717 681.784 393.141 682.624 394.821 684.304C396.501 685.936 397.629 688.144 398.205 690.928C398.829 693.712 399.141 697.168 399.141 701.296Z" fill="white"/>
<path d="M535.78 261.51C535.78 271.47 537.79 279.36 541.81 285.18C545.83 291 552.25 293.91 561.07 293.91C569.83 293.91 576.22 291 580.24 285.18C584.32 279.36 586.36 271.47 586.36 261.51C586.36 251.61 584.32 243.78 580.24 238.02C576.22 232.2 569.83 229.29 561.07 229.29C552.25 229.29 545.83 232.2 541.81 238.02C537.79 243.78 535.78 251.61 535.78 261.51ZM571.06 261.51C571.06 267.21 570.37 271.62 568.99 274.74C567.67 277.8 565.03 279.33 561.07 279.33C557.05 279.33 554.35 277.8 552.97 274.74C551.59 271.62 550.9 267.21 550.9 261.51C550.9 255.87 551.59 251.52 552.97 248.46C554.35 245.4 557.05 243.87 561.07 243.87C565.03 243.87 567.67 245.4 568.99 248.46C570.37 251.46 571.06 255.81 571.06 261.51ZM605.13 284.46C606.93 287.94 607.83 291.72 607.83 295.8C607.83 299.94 606.72 303.36 604.5 306.06C602.34 308.76 598.95 310.11 594.33 310.11V304.44C595.95 304.44 597.12 304.08 597.84 303.36C598.62 302.64 599.01 301.26 599.01 299.22V298.32H592.44V284.46H605.13ZM612.267 244.77V230.37H638.007V294H621.807V244.77H612.267ZM646.417 281.76C665.497 268.14 675.037 257.31 675.037 249.27C675.037 244.35 672.907 241.89 668.647 241.89C666.247 241.89 664.477 242.73 663.337 244.41C662.257 246.09 661.657 248.7 661.537 252.24H646.507C646.867 244.5 649.207 238.68 653.527 234.78C657.847 230.88 663.307 228.93 669.907 228.93C676.807 228.93 681.997 230.67 685.477 234.15C689.017 237.63 690.787 242.16 690.787 247.74C690.787 253.92 688.417 259.98 683.677 265.92C678.937 271.8 673.267 276.78 666.667 280.86H691.777V293.28H646.417V281.76ZM711.704 229.29C716.084 229.29 719.654 230.61 722.414 233.25C725.234 235.89 726.644 239.61 726.644 244.41C726.644 249.21 725.234 252.93 722.414 255.57C719.654 258.21 716.084 259.53 711.704 259.53C707.204 259.53 703.544 258.21 700.724 255.57C697.964 252.93 696.584 249.21 696.584 244.41C696.584 239.61 697.964 235.89 700.724 233.25C703.544 230.61 707.204 229.29 711.704 229.29ZM755.354 230.19L720.614 294H705.764L740.504 230.19H755.354ZM706.844 244.41C706.844 246.27 707.264 247.74 708.104 248.82C708.944 249.84 710.084 250.35 711.524 250.35C713.024 250.35 714.224 249.84 715.124 248.82C716.024 247.74 716.474 246.27 716.474 244.41C716.474 242.55 716.024 241.11 715.124 240.09C714.224 239.01 713.024 238.47 711.524 238.47C710.084 238.47 708.944 239.01 708.104 240.09C707.264 241.11 706.844 242.55 706.844 244.41ZM749.504 264.57C753.944 264.57 757.544 265.89 760.304 268.53C763.064 271.17 764.444 274.89 764.444 279.69C764.444 284.49 763.064 288.24 760.304 290.94C757.544 293.58 753.944 294.9 749.504 294.9C745.124 294.9 741.524 293.58 738.704 290.94C735.944 288.24 734.564 284.49 734.564 279.69C734.564 274.89 735.944 271.17 738.704 268.53C741.524 265.89 745.124 264.57 749.504 264.57ZM744.734 279.69C744.734 281.61 745.154 283.11 745.994 284.19C746.834 285.21 748.004 285.72 749.504 285.72C750.944 285.72 752.084 285.21 752.924 284.19C753.824 283.11 754.274 281.61 754.274 279.69C754.274 277.83 753.824 276.39 752.924 275.37C752.084 274.29 750.944 273.75 749.504 273.75C748.004 273.75 746.834 274.29 745.994 275.37C745.154 276.39 744.734 277.83 744.734 279.69Z" fill="#19ADB7"/>
<path d="M535.96 492.3V479.43L565.03 439.56H581.59V478.89H589.24V492.3H581.59V504H566.02V492.3H535.96ZM567.28 457.38L551.62 478.89H567.28V457.38ZM609.839 439.29C614.219 439.29 617.789 440.61 620.549 443.25C623.369 445.89 624.779 449.61 624.779 454.41C624.779 459.21 623.369 462.93 620.549 465.57C617.789 468.21 614.219 469.53 609.839 469.53C605.339 469.53 601.679 468.21 598.859 465.57C596.099 462.93 594.719 459.21 594.719 454.41C594.719 449.61 596.099 445.89 598.859 443.25C601.679 440.61 605.339 439.29 609.839 439.29ZM653.489 440.19L618.749 504H603.899L638.639 440.19H653.489ZM604.979 454.41C604.979 456.27 605.399 457.74 606.239 458.82C607.079 459.84 608.219 460.35 609.659 460.35C611.159 460.35 612.359 459.84 613.259 458.82C614.159 457.74 614.609 456.27 614.609 454.41C614.609 452.55 614.159 451.11 613.259 450.09C612.359 449.01 611.159 448.47 609.659 448.47C608.219 448.47 607.079 449.01 606.239 450.09C605.399 451.11 604.979 452.55 604.979 454.41ZM647.639 474.57C652.079 474.57 655.679 475.89 658.439 478.53C661.199 481.17 662.579 484.89 662.579 489.69C662.579 494.49 661.199 498.24 658.439 500.94C655.679 503.58 652.079 504.9 647.639 504.9C643.259 504.9 639.659 503.58 636.839 500.94C634.079 498.24 632.699 494.49 632.699 489.69C632.699 484.89 634.079 481.17 636.839 478.53C639.659 475.89 643.259 474.57 647.639 474.57ZM642.869 489.69C642.869 491.61 643.289 493.11 644.129 494.19C644.969 495.21 646.139 495.72 647.639 495.72C649.079 495.72 650.219 495.21 651.059 494.19C651.959 493.11 652.409 491.61 652.409 489.69C652.409 487.83 651.959 486.39 651.059 485.37C650.219 484.29 649.079 483.75 647.639 483.75C646.139 483.75 644.969 484.29 644.129 485.37C643.289 486.39 642.869 487.83 642.869 489.69Z" fill="#E97E00"/>
<path d="M538.03 682.68C538.03 679.62 538.9 676.74 540.64 674.04C542.38 671.34 544.96 669.15 548.38 667.47C551.86 665.79 556.06 664.95 560.98 664.95C565.96 664.95 570.16 665.79 573.58 667.47C577.06 669.15 579.64 671.34 581.32 674.04C583.06 676.74 583.93 679.62 583.93 682.68C583.93 686.04 583.15 688.92 581.59 691.32C580.03 693.66 577.75 695.46 574.75 696.72C581.89 699.9 585.46 705.27 585.46 712.83C585.46 717.15 584.38 720.87 582.22 723.99C580.06 727.05 577.12 729.39 573.4 731.01C569.74 732.57 565.6 733.35 560.98 733.35C556.42 733.35 552.28 732.57 548.56 731.01C544.84 729.39 541.9 727.05 539.74 723.99C537.58 720.87 536.5 717.15 536.5 712.83C536.5 705.27 540.07 699.9 547.21 696.72C544.21 695.46 541.93 693.66 540.37 691.32C538.81 688.92 538.03 686.04 538.03 682.68ZM553.15 685.29C553.15 687.75 553.84 689.64 555.22 690.96C556.66 692.22 558.58 692.85 560.98 692.85C563.38 692.85 565.27 692.22 566.65 690.96C568.09 689.64 568.81 687.75 568.81 685.29C568.81 682.89 568.09 681 566.65 679.62C565.21 678.24 563.32 677.55 560.98 677.55C558.64 677.55 556.75 678.24 555.31 679.62C553.87 681 553.15 682.89 553.15 685.29ZM551.44 711.93C551.44 714.63 552.28 716.76 553.96 718.32C555.7 719.88 558.04 720.66 560.98 720.66C563.92 720.66 566.23 719.88 567.91 718.32C569.65 716.76 570.52 714.63 570.52 711.93C570.52 709.23 569.62 707.13 567.82 705.63C566.08 704.07 563.8 703.29 560.98 703.29C558.16 703.29 555.85 704.07 554.05 705.63C552.31 707.13 551.44 709.23 551.44 711.93ZM605.218 722.46C607.018 725.94 607.918 729.72 607.918 733.8C607.918 737.94 606.808 741.36 604.588 744.06C602.428 746.76 599.038 748.11 594.418 748.11V742.44C596.038 742.44 597.208 742.08 597.928 741.36C598.708 740.64 599.098 739.26 599.098 737.22V736.32H592.528V722.46H605.218ZM638.545 665.58C642.985 665.58 646.795 666.36 649.975 667.92C653.155 669.42 655.555 671.52 657.175 674.22C658.855 676.86 659.695 679.86 659.695 683.22C659.695 687.36 658.615 690.69 656.455 693.21C654.355 695.73 651.715 697.32 648.535 697.98V698.43C656.755 701.07 660.865 706.2 660.865 713.82C660.865 717.48 660.025 720.75 658.345 723.63C656.665 726.45 654.205 728.67 650.965 730.29C647.785 731.85 643.945 732.63 639.445 732.63C632.125 732.63 626.305 730.83 621.985 727.23C617.725 723.63 615.415 718.14 615.055 710.76H630.085C630.205 713.58 630.985 715.8 632.425 717.42C633.865 719.04 635.965 719.85 638.725 719.85C640.945 719.85 642.685 719.19 643.945 717.87C645.265 716.55 645.925 714.84 645.925 712.74C645.925 707.52 642.145 704.91 634.585 704.91H631.705V692.4H634.495C641.275 692.52 644.665 690.09 644.665 685.11C644.665 682.95 644.065 681.3 642.865 680.16C641.725 678.96 640.165 678.36 638.185 678.36C636.025 678.36 634.315 679.11 633.055 680.61C631.795 682.05 631.075 684 630.895 686.46H615.865C616.165 679.74 618.265 674.58 622.165 670.98C626.065 667.38 631.525 665.58 638.545 665.58ZM683.227 667.29C687.607 667.29 691.177 668.61 693.937 671.25C696.757 673.89 698.167 677.61 698.167 682.41C698.167 687.21 696.757 690.93 693.937 693.57C691.177 696.21 687.607 697.53 683.227 697.53C678.727 697.53 675.067 696.21 672.247 693.57C669.487 690.93 668.107 687.21 668.107 682.41C668.107 677.61 669.487 673.89 672.247 671.25C675.067 668.61 678.727 667.29 683.227 667.29ZM726.877 668.19L692.137 732H677.287L712.027 668.19H726.877ZM678.367 682.41C678.367 684.27 678.787 685.74 679.627 686.82C680.467 687.84 681.607 688.35 683.047 688.35C684.547 688.35 685.747 687.84 686.647 686.82C687.547 685.74 687.997 684.27 687.997 682.41C687.997 680.55 687.547 679.11 686.647 678.09C685.747 677.01 684.547 676.47 683.047 676.47C681.607 676.47 680.467 677.01 679.627 678.09C678.787 679.11 678.367 680.55 678.367 682.41ZM721.027 702.57C725.467 702.57 729.067 703.89 731.827 706.53C734.587 709.17 735.967 712.89 735.967 717.69C735.967 722.49 734.587 726.24 731.827 728.94C729.067 731.58 725.467 732.9 721.027 732.9C716.647 732.9 713.047 731.58 710.227 728.94C707.467 726.24 706.087 722.49 706.087 717.69C706.087 712.89 707.467 709.17 710.227 706.53C713.047 703.89 716.647 702.57 721.027 702.57ZM716.257 717.69C716.257 719.61 716.677 721.11 717.517 722.19C718.357 723.21 719.527 723.72 721.027 723.72C722.467 723.72 723.607 723.21 724.447 722.19C725.347 721.11 725.797 719.61 725.797 717.69C725.797 715.83 725.347 714.39 724.447 713.37C723.607 712.29 722.467 711.75 721.027 711.75C719.527 711.75 718.357 712.29 717.517 713.37C716.677 714.39 716.257 715.83 716.257 717.69Z" fill="#FF3D00"/>
<path d="M261.04 75.096V87H252.832V53.064H266.128C270.16 53.064 273.232 54.072 275.344 56.088C277.456 58.072 278.512 60.76 278.512 64.152C278.512 66.264 278.032 68.152 277.072 69.816C276.144 71.448 274.752 72.744 272.896 73.704C271.04 74.632 268.784 75.096 266.128 75.096H261.04ZM265.216 68.52C268.512 68.52 270.16 67.064 270.16 64.152C270.16 61.176 268.512 59.688 265.216 59.688H261.04V68.52H265.216ZM307.991 72.888C307.991 73.56 307.911 74.296 307.751 75.096H289.175C289.271 77.112 289.783 78.568 290.711 79.464C291.639 80.328 292.823 80.76 294.263 80.76C295.479 80.76 296.487 80.456 297.287 79.848C298.087 79.24 298.615 78.456 298.871 77.496H307.559C307.207 79.384 306.439 81.08 305.255 82.584C304.071 84.056 302.567 85.224 300.743 86.088C298.919 86.92 296.887 87.336 294.647 87.336C292.023 87.336 289.687 86.792 287.639 85.704C285.623 84.584 284.039 82.984 282.887 80.904C281.735 78.824 281.159 76.392 281.159 73.608C281.159 70.792 281.719 68.36 282.839 66.312C283.991 64.232 285.591 62.648 287.639 61.56C289.687 60.44 292.023 59.88 294.647 59.88C297.303 59.88 299.639 60.424 301.655 61.512C303.671 62.6 305.223 64.136 306.311 66.12C307.431 68.072 307.991 70.328 307.991 72.888ZM299.687 71.64C299.719 69.88 299.239 68.568 298.247 67.704C297.287 66.808 296.087 66.36 294.647 66.36C293.143 66.36 291.895 66.808 290.903 67.704C289.911 68.6 289.351 69.912 289.223 71.64H299.687ZM320.478 65.256C321.502 63.624 322.814 62.328 324.414 61.368C326.046 60.408 327.806 59.928 329.694 59.928V68.712H327.342C325.166 68.712 323.47 69.176 322.254 70.104C321.07 71.032 320.478 72.6 320.478 74.808V87H312.27V60.216H320.478V65.256ZM345.225 59.88C348.681 59.88 351.577 60.84 353.913 62.76C356.249 64.648 357.721 67.256 358.329 70.584H349.641C349.385 69.432 348.857 68.536 348.057 67.896C347.257 67.256 346.249 66.936 345.033 66.936C343.593 66.936 342.409 67.512 341.481 68.664C340.553 69.784 340.089 71.432 340.089 73.608C340.089 75.784 340.553 77.448 341.481 78.6C342.409 79.72 343.593 80.28 345.033 80.28C346.249 80.28 347.257 79.96 348.057 79.32C348.857 78.68 349.385 77.784 349.641 76.632H358.329C357.721 79.96 356.249 82.584 353.913 84.504C351.577 86.392 348.681 87.336 345.225 87.336C342.601 87.336 340.265 86.792 338.217 85.704C336.201 84.584 334.617 82.984 333.465 80.904C332.313 78.824 331.737 76.392 331.737 73.608C331.737 70.792 332.297 68.36 333.417 66.312C334.569 64.232 336.169 62.648 338.217 61.56C340.265 60.44 342.601 59.88 345.225 59.88ZM388.053 72.888C388.053 73.56 387.973 74.296 387.813 75.096H369.237C369.333 77.112 369.845 78.568 370.773 79.464C371.701 80.328 372.885 80.76 374.325 80.76C375.541 80.76 376.549 80.456 377.349 79.848C378.149 79.24 378.677 78.456 378.933 77.496H387.621C387.269 79.384 386.501 81.08 385.317 82.584C384.133 84.056 382.629 85.224 380.805 86.088C378.981 86.92 376.949 87.336 374.709 87.336C372.085 87.336 369.749 86.792 367.701 85.704C365.685 84.584 364.101 82.984 362.949 80.904C361.797 78.824 361.221 76.392 361.221 73.608C361.221 70.792 361.781 68.36 362.901 66.312C364.053 64.232 365.653 62.648 367.701 61.56C369.749 60.44 372.085 59.88 374.709 59.88C377.365 59.88 379.701 60.424 381.717 61.512C383.733 62.6 385.285 64.136 386.373 66.12C387.493 68.072 388.053 70.328 388.053 72.888ZM379.749 71.64C379.781 69.88 379.301 68.568 378.309 67.704C377.349 66.808 376.149 66.36 374.709 66.36C373.205 66.36 371.957 66.808 370.965 67.704C369.973 68.6 369.413 69.912 369.285 71.64H379.749ZM409.324 59.928C412.396 59.928 414.828 60.952 416.62 63C418.444 65.048 419.356 67.864 419.356 71.448V87H411.148V72.408C411.148 70.616 410.668 69.224 409.708 68.232C408.78 67.208 407.532 66.696 405.964 66.696C404.3 66.696 402.972 67.224 401.98 68.28C401.02 69.336 400.54 70.84 400.54 72.792V87H392.332V60.216H400.54V65.112C401.308 63.512 402.444 62.248 403.948 61.32C405.484 60.392 407.276 59.928 409.324 59.928ZM439.938 79.944V87H436.242C433.106 87 430.658 86.232 428.898 84.696C427.17 83.128 426.306 80.552 426.306 76.968V67.128H422.706V60.216H426.306V53.64H434.514V60.216H439.89V67.128H434.514V77.112C434.514 78.168 434.722 78.904 435.138 79.32C435.586 79.736 436.322 79.944 437.346 79.944H439.938ZM454.727 59.88C456.775 59.88 458.535 60.344 460.007 61.272C461.479 62.2 462.567 63.464 463.271 65.064V60.216H471.431V87H463.271V82.152C462.567 83.752 461.479 85.016 460.007 85.944C458.535 86.872 456.775 87.336 454.727 87.336C452.519 87.336 450.535 86.792 448.775 85.704C447.047 84.584 445.671 82.984 444.647 80.904C443.655 78.824 443.159 76.392 443.159 73.608C443.159 70.792 443.655 68.36 444.647 66.312C445.671 64.232 447.047 62.648 448.775 61.56C450.535 60.44 452.519 59.88 454.727 59.88ZM457.367 67.08C455.607 67.08 454.183 67.656 453.095 68.808C452.039 69.96 451.511 71.56 451.511 73.608C451.511 75.656 452.039 77.256 453.095 78.408C454.183 79.56 455.607 80.136 457.367 80.136C459.095 80.136 460.503 79.544 461.591 78.36C462.711 77.176 463.271 75.592 463.271 73.608C463.271 71.592 462.711 70.008 461.591 68.856C460.503 67.672 459.095 67.08 457.367 67.08ZM487.258 59.88C489.306 59.88 491.066 60.344 492.538 61.272C494.01 62.2 495.098 63.464 495.802 65.064V60.216H503.962V86.856C503.962 89.352 503.482 91.592 502.522 93.576C501.562 95.592 500.09 97.192 498.106 98.376C496.122 99.56 493.658 100.152 490.714 100.152C486.682 100.152 483.45 99.192 481.018 97.272C478.618 95.384 477.178 92.808 476.698 89.544H484.81C485.066 90.632 485.642 91.48 486.538 92.088C487.466 92.696 488.666 93 490.138 93C491.834 93 493.194 92.504 494.218 91.512C495.274 90.552 495.802 89 495.802 86.856V82.152C495.098 83.752 494.01 85.016 492.538 85.944C491.066 86.872 489.306 87.336 487.258 87.336C485.05 87.336 483.066 86.792 481.306 85.704C479.578 84.584 478.202 82.984 477.178 80.904C476.186 78.824 475.69 76.392 475.69 73.608C475.69 70.792 476.186 68.36 477.178 66.312C478.202 64.232 479.578 62.648 481.306 61.56C483.066 60.44 485.05 59.88 487.258 59.88ZM489.898 67.08C488.138 67.08 486.714 67.656 485.626 68.808C484.57 69.96 484.042 71.56 484.042 73.608C484.042 75.656 484.57 77.256 485.626 78.408C486.714 79.56 488.138 80.136 489.898 80.136C491.626 80.136 493.034 79.544 494.122 78.36C495.242 77.176 495.802 75.592 495.802 73.608C495.802 71.592 495.242 70.008 494.122 68.856C493.034 67.672 491.626 67.08 489.898 67.08ZM535.053 72.888C535.053 73.56 534.973 74.296 534.813 75.096H516.237C516.333 77.112 516.845 78.568 517.773 79.464C518.701 80.328 519.885 80.76 521.325 80.76C522.541 80.76 523.549 80.456 524.349 79.848C525.149 79.24 525.677 78.456 525.933 77.496H534.621C534.269 79.384 533.501 81.08 532.317 82.584C531.133 84.056 529.629 85.224 527.805 86.088C525.981 86.92 523.949 87.336 521.709 87.336C519.085 87.336 516.749 86.792 514.701 85.704C512.685 84.584 511.101 82.984 509.949 80.904C508.797 78.824 508.221 76.392 508.221 73.608C508.221 70.792 508.781 68.36 509.901 66.312C511.053 64.232 512.653 62.648 514.701 61.56C516.749 60.44 519.085 59.88 521.709 59.88C524.365 59.88 526.701 60.424 528.717 61.512C530.733 62.6 532.285 64.136 533.373 66.12C534.493 68.072 535.053 70.328 535.053 72.888ZM526.749 71.64C526.781 69.88 526.301 68.568 525.309 67.704C524.349 66.808 523.149 66.36 521.709 66.36C520.205 66.36 518.957 66.808 517.965 67.704C516.973 68.6 516.413 69.912 516.285 71.64H526.749ZM561.469 59.88C564.125 59.88 566.493 60.44 568.573 61.56C570.685 62.648 572.333 64.232 573.517 66.312C574.733 68.392 575.341 70.824 575.341 73.608C575.341 76.392 574.733 78.824 573.517 80.904C572.333 82.984 570.685 84.584 568.573 85.704C566.493 86.792 564.125 87.336 561.469 87.336C558.813 87.336 556.429 86.792 554.317 85.704C552.205 84.584 550.541 82.984 549.325 80.904C548.141 78.824 547.549 76.392 547.549 73.608C547.549 70.824 548.141 68.392 549.325 66.312C550.541 64.232 552.205 62.648 554.317 61.56C556.429 60.44 558.813 59.88 561.469 59.88ZM561.469 66.984C559.901 66.984 558.573 67.56 557.485 68.712C556.429 69.832 555.901 71.464 555.901 73.608C555.901 75.752 556.429 77.384 557.485 78.504C558.573 79.624 559.901 80.184 561.469 80.184C563.037 80.184 564.349 79.624 565.405 78.504C566.461 77.384 566.989 75.752 566.989 73.608C566.989 71.464 566.461 69.832 565.405 68.712C564.349 67.56 563.037 66.984 561.469 66.984ZM592.75 56.568C591.406 56.568 590.43 56.856 589.822 57.432C589.214 58.008 588.878 58.936 588.814 60.216H593.662V67.128H588.814V87H580.606V67.128H577.39V60.216H580.606V59.928C580.606 56.6 581.566 54.04 583.486 52.248C585.438 50.424 588.254 49.512 591.934 49.512C592.702 49.512 593.278 49.528 593.662 49.56V56.616L592.75 56.568ZM623.583 59.88C625.791 59.88 627.759 60.44 629.487 61.56C631.247 62.648 632.623 64.232 633.615 66.312C634.639 68.36 635.151 70.792 635.151 73.608C635.151 76.392 634.639 78.824 633.615 80.904C632.623 82.984 631.247 84.584 629.487 85.704C627.759 86.792 625.791 87.336 623.583 87.336C621.535 87.336 619.775 86.872 618.303 85.944C616.831 85.016 615.759 83.752 615.087 82.152V99.768H606.879V60.216H615.087V65.064C615.759 63.464 616.831 62.2 618.303 61.272C619.775 60.344 621.535 59.88 623.583 59.88ZM620.943 67.08C619.215 67.08 617.791 67.672 616.671 68.856C615.583 70.008 615.039 71.592 615.039 73.608C615.039 75.592 615.583 77.176 616.671 78.36C617.791 79.544 619.215 80.136 620.943 80.136C622.703 80.136 624.111 79.56 625.167 78.408C626.255 77.256 626.799 75.656 626.799 73.608C626.799 71.56 626.255 69.96 625.167 68.808C624.111 67.656 622.703 67.08 620.943 67.08ZM651.938 59.88C654.594 59.88 656.962 60.44 659.042 61.56C661.154 62.648 662.802 64.232 663.986 66.312C665.202 68.392 665.81 70.824 665.81 73.608C665.81 76.392 665.202 78.824 663.986 80.904C662.802 82.984 661.154 84.584 659.042 85.704C656.962 86.792 654.594 87.336 651.938 87.336C649.282 87.336 646.898 86.792 644.786 85.704C642.674 84.584 641.01 82.984 639.794 80.904C638.61 78.824 638.018 76.392 638.018 73.608C638.018 70.824 638.61 68.392 639.794 66.312C641.01 64.232 642.674 62.648 644.786 61.56C646.898 60.44 649.282 59.88 651.938 59.88ZM651.938 66.984C650.37 66.984 649.042 67.56 647.954 68.712C646.898 69.832 646.37 71.464 646.37 73.608C646.37 75.752 646.898 77.384 647.954 78.504C649.042 79.624 650.37 80.184 651.938 80.184C653.506 80.184 654.818 79.624 655.874 78.504C656.93 77.384 657.458 75.752 657.458 73.608C657.458 71.464 656.93 69.832 655.874 68.712C654.818 67.56 653.506 66.984 651.938 66.984ZM686.77 59.88C688.978 59.88 690.946 60.44 692.674 61.56C694.434 62.648 695.81 64.232 696.802 66.312C697.826 68.36 698.338 70.792 698.338 73.608C698.338 76.392 697.826 78.824 696.802 80.904C695.81 82.984 694.434 84.584 692.674 85.704C690.946 86.792 688.978 87.336 686.77 87.336C684.722 87.336 682.962 86.872 681.49 85.944C680.018 85.016 678.946 83.752 678.274 82.152V99.768H670.066V60.216H678.274V65.064C678.946 63.464 680.018 62.2 681.49 61.272C682.962 60.344 684.722 59.88 686.77 59.88ZM684.13 67.08C682.402 67.08 680.978 67.672 679.858 68.856C678.77 70.008 678.226 71.592 678.226 73.608C678.226 75.592 678.77 77.176 679.858 78.36C680.978 79.544 682.402 80.136 684.13 80.136C685.89 80.136 687.298 79.56 688.354 78.408C689.442 77.256 689.986 75.656 689.986 73.608C689.986 71.56 689.442 69.96 688.354 68.808C687.298 67.656 685.89 67.08 684.13 67.08ZM729.238 60.216V87H720.982V82.152C720.214 83.72 719.062 84.968 717.526 85.896C716.022 86.824 714.262 87.288 712.246 87.288C709.174 87.288 706.726 86.264 704.902 84.216C703.11 82.168 702.214 79.352 702.214 75.768V60.216H710.374V74.76C710.374 76.584 710.838 78.008 711.766 79.032C712.726 80.024 714.006 80.52 715.606 80.52C717.27 80.52 718.582 79.992 719.542 78.936C720.502 77.88 720.982 76.376 720.982 74.424V60.216H729.238ZM743.103 51.48V87H734.895V51.48H743.103ZM758.946 59.88C760.994 59.88 762.754 60.344 764.226 61.272C765.698 62.2 766.786 63.464 767.49 65.064V60.216H775.65V87H767.49V82.152C766.786 83.752 765.698 85.016 764.226 85.944C762.754 86.872 760.994 87.336 758.946 87.336C756.738 87.336 754.754 86.792 752.993 85.704C751.266 84.584 749.89 82.984 748.866 80.904C747.874 78.824 747.378 76.392 747.378 73.608C747.378 70.792 747.874 68.36 748.866 66.312C749.89 64.232 751.266 62.648 752.993 61.56C754.754 60.44 756.738 59.88 758.946 59.88ZM761.586 67.08C759.826 67.08 758.402 67.656 757.314 68.808C756.258 69.96 755.73 71.56 755.73 73.608C755.73 75.656 756.258 77.256 757.314 78.408C758.402 79.56 759.826 80.136 761.586 80.136C763.314 80.136 764.722 79.544 765.81 78.36C766.93 77.176 767.49 75.592 767.49 73.608C767.49 71.592 766.93 70.008 765.81 68.856C764.722 67.672 763.314 67.08 761.586 67.08ZM796.469 79.944V87H792.773C789.637 87 787.189 86.232 785.429 84.696C783.701 83.128 782.837 80.552 782.837 76.968V67.128H779.237V60.216H782.837V53.64H791.045V60.216H796.421V67.128H791.045V77.112C791.045 78.168 791.253 78.904 791.669 79.32C792.117 79.736 792.853 79.944 793.877 79.944H796.469ZM800.314 52.68C800.314 51.432 800.762 50.408 801.658 49.608C802.554 48.776 803.738 48.36 805.21 48.36C806.682 48.36 807.866 48.776 808.762 49.608C809.658 50.408 810.106 51.432 810.106 52.68C810.106 53.896 809.658 54.92 808.762 55.752C807.866 56.552 806.682 56.952 805.21 56.952C803.738 56.952 802.554 56.552 801.658 55.752C800.762 54.92 800.314 53.896 800.314 52.68ZM809.29 60.216V87H801.082V60.216H809.29ZM827.485 59.88C830.141 59.88 832.509 60.44 834.589 61.56C836.701 62.648 838.349 64.232 839.533 66.312C840.749 68.392 841.357 70.824 841.357 73.608C841.357 76.392 840.749 78.824 839.533 80.904C838.349 82.984 836.701 84.584 834.589 85.704C832.509 86.792 830.141 87.336 827.485 87.336C824.829 87.336 822.445 86.792 820.333 85.704C818.221 84.584 816.557 82.984 815.341 80.904C814.157 78.824 813.565 76.392 813.565 73.608C813.565 70.824 814.157 68.392 815.341 66.312C816.557 64.232 818.221 62.648 820.333 61.56C822.445 60.44 824.829 59.88 827.485 59.88ZM827.485 66.984C825.917 66.984 824.589 67.56 823.501 68.712C822.445 69.832 821.917 71.464 821.917 73.608C821.917 75.752 822.445 77.384 823.501 78.504C824.589 79.624 825.917 80.184 827.485 80.184C829.053 80.184 830.365 79.624 831.421 78.504C832.477 77.384 833.005 75.752 833.005 73.608C833.005 71.464 832.477 69.832 831.421 68.712C830.365 67.56 829.053 66.984 827.485 66.984ZM862.605 59.928C865.677 59.928 868.109 60.952 869.901 63C871.725 65.048 872.637 67.864 872.637 71.448V87H864.429V72.408C864.429 70.616 863.949 69.224 862.989 68.232C862.061 67.208 860.813 66.696 859.245 66.696C857.581 66.696 856.253 67.224 855.261 68.28C854.301 69.336 853.821 70.84 853.821 72.792V87H845.613V60.216H853.821V65.112C854.589 63.512 855.725 62.248 857.229 61.32C858.765 60.392 860.557 59.928 862.605 59.928ZM902.828 79.944V87H899.132C895.996 87 893.548 86.232 891.788 84.696C890.06 83.128 889.196 80.552 889.196 76.968V67.128H885.596V60.216H889.196V53.64H897.404V60.216H902.78V67.128H897.404V77.112C897.404 78.168 897.612 78.904 898.028 79.32C898.476 79.736 899.212 79.944 900.236 79.944H902.828ZM915.649 65.256C916.673 63.624 917.985 62.328 919.585 61.368C921.217 60.408 922.977 59.928 924.865 59.928V68.712H922.513C920.337 68.712 918.641 69.176 917.425 70.104C916.241 71.032 915.649 72.6 915.649 74.808V87H907.441V60.216H915.649V65.256ZM953.741 72.888C953.741 73.56 953.661 74.296 953.501 75.096H934.925C935.021 77.112 935.533 78.568 936.461 79.464C937.389 80.328 938.573 80.76 940.013 80.76C941.229 80.76 942.237 80.456 943.037 79.848C943.837 79.24 944.365 78.456 944.621 77.496H953.309C952.957 79.384 952.189 81.08 951.005 82.584C949.821 84.056 948.317 85.224 946.493 86.088C944.669 86.92 942.637 87.336 940.397 87.336C937.773 87.336 935.437 86.792 933.389 85.704C931.373 84.584 929.789 82.984 928.637 80.904C927.485 78.824 926.909 76.392 926.909 73.608C926.909 70.792 927.469 68.36 928.589 66.312C929.741 64.232 931.341 62.648 933.389 61.56C935.437 60.44 937.773 59.88 940.397 59.88C943.053 59.88 945.389 60.424 947.405 61.512C949.421 62.6 950.973 64.136 952.061 66.12C953.181 68.072 953.741 70.328 953.741 72.888ZM945.437 71.64C945.469 69.88 944.989 68.568 943.997 67.704C943.037 66.808 941.837 66.36 940.397 66.36C938.893 66.36 937.645 66.808 936.653 67.704C935.661 68.6 935.101 69.912 934.973 71.64H945.437ZM968.196 59.88C970.244 59.88 972.004 60.344 973.476 61.272C974.948 62.2 976.036 63.464 976.74 65.064V60.216H984.9V87H976.74V82.152C976.036 83.752 974.948 85.016 973.476 85.944C972.004 86.872 970.244 87.336 968.196 87.336C965.988 87.336 964.004 86.792 962.243 85.704C960.516 84.584 959.14 82.984 958.116 80.904C957.124 78.824 956.628 76.392 956.628 73.608C956.628 70.792 957.124 68.36 958.116 66.312C959.14 64.232 960.516 62.648 962.243 61.56C964.004 60.44 965.988 59.88 968.196 59.88ZM970.836 67.08C969.076 67.08 967.652 67.656 966.564 68.808C965.508 69.96 964.98 71.56 964.98 73.608C964.98 75.656 965.508 77.256 966.564 78.408C967.652 79.56 969.076 80.136 970.836 80.136C972.564 80.136 973.972 79.544 975.06 78.36C976.18 77.176 976.74 75.592 976.74 73.608C976.74 71.592 976.18 70.008 975.06 68.856C973.972 67.672 972.564 67.08 970.836 67.08ZM1005.72 79.944V87H1002.02C998.887 87 996.439 86.232 994.679 84.696C992.951 83.128 992.087 80.552 992.087 76.968V67.128H988.487V60.216H992.087V53.64H1000.29V60.216H1005.67V67.128H1000.29V77.112C1000.29 78.168 1000.5 78.904 1000.92 79.32C1001.37 79.736 1002.1 79.944 1003.13 79.944H1005.72ZM1035.77 72.888C1035.77 73.56 1035.69 74.296 1035.53 75.096H1016.96C1017.05 77.112 1017.56 78.568 1018.49 79.464C1019.42 80.328 1020.6 80.76 1022.04 80.76C1023.26 80.76 1024.27 80.456 1025.07 79.848C1025.87 79.24 1026.4 78.456 1026.65 77.496H1035.34C1034.99 79.384 1034.22 81.08 1033.04 82.584C1031.85 84.056 1030.35 85.224 1028.52 86.088C1026.7 86.92 1024.67 87.336 1022.43 87.336C1019.8 87.336 1017.47 86.792 1015.42 85.704C1013.4 84.584 1011.82 82.984 1010.67 80.904C1009.52 78.824 1008.94 76.392 1008.94 73.608C1008.94 70.792 1009.5 68.36 1010.62 66.312C1011.77 64.232 1013.37 62.648 1015.42 61.56C1017.47 60.44 1019.8 59.88 1022.43 59.88C1025.08 59.88 1027.42 60.424 1029.44 61.512C1031.45 62.6 1033 64.136 1034.09 66.12C1035.21 68.072 1035.77 70.328 1035.77 72.888ZM1027.47 71.64C1027.5 69.88 1027.02 68.568 1026.03 67.704C1025.07 66.808 1023.87 66.36 1022.43 66.36C1020.92 66.36 1019.68 66.808 1018.68 67.704C1017.69 68.6 1017.13 69.912 1017 71.64H1027.47ZM1050.23 59.88C1052.27 59.88 1054.03 60.344 1055.51 61.272C1056.98 62.2 1058.05 63.464 1058.72 65.064V51.48H1066.93V87H1058.72V82.152C1058.05 83.752 1056.98 85.016 1055.51 85.944C1054.03 86.872 1052.27 87.336 1050.23 87.336C1048.02 87.336 1046.03 86.792 1044.27 85.704C1042.55 84.584 1041.17 82.984 1040.15 80.904C1039.15 78.824 1038.66 76.392 1038.66 73.608C1038.66 70.792 1039.15 68.36 1040.15 66.312C1041.17 64.232 1042.55 62.648 1044.27 61.56C1046.03 60.44 1048.02 59.88 1050.23 59.88ZM1052.87 67.08C1051.11 67.08 1049.68 67.656 1048.59 68.808C1047.54 69.96 1047.01 71.56 1047.01 73.608C1047.01 75.656 1047.54 77.256 1048.59 78.408C1049.68 79.56 1051.11 80.136 1052.87 80.136C1054.59 80.136 1056 79.544 1057.09 78.36C1058.21 77.176 1058.77 75.592 1058.77 73.608C1058.77 71.592 1058.21 70.008 1057.09 68.856C1056 67.672 1054.59 67.08 1052.87 67.08ZM1095.34 56.568C1094 56.568 1093.02 56.856 1092.42 57.432C1091.81 58.008 1091.47 58.936 1091.41 60.216H1096.26V67.128H1091.41V87H1083.2V67.128H1079.98V60.216H1083.2V59.928C1083.2 56.6 1084.16 54.04 1086.08 52.248C1088.03 50.424 1090.85 49.512 1094.53 49.512C1095.3 49.512 1095.87 49.528 1096.26 49.56V56.616L1095.34 56.568ZM1112.39 59.88C1115.05 59.88 1117.42 60.44 1119.5 61.56C1121.61 62.648 1123.26 64.232 1124.44 66.312C1125.66 68.392 1126.26 70.824 1126.26 73.608C1126.26 76.392 1125.66 78.824 1124.44 80.904C1123.26 82.984 1121.61 84.584 1119.5 85.704C1117.42 86.792 1115.05 87.336 1112.39 87.336C1109.74 87.336 1107.35 86.792 1105.24 85.704C1103.13 84.584 1101.46 82.984 1100.25 80.904C1099.06 78.824 1098.47 76.392 1098.47 73.608C1098.47 70.824 1099.06 68.392 1100.25 66.312C1101.46 64.232 1103.13 62.648 1105.24 61.56C1107.35 60.44 1109.74 59.88 1112.39 59.88ZM1112.39 66.984C1110.82 66.984 1109.5 67.56 1108.41 68.712C1107.35 69.832 1106.82 71.464 1106.82 73.608C1106.82 75.752 1107.35 77.384 1108.41 78.504C1109.5 79.624 1110.82 80.184 1112.39 80.184C1113.96 80.184 1115.27 79.624 1116.33 78.504C1117.38 77.384 1117.91 75.752 1117.91 73.608C1117.91 71.464 1117.38 69.832 1116.33 68.712C1115.27 67.56 1113.96 66.984 1112.39 66.984ZM1138.73 65.256C1139.75 63.624 1141.06 62.328 1142.66 61.368C1144.3 60.408 1146.06 59.928 1147.94 59.928V68.712H1145.59C1143.42 68.712 1141.72 69.176 1140.5 70.104C1139.32 71.032 1138.73 72.6 1138.73 74.808V87H1130.52V60.216H1138.73V65.256ZM263.008 131.88C265.056 131.88 266.816 132.344 268.288 133.272C269.76 134.2 270.832 135.464 271.504 137.064V123.48H279.712V159H271.504V154.152C270.832 155.752 269.76 157.016 268.288 157.944C266.816 158.872 265.056 159.336 263.008 159.336C260.8 159.336 258.816 158.792 257.056 157.704C255.328 156.584 253.952 154.984 252.928 152.904C251.936 150.824 251.44 148.392 251.44 145.608C251.44 142.792 251.936 140.36 252.928 138.312C253.952 136.232 255.328 134.648 257.056 133.56C258.816 132.44 260.8 131.88 263.008 131.88ZM265.648 139.08C263.888 139.08 262.464 139.656 261.376 140.808C260.32 141.96 259.792 143.56 259.792 145.608C259.792 147.656 260.32 149.256 261.376 150.408C262.464 151.56 263.888 152.136 265.648 152.136C267.376 152.136 268.784 151.544 269.872 150.36C270.992 149.176 271.552 147.592 271.552 145.608C271.552 143.592 270.992 142.008 269.872 140.856C268.784 139.672 267.376 139.08 265.648 139.08ZM284.595 124.68C284.595 123.432 285.043 122.408 285.939 121.608C286.835 120.776 288.019 120.36 289.491 120.36C290.963 120.36 292.147 120.776 293.043 121.608C293.939 122.408 294.387 123.432 294.387 124.68C294.387 125.896 293.939 126.92 293.043 127.752C292.147 128.552 290.963 128.952 289.491 128.952C288.019 128.952 286.835 128.552 285.939 127.752C285.043 126.92 284.595 125.896 284.595 124.68ZM293.571 132.216V159H285.363V132.216H293.571ZM309.414 131.88C311.462 131.88 313.222 132.344 314.694 133.272C316.166 134.2 317.254 135.464 317.958 137.064V132.216H326.118V159H317.958V154.152C317.254 155.752 316.166 157.016 314.694 157.944C313.222 158.872 311.462 159.336 309.414 159.336C307.206 159.336 305.222 158.792 303.462 157.704C301.734 156.584 300.358 154.984 299.334 152.904C298.342 150.824 297.846 148.392 297.846 145.608C297.846 142.792 298.342 140.36 299.334 138.312C300.358 136.232 301.734 134.648 303.462 133.56C305.222 132.44 307.206 131.88 309.414 131.88ZM312.054 139.08C310.294 139.08 308.87 139.656 307.782 140.808C306.726 141.96 306.198 143.56 306.198 145.608C306.198 147.656 306.726 149.256 307.782 150.408C308.87 151.56 310.294 152.136 312.054 152.136C313.782 152.136 315.19 151.544 316.278 150.36C317.398 149.176 317.958 147.592 317.958 145.608C317.958 143.592 317.398 142.008 316.278 140.856C315.19 139.672 313.782 139.08 312.054 139.08ZM348.474 131.88C350.682 131.88 352.65 132.44 354.378 133.56C356.138 134.648 357.514 136.232 358.506 138.312C359.53 140.36 360.042 142.792 360.042 145.608C360.042 148.392 359.53 150.824 358.506 152.904C357.514 154.984 356.138 156.584 354.378 157.704C352.65 158.792 350.682 159.336 348.474 159.336C346.426 159.336 344.666 158.872 343.194 157.944C341.722 157.016 340.65 155.752 339.978 154.152V159H331.77V123.48H339.978V137.064C340.65 135.464 341.722 134.2 343.194 133.272C344.666 132.344 346.426 131.88 348.474 131.88ZM345.834 139.08C344.106 139.08 342.682 139.672 341.562 140.856C340.474 142.008 339.93 143.592 339.93 145.608C339.93 147.592 340.474 149.176 341.562 150.36C342.682 151.544 344.106 152.136 345.834 152.136C347.594 152.136 349.002 151.56 350.058 150.408C351.146 149.256 351.69 147.656 351.69 145.608C351.69 143.56 351.146 141.96 350.058 140.808C349.002 139.656 347.594 139.08 345.834 139.08ZM389.741 144.888C389.741 145.56 389.661 146.296 389.501 147.096H370.925C371.021 149.112 371.533 150.568 372.461 151.464C373.389 152.328 374.573 152.76 376.013 152.76C377.229 152.76 378.237 152.456 379.037 151.848C379.837 151.24 380.365 150.456 380.621 149.496H389.309C388.957 151.384 388.189 153.08 387.005 154.584C385.821 156.056 384.317 157.224 382.493 158.088C380.669 158.92 378.637 159.336 376.397 159.336C373.773 159.336 371.437 158.792 369.389 157.704C367.373 156.584 365.789 154.984 364.637 152.904C363.485 150.824 362.909 148.392 362.909 145.608C362.909 142.792 363.469 140.36 364.589 138.312C365.741 136.232 367.341 134.648 369.389 133.56C371.437 132.44 373.773 131.88 376.397 131.88C379.053 131.88 381.389 132.424 383.405 133.512C385.421 134.6 386.973 136.136 388.061 138.12C389.181 140.072 389.741 142.328 389.741 144.888ZM381.437 143.64C381.469 141.88 380.989 140.568 379.997 139.704C379.037 138.808 377.837 138.36 376.397 138.36C374.893 138.36 373.645 138.808 372.653 139.704C371.661 140.6 371.101 141.912 370.973 143.64H381.437ZM409.188 151.944V159H405.492C402.356 159 399.908 158.232 398.148 156.696C396.42 155.128 395.556 152.552 395.556 148.968V139.128H391.956V132.216H395.556V125.64H403.764V132.216H409.14V139.128H403.764V149.112C403.764 150.168 403.972 150.904 404.388 151.32C404.836 151.736 405.572 151.944 406.596 151.944H409.188ZM439.241 144.888C439.241 145.56 439.161 146.296 439.001 147.096H420.425C420.521 149.112 421.033 150.568 421.961 151.464C422.889 152.328 424.073 152.76 425.513 152.76C426.729 152.76 427.737 152.456 428.537 151.848C429.337 151.24 429.865 150.456 430.121 149.496H438.809C438.457 151.384 437.689 153.08 436.505 154.584C435.321 156.056 433.817 157.224 431.993 158.088C430.169 158.92 428.137 159.336 425.897 159.336C423.273 159.336 420.937 158.792 418.889 157.704C416.873 156.584 415.289 154.984 414.137 152.904C412.985 150.824 412.409 148.392 412.409 145.608C412.409 142.792 412.969 140.36 414.089 138.312C415.241 136.232 416.841 134.648 418.889 133.56C420.937 132.44 423.273 131.88 425.897 131.88C428.553 131.88 430.889 132.424 432.905 133.512C434.921 134.6 436.473 136.136 437.561 138.12C438.681 140.072 439.241 142.328 439.241 144.888ZM430.937 143.64C430.969 141.88 430.489 140.568 429.497 139.704C428.537 138.808 427.337 138.36 425.897 138.36C424.393 138.36 423.145 138.808 422.153 139.704C421.161 140.6 420.601 141.912 420.473 143.64H430.937ZM453.264 131.88C456.656 131.88 459.36 132.728 461.376 134.424C463.424 136.12 464.704 138.36 465.216 141.144H457.536C457.312 140.056 456.8 139.208 456 138.6C455.232 137.96 454.256 137.64 453.072 137.64C452.144 137.64 451.44 137.848 450.96 138.264C450.48 138.648 450.24 139.208 450.24 139.944C450.24 140.776 450.672 141.4 451.536 141.816C452.432 142.232 453.824 142.648 455.712 143.064C457.76 143.544 459.44 144.04 460.752 144.552C462.064 145.032 463.2 145.832 464.16 146.952C465.12 148.072 465.6 149.576 465.6 151.464C465.6 153 465.184 154.36 464.352 155.544C463.52 156.728 462.32 157.656 460.752 158.328C459.184 159 457.328 159.336 455.184 159.336C451.568 159.336 448.672 158.536 446.496 156.936C444.32 155.336 442.992 153.048 442.512 150.072H450.432C450.56 151.224 451.04 152.104 451.872 152.712C452.736 153.32 453.84 153.624 455.184 153.624C456.112 153.624 456.816 153.416 457.296 153C457.776 152.552 458.016 151.976 458.016 151.272C458.016 150.344 457.568 149.688 456.672 149.304C455.808 148.888 454.384 148.456 452.4 148.008C450.416 147.592 448.784 147.144 447.504 146.664C446.224 146.184 445.12 145.416 444.192 144.36C443.264 143.272 442.8 141.8 442.8 139.944C442.8 137.544 443.712 135.608 445.536 134.136C447.36 132.632 449.936 131.88 453.264 131.88Z" fill="white"/>
<path d="M533.656 788.136C534.016 786.12 534.736 784.356 535.816 782.844C536.896 781.308 538.216 780.132 539.776 779.316C541.36 778.476 543.052 778.056 544.852 778.056C546.724 778.056 548.26 778.488 549.46 779.352C550.66 780.216 551.44 781.32 551.8 782.664L552.556 778.344H555.076L551.62 798H549.1L549.856 793.644C549.04 794.988 547.864 796.104 546.328 796.992C544.816 797.856 543.124 798.288 541.252 798.288C539.692 798.288 538.324 797.964 537.148 797.316C535.972 796.668 535.06 795.756 534.412 794.58C533.764 793.38 533.44 791.976 533.44 790.368C533.44 789.672 533.512 788.928 533.656 788.136ZM550.828 788.172C550.948 787.5 551.008 786.9 551.008 786.372C551.008 784.5 550.444 783.012 549.316 781.908C548.188 780.804 546.724 780.252 544.924 780.252C543.532 780.252 542.224 780.564 541 781.188C539.8 781.812 538.78 782.724 537.94 783.924C537.1 785.1 536.536 786.504 536.248 788.136C536.128 788.856 536.068 789.468 536.068 789.972C536.068 791.868 536.62 793.368 537.724 794.472C538.852 795.552 540.316 796.092 542.116 796.092C543.46 796.092 544.744 795.768 545.968 795.12C547.216 794.472 548.26 793.548 549.1 792.348C549.964 791.148 550.54 789.756 550.828 788.172ZM557.949 788.172C558.309 786.132 559.029 784.356 560.109 782.844C561.213 781.308 562.557 780.132 564.141 779.316C565.725 778.476 567.441 778.056 569.289 778.056C571.713 778.056 573.597 778.656 574.941 779.856C576.309 781.056 577.041 782.688 577.137 784.752H574.437C574.365 783.336 573.837 782.232 572.853 781.44C571.893 780.624 570.585 780.216 568.929 780.216C566.889 780.216 565.089 780.912 563.529 782.304C561.993 783.672 560.997 785.628 560.541 788.172C560.421 788.772 560.361 789.456 560.361 790.224C560.361 792.144 560.877 793.62 561.909 794.652C562.965 795.66 564.357 796.164 566.085 796.164C567.765 796.164 569.229 795.768 570.477 794.976C571.725 794.16 572.649 793.032 573.249 791.592H575.949C575.133 793.608 573.825 795.228 572.025 796.452C570.225 797.676 568.125 798.288 565.725 798.288C563.301 798.288 561.357 797.592 559.893 796.2C558.453 794.808 557.733 792.9 557.733 790.476C557.733 789.732 557.805 788.964 557.949 788.172ZM580.027 788.172C580.387 786.132 581.107 784.356 582.187 782.844C583.291 781.308 584.635 780.132 586.219 779.316C587.803 778.476 589.519 778.056 591.367 778.056C593.791 778.056 595.675 778.656 597.019 779.856C598.387 781.056 599.119 782.688 599.215 784.752H596.515C596.443 783.336 595.915 782.232 594.931 781.44C593.971 780.624 592.663 780.216 591.007 780.216C588.967 780.216 587.167 780.912 585.607 782.304C584.071 783.672 583.075 785.628 582.619 788.172C582.499 788.772 582.439 789.456 582.439 790.224C582.439 792.144 582.955 793.62 583.987 794.652C585.043 795.66 586.435 796.164 588.163 796.164C589.843 796.164 591.307 795.768 592.555 794.976C593.803 794.16 594.727 793.032 595.327 791.592H598.027C597.211 793.608 595.903 795.228 594.103 796.452C592.303 797.676 590.203 798.288 587.803 798.288C585.379 798.288 583.435 797.592 581.971 796.2C580.531 794.808 579.811 792.9 579.811 790.476C579.811 789.732 579.883 788.964 580.027 788.172ZM610.169 798.288C608.537 798.288 607.097 797.964 605.849 797.316C604.601 796.644 603.629 795.708 602.933 794.508C602.261 793.284 601.925 791.856 601.925 790.224C601.925 788.016 602.429 785.988 603.437 784.14C604.445 782.268 605.849 780.792 607.649 779.712C609.449 778.608 611.453 778.056 613.661 778.056C615.293 778.056 616.733 778.392 617.981 779.064C619.229 779.712 620.201 780.648 620.897 781.872C621.593 783.072 621.941 784.488 621.941 786.12C621.941 788.352 621.425 790.392 620.393 792.24C619.361 794.088 617.945 795.564 616.145 796.668C614.369 797.748 612.377 798.288 610.169 798.288ZM610.457 796.164C612.161 796.164 613.685 795.708 615.029 794.796C616.397 793.884 617.453 792.672 618.197 791.16C618.965 789.648 619.349 788.016 619.349 786.264C619.349 784.296 618.773 782.796 617.621 781.764C616.493 780.732 615.053 780.216 613.301 780.216C611.597 780.216 610.073 780.672 608.729 781.584C607.409 782.496 606.377 783.708 605.633 785.22C604.889 786.732 604.517 788.364 604.517 790.116C604.517 792.06 605.081 793.56 606.209 794.616C607.337 795.648 608.753 796.164 610.457 796.164ZM629.919 782.268C630.711 780.9 631.743 779.844 633.015 779.1C634.287 778.356 635.763 777.984 637.443 777.984L636.975 780.612H636.255C634.527 780.612 633.039 781.056 631.791 781.944C630.543 782.832 629.679 784.296 629.199 786.336L627.147 798H624.627L628.083 778.344H630.603L629.919 782.268ZM638.246 788.136C638.606 786.12 639.326 784.356 640.406 782.844C641.486 781.308 642.818 780.132 644.402 779.316C645.986 778.476 647.678 778.056 649.478 778.056C651.206 778.056 652.682 778.476 653.906 779.316C655.154 780.156 655.994 781.248 656.426 782.592L658.406 771.36H660.926L656.21 798H653.69L654.482 793.608C653.618 794.976 652.43 796.104 650.918 796.992C649.406 797.856 647.726 798.288 645.878 798.288C643.502 798.288 641.594 797.58 640.154 796.164C638.738 794.724 638.03 792.792 638.03 790.368C638.03 789.672 638.102 788.928 638.246 788.136ZM655.418 788.172C655.538 787.5 655.598 786.9 655.598 786.372C655.598 784.5 655.034 783.012 653.906 781.908C652.778 780.804 651.314 780.252 649.514 780.252C648.122 780.252 646.814 780.564 645.59 781.188C644.39 781.812 643.37 782.724 642.53 783.924C641.69 785.1 641.126 786.504 640.838 788.136C640.718 788.856 640.658 789.468 640.658 789.972C640.658 791.868 641.21 793.368 642.314 794.472C643.442 795.552 644.906 796.092 646.706 796.092C648.05 796.092 649.334 795.768 650.558 795.12C651.806 794.472 652.85 793.548 653.69 792.348C654.554 791.148 655.13 789.756 655.418 788.172ZM667.363 774.636C666.907 774.636 666.535 774.504 666.247 774.24C665.959 773.952 665.815 773.58 665.815 773.124C665.815 772.5 666.031 771.984 666.463 771.576C666.895 771.144 667.411 770.928 668.011 770.928C668.467 770.928 668.827 771.06 669.091 771.324C669.379 771.588 669.523 771.936 669.523 772.368C669.523 772.992 669.307 773.532 668.875 773.988C668.443 774.42 667.939 774.636 667.363 774.636ZM667.939 778.344L664.483 798H661.963L665.419 778.344H667.939ZM682.969 777.984C684.985 777.984 686.593 778.536 687.793 779.64C689.017 780.72 689.629 782.304 689.629 784.392C689.629 785.16 689.569 785.856 689.449 786.48L687.397 798H684.913L686.893 786.768C686.989 786.216 687.037 785.628 687.037 785.004C687.037 783.42 686.605 782.22 685.741 781.404C684.877 780.588 683.665 780.18 682.105 780.18C680.209 780.18 678.589 780.78 677.245 781.98C675.901 783.18 675.025 784.944 674.617 787.272V787.164L672.709 798H670.189L673.645 778.344H676.165L675.553 781.728C676.393 780.528 677.461 779.604 678.757 778.956C680.053 778.308 681.457 777.984 682.969 777.984ZM704.743 778.056C706.591 778.056 708.115 778.488 709.315 779.352C710.539 780.216 711.331 781.308 711.691 782.628L712.447 778.344H714.967L711.439 798.504C711.127 800.304 710.455 801.9 709.423 803.292C708.415 804.684 707.143 805.752 705.607 806.496C704.071 807.264 702.415 807.648 700.639 807.648C698.119 807.648 696.127 807.048 694.663 805.848C693.223 804.648 692.479 803.016 692.431 800.952H694.915C695.107 802.32 695.731 803.412 696.787 804.228C697.843 805.044 699.259 805.452 701.035 805.452C702.979 805.452 704.683 804.828 706.147 803.58C707.611 802.356 708.535 800.664 708.919 798.504L709.747 793.644C708.931 794.988 707.755 796.104 706.219 796.992C704.707 797.856 703.027 798.288 701.179 798.288C698.803 798.288 696.895 797.58 695.455 796.164C694.039 794.724 693.331 792.792 693.331 790.368C693.331 789.672 693.403 788.928 693.547 788.136C693.907 786.12 694.627 784.356 695.707 782.844C696.787 781.308 698.107 780.132 699.667 779.316C701.251 778.476 702.943 778.056 704.743 778.056ZM710.719 788.172C710.839 787.5 710.899 786.9 710.899 786.372C710.899 784.5 710.335 783.012 709.207 781.908C708.079 780.804 706.615 780.252 704.815 780.252C703.423 780.252 702.115 780.564 700.891 781.188C699.691 781.812 698.671 782.724 697.831 783.924C696.991 785.1 696.427 786.504 696.139 788.136C696.019 788.856 695.959 789.468 695.959 789.972C695.959 791.868 696.511 793.368 697.615 794.472C698.743 795.552 700.207 796.092 702.007 796.092C703.351 796.092 704.635 795.768 705.859 795.12C707.107 794.472 708.151 793.548 708.991 792.348C709.855 791.148 710.431 789.756 710.719 788.172ZM732.057 792.672C731.985 793.104 731.949 793.476 731.949 793.788C731.949 794.556 732.153 795.096 732.561 795.408C732.993 795.696 733.689 795.84 734.649 795.84H736.953L736.557 798H733.857C732.369 798 731.253 797.712 730.509 797.136C729.765 796.56 729.393 795.612 729.393 794.292C729.393 793.764 729.441 793.224 729.537 792.672L731.697 780.468H728.961L729.357 778.344H732.093L732.957 773.412H735.477L734.613 778.344H740.049L739.653 780.468H734.217L732.057 792.672ZM749.353 798.288C747.721 798.288 746.281 797.964 745.033 797.316C743.785 796.644 742.813 795.708 742.117 794.508C741.445 793.284 741.109 791.856 741.109 790.224C741.109 788.016 741.613 785.988 742.621 784.14C743.629 782.268 745.033 780.792 746.833 779.712C748.633 778.608 750.637 778.056 752.845 778.056C754.477 778.056 755.917 778.392 757.165 779.064C758.413 779.712 759.385 780.648 760.081 781.872C760.777 783.072 761.125 784.488 761.125 786.12C761.125 788.352 760.609 790.392 759.577 792.24C758.545 794.088 757.129 795.564 755.329 796.668C753.553 797.748 751.561 798.288 749.353 798.288ZM749.641 796.164C751.345 796.164 752.869 795.708 754.213 794.796C755.581 793.884 756.637 792.672 757.381 791.16C758.149 789.648 758.533 788.016 758.533 786.264C758.533 784.296 757.957 782.796 756.805 781.764C755.677 780.732 754.237 780.216 752.485 780.216C750.781 780.216 749.257 780.672 747.913 781.584C746.593 782.496 745.561 783.708 744.817 785.22C744.073 786.732 743.701 788.364 743.701 790.116C743.701 792.06 744.265 793.56 745.393 794.616C746.521 795.648 747.937 796.164 749.641 796.164ZM779.648 782.664C780.464 781.344 781.628 780.252 783.14 779.388C784.676 778.5 786.368 778.056 788.216 778.056C790.592 778.056 792.488 778.764 793.904 780.18C795.344 781.572 796.064 783.48 796.064 785.904C796.064 786.6 795.992 787.344 795.848 788.136C795.488 790.152 794.768 791.928 793.688 793.464C792.608 795 791.276 796.188 789.692 797.028C788.132 797.868 786.452 798.288 784.652 798.288C782.804 798.288 781.28 797.856 780.08 796.992C778.88 796.104 778.076 795 777.668 793.68L775.292 807.288H772.772L777.884 778.344H780.404L779.648 782.664ZM793.292 788.136C793.412 787.416 793.472 786.804 793.472 786.3C793.472 784.404 792.908 782.928 791.78 781.872C790.676 780.792 789.212 780.252 787.388 780.252C786.044 780.252 784.76 780.576 783.536 781.224C782.312 781.872 781.268 782.796 780.404 783.996C779.54 785.196 778.964 786.588 778.676 788.172C778.556 788.844 778.496 789.444 778.496 789.972C778.496 791.844 779.06 793.332 780.188 794.436C781.316 795.54 782.78 796.092 784.58 796.092C785.972 796.092 787.268 795.78 788.468 795.156C789.692 794.508 790.724 793.584 791.564 792.384C792.428 791.16 793.004 789.744 793.292 788.136ZM804.013 782.268C804.805 780.9 805.837 779.844 807.109 779.1C808.381 778.356 809.857 777.984 811.537 777.984L811.069 780.612H810.349C808.621 780.612 807.133 781.056 805.885 781.944C804.637 782.832 803.773 784.296 803.293 786.336L801.241 798H798.721L802.177 778.344H804.697L804.013 782.268ZM820.404 798.288C818.772 798.288 817.332 797.964 816.084 797.316C814.836 796.644 813.864 795.708 813.168 794.508C812.496 793.284 812.16 791.856 812.16 790.224C812.16 788.016 812.664 785.988 813.672 784.14C814.68 782.268 816.084 780.792 817.884 779.712C819.684 778.608 821.688 778.056 823.896 778.056C825.528 778.056 826.968 778.392 828.216 779.064C829.464 779.712 830.436 780.648 831.132 781.872C831.828 783.072 832.176 784.488 832.176 786.12C832.176 788.352 831.66 790.392 830.628 792.24C829.596 794.088 828.18 795.564 826.38 796.668C824.604 797.748 822.612 798.288 820.404 798.288ZM820.692 796.164C822.396 796.164 823.92 795.708 825.264 794.796C826.632 793.884 827.688 792.672 828.432 791.16C829.2 789.648 829.584 788.016 829.584 786.264C829.584 784.296 829.008 782.796 827.856 781.764C826.728 780.732 825.288 780.216 823.536 780.216C821.832 780.216 820.308 780.672 818.964 781.584C817.644 782.496 816.612 783.708 815.868 785.22C815.124 786.732 814.752 788.364 814.752 790.116C814.752 792.06 815.316 793.56 816.444 794.616C817.572 795.648 818.988 796.164 820.692 796.164ZM840.405 774.636C839.949 774.636 839.577 774.504 839.289 774.24C839.025 773.952 838.893 773.58 838.893 773.124C838.893 772.5 839.109 771.984 839.541 771.576C839.973 771.144 840.477 770.928 841.053 770.928C841.509 770.928 841.881 771.072 842.169 771.36C842.457 771.624 842.601 771.984 842.601 772.44C842.601 773.04 842.373 773.556 841.917 773.988C841.485 774.42 840.981 774.636 840.405 774.636ZM836.733 802.644C836.469 804.228 835.869 805.392 834.933 806.136C833.997 806.904 832.725 807.288 831.117 807.288H829.389L829.785 805.128H831.117C832.053 805.128 832.761 804.924 833.241 804.516C833.721 804.132 834.045 803.472 834.213 802.536L838.497 778.344H841.017L836.733 802.644ZM855.323 778.056C856.979 778.056 858.395 778.38 859.571 779.028C860.747 779.652 861.635 780.516 862.235 781.62C862.859 782.724 863.171 783.984 863.171 785.4C863.171 786.048 863.123 786.624 863.027 787.128C862.883 787.848 862.739 788.496 862.595 789.072H846.287C846.215 789.528 846.179 789.96 846.179 790.368C846.179 792.216 846.731 793.644 847.835 794.652C848.963 795.66 850.391 796.164 852.119 796.164C853.775 796.164 855.227 795.768 856.475 794.976C857.723 794.184 858.635 793.116 859.211 791.772H861.911C861.095 793.692 859.787 795.264 857.987 796.488C856.211 797.688 854.135 798.288 851.759 798.288C849.311 798.288 847.343 797.592 845.855 796.2C844.391 794.784 843.659 792.864 843.659 790.44C843.659 789.72 843.731 788.964 843.875 788.172C844.235 786.132 844.955 784.344 846.035 782.808C847.139 781.272 848.495 780.096 850.103 779.28C851.711 778.464 853.451 778.056 855.323 778.056ZM860.435 787.2C860.555 786.528 860.615 785.964 860.615 785.508C860.615 783.804 860.075 782.496 858.995 781.584C857.915 780.672 856.535 780.216 854.855 780.216C853.631 780.216 852.455 780.48 851.327 781.008C850.199 781.536 849.215 782.328 848.375 783.384C847.535 784.44 846.959 785.712 846.647 787.2H860.435ZM866.269 788.172C866.629 786.132 867.349 784.356 868.429 782.844C869.533 781.308 870.877 780.132 872.461 779.316C874.045 778.476 875.761 778.056 877.609 778.056C880.033 778.056 881.917 778.656 883.261 779.856C884.629 781.056 885.361 782.688 885.457 784.752H882.757C882.685 783.336 882.157 782.232 881.173 781.44C880.213 780.624 878.905 780.216 877.249 780.216C875.209 780.216 873.409 780.912 871.849 782.304C870.313 783.672 869.317 785.628 868.861 788.172C868.741 788.772 868.681 789.456 868.681 790.224C868.681 792.144 869.197 793.62 870.229 794.652C871.285 795.66 872.677 796.164 874.405 796.164C876.085 796.164 877.549 795.768 878.797 794.976C880.045 794.16 880.969 793.032 881.569 791.592H884.269C883.453 793.608 882.145 795.228 880.345 796.452C878.545 797.676 876.445 798.288 874.045 798.288C871.621 798.288 869.677 797.592 868.213 796.2C866.773 794.808 866.053 792.9 866.053 790.476C866.053 789.732 866.125 788.964 866.269 788.172ZM891.947 792.672C891.875 793.104 891.839 793.476 891.839 793.788C891.839 794.556 892.043 795.096 892.451 795.408C892.883 795.696 893.579 795.84 894.539 795.84H896.843L896.447 798H893.747C892.259 798 891.143 797.712 890.399 797.136C889.655 796.56 889.283 795.612 889.283 794.292C889.283 793.764 889.331 793.224 889.427 792.672L891.587 780.468H888.851L889.247 778.344H891.983L892.847 773.412H895.367L894.503 778.344H899.939L899.543 780.468H894.107L891.947 792.672ZM906.003 774.636C905.547 774.636 905.175 774.504 904.887 774.24C904.599 773.952 904.455 773.58 904.455 773.124C904.455 772.5 904.671 771.984 905.103 771.576C905.535 771.144 906.051 770.928 906.651 770.928C907.107 770.928 907.467 771.06 907.731 771.324C908.019 771.588 908.163 771.936 908.163 772.368C908.163 772.992 907.947 773.532 907.515 773.988C907.083 774.42 906.579 774.636 906.003 774.636ZM906.579 778.344L903.123 798H900.603L904.059 778.344H906.579ZM917.47 798.288C915.838 798.288 914.398 797.964 913.15 797.316C911.902 796.644 910.93 795.708 910.234 794.508C909.562 793.284 909.226 791.856 909.226 790.224C909.226 788.016 909.73 785.988 910.738 784.14C911.746 782.268 913.15 780.792 914.95 779.712C916.75 778.608 918.754 778.056 920.962 778.056C922.594 778.056 924.034 778.392 925.282 779.064C926.53 779.712 927.502 780.648 928.198 781.872C928.894 783.072 929.242 784.488 929.242 786.12C929.242 788.352 928.726 790.392 927.694 792.24C926.662 794.088 925.246 795.564 923.446 796.668C921.67 797.748 919.678 798.288 917.47 798.288ZM917.758 796.164C919.462 796.164 920.986 795.708 922.33 794.796C923.698 793.884 924.754 792.672 925.498 791.16C926.266 789.648 926.65 788.016 926.65 786.264C926.65 784.296 926.074 782.796 924.922 781.764C923.794 780.732 922.354 780.216 920.602 780.216C918.898 780.216 917.374 780.672 916.03 781.584C914.71 782.496 913.678 783.708 912.934 785.22C912.19 786.732 911.818 788.364 911.818 790.116C911.818 792.06 912.382 793.56 913.51 794.616C914.638 795.648 916.054 796.164 917.758 796.164ZM944.708 777.984C946.724 777.984 948.332 778.536 949.532 779.64C950.756 780.72 951.368 782.304 951.368 784.392C951.368 785.16 951.308 785.856 951.188 786.48L949.136 798H946.652L948.632 786.768C948.728 786.216 948.776 785.628 948.776 785.004C948.776 783.42 948.344 782.22 947.48 781.404C946.616 780.588 945.404 780.18 943.844 780.18C941.948 780.18 940.328 780.78 938.984 781.98C937.64 783.18 936.764 784.944 936.356 787.272V787.164L934.448 798H931.928L935.384 778.344H937.904L937.292 781.728C938.132 780.528 939.2 779.604 940.496 778.956C941.792 778.308 943.196 777.984 944.708 777.984ZM961.261 798.288C959.269 798.288 957.649 797.832 956.401 796.92C955.153 795.984 954.529 794.712 954.529 793.104C954.529 792.816 954.541 792.6 954.565 792.456H957.013C956.917 793.608 957.253 794.532 958.021 795.228C958.789 795.924 959.917 796.272 961.405 796.272C962.917 796.272 964.129 795.96 965.041 795.336C965.953 794.688 966.409 793.836 966.409 792.78C966.409 792.156 966.217 791.628 965.833 791.196C965.449 790.764 964.969 790.416 964.393 790.152C963.841 789.864 963.061 789.54 962.053 789.18C960.805 788.724 959.797 788.304 959.029 787.92C958.285 787.512 957.637 786.96 957.085 786.264C956.557 785.544 956.293 784.644 956.293 783.564C956.293 782.484 956.605 781.524 957.229 780.684C957.853 779.844 958.705 779.196 959.785 778.74C960.889 778.284 962.137 778.056 963.529 778.056C965.473 778.056 967.057 778.536 968.281 779.496C969.529 780.456 970.153 781.728 970.153 783.312C970.153 783.648 970.141 783.9 970.117 784.068H967.741C967.765 783.972 967.777 783.816 967.777 783.6C967.777 782.544 967.357 781.692 966.517 781.044C965.701 780.396 964.645 780.072 963.349 780.072C962.053 780.072 960.973 780.384 960.109 781.008C959.269 781.608 958.849 782.424 958.849 783.456C958.849 784.152 959.053 784.74 959.461 785.22C959.869 785.676 960.373 786.048 960.973 786.336C961.573 786.624 962.377 786.96 963.385 787.344C964.585 787.8 965.545 788.22 966.265 788.604C967.009 788.988 967.633 789.516 968.137 790.188C968.641 790.86 968.893 791.7 968.893 792.708C968.893 794.412 968.185 795.768 966.769 796.776C965.353 797.784 963.517 798.288 961.261 798.288Z" fill="white"/>
<line x1="463" y1="183" x2="463" y2="789" stroke="#D7D7D7" stroke-width="2"/>
<circle cx="462" cy="268" r="42" fill="#174570" stroke="#D5D5D5" stroke-width="9"/>
<circle cx="462" cy="473" r="42" fill="#174570" stroke="#D5D5D5" stroke-width="9"/>
<circle cx="462" cy="701" r="42" fill="#174570" stroke="#D5D5D5" stroke-width="9"/>
<path d="M4.11091 436.111C1.96303 438.259 1.96303 441.741 4.11091 443.889L39.1127 478.891C41.2606 481.039 44.743 481.039 46.8909 478.891C49.0388 476.743 49.0388 473.261 46.8909 471.113L15.7782 440L46.8909 408.887C49.0388 406.739 49.0388 403.257 46.8909 401.109C44.743 398.961 41.2606 398.961 39.1127 401.109L4.11091 436.111ZM198 434.5L8 434.5V445.5L198 445.5V434.5Z" fill="#FF4D00"/>
</g>
<defs>
<clipPath id="clip0">
<rect width="1197" height="884" fill="white"/>
</clipPath>
</defs>
</svg>
