<svg width="1880" height="771" viewBox="0 0 1880 771" fill="none" xmlns="http://www.w3.org/2000/svg">
<rect x="6.5" y="6.5" width="1867" height="758" fill="#22313F"/>
<circle cx="195.5" cy="409.5" r="118.5" fill="#1E90FF"/>
<circle cx="698.5" cy="409.5" r="118.5" fill="#FF6384"/>
<path d="M139.966 430.685H132.231V444H118.96V430.685H91.5381V421.236L119.707 379.752H132.231V420.138H139.966V430.685ZM118.96 420.138V409.239C118.96 407.423 119.033 404.786 119.18 401.329C119.326 397.872 119.443 395.865 119.531 395.309H119.18C118.096 397.711 116.792 400.055 115.269 402.34L103.491 420.138H118.96ZM161.587 434.552C160.063 440.47 157.485 447.486 153.853 455.602H144.185C146.089 447.809 147.568 440.455 148.623 433.541H160.928L161.587 434.552ZM194.502 402.955C200.713 402.955 205.649 404.698 209.312 408.185C213.003 411.671 214.849 416.446 214.849 422.511C214.849 429.688 212.637 435.211 208.213 439.078C203.789 442.945 197.461 444.879 189.229 444.879C182.08 444.879 176.309 443.722 171.914 441.407V429.674C174.229 430.904 176.924 431.915 180 432.706C183.076 433.468 185.991 433.849 188.745 433.849C197.036 433.849 201.182 430.45 201.182 423.653C201.182 417.179 196.89 413.941 188.306 413.941C186.753 413.941 185.039 414.103 183.164 414.425C181.289 414.718 179.766 415.04 178.594 415.392L173.188 412.491L175.605 379.752H210.454V391.266H187.515L186.328 403.878L187.866 403.57C189.653 403.16 191.865 402.955 194.502 402.955ZM232.778 399C232.778 402.721 233.101 405.504 233.745 407.35C234.419 409.166 235.488 410.074 236.953 410.074C239.766 410.074 241.172 406.383 241.172 399C241.172 391.676 239.766 388.014 236.953 388.014C235.488 388.014 234.419 388.922 233.745 390.738C233.101 392.525 232.778 395.279 232.778 399ZM252.246 398.912C252.246 405.65 250.942 410.719 248.335 414.117C245.728 417.486 241.904 419.171 236.865 419.171C232.031 419.171 228.296 417.442 225.659 413.985C223.022 410.499 221.704 405.475 221.704 398.912C221.704 385.523 226.758 378.829 236.865 378.829C241.816 378.829 245.61 380.572 248.247 384.059C250.913 387.516 252.246 392.467 252.246 398.912ZM282.48 379.752L246.841 444H236.294L271.934 379.752H282.48ZM277.778 424.664C277.778 428.385 278.101 431.168 278.745 433.014C279.419 434.83 280.488 435.738 281.953 435.738C284.766 435.738 286.172 432.047 286.172 424.664C286.172 417.34 284.766 413.678 281.953 413.678C280.488 413.678 279.419 414.586 278.745 416.402C278.101 418.189 277.778 420.943 277.778 424.664ZM297.246 424.576C297.246 431.285 295.942 436.339 293.335 439.737C290.728 443.106 286.904 444.791 281.865 444.791C277.031 444.791 273.296 443.062 270.659 439.605C268.022 436.119 266.704 431.109 266.704 424.576C266.704 411.188 271.758 404.493 281.865 404.493C286.816 404.493 290.61 406.236 293.247 409.723C295.913 413.18 297.246 418.131 297.246 424.576Z" fill="white"/>
<path d="M645.011 394.122C645.011 398.136 643.795 401.549 641.363 404.361C638.932 407.174 635.519 409.107 631.124 410.162V410.426C636.31 411.07 640.235 412.652 642.901 415.172C645.567 417.662 646.9 421.031 646.9 425.279C646.9 431.461 644.659 436.28 640.177 439.737C635.694 443.165 629.293 444.879 620.973 444.879C614 444.879 607.818 443.722 602.428 441.407V429.85C604.918 431.109 607.657 432.135 610.646 432.926C613.634 433.717 616.593 434.112 619.522 434.112C624.005 434.112 627.315 433.351 629.454 431.827C631.593 430.304 632.662 427.857 632.662 424.488C632.662 421.471 631.432 419.332 628.971 418.072C626.51 416.812 622.584 416.183 617.193 416.183H612.315V405.768H617.281C622.262 405.768 625.895 405.123 628.18 403.834C630.494 402.516 631.651 400.274 631.651 397.11C631.651 392.247 628.604 389.815 622.511 389.815C620.401 389.815 618.248 390.167 616.051 390.87C613.883 391.573 611.466 392.789 608.8 394.518L602.516 385.157C608.375 380.938 615.362 378.829 623.478 378.829C630.128 378.829 635.372 380.177 639.21 382.872C643.077 385.567 645.011 389.317 645.011 394.122ZM670.587 434.552C669.063 440.47 666.485 447.486 662.853 455.602H653.185C655.089 447.809 656.568 440.455 657.623 433.541H669.928L670.587 434.552ZM722.53 394.122C722.53 398.136 721.314 401.549 718.883 404.361C716.451 407.174 713.038 409.107 708.644 410.162V410.426C713.829 411.07 717.755 412.652 720.421 415.172C723.087 417.662 724.42 421.031 724.42 425.279C724.42 431.461 722.179 436.28 717.696 439.737C713.214 443.165 706.812 444.879 698.492 444.879C691.52 444.879 685.338 443.722 679.947 441.407V429.85C682.438 431.109 685.177 432.135 688.165 432.926C691.153 433.717 694.112 434.112 697.042 434.112C701.524 434.112 704.835 433.351 706.974 431.827C709.112 430.304 710.182 427.857 710.182 424.488C710.182 421.471 708.951 419.332 706.49 418.072C704.029 416.812 700.104 416.183 694.713 416.183H689.835V405.768H694.801C699.781 405.768 703.414 405.123 705.699 403.834C708.014 402.516 709.171 400.274 709.171 397.11C709.171 392.247 706.124 389.815 700.03 389.815C697.921 389.815 695.768 390.167 693.57 390.87C691.402 391.573 688.985 392.789 686.319 394.518L680.035 385.157C685.895 380.938 692.882 378.829 700.997 378.829C707.647 378.829 712.892 380.177 716.729 382.872C720.597 385.567 722.53 389.317 722.53 394.122ZM741.778 399C741.778 402.721 742.101 405.504 742.745 407.35C743.419 409.166 744.488 410.074 745.953 410.074C748.766 410.074 750.172 406.383 750.172 399C750.172 391.676 748.766 388.014 745.953 388.014C744.488 388.014 743.419 388.922 742.745 390.738C742.101 392.525 741.778 395.279 741.778 399ZM761.246 398.912C761.246 405.65 759.942 410.719 757.335 414.117C754.728 417.486 750.904 419.171 745.865 419.171C741.031 419.171 737.296 417.442 734.659 413.985C732.022 410.499 730.704 405.475 730.704 398.912C730.704 385.523 735.758 378.829 745.865 378.829C750.816 378.829 754.61 380.572 757.247 384.059C759.913 387.516 761.246 392.467 761.246 398.912ZM791.48 379.752L755.841 444H745.294L780.934 379.752H791.48ZM786.778 424.664C786.778 428.385 787.101 431.168 787.745 433.014C788.419 434.83 789.488 435.738 790.953 435.738C793.766 435.738 795.172 432.047 795.172 424.664C795.172 417.34 793.766 413.678 790.953 413.678C789.488 413.678 788.419 414.586 787.745 416.402C787.101 418.189 786.778 420.943 786.778 424.664ZM806.246 424.576C806.246 431.285 804.942 436.339 802.335 439.737C799.728 443.106 795.904 444.791 790.865 444.791C786.031 444.791 782.296 443.062 779.659 439.605C777.022 436.119 775.704 431.109 775.704 424.576C775.704 411.188 780.758 404.493 790.865 404.493C795.816 404.493 799.61 406.236 802.247 409.723C804.913 413.18 806.246 418.131 806.246 424.576Z" fill="white"/>
<path d="M67.32 584.64C70.48 584.64 73.3 585.32 75.78 586.68C78.3 588.04 80.26 590 81.66 592.56C83.1 595.12 83.82 598.12 83.82 601.56C83.82 605 83.1 608 81.66 610.56C80.26 613.08 78.3 615.02 75.78 616.38C73.3 617.74 70.48 618.42 67.32 618.42C64.16 618.42 61.32 617.74 58.8 616.38C56.32 615.02 54.36 613.08 52.92 610.56C51.48 608 50.76 605 50.76 601.56C50.76 598.12 51.48 595.12 52.92 592.56C54.36 590 56.32 588.04 58.8 586.68C61.32 585.32 64.16 584.64 67.32 584.64ZM67.32 589.44C65.36 589.44 63.54 589.88 61.86 590.76C60.22 591.64 58.88 593 57.84 594.84C56.84 596.64 56.34 598.88 56.34 601.56C56.34 604.2 56.84 606.44 57.84 608.28C58.88 610.08 60.22 611.42 61.86 612.3C63.54 613.18 65.36 613.62 67.32 613.62C69.28 613.62 71.08 613.18 72.72 612.3C74.4 611.42 75.74 610.08 76.74 608.28C77.78 606.44 78.3 604.2 78.3 601.56C78.3 598.88 77.78 596.64 76.74 594.84C75.74 593 74.4 591.64 72.72 590.76C71.08 589.88 69.28 589.44 67.32 589.44ZM105.515 577.26C102.595 577.22 100.555 577.72 99.3947 578.76C98.2747 579.8 97.7147 581.6 97.7147 584.16V585.06H105.515V589.86H97.7147V618H92.2547V589.86H87.5147V585.06H92.2547V583.74C92.2547 575.86 96.6747 572.1 105.515 572.46V577.26ZM139.767 584.64C142.967 584.64 145.667 585.44 147.867 587.04C150.107 588.64 151.667 590.78 152.547 593.46V585.06H158.007V618H152.547V609.6C151.667 612.28 150.107 614.42 147.867 616.02C145.667 617.62 142.967 618.42 139.767 618.42C136.847 618.42 134.247 617.74 131.967 616.38C129.687 615.02 127.887 613.08 126.567 610.56C125.287 608 124.647 605 124.647 601.56C124.647 598.12 125.287 595.12 126.567 592.56C127.887 590 129.687 588.04 131.967 586.68C134.247 585.32 136.847 584.64 139.767 584.64ZM141.327 589.5C137.967 589.5 135.267 590.58 133.227 592.74C131.227 594.86 130.227 597.8 130.227 601.56C130.227 605.32 131.227 608.28 133.227 610.44C135.267 612.56 137.967 613.62 141.327 613.62C143.487 613.62 145.407 613.12 147.087 612.12C148.807 611.12 150.147 609.72 151.107 607.92C152.067 606.08 152.547 603.96 152.547 601.56C152.547 599.16 152.067 597.04 151.107 595.2C150.147 593.36 148.807 591.96 147.087 591C145.407 590 143.487 589.5 141.327 589.5ZM172.156 573.6V618H166.696V573.6H172.156ZM186.395 573.6V618H180.935V573.6H186.395ZM250.497 584.52C254.337 584.52 257.417 585.76 259.737 588.24C262.097 590.68 263.277 594.22 263.277 598.86V618H257.817V599.34C257.817 596.1 257.017 593.62 255.417 591.9C253.857 590.18 251.697 589.32 248.937 589.32C246.057 589.32 243.737 590.28 241.977 592.2C240.257 594.08 239.397 596.86 239.397 600.54V618H233.937V599.34C233.937 596.1 233.137 593.62 231.537 591.9C229.937 590.18 227.777 589.32 225.057 589.32C222.137 589.32 219.797 590.28 218.037 592.2C216.317 594.08 215.457 596.86 215.457 600.54V618H209.997V585.06H215.457V592.56C216.257 589.96 217.677 587.98 219.717 586.62C221.797 585.22 224.177 584.52 226.857 584.52C229.657 584.52 232.077 585.24 234.117 586.68C236.197 588.08 237.677 590.16 238.557 592.92C239.477 590.24 241.017 588.18 243.177 586.74C245.337 585.26 247.777 584.52 250.497 584.52ZM302.055 599.7C302.055 600.86 301.975 601.86 301.815 602.7H275.475C275.595 606.46 276.655 609.28 278.655 611.16C280.695 613.04 283.175 613.98 286.095 613.98C288.735 613.98 290.935 613.32 292.695 612C294.495 610.64 295.595 608.84 295.995 606.6H301.815C301.415 608.88 300.515 610.92 299.115 612.72C297.755 614.52 295.975 615.92 293.775 616.92C291.575 617.92 289.095 618.42 286.335 618.42C283.175 618.42 280.375 617.74 277.935 616.38C275.495 615.02 273.575 613.08 272.175 610.56C270.815 608 270.135 605 270.135 601.56C270.135 598.12 270.815 595.12 272.175 592.56C273.575 590 275.495 588.04 277.935 586.68C280.375 585.32 283.175 584.64 286.335 584.64C289.535 584.64 292.315 585.32 294.675 586.68C297.075 588.04 298.895 589.86 300.135 592.14C301.415 594.42 302.055 596.94 302.055 599.7ZM296.535 600.06C296.655 597.62 296.255 595.58 295.335 593.94C294.415 592.3 293.155 591.08 291.555 590.28C289.955 589.48 288.215 589.08 286.335 589.08C283.335 589.08 280.815 590.02 278.775 591.9C276.735 593.74 275.635 596.46 275.475 600.06H296.535ZM326.536 584.52C330.376 584.52 333.476 585.76 335.836 588.24C338.196 590.68 339.376 594.22 339.376 598.86V618H333.916V599.34C333.916 596.06 333.076 593.54 331.396 591.78C329.716 590.02 327.436 589.14 324.556 589.14C321.556 589.14 319.156 590.12 317.356 592.08C315.556 594 314.656 596.82 314.656 600.54V618H309.196V585.06H314.656V592.86C315.496 590.18 316.976 588.12 319.096 586.68C321.256 585.24 323.736 584.52 326.536 584.52Z" fill="white"/>
<path d="M525.32 584.64C528.48 584.64 531.3 585.32 533.78 586.68C536.3 588.04 538.26 590 539.66 592.56C541.1 595.12 541.82 598.12 541.82 601.56C541.82 605 541.1 608 539.66 610.56C538.26 613.08 536.3 615.02 533.78 616.38C531.3 617.74 528.48 618.42 525.32 618.42C522.16 618.42 519.32 617.74 516.8 616.38C514.32 615.02 512.36 613.08 510.92 610.56C509.48 608 508.76 605 508.76 601.56C508.76 598.12 509.48 595.12 510.92 592.56C512.36 590 514.32 588.04 516.8 586.68C519.32 585.32 522.16 584.64 525.32 584.64ZM525.32 589.44C523.36 589.44 521.54 589.88 519.86 590.76C518.22 591.64 516.88 593 515.84 594.84C514.84 596.64 514.34 598.88 514.34 601.56C514.34 604.2 514.84 606.44 515.84 608.28C516.88 610.08 518.22 611.42 519.86 612.3C521.54 613.18 523.36 613.62 525.32 613.62C527.28 613.62 529.08 613.18 530.72 612.3C532.4 611.42 533.74 610.08 534.74 608.28C535.78 606.44 536.3 604.2 536.3 601.56C536.3 598.88 535.78 596.64 534.74 594.84C533.74 593 532.4 591.64 530.72 590.76C529.08 589.88 527.28 589.44 525.32 589.44ZM563.515 577.26C560.595 577.22 558.555 577.72 557.395 578.76C556.275 579.8 555.715 581.6 555.715 584.16V585.06H563.515V589.86H555.715V618H550.255V589.86H545.515V585.06H550.255V583.74C550.255 575.86 554.675 572.1 563.515 572.46V577.26ZM597.767 584.64C600.967 584.64 603.667 585.44 605.867 587.04C608.107 588.64 609.667 590.78 610.547 593.46V585.06H616.007V618H610.547V609.6C609.667 612.28 608.107 614.42 605.867 616.02C603.667 617.62 600.967 618.42 597.767 618.42C594.847 618.42 592.247 617.74 589.967 616.38C587.687 615.02 585.887 613.08 584.567 610.56C583.287 608 582.647 605 582.647 601.56C582.647 598.12 583.287 595.12 584.567 592.56C585.887 590 587.687 588.04 589.967 586.68C592.247 585.32 594.847 584.64 597.767 584.64ZM599.327 589.5C595.967 589.5 593.267 590.58 591.227 592.74C589.227 594.86 588.227 597.8 588.227 601.56C588.227 605.32 589.227 608.28 591.227 610.44C593.267 612.56 595.967 613.62 599.327 613.62C601.487 613.62 603.407 613.12 605.087 612.12C606.807 611.12 608.147 609.72 609.107 607.92C610.067 606.08 610.547 603.96 610.547 601.56C610.547 599.16 610.067 597.04 609.107 595.2C608.147 593.36 606.807 591.96 605.087 591C603.407 590 601.487 589.5 599.327 589.5ZM630.156 573.6V618H624.696V573.6H630.156ZM644.395 573.6V618H638.935V573.6H644.395ZM713.237 585.06L703.757 618H697.877L688.817 591.18L679.697 618H673.757L664.397 585.06H669.917L676.937 612.78L686.057 585.06H691.757L700.937 612.72L708.017 585.06H713.237ZM733.269 584.64C736.429 584.64 739.249 585.32 741.729 586.68C744.249 588.04 746.209 590 747.609 592.56C749.049 595.12 749.769 598.12 749.769 601.56C749.769 605 749.049 608 747.609 610.56C746.209 613.08 744.249 615.02 741.729 616.38C739.249 617.74 736.429 618.42 733.269 618.42C730.109 618.42 727.269 617.74 724.749 616.38C722.269 615.02 720.309 613.08 718.869 610.56C717.429 608 716.709 605 716.709 601.56C716.709 598.12 717.429 595.12 718.869 592.56C720.309 590 722.269 588.04 724.749 586.68C727.269 585.32 730.109 584.64 733.269 584.64ZM733.269 589.44C731.309 589.44 729.489 589.88 727.809 590.76C726.169 591.64 724.829 593 723.789 594.84C722.789 596.64 722.289 598.88 722.289 601.56C722.289 604.2 722.789 606.44 723.789 608.28C724.829 610.08 726.169 611.42 727.809 612.3C729.489 613.18 731.309 613.62 733.269 613.62C735.229 613.62 737.029 613.18 738.669 612.3C740.349 611.42 741.689 610.08 742.689 608.28C743.729 606.44 744.249 604.2 744.249 601.56C744.249 598.88 743.729 596.64 742.689 594.84C741.689 593 740.349 591.64 738.669 590.76C737.029 589.88 735.229 589.44 733.269 589.44ZM797.384 584.52C801.224 584.52 804.304 585.76 806.624 588.24C808.984 590.68 810.164 594.22 810.164 598.86V618H804.704V599.34C804.704 596.1 803.904 593.62 802.304 591.9C800.744 590.18 798.584 589.32 795.824 589.32C792.944 589.32 790.624 590.28 788.864 592.2C787.144 594.08 786.284 596.86 786.284 600.54V618H780.824V599.34C780.824 596.1 780.024 593.62 778.424 591.9C776.824 590.18 774.664 589.32 771.944 589.32C769.024 589.32 766.684 590.28 764.924 592.2C763.204 594.08 762.344 596.86 762.344 600.54V618H756.884V585.06H762.344V592.56C763.144 589.96 764.564 587.98 766.604 586.62C768.684 585.22 771.064 584.52 773.744 584.52C776.544 584.52 778.964 585.24 781.004 586.68C783.084 588.08 784.564 590.16 785.444 592.92C786.364 590.24 787.904 588.18 790.064 586.74C792.224 585.26 794.664 584.52 797.384 584.52ZM848.942 599.7C848.942 600.86 848.862 601.86 848.702 602.7H822.362C822.482 606.46 823.542 609.28 825.542 611.16C827.582 613.04 830.062 613.98 832.982 613.98C835.622 613.98 837.822 613.32 839.582 612C841.382 610.64 842.482 608.84 842.882 606.6H848.702C848.302 608.88 847.402 610.92 846.002 612.72C844.642 614.52 842.862 615.92 840.662 616.92C838.462 617.92 835.982 618.42 833.222 618.42C830.062 618.42 827.262 617.74 824.822 616.38C822.382 615.02 820.462 613.08 819.062 610.56C817.702 608 817.022 605 817.022 601.56C817.022 598.12 817.702 595.12 819.062 592.56C820.462 590 822.382 588.04 824.822 586.68C827.262 585.32 830.062 584.64 833.222 584.64C836.422 584.64 839.202 585.32 841.562 586.68C843.962 588.04 845.782 589.86 847.022 592.14C848.302 594.42 848.942 596.94 848.942 599.7ZM843.422 600.06C843.542 597.62 843.142 595.58 842.222 593.94C841.302 592.3 840.042 591.08 838.442 590.28C836.842 589.48 835.102 589.08 833.222 589.08C830.222 589.08 827.702 590.02 825.662 591.9C823.622 593.74 822.522 596.46 822.362 600.06H843.422ZM873.423 584.52C877.263 584.52 880.363 585.76 882.723 588.24C885.083 590.68 886.263 594.22 886.263 598.86V618H880.803V599.34C880.803 596.06 879.963 593.54 878.283 591.78C876.603 590.02 874.323 589.14 871.443 589.14C868.443 589.14 866.043 590.12 864.243 592.08C862.443 594 861.543 596.82 861.543 600.54V618H856.083V585.06H861.543V592.86C862.383 590.18 863.863 588.12 865.983 586.68C868.143 585.24 870.623 584.52 873.423 584.52Z" fill="white"/>
<path d="M1125.32 584.64C1128.48 584.64 1131.3 585.32 1133.78 586.68C1136.3 588.04 1138.26 590 1139.66 592.56C1141.1 595.12 1141.82 598.12 1141.82 601.56C1141.82 605 1141.1 608 1139.66 610.56C1138.26 613.08 1136.3 615.02 1133.78 616.38C1131.3 617.74 1128.48 618.42 1125.32 618.42C1122.16 618.42 1119.32 617.74 1116.8 616.38C1114.32 615.02 1112.36 613.08 1110.92 610.56C1109.48 608 1108.76 605 1108.76 601.56C1108.76 598.12 1109.48 595.12 1110.92 592.56C1112.36 590 1114.32 588.04 1116.8 586.68C1119.32 585.32 1122.16 584.64 1125.32 584.64ZM1125.32 589.44C1123.36 589.44 1121.54 589.88 1119.86 590.76C1118.22 591.64 1116.88 593 1115.84 594.84C1114.84 596.64 1114.34 598.88 1114.34 601.56C1114.34 604.2 1114.84 606.44 1115.84 608.28C1116.88 610.08 1118.22 611.42 1119.86 612.3C1121.54 613.18 1123.36 613.62 1125.32 613.62C1127.28 613.62 1129.08 613.18 1130.72 612.3C1132.4 611.42 1133.74 610.08 1134.74 608.28C1135.78 606.44 1136.3 604.2 1136.3 601.56C1136.3 598.88 1135.78 596.64 1134.74 594.84C1133.74 593 1132.4 591.64 1130.72 590.76C1129.08 589.88 1127.28 589.44 1125.32 589.44ZM1163.51 577.26C1160.59 577.22 1158.55 577.72 1157.39 578.76C1156.27 579.8 1155.71 581.6 1155.71 584.16V585.06H1163.51V589.86H1155.71V618H1150.25V589.86H1145.51V585.06H1150.25V583.74C1150.25 575.86 1154.67 572.1 1163.51 572.46V577.26ZM1198.85 584.64C1203.05 584.64 1206.53 585.76 1209.29 588C1212.05 590.24 1213.75 593.24 1214.39 597H1208.63C1208.23 594.64 1207.13 592.8 1205.33 591.48C1203.57 590.12 1201.37 589.44 1198.73 589.44C1196.81 589.44 1195.05 589.88 1193.45 590.76C1191.89 591.64 1190.63 593 1189.67 594.84C1188.71 596.64 1188.23 598.88 1188.23 601.56C1188.23 604.24 1188.71 606.5 1189.67 608.34C1190.63 610.14 1191.89 611.48 1193.45 612.36C1195.05 613.24 1196.81 613.68 1198.73 613.68C1201.37 613.68 1203.57 613 1205.33 611.64C1207.13 610.28 1208.23 608.42 1208.63 606.06H1214.39C1213.75 609.86 1212.05 612.88 1209.29 615.12C1206.53 617.32 1203.05 618.42 1198.85 618.42C1195.69 618.42 1192.89 617.74 1190.45 616.38C1188.01 615.02 1186.09 613.08 1184.69 610.56C1183.33 608 1182.65 605 1182.65 601.56C1182.65 598.12 1183.33 595.12 1184.69 592.56C1186.09 590 1188.01 588.04 1190.45 586.68C1192.89 585.32 1195.69 584.64 1198.85 584.64ZM1235.03 584.64C1238.23 584.64 1240.93 585.44 1243.13 587.04C1245.37 588.64 1246.93 590.78 1247.81 593.46V585.06H1253.27V618H1247.81V609.6C1246.93 612.28 1245.37 614.42 1243.13 616.02C1240.93 617.62 1238.23 618.42 1235.03 618.42C1232.11 618.42 1229.51 617.74 1227.23 616.38C1224.95 615.02 1223.15 613.08 1221.83 610.56C1220.55 608 1219.91 605 1219.91 601.56C1219.91 598.12 1220.55 595.12 1221.83 592.56C1223.15 590 1224.95 588.04 1227.23 586.68C1229.51 585.32 1232.11 584.64 1235.03 584.64ZM1236.59 589.5C1233.23 589.5 1230.53 590.58 1228.49 592.74C1226.49 594.86 1225.49 597.8 1225.49 601.56C1225.49 605.32 1226.49 608.28 1228.49 610.44C1230.53 612.56 1233.23 613.62 1236.59 613.62C1238.75 613.62 1240.67 613.12 1242.35 612.12C1244.07 611.12 1245.41 609.72 1246.37 607.92C1247.33 606.08 1247.81 603.96 1247.81 601.56C1247.81 599.16 1247.33 597.04 1246.37 595.2C1245.41 593.36 1244.07 591.96 1242.35 591C1240.67 590 1238.75 589.5 1236.59 589.5ZM1272.28 584.64C1276 584.64 1278.98 585.62 1281.22 587.58C1283.5 589.5 1284.88 592.1 1285.36 595.38H1280.14C1279.9 593.42 1279.08 591.82 1277.68 590.58C1276.32 589.3 1274.48 588.66 1272.16 588.66C1270.2 588.66 1268.66 589.14 1267.54 590.1C1266.46 591.02 1265.92 592.28 1265.92 593.88C1265.92 595.08 1266.28 596.06 1267 596.82C1267.76 597.54 1268.68 598.1 1269.76 598.5C1270.88 598.86 1272.4 599.26 1274.32 599.7C1276.76 600.26 1278.72 600.84 1280.2 601.44C1281.72 602 1283 602.92 1284.04 604.2C1285.12 605.48 1285.66 607.2 1285.66 609.36C1285.66 612.04 1284.64 614.22 1282.6 615.9C1280.6 617.58 1277.92 618.42 1274.56 618.42C1270.64 618.42 1267.44 617.48 1264.96 615.6C1262.48 613.72 1261.02 611.1 1260.58 607.74H1265.86C1266.06 609.74 1266.92 611.36 1268.44 612.6C1270 613.84 1272.04 614.46 1274.56 614.46C1276.44 614.46 1277.9 613.98 1278.94 613.02C1280.02 612.06 1280.56 610.8 1280.56 609.24C1280.56 607.96 1280.18 606.94 1279.42 606.18C1278.66 605.42 1277.72 604.84 1276.6 604.44C1275.48 604.04 1273.94 603.62 1271.98 603.18C1269.54 602.62 1267.58 602.06 1266.1 601.5C1264.66 600.94 1263.42 600.06 1262.38 598.86C1261.38 597.62 1260.88 595.96 1260.88 593.88C1260.88 591.12 1261.9 588.9 1263.94 587.22C1265.98 585.5 1268.76 584.64 1272.28 584.64ZM1323.26 599.7C1323.26 600.86 1323.18 601.86 1323.02 602.7H1296.68C1296.8 606.46 1297.86 609.28 1299.86 611.16C1301.9 613.04 1304.38 613.98 1307.3 613.98C1309.94 613.98 1312.14 613.32 1313.9 612C1315.7 610.64 1316.8 608.84 1317.2 606.6H1323.02C1322.62 608.88 1321.72 610.92 1320.32 612.72C1318.96 614.52 1317.18 615.92 1314.98 616.92C1312.78 617.92 1310.3 618.42 1307.54 618.42C1304.38 618.42 1301.58 617.74 1299.14 616.38C1296.7 615.02 1294.78 613.08 1293.38 610.56C1292.02 608 1291.34 605 1291.34 601.56C1291.34 598.12 1292.02 595.12 1293.38 592.56C1294.78 590 1296.7 588.04 1299.14 586.68C1301.58 585.32 1304.38 584.64 1307.54 584.64C1310.74 584.64 1313.52 585.32 1315.88 586.68C1318.28 588.04 1320.1 589.86 1321.34 592.14C1322.62 594.42 1323.26 596.94 1323.26 599.7ZM1317.74 600.06C1317.86 597.62 1317.46 595.58 1316.54 593.94C1315.62 592.3 1314.36 591.08 1312.76 590.28C1311.16 589.48 1309.42 589.08 1307.54 589.08C1304.54 589.08 1302.02 590.02 1299.98 591.9C1297.94 593.74 1296.84 596.46 1296.68 600.06H1317.74ZM1340.72 584.64C1344.44 584.64 1347.42 585.62 1349.66 587.58C1351.94 589.5 1353.32 592.1 1353.8 595.38H1348.58C1348.34 593.42 1347.52 591.82 1346.12 590.58C1344.76 589.3 1342.92 588.66 1340.6 588.66C1338.64 588.66 1337.1 589.14 1335.98 590.1C1334.9 591.02 1334.36 592.28 1334.36 593.88C1334.36 595.08 1334.72 596.06 1335.44 596.82C1336.2 597.54 1337.12 598.1 1338.2 598.5C1339.32 598.86 1340.84 599.26 1342.76 599.7C1345.2 600.26 1347.16 600.84 1348.64 601.44C1350.16 602 1351.44 602.92 1352.48 604.2C1353.56 605.48 1354.1 607.2 1354.1 609.36C1354.1 612.04 1353.08 614.22 1351.04 615.9C1349.04 617.58 1346.36 618.42 1343 618.42C1339.08 618.42 1335.88 617.48 1333.4 615.6C1330.92 613.72 1329.46 611.1 1329.02 607.74H1334.3C1334.5 609.74 1335.36 611.36 1336.88 612.6C1338.44 613.84 1340.48 614.46 1343 614.46C1344.88 614.46 1346.34 613.98 1347.38 613.02C1348.46 612.06 1349 610.8 1349 609.24C1349 607.96 1348.62 606.94 1347.86 606.18C1347.1 605.42 1346.16 604.84 1345.04 604.44C1343.92 604.04 1342.38 603.62 1340.42 603.18C1337.98 602.62 1336.02 602.06 1334.54 601.5C1333.1 600.94 1331.86 600.06 1330.82 598.86C1329.82 597.62 1329.32 595.96 1329.32 593.88C1329.32 591.12 1330.34 588.9 1332.38 587.22C1334.42 585.5 1337.2 584.64 1340.72 584.64ZM1405.5 585.06V618H1400.04V610.26C1399.2 612.94 1397.7 615 1395.54 616.44C1393.42 617.84 1390.94 618.54 1388.1 618.54C1384.3 618.54 1381.22 617.32 1378.86 614.88C1376.5 612.4 1375.32 608.86 1375.32 604.26V585.06H1380.78V603.72C1380.78 607 1381.62 609.54 1383.3 611.34C1384.98 613.1 1387.26 613.98 1390.14 613.98C1393.14 613.98 1395.54 613.02 1397.34 611.1C1399.14 609.14 1400.04 606.3 1400.04 602.58V585.06H1405.5ZM1431.59 584.52C1435.43 584.52 1438.53 585.76 1440.89 588.24C1443.25 590.68 1444.43 594.22 1444.43 598.86V618H1438.97V599.34C1438.97 596.06 1438.13 593.54 1436.45 591.78C1434.77 590.02 1432.49 589.14 1429.61 589.14C1426.61 589.14 1424.21 590.12 1422.41 592.08C1420.61 594 1419.71 596.82 1419.71 600.54V618H1414.25V585.06H1419.71V592.86C1420.55 590.18 1422.03 588.12 1424.15 586.68C1426.31 585.24 1428.79 584.52 1431.59 584.52ZM1466.3 584.64C1469.5 584.64 1472.2 585.44 1474.4 587.04C1476.64 588.64 1478.2 590.78 1479.08 593.46V573.6H1484.54V618H1479.08V609.6C1478.2 612.28 1476.64 614.42 1474.4 616.02C1472.2 617.62 1469.5 618.42 1466.3 618.42C1463.38 618.42 1460.78 617.74 1458.5 616.38C1456.22 615.02 1454.42 613.08 1453.1 610.56C1451.82 608 1451.18 605 1451.18 601.56C1451.18 598.12 1451.82 595.12 1453.1 592.56C1454.42 590 1456.22 588.04 1458.5 586.68C1460.78 585.32 1463.38 584.64 1466.3 584.64ZM1467.86 589.5C1464.5 589.5 1461.8 590.58 1459.76 592.74C1457.76 594.86 1456.76 597.8 1456.76 601.56C1456.76 605.32 1457.76 608.28 1459.76 610.44C1461.8 612.56 1464.5 613.62 1467.86 613.62C1470.02 613.62 1471.94 613.12 1473.62 612.12C1475.34 611.12 1476.68 609.72 1477.64 607.92C1478.6 606.08 1479.08 603.96 1479.08 601.56C1479.08 599.16 1478.6 597.04 1477.64 595.2C1476.68 593.36 1475.34 591.96 1473.62 591C1471.94 590 1470.02 589.5 1467.86 589.5ZM1492.27 575.4C1492.27 574.4 1492.61 573.6 1493.29 573C1493.97 572.36 1494.87 572.04 1495.99 572.04C1497.11 572.04 1498.01 572.36 1498.69 573C1499.37 573.6 1499.71 574.4 1499.71 575.4C1499.71 576.4 1499.37 577.22 1498.69 577.86C1498.01 578.46 1497.11 578.76 1495.99 578.76C1494.87 578.76 1493.97 578.46 1493.29 577.86C1492.61 577.22 1492.27 576.4 1492.27 575.4ZM1498.69 585.06V618H1493.23V585.06H1498.69ZM1520.97 584.64C1524.17 584.64 1526.87 585.44 1529.07 587.04C1531.31 588.64 1532.87 590.78 1533.75 593.46V585.06H1539.21V618H1533.75V609.6C1532.87 612.28 1531.31 614.42 1529.07 616.02C1526.87 617.62 1524.17 618.42 1520.97 618.42C1518.05 618.42 1515.45 617.74 1513.17 616.38C1510.89 615.02 1509.09 613.08 1507.77 610.56C1506.49 608 1505.85 605 1505.85 601.56C1505.85 598.12 1506.49 595.12 1507.77 592.56C1509.09 590 1510.89 588.04 1513.17 586.68C1515.45 585.32 1518.05 584.64 1520.97 584.64ZM1522.53 589.5C1519.17 589.5 1516.47 590.58 1514.43 592.74C1512.43 594.86 1511.43 597.8 1511.43 601.56C1511.43 605.32 1512.43 608.28 1514.43 610.44C1516.47 612.56 1519.17 613.62 1522.53 613.62C1524.69 613.62 1526.61 613.12 1528.29 612.12C1530.01 611.12 1531.35 609.72 1532.31 607.92C1533.27 606.08 1533.75 603.96 1533.75 601.56C1533.75 599.16 1533.27 597.04 1532.31 595.2C1531.35 593.36 1530.01 591.96 1528.29 591C1526.61 590 1524.69 589.5 1522.53 589.5ZM1561.4 584.64C1564.6 584.64 1567.3 585.44 1569.5 587.04C1571.74 588.64 1573.3 590.78 1574.18 593.46V585.06H1579.64V618.54C1579.64 621.58 1579 624.28 1577.72 626.64C1576.44 629 1574.64 630.84 1572.32 632.16C1570 633.48 1567.3 634.14 1564.22 634.14C1559.78 634.14 1556.16 633.06 1553.36 630.9C1550.56 628.78 1548.78 625.9 1548.02 622.26H1553.42C1554.06 624.46 1555.26 626.18 1557.02 627.42C1558.82 628.7 1561.12 629.34 1563.92 629.34C1566.88 629.34 1569.32 628.38 1571.24 626.46C1573.2 624.58 1574.18 621.94 1574.18 618.54V609.6C1573.3 612.28 1571.74 614.42 1569.5 616.02C1567.3 617.62 1564.6 618.42 1561.4 618.42C1558.48 618.42 1555.88 617.74 1553.6 616.38C1551.32 615.02 1549.52 613.08 1548.2 610.56C1546.92 608 1546.28 605 1546.28 601.56C1546.28 598.12 1546.92 595.12 1548.2 592.56C1549.52 590 1551.32 588.04 1553.6 586.68C1555.88 585.32 1558.48 584.64 1561.4 584.64ZM1562.96 589.5C1559.6 589.5 1556.9 590.58 1554.86 592.74C1552.86 594.86 1551.86 597.8 1551.86 601.56C1551.86 605.32 1552.86 608.28 1554.86 610.44C1556.9 612.56 1559.6 613.62 1562.96 613.62C1565.12 613.62 1567.04 613.12 1568.72 612.12C1570.44 611.12 1571.78 609.72 1572.74 607.92C1573.7 606.08 1574.18 603.96 1574.18 601.56C1574.18 599.16 1573.7 597.04 1572.74 595.2C1571.78 593.36 1570.44 591.96 1568.72 591C1567.04 590 1565.12 589.5 1562.96 589.5ZM1605.67 584.52C1609.51 584.52 1612.61 585.76 1614.97 588.24C1617.33 590.68 1618.51 594.22 1618.51 598.86V618H1613.05V599.34C1613.05 596.06 1612.21 593.54 1610.53 591.78C1608.85 590.02 1606.57 589.14 1603.69 589.14C1600.69 589.14 1598.29 590.12 1596.49 592.08C1594.69 594 1593.79 596.82 1593.79 600.54V618H1588.33V585.06H1593.79V592.86C1594.63 590.18 1596.11 588.12 1598.23 586.68C1600.39 585.24 1602.87 584.52 1605.67 584.52ZM1641.82 584.64C1644.98 584.64 1647.8 585.32 1650.28 586.68C1652.8 588.04 1654.76 590 1656.16 592.56C1657.6 595.12 1658.32 598.12 1658.32 601.56C1658.32 605 1657.6 608 1656.16 610.56C1654.76 613.08 1652.8 615.02 1650.28 616.38C1647.8 617.74 1644.98 618.42 1641.82 618.42C1638.66 618.42 1635.82 617.74 1633.3 616.38C1630.82 615.02 1628.86 613.08 1627.42 610.56C1625.98 608 1625.26 605 1625.26 601.56C1625.26 598.12 1625.98 595.12 1627.42 592.56C1628.86 590 1630.82 588.04 1633.3 586.68C1635.82 585.32 1638.66 584.64 1641.82 584.64ZM1641.82 589.44C1639.86 589.44 1638.04 589.88 1636.36 590.76C1634.72 591.64 1633.38 593 1632.34 594.84C1631.34 596.64 1630.84 598.88 1630.84 601.56C1630.84 604.2 1631.34 606.44 1632.34 608.28C1633.38 610.08 1634.72 611.42 1636.36 612.3C1638.04 613.18 1639.86 613.62 1641.82 613.62C1643.78 613.62 1645.58 613.18 1647.22 612.3C1648.9 611.42 1650.24 610.08 1651.24 608.28C1652.28 606.44 1652.8 604.2 1652.8 601.56C1652.8 598.88 1652.28 596.64 1651.24 594.84C1650.24 593 1648.9 591.64 1647.22 590.76C1645.58 589.88 1643.78 589.44 1641.82 589.44ZM1675.76 584.64C1679.48 584.64 1682.46 585.62 1684.7 587.58C1686.98 589.5 1688.36 592.1 1688.84 595.38H1683.62C1683.38 593.42 1682.56 591.82 1681.16 590.58C1679.8 589.3 1677.96 588.66 1675.64 588.66C1673.68 588.66 1672.14 589.14 1671.02 590.1C1669.94 591.02 1669.4 592.28 1669.4 593.88C1669.4 595.08 1669.76 596.06 1670.48 596.82C1671.24 597.54 1672.16 598.1 1673.24 598.5C1674.36 598.86 1675.88 599.26 1677.8 599.7C1680.24 600.26 1682.2 600.84 1683.68 601.44C1685.2 602 1686.48 602.92 1687.52 604.2C1688.6 605.48 1689.14 607.2 1689.14 609.36C1689.14 612.04 1688.12 614.22 1686.08 615.9C1684.08 617.58 1681.4 618.42 1678.04 618.42C1674.12 618.42 1670.92 617.48 1668.44 615.6C1665.96 613.72 1664.5 611.1 1664.06 607.74H1669.34C1669.54 609.74 1670.4 611.36 1671.92 612.6C1673.48 613.84 1675.52 614.46 1678.04 614.46C1679.92 614.46 1681.38 613.98 1682.42 613.02C1683.5 612.06 1684.04 610.8 1684.04 609.24C1684.04 607.96 1683.66 606.94 1682.9 606.18C1682.14 605.42 1681.2 604.84 1680.08 604.44C1678.96 604.04 1677.42 603.62 1675.46 603.18C1673.02 602.62 1671.06 602.06 1669.58 601.5C1668.14 600.94 1666.9 600.06 1665.86 598.86C1664.86 597.62 1664.36 595.96 1664.36 593.88C1664.36 591.12 1665.38 588.9 1667.42 587.22C1669.46 585.5 1672.24 584.64 1675.76 584.64ZM1726.73 599.7C1726.73 600.86 1726.65 601.86 1726.49 602.7H1700.15C1700.27 606.46 1701.33 609.28 1703.33 611.16C1705.37 613.04 1707.85 613.98 1710.77 613.98C1713.41 613.98 1715.61 613.32 1717.37 612C1719.17 610.64 1720.27 608.84 1720.67 606.6H1726.49C1726.09 608.88 1725.19 610.92 1723.79 612.72C1722.43 614.52 1720.65 615.92 1718.45 616.92C1716.25 617.92 1713.77 618.42 1711.01 618.42C1707.85 618.42 1705.05 617.74 1702.61 616.38C1700.17 615.02 1698.25 613.08 1696.85 610.56C1695.49 608 1694.81 605 1694.81 601.56C1694.81 598.12 1695.49 595.12 1696.85 592.56C1698.25 590 1700.17 588.04 1702.61 586.68C1705.05 585.32 1707.85 584.64 1711.01 584.64C1714.21 584.64 1716.99 585.32 1719.35 586.68C1721.75 588.04 1723.57 589.86 1724.81 592.14C1726.09 594.42 1726.73 596.94 1726.73 599.7ZM1721.21 600.06C1721.33 597.62 1720.93 595.58 1720.01 593.94C1719.09 592.3 1717.83 591.08 1716.23 590.28C1714.63 589.48 1712.89 589.08 1711.01 589.08C1708.01 589.08 1705.49 590.02 1703.45 591.9C1701.41 593.74 1700.31 596.46 1700.15 600.06H1721.21ZM1747.38 584.64C1750.58 584.64 1753.28 585.44 1755.48 587.04C1757.72 588.64 1759.28 590.78 1760.16 593.46V573.6H1765.62V618H1760.16V609.6C1759.28 612.28 1757.72 614.42 1755.48 616.02C1753.28 617.62 1750.58 618.42 1747.38 618.42C1744.46 618.42 1741.86 617.74 1739.58 616.38C1737.3 615.02 1735.5 613.08 1734.18 610.56C1732.9 608 1732.26 605 1732.26 601.56C1732.26 598.12 1732.9 595.12 1734.18 592.56C1735.5 590 1737.3 588.04 1739.58 586.68C1741.86 585.32 1744.46 584.64 1747.38 584.64ZM1748.94 589.5C1745.58 589.5 1742.88 590.58 1740.84 592.74C1738.84 594.86 1737.84 597.8 1737.84 601.56C1737.84 605.32 1738.84 608.28 1740.84 610.44C1742.88 612.56 1745.58 613.62 1748.94 613.62C1751.1 613.62 1753.02 613.12 1754.7 612.12C1756.42 611.12 1757.76 609.72 1758.72 607.92C1759.68 606.08 1760.16 603.96 1760.16 601.56C1760.16 599.16 1759.68 597.04 1758.72 595.2C1757.76 593.36 1756.42 591.96 1754.7 591C1753.02 590 1751.1 589.5 1748.94 589.5Z" fill="white"/>
<path d="M113.85 159.115V198H104.39V181.775H89.65V198H80.245V159.115H89.65V174.185H104.39V159.115H113.85ZM134.668 166.925C137.712 166.925 140.425 167.567 142.808 168.85C145.228 170.097 147.117 171.912 148.473 174.295C149.867 176.678 150.563 179.465 150.563 182.655C150.563 185.845 149.867 188.632 148.473 191.015C147.117 193.398 145.228 195.232 142.808 196.515C140.425 197.762 137.712 198.385 134.668 198.385C131.625 198.385 128.893 197.762 126.473 196.515C124.053 195.232 122.147 193.398 120.753 191.015C119.397 188.632 118.718 185.845 118.718 182.655C118.718 179.465 119.397 176.678 120.753 174.295C122.147 171.912 124.053 170.097 126.473 168.85C128.893 167.567 131.625 166.925 134.668 166.925ZM134.668 175.065C132.872 175.065 131.35 175.725 130.103 177.045C128.893 178.328 128.288 180.198 128.288 182.655C128.288 185.112 128.893 186.982 130.103 188.265C131.35 189.548 132.872 190.19 134.668 190.19C136.465 190.19 137.968 189.548 139.178 188.265C140.388 186.982 140.993 185.112 140.993 182.655C140.993 180.198 140.388 178.328 139.178 177.045C137.968 175.725 136.465 175.065 134.668 175.065ZM200.32 167.31L192.455 198H181.95L176.395 177.43L170.785 198H160.28L152.415 167.31H161.82L165.89 189.42L171.61 167.31H181.62L187.505 189.475L191.575 167.31H200.32ZM228.597 166.925C232.557 166.925 235.876 168.025 238.552 170.225C241.229 172.388 242.916 175.377 243.612 179.19H233.657C233.364 177.87 232.759 176.843 231.842 176.11C230.926 175.377 229.771 175.01 228.377 175.01C226.727 175.01 225.371 175.67 224.307 176.99C223.244 178.273 222.712 180.162 222.712 182.655C222.712 185.148 223.244 187.055 224.307 188.375C225.371 189.658 226.727 190.3 228.377 190.3C229.771 190.3 230.926 189.933 231.842 189.2C232.759 188.467 233.364 187.44 233.657 186.12H243.612C242.916 189.933 241.229 192.94 238.552 195.14C235.876 197.303 232.557 198.385 228.597 198.385C225.591 198.385 222.914 197.762 220.567 196.515C218.257 195.232 216.442 193.398 215.122 191.015C213.802 188.632 213.142 185.845 213.142 182.655C213.142 179.428 213.784 176.642 215.067 174.295C216.387 171.912 218.221 170.097 220.567 168.85C222.914 167.567 225.591 166.925 228.597 166.925ZM262.876 166.925C265.92 166.925 268.633 167.567 271.016 168.85C273.436 170.097 275.325 171.912 276.681 174.295C278.075 176.678 278.771 179.465 278.771 182.655C278.771 185.845 278.075 188.632 276.681 191.015C275.325 193.398 273.436 195.232 271.016 196.515C268.633 197.762 265.92 198.385 262.876 198.385C259.833 198.385 257.101 197.762 254.681 196.515C252.261 195.232 250.355 193.398 248.961 191.015C247.605 188.632 246.926 185.845 246.926 182.655C246.926 179.465 247.605 176.678 248.961 174.295C250.355 171.912 252.261 170.097 254.681 168.85C257.101 167.567 259.833 166.925 262.876 166.925ZM262.876 175.065C261.08 175.065 259.558 175.725 258.311 177.045C257.101 178.328 256.496 180.198 256.496 182.655C256.496 185.112 257.101 186.982 258.311 188.265C259.558 189.548 261.08 190.19 262.876 190.19C264.673 190.19 266.176 189.548 267.386 188.265C268.596 186.982 269.201 185.112 269.201 182.655C269.201 180.198 268.596 178.328 267.386 177.045C266.176 175.725 264.673 175.065 262.876 175.065ZM323.413 166.98C327.19 166.98 330.16 168.153 332.323 170.5C334.487 172.81 335.568 176.037 335.568 180.18V198H326.218V181.28C326.218 179.337 325.687 177.833 324.623 176.77C323.597 175.67 322.185 175.12 320.388 175.12C318.518 175.12 317.033 175.707 315.933 176.88C314.87 178.017 314.338 179.63 314.338 181.72V198H304.933V181.28C304.933 179.337 304.42 177.833 303.393 176.77C302.367 175.67 300.955 175.12 299.158 175.12C297.288 175.12 295.803 175.688 294.703 176.825C293.603 177.962 293.053 179.593 293.053 181.72V198H283.648V167.31H293.053V172.535C293.86 170.812 295.088 169.455 296.738 168.465C298.425 167.475 300.387 166.98 302.623 166.98C304.97 166.98 307.042 167.53 308.838 168.63C310.635 169.693 311.992 171.233 312.908 173.25C313.972 171.343 315.42 169.822 317.253 168.685C319.123 167.548 321.177 166.98 323.413 166.98ZM381.582 166.98C385.359 166.98 388.329 168.153 390.492 170.5C392.656 172.81 393.737 176.037 393.737 180.18V198H384.387V181.28C384.387 179.337 383.856 177.833 382.792 176.77C381.766 175.67 380.354 175.12 378.557 175.12C376.687 175.12 375.202 175.707 374.102 176.88C373.039 178.017 372.507 179.63 372.507 181.72V198H363.102V181.28C363.102 179.337 362.589 177.833 361.562 176.77C360.536 175.67 359.124 175.12 357.327 175.12C355.457 175.12 353.972 175.688 352.872 176.825C351.772 177.962 351.222 179.593 351.222 181.72V198H341.817V167.31H351.222V172.535C352.029 170.812 353.257 169.455 354.907 168.465C356.594 167.475 358.556 166.98 360.792 166.98C363.139 166.98 365.211 167.53 367.007 168.63C368.804 169.693 370.161 171.233 371.077 173.25C372.141 171.343 373.589 169.822 375.422 168.685C377.292 167.548 379.346 166.98 381.582 166.98ZM414.341 166.925C417.385 166.925 420.098 167.567 422.481 168.85C424.901 170.097 426.79 171.912 428.146 174.295C429.54 176.678 430.236 179.465 430.236 182.655C430.236 185.845 429.54 188.632 428.146 191.015C426.79 193.398 424.901 195.232 422.481 196.515C420.098 197.762 417.385 198.385 414.341 198.385C411.298 198.385 408.566 197.762 406.146 196.515C403.726 195.232 401.82 193.398 400.426 191.015C399.07 188.632 398.391 185.845 398.391 182.655C398.391 179.465 399.07 176.678 400.426 174.295C401.82 171.912 403.726 170.097 406.146 168.85C408.566 167.567 411.298 166.925 414.341 166.925ZM414.341 175.065C412.545 175.065 411.023 175.725 409.776 177.045C408.566 178.328 407.961 180.198 407.961 182.655C407.961 185.112 408.566 186.982 409.776 188.265C411.023 189.548 412.545 190.19 414.341 190.19C416.138 190.19 417.641 189.548 418.851 188.265C420.061 186.982 420.666 185.112 420.666 182.655C420.666 180.198 420.061 178.328 418.851 177.045C417.641 175.725 416.138 175.065 414.341 175.065ZM454.583 166.98C458.103 166.98 460.89 168.153 462.943 170.5C465.033 172.847 466.078 176.073 466.078 180.18V198H456.673V181.28C456.673 179.227 456.123 177.632 455.023 176.495C453.96 175.322 452.53 174.735 450.733 174.735C448.826 174.735 447.305 175.34 446.168 176.55C445.068 177.76 444.518 179.483 444.518 181.72V198H435.113V167.31H444.518V172.92C445.398 171.087 446.7 169.638 448.423 168.575C450.183 167.512 452.236 166.98 454.583 166.98ZM482.412 158.675C482.412 157.245 482.925 156.072 483.952 155.155C484.979 154.202 486.335 153.725 488.022 153.725C489.709 153.725 491.065 154.202 492.092 155.155C493.119 156.072 493.632 157.245 493.632 158.675C493.632 160.068 493.119 161.242 492.092 162.195C491.065 163.112 489.709 163.57 488.022 163.57C486.335 163.57 484.979 163.112 483.952 162.195C482.925 161.242 482.412 160.068 482.412 158.675ZM492.697 167.31V198H483.292V167.31H492.697ZM510.355 166.925C514.242 166.925 517.34 167.897 519.65 169.84C521.997 171.783 523.464 174.35 524.05 177.54H515.25C514.994 176.293 514.407 175.322 513.49 174.625C512.61 173.892 511.492 173.525 510.135 173.525C509.072 173.525 508.265 173.763 507.715 174.24C507.165 174.68 506.89 175.322 506.89 176.165C506.89 177.118 507.385 177.833 508.375 178.31C509.402 178.787 510.997 179.263 513.16 179.74C515.507 180.29 517.432 180.858 518.935 181.445C520.439 181.995 521.74 182.912 522.84 184.195C523.94 185.478 524.49 187.202 524.49 189.365C524.49 191.125 524.014 192.683 523.06 194.04C522.107 195.397 520.732 196.46 518.935 197.23C517.139 198 515.012 198.385 512.555 198.385C508.412 198.385 505.094 197.468 502.6 195.635C500.107 193.802 498.585 191.18 498.035 187.77H507.11C507.257 189.09 507.807 190.098 508.76 190.795C509.75 191.492 511.015 191.84 512.555 191.84C513.619 191.84 514.425 191.602 514.975 191.125C515.525 190.612 515.8 189.952 515.8 189.145C515.8 188.082 515.287 187.33 514.26 186.89C513.27 186.413 511.639 185.918 509.365 185.405C507.092 184.928 505.222 184.415 503.755 183.865C502.289 183.315 501.024 182.435 499.96 181.225C498.897 179.978 498.365 178.292 498.365 176.165C498.365 173.415 499.41 171.197 501.5 169.51C503.59 167.787 506.542 166.925 510.355 166.925ZM552.369 166.925C554.716 166.925 556.732 167.457 558.419 168.52C560.106 169.583 561.334 171.032 562.104 172.865V157.3H571.509V198H562.104V192.445C561.334 194.278 560.106 195.727 558.419 196.79C556.732 197.853 554.716 198.385 552.369 198.385C549.839 198.385 547.566 197.762 545.549 196.515C543.569 195.232 541.992 193.398 540.819 191.015C539.682 188.632 539.114 185.845 539.114 182.655C539.114 179.428 539.682 176.642 540.819 174.295C541.992 171.912 543.569 170.097 545.549 168.85C547.566 167.567 549.839 166.925 552.369 166.925ZM555.394 175.175C553.377 175.175 551.746 175.835 550.499 177.155C549.289 178.475 548.684 180.308 548.684 182.655C548.684 185.002 549.289 186.835 550.499 188.155C551.746 189.475 553.377 190.135 555.394 190.135C557.374 190.135 558.987 189.457 560.234 188.1C561.517 186.743 562.159 184.928 562.159 182.655C562.159 180.345 561.517 178.53 560.234 177.21C558.987 175.853 557.374 175.175 555.394 175.175ZM577.104 158.675C577.104 157.245 577.618 156.072 578.644 155.155C579.671 154.202 581.028 153.725 582.714 153.725C584.401 153.725 585.758 154.202 586.784 155.155C587.811 156.072 588.324 157.245 588.324 158.675C588.324 160.068 587.811 161.242 586.784 162.195C585.758 163.112 584.401 163.57 582.714 163.57C581.028 163.57 579.671 163.112 578.644 162.195C577.618 161.242 577.104 160.068 577.104 158.675ZM587.389 167.31V198H577.984V167.31H587.389ZM605.543 166.925C607.889 166.925 609.906 167.457 611.593 168.52C613.279 169.583 614.526 171.032 615.333 172.865V167.31H624.683V198H615.333V192.445C614.526 194.278 613.279 195.727 611.593 196.79C609.906 197.853 607.889 198.385 605.543 198.385C603.013 198.385 600.739 197.762 598.723 196.515C596.743 195.232 595.166 193.398 593.993 191.015C592.856 188.632 592.288 185.845 592.288 182.655C592.288 179.428 592.856 176.642 593.993 174.295C595.166 171.912 596.743 170.097 598.723 168.85C600.739 167.567 603.013 166.925 605.543 166.925ZM608.568 175.175C606.551 175.175 604.919 175.835 603.673 177.155C602.463 178.475 601.858 180.308 601.858 182.655C601.858 185.002 602.463 186.835 603.673 188.155C604.919 189.475 606.551 190.135 608.568 190.135C610.548 190.135 612.161 189.457 613.408 188.1C614.691 186.743 615.333 184.928 615.333 182.655C615.333 180.345 614.691 178.53 613.408 177.21C612.161 175.853 610.548 175.175 608.568 175.175ZM650.298 166.925C652.828 166.925 655.083 167.567 657.063 168.85C659.08 170.097 660.656 171.912 661.793 174.295C662.966 176.642 663.553 179.428 663.553 182.655C663.553 185.845 662.966 188.632 661.793 191.015C660.656 193.398 659.08 195.232 657.063 196.515C655.083 197.762 652.828 198.385 650.298 198.385C647.951 198.385 645.935 197.853 644.248 196.79C642.561 195.727 641.333 194.278 640.563 192.445V198H631.158V157.3H640.563V172.865C641.333 171.032 642.561 169.583 644.248 168.52C645.935 167.457 647.951 166.925 650.298 166.925ZM647.273 175.175C645.293 175.175 643.661 175.853 642.378 177.21C641.131 178.53 640.508 180.345 640.508 182.655C640.508 184.928 641.131 186.743 642.378 188.1C643.661 189.457 645.293 190.135 647.273 190.135C649.29 190.135 650.903 189.475 652.113 188.155C653.36 186.835 653.983 185.002 653.983 182.655C653.983 180.308 653.36 178.475 652.113 177.155C650.903 175.835 649.29 175.175 647.273 175.175ZM697.583 181.83C697.583 182.6 697.492 183.443 697.308 184.36H676.023C676.133 186.67 676.72 188.338 677.783 189.365C678.847 190.355 680.203 190.85 681.853 190.85C683.247 190.85 684.402 190.502 685.318 189.805C686.235 189.108 686.84 188.21 687.133 187.11H697.088C696.685 189.273 695.805 191.217 694.448 192.94C693.092 194.627 691.368 195.965 689.278 196.955C687.188 197.908 684.86 198.385 682.293 198.385C679.287 198.385 676.61 197.762 674.263 196.515C671.953 195.232 670.138 193.398 668.818 191.015C667.498 188.632 666.838 185.845 666.838 182.655C666.838 179.428 667.48 176.642 668.763 174.295C670.083 171.912 671.917 170.097 674.263 168.85C676.61 167.567 679.287 166.925 682.293 166.925C685.337 166.925 688.013 167.548 690.323 168.795C692.633 170.042 694.412 171.802 695.658 174.075C696.942 176.312 697.583 178.897 697.583 181.83ZM688.068 180.4C688.105 178.383 687.555 176.88 686.418 175.89C685.318 174.863 683.943 174.35 682.293 174.35C680.57 174.35 679.14 174.863 678.003 175.89C676.867 176.917 676.225 178.42 676.078 180.4H688.068ZM719.866 189.915V198H715.631C712.038 198 709.233 197.12 707.216 195.36C705.236 193.563 704.246 190.612 704.246 186.505V175.23H700.121V167.31H704.246V159.775H713.651V167.31H719.811V175.23H713.651V186.67C713.651 187.88 713.89 188.723 714.366 189.2C714.88 189.677 715.723 189.915 716.896 189.915H719.866ZM754.302 181.83C754.302 182.6 754.211 183.443 754.027 184.36H732.742C732.852 186.67 733.439 188.338 734.502 189.365C735.566 190.355 736.922 190.85 738.572 190.85C739.966 190.85 741.121 190.502 742.037 189.805C742.954 189.108 743.559 188.21 743.852 187.11H753.807C753.404 189.273 752.524 191.217 751.167 192.94C749.811 194.627 748.087 195.965 745.997 196.955C743.907 197.908 741.579 198.385 739.012 198.385C736.006 198.385 733.329 197.762 730.982 196.515C728.672 195.232 726.857 193.398 725.537 191.015C724.217 188.632 723.557 185.845 723.557 182.655C723.557 179.428 724.199 176.642 725.482 174.295C726.802 171.912 728.636 170.097 730.982 168.85C733.329 167.567 736.006 166.925 739.012 166.925C742.056 166.925 744.732 167.548 747.042 168.795C749.352 170.042 751.131 171.802 752.377 174.075C753.661 176.312 754.302 178.897 754.302 181.83ZM744.787 180.4C744.824 178.383 744.274 176.88 743.137 175.89C742.037 174.863 740.662 174.35 739.012 174.35C737.289 174.35 735.859 174.863 734.722 175.89C733.586 176.917 732.944 178.42 732.797 180.4H744.787ZM770.37 166.925C774.257 166.925 777.355 167.897 779.665 169.84C782.012 171.783 783.478 174.35 784.065 177.54H775.265C775.008 176.293 774.422 175.322 773.505 174.625C772.625 173.892 771.507 173.525 770.15 173.525C769.087 173.525 768.28 173.763 767.73 174.24C767.18 174.68 766.905 175.322 766.905 176.165C766.905 177.118 767.4 177.833 768.39 178.31C769.417 178.787 771.012 179.263 773.175 179.74C775.522 180.29 777.447 180.858 778.95 181.445C780.453 181.995 781.755 182.912 782.855 184.195C783.955 185.478 784.505 187.202 784.505 189.365C784.505 191.125 784.028 192.683 783.075 194.04C782.122 195.397 780.747 196.46 778.95 197.23C777.153 198 775.027 198.385 772.57 198.385C768.427 198.385 765.108 197.468 762.615 195.635C760.122 193.802 758.6 191.18 758.05 187.77H767.125C767.272 189.09 767.822 190.098 768.775 190.795C769.765 191.492 771.03 191.84 772.57 191.84C773.633 191.84 774.44 191.602 774.99 191.125C775.54 190.612 775.815 189.952 775.815 189.145C775.815 188.082 775.302 187.33 774.275 186.89C773.285 186.413 771.653 185.918 769.38 185.405C767.107 184.928 765.237 184.415 763.77 183.865C762.303 183.315 761.038 182.435 759.975 181.225C758.912 179.978 758.38 178.292 758.38 176.165C758.38 173.415 759.425 171.197 761.515 169.51C763.605 167.787 766.557 166.925 770.37 166.925ZM801.153 156.31C805.039 156.31 808.138 157.318 810.448 159.335C812.758 161.315 813.913 164.175 813.913 167.915C813.913 171.398 812.776 174.13 810.503 176.11C808.266 178.09 805.259 179.117 801.483 179.19V184.085H792.628V173.14H796.313C798.953 173.14 801.006 172.773 802.473 172.04C803.939 171.27 804.673 169.913 804.673 167.97C804.673 166.723 804.324 165.752 803.628 165.055C802.931 164.358 801.996 164.01 800.823 164.01C799.503 164.01 798.458 164.413 797.688 165.22C796.954 165.99 796.588 166.98 796.588 168.19H787.733C787.659 165.99 788.118 163.992 789.108 162.195C790.134 160.362 791.674 158.932 793.728 157.905C795.781 156.842 798.256 156.31 801.153 156.31ZM801.978 188.595V198H792.188V188.595H801.978Z" fill="white"/>
<path d="M1143.79 198H1134.38L1118.65 174.13V198H1109.25V159.115H1118.65L1134.38 183.205V159.115H1143.79V198ZM1164.64 166.925C1167.68 166.925 1170.39 167.567 1172.78 168.85C1175.2 170.097 1177.08 171.912 1178.44 174.295C1179.83 176.678 1180.53 179.465 1180.53 182.655C1180.53 185.845 1179.83 188.632 1178.44 191.015C1177.08 193.398 1175.2 195.232 1172.78 196.515C1170.39 197.762 1167.68 198.385 1164.64 198.385C1161.59 198.385 1158.86 197.762 1156.44 196.515C1154.02 195.232 1152.11 193.398 1150.72 191.015C1149.36 188.632 1148.69 185.845 1148.69 182.655C1148.69 179.465 1149.36 176.678 1150.72 174.295C1152.11 171.912 1154.02 170.097 1156.44 168.85C1158.86 167.567 1161.59 166.925 1164.64 166.925ZM1164.64 175.065C1162.84 175.065 1161.32 175.725 1160.07 177.045C1158.86 178.328 1158.26 180.198 1158.26 182.655C1158.26 185.112 1158.86 186.982 1160.07 188.265C1161.32 189.548 1162.84 190.19 1164.64 190.19C1166.43 190.19 1167.94 189.548 1169.15 188.265C1170.36 186.982 1170.96 185.112 1170.96 182.655C1170.96 180.198 1170.36 178.328 1169.15 177.045C1167.94 175.725 1166.43 175.065 1164.64 175.065ZM1202.79 189.915V198H1198.55C1194.96 198 1192.15 197.12 1190.14 195.36C1188.16 193.563 1187.17 190.612 1187.17 186.505V175.23H1183.04V167.31H1187.17V159.775H1196.57V167.31H1202.73V175.23H1196.57V186.67C1196.57 187.88 1196.81 188.723 1197.29 189.2C1197.8 189.677 1198.64 189.915 1199.82 189.915H1202.79ZM1248.23 181.83C1248.23 182.6 1248.14 183.443 1247.96 184.36H1226.67C1226.78 186.67 1227.37 188.338 1228.43 189.365C1229.5 190.355 1230.85 190.85 1232.5 190.85C1233.9 190.85 1235.05 190.502 1235.97 189.805C1236.89 189.108 1237.49 188.21 1237.78 187.11H1247.74C1247.34 189.273 1246.46 191.217 1245.1 192.94C1243.74 194.627 1242.02 195.965 1239.93 196.955C1237.84 197.908 1235.51 198.385 1232.94 198.385C1229.94 198.385 1227.26 197.762 1224.91 196.515C1222.6 195.232 1220.79 193.398 1219.47 191.015C1218.15 188.632 1217.49 185.845 1217.49 182.655C1217.49 179.428 1218.13 176.642 1219.41 174.295C1220.73 171.912 1222.57 170.097 1224.91 168.85C1227.26 167.567 1229.94 166.925 1232.94 166.925C1235.99 166.925 1238.66 167.548 1240.97 168.795C1243.28 170.042 1245.06 171.802 1246.31 174.075C1247.59 176.312 1248.23 178.897 1248.23 181.83ZM1238.72 180.4C1238.76 178.383 1238.21 176.88 1237.07 175.89C1235.97 174.863 1234.59 174.35 1232.94 174.35C1231.22 174.35 1229.79 174.863 1228.65 175.89C1227.52 176.917 1226.88 178.42 1226.73 180.4H1238.72ZM1267.33 188.815L1273.98 167.31H1283.99L1273.1 198H1261.44L1250.55 167.31H1260.56L1267.33 188.815ZM1317.04 181.83C1317.04 182.6 1316.95 183.443 1316.76 184.36H1295.48C1295.59 186.67 1296.17 188.338 1297.24 189.365C1298.3 190.355 1299.66 190.85 1301.31 190.85C1302.7 190.85 1303.86 190.502 1304.77 189.805C1305.69 189.108 1306.29 188.21 1306.59 187.11H1316.54C1316.14 189.273 1315.26 191.217 1313.9 192.94C1312.55 194.627 1310.82 195.965 1308.73 196.955C1306.64 197.908 1304.31 198.385 1301.75 198.385C1298.74 198.385 1296.06 197.762 1293.72 196.515C1291.41 195.232 1289.59 193.398 1288.27 191.015C1286.95 188.632 1286.29 185.845 1286.29 182.655C1286.29 179.428 1286.93 176.642 1288.22 174.295C1289.54 171.912 1291.37 170.097 1293.72 168.85C1296.06 167.567 1298.74 166.925 1301.75 166.925C1304.79 166.925 1307.47 167.548 1309.78 168.795C1312.09 170.042 1313.87 171.802 1315.11 174.075C1316.4 176.312 1317.04 178.897 1317.04 181.83ZM1307.52 180.4C1307.56 178.383 1307.01 176.88 1305.87 175.89C1304.77 174.863 1303.4 174.35 1301.75 174.35C1300.02 174.35 1298.59 174.863 1297.46 175.89C1296.32 176.917 1295.68 178.42 1295.53 180.4H1307.52ZM1331.35 173.085C1332.52 171.215 1334.02 169.73 1335.86 168.63C1337.73 167.53 1339.74 166.98 1341.91 166.98V177.045H1339.21C1336.72 177.045 1334.77 177.577 1333.38 178.64C1332.02 179.703 1331.35 181.5 1331.35 184.03V198H1321.94V167.31H1331.35V173.085ZM1352.94 167.31L1360.31 186.12L1367.18 167.31H1377.58L1358.44 212.63H1348.1L1355.3 196.845L1342.43 167.31H1352.94ZM1395.06 166.925C1398.1 166.925 1400.81 167.567 1403.2 168.85C1405.62 170.097 1407.5 171.912 1408.86 174.295C1410.25 176.678 1410.95 179.465 1410.95 182.655C1410.95 185.845 1410.25 188.632 1408.86 191.015C1407.5 193.398 1405.62 195.232 1403.2 196.515C1400.81 197.762 1398.1 198.385 1395.06 198.385C1392.01 198.385 1389.28 197.762 1386.86 196.515C1384.44 195.232 1382.53 193.398 1381.14 191.015C1379.78 188.632 1379.11 185.845 1379.11 182.655C1379.11 179.465 1379.78 176.678 1381.14 174.295C1382.53 171.912 1384.44 170.097 1386.86 168.85C1389.28 167.567 1392.01 166.925 1395.06 166.925ZM1395.06 175.065C1393.26 175.065 1391.74 175.725 1390.49 177.045C1389.28 178.328 1388.68 180.198 1388.68 182.655C1388.68 185.112 1389.28 186.982 1390.49 188.265C1391.74 189.548 1393.26 190.19 1395.06 190.19C1396.85 190.19 1398.36 189.548 1399.57 188.265C1400.78 186.982 1401.38 185.112 1401.38 182.655C1401.38 180.198 1400.78 178.328 1399.57 177.045C1398.36 175.725 1396.85 175.065 1395.06 175.065ZM1435.3 166.98C1438.82 166.98 1441.6 168.153 1443.66 170.5C1445.75 172.847 1446.79 176.073 1446.79 180.18V198H1437.39V181.28C1437.39 179.227 1436.84 177.632 1435.74 176.495C1434.67 175.322 1433.24 174.735 1431.45 174.735C1429.54 174.735 1428.02 175.34 1426.88 176.55C1425.78 177.76 1425.23 179.483 1425.23 181.72V198H1415.83V167.31H1425.23V172.92C1426.11 171.087 1427.41 169.638 1429.14 168.575C1430.9 167.512 1432.95 166.98 1435.3 166.98ZM1482.15 181.83C1482.15 182.6 1482.05 183.443 1481.87 184.36H1460.59C1460.7 186.67 1461.28 188.338 1462.35 189.365C1463.41 190.355 1464.77 190.85 1466.42 190.85C1467.81 190.85 1468.96 190.502 1469.88 189.805C1470.8 189.108 1471.4 188.21 1471.7 187.11H1481.65C1481.25 189.273 1480.37 191.217 1479.01 192.94C1477.65 194.627 1475.93 195.965 1473.84 196.955C1471.75 197.908 1469.42 198.385 1466.86 198.385C1463.85 198.385 1461.17 197.762 1458.83 196.515C1456.52 195.232 1454.7 193.398 1453.38 191.015C1452.06 188.632 1451.4 185.845 1451.4 182.655C1451.4 179.428 1452.04 176.642 1453.33 174.295C1454.65 171.912 1456.48 170.097 1458.83 168.85C1461.17 167.567 1463.85 166.925 1466.86 166.925C1469.9 166.925 1472.58 167.548 1474.89 168.795C1477.2 170.042 1478.97 171.802 1480.22 174.075C1481.5 176.312 1482.15 178.897 1482.15 181.83ZM1472.63 180.4C1472.67 178.383 1472.12 176.88 1470.98 175.89C1469.88 174.863 1468.51 174.35 1466.86 174.35C1465.13 174.35 1463.7 174.863 1462.57 175.89C1461.43 176.917 1460.79 178.42 1460.64 180.4H1472.63ZM1516.65 198L1507.46 184.965V198H1498.06V157.3H1507.46V179.63L1516.65 167.31H1527.7L1515.33 182.655L1527.98 198H1516.65ZM1550.88 166.98C1554.4 166.98 1557.19 168.153 1559.24 170.5C1561.33 172.847 1562.38 176.073 1562.38 180.18V198H1552.97V181.28C1552.97 179.227 1552.42 177.632 1551.32 176.495C1550.26 175.322 1548.83 174.735 1547.03 174.735C1545.13 174.735 1543.6 175.34 1542.47 176.55C1541.37 177.76 1540.82 179.483 1540.82 181.72V198H1531.41V167.31H1540.82V172.92C1541.7 171.087 1543 169.638 1544.72 168.575C1546.48 167.512 1548.54 166.98 1550.88 166.98ZM1582.94 166.925C1585.98 166.925 1588.69 167.567 1591.08 168.85C1593.5 170.097 1595.38 171.912 1596.74 174.295C1598.13 176.678 1598.83 179.465 1598.83 182.655C1598.83 185.845 1598.13 188.632 1596.74 191.015C1595.38 193.398 1593.5 195.232 1591.08 196.515C1588.69 197.762 1585.98 198.385 1582.94 198.385C1579.89 198.385 1577.16 197.762 1574.74 196.515C1572.32 195.232 1570.41 193.398 1569.02 191.015C1567.66 188.632 1566.99 185.845 1566.99 182.655C1566.99 179.465 1567.66 176.678 1569.02 174.295C1570.41 171.912 1572.32 170.097 1574.74 168.85C1577.16 167.567 1579.89 166.925 1582.94 166.925ZM1582.94 175.065C1581.14 175.065 1579.62 175.725 1578.37 177.045C1577.16 178.328 1576.56 180.198 1576.56 182.655C1576.56 185.112 1577.16 186.982 1578.37 188.265C1579.62 189.548 1581.14 190.19 1582.94 190.19C1584.73 190.19 1586.24 189.548 1587.45 188.265C1588.66 186.982 1589.26 185.112 1589.26 182.655C1589.26 180.198 1588.66 178.328 1587.45 177.045C1586.24 175.725 1584.73 175.065 1582.94 175.065ZM1648.59 167.31L1640.72 198H1630.22L1624.66 177.43L1619.05 198H1608.55L1600.68 167.31H1610.09L1614.16 189.42L1619.88 167.31H1629.89L1635.77 189.475L1639.84 167.31H1648.59ZM1663.16 166.925C1667.05 166.925 1670.14 167.897 1672.45 169.84C1674.8 171.783 1676.27 174.35 1676.85 177.54H1668.05C1667.8 176.293 1667.21 175.322 1666.29 174.625C1665.41 173.892 1664.3 173.525 1662.94 173.525C1661.88 173.525 1661.07 173.763 1660.52 174.24C1659.97 174.68 1659.69 175.322 1659.69 176.165C1659.69 177.118 1660.19 177.833 1661.18 178.31C1662.21 178.787 1663.8 179.263 1665.96 179.74C1668.31 180.29 1670.24 180.858 1671.74 181.445C1673.24 181.995 1674.54 182.912 1675.64 184.195C1676.74 185.478 1677.29 187.202 1677.29 189.365C1677.29 191.125 1676.82 192.683 1675.86 194.04C1674.91 195.397 1673.54 196.46 1671.74 197.23C1669.94 198 1667.82 198.385 1665.36 198.385C1661.22 198.385 1657.9 197.468 1655.4 195.635C1652.91 193.802 1651.39 191.18 1650.84 187.77H1659.91C1660.06 189.09 1660.61 190.098 1661.56 190.795C1662.55 191.492 1663.82 191.84 1665.36 191.84C1666.42 191.84 1667.23 191.602 1667.78 191.125C1668.33 190.612 1668.6 189.952 1668.6 189.145C1668.6 188.082 1668.09 187.33 1667.06 186.89C1666.07 186.413 1664.44 185.918 1662.17 185.405C1659.9 184.928 1658.03 184.415 1656.56 183.865C1655.09 183.315 1653.83 182.435 1652.76 181.225C1651.7 179.978 1651.17 178.292 1651.17 176.165C1651.17 173.415 1652.21 171.197 1654.3 169.51C1656.39 167.787 1659.35 166.925 1663.16 166.925ZM1710.89 189.915V198H1706.66C1703.06 198 1700.26 197.12 1698.24 195.36C1696.26 193.563 1695.27 190.612 1695.27 186.505V175.23H1691.15V167.31H1695.27V159.775H1704.68V167.31H1710.84V175.23H1704.68V186.67C1704.68 187.88 1704.92 188.723 1705.39 189.2C1705.91 189.677 1706.75 189.915 1707.92 189.915H1710.89ZM1735.65 166.98C1739.17 166.98 1741.96 168.153 1744.01 170.5C1746.1 172.847 1747.14 176.073 1747.14 180.18V198H1737.74V181.28C1737.74 179.227 1737.19 177.632 1736.09 176.495C1735.03 175.322 1733.6 174.735 1731.8 174.735C1729.89 174.735 1728.37 175.34 1727.23 176.55C1726.13 177.76 1725.58 179.483 1725.58 181.72V198H1716.18V157.3H1725.58V172.92C1726.46 171.087 1727.77 169.638 1729.49 168.575C1731.25 167.512 1733.3 166.98 1735.65 166.98ZM1782.5 181.83C1782.5 182.6 1782.4 183.443 1782.22 184.36H1760.94C1761.05 186.67 1761.63 188.338 1762.7 189.365C1763.76 190.355 1765.12 190.85 1766.77 190.85C1768.16 190.85 1769.31 190.502 1770.23 189.805C1771.15 189.108 1771.75 188.21 1772.05 187.11H1782C1781.6 189.273 1780.72 191.217 1779.36 192.94C1778 194.627 1776.28 195.965 1774.19 196.955C1772.1 197.908 1769.77 198.385 1767.21 198.385C1764.2 198.385 1761.52 197.762 1759.18 196.515C1756.87 195.232 1755.05 193.398 1753.73 191.015C1752.41 188.632 1751.75 185.845 1751.75 182.655C1751.75 179.428 1752.39 176.642 1753.68 174.295C1755 171.912 1756.83 170.097 1759.18 168.85C1761.52 167.567 1764.2 166.925 1767.21 166.925C1770.25 166.925 1772.93 167.548 1775.24 168.795C1777.55 170.042 1779.32 171.802 1780.57 174.075C1781.85 176.312 1782.5 178.897 1782.5 181.83ZM1772.98 180.4C1773.02 178.383 1772.47 176.88 1771.33 175.89C1770.23 174.863 1768.86 174.35 1767.21 174.35C1765.48 174.35 1764.05 174.863 1762.92 175.89C1761.78 176.917 1761.14 178.42 1760.99 180.4H1772.98ZM1794.49 167.31L1801.86 186.12L1808.74 167.31H1819.13L1799.99 212.63H1789.65L1796.86 196.845L1783.99 167.31H1794.49ZM1128.72 249.98C1132.24 249.98 1135.02 251.153 1137.07 253.5C1139.17 255.847 1140.21 259.073 1140.21 263.18V281H1130.81V264.28C1130.81 262.227 1130.26 260.632 1129.16 259.495C1128.09 258.322 1126.66 257.735 1124.87 257.735C1122.96 257.735 1121.44 258.34 1120.3 259.55C1119.2 260.76 1118.65 262.483 1118.65 264.72V281H1109.25V240.3H1118.65V255.92C1119.53 254.087 1120.83 252.638 1122.56 251.575C1124.32 250.512 1126.37 249.98 1128.72 249.98ZM1158.07 249.925C1160.42 249.925 1162.44 250.457 1164.12 251.52C1165.81 252.583 1167.06 254.032 1167.86 255.865V250.31H1177.21V281H1167.86V275.445C1167.06 277.278 1165.81 278.727 1164.12 279.79C1162.44 280.853 1160.42 281.385 1158.07 281.385C1155.54 281.385 1153.27 280.762 1151.25 279.515C1149.27 278.232 1147.7 276.398 1146.52 274.015C1145.39 271.632 1144.82 268.845 1144.82 265.655C1144.82 262.428 1145.39 259.642 1146.52 257.295C1147.7 254.912 1149.27 253.097 1151.25 251.85C1153.27 250.567 1155.54 249.925 1158.07 249.925ZM1161.1 258.175C1159.08 258.175 1157.45 258.835 1156.2 260.155C1154.99 261.475 1154.39 263.308 1154.39 265.655C1154.39 268.002 1154.99 269.835 1156.2 271.155C1157.45 272.475 1159.08 273.135 1161.1 273.135C1163.08 273.135 1164.69 272.457 1165.94 271.1C1167.22 269.743 1167.86 267.928 1167.86 265.655C1167.86 263.345 1167.22 261.53 1165.94 260.21C1164.69 258.853 1163.08 258.175 1161.1 258.175ZM1197.88 271.815L1204.53 250.31H1214.54L1203.65 281H1191.99L1181.1 250.31H1191.11L1197.88 271.815ZM1247.59 264.83C1247.59 265.6 1247.5 266.443 1247.31 267.36H1226.03C1226.14 269.67 1226.73 271.338 1227.79 272.365C1228.85 273.355 1230.21 273.85 1231.86 273.85C1233.25 273.85 1234.41 273.502 1235.32 272.805C1236.24 272.108 1236.85 271.21 1237.14 270.11H1247.09C1246.69 272.273 1245.81 274.217 1244.45 275.94C1243.1 277.627 1241.37 278.965 1239.28 279.955C1237.19 280.908 1234.87 281.385 1232.3 281.385C1229.29 281.385 1226.62 280.762 1224.27 279.515C1221.96 278.232 1220.14 276.398 1218.82 274.015C1217.5 271.632 1216.84 268.845 1216.84 265.655C1216.84 262.428 1217.49 259.642 1218.77 257.295C1220.09 254.912 1221.92 253.097 1224.27 251.85C1226.62 250.567 1229.29 249.925 1232.3 249.925C1235.34 249.925 1238.02 250.548 1240.33 251.795C1242.64 253.042 1244.42 254.802 1245.66 257.075C1246.95 259.312 1247.59 261.897 1247.59 264.83ZM1238.07 263.4C1238.11 261.383 1237.56 259.88 1236.42 258.89C1235.32 257.863 1233.95 257.35 1232.3 257.35C1230.58 257.35 1229.15 257.863 1228.01 258.89C1226.87 259.917 1226.23 261.42 1226.08 263.4H1238.07ZM1262.62 241.675C1262.62 240.245 1263.14 239.072 1264.16 238.155C1265.19 237.202 1266.55 236.725 1268.23 236.725C1269.92 236.725 1271.28 237.202 1272.3 238.155C1273.33 239.072 1273.84 240.245 1273.84 241.675C1273.84 243.068 1273.33 244.242 1272.3 245.195C1271.28 246.112 1269.92 246.57 1268.23 246.57C1266.55 246.57 1265.19 246.112 1264.16 245.195C1263.14 244.242 1262.62 243.068 1262.62 241.675ZM1272.91 250.31V281H1263.5V250.31H1272.91ZM1296.78 272.915V281H1292.55C1288.95 281 1286.15 280.12 1284.13 278.36C1282.15 276.563 1281.16 273.612 1281.16 269.505V258.23H1277.04V250.31H1281.16V242.775H1290.57V250.31H1296.73V258.23H1290.57V269.67C1290.57 270.88 1290.8 271.723 1291.28 272.2C1291.79 272.677 1292.64 272.915 1293.81 272.915H1296.78Z" fill="white"/>
<circle cx="1437.5" cy="385.5" r="118.5" fill="#7D3C00"/>
<circle cx="1437.5" cy="385.5" r="118.5" stroke="white"/>
<path d="M1392.01 370.122C1392.01 374.136 1390.79 377.549 1388.36 380.361C1385.93 383.174 1382.52 385.107 1378.12 386.162V386.426C1383.31 387.07 1387.24 388.652 1389.9 391.172C1392.57 393.662 1393.9 397.031 1393.9 401.279C1393.9 407.461 1391.66 412.28 1387.18 415.737C1382.69 419.165 1376.29 420.879 1367.97 420.879C1361 420.879 1354.82 419.722 1349.43 417.407V405.85C1351.92 407.109 1354.66 408.135 1357.65 408.926C1360.63 409.717 1363.59 410.112 1366.52 410.112C1371 410.112 1374.32 409.351 1376.45 407.827C1378.59 406.304 1379.66 403.857 1379.66 400.488C1379.66 397.471 1378.43 395.332 1375.97 394.072C1373.51 392.812 1369.58 392.183 1364.19 392.183H1359.32V381.768H1364.28C1369.26 381.768 1372.89 381.123 1375.18 379.834C1377.49 378.516 1378.65 376.274 1378.65 373.11C1378.65 368.247 1375.6 365.815 1369.51 365.815C1367.4 365.815 1365.25 366.167 1363.05 366.87C1360.88 367.573 1358.47 368.789 1355.8 370.518L1349.52 361.157C1355.38 356.938 1362.36 354.829 1370.48 354.829C1377.13 354.829 1382.37 356.177 1386.21 358.872C1390.08 361.567 1392.01 365.317 1392.01 370.122ZM1443.43 370.122C1443.43 374.136 1442.21 377.549 1439.78 380.361C1437.35 383.174 1433.93 385.107 1429.54 386.162V386.426C1434.73 387.07 1438.65 388.652 1441.32 391.172C1443.98 393.662 1445.32 397.031 1445.32 401.279C1445.32 407.461 1443.08 412.28 1438.59 415.737C1434.11 419.165 1427.71 420.879 1419.39 420.879C1412.42 420.879 1406.23 419.722 1400.84 417.407V405.85C1403.33 407.109 1406.07 408.135 1409.06 408.926C1412.05 409.717 1415.01 410.112 1417.94 410.112C1422.42 410.112 1425.73 409.351 1427.87 407.827C1430.01 406.304 1431.08 403.857 1431.08 400.488C1431.08 397.471 1429.85 395.332 1427.39 394.072C1424.93 392.812 1421 392.183 1415.61 392.183H1410.73V381.768H1415.7C1420.68 381.768 1424.31 381.123 1426.6 379.834C1428.91 378.516 1430.07 376.274 1430.07 373.11C1430.07 368.247 1427.02 365.815 1420.93 365.815C1418.82 365.815 1416.66 366.167 1414.47 366.87C1412.3 367.573 1409.88 368.789 1407.22 370.518L1400.93 361.157C1406.79 356.938 1413.78 354.829 1421.89 354.829C1428.54 354.829 1433.79 356.177 1437.63 358.872C1441.49 361.567 1443.43 365.317 1443.43 370.122ZM1462.67 375C1462.67 378.721 1463 381.504 1463.64 383.35C1464.32 385.166 1465.38 386.074 1466.85 386.074C1469.66 386.074 1471.07 382.383 1471.07 375C1471.07 367.676 1469.66 364.014 1466.85 364.014C1465.38 364.014 1464.32 364.922 1463.64 366.738C1463 368.525 1462.67 371.279 1462.67 375ZM1482.14 374.912C1482.14 381.65 1480.84 386.719 1478.23 390.117C1475.62 393.486 1471.8 395.171 1466.76 395.171C1461.93 395.171 1458.19 393.442 1455.56 389.985C1452.92 386.499 1451.6 381.475 1451.6 374.912C1451.6 361.523 1456.65 354.829 1466.76 354.829C1471.71 354.829 1475.51 356.572 1478.14 360.059C1480.81 363.516 1482.14 368.467 1482.14 374.912ZM1512.38 355.752L1476.74 420H1466.19L1501.83 355.752H1512.38ZM1507.67 400.664C1507.67 404.385 1508 407.168 1508.64 409.014C1509.32 410.83 1510.38 411.738 1511.85 411.738C1514.66 411.738 1516.07 408.047 1516.07 400.664C1516.07 393.34 1514.66 389.678 1511.85 389.678C1510.38 389.678 1509.32 390.586 1508.64 392.402C1508 394.189 1507.67 396.943 1507.67 400.664ZM1527.14 400.576C1527.14 407.285 1525.84 412.339 1523.23 415.737C1520.62 419.106 1516.8 420.791 1511.76 420.791C1506.93 420.791 1503.19 419.062 1500.56 415.605C1497.92 412.119 1496.6 407.109 1496.6 400.576C1496.6 387.188 1501.65 380.493 1511.76 380.493C1516.71 380.493 1520.51 382.236 1523.14 385.723C1525.81 389.18 1527.14 394.131 1527.14 400.576Z" fill="white"/>
<rect x="6.5" y="6.5" width="1867" height="758" stroke="#FF8E3C" stroke-width="13" stroke-dasharray="15 10"/>
</svg>
