<svg width="23" height="20" viewBox="0 0 23 20" fill="none" xmlns="http://www.w3.org/2000/svg">
<path fill-rule="evenodd" clip-rule="evenodd" d="M15.25 0.25L22 0.25C22.4142 0.25 22.75 0.585786 22.75 1V7.75C22.75 8.16421 22.4142 8.5 22 8.5C21.5858 8.5 21.25 8.16421 21.25 7.75V2.81066L10.5303 13.5303L9.46967 12.4697L20.1893 1.75L15.25 1.75C14.8358 1.75 14.5 1.41421 14.5 1C14.5 0.585787 14.8358 0.25 15.25 0.25ZM3 3.75C2.30964 3.75 1.75 4.30964 1.75 5V17C1.75 17.6904 2.30964 18.25 3 18.25H15C15.6904 18.25 16.25 17.6904 16.25 17V11H17.75V17C17.75 18.5188 16.5188 19.75 15 19.75H3C1.48122 19.75 0.25 18.5188 0.25 17V5C0.25 3.48122 1.48122 2.25 3 2.25H11.5V3.75H3Z" fill="black"/>
</svg>
