<svg width="1269" height="960" viewBox="0 0 1269 960" fill="none" xmlns="http://www.w3.org/2000/svg">
<rect width="1269" height="960" fill="#22313F"/>
<rect x="264.5" y="68.5" width="999" height="863" stroke="#FF4D00" stroke-width="11" stroke-dasharray="15 10"/>
<path d="M338.44 107.304C343.24 107.304 347.584 108.432 351.472 110.688C355.408 112.896 358.504 115.992 360.76 119.976C363.016 123.912 364.144 128.376 364.144 133.368C364.144 138.36 362.992 142.848 360.688 146.832C358.432 150.816 355.336 153.936 351.4 156.192C347.512 158.4 343.192 159.504 338.44 159.504C333.688 159.504 329.344 158.4 325.408 156.192C321.52 153.936 318.424 150.816 316.12 146.832C313.864 142.848 312.736 138.36 312.736 133.368C312.736 128.376 313.864 123.912 316.12 119.976C318.424 115.992 321.52 112.896 325.408 110.688C329.344 108.432 333.688 107.304 338.44 107.304ZM338.44 118.752C334.408 118.752 331.192 120.072 328.792 122.712C326.44 125.304 325.264 128.856 325.264 133.368C325.264 137.832 326.44 141.384 328.792 144.024C331.192 146.664 334.408 147.984 338.44 147.984C342.424 147.984 345.616 146.664 348.016 144.024C350.416 141.384 351.616 137.832 351.616 133.368C351.616 128.904 350.416 125.352 348.016 122.712C345.664 120.072 342.472 118.752 338.44 118.752ZM411.021 118.824V159H398.637V151.728C397.485 154.08 395.757 155.952 393.453 157.344C391.197 158.736 388.557 159.432 385.533 159.432C380.925 159.432 377.253 157.896 374.517 154.824C371.829 151.752 370.485 147.528 370.485 142.152V118.824H382.725V140.64C382.725 143.376 383.421 145.512 384.812 147.048C386.253 148.536 388.173 149.28 390.573 149.28C393.069 149.28 395.037 148.488 396.477 146.904C397.917 145.32 398.637 143.064 398.637 140.136V118.824H411.021ZM431.818 126.384C433.354 123.936 435.322 121.992 437.722 120.552C440.17 119.112 442.81 118.392 445.642 118.392V131.568H442.114C438.85 131.568 436.306 132.264 434.482 133.656C432.706 135.048 431.818 137.4 431.818 140.712V159H419.506V118.824H431.818V126.384ZM483.353 118.32C488.537 118.32 492.881 119.76 496.385 122.64C499.889 125.472 502.097 129.384 503.009 134.376H489.977C489.593 132.648 488.801 131.304 487.601 130.344C486.401 129.384 484.889 128.904 483.065 128.904C480.905 128.904 479.129 129.768 477.737 131.496C476.345 133.176 475.649 135.648 475.649 138.912C475.649 142.176 476.345 144.672 477.737 146.4C479.129 148.08 480.905 148.92 483.065 148.92C484.889 148.92 486.401 148.44 487.601 147.48C488.801 146.52 489.593 145.176 489.977 143.448H503.009C502.097 148.44 499.889 152.376 496.385 155.256C492.881 158.088 488.537 159.504 483.353 159.504C479.417 159.504 475.913 158.688 472.841 157.056C469.817 155.376 467.441 152.976 465.713 149.856C463.985 146.736 463.121 143.088 463.121 138.912C463.121 134.688 463.961 131.04 465.641 127.968C467.369 124.848 469.769 122.472 472.841 120.84C475.913 119.16 479.417 118.32 483.353 118.32ZM528.228 118.32C532.212 118.32 535.764 119.16 538.884 120.84C542.052 122.472 544.524 124.848 546.3 127.968C548.124 131.088 549.036 134.736 549.036 138.912C549.036 143.088 548.124 146.736 546.3 149.856C544.524 152.976 542.052 155.376 538.884 157.056C535.764 158.688 532.212 159.504 528.228 159.504C524.244 159.504 520.668 158.688 517.5 157.056C514.332 155.376 511.836 152.976 510.012 149.856C508.236 146.736 507.348 143.088 507.348 138.912C507.348 134.736 508.236 131.088 510.012 127.968C511.836 124.848 514.332 122.472 517.5 120.84C520.668 119.16 524.244 118.32 528.228 118.32ZM528.228 128.976C525.876 128.976 523.884 129.84 522.252 131.568C520.668 133.248 519.876 135.696 519.876 138.912C519.876 142.128 520.668 144.576 522.252 146.256C523.884 147.936 525.876 148.776 528.228 148.776C530.58 148.776 532.548 147.936 534.132 146.256C535.716 144.576 536.508 142.128 536.508 138.912C536.508 135.696 535.716 133.248 534.132 131.568C532.548 129.84 530.58 128.976 528.228 128.976ZM580.908 118.392C585.516 118.392 589.164 119.928 591.852 123C594.588 126.072 595.956 130.296 595.956 135.672V159H583.644V137.112C583.644 134.424 582.924 132.336 581.484 130.848C580.092 129.312 578.22 128.544 575.868 128.544C573.372 128.544 571.38 129.336 569.892 130.92C568.452 132.504 567.732 134.76 567.732 137.688V159H555.42V118.824H567.732V126.168C568.884 123.768 570.588 121.872 572.844 120.48C575.148 119.088 577.836 118.392 580.908 118.392ZM618.692 118.32C623.78 118.32 627.836 119.592 630.86 122.136C633.932 124.68 635.852 128.04 636.62 132.216H625.1C624.764 130.584 623.996 129.312 622.796 128.4C621.644 127.44 620.18 126.96 618.404 126.96C617.012 126.96 615.956 127.272 615.236 127.896C614.516 128.472 614.156 129.312 614.156 130.416C614.156 131.664 614.804 132.6 616.1 133.224C617.444 133.848 619.532 134.472 622.364 135.096C625.436 135.816 627.956 136.56 629.924 137.328C631.892 138.048 633.596 139.248 635.036 140.928C636.476 142.608 637.196 144.864 637.196 147.696C637.196 150 636.572 152.04 635.324 153.816C634.076 155.592 632.276 156.984 629.924 157.992C627.572 159 624.788 159.504 621.572 159.504C616.148 159.504 611.804 158.304 608.54 155.904C605.276 153.504 603.284 150.072 602.564 145.608H614.444C614.636 147.336 615.356 148.656 616.604 149.568C617.9 150.48 619.556 150.936 621.572 150.936C622.964 150.936 624.02 150.624 624.74 150C625.46 149.328 625.82 148.464 625.82 147.408C625.82 146.016 625.148 145.032 623.804 144.456C622.508 143.832 620.372 143.184 617.396 142.512C614.42 141.888 611.972 141.216 610.052 140.496C608.132 139.776 606.476 138.624 605.084 137.04C603.692 135.408 602.996 133.2 602.996 130.416C602.996 126.816 604.364 123.912 607.1 121.704C609.836 119.448 613.7 118.32 618.692 118.32ZM683.974 118.824V159H671.59V151.728C670.438 154.08 668.71 155.952 666.406 157.344C664.15 158.736 661.51 159.432 658.486 159.432C653.878 159.432 650.206 157.896 647.47 154.824C644.782 151.752 643.438 147.528 643.438 142.152V118.824H655.678V140.64C655.678 143.376 656.374 145.512 657.766 147.048C659.206 148.536 661.126 149.28 663.526 149.28C666.022 149.28 667.99 148.488 669.43 146.904C670.87 145.32 671.59 143.064 671.59 140.136V118.824H683.974ZM744.515 118.392C749.459 118.392 753.347 119.928 756.179 123C759.011 126.024 760.427 130.248 760.427 135.672V159H748.187V137.112C748.187 134.568 747.491 132.6 746.099 131.208C744.755 129.768 742.907 129.048 740.555 129.048C738.107 129.048 736.163 129.816 734.723 131.352C733.331 132.84 732.635 134.952 732.635 137.688V159H720.323V137.112C720.323 134.568 719.651 132.6 718.307 131.208C716.963 129.768 715.115 129.048 712.763 129.048C710.315 129.048 708.371 129.792 706.931 131.28C705.491 132.768 704.771 134.904 704.771 137.688V159H692.459V118.824H704.771V125.664C705.827 123.408 707.435 121.632 709.595 120.336C711.803 119.04 714.371 118.392 717.299 118.392C720.371 118.392 723.083 119.112 725.435 120.552C727.787 121.944 729.563 123.96 730.763 126.6C732.155 124.104 734.051 122.112 736.451 120.624C738.899 119.136 741.587 118.392 744.515 118.392ZM793.663 118.32C796.975 118.32 799.927 119.16 802.519 120.84C805.159 122.472 807.223 124.848 808.711 127.968C810.247 131.04 811.015 134.688 811.015 138.912C811.015 143.088 810.247 146.736 808.711 149.856C807.223 152.976 805.159 155.376 802.519 157.056C799.927 158.688 796.975 159.504 793.663 159.504C790.591 159.504 787.951 158.808 785.743 157.416C783.535 156.024 781.927 154.128 780.919 151.728V178.152H768.607V118.824H780.919V126.096C781.927 123.696 783.535 121.8 785.743 120.408C787.951 119.016 790.591 118.32 793.663 118.32ZM789.703 129.12C787.111 129.12 784.975 130.008 783.295 131.784C781.663 133.512 780.847 135.888 780.847 138.912C780.847 141.888 781.663 144.264 783.295 146.04C784.975 147.816 787.111 148.704 789.703 148.704C792.343 148.704 794.455 147.84 796.039 146.112C797.671 144.384 798.487 141.984 798.487 138.912C798.487 135.84 797.671 133.44 796.039 131.712C794.455 129.984 792.343 129.12 789.703 129.12ZM840.156 148.416V159H834.612C829.908 159 826.236 157.848 823.596 155.544C821.004 153.192 819.708 149.328 819.708 143.952V129.192H814.308V118.824H819.708V108.96H832.02V118.824H840.084V129.192H832.02V144.168C832.02 145.752 832.332 146.856 832.956 147.48C833.628 148.104 834.732 148.416 836.268 148.416H840.156ZM845.924 107.52C845.924 105.648 846.596 104.112 847.94 102.912C849.284 101.664 851.06 101.04 853.268 101.04C855.476 101.04 857.252 101.664 858.596 102.912C859.94 104.112 860.612 105.648 860.612 107.52C860.612 109.344 859.94 110.88 858.596 112.128C857.252 113.328 855.476 113.928 853.268 113.928C851.06 113.928 849.284 113.328 847.94 112.128C846.596 110.88 845.924 109.344 845.924 107.52ZM859.388 118.824V159H847.076V118.824H859.388ZM886.681 118.32C890.665 118.32 894.217 119.16 897.337 120.84C900.505 122.472 902.977 124.848 904.753 127.968C906.577 131.088 907.489 134.736 907.489 138.912C907.489 143.088 906.577 146.736 904.753 149.856C902.977 152.976 900.505 155.376 897.337 157.056C894.217 158.688 890.665 159.504 886.681 159.504C882.697 159.504 879.121 158.688 875.953 157.056C872.785 155.376 870.289 152.976 868.465 149.856C866.689 146.736 865.801 143.088 865.801 138.912C865.801 134.736 866.689 131.088 868.465 127.968C870.289 124.848 872.785 122.472 875.953 120.84C879.121 119.16 882.697 118.32 886.681 118.32ZM886.681 128.976C884.329 128.976 882.337 129.84 880.705 131.568C879.121 133.248 878.329 135.696 878.329 138.912C878.329 142.128 879.121 144.576 880.705 146.256C882.337 147.936 884.329 148.776 886.681 148.776C889.033 148.776 891.001 147.936 892.585 146.256C894.169 144.576 894.961 142.128 894.961 138.912C894.961 135.696 894.169 133.248 892.585 131.568C891.001 129.84 889.033 128.976 886.681 128.976ZM939.361 118.392C943.969 118.392 947.617 119.928 950.305 123C953.041 126.072 954.409 130.296 954.409 135.672V159H942.097V137.112C942.097 134.424 941.377 132.336 939.937 130.848C938.545 129.312 936.673 128.544 934.321 128.544C931.825 128.544 929.833 129.336 928.345 130.92C926.905 132.504 926.185 134.76 926.185 137.688V159H913.873V118.824H926.185V126.168C927.337 123.768 929.041 121.872 931.297 120.48C933.601 119.088 936.289 118.392 939.361 118.392ZM1002.43 118.392C1007.04 118.392 1010.69 119.928 1013.38 123C1016.11 126.072 1017.48 130.296 1017.48 135.672V159H1005.17V137.112C1005.17 134.424 1004.45 132.336 1003.01 130.848C1001.62 129.312 999.743 128.544 997.391 128.544C994.895 128.544 992.903 129.336 991.415 130.92C989.975 132.504 989.255 134.76 989.255 137.688V159H976.943V105.72H989.255V126.168C990.407 123.768 992.111 121.872 994.367 120.48C996.671 119.088 999.359 118.392 1002.43 118.392ZM1040.86 118.32C1043.94 118.32 1046.58 119.016 1048.78 120.408C1050.99 121.8 1052.62 123.696 1053.68 126.096V118.824H1065.92V159H1053.68V151.728C1052.62 154.128 1050.99 156.024 1048.78 157.416C1046.58 158.808 1043.94 159.504 1040.86 159.504C1037.55 159.504 1034.58 158.688 1031.94 157.056C1029.34 155.376 1027.28 152.976 1025.74 149.856C1024.26 146.736 1023.51 143.088 1023.51 138.912C1023.51 134.688 1024.26 131.04 1025.74 127.968C1027.28 124.848 1029.34 122.472 1031.94 120.84C1034.58 119.16 1037.55 118.32 1040.86 118.32ZM1044.82 129.12C1042.18 129.12 1040.05 129.984 1038.42 131.712C1036.83 133.44 1036.04 135.84 1036.04 138.912C1036.04 141.984 1036.83 144.384 1038.42 146.112C1040.05 147.84 1042.18 148.704 1044.82 148.704C1047.42 148.704 1049.53 147.816 1051.16 146.04C1052.84 144.264 1053.68 141.888 1053.68 138.912C1053.68 135.888 1052.84 133.512 1051.16 131.784C1049.53 130.008 1047.42 129.12 1044.82 129.12ZM1089.01 118.32C1094.1 118.32 1098.16 119.592 1101.18 122.136C1104.25 124.68 1106.17 128.04 1106.94 132.216H1095.42C1095.08 130.584 1094.32 129.312 1093.12 128.4C1091.96 127.44 1090.5 126.96 1088.72 126.96C1087.33 126.96 1086.28 127.272 1085.56 127.896C1084.84 128.472 1084.48 129.312 1084.48 130.416C1084.48 131.664 1085.12 132.6 1086.42 133.224C1087.76 133.848 1089.85 134.472 1092.68 135.096C1095.76 135.816 1098.28 136.56 1100.24 137.328C1102.21 138.048 1103.92 139.248 1105.36 140.928C1106.8 142.608 1107.52 144.864 1107.52 147.696C1107.52 150 1106.89 152.04 1105.64 153.816C1104.4 155.592 1102.6 156.984 1100.24 157.992C1097.89 159 1095.11 159.504 1091.89 159.504C1086.47 159.504 1082.12 158.304 1078.86 155.904C1075.6 153.504 1073.6 150.072 1072.88 145.608H1084.76C1084.96 147.336 1085.68 148.656 1086.92 149.568C1088.22 150.48 1089.88 150.936 1091.89 150.936C1093.28 150.936 1094.34 150.624 1095.06 150C1095.78 149.328 1096.14 148.464 1096.14 147.408C1096.14 146.016 1095.47 145.032 1094.12 144.456C1092.83 143.832 1090.69 143.184 1087.72 142.512C1084.74 141.888 1082.29 141.216 1080.37 140.496C1078.45 139.776 1076.8 138.624 1075.4 137.04C1074.01 135.408 1073.32 133.2 1073.32 130.416C1073.32 126.816 1074.68 123.912 1077.42 121.704C1080.16 119.448 1084.02 118.32 1089.01 118.32ZM337 256.416V267H331.456C326.752 267 323.08 265.848 320.44 263.544C317.848 261.192 316.552 257.328 316.552 251.952V237.192H311.152V226.824H316.552V216.96H328.864V226.824H336.928V237.192H328.864V252.168C328.864 253.752 329.176 254.856 329.8 255.48C330.472 256.104 331.576 256.416 333.112 256.416H337ZM356.232 234.384C357.768 231.936 359.736 229.992 362.136 228.552C364.584 227.112 367.224 226.392 370.056 226.392V239.568H366.528C363.264 239.568 360.72 240.264 358.896 241.656C357.12 243.048 356.232 245.4 356.232 248.712V267H343.92V226.824H356.232V234.384ZM390.473 226.32C393.545 226.32 396.185 227.016 398.393 228.408C400.601 229.8 402.233 231.696 403.289 234.096V226.824H415.529V267H403.289V259.728C402.233 262.128 400.601 264.024 398.393 265.416C396.185 266.808 393.545 267.504 390.473 267.504C387.161 267.504 384.185 266.688 381.545 265.056C378.953 263.376 376.889 260.976 375.353 257.856C373.865 254.736 373.121 251.088 373.121 246.912C373.121 242.688 373.865 239.04 375.353 235.968C376.889 232.848 378.953 230.472 381.545 228.84C384.185 227.16 387.161 226.32 390.473 226.32ZM394.433 237.12C391.793 237.12 389.657 237.984 388.025 239.712C386.441 241.44 385.649 243.84 385.649 246.912C385.649 249.984 386.441 252.384 388.025 254.112C389.657 255.84 391.793 256.704 394.433 256.704C397.025 256.704 399.137 255.816 400.769 254.04C402.449 252.264 403.289 249.888 403.289 246.912C403.289 243.888 402.449 241.512 400.769 239.784C399.137 238.008 397.025 237.12 394.433 237.12ZM449.494 226.392C454.102 226.392 457.75 227.928 460.438 231C463.174 234.072 464.542 238.296 464.542 243.672V267H452.23V245.112C452.23 242.424 451.51 240.336 450.07 238.848C448.678 237.312 446.806 236.544 444.454 236.544C441.958 236.544 439.966 237.336 438.478 238.92C437.038 240.504 436.318 242.76 436.318 245.688V267H424.006V226.824H436.318V234.168C437.47 231.768 439.174 229.872 441.43 228.48C443.734 227.088 446.422 226.392 449.494 226.392ZM487.278 226.32C492.366 226.32 496.422 227.592 499.446 230.136C502.518 232.68 504.438 236.04 505.206 240.216H493.686C493.35 238.584 492.582 237.312 491.382 236.4C490.23 235.44 488.766 234.96 486.99 234.96C485.598 234.96 484.542 235.272 483.822 235.896C483.102 236.472 482.742 237.312 482.742 238.416C482.742 239.664 483.39 240.6 484.686 241.224C486.03 241.848 488.118 242.472 490.95 243.096C494.022 243.816 496.542 244.56 498.51 245.328C500.478 246.048 502.182 247.248 503.622 248.928C505.062 250.608 505.782 252.864 505.782 255.696C505.782 258 505.158 260.04 503.91 261.816C502.662 263.592 500.862 264.984 498.51 265.992C496.158 267 493.374 267.504 490.158 267.504C484.734 267.504 480.39 266.304 477.126 263.904C473.862 261.504 471.87 258.072 471.15 253.608H483.03C483.222 255.336 483.942 256.656 485.19 257.568C486.486 258.48 488.142 258.936 490.158 258.936C491.55 258.936 492.606 258.624 493.326 258C494.046 257.328 494.406 256.464 494.406 255.408C494.406 254.016 493.734 253.032 492.39 252.456C491.094 251.832 488.958 251.184 485.982 250.512C483.006 249.888 480.558 249.216 478.638 248.496C476.718 247.776 475.062 246.624 473.67 245.04C472.278 243.408 471.582 241.2 471.582 238.416C471.582 234.816 472.95 231.912 475.686 229.704C478.422 227.448 482.286 226.32 487.278 226.32ZM532.328 221.352C530.312 221.352 528.848 221.784 527.936 222.648C527.024 223.512 526.52 224.904 526.424 226.824H533.696V237.192H526.424V267H514.112V237.192H509.288V226.824H514.112V226.392C514.112 221.4 515.552 217.56 518.432 214.872C521.36 212.136 525.584 210.768 531.104 210.768C532.256 210.768 533.12 210.792 533.696 210.84V221.424L532.328 221.352ZM557.899 226.32C561.883 226.32 565.435 227.16 568.555 228.84C571.723 230.472 574.195 232.848 575.971 235.968C577.795 239.088 578.707 242.736 578.707 246.912C578.707 251.088 577.795 254.736 575.971 257.856C574.195 260.976 571.723 263.376 568.555 265.056C565.435 266.688 561.883 267.504 557.899 267.504C553.915 267.504 550.339 266.688 547.171 265.056C544.003 263.376 541.507 260.976 539.683 257.856C537.907 254.736 537.019 251.088 537.019 246.912C537.019 242.736 537.907 239.088 539.683 235.968C541.507 232.848 544.003 230.472 547.171 228.84C550.339 227.16 553.915 226.32 557.899 226.32ZM557.899 236.976C555.547 236.976 553.555 237.84 551.923 239.568C550.339 241.248 549.547 243.696 549.547 246.912C549.547 250.128 550.339 252.576 551.923 254.256C553.555 255.936 555.547 256.776 557.899 256.776C560.251 256.776 562.219 255.936 563.803 254.256C565.387 252.576 566.179 250.128 566.179 246.912C566.179 243.696 565.387 241.248 563.803 239.568C562.219 237.84 560.251 236.976 557.899 236.976ZM597.404 234.384C598.94 231.936 600.908 229.992 603.308 228.552C605.756 227.112 608.396 226.392 611.228 226.392V239.568H607.7C604.436 239.568 601.892 240.264 600.068 241.656C598.292 243.048 597.404 245.4 597.404 248.712V267H585.092V226.824H597.404V234.384ZM668.437 226.392C673.381 226.392 677.269 227.928 680.101 231C682.933 234.024 684.349 238.248 684.349 243.672V267H672.109V245.112C672.109 242.568 671.413 240.6 670.021 239.208C668.677 237.768 666.829 237.048 664.477 237.048C662.029 237.048 660.085 237.816 658.645 239.352C657.253 240.84 656.557 242.952 656.557 245.688V267H644.245V245.112C644.245 242.568 643.573 240.6 642.229 239.208C640.885 237.768 639.037 237.048 636.685 237.048C634.237 237.048 632.293 237.792 630.853 239.28C629.413 240.768 628.693 242.904 628.693 245.688V267H616.381V226.824H628.693V233.664C629.749 231.408 631.357 229.632 633.517 228.336C635.725 227.04 638.293 226.392 641.221 226.392C644.293 226.392 647.005 227.112 649.357 228.552C651.709 229.944 653.485 231.96 654.685 234.6C656.077 232.104 657.973 230.112 660.373 228.624C662.821 227.136 665.509 226.392 668.437 226.392ZM730.689 245.832C730.689 246.84 730.569 247.944 730.329 249.144H702.465C702.609 252.168 703.377 254.352 704.769 255.696C706.161 256.992 707.937 257.64 710.097 257.64C711.921 257.64 713.433 257.184 714.633 256.272C715.833 255.36 716.625 254.184 717.009 252.744H730.041C729.513 255.576 728.361 258.12 726.585 260.376C724.809 262.584 722.553 264.336 719.817 265.632C717.081 266.88 714.033 267.504 710.673 267.504C706.737 267.504 703.233 266.688 700.161 265.056C697.137 263.376 694.761 260.976 693.033 257.856C691.305 254.736 690.441 251.088 690.441 246.912C690.441 242.688 691.281 239.04 692.961 235.968C694.689 232.848 697.089 230.472 700.161 228.84C703.233 227.16 706.737 226.32 710.673 226.32C714.657 226.32 718.161 227.136 721.185 228.768C724.209 230.4 726.537 232.704 728.169 235.68C729.849 238.608 730.689 241.992 730.689 245.832ZM718.233 243.96C718.281 241.32 717.561 239.352 716.073 238.056C714.633 236.712 712.833 236.04 710.673 236.04C708.417 236.04 706.545 236.712 705.057 238.056C703.569 239.4 702.729 241.368 702.537 243.96H718.233ZM752.371 226.32C755.443 226.32 758.083 227.016 760.291 228.408C762.499 229.8 764.107 231.696 765.115 234.096V213.72H777.427V267H765.115V259.728C764.107 262.128 762.499 264.024 760.291 265.416C758.083 266.808 755.443 267.504 752.371 267.504C749.059 267.504 746.083 266.688 743.443 265.056C740.851 263.376 738.787 260.976 737.251 257.856C735.763 254.736 735.019 251.088 735.019 246.912C735.019 242.688 735.763 239.04 737.251 235.968C738.787 232.848 740.851 230.472 743.443 228.84C746.083 227.16 749.059 226.32 752.371 226.32ZM756.331 237.12C753.691 237.12 751.555 237.984 749.923 239.712C748.339 241.44 747.547 243.84 747.547 246.912C747.547 249.984 748.339 252.384 749.923 254.112C751.555 255.84 753.691 256.704 756.331 256.704C758.923 256.704 761.035 255.816 762.667 254.04C764.347 252.264 765.187 249.888 765.187 246.912C765.187 243.888 764.347 241.512 762.667 239.784C761.035 238.008 758.923 237.12 756.331 237.12Z" fill="white"/>
<path d="M561.852 664.734H571.109C576.578 664.734 580.734 666.164 583.578 669.023C586.438 671.883 587.867 676.125 587.867 681.75C587.867 687.359 586.359 691.641 583.344 694.594C580.344 697.531 575.914 699 570.055 699H561.852V664.734ZM564.242 666.844V696.891H569.914C580.148 696.891 585.266 691.805 585.266 681.633C585.266 676.742 584.016 673.055 581.516 670.57C579.031 668.086 575.375 666.844 570.547 666.844H564.242ZM605.445 699.469C601.758 699.469 598.867 698.328 596.773 696.047C594.711 693.766 593.68 690.586 593.68 686.508C593.68 682.43 594.672 679.164 596.656 676.711C598.656 674.258 601.359 673.031 604.766 673.031C607.766 673.031 610.133 674.086 611.867 676.195C613.602 678.289 614.469 681.125 614.469 684.703V686.578H596.117C596.148 690.078 596.961 692.75 598.555 694.594C600.164 696.438 602.461 697.359 605.445 697.359C606.93 697.359 608.234 697.25 609.359 697.031C610.484 696.812 611.852 696.383 613.461 695.742V697.852C612.039 698.477 610.711 698.898 609.477 699.117C608.258 699.352 606.914 699.469 605.445 699.469ZM612.008 684.516C612.008 681.562 611.359 679.258 610.062 677.602C608.766 675.93 606.938 675.094 604.578 675.094C602.234 675.094 600.32 675.906 598.836 677.531C597.367 679.156 596.508 681.484 596.258 684.516H612.008ZM631.672 699.469C628.031 699.469 625.18 698.32 623.117 696.023C621.055 693.727 620.023 690.5 620.023 686.344C620.023 682.188 621.086 678.93 623.211 676.57C625.352 674.211 628.289 673.031 632.023 673.031C634.242 673.031 636.352 673.414 638.352 674.18L637.719 676.266C635.516 675.516 633.602 675.141 631.977 675.141C628.867 675.141 626.5 676.102 624.875 678.023C623.266 679.945 622.461 682.68 622.461 686.227C622.461 689.773 623.266 692.516 624.875 694.453C626.484 696.391 628.734 697.359 631.625 697.359C633.906 697.359 636.055 696.945 638.07 696.117V698.273C636.461 699.07 634.328 699.469 631.672 699.469ZM654.312 673.031C655.344 673.031 656.5 673.141 657.781 673.359L657.336 675.609C656.289 675.328 655.188 675.188 654.031 675.188C651.859 675.188 650.078 676.117 648.688 677.977C647.297 679.82 646.602 682.141 646.602 684.938V699H644.281V673.523H646.25L646.484 678.117H646.648C647.727 676.211 648.844 674.898 650 674.18C651.188 673.414 652.625 673.031 654.312 673.031ZM673.273 699.469C669.586 699.469 666.695 698.328 664.602 696.047C662.539 693.766 661.508 690.586 661.508 686.508C661.508 682.43 662.5 679.164 664.484 676.711C666.484 674.258 669.188 673.031 672.594 673.031C675.594 673.031 677.961 674.086 679.695 676.195C681.43 678.289 682.297 681.125 682.297 684.703V686.578H663.945C663.977 690.078 664.789 692.75 666.383 694.594C667.992 696.438 670.289 697.359 673.273 697.359C674.758 697.359 676.062 697.25 677.188 697.031C678.312 696.812 679.68 696.383 681.289 695.742V697.852C679.867 698.477 678.539 698.898 677.305 699.117C676.086 699.352 674.742 699.469 673.273 699.469ZM679.836 684.516C679.836 681.562 679.188 679.258 677.891 677.602C676.594 675.93 674.766 675.094 672.406 675.094C670.062 675.094 668.148 675.906 666.664 677.531C665.195 679.156 664.336 681.484 664.086 684.516H679.836ZM689.867 675.047C692.664 673.734 695.445 673.078 698.211 673.078C700.992 673.078 703.07 673.812 704.445 675.281C705.82 676.734 706.508 678.992 706.508 682.055V699H704.797L704.211 694.969H704.023C702.727 696.625 701.406 697.789 700.062 698.461C698.734 699.133 697.141 699.469 695.281 699.469C692.781 699.469 690.828 698.836 689.422 697.57C688.031 696.289 687.336 694.461 687.336 692.086C687.336 689.695 688.375 687.812 690.453 686.438C692.531 685.062 695.531 684.336 699.453 684.258L704.305 684.117V682.43C704.305 679.961 703.805 678.125 702.805 676.922C701.805 675.703 700.188 675.094 697.953 675.094C695.719 675.094 693.312 675.75 690.734 677.062L689.867 675.047ZM689.82 692.32C689.82 693.914 690.305 695.156 691.273 696.047C692.258 696.922 693.641 697.359 695.422 697.359C698.141 697.359 700.281 696.578 701.844 695.016C703.422 693.453 704.211 691.297 704.211 688.547V686.039L699.758 686.227C696.18 686.398 693.625 686.961 692.094 687.914C690.578 688.852 689.82 690.32 689.82 692.32ZM712.484 695.391C714.984 696.672 717.578 697.312 720.266 697.312C722.953 697.312 724.961 696.906 726.289 696.094C727.617 695.266 728.281 694.172 728.281 692.812C728.281 691.453 727.758 690.344 726.711 689.484C725.664 688.609 723.922 687.742 721.484 686.883C719.047 686.008 717.297 685.227 716.234 684.539C715.172 683.852 714.383 683.086 713.867 682.242C713.367 681.398 713.117 680.391 713.117 679.219C713.117 677.328 713.914 675.82 715.508 674.695C717.133 673.586 719.344 673.031 722.141 673.031C724.953 673.031 727.594 673.547 730.062 674.578L729.195 676.688C726.633 675.656 724.312 675.141 722.234 675.141C720.156 675.141 718.508 675.484 717.289 676.172C716.07 676.859 715.461 677.844 715.461 679.125C715.461 680.391 715.93 681.422 716.867 682.219C717.82 683.016 719.555 683.867 722.07 684.773C724.586 685.664 726.375 686.453 727.438 687.141C729.531 688.453 730.578 690.227 730.578 692.461C730.578 694.68 729.711 696.406 727.977 697.641C726.242 698.859 723.719 699.469 720.406 699.469C717.109 699.469 714.469 698.945 712.484 697.898V695.391ZM747.43 699.469C743.742 699.469 740.852 698.328 738.758 696.047C736.695 693.766 735.664 690.586 735.664 686.508C735.664 682.43 736.656 679.164 738.641 676.711C740.641 674.258 743.344 673.031 746.75 673.031C749.75 673.031 752.117 674.086 753.852 676.195C755.586 678.289 756.453 681.125 756.453 684.703V686.578H738.102C738.133 690.078 738.945 692.75 740.539 694.594C742.148 696.438 744.445 697.359 747.43 697.359C748.914 697.359 750.219 697.25 751.344 697.031C752.469 696.812 753.836 696.383 755.445 695.742V697.852C754.023 698.477 752.695 698.898 751.461 699.117C750.242 699.352 748.898 699.469 747.43 699.469ZM753.992 684.516C753.992 681.562 753.344 679.258 752.047 677.602C750.75 675.93 748.922 675.094 746.562 675.094C744.219 675.094 742.305 675.906 740.82 677.531C739.352 679.156 738.492 681.484 738.242 684.516H753.992ZM777.102 664.195C777.586 664.195 777.961 664.391 778.227 664.781C778.508 665.172 778.648 665.727 778.648 666.445C778.648 667.148 778.508 667.703 778.227 668.109C777.961 668.516 777.586 668.719 777.102 668.719C776.117 668.719 775.625 667.969 775.625 666.469C775.625 664.953 776.117 664.195 777.102 664.195ZM778.273 699H775.953V673.523H778.273V699ZM798.219 673.031C804 673.031 806.891 676.133 806.891 682.336V699H804.594V682.477C804.594 679.93 804.055 678.07 802.977 676.898C801.914 675.727 800.242 675.141 797.961 675.141C794.945 675.141 792.719 675.906 791.281 677.438C789.859 678.969 789.148 681.469 789.148 684.938V699H786.828V673.523H788.797L789.242 677.016H789.383C791.055 674.359 794 673.031 798.219 673.031ZM838.555 673.031C841.992 673.031 844.609 674.164 846.406 676.43C848.219 678.68 849.125 681.93 849.125 686.18C849.125 690.414 848.172 693.688 846.266 696C844.375 698.312 841.789 699.469 838.508 699.469C834.602 699.469 831.742 698 829.93 695.062H829.766L829.836 697.031C829.898 698.047 829.93 699.312 829.93 700.828V710.531H827.609V673.523H829.578L830.023 677.156H830.164C831.93 674.406 834.727 673.031 838.555 673.031ZM829.93 685.57V686.32C829.93 690.305 830.594 693.148 831.922 694.852C833.25 696.555 835.43 697.406 838.461 697.406C841.07 697.406 843.086 696.438 844.508 694.5C845.93 692.562 846.641 689.852 846.641 686.367C846.641 678.883 843.945 675.141 838.555 675.141C835.602 675.141 833.422 675.961 832.016 677.602C830.625 679.227 829.93 681.883 829.93 685.57ZM856.742 675.047C859.539 673.734 862.32 673.078 865.086 673.078C867.867 673.078 869.945 673.812 871.32 675.281C872.695 676.734 873.383 678.992 873.383 682.055V699H871.672L871.086 694.969H870.898C869.602 696.625 868.281 697.789 866.938 698.461C865.609 699.133 864.016 699.469 862.156 699.469C859.656 699.469 857.703 698.836 856.297 697.57C854.906 696.289 854.211 694.461 854.211 692.086C854.211 689.695 855.25 687.812 857.328 686.438C859.406 685.062 862.406 684.336 866.328 684.258L871.18 684.117V682.43C871.18 679.961 870.68 678.125 869.68 676.922C868.68 675.703 867.062 675.094 864.828 675.094C862.594 675.094 860.188 675.75 857.609 677.062L856.742 675.047ZM856.695 692.32C856.695 693.914 857.18 695.156 858.148 696.047C859.133 696.922 860.516 697.359 862.297 697.359C865.016 697.359 867.156 696.578 868.719 695.016C870.297 693.453 871.086 691.297 871.086 688.547V686.039L866.633 686.227C863.055 686.398 860.5 686.961 858.969 687.914C857.453 688.852 856.695 690.32 856.695 692.32ZM879.359 695.391C881.859 696.672 884.453 697.312 887.141 697.312C889.828 697.312 891.836 696.906 893.164 696.094C894.492 695.266 895.156 694.172 895.156 692.812C895.156 691.453 894.633 690.344 893.586 689.484C892.539 688.609 890.797 687.742 888.359 686.883C885.922 686.008 884.172 685.227 883.109 684.539C882.047 683.852 881.258 683.086 880.742 682.242C880.242 681.398 879.992 680.391 879.992 679.219C879.992 677.328 880.789 675.82 882.383 674.695C884.008 673.586 886.219 673.031 889.016 673.031C891.828 673.031 894.469 673.547 896.938 674.578L896.07 676.688C893.508 675.656 891.188 675.141 889.109 675.141C887.031 675.141 885.383 675.484 884.164 676.172C882.945 676.859 882.336 677.844 882.336 679.125C882.336 680.391 882.805 681.422 883.742 682.219C884.695 683.016 886.43 683.867 888.945 684.773C891.461 685.664 893.25 686.453 894.312 687.141C896.406 688.453 897.453 690.227 897.453 692.461C897.453 694.68 896.586 696.406 894.852 697.641C893.117 698.859 890.594 699.469 887.281 699.469C883.984 699.469 881.344 698.945 879.359 697.898V695.391ZM906.477 673.523H913.953V675.539H906.477V691.664C906.477 693.617 906.82 695.062 907.508 696C908.195 696.938 909.281 697.406 910.766 697.406C912.25 697.406 913.523 697.281 914.586 697.031V698.906C913.461 699.281 912.164 699.469 910.695 699.469C908.445 699.469 906.781 698.867 905.703 697.664C904.641 696.461 904.109 694.57 904.109 691.992V675.539H900.336V674.18L904.109 673.125L905.281 667.359H906.477V673.523ZM930.125 673.031C931.156 673.031 932.312 673.141 933.594 673.359L933.148 675.609C932.102 675.328 931 675.188 929.844 675.188C927.672 675.188 925.891 676.117 924.5 677.977C923.109 679.82 922.414 682.141 922.414 684.938V699H920.094V673.523H922.062L922.297 678.117H922.461C923.539 676.211 924.656 674.898 925.812 674.18C927 673.414 928.438 673.031 930.125 673.031ZM937.602 710.531C936.711 710.531 935.719 710.367 934.625 710.039V708.023C935.516 708.273 936.492 708.398 937.555 708.398C939.117 708.398 940.367 707.625 941.305 706.078C941.82 705.266 942.391 704.016 943.016 702.328L944.281 699L934.531 673.523H936.922L942.312 687.82C943.906 692.086 944.945 695.055 945.43 696.727H945.57C946.133 694.977 947.203 691.961 948.781 687.68L954.172 673.523H956.562L945.148 703.125C944.242 705.516 943.469 707.141 942.828 708C941.578 709.688 939.836 710.531 937.602 710.531ZM975.758 673.523H983.234V675.539H975.758V691.664C975.758 693.617 976.102 695.062 976.789 696C977.477 696.938 978.562 697.406 980.047 697.406C981.531 697.406 982.805 697.281 983.867 697.031V698.906C982.742 699.281 981.445 699.469 979.977 699.469C977.727 699.469 976.062 698.867 974.984 697.664C973.922 696.461 973.391 694.57 973.391 691.992V675.539H969.617V674.18L973.391 673.125L974.562 667.359H975.758V673.523ZM987.875 686.227C987.875 682.086 988.883 678.852 990.898 676.523C992.914 674.195 995.672 673.031 999.172 673.031C1002.69 673.031 1005.44 674.211 1007.42 676.57C1009.42 678.93 1010.42 682.172 1010.42 686.297C1010.42 690.406 1009.41 693.633 1007.4 695.977C1005.38 698.305 1002.6 699.469 999.055 699.469C998.977 699.469 998.891 699.469 998.797 699.469C995.562 699.469 992.93 698.273 990.898 695.883C988.883 693.492 987.875 690.391 987.875 686.578C987.875 686.453 987.875 686.336 987.875 686.227ZM999.148 697.359C1001.96 697.359 1004.13 696.383 1005.66 694.43C1007.2 692.477 1007.96 689.742 1007.96 686.227C1007.96 682.695 1007.18 679.969 1005.62 678.047C1004.07 676.109 1001.89 675.141 999.078 675.141C996.281 675.141 994.117 676.109 992.586 678.047C991.07 679.969 990.312 682.688 990.312 686.203C990.312 689.703 991.078 692.445 992.609 694.43C994.156 696.383 996.336 697.359 999.148 697.359ZM1041.69 699H1039.39V674.039C1039.39 671.773 1039.48 669.422 1039.67 666.984C1039.36 667.297 1039.12 667.523 1038.95 667.664L1031.7 673.359L1030.37 671.695L1039.67 664.734H1041.69V699ZM1057.79 696.844C1059.27 697.297 1060.8 697.523 1062.38 697.523C1066.26 697.523 1069.28 696.125 1071.45 693.328C1073.64 690.531 1074.86 686.469 1075.11 681.141H1074.83C1073.7 682.625 1072.35 683.773 1070.77 684.586C1069.2 685.398 1067.54 685.805 1065.8 685.805C1062.62 685.805 1060.14 684.93 1058.38 683.18C1056.61 681.414 1055.73 678.875 1055.73 675.562C1055.73 672.234 1056.7 669.508 1058.63 667.383C1060.57 665.258 1063.1 664.195 1066.23 664.195C1066.3 664.195 1066.38 664.195 1066.46 664.195C1069.74 664.195 1072.38 665.531 1074.38 668.203C1076.4 670.875 1077.41 674.492 1077.41 679.055C1077.41 679.133 1077.41 679.203 1077.41 679.266C1077.41 679.312 1077.41 679.352 1077.41 679.383C1077.41 686.023 1076.11 691.031 1073.52 694.406C1070.92 697.781 1067.24 699.469 1062.48 699.469C1062.41 699.469 1062.35 699.469 1062.29 699.469C1060.7 699.469 1059.2 699.266 1057.79 698.859V696.844ZM1066.23 666.258C1063.77 666.258 1061.8 667.094 1060.32 668.766C1058.85 670.422 1058.12 672.648 1058.12 675.445C1058.12 678.242 1058.79 680.352 1060.13 681.773C1061.49 683.18 1063.45 683.883 1065.99 683.883C1067.57 683.883 1069.04 683.539 1070.4 682.852C1071.76 682.148 1072.84 681.219 1073.66 680.062C1074.47 678.891 1074.88 677.695 1074.88 676.477C1074.88 674.664 1074.51 672.953 1073.77 671.344C1073.05 669.734 1072.04 668.484 1070.73 667.594C1069.41 666.703 1067.91 666.258 1066.23 666.258ZM1103.84 672.398C1103.84 674.18 1103.29 675.742 1102.18 677.086C1101.09 678.414 1099.31 679.641 1096.86 680.766C1099.88 682.016 1101.98 683.375 1103.19 684.844C1104.41 686.312 1105.02 688.086 1105.02 690.164C1105.02 692.992 1104.02 695.25 1102.04 696.938C1100.07 698.625 1097.38 699.469 1093.98 699.469C1090.59 699.469 1087.97 698.68 1086.12 697.102C1084.3 695.508 1083.38 693.211 1083.38 690.211C1083.38 686.102 1086.04 682.984 1091.35 680.859C1088.82 679.656 1087.04 678.406 1086.01 677.109C1084.99 675.797 1084.48 674.211 1084.48 672.352C1084.48 672.273 1084.48 672.195 1084.48 672.117C1084.48 669.805 1085.4 667.898 1087.23 666.398C1089.05 664.898 1091.32 664.148 1094.02 664.148C1094.07 664.148 1094.12 664.148 1094.19 664.148C1097.09 664.148 1099.43 664.891 1101.2 666.375C1102.96 667.844 1103.84 669.852 1103.84 672.398ZM1094.38 679.898C1096.94 678.914 1098.77 677.828 1099.86 676.641C1100.97 675.438 1101.52 673.953 1101.52 672.188C1101.52 670.422 1100.87 668.992 1099.55 667.898C1098.24 666.805 1096.45 666.258 1094.19 666.258C1091.94 666.258 1090.15 666.805 1088.82 667.898C1087.49 668.977 1086.83 670.461 1086.83 672.352C1086.83 673.461 1087.06 674.43 1087.53 675.258C1088.02 676.07 1088.71 676.812 1089.62 677.484C1090.54 678.156 1092.12 678.961 1094.38 679.898ZM1093.7 681.82C1090.84 682.914 1088.8 684.141 1087.58 685.5C1086.38 686.844 1085.77 688.562 1085.77 690.656C1085.77 692.75 1086.5 694.391 1087.95 695.578C1089.42 696.766 1091.45 697.359 1094.05 697.359C1096.66 697.359 1098.73 696.734 1100.28 695.484C1101.84 694.219 1102.62 692.562 1102.62 690.516C1102.62 688.453 1102.01 686.828 1100.77 685.641C1099.57 684.438 1097.21 683.164 1093.7 681.82ZM1120.93 664.242C1123.91 664.242 1126.26 665.039 1127.96 666.633C1129.68 668.227 1130.54 670.422 1130.54 673.219C1130.54 675.469 1129.96 677.656 1128.8 679.781C1127.65 681.906 1125.55 684.523 1122.52 687.633L1113.73 696.68V696.773H1132.06V699H1110.62V696.938L1119.73 687.422C1122.3 684.766 1124.09 682.734 1125.12 681.328C1126.17 679.906 1126.93 678.562 1127.4 677.297C1127.88 676.016 1128.12 674.672 1128.12 673.266C1128.12 671.234 1127.45 669.578 1126.11 668.297C1124.78 667 1123.04 666.352 1120.88 666.352C1118.01 666.352 1115.27 667.391 1112.68 669.469L1111.41 667.852C1114.26 665.445 1117.43 664.242 1120.93 664.242Z" fill="white"/>
<path d="M564.242 849H561.852V814.734H564.242V849ZM584.75 823.031C590.531 823.031 593.422 826.133 593.422 832.336V849H591.125V832.477C591.125 829.93 590.586 828.07 589.508 826.898C588.445 825.727 586.773 825.141 584.492 825.141C581.477 825.141 579.25 825.906 577.812 827.438C576.391 828.969 575.68 831.469 575.68 834.938V849H573.359V823.523H575.328L575.773 827.016H575.914C577.586 824.359 580.531 823.031 584.75 823.031ZM611.844 849.469C608.203 849.469 605.352 848.32 603.289 846.023C601.227 843.727 600.195 840.5 600.195 836.344C600.195 832.188 601.258 828.93 603.383 826.57C605.523 824.211 608.461 823.031 612.195 823.031C614.414 823.031 616.523 823.414 618.523 824.18L617.891 826.266C615.688 825.516 613.773 825.141 612.148 825.141C609.039 825.141 606.672 826.102 605.047 828.023C603.438 829.945 602.633 832.68 602.633 836.227C602.633 839.773 603.438 842.516 605.047 844.453C606.656 846.391 608.906 847.359 611.797 847.359C614.078 847.359 616.227 846.945 618.242 846.117V848.273C616.633 849.07 614.5 849.469 611.844 849.469ZM634.484 823.031C635.516 823.031 636.672 823.141 637.953 823.359L637.508 825.609C636.461 825.328 635.359 825.188 634.203 825.188C632.031 825.188 630.25 826.117 628.859 827.977C627.469 829.82 626.773 832.141 626.773 834.938V849H624.453V823.523H626.422L626.656 828.117H626.82C627.898 826.211 629.016 824.898 630.172 824.18C631.359 823.414 632.797 823.031 634.484 823.031ZM653.445 849.469C649.758 849.469 646.867 848.328 644.773 846.047C642.711 843.766 641.68 840.586 641.68 836.508C641.68 832.43 642.672 829.164 644.656 826.711C646.656 824.258 649.359 823.031 652.766 823.031C655.766 823.031 658.133 824.086 659.867 826.195C661.602 828.289 662.469 831.125 662.469 834.703V836.578H644.117C644.148 840.078 644.961 842.75 646.555 844.594C648.164 846.438 650.461 847.359 653.445 847.359C654.93 847.359 656.234 847.25 657.359 847.031C658.484 846.812 659.852 846.383 661.461 845.742V847.852C660.039 848.477 658.711 848.898 657.477 849.117C656.258 849.352 654.914 849.469 653.445 849.469ZM660.008 834.516C660.008 831.562 659.359 829.258 658.062 827.602C656.766 825.93 654.938 825.094 652.578 825.094C650.234 825.094 648.32 825.906 646.836 827.531C645.367 829.156 644.508 831.484 644.258 834.516H660.008ZM670.039 825.047C672.836 823.734 675.617 823.078 678.383 823.078C681.164 823.078 683.242 823.812 684.617 825.281C685.992 826.734 686.68 828.992 686.68 832.055V849H684.969L684.383 844.969H684.195C682.898 846.625 681.578 847.789 680.234 848.461C678.906 849.133 677.312 849.469 675.453 849.469C672.953 849.469 671 848.836 669.594 847.57C668.203 846.289 667.508 844.461 667.508 842.086C667.508 839.695 668.547 837.812 670.625 836.438C672.703 835.062 675.703 834.336 679.625 834.258L684.477 834.117V832.43C684.477 829.961 683.977 828.125 682.977 826.922C681.977 825.703 680.359 825.094 678.125 825.094C675.891 825.094 673.484 825.75 670.906 827.062L670.039 825.047ZM669.992 842.32C669.992 843.914 670.477 845.156 671.445 846.047C672.43 846.922 673.812 847.359 675.594 847.359C678.312 847.359 680.453 846.578 682.016 845.016C683.594 843.453 684.383 841.297 684.383 838.547V836.039L679.93 836.227C676.352 836.398 673.797 836.961 672.266 837.914C670.75 838.852 669.992 840.32 669.992 842.32ZM692.656 845.391C695.156 846.672 697.75 847.312 700.438 847.312C703.125 847.312 705.133 846.906 706.461 846.094C707.789 845.266 708.453 844.172 708.453 842.812C708.453 841.453 707.93 840.344 706.883 839.484C705.836 838.609 704.094 837.742 701.656 836.883C699.219 836.008 697.469 835.227 696.406 834.539C695.344 833.852 694.555 833.086 694.039 832.242C693.539 831.398 693.289 830.391 693.289 829.219C693.289 827.328 694.086 825.82 695.68 824.695C697.305 823.586 699.516 823.031 702.312 823.031C705.125 823.031 707.766 823.547 710.234 824.578L709.367 826.688C706.805 825.656 704.484 825.141 702.406 825.141C700.328 825.141 698.68 825.484 697.461 826.172C696.242 826.859 695.633 827.844 695.633 829.125C695.633 830.391 696.102 831.422 697.039 832.219C697.992 833.016 699.727 833.867 702.242 834.773C704.758 835.664 706.547 836.453 707.609 837.141C709.703 838.453 710.75 840.227 710.75 842.461C710.75 844.68 709.883 846.406 708.148 847.641C706.414 848.859 703.891 849.469 700.578 849.469C697.281 849.469 694.641 848.945 692.656 847.898V845.391ZM727.602 849.469C723.914 849.469 721.023 848.328 718.93 846.047C716.867 843.766 715.836 840.586 715.836 836.508C715.836 832.43 716.828 829.164 718.812 826.711C720.812 824.258 723.516 823.031 726.922 823.031C729.922 823.031 732.289 824.086 734.023 826.195C735.758 828.289 736.625 831.125 736.625 834.703V836.578H718.273C718.305 840.078 719.117 842.75 720.711 844.594C722.32 846.438 724.617 847.359 727.602 847.359C729.086 847.359 730.391 847.25 731.516 847.031C732.641 846.812 734.008 846.383 735.617 845.742V847.852C734.195 848.477 732.867 848.898 731.633 849.117C730.414 849.352 729.07 849.469 727.602 849.469ZM734.164 834.516C734.164 831.562 733.516 829.258 732.219 827.602C730.922 825.93 729.094 825.094 726.734 825.094C724.391 825.094 722.477 825.906 720.992 827.531C719.523 829.156 718.664 831.484 718.414 834.516H734.164ZM757.273 814.195C757.758 814.195 758.133 814.391 758.398 814.781C758.68 815.172 758.82 815.727 758.82 816.445C758.82 817.148 758.68 817.703 758.398 818.109C758.133 818.516 757.758 818.719 757.273 818.719C756.289 818.719 755.797 817.969 755.797 816.469C755.797 814.953 756.289 814.195 757.273 814.195ZM758.445 849H756.125V823.523H758.445V849ZM778.391 823.031C784.172 823.031 787.062 826.133 787.062 832.336V849H784.766V832.477C784.766 829.93 784.227 828.07 783.148 826.898C782.086 825.727 780.414 825.141 778.133 825.141C775.117 825.141 772.891 825.906 771.453 827.438C770.031 828.969 769.32 831.469 769.32 834.938V849H767V823.523H768.969L769.414 827.016H769.555C771.227 824.359 774.172 823.031 778.391 823.031ZM818.727 823.031C822.164 823.031 824.781 824.164 826.578 826.43C828.391 828.68 829.297 831.93 829.297 836.18C829.297 840.414 828.344 843.688 826.438 846C824.547 848.312 821.961 849.469 818.68 849.469C814.773 849.469 811.914 848 810.102 845.062H809.938L810.008 847.031C810.07 848.047 810.102 849.312 810.102 850.828V860.531H807.781V823.523H809.75L810.195 827.156H810.336C812.102 824.406 814.898 823.031 818.727 823.031ZM810.102 835.57V836.32C810.102 840.305 810.766 843.148 812.094 844.852C813.422 846.555 815.602 847.406 818.633 847.406C821.242 847.406 823.258 846.438 824.68 844.5C826.102 842.562 826.812 839.852 826.812 836.367C826.812 828.883 824.117 825.141 818.727 825.141C815.773 825.141 813.594 825.961 812.188 827.602C810.797 829.227 810.102 831.883 810.102 835.57ZM836.914 825.047C839.711 823.734 842.492 823.078 845.258 823.078C848.039 823.078 850.117 823.812 851.492 825.281C852.867 826.734 853.555 828.992 853.555 832.055V849H851.844L851.258 844.969H851.07C849.773 846.625 848.453 847.789 847.109 848.461C845.781 849.133 844.188 849.469 842.328 849.469C839.828 849.469 837.875 848.836 836.469 847.57C835.078 846.289 834.383 844.461 834.383 842.086C834.383 839.695 835.422 837.812 837.5 836.438C839.578 835.062 842.578 834.336 846.5 834.258L851.352 834.117V832.43C851.352 829.961 850.852 828.125 849.852 826.922C848.852 825.703 847.234 825.094 845 825.094C842.766 825.094 840.359 825.75 837.781 827.062L836.914 825.047ZM836.867 842.32C836.867 843.914 837.352 845.156 838.32 846.047C839.305 846.922 840.688 847.359 842.469 847.359C845.188 847.359 847.328 846.578 848.891 845.016C850.469 843.453 851.258 841.297 851.258 838.547V836.039L846.805 836.227C843.227 836.398 840.672 836.961 839.141 837.914C837.625 838.852 836.867 840.32 836.867 842.32ZM859.531 845.391C862.031 846.672 864.625 847.312 867.312 847.312C870 847.312 872.008 846.906 873.336 846.094C874.664 845.266 875.328 844.172 875.328 842.812C875.328 841.453 874.805 840.344 873.758 839.484C872.711 838.609 870.969 837.742 868.531 836.883C866.094 836.008 864.344 835.227 863.281 834.539C862.219 833.852 861.43 833.086 860.914 832.242C860.414 831.398 860.164 830.391 860.164 829.219C860.164 827.328 860.961 825.82 862.555 824.695C864.18 823.586 866.391 823.031 869.188 823.031C872 823.031 874.641 823.547 877.109 824.578L876.242 826.688C873.68 825.656 871.359 825.141 869.281 825.141C867.203 825.141 865.555 825.484 864.336 826.172C863.117 826.859 862.508 827.844 862.508 829.125C862.508 830.391 862.977 831.422 863.914 832.219C864.867 833.016 866.602 833.867 869.117 834.773C871.633 835.664 873.422 836.453 874.484 837.141C876.578 838.453 877.625 840.227 877.625 842.461C877.625 844.68 876.758 846.406 875.023 847.641C873.289 848.859 870.766 849.469 867.453 849.469C864.156 849.469 861.516 848.945 859.531 847.898V845.391ZM886.648 823.523H894.125V825.539H886.648V841.664C886.648 843.617 886.992 845.062 887.68 846C888.367 846.938 889.453 847.406 890.938 847.406C892.422 847.406 893.695 847.281 894.758 847.031V848.906C893.633 849.281 892.336 849.469 890.867 849.469C888.617 849.469 886.953 848.867 885.875 847.664C884.812 846.461 884.281 844.57 884.281 841.992V825.539H880.508V824.18L884.281 823.125L885.453 817.359H886.648V823.523ZM910.297 823.031C911.328 823.031 912.484 823.141 913.766 823.359L913.32 825.609C912.273 825.328 911.172 825.188 910.016 825.188C907.844 825.188 906.062 826.117 904.672 827.977C903.281 829.82 902.586 832.141 902.586 834.938V849H900.266V823.523H902.234L902.469 828.117H902.633C903.711 826.211 904.828 824.898 905.984 824.18C907.172 823.414 908.609 823.031 910.297 823.031ZM917.773 860.531C916.883 860.531 915.891 860.367 914.797 860.039V858.023C915.688 858.273 916.664 858.398 917.727 858.398C919.289 858.398 920.539 857.625 921.477 856.078C921.992 855.266 922.562 854.016 923.188 852.328L924.453 849L914.703 823.523H917.094L922.484 837.82C924.078 842.086 925.117 845.055 925.602 846.727H925.742C926.305 844.977 927.375 841.961 928.953 837.68L934.344 823.523H936.734L925.32 853.125C924.414 855.516 923.641 857.141 923 858C921.75 859.688 920.008 860.531 917.773 860.531ZM951.172 845.391C953.672 846.672 956.266 847.312 958.953 847.312C961.641 847.312 963.648 846.906 964.977 846.094C966.305 845.266 966.969 844.172 966.969 842.812C966.969 841.453 966.445 840.344 965.398 839.484C964.352 838.609 962.609 837.742 960.172 836.883C957.734 836.008 955.984 835.227 954.922 834.539C953.859 833.852 953.07 833.086 952.555 832.242C952.055 831.398 951.805 830.391 951.805 829.219C951.805 827.328 952.602 825.82 954.195 824.695C955.82 823.586 958.031 823.031 960.828 823.031C963.641 823.031 966.281 823.547 968.75 824.578L967.883 826.688C965.32 825.656 963 825.141 960.922 825.141C958.844 825.141 957.195 825.484 955.977 826.172C954.758 826.859 954.148 827.844 954.148 829.125C954.148 830.391 954.617 831.422 955.555 832.219C956.508 833.016 958.242 833.867 960.758 834.773C963.273 835.664 965.062 836.453 966.125 837.141C968.219 838.453 969.266 840.227 969.266 842.461C969.266 844.68 968.398 846.406 966.664 847.641C964.93 848.859 962.406 849.469 959.094 849.469C955.797 849.469 953.156 848.945 951.172 847.898V845.391ZM976.977 814.195C977.461 814.195 977.836 814.391 978.102 814.781C978.383 815.172 978.523 815.727 978.523 816.445C978.523 817.148 978.383 817.703 978.102 818.109C977.836 818.516 977.461 818.719 976.977 818.719C975.992 818.719 975.5 817.969 975.5 816.469C975.5 814.953 975.992 814.195 976.977 814.195ZM978.148 849H975.828V823.523H978.148V849ZM998.094 823.031C1003.88 823.031 1006.77 826.133 1006.77 832.336V849H1004.47V832.477C1004.47 829.93 1003.93 828.07 1002.85 826.898C1001.79 825.727 1000.12 825.141 997.836 825.141C994.82 825.141 992.594 825.906 991.156 827.438C989.734 828.969 989.023 831.469 989.023 834.938V849H986.703V823.523H988.672L989.117 827.016H989.258C990.93 824.359 993.875 823.031 998.094 823.031ZM1025.19 849.469C1021.55 849.469 1018.7 848.32 1016.63 846.023C1014.57 843.727 1013.54 840.5 1013.54 836.344C1013.54 832.188 1014.6 828.93 1016.73 826.57C1018.87 824.211 1021.8 823.031 1025.54 823.031C1027.76 823.031 1029.87 823.414 1031.87 824.18L1031.23 826.266C1029.03 825.516 1027.12 825.141 1025.49 825.141C1022.38 825.141 1020.02 826.102 1018.39 828.023C1016.78 829.945 1015.98 832.68 1015.98 836.227C1015.98 839.773 1016.78 842.516 1018.39 844.453C1020 846.391 1022.25 847.359 1025.14 847.359C1027.42 847.359 1029.57 846.945 1031.59 846.117V848.273C1029.98 849.07 1027.84 849.469 1025.19 849.469ZM1048.09 849.469C1044.4 849.469 1041.51 848.328 1039.41 846.047C1037.35 843.766 1036.32 840.586 1036.32 836.508C1036.32 832.43 1037.31 829.164 1039.3 826.711C1041.3 824.258 1044 823.031 1047.41 823.031C1050.41 823.031 1052.77 824.086 1054.51 826.195C1056.24 828.289 1057.11 831.125 1057.11 834.703V836.578H1038.76C1038.79 840.078 1039.6 842.75 1041.2 844.594C1042.8 846.438 1045.1 847.359 1048.09 847.359C1049.57 847.359 1050.88 847.25 1052 847.031C1053.12 846.812 1054.49 846.383 1056.1 845.742V847.852C1054.68 848.477 1053.35 848.898 1052.12 849.117C1050.9 849.352 1049.55 849.469 1048.09 849.469ZM1054.65 834.516C1054.65 831.562 1054 829.258 1052.7 827.602C1051.41 825.93 1049.58 825.094 1047.22 825.094C1044.88 825.094 1042.96 825.906 1041.48 827.531C1040.01 829.156 1039.15 831.484 1038.9 834.516H1054.65ZM1088.33 849H1086.03V824.039C1086.03 821.773 1086.12 819.422 1086.31 816.984C1086 817.297 1085.76 817.523 1085.59 817.664L1078.34 823.359L1077.01 821.695L1086.31 814.734H1088.33V849ZM1104.43 846.844C1105.91 847.297 1107.45 847.523 1109.02 847.523C1112.9 847.523 1115.92 846.125 1118.09 843.328C1120.28 840.531 1121.5 836.469 1121.75 831.141H1121.47C1120.34 832.625 1118.99 833.773 1117.41 834.586C1115.84 835.398 1114.18 835.805 1112.45 835.805C1109.26 835.805 1106.78 834.93 1105.02 833.18C1103.25 831.414 1102.37 828.875 1102.37 825.562C1102.37 822.234 1103.34 819.508 1105.27 817.383C1107.21 815.258 1109.74 814.195 1112.87 814.195C1112.95 814.195 1113.02 814.195 1113.1 814.195C1116.38 814.195 1119.02 815.531 1121.02 818.203C1123.04 820.875 1124.05 824.492 1124.05 829.055C1124.05 829.133 1124.05 829.203 1124.05 829.266C1124.05 829.312 1124.05 829.352 1124.05 829.383C1124.05 836.023 1122.75 841.031 1120.16 844.406C1117.56 847.781 1113.88 849.469 1109.12 849.469C1109.05 849.469 1108.99 849.469 1108.93 849.469C1107.34 849.469 1105.84 849.266 1104.43 848.859V846.844ZM1112.87 816.258C1110.41 816.258 1108.45 817.094 1106.96 818.766C1105.49 820.422 1104.76 822.648 1104.76 825.445C1104.76 828.242 1105.43 830.352 1106.77 831.773C1108.13 833.18 1110.09 833.883 1112.63 833.883C1114.21 833.883 1115.68 833.539 1117.04 832.852C1118.4 832.148 1119.48 831.219 1120.3 830.062C1121.11 828.891 1121.52 827.695 1121.52 826.477C1121.52 824.664 1121.15 822.953 1120.41 821.344C1119.7 819.734 1118.68 818.484 1117.37 817.594C1116.05 816.703 1114.55 816.258 1112.87 816.258ZM1150.48 822.398C1150.48 824.18 1149.93 825.742 1148.82 827.086C1147.73 828.414 1145.95 829.641 1143.5 830.766C1146.52 832.016 1148.62 833.375 1149.83 834.844C1151.05 836.312 1151.66 838.086 1151.66 840.164C1151.66 842.992 1150.66 845.25 1148.68 846.938C1146.71 848.625 1144.02 849.469 1140.62 849.469C1137.23 849.469 1134.61 848.68 1132.77 847.102C1130.94 845.508 1130.02 843.211 1130.02 840.211C1130.02 836.102 1132.68 832.984 1137.99 830.859C1135.46 829.656 1133.68 828.406 1132.65 827.109C1131.63 825.797 1131.12 824.211 1131.12 822.352C1131.12 822.273 1131.12 822.195 1131.12 822.117C1131.12 819.805 1132.04 817.898 1133.87 816.398C1135.7 814.898 1137.96 814.148 1140.66 814.148C1140.71 814.148 1140.77 814.148 1140.83 814.148C1143.73 814.148 1146.07 814.891 1147.84 816.375C1149.6 817.844 1150.48 819.852 1150.48 822.398ZM1141.02 829.898C1143.58 828.914 1145.41 827.828 1146.5 826.641C1147.61 825.438 1148.16 823.953 1148.16 822.188C1148.16 820.422 1147.51 818.992 1146.2 817.898C1144.88 816.805 1143.09 816.258 1140.83 816.258C1138.58 816.258 1136.79 816.805 1135.46 817.898C1134.13 818.977 1133.47 820.461 1133.47 822.352C1133.47 823.461 1133.7 824.43 1134.17 825.258C1134.66 826.07 1135.35 826.812 1136.26 827.484C1137.18 828.156 1138.77 828.961 1141.02 829.898ZM1140.34 831.82C1137.48 832.914 1135.44 834.141 1134.22 835.5C1133.02 836.844 1132.41 838.562 1132.41 840.656C1132.41 842.75 1133.14 844.391 1134.59 845.578C1136.06 846.766 1138.09 847.359 1140.69 847.359C1143.3 847.359 1145.38 846.734 1146.92 845.484C1148.48 844.219 1149.27 842.562 1149.27 840.516C1149.27 838.453 1148.65 836.828 1147.41 835.641C1146.21 834.438 1143.85 833.164 1140.34 831.82ZM1167.57 814.242C1170.55 814.242 1172.9 815.039 1174.6 816.633C1176.32 818.227 1177.18 820.422 1177.18 823.219C1177.18 825.469 1176.6 827.656 1175.45 829.781C1174.29 831.906 1172.2 834.523 1169.16 837.633L1160.38 846.68V846.773H1178.7V849H1157.26V846.938L1166.38 837.422C1168.94 834.766 1170.73 832.734 1171.77 831.328C1172.81 829.906 1173.57 828.562 1174.04 827.297C1174.52 826.016 1174.77 824.672 1174.77 823.266C1174.77 821.234 1174.09 819.578 1172.75 818.297C1171.42 817 1169.68 816.352 1167.52 816.352C1164.65 816.352 1161.91 817.391 1159.32 819.469L1158.05 817.852C1160.9 815.445 1164.07 814.242 1167.57 814.242Z" fill="white"/>
<path d="M564.242 384H561.852V349.734H564.242V384ZM584.75 358.031C590.531 358.031 593.422 361.133 593.422 367.336V384H591.125V367.477C591.125 364.93 590.586 363.07 589.508 361.898C588.445 360.727 586.773 360.141 584.492 360.141C581.477 360.141 579.25 360.906 577.812 362.438C576.391 363.969 575.68 366.469 575.68 369.938V384H573.359V358.523H575.328L575.773 362.016H575.914C577.586 359.359 580.531 358.031 584.75 358.031ZM611.844 384.469C608.203 384.469 605.352 383.32 603.289 381.023C601.227 378.727 600.195 375.5 600.195 371.344C600.195 367.188 601.258 363.93 603.383 361.57C605.523 359.211 608.461 358.031 612.195 358.031C614.414 358.031 616.523 358.414 618.523 359.18L617.891 361.266C615.688 360.516 613.773 360.141 612.148 360.141C609.039 360.141 606.672 361.102 605.047 363.023C603.438 364.945 602.633 367.68 602.633 371.227C602.633 374.773 603.438 377.516 605.047 379.453C606.656 381.391 608.906 382.359 611.797 382.359C614.078 382.359 616.227 381.945 618.242 381.117V383.273C616.633 384.07 614.5 384.469 611.844 384.469ZM634.484 358.031C635.516 358.031 636.672 358.141 637.953 358.359L637.508 360.609C636.461 360.328 635.359 360.188 634.203 360.188C632.031 360.188 630.25 361.117 628.859 362.977C627.469 364.82 626.773 367.141 626.773 369.938V384H624.453V358.523H626.422L626.656 363.117H626.82C627.898 361.211 629.016 359.898 630.172 359.18C631.359 358.414 632.797 358.031 634.484 358.031ZM653.445 384.469C649.758 384.469 646.867 383.328 644.773 381.047C642.711 378.766 641.68 375.586 641.68 371.508C641.68 367.43 642.672 364.164 644.656 361.711C646.656 359.258 649.359 358.031 652.766 358.031C655.766 358.031 658.133 359.086 659.867 361.195C661.602 363.289 662.469 366.125 662.469 369.703V371.578H644.117C644.148 375.078 644.961 377.75 646.555 379.594C648.164 381.438 650.461 382.359 653.445 382.359C654.93 382.359 656.234 382.25 657.359 382.031C658.484 381.812 659.852 381.383 661.461 380.742V382.852C660.039 383.477 658.711 383.898 657.477 384.117C656.258 384.352 654.914 384.469 653.445 384.469ZM660.008 369.516C660.008 366.562 659.359 364.258 658.062 362.602C656.766 360.93 654.938 360.094 652.578 360.094C650.234 360.094 648.32 360.906 646.836 362.531C645.367 364.156 644.508 366.484 644.258 369.516H660.008ZM670.039 360.047C672.836 358.734 675.617 358.078 678.383 358.078C681.164 358.078 683.242 358.812 684.617 360.281C685.992 361.734 686.68 363.992 686.68 367.055V384H684.969L684.383 379.969H684.195C682.898 381.625 681.578 382.789 680.234 383.461C678.906 384.133 677.312 384.469 675.453 384.469C672.953 384.469 671 383.836 669.594 382.57C668.203 381.289 667.508 379.461 667.508 377.086C667.508 374.695 668.547 372.812 670.625 371.438C672.703 370.062 675.703 369.336 679.625 369.258L684.477 369.117V367.43C684.477 364.961 683.977 363.125 682.977 361.922C681.977 360.703 680.359 360.094 678.125 360.094C675.891 360.094 673.484 360.75 670.906 362.062L670.039 360.047ZM669.992 377.32C669.992 378.914 670.477 380.156 671.445 381.047C672.43 381.922 673.812 382.359 675.594 382.359C678.312 382.359 680.453 381.578 682.016 380.016C683.594 378.453 684.383 376.297 684.383 373.547V371.039L679.93 371.227C676.352 371.398 673.797 371.961 672.266 372.914C670.75 373.852 669.992 375.32 669.992 377.32ZM692.656 380.391C695.156 381.672 697.75 382.312 700.438 382.312C703.125 382.312 705.133 381.906 706.461 381.094C707.789 380.266 708.453 379.172 708.453 377.812C708.453 376.453 707.93 375.344 706.883 374.484C705.836 373.609 704.094 372.742 701.656 371.883C699.219 371.008 697.469 370.227 696.406 369.539C695.344 368.852 694.555 368.086 694.039 367.242C693.539 366.398 693.289 365.391 693.289 364.219C693.289 362.328 694.086 360.82 695.68 359.695C697.305 358.586 699.516 358.031 702.312 358.031C705.125 358.031 707.766 358.547 710.234 359.578L709.367 361.688C706.805 360.656 704.484 360.141 702.406 360.141C700.328 360.141 698.68 360.484 697.461 361.172C696.242 361.859 695.633 362.844 695.633 364.125C695.633 365.391 696.102 366.422 697.039 367.219C697.992 368.016 699.727 368.867 702.242 369.773C704.758 370.664 706.547 371.453 707.609 372.141C709.703 373.453 710.75 375.227 710.75 377.461C710.75 379.68 709.883 381.406 708.148 382.641C706.414 383.859 703.891 384.469 700.578 384.469C697.281 384.469 694.641 383.945 692.656 382.898V380.391ZM727.602 384.469C723.914 384.469 721.023 383.328 718.93 381.047C716.867 378.766 715.836 375.586 715.836 371.508C715.836 367.43 716.828 364.164 718.812 361.711C720.812 359.258 723.516 358.031 726.922 358.031C729.922 358.031 732.289 359.086 734.023 361.195C735.758 363.289 736.625 366.125 736.625 369.703V371.578H718.273C718.305 375.078 719.117 377.75 720.711 379.594C722.32 381.438 724.617 382.359 727.602 382.359C729.086 382.359 730.391 382.25 731.516 382.031C732.641 381.812 734.008 381.383 735.617 380.742V382.852C734.195 383.477 732.867 383.898 731.633 384.117C730.414 384.352 729.07 384.469 727.602 384.469ZM734.164 369.516C734.164 366.562 733.516 364.258 732.219 362.602C730.922 360.93 729.094 360.094 726.734 360.094C724.391 360.094 722.477 360.906 720.992 362.531C719.523 364.156 718.664 366.484 718.414 369.516H734.164ZM757.273 349.195C757.758 349.195 758.133 349.391 758.398 349.781C758.68 350.172 758.82 350.727 758.82 351.445C758.82 352.148 758.68 352.703 758.398 353.109C758.133 353.516 757.758 353.719 757.273 353.719C756.289 353.719 755.797 352.969 755.797 351.469C755.797 349.953 756.289 349.195 757.273 349.195ZM758.445 384H756.125V358.523H758.445V384ZM778.391 358.031C784.172 358.031 787.062 361.133 787.062 367.336V384H784.766V367.477C784.766 364.93 784.227 363.07 783.148 361.898C782.086 360.727 780.414 360.141 778.133 360.141C775.117 360.141 772.891 360.906 771.453 362.438C770.031 363.969 769.32 366.469 769.32 369.938V384H767V358.523H768.969L769.414 362.016H769.555C771.227 359.359 774.172 358.031 778.391 358.031ZM805.484 380.391C807.984 381.672 810.578 382.312 813.266 382.312C815.953 382.312 817.961 381.906 819.289 381.094C820.617 380.266 821.281 379.172 821.281 377.812C821.281 376.453 820.758 375.344 819.711 374.484C818.664 373.609 816.922 372.742 814.484 371.883C812.047 371.008 810.297 370.227 809.234 369.539C808.172 368.852 807.383 368.086 806.867 367.242C806.367 366.398 806.117 365.391 806.117 364.219C806.117 362.328 806.914 360.82 808.508 359.695C810.133 358.586 812.344 358.031 815.141 358.031C817.953 358.031 820.594 358.547 823.062 359.578L822.195 361.688C819.633 360.656 817.312 360.141 815.234 360.141C813.156 360.141 811.508 360.484 810.289 361.172C809.07 361.859 808.461 362.844 808.461 364.125C808.461 365.391 808.93 366.422 809.867 367.219C810.82 368.016 812.555 368.867 815.07 369.773C817.586 370.664 819.375 371.453 820.438 372.141C822.531 373.453 823.578 375.227 823.578 377.461C823.578 379.68 822.711 381.406 820.977 382.641C819.242 383.859 816.719 384.469 813.406 384.469C810.109 384.469 807.469 383.945 805.484 382.898V380.391ZM828.641 371.227C828.641 367.086 829.648 363.852 831.664 361.523C833.68 359.195 836.438 358.031 839.938 358.031C843.453 358.031 846.203 359.211 848.188 361.57C850.188 363.93 851.188 367.172 851.188 371.297C851.188 375.406 850.18 378.633 848.164 380.977C846.148 383.305 843.367 384.469 839.82 384.469C839.742 384.469 839.656 384.469 839.562 384.469C836.328 384.469 833.695 383.273 831.664 380.883C829.648 378.492 828.641 375.391 828.641 371.578C828.641 371.453 828.641 371.336 828.641 371.227ZM839.914 382.359C842.727 382.359 844.898 381.383 846.43 379.43C847.961 377.477 848.727 374.742 848.727 371.227C848.727 367.695 847.945 364.969 846.383 363.047C844.836 361.109 842.656 360.141 839.844 360.141C837.047 360.141 834.883 361.109 833.352 363.047C831.836 364.969 831.078 367.688 831.078 371.203C831.078 374.703 831.844 377.445 833.375 379.43C834.922 381.383 837.102 382.359 839.914 382.359ZM859.414 356.344C859.414 353.188 859.992 350.891 861.148 349.453C862.305 348 864.18 347.273 866.773 347.273C868.18 347.273 869.586 347.484 870.992 347.906L870.453 349.922C869.234 349.531 867.992 349.336 866.727 349.336C864.93 349.336 863.648 349.875 862.883 350.953C862.117 352.016 861.734 353.75 861.734 356.156V358.523H867.734V360.539H861.734V384H859.414V360.539H854.68V359.18L859.414 358.312V356.344ZM875.117 358.523H882.594V360.539H875.117V376.664C875.117 378.617 875.461 380.062 876.148 381C876.836 381.938 877.922 382.406 879.406 382.406C880.891 382.406 882.164 382.281 883.227 382.031V383.906C882.102 384.281 880.805 384.469 879.336 384.469C877.086 384.469 875.422 383.867 874.344 382.664C873.281 381.461 872.75 379.57 872.75 376.992V360.539H868.977V359.18L872.75 358.125L873.922 352.359H875.117V358.523ZM921.219 384H919.672L919.109 380.109H918.922C916.984 383.016 914.227 384.469 910.648 384.469C907.086 384.469 904.375 383.375 902.516 381.188C900.656 378.984 899.727 375.742 899.727 371.461C899.727 367.164 900.648 363.852 902.492 361.523C904.336 359.195 907.016 358.031 910.531 358.031C912.406 358.031 914.008 358.375 915.336 359.062C916.68 359.75 917.875 360.891 918.922 362.484H919.062C918.969 360.516 918.922 358.586 918.922 356.695V347.531H921.219V384ZM918.922 371.625V371.227C918.922 367.273 918.258 364.438 916.93 362.719C915.602 361 913.508 360.141 910.648 360.141C907.805 360.141 905.68 361.117 904.273 363.07C902.867 365.008 902.164 367.844 902.164 371.578C902.164 378.797 904.969 382.406 910.578 382.406C913.453 382.406 915.562 381.57 916.906 379.898C918.25 378.227 918.922 375.469 918.922 371.625ZM939.828 358.031C940.859 358.031 942.016 358.141 943.297 358.359L942.852 360.609C941.805 360.328 940.703 360.188 939.547 360.188C937.375 360.188 935.594 361.117 934.203 362.977C932.812 364.82 932.117 367.141 932.117 369.938V384H929.797V358.523H931.766L932 363.117H932.164C933.242 361.211 934.359 359.898 935.516 359.18C936.703 358.414 938.141 358.031 939.828 358.031ZM949.648 349.195C950.133 349.195 950.508 349.391 950.773 349.781C951.055 350.172 951.195 350.727 951.195 351.445C951.195 352.148 951.055 352.703 950.773 353.109C950.508 353.516 950.133 353.719 949.648 353.719C948.664 353.719 948.172 352.969 948.172 351.469C948.172 349.953 948.664 349.195 949.648 349.195ZM950.82 384H948.5V358.523H950.82V384ZM970.766 358.031C976.547 358.031 979.438 361.133 979.438 367.336V384H977.141V367.477C977.141 364.93 976.602 363.07 975.523 361.898C974.461 360.727 972.789 360.141 970.508 360.141C967.492 360.141 965.266 360.906 963.828 362.438C962.406 363.969 961.695 366.469 961.695 369.938V384H959.375V358.523H961.344L961.789 362.016H961.93C963.602 359.359 966.547 358.031 970.766 358.031ZM990.008 384H987.688V347.531H990.008V365.812L989.844 372.82H989.961L1002.97 358.523H1005.78L995.75 369.398L1006.62 384H1003.86L994.18 371.133L990.008 374.93V384ZM1008.59 380.391C1011.09 381.672 1013.69 382.312 1016.38 382.312C1019.06 382.312 1021.07 381.906 1022.4 381.094C1023.73 380.266 1024.39 379.172 1024.39 377.812C1024.39 376.453 1023.87 375.344 1022.82 374.484C1021.77 373.609 1020.03 372.742 1017.59 371.883C1015.16 371.008 1013.41 370.227 1012.34 369.539C1011.28 368.852 1010.49 368.086 1009.98 367.242C1009.48 366.398 1009.23 365.391 1009.23 364.219C1009.23 362.328 1010.02 360.82 1011.62 359.695C1013.24 358.586 1015.45 358.031 1018.25 358.031C1021.06 358.031 1023.7 358.547 1026.17 359.578L1025.3 361.688C1022.74 360.656 1020.42 360.141 1018.34 360.141C1016.27 360.141 1014.62 360.484 1013.4 361.172C1012.18 361.859 1011.57 362.844 1011.57 364.125C1011.57 365.391 1012.04 366.422 1012.98 367.219C1013.93 368.016 1015.66 368.867 1018.18 369.773C1020.7 370.664 1022.48 371.453 1023.55 372.141C1025.64 373.453 1026.69 375.227 1026.69 377.461C1026.69 379.68 1025.82 381.406 1024.09 382.641C1022.35 383.859 1019.83 384.469 1016.52 384.469C1013.22 384.469 1010.58 383.945 1008.59 382.898V380.391Z" fill="white"/>
<path d="M564.242 549H561.852V514.734H564.242V549ZM584.75 523.031C590.531 523.031 593.422 526.133 593.422 532.336V549H591.125V532.477C591.125 529.93 590.586 528.07 589.508 526.898C588.445 525.727 586.773 525.141 584.492 525.141C581.477 525.141 579.25 525.906 577.812 527.438C576.391 528.969 575.68 531.469 575.68 534.938V549H573.359V523.523H575.328L575.773 527.016H575.914C577.586 524.359 580.531 523.031 584.75 523.031ZM611.844 549.469C608.203 549.469 605.352 548.32 603.289 546.023C601.227 543.727 600.195 540.5 600.195 536.344C600.195 532.188 601.258 528.93 603.383 526.57C605.523 524.211 608.461 523.031 612.195 523.031C614.414 523.031 616.523 523.414 618.523 524.18L617.891 526.266C615.688 525.516 613.773 525.141 612.148 525.141C609.039 525.141 606.672 526.102 605.047 528.023C603.438 529.945 602.633 532.68 602.633 536.227C602.633 539.773 603.438 542.516 605.047 544.453C606.656 546.391 608.906 547.359 611.797 547.359C614.078 547.359 616.227 546.945 618.242 546.117V548.273C616.633 549.07 614.5 549.469 611.844 549.469ZM634.484 523.031C635.516 523.031 636.672 523.141 637.953 523.359L637.508 525.609C636.461 525.328 635.359 525.188 634.203 525.188C632.031 525.188 630.25 526.117 628.859 527.977C627.469 529.82 626.773 532.141 626.773 534.938V549H624.453V523.523H626.422L626.656 528.117H626.82C627.898 526.211 629.016 524.898 630.172 524.18C631.359 523.414 632.797 523.031 634.484 523.031ZM653.445 549.469C649.758 549.469 646.867 548.328 644.773 546.047C642.711 543.766 641.68 540.586 641.68 536.508C641.68 532.43 642.672 529.164 644.656 526.711C646.656 524.258 649.359 523.031 652.766 523.031C655.766 523.031 658.133 524.086 659.867 526.195C661.602 528.289 662.469 531.125 662.469 534.703V536.578H644.117C644.148 540.078 644.961 542.75 646.555 544.594C648.164 546.438 650.461 547.359 653.445 547.359C654.93 547.359 656.234 547.25 657.359 547.031C658.484 546.812 659.852 546.383 661.461 545.742V547.852C660.039 548.477 658.711 548.898 657.477 549.117C656.258 549.352 654.914 549.469 653.445 549.469ZM660.008 534.516C660.008 531.562 659.359 529.258 658.062 527.602C656.766 525.93 654.938 525.094 652.578 525.094C650.234 525.094 648.32 525.906 646.836 527.531C645.367 529.156 644.508 531.484 644.258 534.516H660.008ZM670.039 525.047C672.836 523.734 675.617 523.078 678.383 523.078C681.164 523.078 683.242 523.812 684.617 525.281C685.992 526.734 686.68 528.992 686.68 532.055V549H684.969L684.383 544.969H684.195C682.898 546.625 681.578 547.789 680.234 548.461C678.906 549.133 677.312 549.469 675.453 549.469C672.953 549.469 671 548.836 669.594 547.57C668.203 546.289 667.508 544.461 667.508 542.086C667.508 539.695 668.547 537.812 670.625 536.438C672.703 535.062 675.703 534.336 679.625 534.258L684.477 534.117V532.43C684.477 529.961 683.977 528.125 682.977 526.922C681.977 525.703 680.359 525.094 678.125 525.094C675.891 525.094 673.484 525.75 670.906 527.062L670.039 525.047ZM669.992 542.32C669.992 543.914 670.477 545.156 671.445 546.047C672.43 546.922 673.812 547.359 675.594 547.359C678.312 547.359 680.453 546.578 682.016 545.016C683.594 543.453 684.383 541.297 684.383 538.547V536.039L679.93 536.227C676.352 536.398 673.797 536.961 672.266 537.914C670.75 538.852 669.992 540.32 669.992 542.32ZM692.656 545.391C695.156 546.672 697.75 547.312 700.438 547.312C703.125 547.312 705.133 546.906 706.461 546.094C707.789 545.266 708.453 544.172 708.453 542.812C708.453 541.453 707.93 540.344 706.883 539.484C705.836 538.609 704.094 537.742 701.656 536.883C699.219 536.008 697.469 535.227 696.406 534.539C695.344 533.852 694.555 533.086 694.039 532.242C693.539 531.398 693.289 530.391 693.289 529.219C693.289 527.328 694.086 525.82 695.68 524.695C697.305 523.586 699.516 523.031 702.312 523.031C705.125 523.031 707.766 523.547 710.234 524.578L709.367 526.688C706.805 525.656 704.484 525.141 702.406 525.141C700.328 525.141 698.68 525.484 697.461 526.172C696.242 526.859 695.633 527.844 695.633 529.125C695.633 530.391 696.102 531.422 697.039 532.219C697.992 533.016 699.727 533.867 702.242 534.773C704.758 535.664 706.547 536.453 707.609 537.141C709.703 538.453 710.75 540.227 710.75 542.461C710.75 544.68 709.883 546.406 708.148 547.641C706.414 548.859 703.891 549.469 700.578 549.469C697.281 549.469 694.641 548.945 692.656 547.898V545.391ZM727.602 549.469C723.914 549.469 721.023 548.328 718.93 546.047C716.867 543.766 715.836 540.586 715.836 536.508C715.836 532.43 716.828 529.164 718.812 526.711C720.812 524.258 723.516 523.031 726.922 523.031C729.922 523.031 732.289 524.086 734.023 526.195C735.758 528.289 736.625 531.125 736.625 534.703V536.578H718.273C718.305 540.078 719.117 542.75 720.711 544.594C722.32 546.438 724.617 547.359 727.602 547.359C729.086 547.359 730.391 547.25 731.516 547.031C732.641 546.812 734.008 546.383 735.617 545.742V547.852C734.195 548.477 732.867 548.898 731.633 549.117C730.414 549.352 729.07 549.469 727.602 549.469ZM734.164 534.516C734.164 531.562 733.516 529.258 732.219 527.602C730.922 525.93 729.094 525.094 726.734 525.094C724.391 525.094 722.477 525.906 720.992 527.531C719.523 529.156 718.664 531.484 718.414 534.516H734.164ZM757.273 514.195C757.758 514.195 758.133 514.391 758.398 514.781C758.68 515.172 758.82 515.727 758.82 516.445C758.82 517.148 758.68 517.703 758.398 518.109C758.133 518.516 757.758 518.719 757.273 518.719C756.289 518.719 755.797 517.969 755.797 516.469C755.797 514.953 756.289 514.195 757.273 514.195ZM758.445 549H756.125V523.523H758.445V549ZM778.391 523.031C784.172 523.031 787.062 526.133 787.062 532.336V549H784.766V532.477C784.766 529.93 784.227 528.07 783.148 526.898C782.086 525.727 780.414 525.141 778.133 525.141C775.117 525.141 772.891 525.906 771.453 527.438C770.031 528.969 769.32 531.469 769.32 534.938V549H767V523.523H768.969L769.414 527.016H769.555C771.227 524.359 774.172 523.031 778.391 523.031ZM817.953 549.469C814.312 549.469 811.461 548.32 809.398 546.023C807.336 543.727 806.305 540.5 806.305 536.344C806.305 532.188 807.367 528.93 809.492 526.57C811.633 524.211 814.57 523.031 818.305 523.031C820.523 523.031 822.633 523.414 824.633 524.18L824 526.266C821.797 525.516 819.883 525.141 818.258 525.141C815.148 525.141 812.781 526.102 811.156 528.023C809.547 529.945 808.742 532.68 808.742 536.227C808.742 539.773 809.547 542.516 811.156 544.453C812.766 546.391 815.016 547.359 817.906 547.359C820.188 547.359 822.336 546.945 824.352 546.117V548.273C822.742 549.07 820.609 549.469 817.953 549.469ZM831.102 525.047C833.898 523.734 836.68 523.078 839.445 523.078C842.227 523.078 844.305 523.812 845.68 525.281C847.055 526.734 847.742 528.992 847.742 532.055V549H846.031L845.445 544.969H845.258C843.961 546.625 842.641 547.789 841.297 548.461C839.969 549.133 838.375 549.469 836.516 549.469C834.016 549.469 832.062 548.836 830.656 547.57C829.266 546.289 828.57 544.461 828.57 542.086C828.57 539.695 829.609 537.812 831.688 536.438C833.766 535.062 836.766 534.336 840.688 534.258L845.539 534.117V532.43C845.539 529.961 845.039 528.125 844.039 526.922C843.039 525.703 841.422 525.094 839.188 525.094C836.953 525.094 834.547 525.75 831.969 527.062L831.102 525.047ZM831.055 542.32C831.055 543.914 831.539 545.156 832.508 546.047C833.492 546.922 834.875 547.359 836.656 547.359C839.375 547.359 841.516 546.578 843.078 545.016C844.656 543.453 845.445 541.297 845.445 538.547V536.039L840.992 536.227C837.414 536.398 834.859 536.961 833.328 537.914C831.812 538.852 831.055 540.32 831.055 542.32ZM867.406 523.031C873.188 523.031 876.078 526.133 876.078 532.336V549H873.781V532.477C873.781 529.93 873.242 528.07 872.164 526.898C871.102 525.727 869.43 525.141 867.148 525.141C864.133 525.141 861.906 525.906 860.469 527.438C859.047 528.969 858.336 531.469 858.336 534.938V549H856.016V523.523H857.984L858.43 527.016H858.57C860.242 524.359 863.188 523.031 867.406 523.031ZM904.344 549H902.797L902.234 545.109H902.047C900.109 548.016 897.352 549.469 893.773 549.469C890.211 549.469 887.5 548.375 885.641 546.188C883.781 543.984 882.852 540.742 882.852 536.461C882.852 532.164 883.773 528.852 885.617 526.523C887.461 524.195 890.141 523.031 893.656 523.031C895.531 523.031 897.133 523.375 898.461 524.062C899.805 524.75 901 525.891 902.047 527.484H902.188C902.094 525.516 902.047 523.586 902.047 521.695V512.531H904.344V549ZM902.047 536.625V536.227C902.047 532.273 901.383 529.438 900.055 527.719C898.727 526 896.633 525.141 893.773 525.141C890.93 525.141 888.805 526.117 887.398 528.07C885.992 530.008 885.289 532.844 885.289 536.578C885.289 543.797 888.094 547.406 893.703 547.406C896.578 547.406 898.688 546.57 900.031 544.898C901.375 543.227 902.047 540.469 902.047 536.625ZM911.727 560.531C910.836 560.531 909.844 560.367 908.75 560.039V558.023C909.641 558.273 910.617 558.398 911.68 558.398C913.242 558.398 914.492 557.625 915.43 556.078C915.945 555.266 916.516 554.016 917.141 552.328L918.406 549L908.656 523.523H911.047L916.438 537.82C918.031 542.086 919.07 545.055 919.555 546.727H919.695C920.258 544.977 921.328 541.961 922.906 537.68L928.297 523.523H930.688L919.273 553.125C918.367 555.516 917.594 557.141 916.953 558C915.703 559.688 913.961 560.531 911.727 560.531Z" fill="white"/>
<path d="M319.976 400L344.102 347.266H312.417V335.84H358.516V344.365L334.214 400H319.976ZM371.392 400L395.518 347.266H363.833V335.84H409.932V344.365L385.63 400H371.392ZM426.675 355C426.675 358.721 426.997 361.504 427.642 363.35C428.315 365.166 429.385 366.074 430.85 366.074C433.662 366.074 435.068 362.383 435.068 355C435.068 347.676 433.662 344.014 430.85 344.014C429.385 344.014 428.315 344.922 427.642 346.738C426.997 348.525 426.675 351.279 426.675 355ZM446.143 354.912C446.143 361.65 444.839 366.719 442.231 370.117C439.624 373.486 435.801 375.171 430.762 375.171C425.928 375.171 422.192 373.442 419.556 369.985C416.919 366.499 415.601 361.475 415.601 354.912C415.601 341.523 420.654 334.829 430.762 334.829C435.713 334.829 439.507 336.572 442.144 340.059C444.81 343.516 446.143 348.467 446.143 354.912ZM476.377 335.752L440.737 400H430.19L465.83 335.752H476.377ZM471.675 380.664C471.675 384.385 471.997 387.168 472.642 389.014C473.315 390.83 474.385 391.738 475.85 391.738C478.662 391.738 480.068 388.047 480.068 380.664C480.068 373.34 478.662 369.678 475.85 369.678C474.385 369.678 473.315 370.586 472.642 372.402C471.997 374.189 471.675 376.943 471.675 380.664ZM491.143 380.576C491.143 387.285 489.839 392.339 487.231 395.737C484.624 399.106 480.801 400.791 475.762 400.791C470.928 400.791 467.192 399.062 464.556 395.605C461.919 392.119 460.601 387.109 460.601 380.576C460.601 367.188 465.654 360.493 475.762 360.493C480.713 360.493 484.507 362.236 487.144 365.723C489.81 369.18 491.143 374.131 491.143 380.576Z" fill="#E97E00"/>
<path d="M336.982 520.955C343.193 520.955 348.13 522.698 351.792 526.185C355.483 529.671 357.329 534.446 357.329 540.511C357.329 547.688 355.117 553.211 350.693 557.078C346.27 560.945 339.941 562.879 331.709 562.879C324.561 562.879 318.789 561.722 314.395 559.407V547.674C316.709 548.904 319.404 549.915 322.48 550.706C325.557 551.468 328.472 551.849 331.226 551.849C339.517 551.849 343.662 548.45 343.662 541.653C343.662 535.179 339.37 531.941 330.786 531.941C329.233 531.941 327.52 532.103 325.645 532.425C323.77 532.718 322.246 533.04 321.074 533.392L315.669 530.491L318.086 497.752H352.935V509.266H329.995L328.809 521.878L330.347 521.57C332.134 521.16 334.346 520.955 336.982 520.955ZM407.427 512.122C407.427 516.136 406.211 519.549 403.779 522.361C401.348 525.174 397.935 527.107 393.54 528.162V528.426C398.726 529.07 402.651 530.652 405.317 533.172C407.983 535.662 409.316 539.031 409.316 543.279C409.316 549.461 407.075 554.28 402.593 557.737C398.11 561.165 391.709 562.879 383.389 562.879C376.416 562.879 370.234 561.722 364.844 559.407V547.85C367.334 549.109 370.073 550.135 373.062 550.926C376.05 551.717 379.009 552.112 381.938 552.112C386.421 552.112 389.731 551.351 391.87 549.827C394.009 548.304 395.078 545.857 395.078 542.488C395.078 539.471 393.848 537.332 391.387 536.072C388.926 534.812 385 534.183 379.609 534.183H374.731V523.768H379.697C384.678 523.768 388.311 523.123 390.596 521.834C392.91 520.516 394.067 518.274 394.067 515.11C394.067 510.247 391.021 507.815 384.927 507.815C382.817 507.815 380.664 508.167 378.467 508.87C376.299 509.573 373.882 510.789 371.216 512.518L364.932 503.157C370.791 498.938 377.778 496.829 385.894 496.829C392.544 496.829 397.788 498.177 401.626 500.872C405.493 503.567 407.427 507.317 407.427 512.122ZM426.675 517C426.675 520.721 426.997 523.504 427.642 525.35C428.315 527.166 429.385 528.074 430.85 528.074C433.662 528.074 435.068 524.383 435.068 517C435.068 509.676 433.662 506.014 430.85 506.014C429.385 506.014 428.315 506.922 427.642 508.738C426.997 510.525 426.675 513.279 426.675 517ZM446.143 516.912C446.143 523.65 444.839 528.719 442.231 532.117C439.624 535.486 435.801 537.171 430.762 537.171C425.928 537.171 422.192 535.442 419.556 531.985C416.919 528.499 415.601 523.475 415.601 516.912C415.601 503.523 420.654 496.829 430.762 496.829C435.713 496.829 439.507 498.572 442.144 502.059C444.81 505.516 446.143 510.467 446.143 516.912ZM476.377 497.752L440.737 562H430.19L465.83 497.752H476.377ZM471.675 542.664C471.675 546.385 471.997 549.168 472.642 551.014C473.315 552.83 474.385 553.738 475.85 553.738C478.662 553.738 480.068 550.047 480.068 542.664C480.068 535.34 478.662 531.678 475.85 531.678C474.385 531.678 473.315 532.586 472.642 534.402C471.997 536.189 471.675 538.943 471.675 542.664ZM491.143 542.576C491.143 549.285 489.839 554.339 487.231 557.737C484.624 561.106 480.801 562.791 475.762 562.791C470.928 562.791 467.192 561.062 464.556 557.605C461.919 554.119 460.601 549.109 460.601 542.576C460.601 529.188 465.654 522.493 475.762 522.493C480.713 522.493 484.507 524.236 487.144 527.723C489.81 531.18 491.143 536.131 491.143 542.576Z" fill="#E97E00"/>
<path d="M336.982 675.955C343.193 675.955 348.13 677.698 351.792 681.185C355.483 684.671 357.329 689.446 357.329 695.511C357.329 702.688 355.117 708.211 350.693 712.078C346.27 715.945 339.941 717.879 331.709 717.879C324.561 717.879 318.789 716.722 314.395 714.407V702.674C316.709 703.904 319.404 704.915 322.48 705.706C325.557 706.468 328.472 706.849 331.226 706.849C339.517 706.849 343.662 703.45 343.662 696.653C343.662 690.179 339.37 686.941 330.786 686.941C329.233 686.941 327.52 687.103 325.645 687.425C323.77 687.718 322.246 688.04 321.074 688.392L315.669 685.491L318.086 652.752H352.935V664.266H329.995L328.809 676.878L330.347 676.57C332.134 676.16 334.346 675.955 336.982 675.955ZM407.427 667.122C407.427 671.136 406.211 674.549 403.779 677.361C401.348 680.174 397.935 682.107 393.54 683.162V683.426C398.726 684.07 402.651 685.652 405.317 688.172C407.983 690.662 409.316 694.031 409.316 698.279C409.316 704.461 407.075 709.28 402.593 712.737C398.11 716.165 391.709 717.879 383.389 717.879C376.416 717.879 370.234 716.722 364.844 714.407V702.85C367.334 704.109 370.073 705.135 373.062 705.926C376.05 706.717 379.009 707.112 381.938 707.112C386.421 707.112 389.731 706.351 391.87 704.827C394.009 703.304 395.078 700.857 395.078 697.488C395.078 694.471 393.848 692.332 391.387 691.072C388.926 689.812 385 689.183 379.609 689.183H374.731V678.768H379.697C384.678 678.768 388.311 678.123 390.596 676.834C392.91 675.516 394.067 673.274 394.067 670.11C394.067 665.247 391.021 662.815 384.927 662.815C382.817 662.815 380.664 663.167 378.467 663.87C376.299 664.573 373.882 665.789 371.216 667.518L364.932 658.157C370.791 653.938 377.778 651.829 385.894 651.829C392.544 651.829 397.788 653.177 401.626 655.872C405.493 658.567 407.427 662.317 407.427 667.122ZM426.675 672C426.675 675.721 426.997 678.504 427.642 680.35C428.315 682.166 429.385 683.074 430.85 683.074C433.662 683.074 435.068 679.383 435.068 672C435.068 664.676 433.662 661.014 430.85 661.014C429.385 661.014 428.315 661.922 427.642 663.738C426.997 665.525 426.675 668.279 426.675 672ZM446.143 671.912C446.143 678.65 444.839 683.719 442.231 687.117C439.624 690.486 435.801 692.171 430.762 692.171C425.928 692.171 422.192 690.442 419.556 686.985C416.919 683.499 415.601 678.475 415.601 671.912C415.601 658.523 420.654 651.829 430.762 651.829C435.713 651.829 439.507 653.572 442.144 657.059C444.81 660.516 446.143 665.467 446.143 671.912ZM476.377 652.752L440.737 717H430.19L465.83 652.752H476.377ZM471.675 697.664C471.675 701.385 471.997 704.168 472.642 706.014C473.315 707.83 474.385 708.738 475.85 708.738C478.662 708.738 480.068 705.047 480.068 697.664C480.068 690.34 478.662 686.678 475.85 686.678C474.385 686.678 473.315 687.586 472.642 689.402C471.997 691.189 471.675 693.943 471.675 697.664ZM491.143 697.576C491.143 704.285 489.839 709.339 487.231 712.737C484.624 716.106 480.801 717.791 475.762 717.791C470.928 717.791 467.192 716.062 464.556 712.605C461.919 709.119 460.601 704.109 460.601 697.576C460.601 684.188 465.654 677.493 475.762 677.493C480.713 677.493 484.507 679.236 487.144 682.723C489.81 686.18 491.143 691.131 491.143 697.576Z" fill="#19ADB7"/>
<path d="M336.982 822.955C343.193 822.955 348.13 824.698 351.792 828.185C355.483 831.671 357.329 836.446 357.329 842.511C357.329 849.688 355.117 855.211 350.693 859.078C346.27 862.945 339.941 864.879 331.709 864.879C324.561 864.879 318.789 863.722 314.395 861.407V849.674C316.709 850.904 319.404 851.915 322.48 852.706C325.557 853.468 328.472 853.849 331.226 853.849C339.517 853.849 343.662 850.45 343.662 843.653C343.662 837.179 339.37 833.941 330.786 833.941C329.233 833.941 327.52 834.103 325.645 834.425C323.77 834.718 322.246 835.04 321.074 835.392L315.669 832.491L318.086 799.752H352.935V811.266H329.995L328.809 823.878L330.347 823.57C332.134 823.16 334.346 822.955 336.982 822.955ZM407.427 814.122C407.427 818.136 406.211 821.549 403.779 824.361C401.348 827.174 397.935 829.107 393.54 830.162V830.426C398.726 831.07 402.651 832.652 405.317 835.172C407.983 837.662 409.316 841.031 409.316 845.279C409.316 851.461 407.075 856.28 402.593 859.737C398.11 863.165 391.709 864.879 383.389 864.879C376.416 864.879 370.234 863.722 364.844 861.407V849.85C367.334 851.109 370.073 852.135 373.062 852.926C376.05 853.717 379.009 854.112 381.938 854.112C386.421 854.112 389.731 853.351 391.87 851.827C394.009 850.304 395.078 847.857 395.078 844.488C395.078 841.471 393.848 839.332 391.387 838.072C388.926 836.812 385 836.183 379.609 836.183H374.731V825.768H379.697C384.678 825.768 388.311 825.123 390.596 823.834C392.91 822.516 394.067 820.274 394.067 817.11C394.067 812.247 391.021 809.815 384.927 809.815C382.817 809.815 380.664 810.167 378.467 810.87C376.299 811.573 373.882 812.789 371.216 814.518L364.932 805.157C370.791 800.938 377.778 798.829 385.894 798.829C392.544 798.829 397.788 800.177 401.626 802.872C405.493 805.567 407.427 809.317 407.427 814.122ZM426.675 819C426.675 822.721 426.997 825.504 427.642 827.35C428.315 829.166 429.385 830.074 430.85 830.074C433.662 830.074 435.068 826.383 435.068 819C435.068 811.676 433.662 808.014 430.85 808.014C429.385 808.014 428.315 808.922 427.642 810.738C426.997 812.525 426.675 815.279 426.675 819ZM446.143 818.912C446.143 825.65 444.839 830.719 442.231 834.117C439.624 837.486 435.801 839.171 430.762 839.171C425.928 839.171 422.192 837.442 419.556 833.985C416.919 830.499 415.601 825.475 415.601 818.912C415.601 805.523 420.654 798.829 430.762 798.829C435.713 798.829 439.507 800.572 442.144 804.059C444.81 807.516 446.143 812.467 446.143 818.912ZM476.377 799.752L440.737 864H430.19L465.83 799.752H476.377ZM471.675 844.664C471.675 848.385 471.997 851.168 472.642 853.014C473.315 854.83 474.385 855.738 475.85 855.738C478.662 855.738 480.068 852.047 480.068 844.664C480.068 837.34 478.662 833.678 475.85 833.678C474.385 833.678 473.315 834.586 472.642 836.402C471.997 838.189 471.675 840.943 471.675 844.664ZM491.143 844.576C491.143 851.285 489.839 856.339 487.231 859.737C484.624 863.106 480.801 864.791 475.762 864.791C470.928 864.791 467.192 863.062 464.556 859.605C461.919 856.119 460.601 851.109 460.601 844.576C460.601 831.188 465.654 824.493 475.762 824.493C480.713 824.493 484.507 826.236 487.144 829.723C489.81 833.18 491.143 838.131 491.143 844.576Z" fill="#E97E00"/>
<path d="M24.1104 471.111C21.9626 473.259 21.9626 476.741 24.1104 478.889L59.1122 513.891C61.2601 516.039 64.7425 516.039 66.8904 513.891C69.0383 511.743 69.0383 508.261 66.8904 506.113L35.7777 475L66.8904 443.887C69.0383 441.739 69.0383 438.257 66.8904 436.109C64.7425 433.961 61.2601 433.961 59.1122 436.109L24.1104 471.111ZM270.008 469.5L27.9995 469.5V480.5L270.008 480.5V469.5Z" fill="#FF4D00"/>
</svg>
