<svg width="950" height="926" viewBox="0 0 950 926" fill="none" xmlns="http://www.w3.org/2000/svg">
<rect width="950" height="926" fill="#E2E2E2"/>
<path d="M91.2344 142H88.2812L76.9961 102.344C76.0352 99.0625 75.332 96.3906 74.8867 94.3281C74.4648 96.5547 73.9609 98.793 73.375 101.043C72.7891 103.27 68.9805 116.922 61.9492 142H58.9258L44.793 90.6016H48.5547L57.5547 123.719C59.1953 129.977 60.2031 134.172 60.5781 136.305C61.1406 133.164 62.3359 128.324 64.1641 121.785L72.9531 90.6016H76.9258L87.2266 126.391C88.375 130.328 89.2305 133.656 89.793 136.375C90.0977 134.688 90.4844 132.895 90.9531 130.996C91.4453 129.098 95.0664 115.633 101.816 90.6016H105.438L91.2344 142ZM130.75 103.047C139.422 103.047 143.758 107.699 143.758 117.004V142H140.312V117.215C140.312 113.395 139.504 110.605 137.887 108.848C136.293 107.09 133.785 106.211 130.363 106.211C125.84 106.211 122.5 107.359 120.344 109.656C118.211 111.953 117.145 115.703 117.145 120.906V142H113.664V87.2969H117.145V104.699L116.969 109.586H117.215C118.621 107.312 120.414 105.66 122.594 104.629C124.773 103.574 127.492 103.047 130.75 103.047ZM156.941 106.07C161.137 104.102 165.309 103.117 169.457 103.117C173.629 103.117 176.746 104.219 178.809 106.422C180.871 108.602 181.902 111.988 181.902 116.582V142H179.336L178.457 135.953H178.176C176.23 138.438 174.25 140.184 172.234 141.191C170.242 142.199 167.852 142.703 165.062 142.703C161.312 142.703 158.383 141.754 156.273 139.855C154.188 137.934 153.145 135.191 153.145 131.629C153.145 128.043 154.703 125.219 157.82 123.156C160.938 121.094 165.438 120.004 171.32 119.887L178.598 119.676V117.145C178.598 113.441 177.848 110.688 176.348 108.883C174.848 107.055 172.422 106.141 169.07 106.141C165.719 106.141 162.109 107.125 158.242 109.094L156.941 106.07ZM156.871 131.98C156.871 134.371 157.598 136.234 159.051 137.57C160.527 138.883 162.602 139.539 165.273 139.539C169.352 139.539 172.562 138.367 174.906 136.023C177.273 133.68 178.457 130.445 178.457 126.32V122.559L171.777 122.84C166.41 123.098 162.578 123.941 160.281 125.371C158.008 126.777 156.871 128.98 156.871 131.98ZM198.004 103.785H209.219V106.809H198.004V130.996C198.004 133.926 198.52 136.094 199.551 137.5C200.582 138.906 202.211 139.609 204.438 139.609C206.664 139.609 208.574 139.422 210.168 139.047V141.859C208.48 142.422 206.535 142.703 204.332 142.703C200.957 142.703 198.461 141.801 196.844 139.996C195.25 138.191 194.453 135.355 194.453 131.488V106.809H188.793V104.77L194.453 103.188L196.211 94.5391H198.004V103.785ZM254.219 103.047C262.891 103.047 267.227 107.699 267.227 117.004V142H263.781V117.215C263.781 113.395 262.973 110.605 261.355 108.848C259.762 107.09 257.254 106.211 253.832 106.211C249.309 106.211 245.969 107.359 243.812 109.656C241.68 111.953 240.613 115.703 240.613 120.906V142H237.133V87.2969H240.613V104.699L240.438 109.586H240.684C242.09 107.312 243.883 105.66 246.062 104.629C248.242 103.574 250.961 103.047 254.219 103.047ZM280.41 106.07C284.605 104.102 288.777 103.117 292.926 103.117C297.098 103.117 300.215 104.219 302.277 106.422C304.34 108.602 305.371 111.988 305.371 116.582V142H302.805L301.926 135.953H301.645C299.699 138.438 297.719 140.184 295.703 141.191C293.711 142.199 291.32 142.703 288.531 142.703C284.781 142.703 281.852 141.754 279.742 139.855C277.656 137.934 276.613 135.191 276.613 131.629C276.613 128.043 278.172 125.219 281.289 123.156C284.406 121.094 288.906 120.004 294.789 119.887L302.066 119.676V117.145C302.066 113.441 301.316 110.688 299.816 108.883C298.316 107.055 295.891 106.141 292.539 106.141C289.188 106.141 285.578 107.125 281.711 109.094L280.41 106.07ZM280.34 131.98C280.34 134.371 281.066 136.234 282.52 137.57C283.996 138.883 286.07 139.539 288.742 139.539C292.82 139.539 296.031 138.367 298.375 136.023C300.742 133.68 301.926 130.445 301.926 126.32V122.559L295.246 122.84C289.879 123.098 286.047 123.941 283.75 125.371C281.477 126.777 280.34 128.98 280.34 131.98ZM314.336 136.586C318.086 138.508 321.977 139.469 326.008 139.469C330.039 139.469 333.051 138.859 335.043 137.641C337.035 136.398 338.031 134.758 338.031 132.719C338.031 130.68 337.246 129.016 335.676 127.727C334.105 126.414 331.492 125.113 327.836 123.824C324.18 122.512 321.555 121.34 319.961 120.309C318.367 119.277 317.184 118.129 316.41 116.863C315.66 115.598 315.285 114.086 315.285 112.328C315.285 109.492 316.48 107.23 318.871 105.543C321.309 103.879 324.625 103.047 328.82 103.047C333.039 103.047 337 103.82 340.703 105.367L339.402 108.531C335.559 106.984 332.078 106.211 328.961 106.211C325.844 106.211 323.371 106.727 321.543 107.758C319.715 108.789 318.801 110.266 318.801 112.188C318.801 114.086 319.504 115.633 320.91 116.828C322.34 118.023 324.941 119.301 328.715 120.66C332.488 121.996 335.172 123.18 336.766 124.211C339.906 126.18 341.477 128.84 341.477 132.191C341.477 135.52 340.176 138.109 337.574 139.961C334.973 141.789 331.188 142.703 326.219 142.703C321.273 142.703 317.312 141.918 314.336 140.348V136.586ZM387.109 103.047C395.781 103.047 400.117 107.699 400.117 117.004V142H396.672V117.215C396.672 113.395 395.863 110.605 394.246 108.848C392.652 107.09 390.145 106.211 386.723 106.211C382.199 106.211 378.859 107.359 376.703 109.656C374.57 111.953 373.504 115.703 373.504 120.906V142H370.023V87.2969H373.504V104.699L373.328 109.586H373.574C374.98 107.312 376.773 105.66 378.953 104.629C381.133 103.574 383.852 103.047 387.109 103.047ZM413.301 106.07C417.496 104.102 421.668 103.117 425.816 103.117C429.988 103.117 433.105 104.219 435.168 106.422C437.23 108.602 438.262 111.988 438.262 116.582V142H435.695L434.816 135.953H434.535C432.59 138.438 430.609 140.184 428.594 141.191C426.602 142.199 424.211 142.703 421.422 142.703C417.672 142.703 414.742 141.754 412.633 139.855C410.547 137.934 409.504 135.191 409.504 131.629C409.504 128.043 411.062 125.219 414.18 123.156C417.297 121.094 421.797 120.004 427.68 119.887L434.957 119.676V117.145C434.957 113.441 434.207 110.688 432.707 108.883C431.207 107.055 428.781 106.141 425.43 106.141C422.078 106.141 418.469 107.125 414.602 109.094L413.301 106.07ZM413.23 131.98C413.23 134.371 413.957 136.234 415.41 137.57C416.887 138.883 418.961 139.539 421.633 139.539C425.711 139.539 428.922 138.367 431.266 136.023C433.633 133.68 434.816 130.445 434.816 126.32V122.559L428.137 122.84C422.77 123.098 418.938 123.941 416.641 125.371C414.367 126.777 413.23 128.98 413.23 131.98ZM467.09 103.047C472.246 103.047 476.172 104.746 478.867 108.145C481.586 111.52 482.945 116.395 482.945 122.77C482.945 129.121 481.516 134.031 478.656 137.5C475.82 140.969 471.941 142.703 467.02 142.703C461.16 142.703 456.871 140.5 454.152 136.094H453.906L454.012 139.047C454.105 140.57 454.152 142.469 454.152 144.742V159.297H450.672V103.785H453.625L454.293 109.234H454.504C457.152 105.109 461.348 103.047 467.09 103.047ZM454.152 121.855V122.98C454.152 128.957 455.148 133.223 457.141 135.777C459.133 138.332 462.402 139.609 466.949 139.609C470.863 139.609 473.887 138.156 476.02 135.25C478.152 132.344 479.219 128.277 479.219 123.051C479.219 111.824 475.176 106.211 467.09 106.211C462.66 106.211 459.391 107.441 457.281 109.902C455.195 112.34 454.152 116.324 454.152 121.855ZM509.98 103.047C515.137 103.047 519.062 104.746 521.758 108.145C524.477 111.52 525.836 116.395 525.836 122.77C525.836 129.121 524.406 134.031 521.547 137.5C518.711 140.969 514.832 142.703 509.91 142.703C504.051 142.703 499.762 140.5 497.043 136.094H496.797L496.902 139.047C496.996 140.57 497.043 142.469 497.043 144.742V159.297H493.562V103.785H496.516L497.184 109.234H497.395C500.043 105.109 504.238 103.047 509.98 103.047ZM497.043 121.855V122.98C497.043 128.957 498.039 133.223 500.031 135.777C502.023 138.332 505.293 139.609 509.84 139.609C513.754 139.609 516.777 138.156 518.91 135.25C521.043 132.344 522.109 128.277 522.109 123.051C522.109 111.824 518.066 106.211 509.98 106.211C505.551 106.211 502.281 107.441 500.172 109.902C498.086 112.34 497.043 116.324 497.043 121.855ZM551.887 142.703C546.355 142.703 542.02 140.992 538.879 137.57C535.785 134.148 534.238 129.379 534.238 123.262C534.238 117.145 535.727 112.246 538.703 108.566C541.703 104.887 545.758 103.047 550.867 103.047C555.367 103.047 558.918 104.629 561.52 107.793C564.121 110.934 565.422 115.188 565.422 120.555V123.367H537.895C537.941 128.617 539.16 132.625 541.551 135.391C543.965 138.156 547.41 139.539 551.887 139.539C554.113 139.539 556.07 139.375 557.758 139.047C559.445 138.719 561.496 138.074 563.91 137.113V140.277C561.777 141.215 559.785 141.848 557.934 142.176C556.105 142.527 554.09 142.703 551.887 142.703ZM561.73 120.273C561.73 115.844 560.758 112.387 558.812 109.902C556.867 107.395 554.125 106.141 550.586 106.141C547.07 106.141 544.199 107.359 541.973 109.797C539.77 112.234 538.48 115.727 538.105 120.273H561.73ZM593.055 103.047C601.727 103.047 606.062 107.699 606.062 117.004V142H602.617V117.215C602.617 113.395 601.809 110.605 600.191 108.848C598.598 107.09 596.09 106.211 592.668 106.211C588.145 106.211 584.805 107.359 582.648 109.656C580.516 111.953 579.449 115.703 579.449 120.906V142H575.969V103.785H578.922L579.59 109.023H579.801C582.309 105.039 586.727 103.047 593.055 103.047ZM648.461 142H646.141L645.297 136.164H645.016C642.109 140.523 637.973 142.703 632.605 142.703C627.262 142.703 623.195 141.062 620.406 137.781C617.617 134.477 616.223 129.613 616.223 123.191C616.223 116.746 617.605 111.777 620.371 108.285C623.137 104.793 627.156 103.047 632.43 103.047C635.242 103.047 637.645 103.562 639.637 104.594C641.652 105.625 643.445 107.336 645.016 109.727H645.227C645.086 106.773 645.016 103.879 645.016 101.043V87.2969H648.461V142ZM645.016 123.438V122.84C645.016 116.91 644.02 112.656 642.027 110.078C640.035 107.5 636.895 106.211 632.605 106.211C628.34 106.211 625.152 107.676 623.043 110.605C620.934 113.512 619.879 117.766 619.879 123.367C619.879 134.195 624.086 139.609 632.5 139.609C636.812 139.609 639.977 138.355 641.992 135.848C644.008 133.34 645.016 129.203 645.016 123.438ZM676.586 136.586C680.336 138.508 684.227 139.469 688.258 139.469C692.289 139.469 695.301 138.859 697.293 137.641C699.285 136.398 700.281 134.758 700.281 132.719C700.281 130.68 699.496 129.016 697.926 127.727C696.355 126.414 693.742 125.113 690.086 123.824C686.43 122.512 683.805 121.34 682.211 120.309C680.617 119.277 679.434 118.129 678.66 116.863C677.91 115.598 677.535 114.086 677.535 112.328C677.535 109.492 678.73 107.23 681.121 105.543C683.559 103.879 686.875 103.047 691.07 103.047C695.289 103.047 699.25 103.82 702.953 105.367L701.652 108.531C697.809 106.984 694.328 106.211 691.211 106.211C688.094 106.211 685.621 106.727 683.793 107.758C681.965 108.789 681.051 110.266 681.051 112.188C681.051 114.086 681.754 115.633 683.16 116.828C684.59 118.023 687.191 119.301 690.965 120.66C694.738 121.996 697.422 123.18 699.016 124.211C702.156 126.18 703.727 128.84 703.727 132.191C703.727 135.52 702.426 138.109 699.824 139.961C697.223 141.789 693.438 142.703 688.469 142.703C683.523 142.703 679.562 141.918 676.586 140.348V136.586ZM715.293 89.793C716.02 89.793 716.582 90.0859 716.98 90.6719C717.402 91.2578 717.613 92.0898 717.613 93.168C717.613 94.2227 717.402 95.0547 716.98 95.6641C716.582 96.2734 716.02 96.5781 715.293 96.5781C713.816 96.5781 713.078 95.4531 713.078 93.2031C713.078 90.9297 713.816 89.793 715.293 89.793ZM717.051 142H713.57V103.785H717.051V142ZM746.969 103.047C755.641 103.047 759.977 107.699 759.977 117.004V142H756.531V117.215C756.531 113.395 755.723 110.605 754.105 108.848C752.512 107.09 750.004 106.211 746.582 106.211C742.059 106.211 738.719 107.359 736.562 109.656C734.43 111.953 733.363 115.703 733.363 120.906V142H729.883V103.785H732.836L733.504 109.023H733.715C736.223 105.039 740.641 103.047 746.969 103.047ZM787.609 142.703C782.148 142.703 777.871 140.98 774.777 137.535C771.684 134.09 770.137 129.25 770.137 123.016C770.137 116.781 771.73 111.895 774.918 108.355C778.129 104.816 782.535 103.047 788.137 103.047C791.465 103.047 794.629 103.621 797.629 104.77L796.68 107.898C793.375 106.773 790.504 106.211 788.066 106.211C783.402 106.211 779.852 107.652 777.414 110.535C775 113.418 773.793 117.52 773.793 122.84C773.793 128.16 775 132.273 777.414 135.18C779.828 138.086 783.203 139.539 787.539 139.539C790.961 139.539 794.184 138.918 797.207 137.676V140.91C794.793 142.105 791.594 142.703 787.609 142.703ZM821.957 142.703C816.426 142.703 812.09 140.992 808.949 137.57C805.855 134.148 804.309 129.379 804.309 123.262C804.309 117.145 805.797 112.246 808.773 108.566C811.773 104.887 815.828 103.047 820.938 103.047C825.438 103.047 828.988 104.629 831.59 107.793C834.191 110.934 835.492 115.188 835.492 120.555V123.367H807.965C808.012 128.617 809.23 132.625 811.621 135.391C814.035 138.156 817.48 139.539 821.957 139.539C824.184 139.539 826.141 139.375 827.828 139.047C829.516 138.719 831.566 138.074 833.98 137.113V140.277C831.848 141.215 829.855 141.848 828.004 142.176C826.176 142.527 824.16 142.703 821.957 142.703ZM831.801 120.273C831.801 115.844 830.828 112.387 828.883 109.902C826.938 107.395 824.195 106.141 820.656 106.141C817.141 106.141 814.27 107.359 812.043 109.797C809.84 112.234 808.551 115.727 808.176 120.273H831.801ZM66.9766 240H63.5312V202.559C63.5312 199.16 63.6719 195.633 63.9531 191.977C63.4844 192.445 63.1211 192.785 62.8633 192.996L52 201.539L49.9961 199.043L63.9531 188.602H66.9766V240ZM91.1289 236.766C93.3555 237.445 95.6523 237.785 98.0195 237.785C103.832 237.785 108.367 235.688 111.625 231.492C114.906 227.297 116.734 221.203 117.109 213.211H116.688C115 215.438 112.973 217.16 110.605 218.379C108.238 219.598 105.754 220.207 103.152 220.207C98.3711 220.207 94.6562 218.895 92.0078 216.27C89.3594 213.621 88.0352 209.812 88.0352 204.844C88.0352 199.852 89.4883 195.762 92.3945 192.574C95.3008 189.387 99.0977 187.793 103.785 187.793C103.902 187.793 104.02 187.793 104.137 187.793C109.059 187.793 113.02 189.797 116.02 193.805C119.043 197.812 120.555 203.238 120.555 210.082C120.555 210.199 120.555 210.305 120.555 210.398C120.555 210.469 120.555 210.527 120.555 210.574C120.555 220.535 118.609 228.047 114.719 233.109C110.828 238.172 105.309 240.703 98.1602 240.703C98.0664 240.703 97.9727 240.703 97.8789 240.703C95.4883 240.703 93.2383 240.398 91.1289 239.789V236.766ZM103.785 190.887C100.105 190.887 97.1523 192.141 94.9258 194.648C92.7227 197.133 91.6211 200.473 91.6211 204.668C91.6211 208.863 92.6289 212.027 94.6445 214.16C96.6836 216.27 99.6133 217.324 103.434 217.324C105.801 217.324 108.004 216.809 110.043 215.777C112.082 214.723 113.711 213.328 114.93 211.594C116.148 209.836 116.758 208.043 116.758 206.215C116.758 203.496 116.207 200.93 115.105 198.516C114.027 196.102 112.504 194.227 110.535 192.891C108.566 191.555 106.316 190.887 103.785 190.887ZM147.168 208.254C151.973 208.254 155.723 209.637 158.418 212.402C161.137 215.145 162.496 219.023 162.496 224.039C162.496 229.055 161.066 233.086 158.207 236.133C155.371 239.18 151.539 240.703 146.711 240.703C141.508 240.703 137.395 238.723 134.371 234.762C131.371 230.777 129.871 225.223 129.871 218.098C129.871 208.16 131.828 200.625 135.742 195.492C139.68 190.359 145.141 187.793 152.125 187.793C152.219 187.793 152.312 187.793 152.406 187.793C154.562 187.793 156.578 188.062 158.453 188.602V191.695C156.742 191.062 154.68 190.746 152.266 190.746C146.477 190.746 141.965 192.832 138.73 197.004C135.52 201.176 133.715 207.246 133.316 215.215H133.773C135.531 212.941 137.559 211.219 139.855 210.047C142.152 208.852 144.59 208.254 147.168 208.254ZM146.676 211.137C144.543 211.137 142.445 211.676 140.383 212.754C138.344 213.809 136.715 215.191 135.496 216.902C134.301 218.613 133.703 220.336 133.703 222.07C133.703 222.141 133.703 222.211 133.703 222.281C133.703 224.906 134.289 227.426 135.461 229.84C136.633 232.23 138.203 234.129 140.172 235.535C142.164 236.918 144.344 237.609 146.711 237.609C150.578 237.609 153.566 236.402 155.676 233.988C157.809 231.574 158.875 228.129 158.875 223.652C158.875 219.738 157.82 216.68 155.711 214.477C153.602 212.25 150.73 211.137 147.098 211.137C146.957 211.137 146.816 211.137 146.676 211.137ZM170.441 214.02C170.441 205.184 171.789 198.609 174.484 194.297C177.18 189.961 181.27 187.793 186.754 187.793C192.238 187.793 196.398 190.031 199.234 194.508C202.07 198.984 203.488 205.629 203.488 214.441C203.488 223.23 202.117 229.805 199.375 234.164C196.633 238.523 192.52 240.703 187.035 240.703C181.551 240.703 177.414 238.465 174.625 233.988C171.836 229.512 170.441 222.855 170.441 214.02ZM196.492 196.793C194.43 192.902 191.219 190.957 186.859 190.957C182.5 190.957 179.301 192.891 177.262 196.758C175.246 200.625 174.238 206.484 174.238 214.336C174.238 222.164 175.281 227.988 177.367 231.809C179.453 235.629 182.652 237.539 186.965 237.539C191.277 237.539 194.453 235.605 196.492 231.738C198.555 227.848 199.586 222.023 199.586 214.266C199.586 206.484 198.555 200.66 196.492 196.793ZM221.418 187.863C225.707 187.863 229.082 189.023 231.543 191.344C234.004 193.641 235.234 196.805 235.234 200.836C235.234 202.289 234.977 203.836 234.461 205.477C234.273 206.086 233.91 206.766 233.371 207.516C232.855 208.242 232.457 208.793 232.176 209.168C231.895 209.543 231.32 210.117 230.453 210.891C229.305 211.969 227.969 213.141 226.445 214.406C224.945 215.648 223.797 216.773 223 217.781C222.227 218.789 221.652 219.891 221.277 221.086C220.902 222.281 220.715 224.004 220.715 226.254V226.746H217.832V225.445C217.832 222.539 218.266 220.184 219.133 218.379C220 216.574 221.629 214.617 224.02 212.508L227.219 209.73C228.906 208.301 230.113 206.883 230.84 205.477C231.566 204.07 231.93 202.453 231.93 200.625C231.93 197.648 230.957 195.281 229.012 193.523C227.066 191.766 224.441 190.887 221.137 190.887C217.855 190.887 214.41 191.754 210.801 193.488L209.535 190.676C212.02 189.574 214.141 188.836 215.898 188.461C217.68 188.062 219.52 187.863 221.418 187.863ZM219.484 233.812C221.406 233.812 222.367 234.961 222.367 237.258C222.367 239.555 221.406 240.703 219.484 240.703C217.609 240.703 216.672 239.555 216.672 237.258C216.672 234.961 217.609 233.812 219.484 233.812Z" fill="black"/>
<path d="M294.852 679.734H304.109C309.578 679.734 313.734 681.164 316.578 684.023C319.438 686.883 320.867 691.125 320.867 696.75C320.867 702.359 319.359 706.641 316.344 709.594C313.344 712.531 308.914 714 303.055 714H294.852V679.734ZM297.242 681.844V711.891H302.914C313.148 711.891 318.266 706.805 318.266 696.633C318.266 691.742 317.016 688.055 314.516 685.57C312.031 683.086 308.375 681.844 303.547 681.844H297.242ZM338.445 714.469C334.758 714.469 331.867 713.328 329.773 711.047C327.711 708.766 326.68 705.586 326.68 701.508C326.68 697.43 327.672 694.164 329.656 691.711C331.656 689.258 334.359 688.031 337.766 688.031C340.766 688.031 343.133 689.086 344.867 691.195C346.602 693.289 347.469 696.125 347.469 699.703V701.578H329.117C329.148 705.078 329.961 707.75 331.555 709.594C333.164 711.438 335.461 712.359 338.445 712.359C339.93 712.359 341.234 712.25 342.359 712.031C343.484 711.812 344.852 711.383 346.461 710.742V712.852C345.039 713.477 343.711 713.898 342.477 714.117C341.258 714.352 339.914 714.469 338.445 714.469ZM345.008 699.516C345.008 696.562 344.359 694.258 343.062 692.602C341.766 690.93 339.938 690.094 337.578 690.094C335.234 690.094 333.32 690.906 331.836 692.531C330.367 694.156 329.508 696.484 329.258 699.516H345.008ZM364.672 714.469C361.031 714.469 358.18 713.32 356.117 711.023C354.055 708.727 353.023 705.5 353.023 701.344C353.023 697.188 354.086 693.93 356.211 691.57C358.352 689.211 361.289 688.031 365.023 688.031C367.242 688.031 369.352 688.414 371.352 689.18L370.719 691.266C368.516 690.516 366.602 690.141 364.977 690.141C361.867 690.141 359.5 691.102 357.875 693.023C356.266 694.945 355.461 697.68 355.461 701.227C355.461 704.773 356.266 707.516 357.875 709.453C359.484 711.391 361.734 712.359 364.625 712.359C366.906 712.359 369.055 711.945 371.07 711.117V713.273C369.461 714.07 367.328 714.469 364.672 714.469ZM387.312 688.031C388.344 688.031 389.5 688.141 390.781 688.359L390.336 690.609C389.289 690.328 388.188 690.188 387.031 690.188C384.859 690.188 383.078 691.117 381.688 692.977C380.297 694.82 379.602 697.141 379.602 699.938V714H377.281V688.523H379.25L379.484 693.117H379.648C380.727 691.211 381.844 689.898 383 689.18C384.188 688.414 385.625 688.031 387.312 688.031ZM406.273 714.469C402.586 714.469 399.695 713.328 397.602 711.047C395.539 708.766 394.508 705.586 394.508 701.508C394.508 697.43 395.5 694.164 397.484 691.711C399.484 689.258 402.188 688.031 405.594 688.031C408.594 688.031 410.961 689.086 412.695 691.195C414.43 693.289 415.297 696.125 415.297 699.703V701.578H396.945C396.977 705.078 397.789 707.75 399.383 709.594C400.992 711.438 403.289 712.359 406.273 712.359C407.758 712.359 409.062 712.25 410.188 712.031C411.312 711.812 412.68 711.383 414.289 710.742V712.852C412.867 713.477 411.539 713.898 410.305 714.117C409.086 714.352 407.742 714.469 406.273 714.469ZM412.836 699.516C412.836 696.562 412.188 694.258 410.891 692.602C409.594 690.93 407.766 690.094 405.406 690.094C403.062 690.094 401.148 690.906 399.664 692.531C398.195 694.156 397.336 696.484 397.086 699.516H412.836ZM422.867 690.047C425.664 688.734 428.445 688.078 431.211 688.078C433.992 688.078 436.07 688.812 437.445 690.281C438.82 691.734 439.508 693.992 439.508 697.055V714H437.797L437.211 709.969H437.023C435.727 711.625 434.406 712.789 433.062 713.461C431.734 714.133 430.141 714.469 428.281 714.469C425.781 714.469 423.828 713.836 422.422 712.57C421.031 711.289 420.336 709.461 420.336 707.086C420.336 704.695 421.375 702.812 423.453 701.438C425.531 700.062 428.531 699.336 432.453 699.258L437.305 699.117V697.43C437.305 694.961 436.805 693.125 435.805 691.922C434.805 690.703 433.188 690.094 430.953 690.094C428.719 690.094 426.312 690.75 423.734 692.062L422.867 690.047ZM422.82 707.32C422.82 708.914 423.305 710.156 424.273 711.047C425.258 711.922 426.641 712.359 428.422 712.359C431.141 712.359 433.281 711.578 434.844 710.016C436.422 708.453 437.211 706.297 437.211 703.547V701.039L432.758 701.227C429.18 701.398 426.625 701.961 425.094 702.914C423.578 703.852 422.82 705.32 422.82 707.32ZM445.484 710.391C447.984 711.672 450.578 712.312 453.266 712.312C455.953 712.312 457.961 711.906 459.289 711.094C460.617 710.266 461.281 709.172 461.281 707.812C461.281 706.453 460.758 705.344 459.711 704.484C458.664 703.609 456.922 702.742 454.484 701.883C452.047 701.008 450.297 700.227 449.234 699.539C448.172 698.852 447.383 698.086 446.867 697.242C446.367 696.398 446.117 695.391 446.117 694.219C446.117 692.328 446.914 690.82 448.508 689.695C450.133 688.586 452.344 688.031 455.141 688.031C457.953 688.031 460.594 688.547 463.062 689.578L462.195 691.688C459.633 690.656 457.312 690.141 455.234 690.141C453.156 690.141 451.508 690.484 450.289 691.172C449.07 691.859 448.461 692.844 448.461 694.125C448.461 695.391 448.93 696.422 449.867 697.219C450.82 698.016 452.555 698.867 455.07 699.773C457.586 700.664 459.375 701.453 460.438 702.141C462.531 703.453 463.578 705.227 463.578 707.461C463.578 709.68 462.711 711.406 460.977 712.641C459.242 713.859 456.719 714.469 453.406 714.469C450.109 714.469 447.469 713.945 445.484 712.898V710.391ZM480.43 714.469C476.742 714.469 473.852 713.328 471.758 711.047C469.695 708.766 468.664 705.586 468.664 701.508C468.664 697.43 469.656 694.164 471.641 691.711C473.641 689.258 476.344 688.031 479.75 688.031C482.75 688.031 485.117 689.086 486.852 691.195C488.586 693.289 489.453 696.125 489.453 699.703V701.578H471.102C471.133 705.078 471.945 707.75 473.539 709.594C475.148 711.438 477.445 712.359 480.43 712.359C481.914 712.359 483.219 712.25 484.344 712.031C485.469 711.812 486.836 711.383 488.445 710.742V712.852C487.023 713.477 485.695 713.898 484.461 714.117C483.242 714.352 481.898 714.469 480.43 714.469ZM486.992 699.516C486.992 696.562 486.344 694.258 485.047 692.602C483.75 690.93 481.922 690.094 479.562 690.094C477.219 690.094 475.305 690.906 473.82 692.531C472.352 694.156 471.492 696.484 471.242 699.516H486.992ZM510.102 679.195C510.586 679.195 510.961 679.391 511.227 679.781C511.508 680.172 511.648 680.727 511.648 681.445C511.648 682.148 511.508 682.703 511.227 683.109C510.961 683.516 510.586 683.719 510.102 683.719C509.117 683.719 508.625 682.969 508.625 681.469C508.625 679.953 509.117 679.195 510.102 679.195ZM511.273 714H508.953V688.523H511.273V714ZM531.219 688.031C537 688.031 539.891 691.133 539.891 697.336V714H537.594V697.477C537.594 694.93 537.055 693.07 535.977 691.898C534.914 690.727 533.242 690.141 530.961 690.141C527.945 690.141 525.719 690.906 524.281 692.438C522.859 693.969 522.148 696.469 522.148 699.938V714H519.828V688.523H521.797L522.242 692.016H522.383C524.055 689.359 527 688.031 531.219 688.031ZM571.555 688.031C574.992 688.031 577.609 689.164 579.406 691.43C581.219 693.68 582.125 696.93 582.125 701.18C582.125 705.414 581.172 708.688 579.266 711C577.375 713.312 574.789 714.469 571.508 714.469C567.602 714.469 564.742 713 562.93 710.062H562.766L562.836 712.031C562.898 713.047 562.93 714.312 562.93 715.828V725.531H560.609V688.523H562.578L563.023 692.156H563.164C564.93 689.406 567.727 688.031 571.555 688.031ZM562.93 700.57V701.32C562.93 705.305 563.594 708.148 564.922 709.852C566.25 711.555 568.43 712.406 571.461 712.406C574.07 712.406 576.086 711.438 577.508 709.5C578.93 707.562 579.641 704.852 579.641 701.367C579.641 693.883 576.945 690.141 571.555 690.141C568.602 690.141 566.422 690.961 565.016 692.602C563.625 694.227 562.93 696.883 562.93 700.57ZM589.742 690.047C592.539 688.734 595.32 688.078 598.086 688.078C600.867 688.078 602.945 688.812 604.32 690.281C605.695 691.734 606.383 693.992 606.383 697.055V714H604.672L604.086 709.969H603.898C602.602 711.625 601.281 712.789 599.938 713.461C598.609 714.133 597.016 714.469 595.156 714.469C592.656 714.469 590.703 713.836 589.297 712.57C587.906 711.289 587.211 709.461 587.211 707.086C587.211 704.695 588.25 702.812 590.328 701.438C592.406 700.062 595.406 699.336 599.328 699.258L604.18 699.117V697.43C604.18 694.961 603.68 693.125 602.68 691.922C601.68 690.703 600.062 690.094 597.828 690.094C595.594 690.094 593.188 690.75 590.609 692.062L589.742 690.047ZM589.695 707.32C589.695 708.914 590.18 710.156 591.148 711.047C592.133 711.922 593.516 712.359 595.297 712.359C598.016 712.359 600.156 711.578 601.719 710.016C603.297 708.453 604.086 706.297 604.086 703.547V701.039L599.633 701.227C596.055 701.398 593.5 701.961 591.969 702.914C590.453 703.852 589.695 705.32 589.695 707.32ZM612.359 710.391C614.859 711.672 617.453 712.312 620.141 712.312C622.828 712.312 624.836 711.906 626.164 711.094C627.492 710.266 628.156 709.172 628.156 707.812C628.156 706.453 627.633 705.344 626.586 704.484C625.539 703.609 623.797 702.742 621.359 701.883C618.922 701.008 617.172 700.227 616.109 699.539C615.047 698.852 614.258 698.086 613.742 697.242C613.242 696.398 612.992 695.391 612.992 694.219C612.992 692.328 613.789 690.82 615.383 689.695C617.008 688.586 619.219 688.031 622.016 688.031C624.828 688.031 627.469 688.547 629.938 689.578L629.07 691.688C626.508 690.656 624.188 690.141 622.109 690.141C620.031 690.141 618.383 690.484 617.164 691.172C615.945 691.859 615.336 692.844 615.336 694.125C615.336 695.391 615.805 696.422 616.742 697.219C617.695 698.016 619.43 698.867 621.945 699.773C624.461 700.664 626.25 701.453 627.312 702.141C629.406 703.453 630.453 705.227 630.453 707.461C630.453 709.68 629.586 711.406 627.852 712.641C626.117 713.859 623.594 714.469 620.281 714.469C616.984 714.469 614.344 713.945 612.359 712.898V710.391ZM639.477 688.523H646.953V690.539H639.477V706.664C639.477 708.617 639.82 710.062 640.508 711C641.195 711.938 642.281 712.406 643.766 712.406C645.25 712.406 646.523 712.281 647.586 712.031V713.906C646.461 714.281 645.164 714.469 643.695 714.469C641.445 714.469 639.781 713.867 638.703 712.664C637.641 711.461 637.109 709.57 637.109 706.992V690.539H633.336V689.18L637.109 688.125L638.281 682.359H639.477V688.523ZM663.125 688.031C664.156 688.031 665.312 688.141 666.594 688.359L666.148 690.609C665.102 690.328 664 690.188 662.844 690.188C660.672 690.188 658.891 691.117 657.5 692.977C656.109 694.82 655.414 697.141 655.414 699.938V714H653.094V688.523H655.062L655.297 693.117H655.461C656.539 691.211 657.656 689.898 658.812 689.18C660 688.414 661.438 688.031 663.125 688.031ZM670.602 725.531C669.711 725.531 668.719 725.367 667.625 725.039V723.023C668.516 723.273 669.492 723.398 670.555 723.398C672.117 723.398 673.367 722.625 674.305 721.078C674.82 720.266 675.391 719.016 676.016 717.328L677.281 714L667.531 688.523H669.922L675.312 702.82C676.906 707.086 677.945 710.055 678.43 711.727H678.57C679.133 709.977 680.203 706.961 681.781 702.68L687.172 688.523H689.562L678.148 718.125C677.242 720.516 676.469 722.141 675.828 723C674.578 724.688 672.836 725.531 670.602 725.531ZM708.758 688.523H716.234V690.539H708.758V706.664C708.758 708.617 709.102 710.062 709.789 711C710.477 711.938 711.562 712.406 713.047 712.406C714.531 712.406 715.805 712.281 716.867 712.031V713.906C715.742 714.281 714.445 714.469 712.977 714.469C710.727 714.469 709.062 713.867 707.984 712.664C706.922 711.461 706.391 709.57 706.391 706.992V690.539H702.617V689.18L706.391 688.125L707.562 682.359H708.758V688.523ZM720.875 701.227C720.875 697.086 721.883 693.852 723.898 691.523C725.914 689.195 728.672 688.031 732.172 688.031C735.688 688.031 738.438 689.211 740.422 691.57C742.422 693.93 743.422 697.172 743.422 701.297C743.422 705.406 742.414 708.633 740.398 710.977C738.383 713.305 735.602 714.469 732.055 714.469C731.977 714.469 731.891 714.469 731.797 714.469C728.562 714.469 725.93 713.273 723.898 710.883C721.883 708.492 720.875 705.391 720.875 701.578C720.875 701.453 720.875 701.336 720.875 701.227ZM732.148 712.359C734.961 712.359 737.133 711.383 738.664 709.43C740.195 707.477 740.961 704.742 740.961 701.227C740.961 697.695 740.18 694.969 738.617 693.047C737.07 691.109 734.891 690.141 732.078 690.141C729.281 690.141 727.117 691.109 725.586 693.047C724.07 694.969 723.312 697.688 723.312 701.203C723.312 704.703 724.078 707.445 725.609 709.43C727.156 711.383 729.336 712.359 732.148 712.359ZM774.688 714H772.391V689.039C772.391 686.773 772.484 684.422 772.672 681.984C772.359 682.297 772.117 682.523 771.945 682.664L764.703 688.359L763.367 686.695L772.672 679.734H774.688V714ZM790.789 711.844C792.273 712.297 793.805 712.523 795.383 712.523C799.258 712.523 802.281 711.125 804.453 708.328C806.641 705.531 807.859 701.469 808.109 696.141H807.828C806.703 697.625 805.352 698.773 803.773 699.586C802.195 700.398 800.539 700.805 798.805 700.805C795.617 700.805 793.141 699.93 791.375 698.18C789.609 696.414 788.727 693.875 788.727 690.562C788.727 687.234 789.695 684.508 791.633 682.383C793.57 680.258 796.102 679.195 799.227 679.195C799.305 679.195 799.383 679.195 799.461 679.195C802.742 679.195 805.383 680.531 807.383 683.203C809.398 685.875 810.406 689.492 810.406 694.055C810.406 694.133 810.406 694.203 810.406 694.266C810.406 694.312 810.406 694.352 810.406 694.383C810.406 701.023 809.109 706.031 806.516 709.406C803.922 712.781 800.242 714.469 795.477 714.469C795.414 714.469 795.352 714.469 795.289 714.469C793.695 714.469 792.195 714.266 790.789 713.859V711.844ZM799.227 681.258C796.773 681.258 794.805 682.094 793.32 683.766C791.852 685.422 791.117 687.648 791.117 690.445C791.117 693.242 791.789 695.352 793.133 696.773C794.492 698.18 796.445 698.883 798.992 698.883C800.57 698.883 802.039 698.539 803.398 697.852C804.758 697.148 805.844 696.219 806.656 695.062C807.469 693.891 807.875 692.695 807.875 691.477C807.875 689.664 807.508 687.953 806.773 686.344C806.055 684.734 805.039 683.484 803.727 682.594C802.414 681.703 800.914 681.258 799.227 681.258ZM836.844 687.398C836.844 689.18 836.289 690.742 835.18 692.086C834.086 693.414 832.312 694.641 829.859 695.766C832.875 697.016 834.984 698.375 836.188 699.844C837.406 701.312 838.016 703.086 838.016 705.164C838.016 707.992 837.023 710.25 835.039 711.938C833.07 713.625 830.383 714.469 826.977 714.469C823.586 714.469 820.969 713.68 819.125 712.102C817.297 710.508 816.383 708.211 816.383 705.211C816.383 701.102 819.039 697.984 824.352 695.859C821.82 694.656 820.039 693.406 819.008 692.109C817.992 690.797 817.484 689.211 817.484 687.352C817.484 687.273 817.484 687.195 817.484 687.117C817.484 684.805 818.398 682.898 820.227 681.398C822.055 679.898 824.32 679.148 827.023 679.148C827.07 679.148 827.125 679.148 827.188 679.148C830.094 679.148 832.43 679.891 834.195 681.375C835.961 682.844 836.844 684.852 836.844 687.398ZM827.375 694.898C829.938 693.914 831.766 692.828 832.859 691.641C833.969 690.438 834.523 688.953 834.523 687.188C834.523 685.422 833.867 683.992 832.555 682.898C831.242 681.805 829.453 681.258 827.188 681.258C824.938 681.258 823.148 681.805 821.82 682.898C820.492 683.977 819.828 685.461 819.828 687.352C819.828 688.461 820.062 689.43 820.531 690.258C821.016 691.07 821.711 691.812 822.617 692.484C823.539 693.156 825.125 693.961 827.375 694.898ZM826.695 696.82C823.836 697.914 821.797 699.141 820.578 700.5C819.375 701.844 818.773 703.562 818.773 705.656C818.773 707.75 819.5 709.391 820.953 710.578C822.422 711.766 824.453 712.359 827.047 712.359C829.656 712.359 831.734 711.734 833.281 710.484C834.844 709.219 835.625 707.562 835.625 705.516C835.625 703.453 835.008 701.828 833.773 700.641C832.57 699.438 830.211 698.164 826.695 696.82ZM853.93 679.242C856.914 679.242 859.258 680.039 860.961 681.633C862.68 683.227 863.539 685.422 863.539 688.219C863.539 690.469 862.961 692.656 861.805 694.781C860.648 696.906 858.555 699.523 855.523 702.633L846.734 711.68V711.773H865.062V714H843.617V711.938L852.734 702.422C855.297 699.766 857.094 697.734 858.125 696.328C859.172 694.906 859.93 693.562 860.398 692.297C860.883 691.016 861.125 689.672 861.125 688.266C861.125 686.234 860.453 684.578 859.109 683.297C857.781 682 856.039 681.352 853.883 681.352C851.008 681.352 848.273 682.391 845.68 684.469L844.414 682.852C847.258 680.445 850.43 679.242 853.93 679.242Z" fill="black"/>
<path d="M297.242 864H294.852V829.734H297.242V864ZM317.75 838.031C323.531 838.031 326.422 841.133 326.422 847.336V864H324.125V847.477C324.125 844.93 323.586 843.07 322.508 841.898C321.445 840.727 319.773 840.141 317.492 840.141C314.477 840.141 312.25 840.906 310.812 842.438C309.391 843.969 308.68 846.469 308.68 849.938V864H306.359V838.523H308.328L308.773 842.016H308.914C310.586 839.359 313.531 838.031 317.75 838.031ZM344.844 864.469C341.203 864.469 338.352 863.32 336.289 861.023C334.227 858.727 333.195 855.5 333.195 851.344C333.195 847.188 334.258 843.93 336.383 841.57C338.523 839.211 341.461 838.031 345.195 838.031C347.414 838.031 349.523 838.414 351.523 839.18L350.891 841.266C348.688 840.516 346.773 840.141 345.148 840.141C342.039 840.141 339.672 841.102 338.047 843.023C336.438 844.945 335.633 847.68 335.633 851.227C335.633 854.773 336.438 857.516 338.047 859.453C339.656 861.391 341.906 862.359 344.797 862.359C347.078 862.359 349.227 861.945 351.242 861.117V863.273C349.633 864.07 347.5 864.469 344.844 864.469ZM367.484 838.031C368.516 838.031 369.672 838.141 370.953 838.359L370.508 840.609C369.461 840.328 368.359 840.188 367.203 840.188C365.031 840.188 363.25 841.117 361.859 842.977C360.469 844.82 359.773 847.141 359.773 849.938V864H357.453V838.523H359.422L359.656 843.117H359.82C360.898 841.211 362.016 839.898 363.172 839.18C364.359 838.414 365.797 838.031 367.484 838.031ZM386.445 864.469C382.758 864.469 379.867 863.328 377.773 861.047C375.711 858.766 374.68 855.586 374.68 851.508C374.68 847.43 375.672 844.164 377.656 841.711C379.656 839.258 382.359 838.031 385.766 838.031C388.766 838.031 391.133 839.086 392.867 841.195C394.602 843.289 395.469 846.125 395.469 849.703V851.578H377.117C377.148 855.078 377.961 857.75 379.555 859.594C381.164 861.438 383.461 862.359 386.445 862.359C387.93 862.359 389.234 862.25 390.359 862.031C391.484 861.812 392.852 861.383 394.461 860.742V862.852C393.039 863.477 391.711 863.898 390.477 864.117C389.258 864.352 387.914 864.469 386.445 864.469ZM393.008 849.516C393.008 846.562 392.359 844.258 391.062 842.602C389.766 840.93 387.938 840.094 385.578 840.094C383.234 840.094 381.32 840.906 379.836 842.531C378.367 844.156 377.508 846.484 377.258 849.516H393.008ZM403.039 840.047C405.836 838.734 408.617 838.078 411.383 838.078C414.164 838.078 416.242 838.812 417.617 840.281C418.992 841.734 419.68 843.992 419.68 847.055V864H417.969L417.383 859.969H417.195C415.898 861.625 414.578 862.789 413.234 863.461C411.906 864.133 410.312 864.469 408.453 864.469C405.953 864.469 404 863.836 402.594 862.57C401.203 861.289 400.508 859.461 400.508 857.086C400.508 854.695 401.547 852.812 403.625 851.438C405.703 850.062 408.703 849.336 412.625 849.258L417.477 849.117V847.43C417.477 844.961 416.977 843.125 415.977 841.922C414.977 840.703 413.359 840.094 411.125 840.094C408.891 840.094 406.484 840.75 403.906 842.062L403.039 840.047ZM402.992 857.32C402.992 858.914 403.477 860.156 404.445 861.047C405.43 861.922 406.812 862.359 408.594 862.359C411.312 862.359 413.453 861.578 415.016 860.016C416.594 858.453 417.383 856.297 417.383 853.547V851.039L412.93 851.227C409.352 851.398 406.797 851.961 405.266 852.914C403.75 853.852 402.992 855.32 402.992 857.32ZM425.656 860.391C428.156 861.672 430.75 862.312 433.438 862.312C436.125 862.312 438.133 861.906 439.461 861.094C440.789 860.266 441.453 859.172 441.453 857.812C441.453 856.453 440.93 855.344 439.883 854.484C438.836 853.609 437.094 852.742 434.656 851.883C432.219 851.008 430.469 850.227 429.406 849.539C428.344 848.852 427.555 848.086 427.039 847.242C426.539 846.398 426.289 845.391 426.289 844.219C426.289 842.328 427.086 840.82 428.68 839.695C430.305 838.586 432.516 838.031 435.312 838.031C438.125 838.031 440.766 838.547 443.234 839.578L442.367 841.688C439.805 840.656 437.484 840.141 435.406 840.141C433.328 840.141 431.68 840.484 430.461 841.172C429.242 841.859 428.633 842.844 428.633 844.125C428.633 845.391 429.102 846.422 430.039 847.219C430.992 848.016 432.727 848.867 435.242 849.773C437.758 850.664 439.547 851.453 440.609 852.141C442.703 853.453 443.75 855.227 443.75 857.461C443.75 859.68 442.883 861.406 441.148 862.641C439.414 863.859 436.891 864.469 433.578 864.469C430.281 864.469 427.641 863.945 425.656 862.898V860.391ZM460.602 864.469C456.914 864.469 454.023 863.328 451.93 861.047C449.867 858.766 448.836 855.586 448.836 851.508C448.836 847.43 449.828 844.164 451.812 841.711C453.812 839.258 456.516 838.031 459.922 838.031C462.922 838.031 465.289 839.086 467.023 841.195C468.758 843.289 469.625 846.125 469.625 849.703V851.578H451.273C451.305 855.078 452.117 857.75 453.711 859.594C455.32 861.438 457.617 862.359 460.602 862.359C462.086 862.359 463.391 862.25 464.516 862.031C465.641 861.812 467.008 861.383 468.617 860.742V862.852C467.195 863.477 465.867 863.898 464.633 864.117C463.414 864.352 462.07 864.469 460.602 864.469ZM467.164 849.516C467.164 846.562 466.516 844.258 465.219 842.602C463.922 840.93 462.094 840.094 459.734 840.094C457.391 840.094 455.477 840.906 453.992 842.531C452.523 844.156 451.664 846.484 451.414 849.516H467.164ZM490.273 829.195C490.758 829.195 491.133 829.391 491.398 829.781C491.68 830.172 491.82 830.727 491.82 831.445C491.82 832.148 491.68 832.703 491.398 833.109C491.133 833.516 490.758 833.719 490.273 833.719C489.289 833.719 488.797 832.969 488.797 831.469C488.797 829.953 489.289 829.195 490.273 829.195ZM491.445 864H489.125V838.523H491.445V864ZM511.391 838.031C517.172 838.031 520.062 841.133 520.062 847.336V864H517.766V847.477C517.766 844.93 517.227 843.07 516.148 841.898C515.086 840.727 513.414 840.141 511.133 840.141C508.117 840.141 505.891 840.906 504.453 842.438C503.031 843.969 502.32 846.469 502.32 849.938V864H500V838.523H501.969L502.414 842.016H502.555C504.227 839.359 507.172 838.031 511.391 838.031ZM551.727 838.031C555.164 838.031 557.781 839.164 559.578 841.43C561.391 843.68 562.297 846.93 562.297 851.18C562.297 855.414 561.344 858.688 559.438 861C557.547 863.312 554.961 864.469 551.68 864.469C547.773 864.469 544.914 863 543.102 860.062H542.938L543.008 862.031C543.07 863.047 543.102 864.312 543.102 865.828V875.531H540.781V838.523H542.75L543.195 842.156H543.336C545.102 839.406 547.898 838.031 551.727 838.031ZM543.102 850.57V851.32C543.102 855.305 543.766 858.148 545.094 859.852C546.422 861.555 548.602 862.406 551.633 862.406C554.242 862.406 556.258 861.438 557.68 859.5C559.102 857.562 559.812 854.852 559.812 851.367C559.812 843.883 557.117 840.141 551.727 840.141C548.773 840.141 546.594 840.961 545.188 842.602C543.797 844.227 543.102 846.883 543.102 850.57ZM569.914 840.047C572.711 838.734 575.492 838.078 578.258 838.078C581.039 838.078 583.117 838.812 584.492 840.281C585.867 841.734 586.555 843.992 586.555 847.055V864H584.844L584.258 859.969H584.07C582.773 861.625 581.453 862.789 580.109 863.461C578.781 864.133 577.188 864.469 575.328 864.469C572.828 864.469 570.875 863.836 569.469 862.57C568.078 861.289 567.383 859.461 567.383 857.086C567.383 854.695 568.422 852.812 570.5 851.438C572.578 850.062 575.578 849.336 579.5 849.258L584.352 849.117V847.43C584.352 844.961 583.852 843.125 582.852 841.922C581.852 840.703 580.234 840.094 578 840.094C575.766 840.094 573.359 840.75 570.781 842.062L569.914 840.047ZM569.867 857.32C569.867 858.914 570.352 860.156 571.32 861.047C572.305 861.922 573.688 862.359 575.469 862.359C578.188 862.359 580.328 861.578 581.891 860.016C583.469 858.453 584.258 856.297 584.258 853.547V851.039L579.805 851.227C576.227 851.398 573.672 851.961 572.141 852.914C570.625 853.852 569.867 855.32 569.867 857.32ZM592.531 860.391C595.031 861.672 597.625 862.312 600.312 862.312C603 862.312 605.008 861.906 606.336 861.094C607.664 860.266 608.328 859.172 608.328 857.812C608.328 856.453 607.805 855.344 606.758 854.484C605.711 853.609 603.969 852.742 601.531 851.883C599.094 851.008 597.344 850.227 596.281 849.539C595.219 848.852 594.43 848.086 593.914 847.242C593.414 846.398 593.164 845.391 593.164 844.219C593.164 842.328 593.961 840.82 595.555 839.695C597.18 838.586 599.391 838.031 602.188 838.031C605 838.031 607.641 838.547 610.109 839.578L609.242 841.688C606.68 840.656 604.359 840.141 602.281 840.141C600.203 840.141 598.555 840.484 597.336 841.172C596.117 841.859 595.508 842.844 595.508 844.125C595.508 845.391 595.977 846.422 596.914 847.219C597.867 848.016 599.602 848.867 602.117 849.773C604.633 850.664 606.422 851.453 607.484 852.141C609.578 853.453 610.625 855.227 610.625 857.461C610.625 859.68 609.758 861.406 608.023 862.641C606.289 863.859 603.766 864.469 600.453 864.469C597.156 864.469 594.516 863.945 592.531 862.898V860.391ZM619.648 838.523H627.125V840.539H619.648V856.664C619.648 858.617 619.992 860.062 620.68 861C621.367 861.938 622.453 862.406 623.938 862.406C625.422 862.406 626.695 862.281 627.758 862.031V863.906C626.633 864.281 625.336 864.469 623.867 864.469C621.617 864.469 619.953 863.867 618.875 862.664C617.812 861.461 617.281 859.57 617.281 856.992V840.539H613.508V839.18L617.281 838.125L618.453 832.359H619.648V838.523ZM643.297 838.031C644.328 838.031 645.484 838.141 646.766 838.359L646.32 840.609C645.273 840.328 644.172 840.188 643.016 840.188C640.844 840.188 639.062 841.117 637.672 842.977C636.281 844.82 635.586 847.141 635.586 849.938V864H633.266V838.523H635.234L635.469 843.117H635.633C636.711 841.211 637.828 839.898 638.984 839.18C640.172 838.414 641.609 838.031 643.297 838.031ZM650.773 875.531C649.883 875.531 648.891 875.367 647.797 875.039V873.023C648.688 873.273 649.664 873.398 650.727 873.398C652.289 873.398 653.539 872.625 654.477 871.078C654.992 870.266 655.562 869.016 656.188 867.328L657.453 864L647.703 838.523H650.094L655.484 852.82C657.078 857.086 658.117 860.055 658.602 861.727H658.742C659.305 859.977 660.375 856.961 661.953 852.68L667.344 838.523H669.734L658.32 868.125C657.414 870.516 656.641 872.141 656 873C654.75 874.688 653.008 875.531 650.773 875.531ZM684.172 860.391C686.672 861.672 689.266 862.312 691.953 862.312C694.641 862.312 696.648 861.906 697.977 861.094C699.305 860.266 699.969 859.172 699.969 857.812C699.969 856.453 699.445 855.344 698.398 854.484C697.352 853.609 695.609 852.742 693.172 851.883C690.734 851.008 688.984 850.227 687.922 849.539C686.859 848.852 686.07 848.086 685.555 847.242C685.055 846.398 684.805 845.391 684.805 844.219C684.805 842.328 685.602 840.82 687.195 839.695C688.82 838.586 691.031 838.031 693.828 838.031C696.641 838.031 699.281 838.547 701.75 839.578L700.883 841.688C698.32 840.656 696 840.141 693.922 840.141C691.844 840.141 690.195 840.484 688.977 841.172C687.758 841.859 687.148 842.844 687.148 844.125C687.148 845.391 687.617 846.422 688.555 847.219C689.508 848.016 691.242 848.867 693.758 849.773C696.273 850.664 698.062 851.453 699.125 852.141C701.219 853.453 702.266 855.227 702.266 857.461C702.266 859.68 701.398 861.406 699.664 862.641C697.93 863.859 695.406 864.469 692.094 864.469C688.797 864.469 686.156 863.945 684.172 862.898V860.391ZM709.977 829.195C710.461 829.195 710.836 829.391 711.102 829.781C711.383 830.172 711.523 830.727 711.523 831.445C711.523 832.148 711.383 832.703 711.102 833.109C710.836 833.516 710.461 833.719 709.977 833.719C708.992 833.719 708.5 832.969 708.5 831.469C708.5 829.953 708.992 829.195 709.977 829.195ZM711.148 864H708.828V838.523H711.148V864ZM731.094 838.031C736.875 838.031 739.766 841.133 739.766 847.336V864H737.469V847.477C737.469 844.93 736.93 843.07 735.852 841.898C734.789 840.727 733.117 840.141 730.836 840.141C727.82 840.141 725.594 840.906 724.156 842.438C722.734 843.969 722.023 846.469 722.023 849.938V864H719.703V838.523H721.672L722.117 842.016H722.258C723.93 839.359 726.875 838.031 731.094 838.031ZM758.188 864.469C754.547 864.469 751.695 863.32 749.633 861.023C747.57 858.727 746.539 855.5 746.539 851.344C746.539 847.188 747.602 843.93 749.727 841.57C751.867 839.211 754.805 838.031 758.539 838.031C760.758 838.031 762.867 838.414 764.867 839.18L764.234 841.266C762.031 840.516 760.117 840.141 758.492 840.141C755.383 840.141 753.016 841.102 751.391 843.023C749.781 844.945 748.977 847.68 748.977 851.227C748.977 854.773 749.781 857.516 751.391 859.453C753 861.391 755.25 862.359 758.141 862.359C760.422 862.359 762.57 861.945 764.586 861.117V863.273C762.977 864.07 760.844 864.469 758.188 864.469ZM781.086 864.469C777.398 864.469 774.508 863.328 772.414 861.047C770.352 858.766 769.32 855.586 769.32 851.508C769.32 847.43 770.312 844.164 772.297 841.711C774.297 839.258 777 838.031 780.406 838.031C783.406 838.031 785.773 839.086 787.508 841.195C789.242 843.289 790.109 846.125 790.109 849.703V851.578H771.758C771.789 855.078 772.602 857.75 774.195 859.594C775.805 861.438 778.102 862.359 781.086 862.359C782.57 862.359 783.875 862.25 785 862.031C786.125 861.812 787.492 861.383 789.102 860.742V862.852C787.68 863.477 786.352 863.898 785.117 864.117C783.898 864.352 782.555 864.469 781.086 864.469ZM787.648 849.516C787.648 846.562 787 844.258 785.703 842.602C784.406 840.93 782.578 840.094 780.219 840.094C777.875 840.094 775.961 840.906 774.477 842.531C773.008 844.156 772.148 846.484 771.898 849.516H787.648ZM821.328 864H819.031V839.039C819.031 836.773 819.125 834.422 819.312 831.984C819 832.297 818.758 832.523 818.586 832.664L811.344 838.359L810.008 836.695L819.312 829.734H821.328V864ZM837.43 861.844C838.914 862.297 840.445 862.523 842.023 862.523C845.898 862.523 848.922 861.125 851.094 858.328C853.281 855.531 854.5 851.469 854.75 846.141H854.469C853.344 847.625 851.992 848.773 850.414 849.586C848.836 850.398 847.18 850.805 845.445 850.805C842.258 850.805 839.781 849.93 838.016 848.18C836.25 846.414 835.367 843.875 835.367 840.562C835.367 837.234 836.336 834.508 838.273 832.383C840.211 830.258 842.742 829.195 845.867 829.195C845.945 829.195 846.023 829.195 846.102 829.195C849.383 829.195 852.023 830.531 854.023 833.203C856.039 835.875 857.047 839.492 857.047 844.055C857.047 844.133 857.047 844.203 857.047 844.266C857.047 844.312 857.047 844.352 857.047 844.383C857.047 851.023 855.75 856.031 853.156 859.406C850.562 862.781 846.883 864.469 842.117 864.469C842.055 864.469 841.992 864.469 841.93 864.469C840.336 864.469 838.836 864.266 837.43 863.859V861.844ZM845.867 831.258C843.414 831.258 841.445 832.094 839.961 833.766C838.492 835.422 837.758 837.648 837.758 840.445C837.758 843.242 838.43 845.352 839.773 846.773C841.133 848.18 843.086 848.883 845.633 848.883C847.211 848.883 848.68 848.539 850.039 847.852C851.398 847.148 852.484 846.219 853.297 845.062C854.109 843.891 854.516 842.695 854.516 841.477C854.516 839.664 854.148 837.953 853.414 836.344C852.695 834.734 851.68 833.484 850.367 832.594C849.055 831.703 847.555 831.258 845.867 831.258ZM883.484 837.398C883.484 839.18 882.93 840.742 881.82 842.086C880.727 843.414 878.953 844.641 876.5 845.766C879.516 847.016 881.625 848.375 882.828 849.844C884.047 851.312 884.656 853.086 884.656 855.164C884.656 857.992 883.664 860.25 881.68 861.938C879.711 863.625 877.023 864.469 873.617 864.469C870.227 864.469 867.609 863.68 865.766 862.102C863.938 860.508 863.023 858.211 863.023 855.211C863.023 851.102 865.68 847.984 870.992 845.859C868.461 844.656 866.68 843.406 865.648 842.109C864.633 840.797 864.125 839.211 864.125 837.352C864.125 837.273 864.125 837.195 864.125 837.117C864.125 834.805 865.039 832.898 866.867 831.398C868.695 829.898 870.961 829.148 873.664 829.148C873.711 829.148 873.766 829.148 873.828 829.148C876.734 829.148 879.07 829.891 880.836 831.375C882.602 832.844 883.484 834.852 883.484 837.398ZM874.016 844.898C876.578 843.914 878.406 842.828 879.5 841.641C880.609 840.438 881.164 838.953 881.164 837.188C881.164 835.422 880.508 833.992 879.195 832.898C877.883 831.805 876.094 831.258 873.828 831.258C871.578 831.258 869.789 831.805 868.461 832.898C867.133 833.977 866.469 835.461 866.469 837.352C866.469 838.461 866.703 839.43 867.172 840.258C867.656 841.07 868.352 841.812 869.258 842.484C870.18 843.156 871.766 843.961 874.016 844.898ZM873.336 846.82C870.477 847.914 868.438 849.141 867.219 850.5C866.016 851.844 865.414 853.562 865.414 855.656C865.414 857.75 866.141 859.391 867.594 860.578C869.062 861.766 871.094 862.359 873.688 862.359C876.297 862.359 878.375 861.734 879.922 860.484C881.484 859.219 882.266 857.562 882.266 855.516C882.266 853.453 881.648 851.828 880.414 850.641C879.211 849.438 876.852 848.164 873.336 846.82ZM900.57 829.242C903.555 829.242 905.898 830.039 907.602 831.633C909.32 833.227 910.18 835.422 910.18 838.219C910.18 840.469 909.602 842.656 908.445 844.781C907.289 846.906 905.195 849.523 902.164 852.633L893.375 861.68V861.773H911.703V864H890.258V861.938L899.375 852.422C901.938 849.766 903.734 847.734 904.766 846.328C905.812 844.906 906.57 843.562 907.039 842.297C907.523 841.016 907.766 839.672 907.766 838.266C907.766 836.234 907.094 834.578 905.75 833.297C904.422 832 902.68 831.352 900.523 831.352C897.648 831.352 894.914 832.391 892.32 834.469L891.055 832.852C893.898 830.445 897.07 829.242 900.57 829.242Z" fill="black"/>
<path d="M297.242 399H294.852V364.734H297.242V399ZM317.75 373.031C323.531 373.031 326.422 376.133 326.422 382.336V399H324.125V382.477C324.125 379.93 323.586 378.07 322.508 376.898C321.445 375.727 319.773 375.141 317.492 375.141C314.477 375.141 312.25 375.906 310.812 377.438C309.391 378.969 308.68 381.469 308.68 384.938V399H306.359V373.523H308.328L308.773 377.016H308.914C310.586 374.359 313.531 373.031 317.75 373.031ZM344.844 399.469C341.203 399.469 338.352 398.32 336.289 396.023C334.227 393.727 333.195 390.5 333.195 386.344C333.195 382.188 334.258 378.93 336.383 376.57C338.523 374.211 341.461 373.031 345.195 373.031C347.414 373.031 349.523 373.414 351.523 374.18L350.891 376.266C348.688 375.516 346.773 375.141 345.148 375.141C342.039 375.141 339.672 376.102 338.047 378.023C336.438 379.945 335.633 382.68 335.633 386.227C335.633 389.773 336.438 392.516 338.047 394.453C339.656 396.391 341.906 397.359 344.797 397.359C347.078 397.359 349.227 396.945 351.242 396.117V398.273C349.633 399.07 347.5 399.469 344.844 399.469ZM367.484 373.031C368.516 373.031 369.672 373.141 370.953 373.359L370.508 375.609C369.461 375.328 368.359 375.188 367.203 375.188C365.031 375.188 363.25 376.117 361.859 377.977C360.469 379.82 359.773 382.141 359.773 384.938V399H357.453V373.523H359.422L359.656 378.117H359.82C360.898 376.211 362.016 374.898 363.172 374.18C364.359 373.414 365.797 373.031 367.484 373.031ZM386.445 399.469C382.758 399.469 379.867 398.328 377.773 396.047C375.711 393.766 374.68 390.586 374.68 386.508C374.68 382.43 375.672 379.164 377.656 376.711C379.656 374.258 382.359 373.031 385.766 373.031C388.766 373.031 391.133 374.086 392.867 376.195C394.602 378.289 395.469 381.125 395.469 384.703V386.578H377.117C377.148 390.078 377.961 392.75 379.555 394.594C381.164 396.438 383.461 397.359 386.445 397.359C387.93 397.359 389.234 397.25 390.359 397.031C391.484 396.812 392.852 396.383 394.461 395.742V397.852C393.039 398.477 391.711 398.898 390.477 399.117C389.258 399.352 387.914 399.469 386.445 399.469ZM393.008 384.516C393.008 381.562 392.359 379.258 391.062 377.602C389.766 375.93 387.938 375.094 385.578 375.094C383.234 375.094 381.32 375.906 379.836 377.531C378.367 379.156 377.508 381.484 377.258 384.516H393.008ZM403.039 375.047C405.836 373.734 408.617 373.078 411.383 373.078C414.164 373.078 416.242 373.812 417.617 375.281C418.992 376.734 419.68 378.992 419.68 382.055V399H417.969L417.383 394.969H417.195C415.898 396.625 414.578 397.789 413.234 398.461C411.906 399.133 410.312 399.469 408.453 399.469C405.953 399.469 404 398.836 402.594 397.57C401.203 396.289 400.508 394.461 400.508 392.086C400.508 389.695 401.547 387.812 403.625 386.438C405.703 385.062 408.703 384.336 412.625 384.258L417.477 384.117V382.43C417.477 379.961 416.977 378.125 415.977 376.922C414.977 375.703 413.359 375.094 411.125 375.094C408.891 375.094 406.484 375.75 403.906 377.062L403.039 375.047ZM402.992 392.32C402.992 393.914 403.477 395.156 404.445 396.047C405.43 396.922 406.812 397.359 408.594 397.359C411.312 397.359 413.453 396.578 415.016 395.016C416.594 393.453 417.383 391.297 417.383 388.547V386.039L412.93 386.227C409.352 386.398 406.797 386.961 405.266 387.914C403.75 388.852 402.992 390.32 402.992 392.32ZM425.656 395.391C428.156 396.672 430.75 397.312 433.438 397.312C436.125 397.312 438.133 396.906 439.461 396.094C440.789 395.266 441.453 394.172 441.453 392.812C441.453 391.453 440.93 390.344 439.883 389.484C438.836 388.609 437.094 387.742 434.656 386.883C432.219 386.008 430.469 385.227 429.406 384.539C428.344 383.852 427.555 383.086 427.039 382.242C426.539 381.398 426.289 380.391 426.289 379.219C426.289 377.328 427.086 375.82 428.68 374.695C430.305 373.586 432.516 373.031 435.312 373.031C438.125 373.031 440.766 373.547 443.234 374.578L442.367 376.688C439.805 375.656 437.484 375.141 435.406 375.141C433.328 375.141 431.68 375.484 430.461 376.172C429.242 376.859 428.633 377.844 428.633 379.125C428.633 380.391 429.102 381.422 430.039 382.219C430.992 383.016 432.727 383.867 435.242 384.773C437.758 385.664 439.547 386.453 440.609 387.141C442.703 388.453 443.75 390.227 443.75 392.461C443.75 394.68 442.883 396.406 441.148 397.641C439.414 398.859 436.891 399.469 433.578 399.469C430.281 399.469 427.641 398.945 425.656 397.898V395.391ZM460.602 399.469C456.914 399.469 454.023 398.328 451.93 396.047C449.867 393.766 448.836 390.586 448.836 386.508C448.836 382.43 449.828 379.164 451.812 376.711C453.812 374.258 456.516 373.031 459.922 373.031C462.922 373.031 465.289 374.086 467.023 376.195C468.758 378.289 469.625 381.125 469.625 384.703V386.578H451.273C451.305 390.078 452.117 392.75 453.711 394.594C455.32 396.438 457.617 397.359 460.602 397.359C462.086 397.359 463.391 397.25 464.516 397.031C465.641 396.812 467.008 396.383 468.617 395.742V397.852C467.195 398.477 465.867 398.898 464.633 399.117C463.414 399.352 462.07 399.469 460.602 399.469ZM467.164 384.516C467.164 381.562 466.516 379.258 465.219 377.602C463.922 375.93 462.094 375.094 459.734 375.094C457.391 375.094 455.477 375.906 453.992 377.531C452.523 379.156 451.664 381.484 451.414 384.516H467.164ZM490.273 364.195C490.758 364.195 491.133 364.391 491.398 364.781C491.68 365.172 491.82 365.727 491.82 366.445C491.82 367.148 491.68 367.703 491.398 368.109C491.133 368.516 490.758 368.719 490.273 368.719C489.289 368.719 488.797 367.969 488.797 366.469C488.797 364.953 489.289 364.195 490.273 364.195ZM491.445 399H489.125V373.523H491.445V399ZM511.391 373.031C517.172 373.031 520.062 376.133 520.062 382.336V399H517.766V382.477C517.766 379.93 517.227 378.07 516.148 376.898C515.086 375.727 513.414 375.141 511.133 375.141C508.117 375.141 505.891 375.906 504.453 377.438C503.031 378.969 502.32 381.469 502.32 384.938V399H500V373.523H501.969L502.414 377.016H502.555C504.227 374.359 507.172 373.031 511.391 373.031ZM538.484 395.391C540.984 396.672 543.578 397.312 546.266 397.312C548.953 397.312 550.961 396.906 552.289 396.094C553.617 395.266 554.281 394.172 554.281 392.812C554.281 391.453 553.758 390.344 552.711 389.484C551.664 388.609 549.922 387.742 547.484 386.883C545.047 386.008 543.297 385.227 542.234 384.539C541.172 383.852 540.383 383.086 539.867 382.242C539.367 381.398 539.117 380.391 539.117 379.219C539.117 377.328 539.914 375.82 541.508 374.695C543.133 373.586 545.344 373.031 548.141 373.031C550.953 373.031 553.594 373.547 556.062 374.578L555.195 376.688C552.633 375.656 550.312 375.141 548.234 375.141C546.156 375.141 544.508 375.484 543.289 376.172C542.07 376.859 541.461 377.844 541.461 379.125C541.461 380.391 541.93 381.422 542.867 382.219C543.82 383.016 545.555 383.867 548.07 384.773C550.586 385.664 552.375 386.453 553.438 387.141C555.531 388.453 556.578 390.227 556.578 392.461C556.578 394.68 555.711 396.406 553.977 397.641C552.242 398.859 549.719 399.469 546.406 399.469C543.109 399.469 540.469 398.945 538.484 397.898V395.391ZM561.641 386.227C561.641 382.086 562.648 378.852 564.664 376.523C566.68 374.195 569.438 373.031 572.938 373.031C576.453 373.031 579.203 374.211 581.188 376.57C583.188 378.93 584.188 382.172 584.188 386.297C584.188 390.406 583.18 393.633 581.164 395.977C579.148 398.305 576.367 399.469 572.82 399.469C572.742 399.469 572.656 399.469 572.562 399.469C569.328 399.469 566.695 398.273 564.664 395.883C562.648 393.492 561.641 390.391 561.641 386.578C561.641 386.453 561.641 386.336 561.641 386.227ZM572.914 397.359C575.727 397.359 577.898 396.383 579.43 394.43C580.961 392.477 581.727 389.742 581.727 386.227C581.727 382.695 580.945 379.969 579.383 378.047C577.836 376.109 575.656 375.141 572.844 375.141C570.047 375.141 567.883 376.109 566.352 378.047C564.836 379.969 564.078 382.688 564.078 386.203C564.078 389.703 564.844 392.445 566.375 394.43C567.922 396.383 570.102 397.359 572.914 397.359ZM592.414 371.344C592.414 368.188 592.992 365.891 594.148 364.453C595.305 363 597.18 362.273 599.773 362.273C601.18 362.273 602.586 362.484 603.992 362.906L603.453 364.922C602.234 364.531 600.992 364.336 599.727 364.336C597.93 364.336 596.648 364.875 595.883 365.953C595.117 367.016 594.734 368.75 594.734 371.156V373.523H600.734V375.539H594.734V399H592.414V375.539H587.68V374.18L592.414 373.312V371.344ZM608.117 373.523H615.594V375.539H608.117V391.664C608.117 393.617 608.461 395.062 609.148 396C609.836 396.938 610.922 397.406 612.406 397.406C613.891 397.406 615.164 397.281 616.227 397.031V398.906C615.102 399.281 613.805 399.469 612.336 399.469C610.086 399.469 608.422 398.867 607.344 397.664C606.281 396.461 605.75 394.57 605.75 391.992V375.539H601.977V374.18L605.75 373.125L606.922 367.359H608.117V373.523ZM654.219 399H652.672L652.109 395.109H651.922C649.984 398.016 647.227 399.469 643.648 399.469C640.086 399.469 637.375 398.375 635.516 396.188C633.656 393.984 632.727 390.742 632.727 386.461C632.727 382.164 633.648 378.852 635.492 376.523C637.336 374.195 640.016 373.031 643.531 373.031C645.406 373.031 647.008 373.375 648.336 374.062C649.68 374.75 650.875 375.891 651.922 377.484H652.062C651.969 375.516 651.922 373.586 651.922 371.695V362.531H654.219V399ZM651.922 386.625V386.227C651.922 382.273 651.258 379.438 649.93 377.719C648.602 376 646.508 375.141 643.648 375.141C640.805 375.141 638.68 376.117 637.273 378.07C635.867 380.008 635.164 382.844 635.164 386.578C635.164 393.797 637.969 397.406 643.578 397.406C646.453 397.406 648.562 396.57 649.906 394.898C651.25 393.227 651.922 390.469 651.922 386.625ZM672.828 373.031C673.859 373.031 675.016 373.141 676.297 373.359L675.852 375.609C674.805 375.328 673.703 375.188 672.547 375.188C670.375 375.188 668.594 376.117 667.203 377.977C665.812 379.82 665.117 382.141 665.117 384.938V399H662.797V373.523H664.766L665 378.117H665.164C666.242 376.211 667.359 374.898 668.516 374.18C669.703 373.414 671.141 373.031 672.828 373.031ZM682.648 364.195C683.133 364.195 683.508 364.391 683.773 364.781C684.055 365.172 684.195 365.727 684.195 366.445C684.195 367.148 684.055 367.703 683.773 368.109C683.508 368.516 683.133 368.719 682.648 368.719C681.664 368.719 681.172 367.969 681.172 366.469C681.172 364.953 681.664 364.195 682.648 364.195ZM683.82 399H681.5V373.523H683.82V399ZM703.766 373.031C709.547 373.031 712.438 376.133 712.438 382.336V399H710.141V382.477C710.141 379.93 709.602 378.07 708.523 376.898C707.461 375.727 705.789 375.141 703.508 375.141C700.492 375.141 698.266 375.906 696.828 377.438C695.406 378.969 694.695 381.469 694.695 384.938V399H692.375V373.523H694.344L694.789 377.016H694.93C696.602 374.359 699.547 373.031 703.766 373.031ZM723.008 399H720.688V362.531H723.008V380.812L722.844 387.82H722.961L735.969 373.523H738.781L728.75 384.398L739.625 399H736.859L727.18 386.133L723.008 389.93V399ZM741.594 395.391C744.094 396.672 746.688 397.312 749.375 397.312C752.062 397.312 754.07 396.906 755.398 396.094C756.727 395.266 757.391 394.172 757.391 392.812C757.391 391.453 756.867 390.344 755.82 389.484C754.773 388.609 753.031 387.742 750.594 386.883C748.156 386.008 746.406 385.227 745.344 384.539C744.281 383.852 743.492 383.086 742.977 382.242C742.477 381.398 742.227 380.391 742.227 379.219C742.227 377.328 743.023 375.82 744.617 374.695C746.242 373.586 748.453 373.031 751.25 373.031C754.062 373.031 756.703 373.547 759.172 374.578L758.305 376.688C755.742 375.656 753.422 375.141 751.344 375.141C749.266 375.141 747.617 375.484 746.398 376.172C745.18 376.859 744.57 377.844 744.57 379.125C744.57 380.391 745.039 381.422 745.977 382.219C746.93 383.016 748.664 383.867 751.18 384.773C753.695 385.664 755.484 386.453 756.547 387.141C758.641 388.453 759.688 390.227 759.688 392.461C759.688 394.68 758.82 396.406 757.086 397.641C755.352 398.859 752.828 399.469 749.516 399.469C746.219 399.469 743.578 398.945 741.594 397.898V395.391Z" fill="black"/>
<path d="M297.242 564H294.852V529.734H297.242V564ZM317.75 538.031C323.531 538.031 326.422 541.133 326.422 547.336V564H324.125V547.477C324.125 544.93 323.586 543.07 322.508 541.898C321.445 540.727 319.773 540.141 317.492 540.141C314.477 540.141 312.25 540.906 310.812 542.438C309.391 543.969 308.68 546.469 308.68 549.938V564H306.359V538.523H308.328L308.773 542.016H308.914C310.586 539.359 313.531 538.031 317.75 538.031ZM344.844 564.469C341.203 564.469 338.352 563.32 336.289 561.023C334.227 558.727 333.195 555.5 333.195 551.344C333.195 547.188 334.258 543.93 336.383 541.57C338.523 539.211 341.461 538.031 345.195 538.031C347.414 538.031 349.523 538.414 351.523 539.18L350.891 541.266C348.688 540.516 346.773 540.141 345.148 540.141C342.039 540.141 339.672 541.102 338.047 543.023C336.438 544.945 335.633 547.68 335.633 551.227C335.633 554.773 336.438 557.516 338.047 559.453C339.656 561.391 341.906 562.359 344.797 562.359C347.078 562.359 349.227 561.945 351.242 561.117V563.273C349.633 564.07 347.5 564.469 344.844 564.469ZM367.484 538.031C368.516 538.031 369.672 538.141 370.953 538.359L370.508 540.609C369.461 540.328 368.359 540.188 367.203 540.188C365.031 540.188 363.25 541.117 361.859 542.977C360.469 544.82 359.773 547.141 359.773 549.938V564H357.453V538.523H359.422L359.656 543.117H359.82C360.898 541.211 362.016 539.898 363.172 539.18C364.359 538.414 365.797 538.031 367.484 538.031ZM386.445 564.469C382.758 564.469 379.867 563.328 377.773 561.047C375.711 558.766 374.68 555.586 374.68 551.508C374.68 547.43 375.672 544.164 377.656 541.711C379.656 539.258 382.359 538.031 385.766 538.031C388.766 538.031 391.133 539.086 392.867 541.195C394.602 543.289 395.469 546.125 395.469 549.703V551.578H377.117C377.148 555.078 377.961 557.75 379.555 559.594C381.164 561.438 383.461 562.359 386.445 562.359C387.93 562.359 389.234 562.25 390.359 562.031C391.484 561.812 392.852 561.383 394.461 560.742V562.852C393.039 563.477 391.711 563.898 390.477 564.117C389.258 564.352 387.914 564.469 386.445 564.469ZM393.008 549.516C393.008 546.562 392.359 544.258 391.062 542.602C389.766 540.93 387.938 540.094 385.578 540.094C383.234 540.094 381.32 540.906 379.836 542.531C378.367 544.156 377.508 546.484 377.258 549.516H393.008ZM403.039 540.047C405.836 538.734 408.617 538.078 411.383 538.078C414.164 538.078 416.242 538.812 417.617 540.281C418.992 541.734 419.68 543.992 419.68 547.055V564H417.969L417.383 559.969H417.195C415.898 561.625 414.578 562.789 413.234 563.461C411.906 564.133 410.312 564.469 408.453 564.469C405.953 564.469 404 563.836 402.594 562.57C401.203 561.289 400.508 559.461 400.508 557.086C400.508 554.695 401.547 552.812 403.625 551.438C405.703 550.062 408.703 549.336 412.625 549.258L417.477 549.117V547.43C417.477 544.961 416.977 543.125 415.977 541.922C414.977 540.703 413.359 540.094 411.125 540.094C408.891 540.094 406.484 540.75 403.906 542.062L403.039 540.047ZM402.992 557.32C402.992 558.914 403.477 560.156 404.445 561.047C405.43 561.922 406.812 562.359 408.594 562.359C411.312 562.359 413.453 561.578 415.016 560.016C416.594 558.453 417.383 556.297 417.383 553.547V551.039L412.93 551.227C409.352 551.398 406.797 551.961 405.266 552.914C403.75 553.852 402.992 555.32 402.992 557.32ZM425.656 560.391C428.156 561.672 430.75 562.312 433.438 562.312C436.125 562.312 438.133 561.906 439.461 561.094C440.789 560.266 441.453 559.172 441.453 557.812C441.453 556.453 440.93 555.344 439.883 554.484C438.836 553.609 437.094 552.742 434.656 551.883C432.219 551.008 430.469 550.227 429.406 549.539C428.344 548.852 427.555 548.086 427.039 547.242C426.539 546.398 426.289 545.391 426.289 544.219C426.289 542.328 427.086 540.82 428.68 539.695C430.305 538.586 432.516 538.031 435.312 538.031C438.125 538.031 440.766 538.547 443.234 539.578L442.367 541.688C439.805 540.656 437.484 540.141 435.406 540.141C433.328 540.141 431.68 540.484 430.461 541.172C429.242 541.859 428.633 542.844 428.633 544.125C428.633 545.391 429.102 546.422 430.039 547.219C430.992 548.016 432.727 548.867 435.242 549.773C437.758 550.664 439.547 551.453 440.609 552.141C442.703 553.453 443.75 555.227 443.75 557.461C443.75 559.68 442.883 561.406 441.148 562.641C439.414 563.859 436.891 564.469 433.578 564.469C430.281 564.469 427.641 563.945 425.656 562.898V560.391ZM460.602 564.469C456.914 564.469 454.023 563.328 451.93 561.047C449.867 558.766 448.836 555.586 448.836 551.508C448.836 547.43 449.828 544.164 451.812 541.711C453.812 539.258 456.516 538.031 459.922 538.031C462.922 538.031 465.289 539.086 467.023 541.195C468.758 543.289 469.625 546.125 469.625 549.703V551.578H451.273C451.305 555.078 452.117 557.75 453.711 559.594C455.32 561.438 457.617 562.359 460.602 562.359C462.086 562.359 463.391 562.25 464.516 562.031C465.641 561.812 467.008 561.383 468.617 560.742V562.852C467.195 563.477 465.867 563.898 464.633 564.117C463.414 564.352 462.07 564.469 460.602 564.469ZM467.164 549.516C467.164 546.562 466.516 544.258 465.219 542.602C463.922 540.93 462.094 540.094 459.734 540.094C457.391 540.094 455.477 540.906 453.992 542.531C452.523 544.156 451.664 546.484 451.414 549.516H467.164ZM490.273 529.195C490.758 529.195 491.133 529.391 491.398 529.781C491.68 530.172 491.82 530.727 491.82 531.445C491.82 532.148 491.68 532.703 491.398 533.109C491.133 533.516 490.758 533.719 490.273 533.719C489.289 533.719 488.797 532.969 488.797 531.469C488.797 529.953 489.289 529.195 490.273 529.195ZM491.445 564H489.125V538.523H491.445V564ZM511.391 538.031C517.172 538.031 520.062 541.133 520.062 547.336V564H517.766V547.477C517.766 544.93 517.227 543.07 516.148 541.898C515.086 540.727 513.414 540.141 511.133 540.141C508.117 540.141 505.891 540.906 504.453 542.438C503.031 543.969 502.32 546.469 502.32 549.938V564H500V538.523H501.969L502.414 542.016H502.555C504.227 539.359 507.172 538.031 511.391 538.031ZM550.953 564.469C547.312 564.469 544.461 563.32 542.398 561.023C540.336 558.727 539.305 555.5 539.305 551.344C539.305 547.188 540.367 543.93 542.492 541.57C544.633 539.211 547.57 538.031 551.305 538.031C553.523 538.031 555.633 538.414 557.633 539.18L557 541.266C554.797 540.516 552.883 540.141 551.258 540.141C548.148 540.141 545.781 541.102 544.156 543.023C542.547 544.945 541.742 547.68 541.742 551.227C541.742 554.773 542.547 557.516 544.156 559.453C545.766 561.391 548.016 562.359 550.906 562.359C553.188 562.359 555.336 561.945 557.352 561.117V563.273C555.742 564.07 553.609 564.469 550.953 564.469ZM564.102 540.047C566.898 538.734 569.68 538.078 572.445 538.078C575.227 538.078 577.305 538.812 578.68 540.281C580.055 541.734 580.742 543.992 580.742 547.055V564H579.031L578.445 559.969H578.258C576.961 561.625 575.641 562.789 574.297 563.461C572.969 564.133 571.375 564.469 569.516 564.469C567.016 564.469 565.062 563.836 563.656 562.57C562.266 561.289 561.57 559.461 561.57 557.086C561.57 554.695 562.609 552.812 564.688 551.438C566.766 550.062 569.766 549.336 573.688 549.258L578.539 549.117V547.43C578.539 544.961 578.039 543.125 577.039 541.922C576.039 540.703 574.422 540.094 572.188 540.094C569.953 540.094 567.547 540.75 564.969 542.062L564.102 540.047ZM564.055 557.32C564.055 558.914 564.539 560.156 565.508 561.047C566.492 561.922 567.875 562.359 569.656 562.359C572.375 562.359 574.516 561.578 576.078 560.016C577.656 558.453 578.445 556.297 578.445 553.547V551.039L573.992 551.227C570.414 551.398 567.859 551.961 566.328 552.914C564.812 553.852 564.055 555.32 564.055 557.32ZM600.406 538.031C606.188 538.031 609.078 541.133 609.078 547.336V564H606.781V547.477C606.781 544.93 606.242 543.07 605.164 541.898C604.102 540.727 602.43 540.141 600.148 540.141C597.133 540.141 594.906 540.906 593.469 542.438C592.047 543.969 591.336 546.469 591.336 549.938V564H589.016V538.523H590.984L591.43 542.016H591.57C593.242 539.359 596.188 538.031 600.406 538.031ZM637.344 564H635.797L635.234 560.109H635.047C633.109 563.016 630.352 564.469 626.773 564.469C623.211 564.469 620.5 563.375 618.641 561.188C616.781 558.984 615.852 555.742 615.852 551.461C615.852 547.164 616.773 543.852 618.617 541.523C620.461 539.195 623.141 538.031 626.656 538.031C628.531 538.031 630.133 538.375 631.461 539.062C632.805 539.75 634 540.891 635.047 542.484H635.188C635.094 540.516 635.047 538.586 635.047 536.695V527.531H637.344V564ZM635.047 551.625V551.227C635.047 547.273 634.383 544.438 633.055 542.719C631.727 541 629.633 540.141 626.773 540.141C623.93 540.141 621.805 541.117 620.398 543.07C618.992 545.008 618.289 547.844 618.289 551.578C618.289 558.797 621.094 562.406 626.703 562.406C629.578 562.406 631.688 561.57 633.031 559.898C634.375 558.227 635.047 555.469 635.047 551.625ZM644.727 575.531C643.836 575.531 642.844 575.367 641.75 575.039V573.023C642.641 573.273 643.617 573.398 644.68 573.398C646.242 573.398 647.492 572.625 648.43 571.078C648.945 570.266 649.516 569.016 650.141 567.328L651.406 564L641.656 538.523H644.047L649.438 552.82C651.031 557.086 652.07 560.055 652.555 561.727H652.695C653.258 559.977 654.328 556.961 655.906 552.68L661.297 538.523H663.688L652.273 568.125C651.367 570.516 650.594 572.141 649.953 573C648.703 574.688 646.961 575.531 644.727 575.531Z" fill="black"/>
<path d="M52.9756 415L77.1016 362.266H45.417V350.84H91.5156V359.365L67.2139 415H52.9756ZM104.392 415L128.518 362.266H96.833V350.84H142.932V359.365L118.63 415H104.392ZM159.675 370C159.675 373.721 159.997 376.504 160.642 378.35C161.315 380.166 162.385 381.074 163.85 381.074C166.662 381.074 168.068 377.383 168.068 370C168.068 362.676 166.662 359.014 163.85 359.014C162.385 359.014 161.315 359.922 160.642 361.738C159.997 363.525 159.675 366.279 159.675 370ZM179.143 369.912C179.143 376.65 177.839 381.719 175.231 385.117C172.624 388.486 168.801 390.171 163.762 390.171C158.928 390.171 155.192 388.442 152.556 384.985C149.919 381.499 148.601 376.475 148.601 369.912C148.601 356.523 153.654 349.829 163.762 349.829C168.713 349.829 172.507 351.572 175.144 355.059C177.81 358.516 179.143 363.467 179.143 369.912ZM209.377 350.752L173.737 415H163.19L198.83 350.752H209.377ZM204.675 395.664C204.675 399.385 204.997 402.168 205.642 404.014C206.315 405.83 207.385 406.738 208.85 406.738C211.662 406.738 213.068 403.047 213.068 395.664C213.068 388.34 211.662 384.678 208.85 384.678C207.385 384.678 206.315 385.586 205.642 387.402C204.997 389.189 204.675 391.943 204.675 395.664ZM224.143 395.576C224.143 402.285 222.839 407.339 220.231 410.737C217.624 414.106 213.801 415.791 208.762 415.791C203.928 415.791 200.192 414.062 197.556 410.605C194.919 407.119 193.601 402.109 193.601 395.576C193.601 382.188 198.654 375.493 208.762 375.493C213.713 375.493 217.507 377.236 220.144 380.723C222.81 384.18 224.143 389.131 224.143 395.576Z" fill="#E97E00"/>
<path d="M69.9824 535.955C76.1934 535.955 81.1299 537.698 84.792 541.185C88.4834 544.671 90.3291 549.446 90.3291 555.511C90.3291 562.688 88.1172 568.211 83.6934 572.078C79.2695 575.945 72.9414 577.879 64.709 577.879C57.5605 577.879 51.7891 576.722 47.3945 574.407V562.674C49.709 563.904 52.4043 564.915 55.4805 565.706C58.5566 566.468 61.4717 566.849 64.2256 566.849C72.5166 566.849 76.6621 563.45 76.6621 556.653C76.6621 550.179 72.3701 546.941 63.7861 546.941C62.2334 546.941 60.5195 547.103 58.6445 547.425C56.7695 547.718 55.2461 548.04 54.0742 548.392L48.6689 545.491L51.0859 512.752H85.9346V524.266H62.9951L61.8086 536.878L63.3467 536.57C65.1338 536.16 67.3457 535.955 69.9824 535.955ZM140.427 527.122C140.427 531.136 139.211 534.549 136.779 537.361C134.348 540.174 130.935 542.107 126.54 543.162V543.426C131.726 544.07 135.651 545.652 138.317 548.172C140.983 550.662 142.316 554.031 142.316 558.279C142.316 564.461 140.075 569.28 135.593 572.737C131.11 576.165 124.709 577.879 116.389 577.879C109.416 577.879 103.234 576.722 97.8438 574.407V562.85C100.334 564.109 103.073 565.135 106.062 565.926C109.05 566.717 112.009 567.112 114.938 567.112C119.421 567.112 122.731 566.351 124.87 564.827C127.009 563.304 128.078 560.857 128.078 557.488C128.078 554.471 126.848 552.332 124.387 551.072C121.926 549.812 118 549.183 112.609 549.183H107.731V538.768H112.697C117.678 538.768 121.311 538.123 123.596 536.834C125.91 535.516 127.067 533.274 127.067 530.11C127.067 525.247 124.021 522.815 117.927 522.815C115.817 522.815 113.664 523.167 111.467 523.87C109.299 524.573 106.882 525.789 104.216 527.518L97.9316 518.157C103.791 513.938 110.778 511.829 118.894 511.829C125.544 511.829 130.788 513.177 134.626 515.872C138.493 518.567 140.427 522.317 140.427 527.122ZM159.675 532C159.675 535.721 159.997 538.504 160.642 540.35C161.315 542.166 162.385 543.074 163.85 543.074C166.662 543.074 168.068 539.383 168.068 532C168.068 524.676 166.662 521.014 163.85 521.014C162.385 521.014 161.315 521.922 160.642 523.738C159.997 525.525 159.675 528.279 159.675 532ZM179.143 531.912C179.143 538.65 177.839 543.719 175.231 547.117C172.624 550.486 168.801 552.171 163.762 552.171C158.928 552.171 155.192 550.442 152.556 546.985C149.919 543.499 148.601 538.475 148.601 531.912C148.601 518.523 153.654 511.829 163.762 511.829C168.713 511.829 172.507 513.572 175.144 517.059C177.81 520.516 179.143 525.467 179.143 531.912ZM209.377 512.752L173.737 577H163.19L198.83 512.752H209.377ZM204.675 557.664C204.675 561.385 204.997 564.168 205.642 566.014C206.315 567.83 207.385 568.738 208.85 568.738C211.662 568.738 213.068 565.047 213.068 557.664C213.068 550.34 211.662 546.678 208.85 546.678C207.385 546.678 206.315 547.586 205.642 549.402C204.997 551.189 204.675 553.943 204.675 557.664ZM224.143 557.576C224.143 564.285 222.839 569.339 220.231 572.737C217.624 576.106 213.801 577.791 208.762 577.791C203.928 577.791 200.192 576.062 197.556 572.605C194.919 569.119 193.601 564.109 193.601 557.576C193.601 544.188 198.654 537.493 208.762 537.493C213.713 537.493 217.507 539.236 220.144 542.723C222.81 546.18 224.143 551.131 224.143 557.576Z" fill="#E97E00"/>
<path d="M69.9824 690.955C76.1934 690.955 81.1299 692.698 84.792 696.185C88.4834 699.671 90.3291 704.446 90.3291 710.511C90.3291 717.688 88.1172 723.211 83.6934 727.078C79.2695 730.945 72.9414 732.879 64.709 732.879C57.5605 732.879 51.7891 731.722 47.3945 729.407V717.674C49.709 718.904 52.4043 719.915 55.4805 720.706C58.5566 721.468 61.4717 721.849 64.2256 721.849C72.5166 721.849 76.6621 718.45 76.6621 711.653C76.6621 705.179 72.3701 701.941 63.7861 701.941C62.2334 701.941 60.5195 702.103 58.6445 702.425C56.7695 702.718 55.2461 703.04 54.0742 703.392L48.6689 700.491L51.0859 667.752H85.9346V679.266H62.9951L61.8086 691.878L63.3467 691.57C65.1338 691.16 67.3457 690.955 69.9824 690.955ZM140.427 682.122C140.427 686.136 139.211 689.549 136.779 692.361C134.348 695.174 130.935 697.107 126.54 698.162V698.426C131.726 699.07 135.651 700.652 138.317 703.172C140.983 705.662 142.316 709.031 142.316 713.279C142.316 719.461 140.075 724.28 135.593 727.737C131.11 731.165 124.709 732.879 116.389 732.879C109.416 732.879 103.234 731.722 97.8438 729.407V717.85C100.334 719.109 103.073 720.135 106.062 720.926C109.05 721.717 112.009 722.112 114.938 722.112C119.421 722.112 122.731 721.351 124.87 719.827C127.009 718.304 128.078 715.857 128.078 712.488C128.078 709.471 126.848 707.332 124.387 706.072C121.926 704.812 118 704.183 112.609 704.183H107.731V693.768H112.697C117.678 693.768 121.311 693.123 123.596 691.834C125.91 690.516 127.067 688.274 127.067 685.11C127.067 680.247 124.021 677.815 117.927 677.815C115.817 677.815 113.664 678.167 111.467 678.87C109.299 679.573 106.882 680.789 104.216 682.518L97.9316 673.157C103.791 668.938 110.778 666.829 118.894 666.829C125.544 666.829 130.788 668.177 134.626 670.872C138.493 673.567 140.427 677.317 140.427 682.122ZM159.675 687C159.675 690.721 159.997 693.504 160.642 695.35C161.315 697.166 162.385 698.074 163.85 698.074C166.662 698.074 168.068 694.383 168.068 687C168.068 679.676 166.662 676.014 163.85 676.014C162.385 676.014 161.315 676.922 160.642 678.738C159.997 680.525 159.675 683.279 159.675 687ZM179.143 686.912C179.143 693.65 177.839 698.719 175.231 702.117C172.624 705.486 168.801 707.171 163.762 707.171C158.928 707.171 155.192 705.442 152.556 701.985C149.919 698.499 148.601 693.475 148.601 686.912C148.601 673.523 153.654 666.829 163.762 666.829C168.713 666.829 172.507 668.572 175.144 672.059C177.81 675.516 179.143 680.467 179.143 686.912ZM209.377 667.752L173.737 732H163.19L198.83 667.752H209.377ZM204.675 712.664C204.675 716.385 204.997 719.168 205.642 721.014C206.315 722.83 207.385 723.738 208.85 723.738C211.662 723.738 213.068 720.047 213.068 712.664C213.068 705.34 211.662 701.678 208.85 701.678C207.385 701.678 206.315 702.586 205.642 704.402C204.997 706.189 204.675 708.943 204.675 712.664ZM224.143 712.576C224.143 719.285 222.839 724.339 220.231 727.737C217.624 731.106 213.801 732.791 208.762 732.791C203.928 732.791 200.192 731.062 197.556 727.605C194.919 724.119 193.601 719.109 193.601 712.576C193.601 699.188 198.654 692.493 208.762 692.493C213.713 692.493 217.507 694.236 220.144 697.723C222.81 701.18 224.143 706.131 224.143 712.576Z" fill="#19ADB7"/>
<path d="M69.9824 837.955C76.1934 837.955 81.1299 839.698 84.792 843.185C88.4834 846.671 90.3291 851.446 90.3291 857.511C90.3291 864.688 88.1172 870.211 83.6934 874.078C79.2695 877.945 72.9414 879.879 64.709 879.879C57.5605 879.879 51.7891 878.722 47.3945 876.407V864.674C49.709 865.904 52.4043 866.915 55.4805 867.706C58.5566 868.468 61.4717 868.849 64.2256 868.849C72.5166 868.849 76.6621 865.45 76.6621 858.653C76.6621 852.179 72.3701 848.941 63.7861 848.941C62.2334 848.941 60.5195 849.103 58.6445 849.425C56.7695 849.718 55.2461 850.04 54.0742 850.392L48.6689 847.491L51.0859 814.752H85.9346V826.266H62.9951L61.8086 838.878L63.3467 838.57C65.1338 838.16 67.3457 837.955 69.9824 837.955ZM140.427 829.122C140.427 833.136 139.211 836.549 136.779 839.361C134.348 842.174 130.935 844.107 126.54 845.162V845.426C131.726 846.07 135.651 847.652 138.317 850.172C140.983 852.662 142.316 856.031 142.316 860.279C142.316 866.461 140.075 871.28 135.593 874.737C131.11 878.165 124.709 879.879 116.389 879.879C109.416 879.879 103.234 878.722 97.8438 876.407V864.85C100.334 866.109 103.073 867.135 106.062 867.926C109.05 868.717 112.009 869.112 114.938 869.112C119.421 869.112 122.731 868.351 124.87 866.827C127.009 865.304 128.078 862.857 128.078 859.488C128.078 856.471 126.848 854.332 124.387 853.072C121.926 851.812 118 851.183 112.609 851.183H107.731V840.768H112.697C117.678 840.768 121.311 840.123 123.596 838.834C125.91 837.516 127.067 835.274 127.067 832.11C127.067 827.247 124.021 824.815 117.927 824.815C115.817 824.815 113.664 825.167 111.467 825.87C109.299 826.573 106.882 827.789 104.216 829.518L97.9316 820.157C103.791 815.938 110.778 813.829 118.894 813.829C125.544 813.829 130.788 815.177 134.626 817.872C138.493 820.567 140.427 824.317 140.427 829.122ZM159.675 834C159.675 837.721 159.997 840.504 160.642 842.35C161.315 844.166 162.385 845.074 163.85 845.074C166.662 845.074 168.068 841.383 168.068 834C168.068 826.676 166.662 823.014 163.85 823.014C162.385 823.014 161.315 823.922 160.642 825.738C159.997 827.525 159.675 830.279 159.675 834ZM179.143 833.912C179.143 840.65 177.839 845.719 175.231 849.117C172.624 852.486 168.801 854.171 163.762 854.171C158.928 854.171 155.192 852.442 152.556 848.985C149.919 845.499 148.601 840.475 148.601 833.912C148.601 820.523 153.654 813.829 163.762 813.829C168.713 813.829 172.507 815.572 175.144 819.059C177.81 822.516 179.143 827.467 179.143 833.912ZM209.377 814.752L173.737 879H163.19L198.83 814.752H209.377ZM204.675 859.664C204.675 863.385 204.997 866.168 205.642 868.014C206.315 869.83 207.385 870.738 208.85 870.738C211.662 870.738 213.068 867.047 213.068 859.664C213.068 852.34 211.662 848.678 208.85 848.678C207.385 848.678 206.315 849.586 205.642 851.402C204.997 853.189 204.675 855.943 204.675 859.664ZM224.143 859.576C224.143 866.285 222.839 871.339 220.231 874.737C217.624 878.106 213.801 879.791 208.762 879.791C203.928 879.791 200.192 878.062 197.556 874.605C194.919 871.119 193.601 866.109 193.601 859.576C193.601 846.188 198.654 839.493 208.762 839.493C213.713 839.493 217.507 841.236 220.144 844.723C222.81 848.18 224.143 853.131 224.143 859.576Z" fill="#E97E00"/>
</svg>
