<svg width="952" height="853" viewBox="0 0 952 853" fill="none" xmlns="http://www.w3.org/2000/svg">
<rect width="952" height="853" fill="#22313F"/>
<path d="M85.44 48.304C90.24 48.304 94.584 49.432 98.472 51.688C102.408 53.896 105.504 56.992 107.76 60.976C110.016 64.912 111.144 69.376 111.144 74.368C111.144 79.36 109.992 83.848 107.688 87.832C105.432 91.816 102.336 94.936 98.4 97.192C94.512 99.4 90.192 100.504 85.44 100.504C80.688 100.504 76.344 99.4 72.408 97.192C68.52 94.936 65.424 91.816 63.12 87.832C60.864 83.848 59.736 79.36 59.736 74.368C59.736 69.376 60.864 64.912 63.12 60.976C65.424 56.992 68.52 53.896 72.408 51.688C76.344 49.432 80.688 48.304 85.44 48.304ZM85.44 59.752C81.408 59.752 78.192 61.072 75.792 63.712C73.44 66.304 72.264 69.856 72.264 74.368C72.264 78.832 73.44 82.384 75.792 85.024C78.192 87.664 81.408 88.984 85.44 88.984C89.424 88.984 92.616 87.664 95.016 85.024C97.416 82.384 98.616 78.832 98.616 74.368C98.616 69.904 97.416 66.352 95.016 63.712C92.664 61.072 89.472 59.752 85.44 59.752ZM158.021 59.824V100H145.637V92.728C144.485 95.08 142.757 96.952 140.453 98.344C138.197 99.736 135.557 100.432 132.533 100.432C127.925 100.432 124.253 98.896 121.517 95.824C118.829 92.752 117.485 88.528 117.485 83.152V59.824H129.725V81.64C129.725 84.376 130.421 86.512 131.812 88.048C133.253 89.536 135.173 90.28 137.573 90.28C140.069 90.28 142.037 89.488 143.477 87.904C144.917 86.32 145.637 84.064 145.637 81.136V59.824H158.021ZM178.818 67.384C180.354 64.936 182.322 62.992 184.722 61.552C187.17 60.112 189.81 59.392 192.642 59.392V72.568H189.114C185.85 72.568 183.306 73.264 181.482 74.656C179.706 76.048 178.818 78.4 178.818 81.712V100H166.506V59.824H178.818V67.384ZM230.353 59.32C235.537 59.32 239.881 60.76 243.385 63.64C246.889 66.472 249.097 70.384 250.009 75.376H236.977C236.593 73.648 235.801 72.304 234.601 71.344C233.401 70.384 231.889 69.904 230.065 69.904C227.905 69.904 226.129 70.768 224.737 72.496C223.345 74.176 222.649 76.648 222.649 79.912C222.649 83.176 223.345 85.672 224.737 87.4C226.129 89.08 227.905 89.92 230.065 89.92C231.889 89.92 233.401 89.44 234.601 88.48C235.801 87.52 236.593 86.176 236.977 84.448H250.009C249.097 89.44 246.889 93.376 243.385 96.256C239.881 99.088 235.537 100.504 230.353 100.504C226.417 100.504 222.913 99.688 219.841 98.056C216.817 96.376 214.441 93.976 212.713 90.856C210.985 87.736 210.121 84.088 210.121 79.912C210.121 75.688 210.961 72.04 212.641 68.968C214.369 65.848 216.769 63.472 219.841 61.84C222.913 60.16 226.417 59.32 230.353 59.32ZM275.228 59.32C279.212 59.32 282.764 60.16 285.884 61.84C289.052 63.472 291.524 65.848 293.3 68.968C295.124 72.088 296.036 75.736 296.036 79.912C296.036 84.088 295.124 87.736 293.3 90.856C291.524 93.976 289.052 96.376 285.884 98.056C282.764 99.688 279.212 100.504 275.228 100.504C271.244 100.504 267.668 99.688 264.5 98.056C261.332 96.376 258.836 93.976 257.012 90.856C255.236 87.736 254.348 84.088 254.348 79.912C254.348 75.736 255.236 72.088 257.012 68.968C258.836 65.848 261.332 63.472 264.5 61.84C267.668 60.16 271.244 59.32 275.228 59.32ZM275.228 69.976C272.876 69.976 270.884 70.84 269.252 72.568C267.668 74.248 266.876 76.696 266.876 79.912C266.876 83.128 267.668 85.576 269.252 87.256C270.884 88.936 272.876 89.776 275.228 89.776C277.58 89.776 279.548 88.936 281.132 87.256C282.716 85.576 283.508 83.128 283.508 79.912C283.508 76.696 282.716 74.248 281.132 72.568C279.548 70.84 277.58 69.976 275.228 69.976ZM327.908 59.392C332.516 59.392 336.164 60.928 338.852 64C341.588 67.072 342.956 71.296 342.956 76.672V100H330.644V78.112C330.644 75.424 329.924 73.336 328.484 71.848C327.092 70.312 325.22 69.544 322.868 69.544C320.372 69.544 318.38 70.336 316.892 71.92C315.452 73.504 314.732 75.76 314.732 78.688V100H302.42V59.824H314.732V67.168C315.884 64.768 317.588 62.872 319.844 61.48C322.148 60.088 324.836 59.392 327.908 59.392ZM365.692 59.32C370.78 59.32 374.836 60.592 377.86 63.136C380.932 65.68 382.852 69.04 383.62 73.216H372.1C371.764 71.584 370.996 70.312 369.796 69.4C368.644 68.44 367.18 67.96 365.404 67.96C364.012 67.96 362.956 68.272 362.236 68.896C361.516 69.472 361.156 70.312 361.156 71.416C361.156 72.664 361.804 73.6 363.1 74.224C364.444 74.848 366.532 75.472 369.364 76.096C372.436 76.816 374.956 77.56 376.924 78.328C378.892 79.048 380.596 80.248 382.036 81.928C383.476 83.608 384.196 85.864 384.196 88.696C384.196 91 383.572 93.04 382.324 94.816C381.076 96.592 379.276 97.984 376.924 98.992C374.572 100 371.788 100.504 368.572 100.504C363.148 100.504 358.804 99.304 355.54 96.904C352.276 94.504 350.284 91.072 349.564 86.608H361.444C361.636 88.336 362.356 89.656 363.604 90.568C364.9 91.48 366.556 91.936 368.572 91.936C369.964 91.936 371.02 91.624 371.74 91C372.46 90.328 372.82 89.464 372.82 88.408C372.82 87.016 372.148 86.032 370.804 85.456C369.508 84.832 367.372 84.184 364.396 83.512C361.42 82.888 358.972 82.216 357.052 81.496C355.132 80.776 353.476 79.624 352.084 78.04C350.692 76.408 349.996 74.2 349.996 71.416C349.996 67.816 351.364 64.912 354.1 62.704C356.836 60.448 360.7 59.32 365.692 59.32ZM430.974 59.824V100H418.59V92.728C417.438 95.08 415.71 96.952 413.406 98.344C411.15 99.736 408.51 100.432 405.486 100.432C400.878 100.432 397.206 98.896 394.47 95.824C391.782 92.752 390.438 88.528 390.438 83.152V59.824H402.678V81.64C402.678 84.376 403.374 86.512 404.766 88.048C406.206 89.536 408.126 90.28 410.526 90.28C413.022 90.28 414.99 89.488 416.43 87.904C417.87 86.32 418.59 84.064 418.59 81.136V59.824H430.974ZM491.515 59.392C496.459 59.392 500.347 60.928 503.179 64C506.011 67.024 507.427 71.248 507.427 76.672V100H495.187V78.112C495.187 75.568 494.491 73.6 493.099 72.208C491.755 70.768 489.907 70.048 487.555 70.048C485.107 70.048 483.163 70.816 481.723 72.352C480.331 73.84 479.635 75.952 479.635 78.688V100H467.323V78.112C467.323 75.568 466.651 73.6 465.307 72.208C463.963 70.768 462.115 70.048 459.763 70.048C457.315 70.048 455.371 70.792 453.931 72.28C452.491 73.768 451.771 75.904 451.771 78.688V100H439.459V59.824H451.771V66.664C452.827 64.408 454.435 62.632 456.595 61.336C458.803 60.04 461.371 59.392 464.299 59.392C467.371 59.392 470.083 60.112 472.435 61.552C474.787 62.944 476.563 64.96 477.763 67.6C479.155 65.104 481.051 63.112 483.451 61.624C485.899 60.136 488.587 59.392 491.515 59.392ZM540.663 59.32C543.975 59.32 546.927 60.16 549.519 61.84C552.159 63.472 554.223 65.848 555.711 68.968C557.247 72.04 558.015 75.688 558.015 79.912C558.015 84.088 557.247 87.736 555.711 90.856C554.223 93.976 552.159 96.376 549.519 98.056C546.927 99.688 543.975 100.504 540.663 100.504C537.591 100.504 534.951 99.808 532.743 98.416C530.535 97.024 528.927 95.128 527.919 92.728V119.152H515.607V59.824H527.919V67.096C528.927 64.696 530.535 62.8 532.743 61.408C534.951 60.016 537.591 59.32 540.663 59.32ZM536.703 70.12C534.111 70.12 531.975 71.008 530.295 72.784C528.663 74.512 527.847 76.888 527.847 79.912C527.847 82.888 528.663 85.264 530.295 87.04C531.975 88.816 534.111 89.704 536.703 89.704C539.343 89.704 541.455 88.84 543.039 87.112C544.671 85.384 545.487 82.984 545.487 79.912C545.487 76.84 544.671 74.44 543.039 72.712C541.455 70.984 539.343 70.12 536.703 70.12ZM587.156 89.416V100H581.612C576.908 100 573.236 98.848 570.596 96.544C568.004 94.192 566.708 90.328 566.708 84.952V70.192H561.308V59.824H566.708V49.96H579.02V59.824H587.084V70.192H579.02V85.168C579.02 86.752 579.332 87.856 579.956 88.48C580.628 89.104 581.732 89.416 583.268 89.416H587.156ZM592.924 48.52C592.924 46.648 593.596 45.112 594.94 43.912C596.284 42.664 598.06 42.04 600.268 42.04C602.476 42.04 604.252 42.664 605.596 43.912C606.94 45.112 607.612 46.648 607.612 48.52C607.612 50.344 606.94 51.88 605.596 53.128C604.252 54.328 602.476 54.928 600.268 54.928C598.06 54.928 596.284 54.328 594.94 53.128C593.596 51.88 592.924 50.344 592.924 48.52ZM606.388 59.824V100H594.076V59.824H606.388ZM633.681 59.32C637.665 59.32 641.217 60.16 644.337 61.84C647.505 63.472 649.977 65.848 651.753 68.968C653.577 72.088 654.489 75.736 654.489 79.912C654.489 84.088 653.577 87.736 651.753 90.856C649.977 93.976 647.505 96.376 644.337 98.056C641.217 99.688 637.665 100.504 633.681 100.504C629.697 100.504 626.121 99.688 622.953 98.056C619.785 96.376 617.289 93.976 615.465 90.856C613.689 87.736 612.801 84.088 612.801 79.912C612.801 75.736 613.689 72.088 615.465 68.968C617.289 65.848 619.785 63.472 622.953 61.84C626.121 60.16 629.697 59.32 633.681 59.32ZM633.681 69.976C631.329 69.976 629.337 70.84 627.705 72.568C626.121 74.248 625.329 76.696 625.329 79.912C625.329 83.128 626.121 85.576 627.705 87.256C629.337 88.936 631.329 89.776 633.681 89.776C636.033 89.776 638.001 88.936 639.585 87.256C641.169 85.576 641.961 83.128 641.961 79.912C641.961 76.696 641.169 74.248 639.585 72.568C638.001 70.84 636.033 69.976 633.681 69.976ZM686.361 59.392C690.969 59.392 694.617 60.928 697.305 64C700.041 67.072 701.409 71.296 701.409 76.672V100H689.097V78.112C689.097 75.424 688.377 73.336 686.937 71.848C685.545 70.312 683.673 69.544 681.321 69.544C678.825 69.544 676.833 70.336 675.345 71.92C673.905 73.504 673.185 75.76 673.185 78.688V100H660.873V59.824H673.185V67.168C674.337 64.768 676.041 62.872 678.297 61.48C680.601 60.088 683.289 59.392 686.361 59.392ZM749.431 59.392C754.039 59.392 757.687 60.928 760.375 64C763.111 67.072 764.479 71.296 764.479 76.672V100H752.167V78.112C752.167 75.424 751.447 73.336 750.007 71.848C748.615 70.312 746.743 69.544 744.391 69.544C741.895 69.544 739.903 70.336 738.415 71.92C736.975 73.504 736.255 75.76 736.255 78.688V100H723.943V46.72H736.255V67.168C737.407 64.768 739.111 62.872 741.367 61.48C743.671 60.088 746.359 59.392 749.431 59.392ZM787.864 59.32C790.936 59.32 793.576 60.016 795.784 61.408C797.992 62.8 799.624 64.696 800.68 67.096V59.824H812.92V100H800.68V92.728C799.624 95.128 797.992 97.024 795.784 98.416C793.576 99.808 790.936 100.504 787.864 100.504C784.552 100.504 781.576 99.688 778.936 98.056C776.344 96.376 774.28 93.976 772.744 90.856C771.256 87.736 770.512 84.088 770.512 79.912C770.512 75.688 771.256 72.04 772.744 68.968C774.28 65.848 776.344 63.472 778.936 61.84C781.576 60.16 784.552 59.32 787.864 59.32ZM791.824 70.12C789.184 70.12 787.048 70.984 785.416 72.712C783.832 74.44 783.04 76.84 783.04 79.912C783.04 82.984 783.832 85.384 785.416 87.112C787.048 88.84 789.184 89.704 791.824 89.704C794.416 89.704 796.528 88.816 798.16 87.04C799.84 85.264 800.68 82.888 800.68 79.912C800.68 76.888 799.84 74.512 798.16 72.784C796.528 71.008 794.416 70.12 791.824 70.12ZM836.012 59.32C841.1 59.32 845.156 60.592 848.18 63.136C851.252 65.68 853.172 69.04 853.94 73.216H842.42C842.084 71.584 841.316 70.312 840.116 69.4C838.964 68.44 837.5 67.96 835.724 67.96C834.332 67.96 833.276 68.272 832.556 68.896C831.836 69.472 831.476 70.312 831.476 71.416C831.476 72.664 832.124 73.6 833.42 74.224C834.764 74.848 836.852 75.472 839.684 76.096C842.756 76.816 845.276 77.56 847.244 78.328C849.212 79.048 850.916 80.248 852.356 81.928C853.796 83.608 854.516 85.864 854.516 88.696C854.516 91 853.892 93.04 852.644 94.816C851.396 96.592 849.596 97.984 847.244 98.992C844.892 100 842.108 100.504 838.892 100.504C833.468 100.504 829.124 99.304 825.86 96.904C822.596 94.504 820.604 91.072 819.884 86.608H831.764C831.956 88.336 832.676 89.656 833.924 90.568C835.22 91.48 836.876 91.936 838.892 91.936C840.284 91.936 841.34 91.624 842.06 91C842.78 90.328 843.14 89.464 843.14 88.408C843.14 87.016 842.468 86.032 841.124 85.456C839.828 84.832 837.692 84.184 834.716 83.512C831.74 82.888 829.292 82.216 827.372 81.496C825.452 80.776 823.796 79.624 822.404 78.04C821.012 76.408 820.316 74.2 820.316 71.416C820.316 67.816 821.684 64.912 824.42 62.704C827.156 60.448 831.02 59.32 836.012 59.32ZM84 197.416V208H78.456C73.752 208 70.08 206.848 67.44 204.544C64.848 202.192 63.552 198.328 63.552 192.952V178.192H58.152V167.824H63.552V157.96H75.864V167.824H83.928V178.192H75.864V193.168C75.864 194.752 76.176 195.856 76.8 196.48C77.472 197.104 78.576 197.416 80.112 197.416H84ZM103.232 175.384C104.768 172.936 106.736 170.992 109.136 169.552C111.584 168.112 114.224 167.392 117.056 167.392V180.568H113.528C110.264 180.568 107.72 181.264 105.896 182.656C104.12 184.048 103.232 186.4 103.232 189.712V208H90.9199V167.824H103.232V175.384ZM137.473 167.32C140.545 167.32 143.185 168.016 145.393 169.408C147.601 170.8 149.233 172.696 150.289 175.096V167.824H162.529V208H150.289V200.728C149.233 203.128 147.601 205.024 145.393 206.416C143.185 207.808 140.545 208.504 137.473 208.504C134.161 208.504 131.185 207.688 128.545 206.056C125.953 204.376 123.889 201.976 122.353 198.856C120.865 195.736 120.121 192.088 120.121 187.912C120.121 183.688 120.865 180.04 122.353 176.968C123.889 173.848 125.953 171.472 128.545 169.84C131.185 168.16 134.161 167.32 137.473 167.32ZM141.433 178.12C138.793 178.12 136.657 178.984 135.025 180.712C133.441 182.44 132.649 184.84 132.649 187.912C132.649 190.984 133.441 193.384 135.025 195.112C136.657 196.84 138.793 197.704 141.433 197.704C144.025 197.704 146.137 196.816 147.769 195.04C149.449 193.264 150.289 190.888 150.289 187.912C150.289 184.888 149.449 182.512 147.769 180.784C146.137 179.008 144.025 178.12 141.433 178.12ZM196.494 167.392C201.102 167.392 204.75 168.928 207.438 172C210.174 175.072 211.542 179.296 211.542 184.672V208H199.23V186.112C199.23 183.424 198.51 181.336 197.07 179.848C195.678 178.312 193.806 177.544 191.454 177.544C188.958 177.544 186.966 178.336 185.478 179.92C184.038 181.504 183.318 183.76 183.318 186.688V208H171.006V167.824H183.318V175.168C184.47 172.768 186.174 170.872 188.43 169.48C190.734 168.088 193.422 167.392 196.494 167.392ZM234.278 167.32C239.366 167.32 243.422 168.592 246.446 171.136C249.518 173.68 251.438 177.04 252.206 181.216H240.686C240.35 179.584 239.582 178.312 238.382 177.4C237.23 176.44 235.766 175.96 233.99 175.96C232.598 175.96 231.542 176.272 230.822 176.896C230.102 177.472 229.742 178.312 229.742 179.416C229.742 180.664 230.39 181.6 231.686 182.224C233.03 182.848 235.118 183.472 237.95 184.096C241.022 184.816 243.542 185.56 245.51 186.328C247.478 187.048 249.182 188.248 250.622 189.928C252.062 191.608 252.782 193.864 252.782 196.696C252.782 199 252.158 201.04 250.91 202.816C249.662 204.592 247.862 205.984 245.51 206.992C243.158 208 240.374 208.504 237.158 208.504C231.734 208.504 227.39 207.304 224.126 204.904C220.862 202.504 218.87 199.072 218.15 194.608H230.03C230.222 196.336 230.942 197.656 232.19 198.568C233.486 199.48 235.142 199.936 237.158 199.936C238.55 199.936 239.606 199.624 240.326 199C241.046 198.328 241.406 197.464 241.406 196.408C241.406 195.016 240.734 194.032 239.39 193.456C238.094 192.832 235.958 192.184 232.982 191.512C230.006 190.888 227.558 190.216 225.638 189.496C223.718 188.776 222.062 187.624 220.67 186.04C219.278 184.408 218.582 182.2 218.582 179.416C218.582 175.816 219.95 172.912 222.686 170.704C225.422 168.448 229.286 167.32 234.278 167.32ZM279.328 162.352C277.312 162.352 275.848 162.784 274.936 163.648C274.024 164.512 273.52 165.904 273.424 167.824H280.696V178.192H273.424V208H261.112V178.192H256.288V167.824H261.112V167.392C261.112 162.4 262.552 158.56 265.432 155.872C268.36 153.136 272.584 151.768 278.104 151.768C279.256 151.768 280.12 151.792 280.696 151.84V162.424L279.328 162.352ZM304.899 167.32C308.883 167.32 312.435 168.16 315.555 169.84C318.723 171.472 321.195 173.848 322.971 176.968C324.795 180.088 325.707 183.736 325.707 187.912C325.707 192.088 324.795 195.736 322.971 198.856C321.195 201.976 318.723 204.376 315.555 206.056C312.435 207.688 308.883 208.504 304.899 208.504C300.915 208.504 297.339 207.688 294.171 206.056C291.003 204.376 288.507 201.976 286.683 198.856C284.907 195.736 284.019 192.088 284.019 187.912C284.019 183.736 284.907 180.088 286.683 176.968C288.507 173.848 291.003 171.472 294.171 169.84C297.339 168.16 300.915 167.32 304.899 167.32ZM304.899 177.976C302.547 177.976 300.555 178.84 298.923 180.568C297.339 182.248 296.547 184.696 296.547 187.912C296.547 191.128 297.339 193.576 298.923 195.256C300.555 196.936 302.547 197.776 304.899 197.776C307.251 197.776 309.219 196.936 310.803 195.256C312.387 193.576 313.179 191.128 313.179 187.912C313.179 184.696 312.387 182.248 310.803 180.568C309.219 178.84 307.251 177.976 304.899 177.976ZM344.404 175.384C345.94 172.936 347.908 170.992 350.308 169.552C352.756 168.112 355.396 167.392 358.228 167.392V180.568H354.7C351.436 180.568 348.892 181.264 347.068 182.656C345.292 184.048 344.404 186.4 344.404 189.712V208H332.092V167.824H344.404V175.384ZM415.437 167.392C420.381 167.392 424.269 168.928 427.101 172C429.933 175.024 431.349 179.248 431.349 184.672V208H419.109V186.112C419.109 183.568 418.413 181.6 417.021 180.208C415.677 178.768 413.829 178.048 411.477 178.048C409.029 178.048 407.085 178.816 405.645 180.352C404.253 181.84 403.557 183.952 403.557 186.688V208H391.245V186.112C391.245 183.568 390.573 181.6 389.229 180.208C387.885 178.768 386.037 178.048 383.685 178.048C381.237 178.048 379.293 178.792 377.853 180.28C376.413 181.768 375.693 183.904 375.693 186.688V208H363.381V167.824H375.693V174.664C376.749 172.408 378.357 170.632 380.517 169.336C382.725 168.04 385.293 167.392 388.221 167.392C391.293 167.392 394.005 168.112 396.357 169.552C398.709 170.944 400.485 172.96 401.685 175.6C403.077 173.104 404.973 171.112 407.373 169.624C409.821 168.136 412.509 167.392 415.437 167.392ZM477.689 186.832C477.689 187.84 477.569 188.944 477.329 190.144H449.465C449.609 193.168 450.377 195.352 451.769 196.696C453.161 197.992 454.937 198.64 457.097 198.64C458.921 198.64 460.433 198.184 461.633 197.272C462.833 196.36 463.625 195.184 464.009 193.744H477.041C476.513 196.576 475.361 199.12 473.585 201.376C471.809 203.584 469.553 205.336 466.817 206.632C464.081 207.88 461.033 208.504 457.673 208.504C453.737 208.504 450.233 207.688 447.161 206.056C444.137 204.376 441.761 201.976 440.033 198.856C438.305 195.736 437.441 192.088 437.441 187.912C437.441 183.688 438.281 180.04 439.961 176.968C441.689 173.848 444.089 171.472 447.161 169.84C450.233 168.16 453.737 167.32 457.673 167.32C461.657 167.32 465.161 168.136 468.185 169.768C471.209 171.4 473.537 173.704 475.169 176.68C476.849 179.608 477.689 182.992 477.689 186.832ZM465.233 184.96C465.281 182.32 464.561 180.352 463.073 179.056C461.633 177.712 459.833 177.04 457.673 177.04C455.417 177.04 453.545 177.712 452.057 179.056C450.569 180.4 449.729 182.368 449.537 184.96H465.233ZM499.371 167.32C502.443 167.32 505.083 168.016 507.291 169.408C509.499 170.8 511.107 172.696 512.115 175.096V154.72H524.427V208H512.115V200.728C511.107 203.128 509.499 205.024 507.291 206.416C505.083 207.808 502.443 208.504 499.371 208.504C496.059 208.504 493.083 207.688 490.443 206.056C487.851 204.376 485.787 201.976 484.251 198.856C482.763 195.736 482.019 192.088 482.019 187.912C482.019 183.688 482.763 180.04 484.251 176.968C485.787 173.848 487.851 171.472 490.443 169.84C493.083 168.16 496.059 167.32 499.371 167.32ZM503.331 178.12C500.691 178.12 498.555 178.984 496.923 180.712C495.339 182.44 494.547 184.84 494.547 187.912C494.547 190.984 495.339 193.384 496.923 195.112C498.555 196.84 500.691 197.704 503.331 197.704C505.923 197.704 508.035 196.816 509.667 195.04C511.347 193.264 512.187 190.888 512.187 187.912C512.187 184.888 511.347 182.512 509.667 180.784C508.035 179.008 505.923 178.12 503.331 178.12Z" fill="white"/>
<path d="M308.852 605.734H318.109C323.578 605.734 327.734 607.164 330.578 610.023C333.438 612.883 334.867 617.125 334.867 622.75C334.867 628.359 333.359 632.641 330.344 635.594C327.344 638.531 322.914 640 317.055 640H308.852V605.734ZM311.242 607.844V637.891H316.914C327.148 637.891 332.266 632.805 332.266 622.633C332.266 617.742 331.016 614.055 328.516 611.57C326.031 609.086 322.375 607.844 317.547 607.844H311.242ZM352.445 640.469C348.758 640.469 345.867 639.328 343.773 637.047C341.711 634.766 340.68 631.586 340.68 627.508C340.68 623.43 341.672 620.164 343.656 617.711C345.656 615.258 348.359 614.031 351.766 614.031C354.766 614.031 357.133 615.086 358.867 617.195C360.602 619.289 361.469 622.125 361.469 625.703V627.578H343.117C343.148 631.078 343.961 633.75 345.555 635.594C347.164 637.438 349.461 638.359 352.445 638.359C353.93 638.359 355.234 638.25 356.359 638.031C357.484 637.812 358.852 637.383 360.461 636.742V638.852C359.039 639.477 357.711 639.898 356.477 640.117C355.258 640.352 353.914 640.469 352.445 640.469ZM359.008 625.516C359.008 622.562 358.359 620.258 357.062 618.602C355.766 616.93 353.938 616.094 351.578 616.094C349.234 616.094 347.32 616.906 345.836 618.531C344.367 620.156 343.508 622.484 343.258 625.516H359.008ZM378.672 640.469C375.031 640.469 372.18 639.32 370.117 637.023C368.055 634.727 367.023 631.5 367.023 627.344C367.023 623.188 368.086 619.93 370.211 617.57C372.352 615.211 375.289 614.031 379.023 614.031C381.242 614.031 383.352 614.414 385.352 615.18L384.719 617.266C382.516 616.516 380.602 616.141 378.977 616.141C375.867 616.141 373.5 617.102 371.875 619.023C370.266 620.945 369.461 623.68 369.461 627.227C369.461 630.773 370.266 633.516 371.875 635.453C373.484 637.391 375.734 638.359 378.625 638.359C380.906 638.359 383.055 637.945 385.07 637.117V639.273C383.461 640.07 381.328 640.469 378.672 640.469ZM401.312 614.031C402.344 614.031 403.5 614.141 404.781 614.359L404.336 616.609C403.289 616.328 402.188 616.188 401.031 616.188C398.859 616.188 397.078 617.117 395.688 618.977C394.297 620.82 393.602 623.141 393.602 625.938V640H391.281V614.523H393.25L393.484 619.117H393.648C394.727 617.211 395.844 615.898 397 615.18C398.188 614.414 399.625 614.031 401.312 614.031ZM420.273 640.469C416.586 640.469 413.695 639.328 411.602 637.047C409.539 634.766 408.508 631.586 408.508 627.508C408.508 623.43 409.5 620.164 411.484 617.711C413.484 615.258 416.188 614.031 419.594 614.031C422.594 614.031 424.961 615.086 426.695 617.195C428.43 619.289 429.297 622.125 429.297 625.703V627.578H410.945C410.977 631.078 411.789 633.75 413.383 635.594C414.992 637.438 417.289 638.359 420.273 638.359C421.758 638.359 423.062 638.25 424.188 638.031C425.312 637.812 426.68 637.383 428.289 636.742V638.852C426.867 639.477 425.539 639.898 424.305 640.117C423.086 640.352 421.742 640.469 420.273 640.469ZM426.836 625.516C426.836 622.562 426.188 620.258 424.891 618.602C423.594 616.93 421.766 616.094 419.406 616.094C417.062 616.094 415.148 616.906 413.664 618.531C412.195 620.156 411.336 622.484 411.086 625.516H426.836ZM436.867 616.047C439.664 614.734 442.445 614.078 445.211 614.078C447.992 614.078 450.07 614.812 451.445 616.281C452.82 617.734 453.508 619.992 453.508 623.055V640H451.797L451.211 635.969H451.023C449.727 637.625 448.406 638.789 447.062 639.461C445.734 640.133 444.141 640.469 442.281 640.469C439.781 640.469 437.828 639.836 436.422 638.57C435.031 637.289 434.336 635.461 434.336 633.086C434.336 630.695 435.375 628.812 437.453 627.438C439.531 626.062 442.531 625.336 446.453 625.258L451.305 625.117V623.43C451.305 620.961 450.805 619.125 449.805 617.922C448.805 616.703 447.188 616.094 444.953 616.094C442.719 616.094 440.312 616.75 437.734 618.062L436.867 616.047ZM436.82 633.32C436.82 634.914 437.305 636.156 438.273 637.047C439.258 637.922 440.641 638.359 442.422 638.359C445.141 638.359 447.281 637.578 448.844 636.016C450.422 634.453 451.211 632.297 451.211 629.547V627.039L446.758 627.227C443.18 627.398 440.625 627.961 439.094 628.914C437.578 629.852 436.82 631.32 436.82 633.32ZM459.484 636.391C461.984 637.672 464.578 638.312 467.266 638.312C469.953 638.312 471.961 637.906 473.289 637.094C474.617 636.266 475.281 635.172 475.281 633.812C475.281 632.453 474.758 631.344 473.711 630.484C472.664 629.609 470.922 628.742 468.484 627.883C466.047 627.008 464.297 626.227 463.234 625.539C462.172 624.852 461.383 624.086 460.867 623.242C460.367 622.398 460.117 621.391 460.117 620.219C460.117 618.328 460.914 616.82 462.508 615.695C464.133 614.586 466.344 614.031 469.141 614.031C471.953 614.031 474.594 614.547 477.062 615.578L476.195 617.688C473.633 616.656 471.312 616.141 469.234 616.141C467.156 616.141 465.508 616.484 464.289 617.172C463.07 617.859 462.461 618.844 462.461 620.125C462.461 621.391 462.93 622.422 463.867 623.219C464.82 624.016 466.555 624.867 469.07 625.773C471.586 626.664 473.375 627.453 474.438 628.141C476.531 629.453 477.578 631.227 477.578 633.461C477.578 635.68 476.711 637.406 474.977 638.641C473.242 639.859 470.719 640.469 467.406 640.469C464.109 640.469 461.469 639.945 459.484 638.898V636.391ZM494.43 640.469C490.742 640.469 487.852 639.328 485.758 637.047C483.695 634.766 482.664 631.586 482.664 627.508C482.664 623.43 483.656 620.164 485.641 617.711C487.641 615.258 490.344 614.031 493.75 614.031C496.75 614.031 499.117 615.086 500.852 617.195C502.586 619.289 503.453 622.125 503.453 625.703V627.578H485.102C485.133 631.078 485.945 633.75 487.539 635.594C489.148 637.438 491.445 638.359 494.43 638.359C495.914 638.359 497.219 638.25 498.344 638.031C499.469 637.812 500.836 637.383 502.445 636.742V638.852C501.023 639.477 499.695 639.898 498.461 640.117C497.242 640.352 495.898 640.469 494.43 640.469ZM500.992 625.516C500.992 622.562 500.344 620.258 499.047 618.602C497.75 616.93 495.922 616.094 493.562 616.094C491.219 616.094 489.305 616.906 487.82 618.531C486.352 620.156 485.492 622.484 485.242 625.516H500.992ZM524.102 605.195C524.586 605.195 524.961 605.391 525.227 605.781C525.508 606.172 525.648 606.727 525.648 607.445C525.648 608.148 525.508 608.703 525.227 609.109C524.961 609.516 524.586 609.719 524.102 609.719C523.117 609.719 522.625 608.969 522.625 607.469C522.625 605.953 523.117 605.195 524.102 605.195ZM525.273 640H522.953V614.523H525.273V640ZM545.219 614.031C551 614.031 553.891 617.133 553.891 623.336V640H551.594V623.477C551.594 620.93 551.055 619.07 549.977 617.898C548.914 616.727 547.242 616.141 544.961 616.141C541.945 616.141 539.719 616.906 538.281 618.438C536.859 619.969 536.148 622.469 536.148 625.938V640H533.828V614.523H535.797L536.242 618.016H536.383C538.055 615.359 541 614.031 545.219 614.031ZM585.555 614.031C588.992 614.031 591.609 615.164 593.406 617.43C595.219 619.68 596.125 622.93 596.125 627.18C596.125 631.414 595.172 634.688 593.266 637C591.375 639.312 588.789 640.469 585.508 640.469C581.602 640.469 578.742 639 576.93 636.062H576.766L576.836 638.031C576.898 639.047 576.93 640.312 576.93 641.828V651.531H574.609V614.523H576.578L577.023 618.156H577.164C578.93 615.406 581.727 614.031 585.555 614.031ZM576.93 626.57V627.32C576.93 631.305 577.594 634.148 578.922 635.852C580.25 637.555 582.43 638.406 585.461 638.406C588.07 638.406 590.086 637.438 591.508 635.5C592.93 633.562 593.641 630.852 593.641 627.367C593.641 619.883 590.945 616.141 585.555 616.141C582.602 616.141 580.422 616.961 579.016 618.602C577.625 620.227 576.93 622.883 576.93 626.57ZM603.742 616.047C606.539 614.734 609.32 614.078 612.086 614.078C614.867 614.078 616.945 614.812 618.32 616.281C619.695 617.734 620.383 619.992 620.383 623.055V640H618.672L618.086 635.969H617.898C616.602 637.625 615.281 638.789 613.938 639.461C612.609 640.133 611.016 640.469 609.156 640.469C606.656 640.469 604.703 639.836 603.297 638.57C601.906 637.289 601.211 635.461 601.211 633.086C601.211 630.695 602.25 628.812 604.328 627.438C606.406 626.062 609.406 625.336 613.328 625.258L618.18 625.117V623.43C618.18 620.961 617.68 619.125 616.68 617.922C615.68 616.703 614.062 616.094 611.828 616.094C609.594 616.094 607.188 616.75 604.609 618.062L603.742 616.047ZM603.695 633.32C603.695 634.914 604.18 636.156 605.148 637.047C606.133 637.922 607.516 638.359 609.297 638.359C612.016 638.359 614.156 637.578 615.719 636.016C617.297 634.453 618.086 632.297 618.086 629.547V627.039L613.633 627.227C610.055 627.398 607.5 627.961 605.969 628.914C604.453 629.852 603.695 631.32 603.695 633.32ZM626.359 636.391C628.859 637.672 631.453 638.312 634.141 638.312C636.828 638.312 638.836 637.906 640.164 637.094C641.492 636.266 642.156 635.172 642.156 633.812C642.156 632.453 641.633 631.344 640.586 630.484C639.539 629.609 637.797 628.742 635.359 627.883C632.922 627.008 631.172 626.227 630.109 625.539C629.047 624.852 628.258 624.086 627.742 623.242C627.242 622.398 626.992 621.391 626.992 620.219C626.992 618.328 627.789 616.82 629.383 615.695C631.008 614.586 633.219 614.031 636.016 614.031C638.828 614.031 641.469 614.547 643.938 615.578L643.07 617.688C640.508 616.656 638.188 616.141 636.109 616.141C634.031 616.141 632.383 616.484 631.164 617.172C629.945 617.859 629.336 618.844 629.336 620.125C629.336 621.391 629.805 622.422 630.742 623.219C631.695 624.016 633.43 624.867 635.945 625.773C638.461 626.664 640.25 627.453 641.312 628.141C643.406 629.453 644.453 631.227 644.453 633.461C644.453 635.68 643.586 637.406 641.852 638.641C640.117 639.859 637.594 640.469 634.281 640.469C630.984 640.469 628.344 639.945 626.359 638.898V636.391ZM653.477 614.523H660.953V616.539H653.477V632.664C653.477 634.617 653.82 636.062 654.508 637C655.195 637.938 656.281 638.406 657.766 638.406C659.25 638.406 660.523 638.281 661.586 638.031V639.906C660.461 640.281 659.164 640.469 657.695 640.469C655.445 640.469 653.781 639.867 652.703 638.664C651.641 637.461 651.109 635.57 651.109 632.992V616.539H647.336V615.18L651.109 614.125L652.281 608.359H653.477V614.523ZM677.125 614.031C678.156 614.031 679.312 614.141 680.594 614.359L680.148 616.609C679.102 616.328 678 616.188 676.844 616.188C674.672 616.188 672.891 617.117 671.5 618.977C670.109 620.82 669.414 623.141 669.414 625.938V640H667.094V614.523H669.062L669.297 619.117H669.461C670.539 617.211 671.656 615.898 672.812 615.18C674 614.414 675.438 614.031 677.125 614.031ZM684.602 651.531C683.711 651.531 682.719 651.367 681.625 651.039V649.023C682.516 649.273 683.492 649.398 684.555 649.398C686.117 649.398 687.367 648.625 688.305 647.078C688.82 646.266 689.391 645.016 690.016 643.328L691.281 640L681.531 614.523H683.922L689.312 628.82C690.906 633.086 691.945 636.055 692.43 637.727H692.57C693.133 635.977 694.203 632.961 695.781 628.68L701.172 614.523H703.562L692.148 644.125C691.242 646.516 690.469 648.141 689.828 649C688.578 650.688 686.836 651.531 684.602 651.531ZM722.758 614.523H730.234V616.539H722.758V632.664C722.758 634.617 723.102 636.062 723.789 637C724.477 637.938 725.562 638.406 727.047 638.406C728.531 638.406 729.805 638.281 730.867 638.031V639.906C729.742 640.281 728.445 640.469 726.977 640.469C724.727 640.469 723.062 639.867 721.984 638.664C720.922 637.461 720.391 635.57 720.391 632.992V616.539H716.617V615.18L720.391 614.125L721.562 608.359H722.758V614.523ZM734.875 627.227C734.875 623.086 735.883 619.852 737.898 617.523C739.914 615.195 742.672 614.031 746.172 614.031C749.688 614.031 752.438 615.211 754.422 617.57C756.422 619.93 757.422 623.172 757.422 627.297C757.422 631.406 756.414 634.633 754.398 636.977C752.383 639.305 749.602 640.469 746.055 640.469C745.977 640.469 745.891 640.469 745.797 640.469C742.562 640.469 739.93 639.273 737.898 636.883C735.883 634.492 734.875 631.391 734.875 627.578C734.875 627.453 734.875 627.336 734.875 627.227ZM746.148 638.359C748.961 638.359 751.133 637.383 752.664 635.43C754.195 633.477 754.961 630.742 754.961 627.227C754.961 623.695 754.18 620.969 752.617 619.047C751.07 617.109 748.891 616.141 746.078 616.141C743.281 616.141 741.117 617.109 739.586 619.047C738.07 620.969 737.312 623.688 737.312 627.203C737.312 630.703 738.078 633.445 739.609 635.43C741.156 637.383 743.336 638.359 746.148 638.359ZM788.688 640H786.391V615.039C786.391 612.773 786.484 610.422 786.672 607.984C786.359 608.297 786.117 608.523 785.945 608.664L778.703 614.359L777.367 612.695L786.672 605.734H788.688V640ZM804.789 637.844C806.273 638.297 807.805 638.523 809.383 638.523C813.258 638.523 816.281 637.125 818.453 634.328C820.641 631.531 821.859 627.469 822.109 622.141H821.828C820.703 623.625 819.352 624.773 817.773 625.586C816.195 626.398 814.539 626.805 812.805 626.805C809.617 626.805 807.141 625.93 805.375 624.18C803.609 622.414 802.727 619.875 802.727 616.562C802.727 613.234 803.695 610.508 805.633 608.383C807.57 606.258 810.102 605.195 813.227 605.195C813.305 605.195 813.383 605.195 813.461 605.195C816.742 605.195 819.383 606.531 821.383 609.203C823.398 611.875 824.406 615.492 824.406 620.055C824.406 620.133 824.406 620.203 824.406 620.266C824.406 620.312 824.406 620.352 824.406 620.383C824.406 627.023 823.109 632.031 820.516 635.406C817.922 638.781 814.242 640.469 809.477 640.469C809.414 640.469 809.352 640.469 809.289 640.469C807.695 640.469 806.195 640.266 804.789 639.859V637.844ZM813.227 607.258C810.773 607.258 808.805 608.094 807.32 609.766C805.852 611.422 805.117 613.648 805.117 616.445C805.117 619.242 805.789 621.352 807.133 622.773C808.492 624.18 810.445 624.883 812.992 624.883C814.57 624.883 816.039 624.539 817.398 623.852C818.758 623.148 819.844 622.219 820.656 621.062C821.469 619.891 821.875 618.695 821.875 617.477C821.875 615.664 821.508 613.953 820.773 612.344C820.055 610.734 819.039 609.484 817.727 608.594C816.414 607.703 814.914 607.258 813.227 607.258ZM850.844 613.398C850.844 615.18 850.289 616.742 849.18 618.086C848.086 619.414 846.312 620.641 843.859 621.766C846.875 623.016 848.984 624.375 850.188 625.844C851.406 627.312 852.016 629.086 852.016 631.164C852.016 633.992 851.023 636.25 849.039 637.938C847.07 639.625 844.383 640.469 840.977 640.469C837.586 640.469 834.969 639.68 833.125 638.102C831.297 636.508 830.383 634.211 830.383 631.211C830.383 627.102 833.039 623.984 838.352 621.859C835.82 620.656 834.039 619.406 833.008 618.109C831.992 616.797 831.484 615.211 831.484 613.352C831.484 613.273 831.484 613.195 831.484 613.117C831.484 610.805 832.398 608.898 834.227 607.398C836.055 605.898 838.32 605.148 841.023 605.148C841.07 605.148 841.125 605.148 841.188 605.148C844.094 605.148 846.43 605.891 848.195 607.375C849.961 608.844 850.844 610.852 850.844 613.398ZM841.375 620.898C843.938 619.914 845.766 618.828 846.859 617.641C847.969 616.438 848.523 614.953 848.523 613.188C848.523 611.422 847.867 609.992 846.555 608.898C845.242 607.805 843.453 607.258 841.188 607.258C838.938 607.258 837.148 607.805 835.82 608.898C834.492 609.977 833.828 611.461 833.828 613.352C833.828 614.461 834.062 615.43 834.531 616.258C835.016 617.07 835.711 617.812 836.617 618.484C837.539 619.156 839.125 619.961 841.375 620.898ZM840.695 622.82C837.836 623.914 835.797 625.141 834.578 626.5C833.375 627.844 832.773 629.562 832.773 631.656C832.773 633.75 833.5 635.391 834.953 636.578C836.422 637.766 838.453 638.359 841.047 638.359C843.656 638.359 845.734 637.734 847.281 636.484C848.844 635.219 849.625 633.562 849.625 631.516C849.625 629.453 849.008 627.828 847.773 626.641C846.57 625.438 844.211 624.164 840.695 622.82ZM867.93 605.242C870.914 605.242 873.258 606.039 874.961 607.633C876.68 609.227 877.539 611.422 877.539 614.219C877.539 616.469 876.961 618.656 875.805 620.781C874.648 622.906 872.555 625.523 869.523 628.633L860.734 637.68V637.773H879.062V640H857.617V637.938L866.734 628.422C869.297 625.766 871.094 623.734 872.125 622.328C873.172 620.906 873.93 619.562 874.398 618.297C874.883 617.016 875.125 615.672 875.125 614.266C875.125 612.234 874.453 610.578 873.109 609.297C871.781 608 870.039 607.352 867.883 607.352C865.008 607.352 862.273 608.391 859.68 610.469L858.414 608.852C861.258 606.445 864.43 605.242 867.93 605.242Z" fill="white"/>
<path d="M311.242 790H308.852V755.734H311.242V790ZM331.75 764.031C337.531 764.031 340.422 767.133 340.422 773.336V790H338.125V773.477C338.125 770.93 337.586 769.07 336.508 767.898C335.445 766.727 333.773 766.141 331.492 766.141C328.477 766.141 326.25 766.906 324.812 768.438C323.391 769.969 322.68 772.469 322.68 775.938V790H320.359V764.523H322.328L322.773 768.016H322.914C324.586 765.359 327.531 764.031 331.75 764.031ZM358.844 790.469C355.203 790.469 352.352 789.32 350.289 787.023C348.227 784.727 347.195 781.5 347.195 777.344C347.195 773.188 348.258 769.93 350.383 767.57C352.523 765.211 355.461 764.031 359.195 764.031C361.414 764.031 363.523 764.414 365.523 765.18L364.891 767.266C362.688 766.516 360.773 766.141 359.148 766.141C356.039 766.141 353.672 767.102 352.047 769.023C350.438 770.945 349.633 773.68 349.633 777.227C349.633 780.773 350.438 783.516 352.047 785.453C353.656 787.391 355.906 788.359 358.797 788.359C361.078 788.359 363.227 787.945 365.242 787.117V789.273C363.633 790.07 361.5 790.469 358.844 790.469ZM381.484 764.031C382.516 764.031 383.672 764.141 384.953 764.359L384.508 766.609C383.461 766.328 382.359 766.188 381.203 766.188C379.031 766.188 377.25 767.117 375.859 768.977C374.469 770.82 373.773 773.141 373.773 775.938V790H371.453V764.523H373.422L373.656 769.117H373.82C374.898 767.211 376.016 765.898 377.172 765.18C378.359 764.414 379.797 764.031 381.484 764.031ZM400.445 790.469C396.758 790.469 393.867 789.328 391.773 787.047C389.711 784.766 388.68 781.586 388.68 777.508C388.68 773.43 389.672 770.164 391.656 767.711C393.656 765.258 396.359 764.031 399.766 764.031C402.766 764.031 405.133 765.086 406.867 767.195C408.602 769.289 409.469 772.125 409.469 775.703V777.578H391.117C391.148 781.078 391.961 783.75 393.555 785.594C395.164 787.438 397.461 788.359 400.445 788.359C401.93 788.359 403.234 788.25 404.359 788.031C405.484 787.812 406.852 787.383 408.461 786.742V788.852C407.039 789.477 405.711 789.898 404.477 790.117C403.258 790.352 401.914 790.469 400.445 790.469ZM407.008 775.516C407.008 772.562 406.359 770.258 405.062 768.602C403.766 766.93 401.938 766.094 399.578 766.094C397.234 766.094 395.32 766.906 393.836 768.531C392.367 770.156 391.508 772.484 391.258 775.516H407.008ZM417.039 766.047C419.836 764.734 422.617 764.078 425.383 764.078C428.164 764.078 430.242 764.812 431.617 766.281C432.992 767.734 433.68 769.992 433.68 773.055V790H431.969L431.383 785.969H431.195C429.898 787.625 428.578 788.789 427.234 789.461C425.906 790.133 424.312 790.469 422.453 790.469C419.953 790.469 418 789.836 416.594 788.57C415.203 787.289 414.508 785.461 414.508 783.086C414.508 780.695 415.547 778.812 417.625 777.438C419.703 776.062 422.703 775.336 426.625 775.258L431.477 775.117V773.43C431.477 770.961 430.977 769.125 429.977 767.922C428.977 766.703 427.359 766.094 425.125 766.094C422.891 766.094 420.484 766.75 417.906 768.062L417.039 766.047ZM416.992 783.32C416.992 784.914 417.477 786.156 418.445 787.047C419.43 787.922 420.812 788.359 422.594 788.359C425.312 788.359 427.453 787.578 429.016 786.016C430.594 784.453 431.383 782.297 431.383 779.547V777.039L426.93 777.227C423.352 777.398 420.797 777.961 419.266 778.914C417.75 779.852 416.992 781.32 416.992 783.32ZM439.656 786.391C442.156 787.672 444.75 788.312 447.438 788.312C450.125 788.312 452.133 787.906 453.461 787.094C454.789 786.266 455.453 785.172 455.453 783.812C455.453 782.453 454.93 781.344 453.883 780.484C452.836 779.609 451.094 778.742 448.656 777.883C446.219 777.008 444.469 776.227 443.406 775.539C442.344 774.852 441.555 774.086 441.039 773.242C440.539 772.398 440.289 771.391 440.289 770.219C440.289 768.328 441.086 766.82 442.68 765.695C444.305 764.586 446.516 764.031 449.312 764.031C452.125 764.031 454.766 764.547 457.234 765.578L456.367 767.688C453.805 766.656 451.484 766.141 449.406 766.141C447.328 766.141 445.68 766.484 444.461 767.172C443.242 767.859 442.633 768.844 442.633 770.125C442.633 771.391 443.102 772.422 444.039 773.219C444.992 774.016 446.727 774.867 449.242 775.773C451.758 776.664 453.547 777.453 454.609 778.141C456.703 779.453 457.75 781.227 457.75 783.461C457.75 785.68 456.883 787.406 455.148 788.641C453.414 789.859 450.891 790.469 447.578 790.469C444.281 790.469 441.641 789.945 439.656 788.898V786.391ZM474.602 790.469C470.914 790.469 468.023 789.328 465.93 787.047C463.867 784.766 462.836 781.586 462.836 777.508C462.836 773.43 463.828 770.164 465.812 767.711C467.812 765.258 470.516 764.031 473.922 764.031C476.922 764.031 479.289 765.086 481.023 767.195C482.758 769.289 483.625 772.125 483.625 775.703V777.578H465.273C465.305 781.078 466.117 783.75 467.711 785.594C469.32 787.438 471.617 788.359 474.602 788.359C476.086 788.359 477.391 788.25 478.516 788.031C479.641 787.812 481.008 787.383 482.617 786.742V788.852C481.195 789.477 479.867 789.898 478.633 790.117C477.414 790.352 476.07 790.469 474.602 790.469ZM481.164 775.516C481.164 772.562 480.516 770.258 479.219 768.602C477.922 766.93 476.094 766.094 473.734 766.094C471.391 766.094 469.477 766.906 467.992 768.531C466.523 770.156 465.664 772.484 465.414 775.516H481.164ZM504.273 755.195C504.758 755.195 505.133 755.391 505.398 755.781C505.68 756.172 505.82 756.727 505.82 757.445C505.82 758.148 505.68 758.703 505.398 759.109C505.133 759.516 504.758 759.719 504.273 759.719C503.289 759.719 502.797 758.969 502.797 757.469C502.797 755.953 503.289 755.195 504.273 755.195ZM505.445 790H503.125V764.523H505.445V790ZM525.391 764.031C531.172 764.031 534.062 767.133 534.062 773.336V790H531.766V773.477C531.766 770.93 531.227 769.07 530.148 767.898C529.086 766.727 527.414 766.141 525.133 766.141C522.117 766.141 519.891 766.906 518.453 768.438C517.031 769.969 516.32 772.469 516.32 775.938V790H514V764.523H515.969L516.414 768.016H516.555C518.227 765.359 521.172 764.031 525.391 764.031ZM565.727 764.031C569.164 764.031 571.781 765.164 573.578 767.43C575.391 769.68 576.297 772.93 576.297 777.18C576.297 781.414 575.344 784.688 573.438 787C571.547 789.312 568.961 790.469 565.68 790.469C561.773 790.469 558.914 789 557.102 786.062H556.938L557.008 788.031C557.07 789.047 557.102 790.312 557.102 791.828V801.531H554.781V764.523H556.75L557.195 768.156H557.336C559.102 765.406 561.898 764.031 565.727 764.031ZM557.102 776.57V777.32C557.102 781.305 557.766 784.148 559.094 785.852C560.422 787.555 562.602 788.406 565.633 788.406C568.242 788.406 570.258 787.438 571.68 785.5C573.102 783.562 573.812 780.852 573.812 777.367C573.812 769.883 571.117 766.141 565.727 766.141C562.773 766.141 560.594 766.961 559.188 768.602C557.797 770.227 557.102 772.883 557.102 776.57ZM583.914 766.047C586.711 764.734 589.492 764.078 592.258 764.078C595.039 764.078 597.117 764.812 598.492 766.281C599.867 767.734 600.555 769.992 600.555 773.055V790H598.844L598.258 785.969H598.07C596.773 787.625 595.453 788.789 594.109 789.461C592.781 790.133 591.188 790.469 589.328 790.469C586.828 790.469 584.875 789.836 583.469 788.57C582.078 787.289 581.383 785.461 581.383 783.086C581.383 780.695 582.422 778.812 584.5 777.438C586.578 776.062 589.578 775.336 593.5 775.258L598.352 775.117V773.43C598.352 770.961 597.852 769.125 596.852 767.922C595.852 766.703 594.234 766.094 592 766.094C589.766 766.094 587.359 766.75 584.781 768.062L583.914 766.047ZM583.867 783.32C583.867 784.914 584.352 786.156 585.32 787.047C586.305 787.922 587.688 788.359 589.469 788.359C592.188 788.359 594.328 787.578 595.891 786.016C597.469 784.453 598.258 782.297 598.258 779.547V777.039L593.805 777.227C590.227 777.398 587.672 777.961 586.141 778.914C584.625 779.852 583.867 781.32 583.867 783.32ZM606.531 786.391C609.031 787.672 611.625 788.312 614.312 788.312C617 788.312 619.008 787.906 620.336 787.094C621.664 786.266 622.328 785.172 622.328 783.812C622.328 782.453 621.805 781.344 620.758 780.484C619.711 779.609 617.969 778.742 615.531 777.883C613.094 777.008 611.344 776.227 610.281 775.539C609.219 774.852 608.43 774.086 607.914 773.242C607.414 772.398 607.164 771.391 607.164 770.219C607.164 768.328 607.961 766.82 609.555 765.695C611.18 764.586 613.391 764.031 616.188 764.031C619 764.031 621.641 764.547 624.109 765.578L623.242 767.688C620.68 766.656 618.359 766.141 616.281 766.141C614.203 766.141 612.555 766.484 611.336 767.172C610.117 767.859 609.508 768.844 609.508 770.125C609.508 771.391 609.977 772.422 610.914 773.219C611.867 774.016 613.602 774.867 616.117 775.773C618.633 776.664 620.422 777.453 621.484 778.141C623.578 779.453 624.625 781.227 624.625 783.461C624.625 785.68 623.758 787.406 622.023 788.641C620.289 789.859 617.766 790.469 614.453 790.469C611.156 790.469 608.516 789.945 606.531 788.898V786.391ZM633.648 764.523H641.125V766.539H633.648V782.664C633.648 784.617 633.992 786.062 634.68 787C635.367 787.938 636.453 788.406 637.938 788.406C639.422 788.406 640.695 788.281 641.758 788.031V789.906C640.633 790.281 639.336 790.469 637.867 790.469C635.617 790.469 633.953 789.867 632.875 788.664C631.812 787.461 631.281 785.57 631.281 782.992V766.539H627.508V765.18L631.281 764.125L632.453 758.359H633.648V764.523ZM657.297 764.031C658.328 764.031 659.484 764.141 660.766 764.359L660.32 766.609C659.273 766.328 658.172 766.188 657.016 766.188C654.844 766.188 653.062 767.117 651.672 768.977C650.281 770.82 649.586 773.141 649.586 775.938V790H647.266V764.523H649.234L649.469 769.117H649.633C650.711 767.211 651.828 765.898 652.984 765.18C654.172 764.414 655.609 764.031 657.297 764.031ZM664.773 801.531C663.883 801.531 662.891 801.367 661.797 801.039V799.023C662.688 799.273 663.664 799.398 664.727 799.398C666.289 799.398 667.539 798.625 668.477 797.078C668.992 796.266 669.562 795.016 670.188 793.328L671.453 790L661.703 764.523H664.094L669.484 778.82C671.078 783.086 672.117 786.055 672.602 787.727H672.742C673.305 785.977 674.375 782.961 675.953 778.68L681.344 764.523H683.734L672.32 794.125C671.414 796.516 670.641 798.141 670 799C668.75 800.688 667.008 801.531 664.773 801.531ZM698.172 786.391C700.672 787.672 703.266 788.312 705.953 788.312C708.641 788.312 710.648 787.906 711.977 787.094C713.305 786.266 713.969 785.172 713.969 783.812C713.969 782.453 713.445 781.344 712.398 780.484C711.352 779.609 709.609 778.742 707.172 777.883C704.734 777.008 702.984 776.227 701.922 775.539C700.859 774.852 700.07 774.086 699.555 773.242C699.055 772.398 698.805 771.391 698.805 770.219C698.805 768.328 699.602 766.82 701.195 765.695C702.82 764.586 705.031 764.031 707.828 764.031C710.641 764.031 713.281 764.547 715.75 765.578L714.883 767.688C712.32 766.656 710 766.141 707.922 766.141C705.844 766.141 704.195 766.484 702.977 767.172C701.758 767.859 701.148 768.844 701.148 770.125C701.148 771.391 701.617 772.422 702.555 773.219C703.508 774.016 705.242 774.867 707.758 775.773C710.273 776.664 712.062 777.453 713.125 778.141C715.219 779.453 716.266 781.227 716.266 783.461C716.266 785.68 715.398 787.406 713.664 788.641C711.93 789.859 709.406 790.469 706.094 790.469C702.797 790.469 700.156 789.945 698.172 788.898V786.391ZM723.977 755.195C724.461 755.195 724.836 755.391 725.102 755.781C725.383 756.172 725.523 756.727 725.523 757.445C725.523 758.148 725.383 758.703 725.102 759.109C724.836 759.516 724.461 759.719 723.977 759.719C722.992 759.719 722.5 758.969 722.5 757.469C722.5 755.953 722.992 755.195 723.977 755.195ZM725.148 790H722.828V764.523H725.148V790ZM745.094 764.031C750.875 764.031 753.766 767.133 753.766 773.336V790H751.469V773.477C751.469 770.93 750.93 769.07 749.852 767.898C748.789 766.727 747.117 766.141 744.836 766.141C741.82 766.141 739.594 766.906 738.156 768.438C736.734 769.969 736.023 772.469 736.023 775.938V790H733.703V764.523H735.672L736.117 768.016H736.258C737.93 765.359 740.875 764.031 745.094 764.031ZM772.188 790.469C768.547 790.469 765.695 789.32 763.633 787.023C761.57 784.727 760.539 781.5 760.539 777.344C760.539 773.188 761.602 769.93 763.727 767.57C765.867 765.211 768.805 764.031 772.539 764.031C774.758 764.031 776.867 764.414 778.867 765.18L778.234 767.266C776.031 766.516 774.117 766.141 772.492 766.141C769.383 766.141 767.016 767.102 765.391 769.023C763.781 770.945 762.977 773.68 762.977 777.227C762.977 780.773 763.781 783.516 765.391 785.453C767 787.391 769.25 788.359 772.141 788.359C774.422 788.359 776.57 787.945 778.586 787.117V789.273C776.977 790.07 774.844 790.469 772.188 790.469ZM795.086 790.469C791.398 790.469 788.508 789.328 786.414 787.047C784.352 784.766 783.32 781.586 783.32 777.508C783.32 773.43 784.312 770.164 786.297 767.711C788.297 765.258 791 764.031 794.406 764.031C797.406 764.031 799.773 765.086 801.508 767.195C803.242 769.289 804.109 772.125 804.109 775.703V777.578H785.758C785.789 781.078 786.602 783.75 788.195 785.594C789.805 787.438 792.102 788.359 795.086 788.359C796.57 788.359 797.875 788.25 799 788.031C800.125 787.812 801.492 787.383 803.102 786.742V788.852C801.68 789.477 800.352 789.898 799.117 790.117C797.898 790.352 796.555 790.469 795.086 790.469ZM801.648 775.516C801.648 772.562 801 770.258 799.703 768.602C798.406 766.93 796.578 766.094 794.219 766.094C791.875 766.094 789.961 766.906 788.477 768.531C787.008 770.156 786.148 772.484 785.898 775.516H801.648ZM835.328 790H833.031V765.039C833.031 762.773 833.125 760.422 833.312 757.984C833 758.297 832.758 758.523 832.586 758.664L825.344 764.359L824.008 762.695L833.312 755.734H835.328V790ZM851.43 787.844C852.914 788.297 854.445 788.523 856.023 788.523C859.898 788.523 862.922 787.125 865.094 784.328C867.281 781.531 868.5 777.469 868.75 772.141H868.469C867.344 773.625 865.992 774.773 864.414 775.586C862.836 776.398 861.18 776.805 859.445 776.805C856.258 776.805 853.781 775.93 852.016 774.18C850.25 772.414 849.367 769.875 849.367 766.562C849.367 763.234 850.336 760.508 852.273 758.383C854.211 756.258 856.742 755.195 859.867 755.195C859.945 755.195 860.023 755.195 860.102 755.195C863.383 755.195 866.023 756.531 868.023 759.203C870.039 761.875 871.047 765.492 871.047 770.055C871.047 770.133 871.047 770.203 871.047 770.266C871.047 770.312 871.047 770.352 871.047 770.383C871.047 777.023 869.75 782.031 867.156 785.406C864.562 788.781 860.883 790.469 856.117 790.469C856.055 790.469 855.992 790.469 855.93 790.469C854.336 790.469 852.836 790.266 851.43 789.859V787.844ZM859.867 757.258C857.414 757.258 855.445 758.094 853.961 759.766C852.492 761.422 851.758 763.648 851.758 766.445C851.758 769.242 852.43 771.352 853.773 772.773C855.133 774.18 857.086 774.883 859.633 774.883C861.211 774.883 862.68 774.539 864.039 773.852C865.398 773.148 866.484 772.219 867.297 771.062C868.109 769.891 868.516 768.695 868.516 767.477C868.516 765.664 868.148 763.953 867.414 762.344C866.695 760.734 865.68 759.484 864.367 758.594C863.055 757.703 861.555 757.258 859.867 757.258ZM897.484 763.398C897.484 765.18 896.93 766.742 895.82 768.086C894.727 769.414 892.953 770.641 890.5 771.766C893.516 773.016 895.625 774.375 896.828 775.844C898.047 777.312 898.656 779.086 898.656 781.164C898.656 783.992 897.664 786.25 895.68 787.938C893.711 789.625 891.023 790.469 887.617 790.469C884.227 790.469 881.609 789.68 879.766 788.102C877.938 786.508 877.023 784.211 877.023 781.211C877.023 777.102 879.68 773.984 884.992 771.859C882.461 770.656 880.68 769.406 879.648 768.109C878.633 766.797 878.125 765.211 878.125 763.352C878.125 763.273 878.125 763.195 878.125 763.117C878.125 760.805 879.039 758.898 880.867 757.398C882.695 755.898 884.961 755.148 887.664 755.148C887.711 755.148 887.766 755.148 887.828 755.148C890.734 755.148 893.07 755.891 894.836 757.375C896.602 758.844 897.484 760.852 897.484 763.398ZM888.016 770.898C890.578 769.914 892.406 768.828 893.5 767.641C894.609 766.438 895.164 764.953 895.164 763.188C895.164 761.422 894.508 759.992 893.195 758.898C891.883 757.805 890.094 757.258 887.828 757.258C885.578 757.258 883.789 757.805 882.461 758.898C881.133 759.977 880.469 761.461 880.469 763.352C880.469 764.461 880.703 765.43 881.172 766.258C881.656 767.07 882.352 767.812 883.258 768.484C884.18 769.156 885.766 769.961 888.016 770.898ZM887.336 772.82C884.477 773.914 882.438 775.141 881.219 776.5C880.016 777.844 879.414 779.562 879.414 781.656C879.414 783.75 880.141 785.391 881.594 786.578C883.062 787.766 885.094 788.359 887.688 788.359C890.297 788.359 892.375 787.734 893.922 786.484C895.484 785.219 896.266 783.562 896.266 781.516C896.266 779.453 895.648 777.828 894.414 776.641C893.211 775.438 890.852 774.164 887.336 772.82ZM914.57 755.242C917.555 755.242 919.898 756.039 921.602 757.633C923.32 759.227 924.18 761.422 924.18 764.219C924.18 766.469 923.602 768.656 922.445 770.781C921.289 772.906 919.195 775.523 916.164 778.633L907.375 787.68V787.773H925.703V790H904.258V787.938L913.375 778.422C915.938 775.766 917.734 773.734 918.766 772.328C919.812 770.906 920.57 769.562 921.039 768.297C921.523 767.016 921.766 765.672 921.766 764.266C921.766 762.234 921.094 760.578 919.75 759.297C918.422 758 916.68 757.352 914.523 757.352C911.648 757.352 908.914 758.391 906.32 760.469L905.055 758.852C907.898 756.445 911.07 755.242 914.57 755.242Z" fill="white"/>
<path d="M311.242 325H308.852V290.734H311.242V325ZM331.75 299.031C337.531 299.031 340.422 302.133 340.422 308.336V325H338.125V308.477C338.125 305.93 337.586 304.07 336.508 302.898C335.445 301.727 333.773 301.141 331.492 301.141C328.477 301.141 326.25 301.906 324.812 303.438C323.391 304.969 322.68 307.469 322.68 310.938V325H320.359V299.523H322.328L322.773 303.016H322.914C324.586 300.359 327.531 299.031 331.75 299.031ZM358.844 325.469C355.203 325.469 352.352 324.32 350.289 322.023C348.227 319.727 347.195 316.5 347.195 312.344C347.195 308.188 348.258 304.93 350.383 302.57C352.523 300.211 355.461 299.031 359.195 299.031C361.414 299.031 363.523 299.414 365.523 300.18L364.891 302.266C362.688 301.516 360.773 301.141 359.148 301.141C356.039 301.141 353.672 302.102 352.047 304.023C350.438 305.945 349.633 308.68 349.633 312.227C349.633 315.773 350.438 318.516 352.047 320.453C353.656 322.391 355.906 323.359 358.797 323.359C361.078 323.359 363.227 322.945 365.242 322.117V324.273C363.633 325.07 361.5 325.469 358.844 325.469ZM381.484 299.031C382.516 299.031 383.672 299.141 384.953 299.359L384.508 301.609C383.461 301.328 382.359 301.188 381.203 301.188C379.031 301.188 377.25 302.117 375.859 303.977C374.469 305.82 373.773 308.141 373.773 310.938V325H371.453V299.523H373.422L373.656 304.117H373.82C374.898 302.211 376.016 300.898 377.172 300.18C378.359 299.414 379.797 299.031 381.484 299.031ZM400.445 325.469C396.758 325.469 393.867 324.328 391.773 322.047C389.711 319.766 388.68 316.586 388.68 312.508C388.68 308.43 389.672 305.164 391.656 302.711C393.656 300.258 396.359 299.031 399.766 299.031C402.766 299.031 405.133 300.086 406.867 302.195C408.602 304.289 409.469 307.125 409.469 310.703V312.578H391.117C391.148 316.078 391.961 318.75 393.555 320.594C395.164 322.438 397.461 323.359 400.445 323.359C401.93 323.359 403.234 323.25 404.359 323.031C405.484 322.812 406.852 322.383 408.461 321.742V323.852C407.039 324.477 405.711 324.898 404.477 325.117C403.258 325.352 401.914 325.469 400.445 325.469ZM407.008 310.516C407.008 307.562 406.359 305.258 405.062 303.602C403.766 301.93 401.938 301.094 399.578 301.094C397.234 301.094 395.32 301.906 393.836 303.531C392.367 305.156 391.508 307.484 391.258 310.516H407.008ZM417.039 301.047C419.836 299.734 422.617 299.078 425.383 299.078C428.164 299.078 430.242 299.812 431.617 301.281C432.992 302.734 433.68 304.992 433.68 308.055V325H431.969L431.383 320.969H431.195C429.898 322.625 428.578 323.789 427.234 324.461C425.906 325.133 424.312 325.469 422.453 325.469C419.953 325.469 418 324.836 416.594 323.57C415.203 322.289 414.508 320.461 414.508 318.086C414.508 315.695 415.547 313.812 417.625 312.438C419.703 311.062 422.703 310.336 426.625 310.258L431.477 310.117V308.43C431.477 305.961 430.977 304.125 429.977 302.922C428.977 301.703 427.359 301.094 425.125 301.094C422.891 301.094 420.484 301.75 417.906 303.062L417.039 301.047ZM416.992 318.32C416.992 319.914 417.477 321.156 418.445 322.047C419.43 322.922 420.812 323.359 422.594 323.359C425.312 323.359 427.453 322.578 429.016 321.016C430.594 319.453 431.383 317.297 431.383 314.547V312.039L426.93 312.227C423.352 312.398 420.797 312.961 419.266 313.914C417.75 314.852 416.992 316.32 416.992 318.32ZM439.656 321.391C442.156 322.672 444.75 323.312 447.438 323.312C450.125 323.312 452.133 322.906 453.461 322.094C454.789 321.266 455.453 320.172 455.453 318.812C455.453 317.453 454.93 316.344 453.883 315.484C452.836 314.609 451.094 313.742 448.656 312.883C446.219 312.008 444.469 311.227 443.406 310.539C442.344 309.852 441.555 309.086 441.039 308.242C440.539 307.398 440.289 306.391 440.289 305.219C440.289 303.328 441.086 301.82 442.68 300.695C444.305 299.586 446.516 299.031 449.312 299.031C452.125 299.031 454.766 299.547 457.234 300.578L456.367 302.688C453.805 301.656 451.484 301.141 449.406 301.141C447.328 301.141 445.68 301.484 444.461 302.172C443.242 302.859 442.633 303.844 442.633 305.125C442.633 306.391 443.102 307.422 444.039 308.219C444.992 309.016 446.727 309.867 449.242 310.773C451.758 311.664 453.547 312.453 454.609 313.141C456.703 314.453 457.75 316.227 457.75 318.461C457.75 320.68 456.883 322.406 455.148 323.641C453.414 324.859 450.891 325.469 447.578 325.469C444.281 325.469 441.641 324.945 439.656 323.898V321.391ZM474.602 325.469C470.914 325.469 468.023 324.328 465.93 322.047C463.867 319.766 462.836 316.586 462.836 312.508C462.836 308.43 463.828 305.164 465.812 302.711C467.812 300.258 470.516 299.031 473.922 299.031C476.922 299.031 479.289 300.086 481.023 302.195C482.758 304.289 483.625 307.125 483.625 310.703V312.578H465.273C465.305 316.078 466.117 318.75 467.711 320.594C469.32 322.438 471.617 323.359 474.602 323.359C476.086 323.359 477.391 323.25 478.516 323.031C479.641 322.812 481.008 322.383 482.617 321.742V323.852C481.195 324.477 479.867 324.898 478.633 325.117C477.414 325.352 476.07 325.469 474.602 325.469ZM481.164 310.516C481.164 307.562 480.516 305.258 479.219 303.602C477.922 301.93 476.094 301.094 473.734 301.094C471.391 301.094 469.477 301.906 467.992 303.531C466.523 305.156 465.664 307.484 465.414 310.516H481.164ZM504.273 290.195C504.758 290.195 505.133 290.391 505.398 290.781C505.68 291.172 505.82 291.727 505.82 292.445C505.82 293.148 505.68 293.703 505.398 294.109C505.133 294.516 504.758 294.719 504.273 294.719C503.289 294.719 502.797 293.969 502.797 292.469C502.797 290.953 503.289 290.195 504.273 290.195ZM505.445 325H503.125V299.523H505.445V325ZM525.391 299.031C531.172 299.031 534.062 302.133 534.062 308.336V325H531.766V308.477C531.766 305.93 531.227 304.07 530.148 302.898C529.086 301.727 527.414 301.141 525.133 301.141C522.117 301.141 519.891 301.906 518.453 303.438C517.031 304.969 516.32 307.469 516.32 310.938V325H514V299.523H515.969L516.414 303.016H516.555C518.227 300.359 521.172 299.031 525.391 299.031ZM552.484 321.391C554.984 322.672 557.578 323.312 560.266 323.312C562.953 323.312 564.961 322.906 566.289 322.094C567.617 321.266 568.281 320.172 568.281 318.812C568.281 317.453 567.758 316.344 566.711 315.484C565.664 314.609 563.922 313.742 561.484 312.883C559.047 312.008 557.297 311.227 556.234 310.539C555.172 309.852 554.383 309.086 553.867 308.242C553.367 307.398 553.117 306.391 553.117 305.219C553.117 303.328 553.914 301.82 555.508 300.695C557.133 299.586 559.344 299.031 562.141 299.031C564.953 299.031 567.594 299.547 570.062 300.578L569.195 302.688C566.633 301.656 564.312 301.141 562.234 301.141C560.156 301.141 558.508 301.484 557.289 302.172C556.07 302.859 555.461 303.844 555.461 305.125C555.461 306.391 555.93 307.422 556.867 308.219C557.82 309.016 559.555 309.867 562.07 310.773C564.586 311.664 566.375 312.453 567.438 313.141C569.531 314.453 570.578 316.227 570.578 318.461C570.578 320.68 569.711 322.406 567.977 323.641C566.242 324.859 563.719 325.469 560.406 325.469C557.109 325.469 554.469 324.945 552.484 323.898V321.391ZM575.641 312.227C575.641 308.086 576.648 304.852 578.664 302.523C580.68 300.195 583.438 299.031 586.938 299.031C590.453 299.031 593.203 300.211 595.188 302.57C597.188 304.93 598.188 308.172 598.188 312.297C598.188 316.406 597.18 319.633 595.164 321.977C593.148 324.305 590.367 325.469 586.82 325.469C586.742 325.469 586.656 325.469 586.562 325.469C583.328 325.469 580.695 324.273 578.664 321.883C576.648 319.492 575.641 316.391 575.641 312.578C575.641 312.453 575.641 312.336 575.641 312.227ZM586.914 323.359C589.727 323.359 591.898 322.383 593.43 320.43C594.961 318.477 595.727 315.742 595.727 312.227C595.727 308.695 594.945 305.969 593.383 304.047C591.836 302.109 589.656 301.141 586.844 301.141C584.047 301.141 581.883 302.109 580.352 304.047C578.836 305.969 578.078 308.688 578.078 312.203C578.078 315.703 578.844 318.445 580.375 320.43C581.922 322.383 584.102 323.359 586.914 323.359ZM606.414 297.344C606.414 294.188 606.992 291.891 608.148 290.453C609.305 289 611.18 288.273 613.773 288.273C615.18 288.273 616.586 288.484 617.992 288.906L617.453 290.922C616.234 290.531 614.992 290.336 613.727 290.336C611.93 290.336 610.648 290.875 609.883 291.953C609.117 293.016 608.734 294.75 608.734 297.156V299.523H614.734V301.539H608.734V325H606.414V301.539H601.68V300.18L606.414 299.312V297.344ZM622.117 299.523H629.594V301.539H622.117V317.664C622.117 319.617 622.461 321.062 623.148 322C623.836 322.938 624.922 323.406 626.406 323.406C627.891 323.406 629.164 323.281 630.227 323.031V324.906C629.102 325.281 627.805 325.469 626.336 325.469C624.086 325.469 622.422 324.867 621.344 323.664C620.281 322.461 619.75 320.57 619.75 317.992V301.539H615.977V300.18L619.75 299.125L620.922 293.359H622.117V299.523ZM668.219 325H666.672L666.109 321.109H665.922C663.984 324.016 661.227 325.469 657.648 325.469C654.086 325.469 651.375 324.375 649.516 322.188C647.656 319.984 646.727 316.742 646.727 312.461C646.727 308.164 647.648 304.852 649.492 302.523C651.336 300.195 654.016 299.031 657.531 299.031C659.406 299.031 661.008 299.375 662.336 300.062C663.68 300.75 664.875 301.891 665.922 303.484H666.062C665.969 301.516 665.922 299.586 665.922 297.695V288.531H668.219V325ZM665.922 312.625V312.227C665.922 308.273 665.258 305.438 663.93 303.719C662.602 302 660.508 301.141 657.648 301.141C654.805 301.141 652.68 302.117 651.273 304.07C649.867 306.008 649.164 308.844 649.164 312.578C649.164 319.797 651.969 323.406 657.578 323.406C660.453 323.406 662.562 322.57 663.906 320.898C665.25 319.227 665.922 316.469 665.922 312.625ZM686.828 299.031C687.859 299.031 689.016 299.141 690.297 299.359L689.852 301.609C688.805 301.328 687.703 301.188 686.547 301.188C684.375 301.188 682.594 302.117 681.203 303.977C679.812 305.82 679.117 308.141 679.117 310.938V325H676.797V299.523H678.766L679 304.117H679.164C680.242 302.211 681.359 300.898 682.516 300.18C683.703 299.414 685.141 299.031 686.828 299.031ZM696.648 290.195C697.133 290.195 697.508 290.391 697.773 290.781C698.055 291.172 698.195 291.727 698.195 292.445C698.195 293.148 698.055 293.703 697.773 294.109C697.508 294.516 697.133 294.719 696.648 294.719C695.664 294.719 695.172 293.969 695.172 292.469C695.172 290.953 695.664 290.195 696.648 290.195ZM697.82 325H695.5V299.523H697.82V325ZM717.766 299.031C723.547 299.031 726.438 302.133 726.438 308.336V325H724.141V308.477C724.141 305.93 723.602 304.07 722.523 302.898C721.461 301.727 719.789 301.141 717.508 301.141C714.492 301.141 712.266 301.906 710.828 303.438C709.406 304.969 708.695 307.469 708.695 310.938V325H706.375V299.523H708.344L708.789 303.016H708.93C710.602 300.359 713.547 299.031 717.766 299.031ZM737.008 325H734.688V288.531H737.008V306.812L736.844 313.82H736.961L749.969 299.523H752.781L742.75 310.398L753.625 325H750.859L741.18 312.133L737.008 315.93V325ZM755.594 321.391C758.094 322.672 760.688 323.312 763.375 323.312C766.062 323.312 768.07 322.906 769.398 322.094C770.727 321.266 771.391 320.172 771.391 318.812C771.391 317.453 770.867 316.344 769.82 315.484C768.773 314.609 767.031 313.742 764.594 312.883C762.156 312.008 760.406 311.227 759.344 310.539C758.281 309.852 757.492 309.086 756.977 308.242C756.477 307.398 756.227 306.391 756.227 305.219C756.227 303.328 757.023 301.82 758.617 300.695C760.242 299.586 762.453 299.031 765.25 299.031C768.062 299.031 770.703 299.547 773.172 300.578L772.305 302.688C769.742 301.656 767.422 301.141 765.344 301.141C763.266 301.141 761.617 301.484 760.398 302.172C759.18 302.859 758.57 303.844 758.57 305.125C758.57 306.391 759.039 307.422 759.977 308.219C760.93 309.016 762.664 309.867 765.18 310.773C767.695 311.664 769.484 312.453 770.547 313.141C772.641 314.453 773.688 316.227 773.688 318.461C773.688 320.68 772.82 322.406 771.086 323.641C769.352 324.859 766.828 325.469 763.516 325.469C760.219 325.469 757.578 324.945 755.594 323.898V321.391Z" fill="white"/>
<path d="M311.242 490H308.852V455.734H311.242V490ZM331.75 464.031C337.531 464.031 340.422 467.133 340.422 473.336V490H338.125V473.477C338.125 470.93 337.586 469.07 336.508 467.898C335.445 466.727 333.773 466.141 331.492 466.141C328.477 466.141 326.25 466.906 324.812 468.438C323.391 469.969 322.68 472.469 322.68 475.938V490H320.359V464.523H322.328L322.773 468.016H322.914C324.586 465.359 327.531 464.031 331.75 464.031ZM358.844 490.469C355.203 490.469 352.352 489.32 350.289 487.023C348.227 484.727 347.195 481.5 347.195 477.344C347.195 473.188 348.258 469.93 350.383 467.57C352.523 465.211 355.461 464.031 359.195 464.031C361.414 464.031 363.523 464.414 365.523 465.18L364.891 467.266C362.688 466.516 360.773 466.141 359.148 466.141C356.039 466.141 353.672 467.102 352.047 469.023C350.438 470.945 349.633 473.68 349.633 477.227C349.633 480.773 350.438 483.516 352.047 485.453C353.656 487.391 355.906 488.359 358.797 488.359C361.078 488.359 363.227 487.945 365.242 487.117V489.273C363.633 490.07 361.5 490.469 358.844 490.469ZM381.484 464.031C382.516 464.031 383.672 464.141 384.953 464.359L384.508 466.609C383.461 466.328 382.359 466.188 381.203 466.188C379.031 466.188 377.25 467.117 375.859 468.977C374.469 470.82 373.773 473.141 373.773 475.938V490H371.453V464.523H373.422L373.656 469.117H373.82C374.898 467.211 376.016 465.898 377.172 465.18C378.359 464.414 379.797 464.031 381.484 464.031ZM400.445 490.469C396.758 490.469 393.867 489.328 391.773 487.047C389.711 484.766 388.68 481.586 388.68 477.508C388.68 473.43 389.672 470.164 391.656 467.711C393.656 465.258 396.359 464.031 399.766 464.031C402.766 464.031 405.133 465.086 406.867 467.195C408.602 469.289 409.469 472.125 409.469 475.703V477.578H391.117C391.148 481.078 391.961 483.75 393.555 485.594C395.164 487.438 397.461 488.359 400.445 488.359C401.93 488.359 403.234 488.25 404.359 488.031C405.484 487.812 406.852 487.383 408.461 486.742V488.852C407.039 489.477 405.711 489.898 404.477 490.117C403.258 490.352 401.914 490.469 400.445 490.469ZM407.008 475.516C407.008 472.562 406.359 470.258 405.062 468.602C403.766 466.93 401.938 466.094 399.578 466.094C397.234 466.094 395.32 466.906 393.836 468.531C392.367 470.156 391.508 472.484 391.258 475.516H407.008ZM417.039 466.047C419.836 464.734 422.617 464.078 425.383 464.078C428.164 464.078 430.242 464.812 431.617 466.281C432.992 467.734 433.68 469.992 433.68 473.055V490H431.969L431.383 485.969H431.195C429.898 487.625 428.578 488.789 427.234 489.461C425.906 490.133 424.312 490.469 422.453 490.469C419.953 490.469 418 489.836 416.594 488.57C415.203 487.289 414.508 485.461 414.508 483.086C414.508 480.695 415.547 478.812 417.625 477.438C419.703 476.062 422.703 475.336 426.625 475.258L431.477 475.117V473.43C431.477 470.961 430.977 469.125 429.977 467.922C428.977 466.703 427.359 466.094 425.125 466.094C422.891 466.094 420.484 466.75 417.906 468.062L417.039 466.047ZM416.992 483.32C416.992 484.914 417.477 486.156 418.445 487.047C419.43 487.922 420.812 488.359 422.594 488.359C425.312 488.359 427.453 487.578 429.016 486.016C430.594 484.453 431.383 482.297 431.383 479.547V477.039L426.93 477.227C423.352 477.398 420.797 477.961 419.266 478.914C417.75 479.852 416.992 481.32 416.992 483.32ZM439.656 486.391C442.156 487.672 444.75 488.312 447.438 488.312C450.125 488.312 452.133 487.906 453.461 487.094C454.789 486.266 455.453 485.172 455.453 483.812C455.453 482.453 454.93 481.344 453.883 480.484C452.836 479.609 451.094 478.742 448.656 477.883C446.219 477.008 444.469 476.227 443.406 475.539C442.344 474.852 441.555 474.086 441.039 473.242C440.539 472.398 440.289 471.391 440.289 470.219C440.289 468.328 441.086 466.82 442.68 465.695C444.305 464.586 446.516 464.031 449.312 464.031C452.125 464.031 454.766 464.547 457.234 465.578L456.367 467.688C453.805 466.656 451.484 466.141 449.406 466.141C447.328 466.141 445.68 466.484 444.461 467.172C443.242 467.859 442.633 468.844 442.633 470.125C442.633 471.391 443.102 472.422 444.039 473.219C444.992 474.016 446.727 474.867 449.242 475.773C451.758 476.664 453.547 477.453 454.609 478.141C456.703 479.453 457.75 481.227 457.75 483.461C457.75 485.68 456.883 487.406 455.148 488.641C453.414 489.859 450.891 490.469 447.578 490.469C444.281 490.469 441.641 489.945 439.656 488.898V486.391ZM474.602 490.469C470.914 490.469 468.023 489.328 465.93 487.047C463.867 484.766 462.836 481.586 462.836 477.508C462.836 473.43 463.828 470.164 465.812 467.711C467.812 465.258 470.516 464.031 473.922 464.031C476.922 464.031 479.289 465.086 481.023 467.195C482.758 469.289 483.625 472.125 483.625 475.703V477.578H465.273C465.305 481.078 466.117 483.75 467.711 485.594C469.32 487.438 471.617 488.359 474.602 488.359C476.086 488.359 477.391 488.25 478.516 488.031C479.641 487.812 481.008 487.383 482.617 486.742V488.852C481.195 489.477 479.867 489.898 478.633 490.117C477.414 490.352 476.07 490.469 474.602 490.469ZM481.164 475.516C481.164 472.562 480.516 470.258 479.219 468.602C477.922 466.93 476.094 466.094 473.734 466.094C471.391 466.094 469.477 466.906 467.992 468.531C466.523 470.156 465.664 472.484 465.414 475.516H481.164ZM504.273 455.195C504.758 455.195 505.133 455.391 505.398 455.781C505.68 456.172 505.82 456.727 505.82 457.445C505.82 458.148 505.68 458.703 505.398 459.109C505.133 459.516 504.758 459.719 504.273 459.719C503.289 459.719 502.797 458.969 502.797 457.469C502.797 455.953 503.289 455.195 504.273 455.195ZM505.445 490H503.125V464.523H505.445V490ZM525.391 464.031C531.172 464.031 534.062 467.133 534.062 473.336V490H531.766V473.477C531.766 470.93 531.227 469.07 530.148 467.898C529.086 466.727 527.414 466.141 525.133 466.141C522.117 466.141 519.891 466.906 518.453 468.438C517.031 469.969 516.32 472.469 516.32 475.938V490H514V464.523H515.969L516.414 468.016H516.555C518.227 465.359 521.172 464.031 525.391 464.031ZM564.953 490.469C561.312 490.469 558.461 489.32 556.398 487.023C554.336 484.727 553.305 481.5 553.305 477.344C553.305 473.188 554.367 469.93 556.492 467.57C558.633 465.211 561.57 464.031 565.305 464.031C567.523 464.031 569.633 464.414 571.633 465.18L571 467.266C568.797 466.516 566.883 466.141 565.258 466.141C562.148 466.141 559.781 467.102 558.156 469.023C556.547 470.945 555.742 473.68 555.742 477.227C555.742 480.773 556.547 483.516 558.156 485.453C559.766 487.391 562.016 488.359 564.906 488.359C567.188 488.359 569.336 487.945 571.352 487.117V489.273C569.742 490.07 567.609 490.469 564.953 490.469ZM578.102 466.047C580.898 464.734 583.68 464.078 586.445 464.078C589.227 464.078 591.305 464.812 592.68 466.281C594.055 467.734 594.742 469.992 594.742 473.055V490H593.031L592.445 485.969H592.258C590.961 487.625 589.641 488.789 588.297 489.461C586.969 490.133 585.375 490.469 583.516 490.469C581.016 490.469 579.062 489.836 577.656 488.57C576.266 487.289 575.57 485.461 575.57 483.086C575.57 480.695 576.609 478.812 578.688 477.438C580.766 476.062 583.766 475.336 587.688 475.258L592.539 475.117V473.43C592.539 470.961 592.039 469.125 591.039 467.922C590.039 466.703 588.422 466.094 586.188 466.094C583.953 466.094 581.547 466.75 578.969 468.062L578.102 466.047ZM578.055 483.32C578.055 484.914 578.539 486.156 579.508 487.047C580.492 487.922 581.875 488.359 583.656 488.359C586.375 488.359 588.516 487.578 590.078 486.016C591.656 484.453 592.445 482.297 592.445 479.547V477.039L587.992 477.227C584.414 477.398 581.859 477.961 580.328 478.914C578.812 479.852 578.055 481.32 578.055 483.32ZM614.406 464.031C620.188 464.031 623.078 467.133 623.078 473.336V490H620.781V473.477C620.781 470.93 620.242 469.07 619.164 467.898C618.102 466.727 616.43 466.141 614.148 466.141C611.133 466.141 608.906 466.906 607.469 468.438C606.047 469.969 605.336 472.469 605.336 475.938V490H603.016V464.523H604.984L605.43 468.016H605.57C607.242 465.359 610.188 464.031 614.406 464.031ZM651.344 490H649.797L649.234 486.109H649.047C647.109 489.016 644.352 490.469 640.773 490.469C637.211 490.469 634.5 489.375 632.641 487.188C630.781 484.984 629.852 481.742 629.852 477.461C629.852 473.164 630.773 469.852 632.617 467.523C634.461 465.195 637.141 464.031 640.656 464.031C642.531 464.031 644.133 464.375 645.461 465.062C646.805 465.75 648 466.891 649.047 468.484H649.188C649.094 466.516 649.047 464.586 649.047 462.695V453.531H651.344V490ZM649.047 477.625V477.227C649.047 473.273 648.383 470.438 647.055 468.719C645.727 467 643.633 466.141 640.773 466.141C637.93 466.141 635.805 467.117 634.398 469.07C632.992 471.008 632.289 473.844 632.289 477.578C632.289 484.797 635.094 488.406 640.703 488.406C643.578 488.406 645.688 487.57 647.031 485.898C648.375 484.227 649.047 481.469 649.047 477.625ZM658.727 501.531C657.836 501.531 656.844 501.367 655.75 501.039V499.023C656.641 499.273 657.617 499.398 658.68 499.398C660.242 499.398 661.492 498.625 662.43 497.078C662.945 496.266 663.516 495.016 664.141 493.328L665.406 490L655.656 464.523H658.047L663.438 478.82C665.031 483.086 666.07 486.055 666.555 487.727H666.695C667.258 485.977 668.328 482.961 669.906 478.68L675.297 464.523H677.688L666.273 494.125C665.367 496.516 664.594 498.141 663.953 499C662.703 500.688 660.961 501.531 658.727 501.531Z" fill="white"/>
<path d="M66.9756 341L91.1016 288.266H59.417V276.84H105.516V285.365L81.2139 341H66.9756ZM118.392 341L142.518 288.266H110.833V276.84H156.932V285.365L132.63 341H118.392ZM173.675 296C173.675 299.721 173.997 302.504 174.642 304.35C175.315 306.166 176.385 307.074 177.85 307.074C180.662 307.074 182.068 303.383 182.068 296C182.068 288.676 180.662 285.014 177.85 285.014C176.385 285.014 175.315 285.922 174.642 287.738C173.997 289.525 173.675 292.279 173.675 296ZM193.143 295.912C193.143 302.65 191.839 307.719 189.231 311.117C186.624 314.486 182.801 316.171 177.762 316.171C172.928 316.171 169.192 314.442 166.556 310.985C163.919 307.499 162.601 302.475 162.601 295.912C162.601 282.523 167.654 275.829 177.762 275.829C182.713 275.829 186.507 277.572 189.144 281.059C191.81 284.516 193.143 289.467 193.143 295.912ZM223.377 276.752L187.737 341H177.19L212.83 276.752H223.377ZM218.675 321.664C218.675 325.385 218.997 328.168 219.642 330.014C220.315 331.83 221.385 332.738 222.85 332.738C225.662 332.738 227.068 329.047 227.068 321.664C227.068 314.34 225.662 310.678 222.85 310.678C221.385 310.678 220.315 311.586 219.642 313.402C218.997 315.189 218.675 317.943 218.675 321.664ZM238.143 321.576C238.143 328.285 236.839 333.339 234.231 336.737C231.624 340.106 227.801 341.791 222.762 341.791C217.928 341.791 214.192 340.062 211.556 336.605C208.919 333.119 207.601 328.109 207.601 321.576C207.601 308.188 212.654 301.493 222.762 301.493C227.713 301.493 231.507 303.236 234.144 306.723C236.81 310.18 238.143 315.131 238.143 321.576Z" fill="#E97E00"/>
<path d="M83.9824 461.955C90.1934 461.955 95.1299 463.698 98.792 467.185C102.483 470.671 104.329 475.446 104.329 481.511C104.329 488.688 102.117 494.211 97.6934 498.078C93.2695 501.945 86.9414 503.879 78.709 503.879C71.5605 503.879 65.7891 502.722 61.3945 500.407V488.674C63.709 489.904 66.4043 490.915 69.4805 491.706C72.5566 492.468 75.4717 492.849 78.2256 492.849C86.5166 492.849 90.6621 489.45 90.6621 482.653C90.6621 476.179 86.3701 472.941 77.7861 472.941C76.2334 472.941 74.5195 473.103 72.6445 473.425C70.7695 473.718 69.2461 474.04 68.0742 474.392L62.6689 471.491L65.0859 438.752H99.9346V450.266H76.9951L75.8086 462.878L77.3467 462.57C79.1338 462.16 81.3457 461.955 83.9824 461.955ZM154.427 453.122C154.427 457.136 153.211 460.549 150.779 463.361C148.348 466.174 144.935 468.107 140.54 469.162V469.426C145.726 470.07 149.651 471.652 152.317 474.172C154.983 476.662 156.316 480.031 156.316 484.279C156.316 490.461 154.075 495.28 149.593 498.737C145.11 502.165 138.709 503.879 130.389 503.879C123.416 503.879 117.234 502.722 111.844 500.407V488.85C114.334 490.109 117.073 491.135 120.062 491.926C123.05 492.717 126.009 493.112 128.938 493.112C133.421 493.112 136.731 492.351 138.87 490.827C141.009 489.304 142.078 486.857 142.078 483.488C142.078 480.471 140.848 478.332 138.387 477.072C135.926 475.812 132 475.183 126.609 475.183H121.731V464.768H126.697C131.678 464.768 135.311 464.123 137.596 462.834C139.91 461.516 141.067 459.274 141.067 456.11C141.067 451.247 138.021 448.815 131.927 448.815C129.817 448.815 127.664 449.167 125.467 449.87C123.299 450.573 120.882 451.789 118.216 453.518L111.932 444.157C117.791 439.938 124.778 437.829 132.894 437.829C139.544 437.829 144.788 439.177 148.626 441.872C152.493 444.567 154.427 448.317 154.427 453.122ZM173.675 458C173.675 461.721 173.997 464.504 174.642 466.35C175.315 468.166 176.385 469.074 177.85 469.074C180.662 469.074 182.068 465.383 182.068 458C182.068 450.676 180.662 447.014 177.85 447.014C176.385 447.014 175.315 447.922 174.642 449.738C173.997 451.525 173.675 454.279 173.675 458ZM193.143 457.912C193.143 464.65 191.839 469.719 189.231 473.117C186.624 476.486 182.801 478.171 177.762 478.171C172.928 478.171 169.192 476.442 166.556 472.985C163.919 469.499 162.601 464.475 162.601 457.912C162.601 444.523 167.654 437.829 177.762 437.829C182.713 437.829 186.507 439.572 189.144 443.059C191.81 446.516 193.143 451.467 193.143 457.912ZM223.377 438.752L187.737 503H177.19L212.83 438.752H223.377ZM218.675 483.664C218.675 487.385 218.997 490.168 219.642 492.014C220.315 493.83 221.385 494.738 222.85 494.738C225.662 494.738 227.068 491.047 227.068 483.664C227.068 476.34 225.662 472.678 222.85 472.678C221.385 472.678 220.315 473.586 219.642 475.402C218.997 477.189 218.675 479.943 218.675 483.664ZM238.143 483.576C238.143 490.285 236.839 495.339 234.231 498.737C231.624 502.106 227.801 503.791 222.762 503.791C217.928 503.791 214.192 502.062 211.556 498.605C208.919 495.119 207.601 490.109 207.601 483.576C207.601 470.188 212.654 463.493 222.762 463.493C227.713 463.493 231.507 465.236 234.144 468.723C236.81 472.18 238.143 477.131 238.143 483.576Z" fill="#E97E00"/>
<path d="M83.9824 616.955C90.1934 616.955 95.1299 618.698 98.792 622.185C102.483 625.671 104.329 630.446 104.329 636.511C104.329 643.688 102.117 649.211 97.6934 653.078C93.2695 656.945 86.9414 658.879 78.709 658.879C71.5605 658.879 65.7891 657.722 61.3945 655.407V643.674C63.709 644.904 66.4043 645.915 69.4805 646.706C72.5566 647.468 75.4717 647.849 78.2256 647.849C86.5166 647.849 90.6621 644.45 90.6621 637.653C90.6621 631.179 86.3701 627.941 77.7861 627.941C76.2334 627.941 74.5195 628.103 72.6445 628.425C70.7695 628.718 69.2461 629.04 68.0742 629.392L62.6689 626.491L65.0859 593.752H99.9346V605.266H76.9951L75.8086 617.878L77.3467 617.57C79.1338 617.16 81.3457 616.955 83.9824 616.955ZM154.427 608.122C154.427 612.136 153.211 615.549 150.779 618.361C148.348 621.174 144.935 623.107 140.54 624.162V624.426C145.726 625.07 149.651 626.652 152.317 629.172C154.983 631.662 156.316 635.031 156.316 639.279C156.316 645.461 154.075 650.28 149.593 653.737C145.11 657.165 138.709 658.879 130.389 658.879C123.416 658.879 117.234 657.722 111.844 655.407V643.85C114.334 645.109 117.073 646.135 120.062 646.926C123.05 647.717 126.009 648.112 128.938 648.112C133.421 648.112 136.731 647.351 138.87 645.827C141.009 644.304 142.078 641.857 142.078 638.488C142.078 635.471 140.848 633.332 138.387 632.072C135.926 630.812 132 630.183 126.609 630.183H121.731V619.768H126.697C131.678 619.768 135.311 619.123 137.596 617.834C139.91 616.516 141.067 614.274 141.067 611.11C141.067 606.247 138.021 603.815 131.927 603.815C129.817 603.815 127.664 604.167 125.467 604.87C123.299 605.573 120.882 606.789 118.216 608.518L111.932 599.157C117.791 594.938 124.778 592.829 132.894 592.829C139.544 592.829 144.788 594.177 148.626 596.872C152.493 599.567 154.427 603.317 154.427 608.122ZM173.675 613C173.675 616.721 173.997 619.504 174.642 621.35C175.315 623.166 176.385 624.074 177.85 624.074C180.662 624.074 182.068 620.383 182.068 613C182.068 605.676 180.662 602.014 177.85 602.014C176.385 602.014 175.315 602.922 174.642 604.738C173.997 606.525 173.675 609.279 173.675 613ZM193.143 612.912C193.143 619.65 191.839 624.719 189.231 628.117C186.624 631.486 182.801 633.171 177.762 633.171C172.928 633.171 169.192 631.442 166.556 627.985C163.919 624.499 162.601 619.475 162.601 612.912C162.601 599.523 167.654 592.829 177.762 592.829C182.713 592.829 186.507 594.572 189.144 598.059C191.81 601.516 193.143 606.467 193.143 612.912ZM223.377 593.752L187.737 658H177.19L212.83 593.752H223.377ZM218.675 638.664C218.675 642.385 218.997 645.168 219.642 647.014C220.315 648.83 221.385 649.738 222.85 649.738C225.662 649.738 227.068 646.047 227.068 638.664C227.068 631.34 225.662 627.678 222.85 627.678C221.385 627.678 220.315 628.586 219.642 630.402C218.997 632.189 218.675 634.943 218.675 638.664ZM238.143 638.576C238.143 645.285 236.839 650.339 234.231 653.737C231.624 657.106 227.801 658.791 222.762 658.791C217.928 658.791 214.192 657.062 211.556 653.605C208.919 650.119 207.601 645.109 207.601 638.576C207.601 625.188 212.654 618.493 222.762 618.493C227.713 618.493 231.507 620.236 234.144 623.723C236.81 627.18 238.143 632.131 238.143 638.576Z" fill="#19ADB7"/>
<path d="M83.9824 763.955C90.1934 763.955 95.1299 765.698 98.792 769.185C102.483 772.671 104.329 777.446 104.329 783.511C104.329 790.688 102.117 796.211 97.6934 800.078C93.2695 803.945 86.9414 805.879 78.709 805.879C71.5605 805.879 65.7891 804.722 61.3945 802.407V790.674C63.709 791.904 66.4043 792.915 69.4805 793.706C72.5566 794.468 75.4717 794.849 78.2256 794.849C86.5166 794.849 90.6621 791.45 90.6621 784.653C90.6621 778.179 86.3701 774.941 77.7861 774.941C76.2334 774.941 74.5195 775.103 72.6445 775.425C70.7695 775.718 69.2461 776.04 68.0742 776.392L62.6689 773.491L65.0859 740.752H99.9346V752.266H76.9951L75.8086 764.878L77.3467 764.57C79.1338 764.16 81.3457 763.955 83.9824 763.955ZM154.427 755.122C154.427 759.136 153.211 762.549 150.779 765.361C148.348 768.174 144.935 770.107 140.54 771.162V771.426C145.726 772.07 149.651 773.652 152.317 776.172C154.983 778.662 156.316 782.031 156.316 786.279C156.316 792.461 154.075 797.28 149.593 800.737C145.11 804.165 138.709 805.879 130.389 805.879C123.416 805.879 117.234 804.722 111.844 802.407V790.85C114.334 792.109 117.073 793.135 120.062 793.926C123.05 794.717 126.009 795.112 128.938 795.112C133.421 795.112 136.731 794.351 138.87 792.827C141.009 791.304 142.078 788.857 142.078 785.488C142.078 782.471 140.848 780.332 138.387 779.072C135.926 777.812 132 777.183 126.609 777.183H121.731V766.768H126.697C131.678 766.768 135.311 766.123 137.596 764.834C139.91 763.516 141.067 761.274 141.067 758.11C141.067 753.247 138.021 750.815 131.927 750.815C129.817 750.815 127.664 751.167 125.467 751.87C123.299 752.573 120.882 753.789 118.216 755.518L111.932 746.157C117.791 741.938 124.778 739.829 132.894 739.829C139.544 739.829 144.788 741.177 148.626 743.872C152.493 746.567 154.427 750.317 154.427 755.122ZM173.675 760C173.675 763.721 173.997 766.504 174.642 768.35C175.315 770.166 176.385 771.074 177.85 771.074C180.662 771.074 182.068 767.383 182.068 760C182.068 752.676 180.662 749.014 177.85 749.014C176.385 749.014 175.315 749.922 174.642 751.738C173.997 753.525 173.675 756.279 173.675 760ZM193.143 759.912C193.143 766.65 191.839 771.719 189.231 775.117C186.624 778.486 182.801 780.171 177.762 780.171C172.928 780.171 169.192 778.442 166.556 774.985C163.919 771.499 162.601 766.475 162.601 759.912C162.601 746.523 167.654 739.829 177.762 739.829C182.713 739.829 186.507 741.572 189.144 745.059C191.81 748.516 193.143 753.467 193.143 759.912ZM223.377 740.752L187.737 805H177.19L212.83 740.752H223.377ZM218.675 785.664C218.675 789.385 218.997 792.168 219.642 794.014C220.315 795.83 221.385 796.738 222.85 796.738C225.662 796.738 227.068 793.047 227.068 785.664C227.068 778.34 225.662 774.678 222.85 774.678C221.385 774.678 220.315 775.586 219.642 777.402C218.997 779.189 218.675 781.943 218.675 785.664ZM238.143 785.576C238.143 792.285 236.839 797.339 234.231 800.737C231.624 804.106 227.801 805.791 222.762 805.791C217.928 805.791 214.192 804.062 211.556 800.605C208.919 797.119 207.601 792.109 207.601 785.576C207.601 772.188 212.654 765.493 222.762 765.493C227.713 765.493 231.507 767.236 234.144 770.723C236.81 774.18 238.143 779.131 238.143 785.576Z" fill="#E97E00"/>
</svg>
